<svg width="517" height="381" viewBox="0 0 517 381" fill="none" xmlns="http://www.w3.org/2000/svg">
<path d="M379.26 347.568L241.148 348.025C204.507 337.012 174.487 298.761 174.297 241.41C174.261 232.771 174.913 224.142 176.248 215.606L287.491 190.606L373.308 171.322C379.632 176.987 385.525 183.115 390.937 189.657L308.876 233L270.164 253.449L313.664 238.436L403.952 207.279C409.582 215.89 414.599 224.887 418.965 234.204L391.723 262.367L422.54 242.186C422.672 242.495 422.803 242.805 422.933 243.115C442.464 289.495 418.232 347.439 379.26 347.568Z" fill="#F2F2F2"/>
<path d="M356.563 158.342C335.677 164.342 310 171.923 283.598 179.803C245.426 191.199 205.744 203.226 176.854 212.017L176.873 211.914C177.941 205.745 180.452 199.916 184.2 194.902C205.601 167.069 232.851 147.625 263.18 140.404H263.182C271.711 138.369 280.446 137.327 289.213 137.298C313.343 137.218 336.198 144.788 356.563 158.342Z" fill="#F2F2F2"/>
<path d="M217.047 360.593C292.92 360.593 354.427 356.006 354.427 350.347C354.427 344.688 292.92 340.101 217.047 340.101C141.174 340.101 79.667 344.688 79.667 350.347C79.667 356.006 141.174 360.593 217.047 360.593Z" fill="#3F3D56"/>
<path d="M178.225 189.797C178.225 256.865 138.328 280.283 89.1123 280.283C39.8969 280.283 0 256.865 0 189.797C0 122.729 89.1123 37.4082 89.1123 37.4082C89.1123 37.4082 178.225 122.729 178.225 189.797Z" fill="#009688" fill-opacity="0.76"/>
<path d="M89.3839 279.618L90.2588 226.233L126.679 160.187L90.3961 217.858L90.7895 193.854L115.89 146.07L90.8932 187.501V187.502L91.601 144.329L118.48 106.287L91.712 137.54L92.1542 58.3757L89.3761 163.175L89.6045 158.851L62.2769 117.389L89.166 167.15L86.6199 215.367L86.544 214.087L55.04 170.454L86.4486 218.609L86.1301 224.639L86.073 224.729L86.0992 225.224L79.6393 347.554H88.2702L89.3059 284.368L120.637 236.332L89.3839 279.618Z" fill="#3F3D56"/>
<path d="M314 14.3498V333.66C313.995 337.464 312.151 341.11 308.871 343.799C305.591 346.488 301.145 347.999 296.508 348H138.492C136.195 348.003 133.919 347.635 131.796 346.915C129.673 346.196 127.743 345.14 126.119 343.808C124.494 342.476 123.205 340.894 122.327 339.152C121.448 337.411 120.998 335.545 121 333.66V14.3498C121 12.4653 121.452 10.5992 122.331 8.85815C123.21 7.11708 124.499 5.53511 126.123 4.20258C127.747 2.87005 129.676 1.81306 131.798 1.09198C133.92 0.370894 136.195 -0.000161725 138.492 6.73237e-07H162.139V2.48768C162.138 5.62121 163.655 8.62658 166.355 10.8428C169.056 13.059 172.719 14.3045 176.538 14.3054H256.906C259.981 14.3108 262.976 13.5023 265.445 12C265.944 11.7021 266.418 11.3762 266.862 11.0246C268.269 9.92267 269.388 8.59777 270.152 7.1303C270.916 5.66282 271.309 4.08335 271.306 2.48768V6.73237e-07H296.508C298.805 -0.000576682 301.08 0.370198 303.203 1.09114C305.325 1.81207 307.254 2.86905 308.878 4.20166C310.503 5.53427 311.791 7.1164 312.67 8.85766C313.549 10.5989 314.001 12.4652 314 14.3498Z" fill="#3F3D56"/>
<path d="M159.848 281.552H159.226L158.787 281.991L149.846 290.935V283.052V262.603V250.675H284.226V281.552H159.848Z" fill="#032B4D" stroke="#6C63FF" stroke-width="3"/>
<path d="M256.281 257.4H178.994V263.669H256.281V257.4Z" fill="white"/>
<path d="M256.281 266.804H178.994V273.072H256.281V266.804Z" fill="#FDCA05"/>
<path d="M274.224 219.772H149.846V188.896H284.226V200.824V221.272V229.155L275.285 220.212L274.846 219.772H274.224Z" fill="#032B4D" stroke="#6C63FF" stroke-width="3"/>
<path d="M249.051 196.224H171.765V202.492H249.051V196.224Z" fill="#FDCA05"/>
<path d="M249.051 205.627H171.765V211.895H249.051V205.627Z" fill="white"/>
<path d="M142.923 45.2996V155.956H291.149V45.2996H142.923ZM162.023 46.6927C162.495 46.6927 162.957 46.8328 163.35 47.0952C163.742 47.3576 164.048 47.7306 164.229 48.167C164.41 48.6034 164.457 49.0836 164.365 49.5469C164.273 50.0102 164.045 50.4357 163.711 50.7697C163.377 51.1037 162.952 51.3312 162.489 51.4234C162.026 51.5155 161.546 51.4682 161.109 51.2874C160.673 51.1067 160.3 50.8006 160.038 50.4078C159.776 50.0151 159.636 49.5533 159.636 49.081C159.636 48.7673 159.697 48.4568 159.817 48.167C159.937 47.8773 160.113 47.614 160.335 47.3922C160.557 47.1704 160.82 46.9945 161.109 46.8745C161.399 46.7545 161.71 46.6927 162.023 46.6927V46.6927ZM147.698 51.4692C147.226 51.4692 146.764 51.3292 146.371 51.0667C145.979 50.8043 145.673 50.4313 145.492 49.9949C145.311 49.5585 145.264 49.0783 145.356 48.615C145.448 48.1518 145.676 47.7262 146.01 47.3922C146.344 47.0582 146.769 46.8308 147.232 46.7386C147.695 46.6464 148.175 46.6937 148.612 46.8745C149.048 47.0553 149.421 47.3614 149.683 47.7541C149.945 48.1469 150.085 48.6086 150.085 49.081C150.085 49.7144 149.834 50.3218 149.386 50.7697C148.938 51.2176 148.331 51.4692 147.698 51.4692V51.4692ZM152.473 49.081C152.473 48.6086 152.613 48.1469 152.875 47.7541C153.138 47.3614 153.511 47.0553 153.947 46.8745C154.383 46.6937 154.863 46.6464 155.326 46.7386C155.789 46.8308 156.215 47.0582 156.549 47.3922C156.883 47.7262 157.11 48.1518 157.202 48.615C157.294 49.0783 157.247 49.5585 157.066 49.9949C156.886 50.4313 156.58 50.8043 156.187 51.0667C155.794 51.3292 155.333 51.4692 154.861 51.4692C154.547 51.4692 154.237 51.4075 153.947 51.2874C153.657 51.1674 153.394 50.9915 153.172 50.7697C152.951 50.548 152.775 50.2847 152.655 49.9949C152.535 49.7052 152.473 49.3946 152.473 49.081V49.081ZM234.644 124.908H154.861V65.5998H234.644V124.908Z" fill="#8A87BD"/>
<path d="M283.19 55.8682H247.178V57.6594H283.19V55.8682Z" fill="#FDCA05"/>
<path d="M283.19 62.0378H247.178V63.829H283.19V62.0378Z" fill="#FDCA05"/>
<path d="M283.19 68.2073H247.178V69.9985H283.19V68.2073Z" fill="#FDCA05"/>
<path d="M283.19 74.3772H247.178V76.1684H283.19V74.3772Z" fill="#FDCA05"/>
<path d="M283.19 80.5469H247.178V82.3381H283.19V80.5469Z" fill="#FDCA05"/>
<path d="M283.19 86.7166H247.178V88.5078H283.19V86.7166Z" fill="#FDCA05"/>
<path d="M283.19 92.8862H247.178V94.6774H283.19V92.8862Z" fill="#FDCA05"/>
<path d="M283.19 99.0557H247.178V100.847H283.19V99.0557Z" fill="#FDCA05"/>
<path d="M283.19 105.226H247.178V107.017H283.19V105.226Z" fill="#FDCA05"/>
<path d="M283.19 111.395H247.178V113.186H283.19V111.395Z" fill="white"/>
<path d="M159.637 122.739C160.955 122.739 162.024 121.67 162.024 120.351C162.024 119.032 160.955 117.963 159.637 117.963C158.318 117.963 157.249 119.032 157.249 120.351C157.249 121.67 158.318 122.739 159.637 122.739Z" fill="white"/>
<path d="M167.792 122.739C169.11 122.739 170.179 121.67 170.179 120.351C170.179 119.032 169.11 117.963 167.792 117.963C166.473 117.963 165.404 119.032 165.404 120.351C165.404 121.67 166.473 122.739 167.792 122.739Z" fill="white"/>
<path d="M175.95 122.739C177.269 122.739 178.338 121.67 178.338 120.351C178.338 119.032 177.269 117.963 175.95 117.963C174.631 117.963 173.562 119.032 173.562 120.351C173.562 121.67 174.631 122.739 175.95 122.739Z" fill="white"/>
<path d="M283.19 132.094H247.178V142.244H283.19V132.094Z" fill="#032B4D"/>
<path d="M77.8789 230.253L76.7605 269.41L64.8307 315.279C64.8307 315.279 67.4403 323.111 65.5763 324.975C63.7123 326.84 55.1377 330.196 55.1377 330.196L62.221 232.491L77.8789 230.253Z" fill="#2F2E41"/>
<path d="M51.9789 324.784C51.9789 324.784 47.7246 334.147 53.6807 334.998C59.6368 335.849 87.1483 338.119 85.4466 333.296C83.7448 328.472 63.0403 323.933 63.0403 323.933L51.9789 324.784Z" fill="#2F2E41"/>
<path d="M36.125 195.571C36.125 195.571 40.5987 219.811 43.5811 223.913C46.5636 228.016 42.0899 257.849 42.0899 257.849C42.0899 257.849 35.3794 300.735 38.3618 307.448C41.3443 314.16 40.5987 311.923 40.2259 315.652C39.8531 319.381 39.1075 322.365 40.2259 325.721C41.3443 329.077 41.3443 328.704 41.7171 330.569C42.0899 332.433 41.7171 342.502 41.7171 342.502C41.7171 342.502 57.7478 348.096 60.3574 339.892C60.3574 339.892 56.6294 334.671 57.7478 330.569C58.914 326.441 59.5405 322.179 59.6119 317.89V310.058L76.761 245.916L80.8618 222.795C80.8618 222.795 79.7434 199.301 75.6425 197.063C71.5417 194.826 36.125 195.571 36.125 195.571Z" fill="#2F2E41"/>
<path d="M42.8364 340.637C42.8364 340.637 37.2442 352.944 45.0732 354.062C52.9021 355.181 89.0644 358.164 86.8276 351.825C84.5907 345.485 57.3758 339.519 57.3758 339.519L42.8364 340.637Z" fill="#2F2E41"/>
<path d="M49.923 88.1857C58.1588 88.1857 64.8353 81.5072 64.8353 73.2689C64.8353 65.0305 58.1588 58.3521 49.923 58.3521C41.6872 58.3521 35.0107 65.0305 35.0107 73.2689C35.0107 81.5072 41.6872 88.1857 49.923 88.1857Z" fill="#FFB9B9"/>
<path d="M39.4443 79.8607L39.7219 98.9105L58.0046 98.9724C58.0046 98.9724 53.3646 84.0598 55.4429 80.9415C57.5213 77.8231 39.4443 79.8607 39.4443 79.8607Z" fill="#FFB9B9"/>
<path d="M66.697 109.427C66.697 109.427 53.6487 92.6453 43.5829 99.7308C33.5171 106.816 29.7891 123.598 29.7891 123.598L32.0259 170.586C32.0259 170.586 37.618 177.298 34.2627 181.773C30.9075 186.249 29.0435 185.13 31.6531 188.486C34.2627 191.842 37.2452 194.453 36.1268 195.572C35.0084 196.69 37.2452 197.436 37.2452 197.436L76.7628 198.555C76.7628 198.555 75.6443 197.063 78.9996 192.588C82.3549 188.113 78.254 182.146 78.9996 179.909C79.7452 177.671 80.4908 180.282 80.8636 175.061C81.2364 169.84 66.697 109.427 66.697 109.427Z" fill="#3F3D56"/>
<path d="M62.9678 205.641C62.9678 205.641 63.7134 214.964 69.3055 216.455C71.4025 217.015 72.9753 215.948 74.1221 214.397C75.1929 212.91 75.7932 211.136 75.8454 209.304C75.8976 207.473 75.3993 205.667 74.4148 204.122L73.0336 201.911L62.9678 205.641Z" fill="#FFB9B9"/>
<path d="M28.4833 90.5946C28.4833 90.5946 28.1105 98.053 28.4833 99.1717C28.8561 100.291 29.2289 101.409 28.4833 102.528C27.7377 103.647 28.1105 107.376 28.8561 107.749C29.6017 108.122 27.3649 111.478 28.1105 113.716C28.8561 115.953 29.6017 116.699 29.9745 117.445C30.3473 118.191 30.9479 119.527 30.9479 119.527C30.9479 119.527 41.9043 96.1884 50.8517 101.782C59.7991 107.376 66.8824 109.241 66.8824 109.241C66.8824 109.241 62.0359 83.1362 28.4833 90.5946Z" fill="#3F3D56"/>
<path d="M44.6991 107.935C44.6991 107.935 32.7693 109.054 33.5149 124.716C34.2605 140.379 32.3965 164.992 32.3965 164.992C32.3965 164.992 52.9009 196.317 56.2561 198.555C59.6114 200.792 59.9842 200.419 59.6114 202.284C59.2386 204.148 58.8658 205.64 60.357 207.132C61.2374 208.018 62.242 208.772 63.3395 209.369C63.3395 209.369 75.2693 205.267 74.1509 201.538C73.0325 197.809 67.8131 191.842 67.8131 191.842C67.8131 191.842 58.8658 177.298 58.493 175.061C58.1202 172.823 58.1202 173.196 57.0017 172.077C55.8833 170.958 52.9009 166.483 52.9009 164.246V157.16L56.0264 119.295C56.1683 117.753 55.9823 116.198 55.4807 114.733C54.9791 113.268 54.1733 111.926 53.1161 110.794C51.3418 108.937 48.6602 107.459 44.6991 107.935Z" fill="#3F3D56"/>
<path d="M59.5393 61.7654C60.5111 62.0347 61.5346 62.0578 62.5176 61.8327C63.5006 61.6075 64.4121 61.1412 65.17 60.4758C66.6272 59.0906 67.117 56.6907 66.0801 54.968C65.1847 53.4804 63.4433 52.7528 61.7862 52.2356C58.1308 51.0959 54.3243 50.5152 50.4955 50.5129C48.6701 50.5124 46.764 50.668 45.202 51.6128C44.4291 52.0803 43.7745 52.7223 43.0104 53.204C41.6054 54.0896 39.9182 54.3839 38.3755 54.9992C36.7982 55.6405 35.3769 56.6132 34.2079 57.8516C33.0389 59.0899 32.1494 60.565 31.5997 62.177C31.2458 63.2703 31.0247 64.4022 30.9411 65.5484C30.689 68.6881 31.2436 71.84 32.5523 74.7049C34.6325 79.2421 38.5917 83.0571 39.1511 88.0171C41.2824 86.2275 41.9071 83.2255 43.5579 80.9847C44.7867 79.3278 46.541 78.1367 48.5341 77.6061C49.091 77.5324 49.6146 77.2983 50.0409 76.9323C50.3279 76.5356 50.4919 76.0632 50.5125 75.574L51.5357 68.2047C51.7439 66.7049 52.0252 65.0659 53.1758 64.082C53.8974 63.5447 54.7336 63.1818 55.6188 63.0215C57.7124 62.5007 59.8452 62.1528 61.9958 61.9813" fill="#2F2E41"/>
<path opacity="0.1" d="M34.2109 170.319L55.139 197.486C55.139 197.486 35.8684 181.372 34.2109 170.319Z" fill="black"/>
<path opacity="0.1" d="M54.2977 140.24L54.0996 165.898L66.2545 184.135L56.3095 163.687L54.2977 140.24Z" fill="black"/>
<path d="M323.086 341.599L320.469 339.691C320.469 339.691 318.737 349.185 320.67 350.607C322.603 352.03 329.85 354.401 329.85 357.246C329.85 360.091 346.278 363.884 346.761 359.616C347.245 355.349 345.312 352.978 345.312 352.978C345.312 352.978 337.581 345.392 336.615 343.969C335.648 342.547 333.233 339.702 333.233 339.702L323.086 341.599Z" fill="#2F2E41"/>
<path d="M361.691 221.795C361.691 221.795 361.618 222.219 361.491 222.993C361.374 223.68 361.213 224.652 361.018 225.849C358.971 238.172 352.999 274.451 353.404 275.648C353.891 277.091 357.303 282.38 353.404 283.822C352.875 284.125 352.451 284.58 352.19 285.125C351.352 286.658 350.662 288.265 350.128 289.924C347.802 296.579 345.316 307.229 343.878 314.605C343.249 317.846 342.82 320.452 342.694 321.817C342.649 322.133 342.645 322.453 342.679 322.769C343.166 324.693 339.754 331.424 338.292 333.347C336.829 335.271 334.392 337.194 334.879 339.117C335.367 341.041 322.692 346.33 321.23 342.964C319.767 339.598 319.767 337.675 319.28 336.713C318.792 335.752 318.305 329.02 320.742 328.058C323.18 327.097 321.717 310.268 324.155 306.902C324.969 305.782 326.212 301.988 327.513 297.425C328.025 295.636 328.542 293.732 329.049 291.823C331.106 284 332.929 276.129 332.929 276.129L332.442 219.872L359.253 216.506L359.941 218.002L361.31 220.968L361.691 221.795Z" fill="#2F2E41"/>
<path d="M362.679 313.453C362.679 313.453 366.573 309.586 368.521 313.453C370.468 317.319 372.416 332.301 375.824 335.683C379.231 339.066 383.613 355.981 378.745 356.948C373.876 357.914 368.521 355.498 368.034 352.598C367.547 349.699 357.323 334.717 357.323 333.267C357.323 331.817 364.139 326.501 364.139 326.501L362.679 313.453Z" fill="#2F2E41"/>
<path d="M304.03 195.111C304.03 195.111 310.22 251.317 311.649 256.601C313.077 261.885 320.695 282.062 323.076 285.424C325.457 288.787 340.694 316.169 342.598 317.611C344.503 319.052 348.312 322.895 348.312 322.895C348.312 322.895 355.454 330.101 356.407 331.542C357.359 332.983 365.453 328.66 365.93 325.777C366.406 322.895 365.453 318.091 364.977 316.169C364.501 314.248 365.93 311.366 364.501 309.924C363.073 308.483 355.931 301.277 355.931 297.915C355.931 294.552 343.551 274.856 338.789 270.532C334.028 266.209 334.98 259.003 334.98 259.003V229.699L361.168 221.532C361.168 221.532 359.74 198.474 356.407 198.474C353.074 198.474 309.268 190.787 304.03 195.111Z" fill="#2F2E41"/>
<path d="M342.908 114.29C351.834 114.29 359.07 107.249 359.07 98.5638C359.07 89.8788 351.834 82.8381 342.908 82.8381C333.981 82.8381 326.745 89.8788 326.745 98.5638C326.745 107.249 333.981 114.29 342.908 114.29Z" fill="#9F616A"/>
<path d="M337.666 111.249C337.666 111.249 335.721 118.575 333.288 120.529C330.856 122.482 339.612 130.786 339.612 130.786L356.152 131.763L359.071 122.482C359.071 122.482 353.72 111.737 355.179 104.899C356.639 98.0609 337.666 111.249 337.666 111.249Z" fill="#9F616A"/>
<path d="M330.671 119.531C330.671 119.531 335.033 120.013 336.003 121.457C336.972 122.902 343.758 127.235 349.089 126.272C354.421 125.309 357.814 123.865 358.783 124.346C359.753 124.828 361.692 134.939 361.692 134.939L356.36 150.347L357.329 192.719L358.783 204.275C358.783 204.275 361.692 200.423 350.059 202.831C338.426 205.238 323.401 200.905 318.554 200.423C313.707 199.942 305.467 198.497 304.982 195.608C304.497 192.719 306.436 182.126 306.436 182.126L314.191 149.866L319.038 132.532L330.671 119.531Z" fill="#FF4E6E"/>
<path d="M335.481 117.07C335.481 117.07 331.357 114.91 329.894 116.836C328.431 118.761 309.903 121.649 309.903 123.093C309.903 124.537 306.003 163.525 306.978 166.894C307.953 170.263 305.028 174.114 305.028 174.114L301.615 188.554C301.615 188.554 292.351 215.99 296.252 216.952C300.152 217.915 303.565 216.952 305.028 216.952C306.49 216.952 306.003 198.662 309.903 193.848C313.804 189.035 319.167 177.002 320.142 174.595C321.118 172.189 333.307 138.977 332.819 135.126C332.332 131.275 335.481 117.07 335.481 117.07Z" fill="#D0CDE1"/>
<path d="M355.411 119.531C355.411 119.531 359.27 119.531 359.752 120.491C360.235 121.451 365.058 127.69 366.987 129.129C368.917 130.569 375.67 136.808 375.67 138.247C375.67 139.687 361.682 150.245 361.682 150.245C361.682 150.245 355.894 178.559 358.788 188.157C361.682 197.755 366.023 220.79 364.093 222.229C362.164 223.669 357.823 224.149 357.823 222.229C357.823 220.31 354.929 199.674 352.517 195.355C350.105 191.036 342.87 163.682 345.764 156.003C348.658 148.325 355.411 119.531 355.411 119.531Z" fill="#D0CDE1"/>
<path d="M291.81 166.708C291.81 166.708 291.33 181.755 296.608 189.52C300.03 194.712 302.923 200.241 305.243 206.023C305.243 206.023 313.878 203.596 315.317 200.684C316.756 197.772 325.871 200.198 325.871 199.228C325.871 198.257 314.837 193.403 313.878 192.433C312.918 191.462 309.56 191.462 307.641 189.52C305.722 187.579 305.243 183.211 305.243 183.211L303.324 170.591L291.81 166.708Z" fill="#9F616A"/>
<path d="M331.694 88.9123C330.468 88.8828 329.262 88.6065 328.145 88.1C325.735 86.8003 325.096 83.0989 326.931 81.0662C327.437 80.549 328.003 80.0941 328.616 79.711L332.261 77.2307C333.873 76.1337 335.523 75.0187 337.403 74.5016C339.126 74.1095 340.902 74.0047 342.659 74.1913C346.086 74.3123 349.478 74.9289 352.728 76.0219C355.942 77.2015 358.94 79.1749 360.886 81.991C363.972 86.4552 364.014 92.4761 362.315 97.6299C360.615 102.784 357.387 107.272 354.206 111.669L352.555 103.616C352.408 102.899 352.218 102.113 351.622 101.688C350.139 100.633 348.325 102.799 346.505 102.785C345.336 102.776 344.354 101.815 343.911 100.733C343.548 99.6196 343.355 98.4584 343.336 97.2878C343.119 94.8209 342.257 91.3883 339.92 90.0278C337.743 88.7601 334.141 89.1346 331.694 88.9123Z" fill="#2F2E41"/>
<path opacity="0.1" d="M332.861 221.897C332.861 221.897 334.274 269.19 335.11 270.642C335.947 272.094 335.11 221.748 335.11 221.748L332.861 221.897Z" fill="black"/>
<path d="M313.641 123.026H309.856C309.856 123.026 293.774 145.225 295.666 146.673C297.558 148.12 295.666 151.981 295.666 151.981L291.881 159.22C291.881 159.22 287.151 163.563 288.57 164.528C289.989 165.494 291.881 169.354 291.881 169.354C291.881 169.354 301.342 167.907 304.18 173.698L310.315 165.796L313.641 123.026Z" fill="#D0CDE1"/>
<path d="M357.389 164.843C357.389 164.843 346.84 165.32 334.852 157.69L322.863 152.444C322.863 152.444 312.314 136.229 311.355 139.09C310.396 141.952 312.793 147.675 312.793 147.675C312.793 147.675 297.083 150.652 297.95 155.214C298.128 156.153 306.08 153.874 306.08 153.874C306.08 153.874 304.641 162.935 312.793 163.412C320.945 163.889 323.343 161.982 323.343 161.982C323.343 161.982 357.869 190.596 363.623 181.535C369.378 172.474 357.389 164.843 357.389 164.843Z" fill="#9F616A"/>
<path d="M370.314 136.131L375.523 138.051V152.453L377.416 155.334C377.416 155.334 376.943 161.095 375.523 162.535C374.102 163.975 371.261 163.495 372.208 166.856C372.777 169.046 372.938 171.326 372.682 173.577C372.682 173.577 364.159 184.618 363.685 183.178C363.212 181.738 356.583 163.975 355.636 163.975C354.689 163.975 365.106 136.131 365.106 136.131L370.314 136.131Z" fill="#D0CDE1"/>
<path d="M307.141 209.517C307.141 209.517 302.28 204.495 304.711 204.244C307.141 203.993 315.603 198.971 317.013 201.482C318.423 203.993 307.141 209.517 307.141 209.517Z" fill="#2F2E41"/>
<path d="M126.95 334.743C126.95 348.286 118.902 353.014 108.973 353.014C108.743 353.014 108.514 353.012 108.284 353.006C107.824 352.997 107.369 352.975 106.919 352.944C97.9584 352.31 90.9971 347.338 90.9971 334.743C90.9971 321.709 107.648 305.262 108.899 304.045L108.901 304.043C108.949 303.996 108.973 303.973 108.973 303.973C108.973 303.973 126.95 321.201 126.95 334.743Z" fill="#009688"/>
<path d="M108.319 350.942L114.894 341.753L108.303 351.951L108.285 353.006C107.825 352.997 107.37 352.975 106.919 352.944L107.628 339.395L107.623 339.29L107.635 339.27L107.701 337.99L101.094 327.767L107.722 337.031L107.738 337.302L108.273 327.065L102.616 316.501L108.342 325.269L108.9 304.045L108.902 303.973V304.043L108.809 320.779L114.44 314.144L108.786 322.221L108.637 331.386L113.895 322.59L108.615 332.735L108.532 337.831L116.165 325.587L108.503 339.609L108.319 350.942Z" fill="#3F3D56"/>
<path d="M269.44 269.027C269.44 269.027 268.916 301.472 274.677 312.147C280.437 322.823 282.906 369.264 282.906 369.264C282.906 369.264 343.295 375.502 385.376 361.793C427.458 348.085 517.001 342.478 517.001 342.478L501.911 240.919C501.911 240.919 427.365 236.145 384.957 256.342C342.55 276.539 269.44 269.027 269.44 269.027Z" fill="#8DD070"/>
<path opacity="0.1" d="M269.44 269.027C269.44 269.027 268.916 301.472 274.677 312.147C280.437 322.823 282.906 369.264 282.906 369.264C282.906 369.264 343.295 375.502 385.376 361.793C427.458 348.085 517.001 342.478 517.001 342.478L501.911 240.919C501.911 240.919 427.365 236.145 384.957 256.342C342.55 276.539 269.44 269.027 269.44 269.027Z" fill="black"/>
<path d="M282.804 280.88C282.804 280.88 280.915 307.651 285.655 316.205C290.394 324.758 290.615 362.944 290.615 362.944C290.615 362.944 344.962 365.462 383.621 352.321C422.28 339.18 503.518 330.657 503.518 330.657L494.287 247.602C494.287 247.602 427.068 246.911 387.837 265.408C348.605 283.906 282.804 280.88 282.804 280.88Z" fill="#8DD070"/>
<path opacity="0.1" d="M387.239 337.114C394.972 336.152 399.566 321.947 397.5 305.386C395.434 288.824 387.491 276.179 379.758 277.14C372.025 278.102 367.431 292.307 369.497 308.869C371.563 325.43 379.506 338.076 387.239 337.114Z" fill="black"/>
<path opacity="0.2" d="M461.038 191.446C461.038 191.446 388.617 209.749 354.465 241.966C320.313 274.183 248.419 289.438 248.419 289.438C248.419 289.438 257.89 320.474 266.651 328.871C275.411 337.268 292.027 380.717 292.027 380.717C292.027 380.717 351.416 368.144 387.251 342.191C423.086 316.238 506.603 283.461 506.603 283.461L461.038 191.446Z" fill="black"/>
<path d="M247.333 284.79C247.333 284.79 256.8 315.831 265.553 324.228C274.306 332.624 290.93 376.07 290.93 376.07C290.93 376.07 350.327 363.5 386.165 337.548C422.004 311.595 505.513 278.829 505.513 278.829L459.949 186.802C459.949 186.802 387.531 205.105 353.379 237.322C319.227 269.539 247.333 284.79 247.333 284.79Z" fill="#8DD070"/>
<path opacity="0.1" d="M247.333 284.79C247.333 284.79 256.8 315.831 265.553 324.228C274.306 332.624 290.93 376.07 290.93 376.07C290.93 376.07 350.327 363.5 386.165 337.548C422.004 311.595 505.513 278.829 505.513 278.829L459.949 186.802C459.949 186.802 387.531 205.105 353.379 237.322C319.227 269.539 247.333 284.79 247.333 284.79Z" fill="black"/>
<path d="M263.682 291.977C263.682 291.977 270.112 318.038 277.253 324.724C284.393 331.411 296.33 367.68 296.33 367.68C296.33 367.68 348.825 353.419 381.582 329.065C414.338 304.711 489.045 271.739 489.045 271.739L454.74 195.494C454.74 195.494 390.555 215.43 358.899 245.058C327.242 274.686 263.682 291.977 263.682 291.977Z" fill="#8DD070"/>
<path opacity="0.1" d="M380.371 313.495C387.435 310.211 387.443 295.283 380.387 280.154C373.332 265.024 361.886 255.423 354.822 258.707C347.758 261.992 347.751 276.92 354.806 292.049C361.861 307.179 373.307 316.78 380.371 313.495Z" fill="black"/>
<path d="M179.21 76.3799L167.414 84.6687V91.6529V112.067H191.005V91.6529V84.6687L179.21 76.3799Z" fill="url(#paint0_linear)"/>
<path d="M190.614 84.4685L179.408 76.3801L168.202 84.4685V91.2824H190.614V84.4685Z" fill="white"/>
<path opacity="0.5" d="M190.614 84.4685L179.408 76.3801L168.202 84.4685V91.2824H190.614V84.4685Z" fill="white"/>
<path d="M190.614 91.2827H168.202V111.283H190.614V91.2827Z" fill="white"/>
<path d="M191.992 88.5374L179.407 79.6142L166.671 88.5374L165.842 85.3992L179.407 75.5959L192.972 85.3992L191.992 88.5374Z" fill="white"/>
<path d="M192.039 88.1452L179.407 79.1779L166.775 88.1452L166.235 85.3373L179.407 75.988L192.579 85.3373L192.039 88.1452Z" fill="white"/>
<path opacity="0.2" d="M192.039 88.1452L179.407 79.1779L166.775 88.1452L166.235 85.3373L179.407 75.988L192.579 85.3373L192.039 88.1452Z" fill="white"/>
<path d="M185.895 95.5964H172.92V111.283H185.895V95.5964Z" fill="white"/>
<path d="M185.895 99.5178H172.92V102.263H185.895V99.5178Z" fill="#FDCA05"/>
<path d="M185.895 105.008H172.92V107.361H185.895V105.008Z" fill="#032B4D"/>
<path d="M185.895 94.4199H172.92V96.7729H185.895V94.4199Z" fill="#032B4D"/>
<path d="M213.054 76.3799L201.259 84.6687V91.6529V112.067H224.85V91.6529V84.6687L213.054 76.3799Z" fill="url(#paint1_linear)"/>
<path d="M224.456 84.4683L213.251 76.3799L202.045 84.4683V91.2822H224.456V84.4683Z" fill="white"/>
<path opacity="0.5" d="M224.456 84.4683L213.251 76.3799L202.045 84.4683V91.2822H224.456V84.4683Z" fill="white"/>
<path d="M224.457 91.2827H202.046V111.283H224.457V91.2827Z" fill="white"/>
<path d="M225.838 88.5374L213.252 79.6142L200.516 88.5374L199.688 85.3992L213.252 75.5959L226.817 85.3992L225.838 88.5374Z" fill="white"/>
<path d="M225.884 88.1452L213.251 79.1779L200.62 88.1452L200.08 85.3373L213.251 75.988L226.423 85.3373L225.884 88.1452Z" fill="white"/>
<path opacity="0.2" d="M225.884 88.1452L213.251 79.1779L200.62 88.1452L200.08 85.3373L213.251 75.988L226.423 85.3373L225.884 88.1452Z" fill="white"/>
<path d="M219.739 95.5964H206.764V111.283H219.739V95.5964Z" fill="white"/>
<path d="M219.739 99.5178H206.764V102.263H219.739V99.5178Z" fill="#FDCA05"/>
<path d="M219.739 105.008H206.764V107.361H219.739V105.008Z" fill="#032B4D"/>
<path d="M219.739 94.4199H206.764V96.7729H219.739V94.4199Z" fill="#032B4D"/>
<defs>
<linearGradient id="paint0_linear" x1="6047.72" y1="17432.1" x2="6047.72" y2="552.089" gradientUnits="userSpaceOnUse">
<stop stop-color="#808080" stop-opacity="0.25"/>
<stop offset="0.54" stop-color="#808080" stop-opacity="0.12"/>
<stop offset="1" stop-color="#808080" stop-opacity="0.1"/>
</linearGradient>
<linearGradient id="paint1_linear" x1="6081.56" y1="17432.1" x2="6081.56" y2="552.089" gradientUnits="userSpaceOnUse">
<stop stop-color="#808080" stop-opacity="0.25"/>
<stop offset="0.54" stop-color="#808080" stop-opacity="0.12"/>
<stop offset="1" stop-color="#808080" stop-opacity="0.1"/>
</linearGradient>
</defs>
</svg>
