<svg width="278" height="224" viewBox="0 0 278 224" fill="none" xmlns="http://www.w3.org/2000/svg">
<path opacity="0.1" d="M214.307 100.587C214.307 100.707 214.307 100.827 214.307 100.945C214.286 103.015 214.163 105.08 213.94 107.139C213.941 107.151 213.941 107.164 213.94 107.176C213.922 107.348 213.902 107.517 213.883 107.688C213.849 107.977 213.814 108.264 213.775 108.554C213.317 112.074 212.559 115.549 211.511 118.94V118.94C210.105 123.523 208.119 127.906 205.6 131.981C204.825 133.227 204 134.433 203.124 135.6C202.657 136.217 202.18 136.821 201.687 137.416C201.341 137.831 200.989 138.241 200.63 138.643L200.406 138.891C198.519 140.968 196.485 142.905 194.319 144.688C190.785 147.623 186.979 150.177 183.113 152.546C182.893 152.682 182.671 152.816 182.449 152.94C182.434 152.951 182.417 152.961 182.4 152.969C177.146 156.153 171.697 159.025 166.083 161.325C159.937 163.85 153.59 165.685 147.079 166.488C138.003 167.606 128.818 166.697 119.797 165.134C112.294 163.843 104.883 162.068 97.6082 159.822L96.4104 159.446C95.7899 159.248 95.1701 159.046 94.5509 158.84C90.8109 157.601 87.1128 156.223 83.4565 154.708C74.2738 150.919 65.5014 146.199 57.2759 140.623C56.2286 139.917 55.1964 139.196 54.1793 138.458C52.7577 137.433 51.353 136.377 49.9654 135.291L49.1093 134.626C45.4779 131.776 42.0757 128.646 38.9339 125.262C34.7083 120.654 31.0972 115.456 28.7232 109.522C28.3488 108.589 28.0059 107.639 27.6943 106.671L27.6648 106.574C27.5078 106.082 27.3625 105.59 27.2289 105.079C27.0326 104.347 26.8604 103.606 26.7125 102.856C26.6811 102.712 26.6536 102.568 26.6281 102.423C26.1587 99.8977 25.9515 97.3308 26.0095 94.7631C26.0586 92.5132 26.3216 90.2732 26.795 88.0734V88.0734C27.2794 85.793 28.026 83.5765 29.0197 81.4684V81.4684C29.9178 79.5727 31.062 77.8043 32.4226 76.2091V76.2091C33.3788 75.0939 34.454 74.087 35.6292 73.2066C37.7597 71.6168 40.1219 70.5091 42.5705 69.6336C43.7212 69.2204 44.8876 68.8583 46.0598 68.5219C46.8904 68.2818 47.725 68.0536 48.5556 67.8293L51.0061 67.1663C52.577 66.7373 54.1479 66.2966 55.6952 65.8204C59.913 64.5297 64.0464 62.9675 67.8695 60.6379C68.4743 60.27 69.0909 59.8666 69.7074 59.4338C70.4929 58.8868 71.2665 58.2926 72.0323 57.6512C72.806 57.0019 73.5639 56.3073 74.2865 55.5715C74.3985 55.4574 74.5084 55.3432 74.6184 55.2272C75.2075 54.6054 75.7789 53.9542 76.309 53.2773C76.5682 52.9468 76.8196 52.6103 77.0591 52.268C77.391 51.7938 77.7052 51.3117 77.9958 50.8159C79.4528 48.3368 80.3521 45.6019 80.2461 42.7195C80.2306 42.2445 80.1879 41.7709 80.1184 41.3009C79.8632 39.5635 79.6177 37.8675 79.4371 36.2088C78.6791 29.348 78.9992 23.1266 84.1379 17.281C90.5275 10.0149 100.556 8.53332 109.684 9.11375C136.077 10.7862 160.104 25.8851 181.218 43.8606C183.044 45.4137 184.848 46.9877 186.63 48.5828C187.079 48.9841 187.529 49.3881 187.979 49.7948C191.317 52.8071 194.604 55.9315 197.665 59.2783C197.913 59.5499 198.16 59.8214 198.404 60.0949C198.553 60.2641 198.704 60.4313 198.851 60.6025C199.806 61.6847 200.732 62.793 201.63 63.9277C204.035 66.9398 206.16 70.167 207.976 73.5686C210.757 78.907 212.64 84.6687 213.549 90.6214V90.6214C213.89 92.7831 214.115 94.9617 214.222 97.1477C214.256 97.7911 214.277 98.4365 214.289 99.0799C214.289 99.2865 214.289 99.4911 214.289 99.6977C214.309 99.9968 214.309 100.288 214.307 100.587Z" fill="#FDCA05"/>
<path d="M140.651 224C216.507 224 278 219.195 278 213.268C278 207.342 216.507 202.537 140.651 202.537C64.795 202.537 3.30166 207.342 3.30166 213.268C3.30166 219.195 64.795 224 140.651 224Z" fill="#3F3D56"/>
<path d="M257.321 193.332L258.609 202.774L249.597 203.632L250.885 192.045L257.321 193.332Z" fill="#A0616A"/>
<path d="M214.84 63.7288C214.84 63.7288 215.698 75.3159 215.698 75.745C215.698 76.1742 209.69 105.786 209.69 105.786C209.69 105.786 201.108 122.093 209.69 121.664C218.273 121.235 215.698 106.215 215.698 106.215L224.709 81.324L220.847 63.7288L214.84 63.7288Z" fill="#A0616A"/>
<path d="M229 193.332L227.713 202.774L236.724 203.632L235.437 192.045L229 193.332Z" fill="#A0616A"/>
<path d="M219.131 104.927L216.985 107.931C216.985 107.931 215.698 120.806 216.985 125.097C218.273 129.389 220.847 149.13 220.847 150.417C220.847 151.705 221.276 152.563 220.847 152.992C220.418 153.421 219.131 153.421 219.989 154.28C220.847 155.138 220.847 157.713 220.847 157.713V159.859L226.426 191.616C226.426 191.616 222.993 195.478 225.567 195.478C228.142 195.478 237.582 195.478 237.153 191.187L236.295 190.757C236.295 190.757 235.008 162.433 235.437 161.146C235.866 159.859 235.437 157.284 235.437 157.284C235.437 157.284 234.579 155.996 235.437 155.567C236.295 155.138 236.295 151.705 236.295 151.705L240.157 125.527C240.157 125.527 243.59 143.122 245.735 144.838C247.881 146.555 247.452 150.846 247.452 150.846L249.168 188.612C249.168 188.612 247.452 192.903 249.168 193.761C250.885 194.62 258.179 197.624 258.609 193.332C259.038 189.041 261.183 151.705 261.183 149.988C261.183 148.272 260.754 147.413 261.183 146.126C261.612 144.838 260.754 144.838 261.183 144.838C261.612 144.838 260.325 143.551 260.325 142.693V121.664C260.325 121.664 260.754 117.373 261.183 116.514C261.612 115.656 260.754 114.798 261.183 113.51C261.612 112.223 260.325 107.931 260.325 107.931L241.015 102.782L219.131 104.927Z" fill="#2F2E41"/>
<path d="M234.15 201.057C234.15 201.057 236.295 198.911 233.291 198.911C231.363 198.951 229.464 199.389 227.713 200.199L225.567 207.923C225.567 207.923 216.771 215.004 226.64 214.146C236.51 213.288 235.008 213.932 235.008 213.932C235.008 213.932 238.011 213.073 238.441 212.215C238.87 211.357 237.582 198.911 237.582 198.911C237.582 198.911 236.295 202.344 234.15 201.057Z" fill="#2F2E41"/>
<path d="M252.601 201.057C252.601 201.057 250.456 198.911 253.459 198.911C255.388 198.951 257.287 199.389 259.038 200.199L261.183 207.923C261.183 207.923 269.98 215.004 260.11 214.146C250.241 213.288 250.456 213.932 250.456 213.932C250.456 213.932 247.452 213.073 247.023 212.215C246.594 211.357 249.168 198.911 249.168 198.911C249.168 198.911 250.456 202.344 252.601 201.057Z" fill="#2F2E41"/>
<path d="M224.709 29.826C230.871 29.826 235.866 24.8304 235.866 18.668C235.866 12.5057 230.871 7.51013 224.709 7.51013C218.547 7.51013 213.552 12.5057 213.552 18.668C213.552 24.8304 218.547 29.826 224.709 29.826Z" fill="#A0616A"/>
<path d="M220.847 26.8219C220.847 26.8219 222.564 35.4049 222.564 36.6923C222.564 37.9798 229.858 41.8421 229.858 41.8421L238.011 31.5425C238.011 31.5425 232.862 24.247 232.862 22.5304L220.847 26.8219Z" fill="#A0616A"/>
<path d="M227.284 37.9798C227.284 37.9798 223.544 36.9842 222.41 35.3363C222.41 35.3363 210.549 46.992 210.549 49.1377L219.989 65.8746C219.989 65.8746 219.989 71.8827 220.847 72.3118C221.705 72.741 220.847 72.3118 220.847 74.0284C220.847 75.7451 218.273 86.903 219.131 88.6196C219.989 90.3362 220.847 89.0487 219.989 91.6236C219.131 94.1985 216.985 107.931 216.985 107.931C216.985 107.931 224.709 105.356 235.866 109.648C247.023 113.939 260.325 107.931 260.325 107.931C260.325 107.931 256.892 100.207 257.75 97.6318C258.609 95.0569 255.605 90.3362 255.605 90.3362L253.459 50.8543C253.459 50.8543 256.463 33.2592 254.317 32.4009L250.026 30.6842L236.285 28.9951C236.285 28.9951 232.862 37.5507 227.284 37.9798Z" fill="#D0CDE1"/>
<path d="M214.84 46.1337L210.549 49.1377C210.549 49.1377 208.403 55.575 210.549 58.579C212.694 61.5831 213.552 65.8746 213.552 65.8746L222.135 65.0163L214.84 46.1337Z" fill="#D0CDE1"/>
<path d="M216.191 6.87604L214.256 6.10119C214.256 6.10119 218.302 1.64579 223.932 2.03323L222.349 0.289787C222.349 0.289787 226.219 -1.2599 229.738 2.80805C231.588 4.9465 233.728 7.46011 235.062 10.2917H237.134L236.269 12.1965L239.297 14.1014L236.189 13.7592C236.484 15.4037 236.383 17.0946 235.896 18.6925L235.979 20.1981C235.979 20.1981 232.377 14.6245 232.377 13.8497V15.7868C232.377 15.7868 230.442 14.0434 230.442 12.8811L229.386 14.2371L228.858 12.1063L222.349 14.2371L223.404 12.4937L219.358 13.0749L220.941 10.944C220.941 10.944 216.367 13.4623 216.191 15.5931C216.015 17.724 213.728 20.436 213.728 20.436L212.672 18.4988C212.672 18.4988 211.089 9.78173 216.191 6.87604Z" fill="#2F2E41"/>
<path d="M218.779 93.3912H48.2601V213.187H218.779V93.3912Z" fill="#F2F2F2"/>
<path d="M105.43 139.099H62.6144V213.848H105.43V139.099Z" fill="#3F3D56"/>
<path d="M82.0672 143.583H70.534V154.336H82.0672V143.583Z" fill="#F2F2F2"/>
<path d="M97.51 143.583H85.9768V154.336H97.51V143.583Z" fill="#F2F2F2"/>
<path d="M82.0672 158.246H70.534V169.389H82.0672V158.246Z" fill="#F2F2F2"/>
<path d="M97.51 158.246H85.9768V169.389H97.51V158.246Z" fill="#F2F2F2"/>
<path d="M99.9849 184.228C101.488 184.228 102.707 183.009 102.707 181.506C102.707 180.002 101.488 178.783 99.9849 178.783C98.4814 178.783 97.2626 180.002 97.2626 181.506C97.2626 183.009 98.4814 184.228 99.9849 184.228Z" fill="#FDCA05"/>
<path d="M204.424 132.003H119.784V203.039H204.424V132.003Z" fill="#3F3D56"/>
<path d="M236.598 115.945H30.441L44.1865 87.2033L47.2626 80.768L51.287 72.3525L54.3632 65.9172L57.9293 58.4623H220.355L222.461 65.9172L224.28 72.3525L226.659 80.768L228.478 87.2033L236.598 115.945Z" fill="#3F3D56"/>
<path d="M125.724 161.457H122.754V179.773H125.724V161.457Z" fill="#FDCA05"/>
<path d="M125.724 164.18H122.754V166.407H125.724V164.18Z" fill="#F2F2F2"/>
<path d="M125.724 174.823H122.754V177.05H125.724V174.823Z" fill="#F2F2F2"/>
<path d="M134.386 161.457H127.209V179.773H134.386V161.457Z" fill="#FDCA05"/>
<path d="M134.386 164.18H127.209V166.407H134.386V164.18Z" fill="#F2F2F2"/>
<path d="M134.386 174.823H127.209V177.05H134.386V174.823Z" fill="#F2F2F2"/>
<path d="M139.088 161.457H136.118V179.773H139.088V161.457Z" fill="#FDCA05"/>
<path d="M139.088 164.18H136.118V166.407H139.088V164.18Z" fill="#F2F2F2"/>
<path d="M139.088 174.823H136.118V177.05H139.088V174.823Z" fill="#F2F2F2"/>
<path d="M143.543 161.457H140.573V179.773H143.543V161.457Z" fill="#FDCA05"/>
<path d="M143.543 164.18H140.573V166.407H143.543V164.18Z" fill="#F2F2F2"/>
<path d="M143.543 174.823H140.573V177.05H143.543V174.823Z" fill="#F2F2F2"/>
<path d="M146.404 161.522L143.625 162.57L150.085 179.708L152.864 178.661L146.404 161.522Z" fill="#FDCA05"/>
<path d="M147.365 164.07L144.586 165.117L145.371 167.202L148.15 166.154L147.365 164.07Z" fill="#F2F2F2"/>
<path d="M151.118 174.029L148.339 175.076L149.125 177.161L151.904 176.113L151.118 174.029Z" fill="#F2F2F2"/>
<path d="M201.702 161.457H194.525V179.773H201.702V161.457Z" fill="#FDCA05"/>
<path d="M201.702 164.18H194.525V166.407H201.702V164.18Z" fill="#F2F2F2"/>
<path d="M201.702 174.823H194.525V177.05H201.702V174.823Z" fill="#F2F2F2"/>
<path d="M192.793 161.457H189.823V179.773H192.793V161.457Z" fill="#FDCA05"/>
<path d="M192.793 164.18H189.823V166.407H192.793V164.18Z" fill="#F2F2F2"/>
<path d="M192.793 174.823H189.823V177.05H192.793V174.823Z" fill="#F2F2F2"/>
<path d="M188.338 161.457H185.368V179.773H188.338V161.457Z" fill="#FDCA05"/>
<path d="M188.338 164.18H185.368V166.407H188.338V164.18Z" fill="#F2F2F2"/>
<path d="M188.338 174.823H185.368V177.05H188.338V174.823Z" fill="#F2F2F2"/>
<path d="M182.506 161.522L176.046 178.661L178.825 179.708L185.285 162.57L182.506 161.522Z" fill="#FDCA05"/>
<path d="M181.546 164.07L180.76 166.154L183.539 167.202L184.325 165.117L181.546 164.07Z" fill="#F2F2F2"/>
<path d="M177.792 174.029L177.007 176.113L179.786 177.161L180.571 175.076L177.792 174.029Z" fill="#F2F2F2"/>
<path d="M204.424 179.773H119.784V181.506H204.424V179.773Z" fill="#F2F2F2"/>
<path d="M172.251 161.457H156.659V179.773H172.251V161.457Z" fill="#FDCA05"/>
<path d="M168.415 165.417H160.496V168.883H168.415V165.417Z" fill="#F2F2F2"/>
<path d="M162.847 132.003H161.362V147.844H162.847V132.003Z" fill="#F2F2F2"/>
<path d="M162.104 150.319C163.471 150.319 164.579 149.211 164.579 147.844C164.579 146.477 163.471 145.369 162.104 145.369C160.737 145.369 159.629 146.477 159.629 147.844C159.629 149.211 160.737 150.319 162.104 150.319Z" fill="#F2F2F2"/>
<path d="M224.28 72.3525H51.287L54.3632 65.9172H222.461L224.28 72.3525Z" fill="#FDCA05"/>
<path d="M228.478 87.2032H44.1865L47.2626 80.768H226.659L228.478 87.2032Z" fill="#FDCA05"/>
<path d="M246.594 49.996C246.594 49.996 244.109 56.3864 244.628 62.7091C244.723 63.8411 245.104 64.9304 245.735 65.8746V65.8746L215.293 80.3288C215.293 80.3288 201.537 81.7532 204.97 87.7613C208.403 93.7694 220.847 84.7572 220.847 84.7572C220.847 84.7572 253.459 80.0366 256.034 75.3159C258.609 70.5952 260.325 50.8543 260.325 50.8543L246.594 49.996Z" fill="#A0616A"/>
<path d="M247.881 32.4008H254.317C254.317 32.4008 259.038 33.2592 260.325 41.8422C261.612 50.4252 262.9 52.5709 261.612 52.5709C260.325 52.5709 244.877 52.1418 244.877 51.7126C244.877 51.2835 247.881 32.4008 247.881 32.4008Z" fill="#D0CDE1"/>
<path d="M47.5 141C59.9264 141 70 130.926 70 118.5C70 106.074 59.9264 96 47.5 96C35.0736 96 25 106.074 25 118.5C25 130.926 35.0736 141 47.5 141Z" fill="#FDCA05"/>
<path opacity="0.1" d="M47 137C57.4934 137 66 128.493 66 118C66 107.507 57.4934 99 47 99C36.5066 99 28 107.507 28 118C28 128.493 36.5066 137 47 137Z" fill="black"/>
<path d="M59 117.275H49.7255V108H46.2745V117.275H37V120.725H46.2745V130H49.7255V120.725H59V117.275Z" fill="white"/>
</svg>
