<svg width="60" height="52" viewBox="0 0 60 52" fill="none" xmlns="http://www.w3.org/2000/svg">
<path opacity="0.9" d="M59.5358 20.114C59.5246 20.1846 59.514 20.2552 59.5016 20.3251C59.1145 22.7258 58.4819 25.0393 57.5413 27.1638C57.51 27.2344 57.4787 27.3051 57.4469 27.3757C56.8266 28.7426 56.0845 30.0025 55.237 31.1272C54.7684 31.7494 54.2574 32.3407 53.6496 32.7669C52.7981 33.3653 51.8026 33.6081 50.8242 33.8065C49.8081 34.0137 48.7778 34.1867 47.7504 34.3732C47.3854 34.4383 47.0225 34.5073 46.6617 34.5803C45.6692 34.7779 44.6837 35.0065 43.7219 35.3097C42.5328 35.6835 41.3804 36.1732 40.2916 36.862C40.2047 36.9149 40.1187 36.971 40.0338 37.0303C39.9488 37.0874 39.8632 37.1454 39.7794 37.2041C39.6956 37.2628 39.613 37.3216 39.531 37.3819C39.4885 37.4128 39.446 37.4438 39.4041 37.4763C39.3622 37.5088 39.3209 37.5374 39.2802 37.5692C39.1575 37.6612 39.0371 37.7557 38.9167 37.8509L38.912 37.8549C38.8323 37.9176 38.7539 37.9819 38.676 38.0461C38.231 38.4096 37.7955 38.789 37.3601 39.1707L37.0862 39.4088L36.662 39.7779C36.5794 39.8501 36.495 39.9223 36.4118 39.9937C36.3528 40.0461 36.2937 40.0985 36.2294 40.1525C35.9202 40.4144 35.6069 40.6715 35.2853 40.9167C35.2092 40.9755 35.1324 41.0342 35.0551 41.0913C34.4054 41.5788 33.7259 41.9909 33.024 42.323L33.0146 42.3278C32.6615 42.4935 32.3013 42.6302 31.9359 42.7373C31.7252 42.7992 31.514 42.85 31.3004 42.8889C30.7293 42.9978 30.1504 43.0087 29.5773 42.9214C28.452 42.746 27.3975 42.1651 26.2728 41.9691C23.9572 41.5723 21.7084 42.8508 19.5309 43.8524C18.9955 44.0984 18.4562 44.3288 17.9129 44.5436C17.5518 44.6873 17.1894 44.823 16.8242 44.9539C14.5863 45.7491 12.3023 46.2878 9.99678 46.5642C9.03301 46.6912 8.06348 46.7202 7.09646 46.6507C6.72883 46.6206 6.36534 46.5714 6.00833 46.492C4.78683 46.238 3.64795 45.7055 2.72859 44.7301C1.97562 43.9294 1.43687 42.8857 1.02675 41.7937C0.606932 40.6794 0.31052 39.4885 0.146921 38.2588C0.124498 38.0914 0.104435 37.9231 0.087912 37.7549C0.0584072 37.4671 0.0363769 37.1776 0.0218212 36.8866C-0.0575771 35.3356 0.0801344 33.7782 0.427806 32.2955C0.817269 30.6352 1.46637 29.0416 1.75198 27.3686C1.76378 27.2977 1.77499 27.227 1.78561 27.1567C1.82462 26.9026 1.85358 26.6459 1.87236 26.3876C2.01811 24.3321 1.45929 22.3282 1.02085 20.3179C1.00551 20.2481 0.990166 20.1774 0.975414 20.1068C0.928206 19.8835 0.882966 19.6605 0.839692 19.4378C0.433707 17.3124 0.320999 15.0371 0.682727 12.9157C0.693939 12.845 0.707511 12.7744 0.720493 12.7046C0.962657 11.3636 1.41804 10.1092 2.05529 9.02766C2.73272 7.88483 3.62199 6.93326 4.57204 6.09756C5.03507 5.69016 5.51383 5.30948 6.00833 4.95552C6.36239 4.70156 6.7251 4.46109 7.09646 4.23411C10.0735 2.40875 13.4695 1.5175 16.8277 1.71432C17.0047 1.72463 17.1818 1.73733 17.3588 1.75479C17.5358 1.77225 17.7294 1.79289 17.9147 1.8159C20.078 2.09844 22.1828 2.78017 24.2729 3.52539C24.9734 3.77539 25.6726 4.03173 26.3713 4.28331C26.6823 4.39442 26.9927 4.50553 27.3037 4.61347C28.8267 5.14282 30.3721 5.62218 31.9371 5.98011C32.2994 6.06423 32.6621 6.14095 33.0252 6.21026C34.2859 6.45945 35.5568 6.60443 36.8307 6.64438C37.326 6.65761 37.8215 6.65179 38.3172 6.62692C38.5674 6.61475 38.8178 6.5965 39.0684 6.57216C41.6559 6.32692 44.1568 5.50631 46.6617 4.73965C47.024 4.62855 47.3869 4.51902 47.7504 4.41109C48.2272 4.26982 48.704 4.13332 49.1832 4.00713C52.1649 3.21905 54.8227 3.67222 57.595 5.29837C58.2252 5.66741 58.8548 6.11344 59.2408 6.80628C59.6267 7.49912 59.7235 8.3499 59.7954 9.17131C59.8975 10.3411 59.9642 11.526 59.9896 12.7173C59.9896 12.7871 59.9896 12.8577 59.9931 12.9284C60.0332 15.3347 59.8999 17.764 59.5358 20.114Z" fill="#FDCA05"/>
<path opacity="0.3" d="M27.4469 51.4999C36.9725 51.4999 44.6945 49.9009 44.6945 47.9284C44.6945 45.956 36.9725 44.3569 27.4469 44.3569C17.9213 44.3569 10.1992 45.956 10.1992 47.9284C10.1992 49.9009 17.9213 51.4999 27.4469 51.4999Z" fill="#032B4D"/>
<path d="M46.336 18.6811C46.1521 17.0547 45.4238 15.5029 45.4238 15.5029L45.4791 14.9545C45.4791 14.9545 45.491 14.6803 45.4732 14.269C45.4751 14.0122 45.5086 13.7566 45.5728 13.5081C45.7219 13.0325 45.3863 12.4481 45.3488 12.3941C45.3113 12.3401 45.3675 11.2973 45.0319 10.7857C44.6963 10.2742 42.4611 9.32301 42.4611 9.32301C42.4611 9.32301 42.341 9.07023 42.1715 8.7746L42.1868 8.74461C42.0481 8.49153 41.8762 8.25836 41.6757 8.05139C41.5386 7.90401 41.4066 7.82003 41.3001 7.86116C41.2568 7.71893 41.2238 7.57374 41.2013 7.42672C41.2234 7.43272 41.2464 7.43872 41.2686 7.443C41.3608 7.46453 41.4565 7.46686 41.5497 7.44985C41.7575 7.40273 41.8955 7.21507 42.0114 7.03855C42.5889 6.15596 43.0864 5.18767 43.1877 4.14313C43.215 3.92993 43.2049 3.71358 43.1579 3.50389C43.11 3.34086 43.0431 3.1841 42.9586 3.03688C42.8093 2.73481 42.6202 2.45437 42.3964 2.20313C41.9986 1.78154 41.45 1.52362 40.8861 1.37109C40.2508 1.19924 39.589 1.14953 38.9354 1.22457C38.7651 1.24427 38.5947 1.27255 38.4243 1.28369C38.2082 1.29327 37.9918 1.28955 37.7761 1.27255L36.6611 1.20743L36.656 1.19029L36.4703 1.17915C36.397 1.32568 36.4703 1.49963 36.5614 1.63673C36.6526 1.77383 36.7573 1.91693 36.7497 2.07888C36.742 2.24084 36.6253 2.37108 36.5342 2.50733C36.443 2.64357 36.374 2.82181 36.4652 2.95548C36.478 2.97397 36.4932 2.99067 36.5103 3.00518C36.6066 3.10543 36.7744 3.11657 36.92 3.11486H36.9456C36.5788 3.60087 36.3804 4.19442 36.3808 4.80464C36.3833 5.32611 36.5284 5.83684 36.8002 6.28089C37.072 6.72495 37.46 7.08519 37.9218 7.32218C37.938 7.37788 37.9541 7.43529 37.9695 7.49356C38.1383 8.09544 38.1989 8.72283 38.1484 9.34615L38.1288 9.38899L38.1168 9.34358C38.1168 9.34358 36.8033 10.2399 36.4132 10.4772C36.0231 10.7146 35.6312 11.5192 35.6125 11.7386C35.5938 11.9579 34.9787 15.2664 34.9787 15.2664C34.8538 15.5997 34.7507 15.9409 34.6704 16.2878L33.8859 16.981C33.8859 16.981 32.2674 17.1275 31.7989 17.0179L31.8125 17.1087C31.3994 17.0138 30.9786 16.9565 30.5552 16.9373C30.324 16.9074 30.0891 16.939 29.8738 17.029L29.8576 17.0367L29.8448 17.0427C29.5982 17.0766 29.3574 17.1447 29.1293 17.2449C29.102 17.2561 29.0773 17.2672 29.0535 17.2784L29.0586 17.1661L27.3072 17.0753L26.4128 16.8928C26.4128 16.8928 26.096 16.6357 25.9094 16.6734C25.7229 16.7111 25.3319 16.454 25.3319 16.454C25.2427 16.3837 25.1461 16.3234 25.044 16.2741C25.0141 16.0667 24.9954 15.9408 24.9954 15.9408C24.9954 15.9408 24.2995 13.1627 23.7782 11.5295C23.4289 10.4387 22.9263 9.90141 22.6299 9.66748C22.4979 9.43612 22.411 9.28702 22.411 9.28702C22.3539 9.08651 22.0404 8.63493 21.9604 8.62379C21.9476 8.60323 21.9382 8.59294 21.9331 8.59294C21.916 8.5911 21.8987 8.59376 21.8829 8.60066C21.7363 7.86716 21.6512 6.94772 21.8752 6.14653C22.1819 5.893 22.429 5.57439 22.599 5.21353C22.7689 4.85266 22.8574 4.45846 22.8582 4.05915C22.8582 4.04716 22.8582 4.03516 22.8582 4.02316C22.8582 4.01117 22.8582 3.99831 22.8582 3.98632C22.858 3.3495 22.6338 2.7333 22.2253 2.24683L22.1963 2.21427C22.2041 2.20875 22.2115 2.20274 22.2185 2.19628C22.2825 2.14406 22.3312 2.07538 22.3596 1.99753C22.3879 1.91969 22.3948 1.83558 22.3795 1.75412C22.3411 1.5896 22.2134 1.46021 22.1478 1.30426C22.1084 1.1842 22.0768 1.06169 22.0532 0.937509C22.003 0.761129 21.9109 0.599677 21.7849 0.467078L21.7977 0.501353C21.4638 0.123465 20.8896 -0.0641928 20.3726 0.0197822C19.9884 0.0814781 19.6306 0.261425 19.2448 0.317122C18.9679 0.356539 18.686 0.330833 18.4074 0.35911C18.149 0.385843 17.8974 0.458978 17.6646 0.575045C17.6038 0.601067 17.5499 0.640965 17.5071 0.691582C17.4674 0.759396 17.4409 0.834102 17.4287 0.911803C17.3341 1.25884 17.0343 1.50648 16.8171 1.79611C16.569 2.12701 16.4253 2.52523 16.4048 2.9392C16.3963 3.04441 16.4064 3.15029 16.4346 3.25196C16.4534 3.3128 16.4823 3.37021 16.4959 3.43191C16.5385 3.62042 16.4406 3.80808 16.3929 3.99489C16.3328 4.23318 16.3541 4.48488 16.4534 4.70953C16.7898 5.46702 17.8946 5.7198 18.1246 6.51499C18.3006 6.59636 18.4865 6.65399 18.6775 6.68637C18.6928 6.7652 18.7064 6.84489 18.7175 6.92544C18.7123 6.92764 18.7074 6.93052 18.703 6.93401C18.4049 7.22621 18.3308 7.7909 18.3308 7.7909L18.295 7.82003C18.1732 7.92114 17.7566 8.26047 17.3801 8.52182C16.9329 8.83287 16.1876 9.87485 15.6663 10.1859C15.145 10.4969 14.7156 12.4138 14.8281 13.1105C14.9405 13.8071 15.4056 15.7608 15.2191 16.4737C15.0325 17.1867 15.4985 20.4403 15.4985 20.4403C15.8111 20.5002 16.117 20.5915 16.4116 20.7128L16.4022 20.855L16.3741 21.2835C16.3741 21.2835 15.53 24.3545 15.8528 26.7187C16.1757 29.0828 15.7038 29.3262 15.7038 29.3262C15.7038 29.3262 15.8026 30.3742 15.5547 30.7401C15.3068 31.106 15.2565 31.9097 15.2565 31.9097C15.2565 31.9097 15.2318 33.7135 15.2813 34.2233C15.3307 34.7332 15.3554 35.662 15.1816 35.8814C15.0078 36.1008 14.685 37.5378 14.7097 37.9765C14.7344 38.4152 14.0887 39.4152 14.4362 40.7065C14.7838 41.9979 13.4141 42.0227 13.4141 42.0227C13.4141 42.0227 13.5887 43.9935 13.9609 44.5574L14.0154 44.6379C14.0061 44.6705 13.9967 44.7048 13.9865 44.7416C13.8459 45.2557 13.6534 46.0672 13.7872 46.2634C13.9856 46.5565 14.0853 46.5068 14.0853 46.5068L14.1594 47.823C14.1594 47.823 15.6501 49.0903 16.7932 49.0423C17.9364 48.9943 17.7123 47.823 17.7123 47.823L16.7387 45.2832L16.7055 45.1975L17.7873 43.1409C17.7873 43.1409 18.0854 42.2395 18.1596 41.9224C18.2337 41.6054 18.6383 40.482 18.6383 40.482C18.6383 40.482 19.6605 38.045 19.6818 37.752C19.703 37.4589 19.7814 35.8762 19.9799 35.5583C20.1784 35.2404 20.7252 33.4161 20.7252 33.4161L20.7389 33.4281C20.8316 33.5198 20.8979 33.6351 20.9306 33.7617C20.9633 33.8884 20.9612 34.0215 20.9246 34.1471C20.7993 34.6098 20.8743 35.5601 20.8743 35.5601C20.8743 35.5601 20.8249 36.3647 20.7252 36.7794C20.6256 37.1941 20.6017 40.5814 20.7755 41.3852C20.9143 42.0287 20.9101 43.2335 20.9033 43.6894C20.7866 44.1735 20.6843 44.775 20.8743 44.8461C21.198 44.9687 22.8377 44.9438 22.8377 44.9438C22.8377 44.9438 23.5328 44.6996 24.4775 45.5531C25.4222 46.4065 28.3277 45.3097 28.3277 45.3097C28.3277 45.3097 29.2221 45.0655 27.458 44.3594C26.2271 43.8667 25.4324 43.5385 24.9128 43.1872C24.9247 43.1641 24.9375 43.1409 24.9486 43.1161C24.9486 43.1161 24.2279 42.4306 24.8242 41.2155C25.4205 40.0004 25.3958 38.973 25.3958 38.973L25.4954 34.878L25.1973 29.4419L24.9664 23.7367L25.0073 23.723C25.0465 24.7718 25.2501 27.2688 26.3157 26.7847C27.6573 26.1754 26.5142 24.591 26.5142 24.591L25.912 23.4102L26.0917 23.3486L25.4179 21.1583C25.3532 20.7309 25.3447 20.2967 25.3924 19.867C25.4057 19.6156 25.4006 19.3636 25.377 19.113C26.2595 18.9579 27.1045 18.7933 27.2561 18.831C27.435 18.8747 28.4359 18.8833 28.8294 18.885C28.7008 18.9861 28.5978 19.0864 28.5978 19.0864L30.2 20.1712C30.2 20.1712 30.7435 19.8722 30.8568 19.5551C30.9683 19.5267 31.0712 19.4714 31.1566 19.394C31.1737 19.7685 31.2725 20.1738 31.6166 20.1832C31.7027 20.185 31.7881 20.1681 31.867 20.1335L34.4872 19.6117L34.2624 21.0247L34.4191 21.3049C34.3399 22.4968 34.2487 23.7624 34.1687 24.8755L34.132 25.1189L34.1508 25.1232C34.0264 26.8369 33.9267 28.1351 33.9267 28.1351C34.0735 27.8538 34.3012 27.6236 34.5801 27.4745L34.5971 30.0177C34.5971 30.0177 34.7283 34.0391 34.7283 34.5875C34.7283 35.1359 34.7462 36.3604 34.7462 36.3604C34.7462 36.3604 35.0264 37.8591 35.1934 38.3527C35.3603 38.8462 35.4915 41.0947 35.4915 41.0947C35.4915 41.0947 35.8834 41.7159 35.7156 41.9516C35.5477 42.1872 36.3681 42.7005 36.3681 42.7005C36.3681 42.7005 35.8459 43.4134 35.8084 43.889C35.8041 43.9438 35.8578 44.0021 35.9549 44.0604C35.9243 44.0852 35.8927 44.1101 35.8578 44.1341C35.6159 44.2969 35.2615 44.41 34.7283 44.3637C33.2742 44.2352 32.2495 45.5882 33.1439 45.8624C34.0383 46.1366 36.7216 46.1915 36.7216 46.1915C36.7216 46.1915 37.5342 45.6816 38.1697 45.9113C38.1603 46.4477 38.1867 46.9395 38.1909 47.0046L38.1833 47.0106C37.8034 47.3534 37.0759 47.9429 36.3655 48.1837C35.3433 48.5308 35.1167 49.9386 36.4396 50.1211C37.7625 50.3037 39.7004 49.9018 39.7004 49.9018C39.7004 49.9018 40.7064 49.1529 41.4705 48.9883C42.2345 48.8238 42.887 48.4579 42.7567 48.0192C42.6715 47.739 42.4526 47.0046 42.3044 46.5111C42.2959 46.4814 42.2874 46.4528 42.2788 46.4254C42.3018 46.374 42.3248 46.3209 42.3461 46.266C42.3461 46.266 41.9551 44.2189 42.272 43.7073C42.5889 43.1958 42.4211 38.0767 42.4211 38.0767C42.4211 38.0767 41.8802 36.7794 42.1604 35.9936C42.4407 35.2079 41.7132 34.0922 41.7132 34.0922C41.7132 34.0922 41.7924 31.8566 42.0054 30.6107C42.0151 30.5575 42.0244 30.5061 42.0335 30.4564C42.3901 30.35 42.7376 30.215 43.0727 30.0528C43.0727 30.0528 43.2593 27.2371 43.3709 26.5979C43.3819 26.5379 43.3973 26.4411 43.416 26.3151L43.5012 25.8635L43.6017 25.3494L43.9424 23.597L44.5575 22.7967L46.1418 21.1686C46.1418 21.1686 46.5226 20.3083 46.336 18.6811ZM21.9024 8.62722L21.8905 8.63579C21.8887 8.6296 21.8873 8.62331 21.8863 8.61694C21.8912 8.62103 21.8966 8.62449 21.9024 8.62722V8.62722ZM37.5563 10.6229L37.495 10.7574L37.719 10.5329L37.4149 10.8757L37.5172 10.6598L37.5563 10.6229ZM36.0435 13.7677C35.9847 13.9245 35.9217 14.0942 35.8561 14.2707L35.9762 13.9099L36.0435 13.7677Z" fill="url(#paint0_linear)"/>
<path d="M31.1545 18.8944C31.1545 18.8944 30.9458 20.292 31.5719 20.31C32.198 20.328 32.6162 19.2321 32.6162 19.2321L32.3607 18.3555L31.1545 18.8944Z" fill="#585B8A"/>
<path opacity="0.2" d="M31.1545 18.8944C31.1545 18.8944 30.9458 20.292 31.5719 20.31C32.198 20.328 32.6162 19.2321 32.6162 19.2321L32.3607 18.3555L31.1545 18.8944Z" fill="black"/>
<path d="M17.1305 49.1461C16.0164 49.1949 14.5631 47.9285 14.5631 47.9285L14.4907 46.6132C14.4907 46.6132 14.3945 46.662 14.2003 46.3698C14.0699 46.1736 14.2573 45.3604 14.3945 44.8489C14.4609 44.5986 14.5154 44.4204 14.5154 44.4204L16.9602 45.0785L17.0769 45.3895L18.0258 47.9276C18.0258 47.9276 18.2439 49.0973 17.1305 49.1461Z" fill="black"/>
<path d="M28.362 45.4202C28.362 45.4202 25.5297 46.5162 24.614 45.6635C23.6983 44.8109 23.016 45.0543 23.016 45.0543C23.016 45.0543 21.418 45.0791 21.1028 44.9566C20.9171 44.8855 21.0176 44.2762 21.1335 43.7912C21.2118 43.4562 21.297 43.1794 21.297 43.1794C21.297 43.1794 24.0807 42.2291 24.5169 42.8135C24.6479 42.9852 24.8045 43.1355 24.9811 43.2591C25.4854 43.6259 26.2733 43.9583 27.5195 44.4699C29.2334 45.176 28.362 45.4202 28.362 45.4202Z" fill="black"/>
<path d="M25.823 23.1592L26.5973 24.7179C26.5973 24.7179 27.7115 26.3014 26.404 26.9098C25.0964 27.5182 25.1211 23.4034 25.1211 23.4034L25.823 23.1592Z" fill="#FFD6D6"/>
<path d="M22.5781 9.64258C22.5781 9.64258 23.4257 10.0325 23.9342 11.664C24.4428 13.2955 25.1208 16.0727 25.1208 16.0727C25.1208 16.0727 25.5808 19.214 25.5075 19.9938C25.4609 20.4232 25.4692 20.8569 25.5322 21.2842L26.1856 23.4761L24.878 23.9389L22.8686 16.1943L22.5781 9.64258Z" fill="#DCE6F2"/>
<path opacity="0.05" d="M22.5781 9.64258C22.5781 9.64258 23.4257 10.0325 23.9342 11.664C24.4428 13.2955 25.1208 16.0727 25.1208 16.0727C25.1208 16.0727 25.5808 19.214 25.5075 19.9938C25.4609 20.4232 25.4692 20.8569 25.5322 21.2842L26.1856 23.4761L24.878 23.9389L22.8686 16.1943L22.5781 9.64258Z" fill="black"/>
<path opacity="0.1" d="M16.9589 45.0796L17.0756 45.3906L16.9325 45.6657C16.3754 45.9091 14.9954 45.7145 14.9954 45.7145C14.9954 45.7145 14.7399 45.3881 14.3906 44.8508C14.4571 44.6006 14.5116 44.4224 14.5116 44.4224L16.9589 45.0796Z" fill="black"/>
<path opacity="0.1" d="M25.0689 43.3739C24.3628 44.9832 21.9623 44.3859 21.2954 44.1845C21.1855 44.1511 21.125 44.1289 21.125 44.1289C21.125 44.1289 21.1293 43.9977 21.131 43.7912C21.2093 43.4562 21.2945 43.1794 21.2945 43.1794C21.2945 43.1794 24.0783 42.2291 24.5144 42.8135C24.6454 42.9852 24.802 43.1355 24.9786 43.2591C25.0053 43.3 25.0355 43.3384 25.0689 43.3739V43.3739Z" fill="black"/>
<path d="M24.9466 41.3286C24.3656 42.5454 25.0684 43.2283 25.0684 43.2283C24.3622 44.8367 21.9618 44.2403 21.2948 44.0381C21.1849 44.0055 21.1245 43.9833 21.1245 43.9833C21.1245 43.9833 21.173 42.3021 21.0035 41.4983C20.834 40.6945 20.8578 37.3098 20.955 36.8959C21.0521 36.4821 21.0998 35.6774 21.0998 35.6774C21.0998 35.6774 21.0274 34.728 21.1483 34.2653C21.1847 34.1403 21.1872 34.0078 21.1554 33.8815C21.1236 33.7552 21.0588 33.6398 20.9677 33.5472L20.955 33.5344C20.955 33.5344 20.4226 35.3613 20.2283 35.6766C20.0341 35.9919 19.9626 37.5763 19.9379 37.8685C19.9132 38.1607 18.9208 40.5968 18.9208 40.5968C18.9208 40.5968 18.5341 41.7168 18.4617 42.033C18.3893 42.3492 18.0979 43.2515 18.0979 43.2515L16.931 45.5171C16.3739 45.7605 14.9939 45.5659 14.9939 45.5659C14.9939 45.5659 14.7281 45.2232 14.3644 44.6645C14.0007 44.1058 13.832 42.1324 13.832 42.1324C13.832 42.1324 15.1634 42.1075 14.8244 40.8171C14.4854 39.5266 15.1149 38.5275 15.091 38.0887C15.0672 37.65 15.3815 36.2139 15.551 35.9945C15.7205 35.7751 15.6958 34.8497 15.6473 34.3381C15.5987 33.8266 15.6234 32.0245 15.6234 32.0245C15.6234 32.0245 15.672 31.2208 15.9139 30.8557C16.1558 30.4907 16.0595 29.4427 16.0595 29.4427C16.0595 29.4427 16.5187 29.1994 16.2044 26.8369C15.89 24.4745 16.7154 21.406 16.7154 21.406L16.7436 20.9775L16.7878 20.2834C16.7878 20.2834 23.7123 19.8447 24.2694 20.3803C24.415 20.5289 24.5345 20.7013 24.6229 20.8901C24.8135 21.3023 24.9481 21.7383 25.0232 22.1866L25.3137 29.5661L25.6042 34.9971L25.5071 39.0887C25.5071 39.0887 25.5284 40.1101 24.9466 41.3286Z" fill="#032B4D"/>
<path opacity="0.1" d="M22.8975 26.7642L22.1709 42.5943L21.2986 44.0373C21.1887 44.0047 21.1282 43.9825 21.1282 43.9825C21.1282 43.9825 21.1768 42.3012 21.0073 41.4975C20.8378 40.6937 20.8616 37.309 20.9587 36.8951C21.0558 36.4813 21.1035 35.6766 21.1035 35.6766C21.1035 35.6766 21.0311 34.7272 21.1521 34.2645C21.1885 34.1395 21.1909 34.007 21.1592 33.8807C21.1274 33.7544 21.0626 33.639 20.9715 33.5464L20.9834 33.4607L22.8975 26.7642Z" fill="black"/>
<path opacity="0.1" d="M15.0711 43.7637C15.0711 43.7637 16.9596 43.0088 17.2501 43.2495C17.5406 43.4903 15.0234 43.8579 15.0234 43.8579L15.0711 43.7637Z" fill="black"/>
<path opacity="0.1" d="M24.3945 41.7666C24.3221 41.7915 22.4821 42.4521 22.6517 43.1548C22.8212 43.8574 24.3945 41.7666 24.3945 41.7666Z" fill="black"/>
<path d="M18.6445 5.73427C18.6445 5.73427 19.2613 7.23211 18.935 7.99988C18.6088 8.76766 22.4573 10.0821 22.4573 10.0821C22.4573 10.0821 21.332 7.15928 22.4215 5.51491C23.511 3.87054 18.6445 5.73427 18.6445 5.73427Z" fill="#795548"/>
<path d="M41.177 49.0974C40.4325 49.2619 39.4521 50.0109 39.4521 50.0109C39.4521 50.0109 37.5636 50.4128 36.274 50.2302C34.9843 50.0477 35.2032 48.6407 36.2016 48.2937C36.8941 48.0537 37.6037 47.4616 37.9742 47.1223C38.1377 46.9706 38.2349 46.8652 38.2349 46.8652L41.8491 46.1343C41.8491 46.1343 41.9079 46.3374 41.9897 46.6176C42.1345 47.112 42.3483 47.8455 42.43 48.1248C42.557 48.5679 41.9215 48.9329 41.177 49.0974Z" fill="#505484"/>
<path d="M40.2514 46.2839C40.2514 46.2839 38.7258 46.4484 38.0904 46.0833C37.4549 45.7183 36.5469 46.3027 36.5469 46.3027C36.5469 46.3027 33.9318 46.2479 33.0604 45.9737C32.189 45.6995 33.1873 44.3456 34.6039 44.4758C35.1201 44.5229 35.4693 44.409 35.7053 44.2462C35.9518 44.0762 36.1236 43.8172 36.1849 43.5229L39.2514 43.7055L39.6773 44.7989L40.2514 46.2839Z" fill="#505484"/>
<path opacity="0.1" d="M39.722 45.2976C39.722 45.2976 36.158 44.7115 35.7031 44.2462C35.9496 44.0762 36.1214 43.8172 36.1827 43.5229L39.2493 43.7055L39.6752 44.7989L39.722 45.2976Z" fill="black"/>
<path d="M34.4414 24.7857L34.478 30.137C34.478 30.137 34.605 34.1558 34.605 34.7042C34.605 35.2526 34.6228 36.4753 34.6228 36.4753C34.6228 36.4753 34.8954 37.9732 35.059 38.4667C35.2225 38.9603 35.3494 41.2088 35.3494 41.2088C35.3494 41.2088 35.7311 41.83 35.5675 42.0657C35.404 42.3013 36.203 42.8146 36.203 42.8146C36.203 42.8146 35.6919 43.5275 35.6587 44.0022C35.6254 44.477 39.7252 45.1513 39.7252 45.1513L38.1281 28.676L36.8563 24.5483L34.4414 24.7857Z" fill="#575988"/>
<path opacity="0.1" d="M34.4414 24.7857L34.478 30.137C34.478 30.137 34.605 34.1558 34.605 34.7042C34.605 35.2526 34.6228 36.4753 34.6228 36.4753C34.6228 36.4753 34.8954 37.9732 35.059 38.4667C35.2225 38.9603 35.3494 41.2088 35.3494 41.2088C35.3494 41.2088 35.7311 41.83 35.5675 42.0657C35.404 42.3013 36.203 42.8146 36.203 42.8146C36.203 42.8146 35.6919 43.5275 35.6587 44.0022C35.6254 44.477 39.7252 45.1513 39.7252 45.1513L38.1281 28.676L36.8563 24.5483L34.4414 24.7857Z" fill="black"/>
<path opacity="0.1" d="M41.992 46.6218C40.8055 49.4675 37.9834 47.2713 37.9834 47.2713C37.9834 47.2713 37.9834 47.2165 37.9766 47.1223C38.1401 46.9706 38.2372 46.8652 38.2372 46.8652L41.8515 46.1343C41.8515 46.1343 41.9103 46.3416 41.992 46.6218Z" fill="black"/>
<path d="M42.0314 46.3755C40.8686 49.3746 37.9818 47.1245 37.9818 47.1245C37.9818 47.1245 37.8907 45.5718 38.073 44.8597C38.2553 44.1476 37.8728 42.0097 37.8728 42.0097C37.8728 42.0097 37.6547 40.11 37.4554 39.6721C37.2561 39.2342 37.274 38.3568 37.274 38.284C37.274 38.2111 37.3464 37.6259 37.1828 37.224C37.0193 36.8221 36.9273 35.8358 36.9273 35.8358C36.9273 35.8358 36.9273 34.4477 36.7637 33.6259L36.2007 30.7982L35.1836 25.0074L35.5013 24.9525L41.194 23.9482C41.194 23.9482 42.2656 29.4323 41.9019 29.9944C41.8235 30.1178 41.7545 30.3877 41.6975 30.7356C41.4896 31.9798 41.4121 34.2137 41.4121 34.2137C41.4121 34.2137 42.12 35.3277 41.8482 36.1135C41.5765 36.8992 42.1038 38.1957 42.1038 38.1957C42.1038 38.1957 42.2673 43.3104 41.9581 43.822C41.6489 44.3336 42.0314 46.3755 42.0314 46.3755Z" fill="#575988"/>
<path d="M41.4865 8.98572C41.4865 8.98572 36.3295 12.6386 37.4914 10.8118C38.1175 9.82804 38.0025 8.57527 37.7572 7.62927C37.6332 7.14811 37.462 6.68053 37.2461 6.2334C37.2461 6.2334 41.6279 4.35853 41.0469 6.03888C40.9108 6.43036 40.8529 6.84504 40.8765 7.25909C40.9114 7.8815 41.123 8.48078 41.4865 8.98572V8.98572Z" fill="#D28690"/>
<path d="M32.203 17.3514C32.203 17.3514 30.024 16.7182 29.6611 17.3394C29.2983 17.9607 29.7702 19.324 30.4278 19.5433C31.0854 19.7627 32.5948 18.8004 32.5948 18.8004L32.203 17.3514Z" fill="#D28690"/>
<path d="M34.694 16.2739L33.7859 17.1145C33.7859 17.1145 32.2058 17.2602 31.7517 17.1505C31.7517 17.1505 32.17 19.9637 31.5703 20.3107L35.2383 19.5618L34.694 16.2739Z" fill="#585B8A"/>
<path opacity="0.1" d="M34.694 16.2739L33.7859 17.1145C33.7859 17.1145 32.2058 17.2602 31.7517 17.1505C31.7517 17.1505 32.17 19.9637 31.5703 20.3107L35.2383 19.5618L34.694 16.2739Z" fill="black"/>
<path opacity="0.1" d="M23.0358 4.19954C23.0358 4.92677 22.7486 5.62422 22.2374 6.13846C21.7262 6.65269 21.0329 6.94159 20.31 6.94159C18.9113 6.2655 17.5842 5.71538 17.5842 4.19954C17.5697 3.83061 17.6294 3.46254 17.7597 3.11739C17.8901 2.77224 18.0883 2.45713 18.3427 2.19095C18.597 1.92477 18.9022 1.713 19.2399 1.56834C19.5776 1.42368 19.9408 1.34912 20.3079 1.34912C20.6749 1.34912 21.0381 1.42368 21.3758 1.56834C21.7135 1.713 22.0187 1.92477 22.273 2.19095C22.5274 2.45713 22.7257 2.77224 22.856 3.11739C22.9864 3.46254 23.0461 3.83061 23.0316 4.19954H23.0358Z" fill="black"/>
<path d="M23.0352 4.12629C23.0356 4.77116 22.8096 5.39547 22.3971 5.8891C21.9846 6.38274 21.4121 6.71401 20.7805 6.82448C20.149 6.93495 19.4989 6.81754 18.945 6.49294C18.3911 6.16834 17.9689 5.6574 17.7529 5.05025C17.5368 4.44309 17.5409 3.7787 17.7643 3.17426C17.9877 2.56981 18.4161 2.06413 18.9739 1.74639C19.5318 1.42866 20.1832 1.31927 20.8134 1.43754C21.4436 1.5558 22.012 1.89411 22.4184 2.3928C22.8165 2.88186 23.0343 3.49423 23.0352 4.12629V4.12629Z" fill="#795548"/>
<path opacity="0.1" d="M24.6237 20.8925C24.354 21.061 24.0718 21.2083 23.7796 21.333C23.7796 21.333 22.3996 21.1316 22.2003 21.369C22.001 21.6063 20.2411 21.698 20.2411 21.698C20.2411 21.698 17.5536 21.5703 17.1541 21.2233C17.0306 21.1227 16.8931 21.0407 16.7461 20.9799L16.7904 20.2859C16.7904 20.2859 23.7148 19.8472 24.2719 20.3827C24.4169 20.5315 24.5359 20.7039 24.6237 20.8925Z" fill="black"/>
<path d="M24.9618 20.4015C24.9073 20.7117 23.7812 21.1864 23.7812 21.1864C23.7812 21.1864 22.4013 20.9859 22.2019 21.2232C22.0026 21.4606 20.2428 21.5523 20.2428 21.5523C20.2428 21.5523 17.5553 21.4237 17.1558 21.0767C16.7563 20.7296 15.8661 20.5626 15.8661 20.5626C15.8661 20.5626 15.4121 17.3115 15.5944 16.5995C15.7767 15.8874 15.3218 13.932 15.2128 13.2379C15.1037 12.5438 15.5211 10.6261 16.0297 10.3159C16.5382 10.0057 17.2648 8.96374 17.7001 8.65355C18.0672 8.3922 18.4727 8.05372 18.5911 7.95176L18.626 7.92262C18.626 7.92262 18.6993 7.35622 18.9897 7.06573C19.2802 6.77525 21.9489 8.91061 21.9489 8.91061C21.9489 8.91061 21.9677 9.07513 22.1491 8.76494C22.19 8.69553 22.5418 9.20624 22.6031 9.42217C22.6031 9.42217 24.0555 11.98 24.1466 12.507C24.2378 13.034 24.6185 14.7537 24.6909 15.1736C24.7097 15.2816 24.7404 15.6603 24.7761 16.1676C24.7829 16.267 24.7889 16.3724 24.7966 16.4821C24.8502 17.3235 24.9082 18.3981 24.9431 19.2104C24.9431 19.3029 24.9508 19.3921 24.9533 19.4777C24.9717 19.7853 24.9745 20.0936 24.9618 20.4015V20.4015Z" fill="#DCE6F2"/>
<path opacity="0.1" d="M15.7422 13.8071C15.7422 13.8071 16.7405 15.0308 17.0676 15.0308C17.3947 15.0308 15.7422 13.8071 15.7422 13.8071Z" fill="black"/>
<path opacity="0.1" d="M17.8429 16.4375C17.8429 16.4375 16.2082 18.2275 16.4263 18.5566C16.6443 18.8856 17.8429 16.4375 17.8429 16.4375Z" fill="black"/>
<path opacity="0.1" d="M16.6445 20C16.6445 20 18.5185 17.9357 18.6037 17.2236L16.6445 20Z" fill="black"/>
<path opacity="0.1" d="M19.0078 20.1456C19.0078 20.1456 21.1689 18.9948 21.3503 18.0814C21.5318 17.1679 19.0078 20.1456 19.0078 20.1456Z" fill="black"/>
<path opacity="0.1" d="M21.7491 9.04046L21.4492 9.77053L21.9484 10.0079L22.439 11.3875C22.439 11.3875 23.7917 14.109 23.7372 15.5245C23.6827 16.9401 23.9825 19.0678 23.9825 19.0678L24.7628 18.9221L24.3948 14.7585C24.3375 14.1138 24.177 13.4827 23.9195 12.8896C23.296 11.4535 22.1358 8.80225 22.0625 8.80225C21.9629 8.80225 22.0327 8.83909 22.0327 8.83909L21.7491 9.04046Z" fill="black"/>
<path d="M21.8233 8.96636L21.5234 9.69729L22.0235 9.93464L22.5133 11.3142C22.5133 11.3142 23.8659 14.0357 23.8114 15.4513C23.7569 16.8669 24.0568 18.9945 24.0568 18.9945L24.8379 18.8488L24.469 14.6852C24.4124 14.0406 24.2522 13.4094 23.9946 12.8164C23.371 11.3794 22.2109 8.729 22.1385 8.729C22.0379 8.729 22.1078 8.76585 22.1078 8.76585L21.8233 8.96636Z" fill="#575989"/>
<path d="M30.6622 19.7013C30.2823 19.6721 29.3708 19.2086 29.0088 19.0158L28.8555 18.9301L28.8742 17.5153C28.9637 17.4624 29.0565 17.4152 29.1519 17.374C29.6357 17.1615 30.6281 16.8727 31.1256 17.8024C31.7968 19.0492 31.1435 19.7338 30.6622 19.7013Z" fill="#FFD6D6"/>
<path opacity="0.1" d="M22.4179 2.39226C22.3788 2.41686 22.3359 2.43453 22.2909 2.44453C21.9749 2.51394 21.6154 2.24059 21.3446 2.41626C21.1793 2.52422 21.141 2.74787 21.1188 2.94496C21.0802 3.28771 21.0416 3.62818 21.003 3.96637C20.9949 4.08676 20.9696 4.20537 20.928 4.31855C20.7943 4.62617 20.4272 4.77099 20.0924 4.76584C19.9613 4.77523 19.8318 4.73211 19.7321 4.64588C19.6733 4.5859 19.6418 4.50192 19.577 4.44708C19.1511 4.08805 19.0217 4.96807 19.1341 5.21828C19.3147 5.62702 19.9561 6.02118 19.6869 6.54046C19.6417 6.62485 19.573 6.69421 19.4893 6.74011C19.0837 6.61232 18.7134 6.39088 18.408 6.09346C18.1026 5.79604 17.8706 5.4309 17.7305 5.0272C17.5903 4.6235 17.546 4.19244 17.6011 3.76844C17.6561 3.34445 17.8089 2.93927 18.0473 2.58528C18.2858 2.2313 18.6032 1.93831 18.9743 1.72972C19.3453 1.52114 19.7597 1.40274 20.1844 1.38399C20.609 1.36523 21.0322 1.44664 21.42 1.62171C21.8078 1.79678 22.1495 2.06066 22.4179 2.39226Z" fill="black"/>
<path d="M19.5064 4.44346C19.5702 4.49744 19.6026 4.58141 19.6614 4.6414C19.7611 4.72755 19.8906 4.77066 20.0217 4.76136C20.3565 4.7665 20.7236 4.62255 20.8565 4.31321C20.8989 4.20051 20.9244 4.08212 20.9323 3.96188L21.0482 2.94047C21.0703 2.74339 21.1078 2.51974 21.2739 2.41177C21.5448 2.24039 21.9042 2.50946 22.2203 2.44005C22.3342 2.41092 22.4328 2.33926 22.4961 2.23963C22.5594 2.14 22.5826 2.01986 22.561 1.90364C22.5244 1.73997 22.4 1.61058 22.3361 1.45463C22.2974 1.3348 22.2664 1.21258 22.2433 1.08874C22.0669 0.42379 21.2909 0.0501874 20.6163 0.161583C20.2415 0.224136 19.8931 0.404082 19.5174 0.458923C19.2483 0.49834 18.9731 0.472634 18.7014 0.501768C18.4489 0.527974 18.2035 0.600891 17.9773 0.716846C17.918 0.743275 17.8655 0.783161 17.824 0.833383C17.7854 0.901215 17.7595 0.975549 17.7474 1.05275C17.6562 1.3955 17.3632 1.64828 17.1511 1.93706C16.9085 2.26931 16.7681 2.66585 16.7473 3.07757C16.739 3.18273 16.7488 3.28855 16.7763 3.39034C16.7942 3.45032 16.8223 3.50859 16.8359 3.57029C16.8776 3.75794 16.7822 3.9456 16.7354 4.1324C16.6772 4.37078 16.6981 4.62177 16.795 4.84705C17.1221 5.60368 18.1997 5.85647 18.4237 6.6508C18.6226 6.74675 18.8375 6.80486 19.0575 6.82218C19.2772 6.82646 19.514 6.73135 19.6162 6.53512C19.8846 6.02099 19.244 5.62168 19.0634 5.2138C18.9501 4.96273 19.077 4.08356 19.5064 4.44346Z" fill="#353045"/>
<path opacity="0.1" d="M41.0516 6.03889C40.9155 6.43036 40.8576 6.84504 40.8813 7.2591C40.7501 7.37135 40.607 7.03545 40.4554 7.122C40.0397 7.36364 39.5593 7.93861 39.0448 7.93861C38.5986 7.9389 38.1587 7.8329 37.7611 7.62927C37.6371 7.14811 37.4659 6.68053 37.25 6.2334C37.25 6.2334 41.6326 4.35853 41.0516 6.03889Z" fill="black"/>
<path d="M41.8733 4.94279C41.8733 5.50647 41.7072 6.05748 41.3959 6.52617C41.0846 6.99485 40.6421 7.36014 40.1244 7.57585C39.6067 7.79156 39.037 7.848 38.4875 7.73804C37.9379 7.62807 37.4331 7.35663 37.0368 6.95805C36.6406 6.55947 36.3708 6.05164 36.2615 5.4988C36.1522 4.94595 36.2083 4.37291 36.4227 3.85213C36.6371 3.33136 37.0003 2.88625 37.4662 2.57309C37.9321 2.25992 38.4798 2.09277 39.0402 2.09277C39.4123 2.09266 39.7807 2.1663 40.1245 2.30949C40.4683 2.45267 40.7807 2.6626 41.0438 2.92727C41.3069 3.19194 41.5156 3.50617 41.6579 3.852C41.8003 4.19783 41.8735 4.56849 41.8733 4.94279Z" fill="#D28690"/>
<path d="M41.7516 9.61875C41.7516 9.61875 41.2184 10.2031 41.146 10.2511C41.0736 10.2991 39.5275 16.8492 39.5002 16.9254C39.473 17.0017 37.6595 22.9159 37.6595 22.9159L34.7539 24.3529L34.9967 17.1191L37.1262 11.1534C37.1262 11.1534 37.829 10.3497 38.0462 10.0575C38.2634 9.76528 40.9756 8.01123 40.9756 8.01123L41.439 8.9718L41.7516 9.61875Z" fill="#F0F3F7"/>
<path opacity="0.1" d="M41.3672 9.11828L38.0263 11.5244L37.9727 10.2031C38.1907 9.91091 40.9021 8.15771 40.9021 8.15771L41.3672 9.11828Z" fill="black"/>
<path d="M41.4397 8.9718L38.0988 11.3779L38.0469 10.0575C38.2649 9.76442 40.9763 8.01123 40.9763 8.01123L41.4397 8.9718Z" fill="#F0F3F7"/>
<path d="M37.9355 9.46973L38.047 10.0576L37.3 10.821L37.8963 9.4783C37.8963 9.4783 36.6185 10.3737 36.2352 10.6111C35.8519 10.8485 35.4686 11.6522 35.4541 11.8716C35.4396 12.0909 34.8365 15.3968 34.8365 15.3968C34.8365 15.3968 34.3825 16.6205 34.5103 16.9675C34.6381 17.3145 33.8203 28.2562 33.8203 28.2562C33.9296 28.0437 34.0842 27.858 34.2729 27.7124C34.4617 27.5668 34.68 27.4649 34.9123 27.4138L34.621 20.9478C34.621 20.9478 34.9754 16.6462 34.9933 16.5913C35.0112 16.5365 35.8195 14.0429 35.8195 14.0429L37.9355 9.46973Z" fill="#585B8A"/>
<path opacity="0.1" d="M38.1219 10.1304L38.064 11.33C38.064 11.33 37.2556 13.8964 36.9839 14.3163C36.7122 14.7361 35.8851 17.2391 35.8851 17.2391L35.4191 21.5869L34.6201 21.9528L34.2266 21.2236L34.8808 17.0249C34.8808 17.0249 36.115 13.4817 36.2973 13.1158L37.2079 11.1861L38.1219 10.1304Z" fill="black"/>
<path d="M38.0464 10.0571L37.9893 11.2568C37.9893 11.2568 37.1809 13.8231 36.9083 14.243C36.6358 14.6629 35.8103 17.1659 35.8103 17.1659L35.3469 21.5129L34.5479 21.8779L34.1484 21.1478L34.8026 16.9491C34.8026 16.9491 36.0369 13.405 36.2184 13.04L37.1358 11.1128L38.0464 10.0571Z" fill="#FF4568"/>
<path d="M28.6328 19.2139L30.1942 20.3013C30.1942 20.3013 31.2956 19.68 30.6542 19.2781C30.0128 18.8763 29.4438 18.8154 29.2376 18.8154C29.0315 18.8154 28.6328 19.2139 28.6328 19.2139Z" fill="#D28690"/>
<path d="M29.7969 17.2036C29.762 17.2254 29.7333 17.2558 29.7135 17.292C29.6937 17.3281 29.6834 17.3688 29.6836 17.4101C29.6836 17.7434 29.7211 18.626 29.9988 18.2276C30.3395 17.74 30.2773 17.3021 30.7978 17.6183C31.1212 17.821 31.4043 18.0825 31.6325 18.3895L31.4877 17.3424C31.4877 17.3424 30.4179 16.8111 29.7969 17.2036Z" fill="#D28690"/>
<path opacity="0.1" d="M41.9026 29.991C41.8243 30.1144 41.7553 30.3844 41.6982 30.7322C38.5141 31.6928 36.1843 29.662 36.1843 29.662C35.9025 28.7011 35.6721 27.7257 35.4944 26.74C35.4373 26.4024 35.4501 25.7477 35.5029 24.9491L41.1956 23.9448C41.1956 23.9448 42.2663 29.4246 41.9026 29.991Z" fill="black"/>
<path d="M45.1719 13.6427C45.0271 14.1183 45.0816 15.0857 45.0816 15.0857L43.7741 21.2964C43.7741 21.2964 43.1386 26.0822 43.0296 26.7214C42.9206 27.3606 42.7391 30.1738 42.7391 30.1738C39.0346 32.0007 36.1801 29.5166 36.1801 29.5166C35.8983 28.5554 35.668 27.5797 35.4902 26.5937C35.3079 25.5089 35.8445 21.1628 36.0984 19.2322C36.1742 18.6607 36.2253 18.3008 36.2253 18.3008L37.1785 14.7387C37.1785 14.7387 38.3497 11.7336 38.7858 10.857C39.222 9.9804 40.9733 8.01128 40.9733 8.01128C41.1905 7.87246 41.5381 8.3626 41.7962 8.80904C41.9912 9.14665 42.1369 9.46027 42.1369 9.46027C42.1369 9.46027 44.3158 10.4097 44.6421 10.917C44.9683 11.4243 44.9147 12.4697 44.9513 12.5245C44.9879 12.5793 45.3176 13.168 45.1719 13.6427Z" fill="#585B8A"/>
<path opacity="0.1" d="M40.0315 11.4328C40.0315 11.4328 40.195 12.401 39.7759 12.6932C39.3713 12.976 36.3593 18.934 36.1719 19.3058C36.2477 18.7334 36.2988 18.3736 36.2988 18.3736L37.252 14.8123C37.252 14.8123 38.4241 11.8072 38.8594 10.9298C39.2946 10.0523 41.0477 8.08403 41.0477 8.08403C41.2649 7.94522 41.6116 8.43536 41.8697 8.8818C41.4804 9.69498 40.6686 11.2322 40.0315 11.4328Z" fill="black"/>
<path d="M39.959 11.36C39.959 11.36 40.1217 12.3283 39.7034 12.6205C39.2852 12.9127 36.2876 18.8603 36.0977 19.2322C36.1735 18.6607 36.2246 18.3008 36.2246 18.3008L37.1778 14.7387C37.1778 14.7387 38.349 11.7336 38.7851 10.857C39.2213 9.98041 40.9726 8.01128 40.9726 8.01128C41.1898 7.87246 41.5374 8.3626 41.7955 8.80904C41.4079 9.62137 40.5953 11.1595 39.959 11.36Z" fill="#585B8A"/>
<path d="M44.2828 20.1096L43.258 25.4729V25.4737L43.1601 25.987V25.9879L42.9394 27.1421L41.9982 26.9416L41.5595 26.8482L35.4886 25.5543L35.0422 25.4592L34.0234 25.2424L34.2228 23.9108L34.3054 23.3572L35.0405 18.4473L44.2828 20.1096Z" fill="#6C63FF"/>
<path d="M38.6159 24.4932C38.6159 24.4932 36.201 25.3698 36.7274 26.4109C37.2538 27.452 40.6313 25.6071 40.6313 25.6071L38.6159 24.4932Z" fill="#D28690"/>
<path opacity="0.1" d="M40.3398 31.9634C40.3398 32.0362 40.431 32.9685 40.7939 33.2967C41.1568 33.6249 40.3398 31.9634 40.3398 31.9634Z" fill="black"/>
<path opacity="0.1" d="M37.9102 35.27C37.9102 35.27 38.3454 36.4757 40.0704 36.9692C41.7953 37.4628 37.9102 35.27 37.9102 35.27Z" fill="black"/>
<path opacity="0.1" d="M41.873 4.9425C41.8731 5.44351 41.7419 5.9357 41.4926 6.36943C41.2433 6.80315 40.8847 7.16308 40.453 7.4129C40.2903 7.32131 40.1459 7.20016 40.0271 7.05558C39.9036 6.90477 39.8073 6.69912 39.8814 6.51917C39.9411 6.37436 40.0987 6.28267 40.137 6.13272C40.155 6.04101 40.1504 5.94625 40.1234 5.8568C40.0918 5.71541 40.062 5.57403 40.0314 5.4335C40.0049 5.31353 39.9581 5.17215 39.8397 5.14301C39.7213 5.11388 39.6225 5.21328 39.5296 5.28697C39.3022 5.46777 38.8661 5.59031 38.5926 5.44207C38.3192 5.29382 38.3959 4.79769 38.3516 4.52948C38.351 4.50618 38.3454 4.48329 38.3351 4.46241C38.3248 4.44154 38.3101 4.42319 38.2919 4.40866C38.2521 4.39538 38.2097 4.39243 38.1684 4.40009C38.0211 4.40009 37.9027 4.26727 37.8601 4.12503C37.8299 3.97981 37.8134 3.83207 37.8107 3.68374C37.7945 3.53549 37.7408 3.37868 37.6147 3.30242C37.514 3.25526 37.4023 3.23688 37.2919 3.24929L36.7578 3.25529C37.1121 2.77343 37.6084 2.4162 38.1762 2.23439C38.7439 2.05258 39.3542 2.05544 39.9202 2.24258C40.4862 2.42972 40.9792 2.79161 41.329 3.27678C41.6788 3.76195 41.8677 4.34572 41.8687 4.94507L41.873 4.9425Z" fill="black"/>
<path d="M39.6042 5.28748C39.697 5.21379 39.7992 5.1161 39.9142 5.14438C40.0292 5.17265 40.0786 5.31576 40.105 5.43401L40.197 5.85645C40.2242 5.94614 40.2292 6.04116 40.2115 6.13323C40.1681 6.28404 40.0113 6.37487 39.9508 6.51969C39.8767 6.69963 39.9738 6.90528 40.0965 7.05524C40.3202 7.32649 40.6296 7.51247 40.973 7.58223C41.0627 7.6039 41.156 7.60594 41.2465 7.58823C41.4492 7.5411 41.5872 7.35344 41.6962 7.17777C42.2593 6.29518 42.744 5.32775 42.8428 4.28406C42.8699 4.07119 42.8601 3.85519 42.8138 3.64568C42.7677 3.48284 42.7025 3.32608 42.6196 3.17868C42.4746 2.87754 42.2904 2.59716 42.0719 2.34492C41.6843 1.92505 41.1494 1.66712 40.5999 1.5146C39.9819 1.3421 39.3367 1.29119 38.6995 1.36464C38.5291 1.38435 38.3656 1.41263 38.1978 1.42377C37.9871 1.43362 37.776 1.43019 37.5657 1.41349L36.3119 1.33808C36.2403 1.48461 36.3119 1.65856 36.397 1.79566C36.4822 1.93276 36.5878 2.075 36.581 2.23781C36.5742 2.40062 36.4592 2.52915 36.3706 2.66626C36.282 2.80336 36.2147 2.98074 36.3033 3.11441C36.3919 3.24809 36.5725 3.25665 36.7292 3.25494L37.3613 3.24808C37.4714 3.2367 37.5825 3.25597 37.6824 3.30378C37.8085 3.38005 37.8622 3.53771 37.8784 3.6851C37.8819 3.83337 37.8984 3.98104 37.9278 4.1264C37.9712 4.26864 38.0888 4.40317 38.2361 4.40146C38.2774 4.39318 38.3201 4.39644 38.3596 4.41088C38.3777 4.42524 38.3925 4.44343 38.4028 4.46417C38.4131 4.4849 38.4187 4.50767 38.4193 4.53085C38.4636 4.79905 38.3818 5.29433 38.6603 5.44343C38.9389 5.59253 39.3767 5.46828 39.6042 5.28748Z" fill="#663D5C"/>
<path opacity="0.1" d="M43.2093 10.916C42.8961 10.8826 42.581 10.9572 42.3155 11.1277C42.05 11.2982 41.8501 11.5544 41.7485 11.8543C41.4078 12.8303 40.8396 14.5912 40.9818 15.287C41.182 16.2733 41.418 17.9176 41.418 17.9176C41.418 17.9176 42.4529 18.5175 41.9291 19.1224C41.4052 19.7274 41.257 20.5843 41.257 20.5843C41.257 20.5843 40.5849 20.8765 40.4401 21.4977C40.2953 22.119 39.314 22.9767 39.314 22.9767L37.8438 24.4565C37.8438 24.4565 40.2765 26.9415 40.7672 27.0683L42.274 25.2963L44.0535 22.9219L45.597 21.2938C45.597 21.2938 45.9599 20.4369 45.7784 18.8088C45.597 17.1807 44.8883 15.6306 44.8883 15.6306L44.9428 15.0822C44.9428 15.0822 45.1097 11.1534 43.2093 10.916Z" fill="black"/>
<path d="M43.353 10.9158C43.0401 10.8828 42.7253 10.9576 42.4602 11.1281C42.1951 11.2986 41.9954 11.5546 41.8939 11.8541C41.5531 12.8301 40.985 14.591 41.1272 15.2868C41.3265 16.2731 41.5625 17.9175 41.5625 17.9175C41.5625 17.9175 42.5975 18.5173 42.0736 19.1223C41.5497 19.7272 41.4024 20.5841 41.4024 20.5841C41.4024 20.5841 40.7303 20.8763 40.5846 21.4976C40.439 22.1188 39.4594 22.9765 39.4594 22.9765L37.9883 24.4564C37.9883 24.4564 40.4211 26.9414 40.9117 27.0682L42.4186 25.2961L44.1938 22.9217L45.7372 21.2936C45.7372 21.2936 46.101 20.4367 45.9187 18.8086C45.7364 17.1806 45.0294 15.6304 45.0294 15.6304L45.0839 15.082C45.0839 15.082 45.2534 11.1532 43.353 10.9158Z" fill="#585B8A"/>
<path opacity="0.1" d="M41.8281 16.4746C41.8281 16.4746 43.3716 18.3735 44.0258 17.9536C44.68 17.5337 41.8281 16.4746 41.8281 16.4746Z" fill="black"/>
<path opacity="0.1" d="M42.4141 15.0127C42.5776 15.0675 43.9218 16.9493 44.6118 16.7265C45.3018 16.5037 42.4141 15.0127 42.4141 15.0127Z" fill="black"/>
<path opacity="0.1" d="M42.793 18.2451C42.793 18.2451 42.8841 19.3231 43.9915 19.1766C45.0989 19.03 42.793 18.2451 42.793 18.2451Z" fill="black"/>
<path opacity="0.1" d="M37.8996 9.55078L37.3008 10.8935L38.0487 10.13L37.8996 9.55078Z" fill="black"/>
<path d="M37.8996 9.47803L37.3008 10.8208L38.0487 10.0573L37.8996 9.47803Z" fill="#F0F3F7"/>
<path opacity="0.3" d="M35.4885 25.554L35.0421 25.4589L34.2227 23.9105L34.3053 23.3569L35.4885 25.554Z" fill="black"/>
<path opacity="0.3" d="M43.2571 25.4736L43.1592 25.9869V25.9878L41.9973 26.9415L41.5586 26.8481L43.2571 25.4736Z" fill="black"/>
<path opacity="0.1" d="M24.9525 19.4814C24.7276 19.5191 24.5095 19.5534 24.3102 19.5791C23.2028 19.7256 20.569 18.4103 20.569 18.4103C20.569 18.4103 17.3551 15.7068 16.4292 13.1499C15.5032 10.5929 17.5365 10.209 17.5365 10.209C18.3032 9.7703 19.9702 10.9939 20.2061 11.1953C20.4421 11.3967 20.6423 11.9074 20.6235 12.2364C20.6048 12.5655 21.1687 12.9853 21.1687 12.9853C21.1687 12.9853 22.1312 14.6657 22.3672 14.8482C22.6032 15.0307 22.6577 15.1953 22.7301 15.5063C22.8025 15.8174 23.4379 16.0727 23.7105 16.0539C23.9831 16.035 24.3068 16.1455 24.3068 16.2912C24.3068 16.4086 24.5734 16.4669 24.7923 16.4857C24.8571 17.4223 24.921 18.6494 24.9525 19.4814Z" fill="black"/>
<path opacity="0.1" d="M24.9411 19.2138C24.7708 19.2412 24.6072 19.266 24.4539 19.2866C23.3465 19.4331 20.7135 18.1178 20.7135 18.1178C20.7135 18.1178 17.4996 15.4143 16.5737 12.8574C15.6478 10.3004 17.6811 9.91654 17.6811 9.91654C18.4477 9.47782 20.1139 10.7015 20.3498 10.9028C20.5858 11.1042 20.7859 11.6149 20.7681 11.9439C20.7502 12.273 21.3124 12.6929 21.3124 12.6929C21.3124 12.6929 22.2749 14.3732 22.5109 14.5557C22.7468 14.7382 22.8013 14.9028 22.8746 15.2138C22.9479 15.5249 23.5825 15.7794 23.8551 15.7614C24.1276 15.7434 24.4513 15.853 24.4513 15.9987C24.4513 16.0844 24.603 16.1418 24.7716 16.1701C24.7784 16.2695 24.7844 16.3749 24.7921 16.4846C24.8483 17.3269 24.9062 18.4014 24.9411 19.2138Z" fill="black"/>
<path opacity="0.1" d="M29.1519 17.3745L29.0829 19.0163H29.0088L28.8555 18.9306L28.8742 17.5159C28.9637 17.4629 29.0565 17.4157 29.1519 17.3745V17.3745Z" fill="black"/>
<path d="M17.5365 10.0623C17.5365 10.0623 15.5032 10.4461 16.4292 13.0031C17.3551 15.5601 20.569 18.2644 20.569 18.2644C20.569 18.2644 23.202 19.5789 24.3102 19.4332C25.4184 19.2875 27.1059 18.9036 27.3239 18.9585C27.542 19.0133 29.0131 19.0133 29.0131 19.0133L29.0855 17.2995L27.3819 17.2079L26.5105 17.0253C26.5105 17.0253 26.2012 16.7683 26.0198 16.806C25.8384 16.8437 25.4576 16.5866 25.4576 16.5866C25.4576 16.5866 25.1663 16.3492 24.9465 16.3492C24.7267 16.3492 24.3111 16.2944 24.3111 16.1487C24.3111 16.0031 23.984 15.8917 23.7148 15.9114C23.4456 15.9311 22.8025 15.674 22.7275 15.3595C22.6526 15.0451 22.6006 14.8848 22.3646 14.7023C22.1287 14.5198 21.1661 12.8386 21.1661 12.8386C21.1661 12.8386 20.6031 12.4187 20.621 12.0905C20.6389 11.7623 20.4395 11.2499 20.2036 11.0485C19.9676 10.8472 18.2981 9.62439 17.5365 10.0623Z" fill="#DCE6F2"/>
<path opacity="0.1" d="M22.7667 15.9443C22.7667 15.9443 21.9856 16.7301 22.1849 16.8758L22.7667 15.9443Z" fill="black"/>
<path opacity="0.1" d="M23.6034 16.5654C23.6034 16.5654 22.5863 17.3512 22.8589 17.406C23.1315 17.4609 23.6034 16.5654 23.6034 16.5654Z" fill="black"/>
<path opacity="0.1" d="M21.875 17.731C22.0207 17.8046 24.1809 19.102 24.9986 19.0831L21.875 17.731Z" fill="black"/>
<path opacity="0.1" d="M22.018 9.05834C22.018 9.05834 21.6364 10.3188 21.4908 10.3188C21.3766 10.3188 19.46 8.75757 18.6602 8.10119L18.6951 8.07206C18.6951 8.07206 18.7675 7.50565 19.058 7.21517C19.3484 6.92468 22.018 9.05834 22.018 9.05834Z" fill="black"/>
<path d="M21.9477 8.91136C21.9477 8.91136 21.567 10.1718 21.4213 10.1718C21.3063 10.1718 19.3897 8.61059 18.5898 7.95422L18.6248 7.92508C18.6248 7.92508 18.698 7.35868 18.9885 7.0682C19.279 6.77771 21.9477 8.91136 21.9477 8.91136Z" fill="#DCE6F2"/>
<g opacity="0.15">
<path opacity="0.15" d="M16.8047 4.83789C17.0602 5.42486 17.7638 5.70935 18.1719 6.17721C17.9291 5.60223 17.2195 5.32032 16.8047 4.83789Z" fill="black"/>
<path opacity="0.15" d="M19.4084 6.19011C19.307 6.38634 19.0676 6.48146 18.8496 6.47717C18.6557 6.46318 18.4659 6.41443 18.2891 6.33321C18.3532 6.42833 18.4021 6.53301 18.4339 6.64341C18.6327 6.73955 18.8476 6.79766 19.0676 6.81479C19.2883 6.81993 19.5251 6.72482 19.6264 6.52773C19.7891 6.21496 19.6196 5.94761 19.4211 5.69482C19.4581 5.77251 19.4763 5.85791 19.474 5.94402C19.4718 6.03012 19.4493 6.11447 19.4084 6.19011V6.19011Z" fill="black"/>
<path opacity="0.15" d="M22.5719 1.89556C22.5353 1.73104 22.4109 1.60165 22.3471 1.44655C22.3079 1.32655 22.2769 1.20402 22.2542 1.0798C22.2058 0.904165 22.1161 0.742816 21.9927 0.609375C22.0098 0.651552 22.0244 0.694766 22.0361 0.738764C22.06 0.863525 22.0919 0.986602 22.1315 1.10722C22.1954 1.26232 22.3198 1.39171 22.3564 1.55623C22.378 1.67246 22.3548 1.79259 22.2915 1.89222C22.2282 1.99186 22.1296 2.06352 22.0157 2.09264C21.7005 2.16205 21.3411 1.88785 21.0702 2.06437C20.9041 2.17148 20.8657 2.39512 20.8436 2.59221C20.8055 2.93496 20.7669 3.27572 20.7277 3.61447C20.7201 3.73465 20.6948 3.85303 20.6528 3.96579C20.519 4.27427 20.1519 4.41908 19.8171 4.41394C19.6863 4.42273 19.5573 4.37967 19.4577 4.29398C19.4092 4.22499 19.3572 4.15863 19.3018 4.09518C18.8759 3.73529 18.7464 4.61531 18.8588 4.86638C18.9152 4.97932 18.985 5.08493 19.0667 5.18086C18.973 4.89808 19.1042 4.08404 19.5199 4.4328C19.5753 4.49604 19.627 4.56241 19.6749 4.63159C19.7749 4.71718 19.9042 4.76021 20.0352 4.75156C20.37 4.7567 20.7371 4.61188 20.8708 4.3034C20.9129 4.19037 20.9382 4.07169 20.9458 3.95123C20.9844 3.60847 21.023 3.268 21.0617 2.92982C21.0838 2.73273 21.1221 2.50909 21.2874 2.40198C21.5591 2.22546 21.9186 2.49966 22.2338 2.4294C22.3468 2.39992 22.4445 2.32847 22.5073 2.22941C22.57 2.13036 22.5931 2.01107 22.5719 1.89556V1.89556Z" fill="black"/>
</g>
<path opacity="0.1" d="M41.4283 7.36934C41.3377 7.38634 41.2446 7.384 41.1549 7.36249C40.8119 7.29278 40.5029 7.10712 40.2792 6.83636C40.1557 6.68555 40.0586 6.47989 40.1336 6.29995C40.1932 6.15513 40.3499 6.0643 40.3891 5.91349C40.4068 5.82143 40.4019 5.7264 40.3746 5.63671L40.2826 5.21427C40.2562 5.0943 40.2102 4.95292 40.0918 4.92464C39.9734 4.89636 39.8746 4.99405 39.7818 5.06774C39.5543 5.24854 39.1174 5.37194 38.8448 5.22284C38.5722 5.07374 38.648 4.57846 38.6037 4.31025C38.603 4.28711 38.5973 4.2644 38.587 4.24369C38.5767 4.22298 38.5621 4.20476 38.5441 4.19029C38.5042 4.1763 38.4613 4.17305 38.4197 4.18086C38.2724 4.18086 38.1548 4.04804 38.1114 3.9058C38.0818 3.76049 38.0656 3.61278 38.0628 3.4645C38.0458 3.31712 37.993 3.15945 37.866 3.08318C37.766 3.03578 37.655 3.01654 37.5449 3.02749L36.9129 3.03434C36.757 3.03434 36.5721 3.02406 36.4869 2.89381C36.4018 2.76356 36.4648 2.57847 36.5542 2.44566C36.6437 2.31284 36.757 2.18088 36.7646 2.01721C36.7723 1.85355 36.6667 1.71216 36.5806 1.57506C36.5313 1.50008 36.495 1.41721 36.4733 1.32999L36.2919 1.31885C36.2212 1.46452 36.2919 1.63847 36.3771 1.77643C36.4622 1.91439 36.5687 2.05577 36.5611 2.21773C36.5534 2.37968 36.4401 2.50992 36.3507 2.64617C36.2612 2.78241 36.1956 2.96065 36.2842 3.09432C36.3728 3.228 36.5525 3.23742 36.7101 3.23571L37.3422 3.228C37.4523 3.21727 37.5633 3.23682 37.6633 3.28455C37.7902 3.36082 37.8439 3.51848 37.8601 3.66587C37.8628 3.8142 37.8793 3.96195 37.9095 4.10717C37.9521 4.24855 38.0705 4.38394 38.2178 4.38137C38.2591 4.37402 38.3016 4.37726 38.3414 4.3908C38.3594 4.4054 38.374 4.42377 38.3843 4.44463C38.3946 4.46549 38.4003 4.48834 38.401 4.51162C38.4453 4.77897 38.3635 5.27511 38.642 5.42421C38.9206 5.57331 39.355 5.44991 39.579 5.26911C39.6719 5.19542 39.775 5.09773 39.89 5.12515C40.005 5.15257 40.0544 5.29653 40.0799 5.41478L40.1728 5.83808C40.1997 5.92783 40.2044 6.02287 40.1864 6.11486C40.1438 6.26481 39.9862 6.3565 39.9266 6.50046C39.8525 6.68041 39.9487 6.88692 40.0722 7.03687C40.2974 7.30881 40.6087 7.49457 40.9539 7.563C41.0435 7.58451 41.1367 7.58685 41.2273 7.56986C41.3737 7.52496 41.4994 7.42893 41.5817 7.29908C41.5351 7.33153 41.4832 7.35533 41.4283 7.36934Z" fill="black"/>
<defs>
<linearGradient id="paint0_linear" x1="29.9027" y1="50.1691" x2="29.9027" y2="-0.00163875" gradientUnits="userSpaceOnUse">
<stop stop-color="#808080" stop-opacity="0.25"/>
<stop offset="0.54" stop-color="#808080" stop-opacity="0.12"/>
<stop offset="1" stop-color="#808080" stop-opacity="0.1"/>
</linearGradient>
</defs>
</svg>
