<svg width="1033" height="769" viewBox="0 0 1033 769" fill="none" xmlns="http://www.w3.org/2000/svg">
<path opacity="0.4" d="M571.5 763C668.426 763 747 743.972 747 720.5C747 697.028 668.426 678 571.5 678C474.574 678 396 697.028 396 720.5C396 743.972 474.574 763 571.5 763Z" fill="#032B4D"/>
<path opacity="0.4" d="M548.682 7.23655C504.766 -9.30416 451.304 4.92145 405.648 25.6688C262.254 90.8465 157.789 214.572 74.7897 340.622C44.7382 386.264 16.1936 433.916 4.89636 484.868C-18.1065 588.575 41.8896 695.937 143.925 733.56C178.623 746.367 216.744 751.618 254.924 754.544C322.814 759.755 393.106 757.686 460.452 738.387C508.48 724.595 553.912 702.41 597.488 677.899C719.181 609.411 830.316 520.472 910.34 411.829C945.437 364.177 975.129 310.457 975.985 255.475C976.84 200.494 941.481 145.247 883.303 135.897C859.25 132.036 833.807 136.055 808.986 140.193C772.44 146.291 735.398 152.704 699.27 150.044C661.946 147.276 613.403 132.499 606.597 96.3929C599.393 57.6271 592.539 23.7576 548.682 7.23655Z" fill="#FF4568"/>
<path opacity="0.4" d="M577.682 13.2366C533.766 -3.30416 480.304 10.9214 434.648 31.6688C291.254 96.8465 186.789 220.572 103.79 346.622C73.7382 392.264 45.1936 439.916 33.8964 490.868C10.8935 594.575 70.8896 701.937 172.925 739.56C207.623 752.367 245.744 757.618 283.924 760.544C351.814 765.755 422.106 763.686 489.452 744.387C537.48 730.595 582.912 708.41 626.488 683.899C748.181 615.411 859.316 526.472 939.34 417.829C974.437 370.177 1004.13 316.457 1004.98 261.475C1005.84 206.494 970.481 151.247 912.303 141.897C888.25 138.036 862.807 142.055 837.986 146.193C801.44 152.291 764.398 158.704 728.27 156.044C690.946 153.276 642.403 138.499 635.597 102.393C628.393 63.6271 621.539 29.7576 577.682 13.2366Z" fill="#FF4568"/>
<path d="M216.02 704.81C216.02 704.81 264.28 701.9 258.59 735.72C258.59 735.72 259.72 741.72 254.3 744.41C254.3 744.41 254.22 741.9 249.35 742.75C247.62 743.047 245.861 743.134 244.11 743.01C241.743 742.846 239.493 741.916 237.7 740.36V740.36C237.7 740.36 224.13 734.76 218.86 712.58C218.86 712.58 214.95 707.75 215.11 706.5L223.25 709.98C223.25 709.98 220.47 715.86 222.66 720.74C222.66 720.74 222.92 710.2 224.49 710.44C224.8 710.49 228.72 712.44 228.72 712.44C228.72 712.44 223.93 722.67 227.54 730.11C227.54 730.11 226.17 717.5 230.21 713.18L235.95 716.53C235.95 716.53 230.35 727.1 234.15 735.72C234.15 735.72 233.15 722.49 237.15 717.34L242.35 721.34C242.35 721.34 237.09 731.76 240.3 738.92C240.3 738.92 240.71 723.51 243.47 722.35C243.47 722.35 248.02 726.35 248.71 728.01C248.71 728.01 245.11 735.57 247.34 739.56C247.34 739.56 248.71 729.3 249.84 729.25C249.84 729.25 254.36 736.05 254.84 740.71C254.84 740.71 254.64 733.78 250.93 728.6C250.93 728.6 255.31 729.35 257.87 732.19C257.87 732.19 257.16 727.38 249.82 726.96C249.82 726.96 246.08 721.81 245.07 721.49C245.07 721.49 252.38 720.88 256.81 722.85C256.81 722.85 252.91 718.31 243.73 720.37L238.6 716.19C238.6 716.19 248.23 714.87 252.3 716.33C252.3 716.33 247.61 712.33 237.22 715.24L231.64 711.9C231.64 711.9 239.84 710.13 244.73 710.77C244.73 710.77 239.57 707.99 230 711L226 709.21C226 709.21 232 708.03 233.77 707.84C235.54 707.65 235.62 707.17 235.62 707.17C231.814 706.532 227.905 706.965 224.33 708.42C224.33 708.42 215.87 705.39 216.02 704.81Z" fill="#FF4568"/>
<path opacity="0.1" d="M249.26 753.13C268.126 753.13 283.42 750.546 283.42 747.36C283.42 744.173 268.126 741.59 249.26 741.59C230.394 741.59 215.1 744.173 215.1 747.36C215.1 750.546 230.394 753.13 249.26 753.13Z" fill="#6C63FF"/>
<path d="M151.37 682.06C151.37 682.06 178.58 680.42 175.37 699.49C175.54 700.456 175.397 701.452 174.964 702.333C174.531 703.214 173.829 703.934 172.96 704.39C172.96 704.39 172.91 702.98 170.17 703.46C169.196 703.626 168.205 703.673 167.22 703.6C165.882 703.517 164.609 702.993 163.6 702.11V702.11C163.6 702.11 155.96 698.94 152.96 686.44C152.96 686.44 150.76 683.71 150.84 683.01L155.44 685.01C155.44 685.01 153.87 688.33 155.1 691.08C155.1 691.08 155.25 685.13 156.1 685.27C156.28 685.27 158.49 686.42 158.49 686.42C158.49 686.42 155.79 692.19 157.83 696.42C157.83 696.42 157.05 689.31 159.33 686.87L162.56 688.76C162.56 688.76 159.41 694.76 161.56 699.58C161.56 699.58 161.01 692.12 163.25 689.22L166.18 691.5C166.18 691.5 163.18 697.37 165.03 701.41C165.03 701.41 165.26 692.72 166.82 692.07C166.82 692.07 169.38 694.33 169.77 695.26C169.77 695.26 167.77 699.52 169 701.77C169 701.77 169.77 695.99 170.41 695.96C170.41 695.96 172.96 699.79 173.22 702.42C173.092 699.991 172.334 697.637 171.02 695.59C172.491 695.859 173.851 696.554 174.93 697.59C174.93 697.59 174.54 694.88 170.39 694.64C170.39 694.64 168.28 691.73 167.72 691.56C167.72 691.56 171.84 691.21 174.34 692.32C174.34 692.32 172.14 689.76 166.96 690.92L164.07 688.56C164.07 688.56 169.5 687.82 171.8 688.64C171.8 688.64 169.15 686.38 163.29 688.03L160.15 686.14C162.569 685.611 165.046 685.399 167.52 685.51C167.52 685.51 164.62 683.94 159.22 685.64L156.97 684.64C156.97 684.64 160.36 683.97 161.35 683.87C162.34 683.77 162.4 683.49 162.4 683.49C160.252 683.134 158.047 683.379 156.03 684.2C156.03 684.2 151.29 682.39 151.37 682.06Z" fill="#FF4568"/>
<path opacity="0.1" d="M170.11 709.3C180.747 709.3 189.37 707.841 189.37 706.04C189.37 704.24 180.747 702.78 170.11 702.78C159.473 702.78 150.85 704.24 150.85 706.04C150.85 707.841 159.473 709.3 170.11 709.3Z" fill="#6C63FF"/>
<path d="M820.779 700.39C820.779 700.39 853.629 698.39 849.779 721.39C849.976 722.559 849.8 723.759 849.276 724.822C848.752 725.885 847.906 726.755 846.859 727.31C846.859 727.31 846.799 725.6 843.489 726.18C842.31 726.381 841.112 726.438 839.919 726.35C838.308 726.245 836.775 725.613 835.559 724.55V724.55C835.559 724.55 826.319 720.74 822.729 705.64C822.729 705.64 820.069 702.35 820.179 701.51L825.719 703.87C825.719 703.87 823.829 707.87 825.319 711.2C825.319 711.2 825.499 704.02 826.559 704.2C826.779 704.2 829.439 705.58 829.439 705.58C829.439 705.58 826.179 712.58 828.639 717.58C828.639 717.58 827.709 709 830.459 706.06L834.359 708.33C834.359 708.33 830.549 715.53 833.139 721.4C833.139 721.4 832.469 712.4 835.139 708.89L838.679 711.65C838.679 711.65 835.099 718.74 837.279 723.65C837.279 723.65 837.569 713.17 839.449 712.37C839.449 712.37 842.539 715.1 843.009 716.22C843.009 716.22 840.559 721.37 842.079 724.09C842.079 724.09 843.009 717.09 843.779 717.09C843.779 717.09 846.859 721.72 847.179 724.89C847.03 721.959 846.117 719.118 844.529 716.65C846.306 716.987 847.947 717.835 849.249 719.09C849.249 719.09 848.769 715.82 843.759 715.53C843.759 715.53 841.219 712.02 840.539 711.81C840.539 711.81 845.539 711.39 848.539 712.73C848.539 712.73 845.879 709.65 839.629 711.05L836.139 708.2C836.139 708.2 842.689 707.3 845.469 708.29C845.469 708.29 842.269 705.56 835.199 707.55L831.399 705.28C831.399 705.28 836.979 704.08 840.309 704.51C840.309 704.51 836.799 702.62 830.309 704.67L827.589 703.45C827.589 703.45 831.679 702.64 832.879 702.52C834.079 702.4 834.139 702.06 834.139 702.06C831.55 701.628 828.891 701.922 826.459 702.91C826.459 702.91 820.679 700.77 820.779 700.39Z" fill="#FF4568"/>
<path opacity="0.1" d="M843.4 733.29C856.241 733.29 866.65 731.531 866.65 729.36C866.65 727.19 856.241 725.43 843.4 725.43C830.56 725.43 820.15 727.19 820.15 729.36C820.15 731.531 830.56 733.29 843.4 733.29Z" fill="#6C63FF"/>
<path d="M131.901 511.16L131.531 515.08C131.531 515.08 151.241 508.66 150.241 500.77C149.241 492.88 150.241 493.77 150.241 493.77L134.401 495.11L131.901 511.16Z" fill="#4C4981"/>
<path d="M308.1 362.22C306.061 358.858 303.077 356.171 299.519 354.495C295.962 352.82 291.99 352.23 288.1 352.8V367.11H296.79L303.59 365.39L308.1 362.22Z" fill="#4C4981"/>
<path d="M202.371 368.08L201.161 367.51L197.761 371.39L200.541 377.32L205.281 375.42L204.181 370.68L202.371 368.08Z" fill="#4C4981"/>
<path opacity="0.1" d="M287.451 356.59L298.101 364.05C298.101 364.05 298.191 362.56 298.461 360.52C293.201 358.3 290.001 353.39 289.081 351.82C288.101 354.48 287.451 356.59 287.451 356.59Z" fill="black"/>
<path opacity="0.1" d="M271.801 395.72C271.801 395.72 268.741 407.1 270.701 408.32L271.801 395.72Z" fill="black"/>
<path opacity="0.1" d="M131.901 511.16L131.531 515.08C131.531 515.08 151.241 508.66 150.241 500.77C149.241 492.88 150.241 493.77 150.241 493.77L134.401 495.11L131.901 511.16Z" fill="black"/>
<path opacity="0.1" d="M258.651 398.88C256.638 400.59 254.266 401.824 251.711 402.49C252.451 402.33 253.138 401.986 253.711 401.49C255.121 400.49 256.461 399.4 257.821 398.34C258.921 397.48 260.291 396.05 261.641 395.7C260.757 396.861 259.755 397.927 258.651 398.88V398.88Z" fill="black"/>
<path opacity="0.1" d="M258.351 404.03C257.717 404.746 257.203 405.56 256.831 406.44C256.2 408.929 256.238 411.54 256.941 414.01L260.101 406.39C260.651 405.09 261.201 403.79 261.861 402.55C262.151 402.02 263.971 399.81 263.761 399.35C263.201 398.05 258.941 403.3 258.351 404.03Z" fill="black"/>
<path opacity="0.1" d="M170.18 446.23C168.025 445.969 166.011 445.027 164.43 443.54C167.68 443.95 170.76 445.23 173.96 445.9C176.931 446.59 180.045 446.303 182.84 445.08C179.16 446.88 174.1 446.94 170.18 446.23Z" fill="black"/>
<path opacity="0.1" d="M172.59 449.78C171.309 449.838 170.025 449.734 168.77 449.47C167.5 449.206 166.378 448.469 165.63 447.41C166.084 447.305 166.561 447.38 166.96 447.62C170.835 449.25 175.09 449.76 179.24 449.09C177.25 449.94 174.7 449.77 172.59 449.78Z" fill="black"/>
<path opacity="0.1" d="M121.29 447.73C118.523 445.394 115.041 444.074 111.42 443.99C113.74 444.39 116.18 444.9 117.88 446.52C118.548 447.222 119.147 447.985 119.67 448.8C120.25 449.63 124.97 455.63 125.67 454.68C126.84 453.29 122.24 448.54 121.29 447.73Z" fill="black"/>
<path opacity="0.1" d="M132.371 441.94C131.622 441.875 130.904 441.612 130.291 441.178C129.678 440.744 129.191 440.155 128.881 439.47C128.285 438.092 127.917 436.626 127.791 435.13C127.433 432.626 126.929 430.145 126.281 427.7C126.087 427.217 126.005 426.695 126.041 426.176C126.077 425.656 126.231 425.151 126.491 424.7C126.759 423.919 127.122 423.173 127.571 422.48C128.471 423.48 128.731 425.81 129.101 427.15C129.561 428.81 129.981 430.48 130.381 432.15C130.591 432.95 132.251 441.94 132.371 441.94Z" fill="black"/>
<path opacity="0.1" d="M308.1 362.22C306.061 358.858 303.077 356.171 299.519 354.495C295.962 352.82 291.99 352.23 288.1 352.8V367.11H296.79L303.59 365.39L308.1 362.22Z" fill="black"/>
<path opacity="0.1" d="M135.2 507.61C135.4 508.04 136.2 508.41 137.34 508.74C141.77 502.81 147.95 495.2 150.98 494.53L150.06 493.68C149.107 493.591 148.149 493.551 147.19 493.56C147.19 493.56 134.47 506.03 135.2 507.61Z" fill="black"/>
<path opacity="0.1" d="M170.021 468.53C186.291 469.05 222.141 469.7 223.741 465.53C224.1 464.47 224.289 463.36 224.301 462.24L171.151 465.04L170.021 468.53Z" fill="black"/>
<path opacity="0.1" d="M179.371 423.84C179.953 423.927 180.546 423.779 181.021 423.43C183.461 422.03 185.867 420.57 188.241 419.05C190.551 417.56 193.341 416.05 195.311 414.17C190.461 418.55 185.941 422.25 179.371 423.84Z" fill="black"/>
<path opacity="0.1" d="M151.711 525.84L153.791 530.24C153.791 530.24 154.081 531.55 154.451 533.63C154.822 533.583 155.17 533.426 155.451 533.18C158.511 530.73 176.451 512.27 177.341 495.88C177.971 483.79 177.671 473.37 177.471 468.73C177.411 467.27 177.351 466.39 177.351 466.2C177.351 466.2 163.411 449.32 165.001 443.34C166.591 437.36 170.261 405.34 170.261 405.34L170.801 401.14L171.731 394.04L173.951 376.86L171.651 377.4C171.261 377.936 170.792 378.412 170.261 378.81L167.881 393.92L159.621 403.02L158.271 458.42L162.071 468.32C162.071 468.32 165.161 468.46 169.981 468.61H170.451L151.711 525.84Z" fill="black"/>
<path opacity="0.1" d="M150.71 510.15C155.71 509.15 163.13 506.84 162.96 501.74C162.81 496.97 157.07 495.25 152.72 494.64C152.02 499.62 151.33 505.13 150.71 510.15Z" fill="black"/>
<path d="M101.01 457.62C101.64 454.099 102.005 450.536 102.1 446.96C102.1 442.67 107.93 438.87 107.93 438.87C107.93 438.87 111.53 430.54 113.93 429.31C116.33 428.08 123.74 417.18 123.74 417.18C123.825 415.03 124.608 412.966 125.97 411.3C128.19 408.382 130.218 405.322 132.04 402.14C133.04 400.92 132.54 400.06 134.04 392.95C134.12 392.58 134.21 392.22 134.32 391.88C134.32 391.72 134.42 391.58 134.48 391.42C132.888 389.823 131.779 387.81 131.278 385.612C130.778 383.414 130.906 381.119 131.65 378.99C131.92 378.144 132.41 377.384 133.07 376.79C134.76 375.41 137.46 375.98 139.2 374.67L137.35 366.49C136.91 364.49 136.68 361.96 138.43 360.88C139.087 360.569 139.778 360.337 140.49 360.19C143.49 359.19 145.23 356.02 146.01 352.97C146.76 350.032 146.963 346.982 146.61 343.97C146.27 341.07 145.42 338.25 145.11 335.34C144.546 329.958 145.841 324.544 148.78 320C149.923 318.039 151.607 316.449 153.63 315.42C155.48 314.59 157.63 314.42 159.36 313.42C163.08 311.05 162.89 305.42 165.86 302.19C168.83 298.96 174.09 298.97 178.42 300.08C182.75 301.19 187.06 303.08 191.5 302.61C194.36 302.29 197.04 300.99 199.91 300.69C200.731 300.612 201.559 300.649 202.37 300.8V300.71C204.49 301.09 206.44 302.27 206.94 304.28C207.052 304.758 207.099 305.249 207.08 305.74C207.08 306.91 206.8 308.13 206.78 309.25C206.743 309.695 206.796 310.143 206.935 310.567C207.074 310.991 207.297 311.383 207.59 311.72C208.16 312.33 209 312.65 209.59 313.28C209.831 313.521 210.019 313.808 210.145 314.125C210.27 314.441 210.33 314.78 210.32 315.12C210.32 316.9 208.1 318.47 206.61 319.19H206.55C206.95 319.59 207.35 320.01 207.72 320.44C211.992 325.264 214.347 331.487 214.34 337.93C214.304 343.134 212.747 348.215 209.862 352.546C206.977 356.878 202.889 360.271 198.1 362.31L198.31 362.96C198.731 364.246 199.222 365.508 199.78 366.74C200.815 366.392 201.913 366.275 202.998 366.395C204.082 366.516 205.128 366.873 206.06 367.44C208.92 369.44 214.51 369.28 216 368.91C217.49 368.54 233 366.58 234.25 367.07C235.5 367.56 237.97 365.36 239.58 368.3C241.19 371.24 241.94 372.83 243.58 373.57C245.22 374.31 248.05 376.63 247.67 377.12C247.29 377.61 251.77 380.55 251.77 380.55C251.77 380.55 255.62 384.55 257.85 385.08C260.08 385.61 264.8 388.64 264.8 388.64L270.27 392.92C270.27 392.92 274.36 393.54 273.12 390.72C271.88 387.9 275.36 384.35 275.36 384.35C275.36 384.35 282.31 370.26 282.31 367.35C282.31 364.44 288.02 352.03 288.02 352.03L288.72 351.96L289.04 351.05C290.09 348.1 291.45 344.48 292.49 342.36C294.49 338.31 295.72 337.89 295.72 337.89C295.72 337.89 319.8 319.81 335.44 325.32C351.08 330.83 306.89 347.25 302.92 348.97C301.53 349.57 300.53 351.51 299.83 353.78C303.353 355.479 306.319 358.146 308.38 361.47C308.38 361.47 298.82 382.66 298.57 387.93C298.32 393.2 291.99 407.93 291.99 407.93C291.99 407.93 289.63 418.84 276.85 418.22C276.85 418.22 259.22 421.46 255.37 418.22C251.52 414.98 248.05 412.44 246.18 412.07C244.805 411.618 243.596 410.765 242.71 409.62C242.71 409.62 248.54 446.37 251.4 449.56C254.26 452.75 279.53 494.01 270.46 501.39C263.277 506.952 255.685 511.966 247.75 516.39C246.98 516.77 244.67 512.92 241.37 510.19C241.37 510.88 241.37 511.58 241.37 512.32C241.31 527 239.37 549.32 236.69 554.32C232.69 561.67 234.33 575.88 234.33 575.88C232.227 576.87 229.943 577.418 227.62 577.49C227.5 577.97 227.36 578.49 227.23 578.99C225.04 587.26 221.49 600.05 219.68 603.45C216.95 608.6 214.97 624.9 214.97 624.9C214.97 624.9 213.35 640.9 213.97 643.15C214.21 644 213.16 650.66 211.51 659.15C212.51 670.64 214.41 692.79 214.73 700.8C214.73 700.95 214.73 701.1 214.73 701.24V701.38C214.725 701.47 214.725 701.56 214.73 701.65C214.73 701.83 214.73 701.99 214.73 702.14C214.761 702.644 214.741 703.15 214.67 703.65C214.546 704.413 214.604 705.194 214.84 705.93C215.548 708.145 216.448 710.293 217.53 712.35C217.986 713.361 218.387 714.396 218.73 715.45C219.73 715.89 220.95 716.96 221.63 719.57C222.87 724.35 224.73 737.57 224.73 737.57C224.73 737.57 225.48 745.66 226.96 747.5C228.44 749.34 229.96 760.85 219.39 762.32C208.82 763.79 204.25 756.72 204.25 756.72L204.62 724.64V724.58C204.407 724.31 204.222 724.019 204.07 723.71V723.63C204 723.48 203.92 723.32 203.85 723.14L203.76 722.9L203.6 722.51C203.606 722.464 203.606 722.417 203.6 722.37C202.574 719.297 202.267 716.03 202.7 712.82V712.66V712.41C202.7 712.33 202.7 712.24 202.7 712.16V711.66C202.7 711.6 202.7 711.53 202.7 711.47C202.7 711.257 202.68 711.037 202.64 710.81C202.64 710.81 202.64 710.73 202.64 710.69L202.58 710.3V710.13C202.58 710 202.58 709.87 202.5 709.73C202.504 709.697 202.504 709.663 202.5 709.63C202.4 709.17 202.28 708.63 202.15 708.19V708.08L202 707.6C201.85 707.09 201.68 706.6 201.5 706.06V705.96C201.5 705.8 201.39 705.64 201.33 705.49V705.43C201.15 704.94 200.96 704.43 200.78 704.01L200.73 703.88L200.57 703.48L200.52 703.36L200.14 702.47L197.21 711.52C197.21 711.52 195.59 718.26 196.46 719.85C197.33 721.44 195.46 728.06 194.23 728.18L195.38 736.51C196.002 741.103 196.372 745.727 196.49 750.36C196.57 750.89 196.65 751.36 196.71 751.68C197.51 755.95 195.59 762.57 195.59 762.57C185.79 774.16 174.11 763.47 174.11 763.47C174.11 763.47 172.75 757.34 174.11 756.12C175.47 754.9 174.86 750.48 174.86 750.48C174.86 750.48 174.24 739.57 174.12 731.61C174 723.65 180.63 716.61 180.63 716.61L181 716.94C182.21 713.82 183.59 710.18 183.3 708.55C182.8 705.73 184.67 675.96 184.67 675.96C183.979 667.979 183.832 659.961 184.23 651.96V651.96C184.07 650.61 183.92 649.28 183.77 647.96C183.02 641.56 182.41 636.09 182.17 633.22V632.88C182.11 632.11 182.08 631.56 182.09 631.3C182.09 630.3 182.09 629.16 181.99 627.91C181.76 624.47 181.22 620.64 181.22 620.64L178.62 604.83C178.62 604.83 176.62 597.11 173.77 592.83L173.43 592.29C173.32 592.1 173.21 591.89 173.09 591.67L173.04 591.58C172.93 591.37 172.81 591.15 172.7 590.92L172.65 590.83C172.25 590.04 171.82 589.13 171.37 588.13C171.37 588.05 171.3 587.98 171.27 587.9L170.93 587.14C170.93 587.04 170.85 586.94 170.8 586.84C170.75 586.74 170.59 586.33 170.48 586.08C170.431 585.979 170.387 585.876 170.35 585.77C170.22 585.47 170.08 585.16 169.95 584.84L169.76 584.38C169.67 584.15 169.57 583.92 169.47 583.69L169.23 583.08C169.16 582.93 169.1 582.78 169.04 582.63L168.77 581.94C168.77 581.84 168.68 581.73 168.64 581.63C167.93 579.86 167.25 578.11 166.64 576.52C166.45 576.02 166.26 575.52 166.09 575.08C159.73 575.47 155.41 575.82 155.41 575.82C155.41 575.82 153.41 561.49 154.05 552.06C154.47 545.62 153.27 537.52 152.48 533.06C152.39 532.57 152.31 532.13 152.23 531.73L152.06 531.87C148.95 534.32 146.72 526.23 146.72 526.23C146.72 526.23 147.56 518.68 148.72 509.53L148.84 508.62C147.048 509.002 145.235 509.28 143.41 509.45C143.41 509.45 142.41 509.36 141.04 509.19C137.25 511.384 133.25 513.193 129.1 514.59L122.49 502.39C121.248 499.861 119.793 497.442 118.14 495.16C116.14 492.71 109.08 484.87 109.2 483.4C109.32 481.93 106.84 473.47 104.36 469.67C101.88 465.87 100.89 458.23 101.01 457.62ZM128.57 466.93C131.18 468.03 133.66 474.16 133.78 476C133.9 477.84 136.64 485.92 139.49 486.9C142.12 487.8 147.14 492.42 147.94 493.16C148.76 493.23 149.69 493.34 150.66 493.5C151.75 485.77 152.83 479.37 153.52 478.08C155.52 474.4 151.33 462.64 151.33 462.64C151.33 462.64 150.92 450.76 148.33 447.94C145.74 445.12 146.33 438.01 146.33 438.01C146.33 438.01 145.71 435.07 145.46 433.73C145.21 432.39 141.77 433.73 141.74 433.73C141.74 433.73 135.04 437.4 134.04 442.91C133.04 448.42 125.72 457.98 125.72 457.98C125.72 457.98 126.84 461.29 125.72 462.98C124.6 464.67 125.96 465.83 128.57 466.93V466.93Z" fill="url(#paint0_linear)"/>
<path d="M166.02 570.6C166.02 570.6 172.62 589.06 175.44 593.34C178.26 597.62 180.2 605.34 180.2 605.34L182.77 621.11C183.271 624.636 183.559 628.189 183.63 631.75C183.51 635.3 189.99 687.02 189.99 687.02L200.26 700.11C200.26 700.11 204.78 709.28 204.05 713.11C203.32 716.94 204.54 723.02 206.05 724.85C206.05 724.85 206.29 736.85 206.66 739.52C207.03 742.19 205.31 749.8 206.66 751.14C208.01 752.48 225.98 751.88 226.47 749.67C226.96 747.46 224.27 736.83 224.27 736.83L222.68 726.56C222.68 726.56 219.5 720.94 220.23 719.1C220.96 717.26 218.89 712.99 218.77 712.62C218.65 712.25 215.34 706.26 215.95 703.94C216.56 701.62 212.1 652.28 212.1 652.28L199.51 563.87L166.02 570.6Z" fill="#AE6E79"/>
<path opacity="0.1" d="M170.911 354.76C172.001 357.38 170.381 352.62 170.911 354.76C175.271 357.86 185.541 366.69 191.311 366.69C195.211 366.69 196.381 365.98 199.721 364.47C198.71 361.305 197.99 358.055 197.571 354.76C197.571 354.76 162.961 335.68 170.911 354.76Z" fill="black"/>
<path opacity="0.1" d="M158.31 456.87L162.11 466.78C162.11 466.78 165.2 466.91 170.02 467.06C186.29 467.58 222.14 468.24 223.74 464.06C224.099 463 224.288 461.889 224.3 460.77C224.51 454.4 221.54 444.62 221.54 444.62C221.54 444.62 219.83 425.05 219.83 424.2C219.83 423.35 221.3 409.64 221.3 409.64L218.36 398.64L210.17 392.89C210.17 392.89 206.5 398.52 204.3 399C202.1 399.48 199.16 402.19 199.16 402.19C199.16 402.19 191.95 406.59 189.62 404.14C187.29 401.69 169.2 390.93 169.2 390.93L159.66 401.45L158.31 456.87Z" fill="black"/>
<path opacity="0.1" d="M166.02 570.6C166.02 570.6 167.02 573.38 168.39 577.03C175.14 576.62 184.08 576.19 192.57 576.13C195.57 576.13 198.51 576.13 201.29 576.23C207.19 576.41 212.29 576.89 215.54 577.81C219.649 579.075 223.944 579.63 228.24 579.45C229.34 575.22 230.1 572.18 230.1 572.18C230.1 572.18 211.62 570.63 200.41 570.09L199.53 563.87L166.02 570.6Z" fill="black"/>
<path opacity="0.1" d="M203.31 373.82C203.31 373.82 203.07 385.08 204.9 390.22C205.48 391.82 206.38 394.77 207.36 398.08C208.43 401.75 209.6 405.86 210.5 409.08C211.4 412.3 212 414.46 212 414.46C212 414.46 216.13 448.1 217.2 464.13C217.2 464.41 217.2 464.7 217.26 464.97C217.32 465.87 217.42 466.81 217.57 467.78C219.95 483.7 233.68 508.25 238.29 510.21C239.727 510.87 241.04 511.773 242.17 512.88C242.17 506.11 241.83 500.98 240.98 499.94C238.29 496.64 226.8 463.62 226.8 463.62L224.18 463.76C224.24 463.3 224.28 462.76 224.3 462.29C224.51 455.92 221.54 446.14 221.54 446.14C221.54 446.14 219.83 426.57 219.83 425.72C219.83 424.87 221.3 411.16 221.3 411.16L218.36 400.16L212.73 396.22C212.03 387.73 210.36 377.42 206.37 374.61C204.372 373.046 202.777 371.026 201.72 368.72C200.93 368.83 202.37 368.13 202.37 368.13L203.31 373.82Z" fill="black"/>
<path opacity="0.1" d="M136.7 392.57C137.193 393.215 137.76 393.799 138.39 394.31C140.39 395.9 143.04 397.24 143.29 399.75C143.22 400.566 143.322 401.387 143.59 402.16C144.23 403.26 145.8 403.16 147.05 402.95C148.105 402.855 149.116 402.482 149.98 401.87C151.29 400.75 151.41 398.75 152.41 397.34C153.018 396.612 153.785 396.034 154.652 395.651C155.519 395.268 156.463 395.09 157.41 395.13C159.28 395.07 161.14 395.49 163.01 395.57C164.212 395.631 165.417 395.55 166.6 395.33C166.991 395.27 167.378 395.19 167.76 395.09C168.596 394.884 169.412 394.607 170.2 394.26C170.608 394.098 171.005 393.911 171.39 393.7C172.642 393.057 173.802 392.25 174.84 391.3C176.67 389.62 178.19 387.3 178.04 384.81C177.95 383.28 177.26 381.87 177.04 380.36C176.29 376.04 179.16 371.96 182.27 368.87C183.51 367.64 184.83 366.45 186.07 365.2C188.001 363.419 189.525 361.243 190.54 358.82C191.374 356.241 191.647 353.513 191.34 350.82C191.059 348.09 190.982 345.342 191.11 342.6C192.03 332.88 200.33 325.43 208.63 321.38L209 321.19C206.538 318.364 203.507 316.09 200.106 314.515C196.705 312.94 193.01 312.1 189.262 312.05C185.514 312 181.798 312.742 178.356 314.226C174.914 315.71 171.824 317.903 169.288 320.662C166.751 323.422 164.825 326.685 163.635 330.24C162.446 333.794 162.019 337.559 162.384 341.29C162.748 345.02 163.896 348.631 165.751 351.888C167.606 355.145 170.127 357.974 173.15 360.19C173.24 360.5 173.32 360.81 173.39 361.11C175.31 368.79 174.04 373.45 172.61 376.02C172.22 376.11 158.5 379.21 156.69 381.02C154.88 382.83 143.69 385.42 143.69 385.42C141.989 385.873 140.442 386.776 139.212 388.034C137.982 389.293 137.114 390.86 136.7 392.57V392.57Z" fill="black"/>
<path d="M287.45 356.59L298.1 364.05C298.1 364.05 298.19 362.56 298.46 360.52C298.99 356.66 300.18 350.87 302.75 349.75C306.66 348.03 350.19 331.65 334.75 326.14C319.31 320.63 295.62 338.69 295.62 338.69C295.62 338.69 294.4 339.11 292.45 343.14C291.45 345.26 290.08 348.87 289.05 351.82C288.1 354.48 287.45 356.59 287.45 356.59Z" fill="#AE6E79"/>
<path d="M218.481 715.39C218.481 715.39 221.54 715.03 222.76 719.8C223.98 724.57 225.82 737.8 225.82 737.8C225.82 737.8 226.551 745.87 228.021 747.71C229.491 749.55 230.951 761.04 220.561 762.5C210.171 763.96 205.641 756.91 205.641 756.91L206.01 724.84L218.481 715.39Z" fill="#444053"/>
<path d="M182.22 716.83C182.22 716.83 175.68 723.83 175.8 731.77C175.92 739.71 176.54 750.6 176.54 750.6C176.54 750.6 177.14 755.01 175.8 756.23C174.46 757.45 175.8 763.57 175.8 763.57C175.8 763.57 187.3 774.24 196.96 762.67C196.96 762.67 198.841 756.06 198.061 751.8C197.281 747.54 195.1 728.39 195.1 728.39L182.22 716.83Z" fill="#444053"/>
<path opacity="0.1" d="M166.02 570.6C166.02 570.6 167.02 573.38 168.39 577.03C170.57 582.79 173.71 590.72 175.44 593.34C178.25 597.62 180.21 605.34 180.21 605.34L182.78 621.12C183.276 624.646 183.56 628.2 183.63 631.76C183.63 633.16 184.57 642.09 185.77 652.38C187.62 668.11 189.99 687.03 189.99 687.03L200.26 700.12C200.26 700.12 200.78 701.12 201.43 702.7C202.72 705.7 204.54 710.57 204.05 713.08C203.32 716.87 204.54 722.98 206.05 724.82C206.05 724.82 206.3 736.82 206.66 739.49C207.02 742.16 205.31 749.76 206.66 751.11C208.01 752.46 225.98 751.85 226.47 749.65C226.96 747.45 224.27 736.81 224.27 736.81L222.68 726.53C222.68 726.53 219.5 720.91 220.24 719.07C220.98 717.23 218.89 712.96 218.77 712.59C218.65 712.22 215.34 706.23 215.95 703.91C216.42 702.14 213.95 673.17 212.8 659.43C212.41 655.11 212.16 652.3 212.16 652.3L201.33 576.24L200.45 570.11L199.57 563.89L166.02 570.6Z" fill="black"/>
<path d="M177.021 754.51C176.911 755.86 194.271 757.82 196.751 756.35C199.231 754.88 196.751 736.66 196.751 736.66L195.621 728.35C196.831 728.22 198.671 721.62 197.821 720.03C196.971 718.44 198.551 711.72 198.551 711.72L201.431 702.72L203.191 697.21C206.051 690.9 210.191 672.9 212.761 659.46C214.381 651.02 215.411 644.37 215.181 643.52C214.571 641.32 216.181 625.3 216.181 625.3C216.181 625.3 218.181 609.03 220.821 603.9C222.611 600.5 226.101 587.73 228.261 579.49C229.361 575.26 230.121 572.22 230.121 572.22C230.121 572.22 211.641 570.67 200.431 570.13C195.281 569.88 191.661 569.85 192.081 570.27C192.501 570.69 192.611 572.93 192.591 576.17C192.541 584.56 191.371 599.32 190.131 603.29C188.421 608.79 186.711 625.29 187.441 626.89C188.171 628.49 187.931 639.12 187.931 639.12C186.671 643.439 185.946 647.895 185.771 652.39C185.38 660.354 185.52 668.335 186.191 676.28C186.191 676.28 184.361 706 184.851 708.81C185.341 711.62 180.941 720.43 180.941 722.14C180.941 723.85 179.721 735.47 179.721 735.47C179.721 735.47 177.101 753.17 177.021 754.51Z" fill="#AE6E79"/>
<path d="M167.37 397.31L169.47 399.58L170.84 401.06L178.84 409.66L199.51 411.99L210.51 409.05L213.23 408.32C213.23 408.32 213.23 402.8 212.74 396.18C212.04 387.69 210.37 377.38 206.38 374.57C204.382 373.006 202.788 370.987 201.73 368.68C200.932 367.09 200.264 365.438 199.73 363.74C199.65 363.52 199.59 363.31 199.52 363.09C198.621 360.127 197.972 357.093 197.58 354.02C197.58 354.02 194.94 352.56 191.27 350.86C181.7 346.39 165.17 340.22 170.92 354.02C171.766 356.041 172.487 358.112 173.08 360.22C173.17 360.53 173.25 360.84 173.32 361.14C175.24 368.82 173.97 373.48 172.54 376.05C172.299 376.495 172.021 376.92 171.71 377.32C171.32 377.857 170.851 378.332 170.32 378.73L167.94 393.84L167.74 395.09L167.37 397.31Z" fill="#AE6E79"/>
<path d="M162.1 338.69C162.105 345.276 164.546 351.627 168.953 356.521C173.36 361.415 179.421 364.506 185.97 365.2C186.89 365.29 187.82 365.35 188.76 365.35C194.033 365.35 199.187 363.786 203.571 360.857C207.956 357.927 211.373 353.764 213.391 348.892C215.408 344.021 215.936 338.66 214.908 333.489C213.879 328.317 211.34 323.567 207.611 319.838C203.883 316.11 199.133 313.571 193.961 312.542C188.789 311.513 183.429 312.041 178.558 314.059C173.686 316.077 169.522 319.494 166.593 323.878C163.664 328.263 162.1 333.417 162.1 338.69V338.69Z" fill="#AE6E79"/>
<path d="M219.119 446.86L219.118 446.857L219.118 446.857L219.118 446.856L219.118 446.856L219.043 446.607L219.02 446.348L221.511 446.13C219.02 446.348 219.02 446.348 219.02 446.348L219.02 446.347L219.02 446.344L219.019 446.334L219.015 446.291L219.001 446.128L218.947 445.505C218.9 444.968 218.833 444.199 218.753 443.275C218.592 441.427 218.379 438.953 218.165 436.452C217.951 433.952 217.737 431.422 217.576 429.464C217.424 427.606 217.301 426.058 217.301 425.71C217.301 425.338 217.414 424.137 217.542 422.833C217.681 421.42 217.865 419.621 218.049 417.853C218.233 416.084 218.417 414.341 218.555 413.042C218.624 412.392 218.681 411.853 218.722 411.476L218.735 411.347L216.151 401.676L211.267 398.258L211.263 398.255L210.732 397.882C210.265 398.494 209.781 399.093 209.28 399.677C208.233 401.056 206.845 402.139 205.253 402.819L205.039 402.911L204.812 402.961C204.255 403.084 203.332 403.598 202.346 404.318C201.9 404.644 201.512 404.958 201.235 405.192C201.097 405.308 200.989 405.402 200.918 405.465C200.883 405.496 200.857 405.52 200.841 405.534L200.825 405.549L200.825 405.549L200.824 405.549L200.824 405.549L200.823 405.55L200.823 405.551L200.643 405.716L200.433 405.844L199.131 403.71C200.433 405.844 200.433 405.844 200.432 405.845L200.431 405.845L200.428 405.847L200.421 405.851L200.399 405.865C200.38 405.876 200.355 405.891 200.324 405.91C200.26 405.947 200.171 406 200.059 406.064C199.835 406.192 199.517 406.369 199.13 406.573C198.364 406.975 197.293 407.497 196.121 407.942C194.976 408.376 193.592 408.791 192.233 408.883C190.921 408.972 189.113 408.785 187.779 407.383L187.775 407.379C187.543 407.134 186.751 406.508 185.346 405.535C184.024 404.619 182.355 403.526 180.563 402.383C176.982 400.1 172.983 397.662 170.448 396.13L170.44 396.125C170.159 395.954 169.895 395.794 169.653 395.648L162.108 403.961L160.822 457.956L163.856 465.861C164.012 465.867 164.179 465.874 164.356 465.881C165.718 465.934 167.675 466.006 170.059 466.08H170.491H170.533L170.575 466.082C172.647 466.151 175.015 466.221 177.54 466.271L177.549 466.271C190.532 466.572 208.116 466.64 217.174 465.297L217.187 465.295C218.876 465.054 220.143 464.776 220.98 464.487C221.21 464.408 221.379 464.337 221.498 464.28C221.576 464 221.634 463.714 221.672 463.425C221.719 463.062 221.754 462.604 221.772 462.186C221.864 459.333 221.236 455.559 220.528 452.356C220.18 450.782 219.826 449.399 219.558 448.411C219.425 447.918 219.313 447.524 219.236 447.256C219.197 447.122 219.167 447.02 219.147 446.952L219.125 446.877L219.119 446.86ZM221.727 464.152C221.726 464.152 221.721 464.156 221.712 464.163C221.722 464.156 221.727 464.152 221.727 464.152Z" fill="#FDCA05" stroke="black" stroke-width="5"/>
<path d="M250.03 381.91L252.35 381.29C252.35 381.29 256.15 385.29 258.35 385.82C260.55 386.35 265.19 389.36 265.19 389.36L270.58 393.64C270.58 393.64 274.58 394.26 273.39 391.44C272.2 388.62 275.59 385.08 275.59 385.08C275.59 385.08 282.44 371.02 282.44 368.08C282.44 365.14 288.1 352.8 288.1 352.8C288.1 352.8 295.2 366.62 308.16 362.22C308.16 362.22 298.74 383.37 298.5 388.63C298.26 393.89 292.02 408.56 292.02 408.56C292.02 408.56 289.69 419.45 277.1 418.84C277.1 418.84 259.73 422.07 255.94 418.84C252.15 415.61 248.73 413.07 246.94 412.7C245.15 412.33 243.52 410.26 243.52 410.26V395.72L250.03 381.91Z" fill="#032B4D"/>
<path d="M151.71 525.84L153.79 530.24C153.79 530.24 154.08 531.55 154.45 533.63C155.23 538.11 156.45 546.19 155.99 552.63C155.38 562.05 157.34 576.35 157.34 576.35C157.34 576.35 202.34 572.56 215.54 576.35C228.74 580.14 235.24 576.35 235.24 576.35C235.24 576.35 233.64 562.17 237.56 554.83C240.23 549.83 242.11 527.51 242.17 512.83C242.17 506.06 241.83 500.93 240.98 499.89C238.29 496.59 226.8 463.57 226.8 463.57L224.18 463.71L217.18 464.08L177.38 466.18L171.13 466.51L170.47 468.51L151.71 525.84Z" fill="#6B212F"/>
<path opacity="0.1" d="M195.751 506.56C198.297 507.328 200.914 507.84 203.561 508.09C205.622 508.185 207.686 508.145 209.741 507.97L219.741 507.34L224.741 507.02C225.331 507.02 227.741 507.02 226.551 505.83C225.951 505.25 222.611 505.62 221.751 505.59C220.091 505.537 218.425 505.507 216.751 505.5C213.441 505.5 210.121 505.5 206.811 505.7C203.101 505.88 199.451 506.16 195.751 506.56Z" fill="black"/>
<path opacity="0.1" d="M207.34 511.51C209.04 511.44 211.23 512.45 212.98 512.67C214.938 512.902 216.91 512.978 218.88 512.9C222.778 512.807 226.627 512.021 230.25 510.58C222.62 510.97 214.97 511.2 207.34 511.51Z" fill="black"/>
<path opacity="0.1" d="M228.76 516.75C228.02 516.9 227.292 517.1 226.58 517.35C222.36 518.55 217.87 517.49 213.58 516.43C214.65 518.04 216.58 518.73 218.51 519.17C221.649 519.966 224.921 520.085 228.11 519.52C229.11 519.32 231.62 518.96 232.11 517.92C232.93 516.39 229.7 516.6 228.76 516.75Z" fill="black"/>
<path opacity="0.1" d="M205.101 524.64C203.835 524.899 202.586 525.233 201.361 525.64C196.611 526.82 191.681 525.2 186.911 524.11C181.177 522.808 175.296 522.263 169.421 522.49C170.471 522.49 172.141 523.41 173.171 523.72C174.521 524.13 175.891 524.51 177.261 524.85C179.951 525.51 182.681 526.05 185.431 526.44C190.982 527.243 196.6 527.487 202.201 527.17C204.761 527.03 209.201 527.29 211.391 526C209.498 524.875 207.289 524.398 205.101 524.64Z" fill="black"/>
<path d="M201.16 367.51C202.18 367.161 203.264 367.043 204.334 367.164C205.405 367.285 206.435 367.642 207.35 368.21C210.17 370.21 215.67 370.04 217.14 369.68C218.61 369.32 233.89 367.35 235.14 367.84C236.39 368.33 238.81 366.13 240.4 369.07C241.99 372.01 242.721 373.59 244.311 374.32C245.901 375.05 248.721 377.38 248.311 377.87C247.901 378.36 252.311 381.29 252.311 381.29L243.39 410.29C243.39 410.29 249.14 446.97 251.95 450.15C254.76 453.33 279.71 494.54 270.78 501.88C263.711 507.439 256.229 512.453 248.4 516.88C247.4 517.37 243.881 510.77 238.991 508.69C234.101 506.61 218.931 479.09 217.991 463.44C217.051 447.79 212.73 412.94 212.73 412.94C212.73 412.94 207.47 393.86 205.64 388.72C203.81 383.58 204.051 372.32 204.051 372.32L201.16 367.51Z" fill="#032B4D"/>
<path d="M144.01 434.39C144.01 434.39 147.43 433.04 147.67 434.39C147.91 435.74 148.53 438.66 148.53 438.66C148.53 438.66 147.92 445.76 150.53 448.57C153.14 451.38 153.53 463.24 153.53 463.24C153.53 463.24 157.65 474.98 155.7 478.65C154.99 479.98 153.89 486.65 152.79 494.65C152.09 499.65 151.4 505.14 150.79 510.16C149.68 519.28 148.85 526.83 148.85 526.83C148.85 526.83 151.06 534.9 154.12 532.45C157.18 530 175.12 511.54 176 495.15C176.6 483.64 176.36 473.64 176.16 468.71C176.08 466.62 176 465.44 176 465.44C176 465.44 162.06 448.56 163.65 442.57C165.24 436.58 168.91 404.57 168.91 404.57L169.55 399.62L170.24 394.3L170.4 393.13L172.61 376.13C172.22 376.22 158.5 379.32 156.69 381.13C154.88 382.94 143.69 385.53 143.69 385.53C142.002 385.988 140.468 386.89 139.248 388.142C138.027 389.394 137.165 390.951 136.75 392.65C136.64 392.99 136.56 393.35 136.48 393.72C135.01 400.82 135.48 401.67 134.48 402.9C133.48 404.13 144.01 434.39 144.01 434.39Z" fill="#032B4D"/>
<path d="M135.2 507.61C135.4 508.04 136.2 508.41 137.34 508.74C140.015 509.376 142.732 509.821 145.47 510.07C145.47 510.07 162.47 508.72 162.23 501.01C162.05 495.48 154.37 494.01 150.06 493.68C149.106 493.591 148.148 493.551 147.19 493.56C147.19 493.56 134.47 506.03 135.2 507.61Z" fill="#AE6E79"/>
<path d="M139.48 402.08L134.48 402.82C132.675 406 130.671 409.063 128.48 411.99C127.137 413.66 126.365 415.718 126.28 417.86C126.28 417.86 118.94 428.74 116.62 429.96C114.3 431.18 110.75 439.5 110.75 439.5C110.75 439.5 105 443.29 105 447.57C104.898 451.139 104.531 454.696 103.9 458.21C103.77 458.82 104.75 466.41 107.2 470.21C109.65 474.01 112.1 482.39 111.97 483.89C111.84 485.39 118.82 493.19 120.77 495.63C122.398 497.912 123.83 500.327 125.05 502.85L131.53 515.08C131.53 515.08 145.23 494.9 150.24 493.8C150.24 493.8 144.62 488.42 141.81 487.44C139 486.46 136.3 478.44 136.18 476.56C136.06 474.68 133.61 468.61 131.05 467.56C128.49 466.51 127.13 465.36 128.23 463.64C129.33 461.92 128.23 458.64 128.23 458.64C128.23 458.64 135.45 449.1 136.43 443.64C137.41 438.18 144.01 434.47 144.01 434.47L147.8 425.17L139.48 402.08Z" fill="#032B4D"/>
<path d="M210.761 314.14C210.211 313.51 209.381 313.19 208.821 312.58C207.091 310.7 208.821 307.63 208.191 305.15C207.511 302.4 204.131 301.2 201.311 301.49C198.491 301.78 195.851 303.08 193.031 303.4C188.651 303.89 184.411 301.99 180.141 300.88C175.871 299.77 170.711 299.71 167.771 302.98C164.831 306.25 165.031 311.82 161.371 314.19C159.681 315.28 157.551 315.4 155.721 316.19C153.718 317.218 152.058 318.805 150.941 320.76C148.044 325.31 146.768 330.704 147.321 336.07C147.631 338.97 148.471 341.79 148.811 344.69C149.156 347.701 148.953 350.751 148.211 353.69C147.441 356.69 145.771 359.93 142.781 360.89C142.09 361.042 141.419 361.273 140.781 361.58C139.051 362.66 139.281 365.2 139.721 367.18L141.501 375.39C139.791 376.69 137.131 376.13 135.501 377.5C134.848 378.096 134.365 378.856 134.101 379.7C133.297 381.996 133.21 384.482 133.851 386.829C134.492 389.175 135.831 391.272 137.691 392.84C139.691 394.43 142.341 395.77 142.591 398.27C142.515 399.085 142.617 399.908 142.891 400.68C143.521 401.78 145.101 401.68 146.351 401.47C147.402 401.373 148.41 401.001 149.271 400.39C150.591 399.27 150.701 397.27 151.701 395.86C152.31 395.133 153.077 394.556 153.944 394.173C154.811 393.79 155.754 393.611 156.701 393.65C158.581 393.59 160.431 394.01 162.311 394.1C166.647 394.278 170.88 392.748 174.101 389.84C175.941 388.15 177.451 385.84 177.311 383.34C177.221 381.82 176.531 380.4 176.311 378.89C175.571 374.58 178.431 370.49 181.541 367.4C184.651 364.31 188.301 361.46 189.821 357.35C191.721 352.26 189.881 346.58 190.391 341.18C191.311 331.45 199.601 324.01 207.911 319.95C209.761 319 212.911 316.59 210.761 314.14Z" fill="#151515"/>
<path opacity="0.1" d="M145.36 398.12C146.68 396.99 146.79 395 147.79 393.59C148.399 392.863 149.166 392.285 150.033 391.9C150.899 391.515 151.843 391.334 152.79 391.37C154.67 391.31 156.53 391.73 158.4 391.82C162.752 392.011 167.004 390.477 170.23 387.55C172.07 385.87 173.57 383.55 173.43 381.06C173.34 379.53 172.65 378.11 172.43 376.61C171.68 372.29 174.55 368.2 177.66 365.11C180.77 362.02 184.41 359.17 185.94 355.06C187.83 349.98 185.94 344.3 186.5 338.89C187.43 329.16 195.72 321.72 204.02 317.66C205.96 316.71 209.11 314.3 206.96 311.85C206.42 311.22 205.59 310.9 205.03 310.29C203.3 308.42 205.03 305.34 204.39 302.87C204.267 302.378 204.054 301.914 203.76 301.5C205.85 301.89 207.76 303.07 208.27 305.07C208.88 307.55 207.17 310.62 208.9 312.5C209.46 313.11 210.29 313.43 210.84 314.05C212.99 316.5 209.84 318.92 207.9 319.86C199.59 323.92 191.3 331.37 190.38 341.09C189.87 346.5 191.71 352.18 189.81 357.27C188.29 361.37 184.64 364.27 181.53 367.32C178.42 370.37 175.53 374.49 176.3 378.81C176.722 380.272 177.056 381.758 177.3 383.26C177.44 385.75 175.93 388.07 174.09 389.75C170.868 392.678 166.619 394.213 162.27 394.02C160.39 393.93 158.54 393.52 156.66 393.57C155.713 393.534 154.77 393.716 153.903 394.101C153.037 394.486 152.269 395.063 151.66 395.79C150.66 397.2 150.55 399.2 149.23 400.32C148.368 400.927 147.361 401.296 146.31 401.39C145.06 401.62 143.48 401.7 142.85 400.61C142.626 400.165 142.529 399.667 142.57 399.17C143.576 399.071 144.539 398.709 145.36 398.12V398.12Z" fill="black"/>
<path d="M346.206 325H299.828V279.299H346.239L346.206 325ZM345.535 256.094H300.498C300.498 185.075 368.003 189.226 368.003 144.296C368.003 119.548 347.748 99.7219 323 99.7219C298.252 99.7219 278.003 121.097 278.003 145H233C232.98 133.175 235.294 121.463 239.81 110.535C244.325 99.6061 250.954 89.6765 259.315 81.3152C267.677 72.9539 277.606 66.3253 288.535 61.8096C299.463 57.2939 311.175 54.9798 323 55.0001C372.71 55.0001 413 94.6596 413 144.296C413 200.476 345.502 206.873 345.502 256.094H345.535Z" fill="#FDCA05"/>
<path d="M346.206 325H299.828V279.299H346.239L346.206 325ZM345.535 256.094H300.498C300.498 185.075 368.003 189.226 368.003 144.296C368.003 119.548 347.748 99.7219 323 99.7219C298.252 99.7219 278.003 121.097 278.003 145H233C232.98 133.175 235.294 121.463 239.81 110.535C244.325 99.6061 250.954 89.6765 259.315 81.3152C267.677 72.9539 277.606 66.3253 288.535 61.8096C299.463 57.2939 311.175 54.9798 323 55.0001C372.71 55.0001 413 94.6596 413 144.296C413 200.476 345.502 206.873 345.502 256.094H345.535Z" fill="#032B4D"/>
<path d="M357.206 325H310.828V279.299H357.239L357.206 325ZM356.535 256.094H311.498C311.498 185.075 379.003 189.226 379.003 144.296C379.003 119.548 358.748 99.7219 334 99.7219C309.252 99.7219 289.003 121.097 289.003 145H244C243.98 133.175 246.294 121.463 250.81 110.535C255.325 99.6061 261.954 89.6765 270.315 81.3152C278.677 72.9539 288.606 66.3253 299.535 61.8096C310.463 57.2939 322.175 54.9798 334 55.0001C383.71 55.0001 424 94.6596 424 144.296C424 200.476 356.502 206.873 356.502 256.094H356.535Z" fill="#FDCA05"/>
<path d="M357.206 325H310.828V279.299H357.239L357.206 325ZM356.535 256.094H311.498C311.498 185.075 379.003 189.226 379.003 144.296C379.003 119.548 358.748 99.7219 334 99.7219C309.252 99.7219 289.003 121.097 289.003 145H244C243.98 133.175 246.294 121.463 250.81 110.535C255.325 99.6061 261.954 89.6765 270.315 81.3152C278.677 72.9539 288.606 66.3253 299.535 61.8096C310.463 57.2939 322.175 54.9798 334 55.0001C383.71 55.0001 424 94.6596 424 144.296C424 200.476 356.502 206.873 356.502 256.094H356.535Z" fill="#FDCA05"/>
<path d="M388.22 440.8H370.38V423.23H388.22V440.8ZM387.96 414.31H370.66C370.66 387 396.61 388.6 396.61 371.31C396.601 369.048 396.146 366.81 395.271 364.725C394.397 362.639 393.12 360.746 391.513 359.154C389.906 357.562 388.001 356.303 385.908 355.447C383.814 354.592 381.572 354.158 379.31 354.17C374.722 354.253 370.347 356.117 367.109 359.368C363.871 362.619 362.024 367.002 361.96 371.59H344.66C344.775 362.511 348.453 353.84 354.902 347.448C361.35 341.055 370.052 337.453 379.132 337.418C388.212 337.382 396.942 340.917 403.441 347.258C409.939 353.6 413.684 362.242 413.87 371.32C413.9 392.92 387.96 395.39 387.96 414.31Z" fill="white"/>
<path opacity="0.1" d="M691.2 242.04H683.89V234.84H691.2V242.04ZM691.09 231.19H683.96C683.96 220.01 694.59 220.66 694.59 213.58C694.59 212.654 694.406 211.737 694.05 210.883C693.693 210.028 693.17 209.253 692.512 208.602C691.853 207.951 691.072 207.437 690.213 207.09C689.355 206.743 688.436 206.57 687.51 206.58C685.635 206.619 683.848 207.384 682.525 208.714C681.203 210.044 680.448 211.835 680.42 213.71H673.33C673.413 210.015 674.935 206.498 677.573 203.909C680.211 201.319 683.755 199.862 687.452 199.848C691.148 199.833 694.704 201.263 697.361 203.832C700.019 206.401 701.569 209.906 701.68 213.6C701.72 222.39 691.09 223.44 691.09 231.19Z" fill="#6C63FF"/>
<path opacity="0.1" d="M802.961 569.51H795.651V562.31H802.961V569.51ZM802.851 558.66H795.761C795.761 547.47 806.401 548.13 806.401 541.05C806.388 539.182 805.634 537.395 804.304 536.083C802.975 534.77 801.179 534.039 799.311 534.05C797.435 534.086 795.647 534.85 794.323 536.181C793 537.511 792.246 539.304 792.221 541.18H785.131C785.214 537.485 786.736 533.968 789.374 531.378C792.012 528.789 795.556 527.332 799.252 527.317C802.949 527.303 806.504 528.733 809.162 531.301C811.82 533.87 813.369 537.375 813.481 541.07C813.521 549.9 802.891 550.91 802.891 558.66H802.851Z" fill="#6C63FF"/>
<path d="M520.15 229.28L521.14 237.74C516.16 239.3 509.8 240.08 502.06 240.08C492.76 240.08 486.22 237.68 482.44 232.88C478.66 228.08 476.77 219.77 476.77 207.95C476.77 196.13 478.66 187.82 482.44 183.02C486.22 178.22 492.76 175.82 502.06 175.82C508.96 175.82 514.9 176.48 519.88 177.8L518.8 186.35C513.58 185.93 508 185.72 502.06 185.72C496.9 185.72 493.36 187.31 491.44 190.49C489.58 193.61 488.65 199.43 488.65 207.95C488.65 216.47 489.58 222.32 491.44 225.5C493.36 228.62 496.9 230.18 502.06 230.18C509.68 230.18 515.71 229.88 520.15 229.28ZM550.041 193.64C557.961 193.64 563.541 195.41 566.781 198.95C570.081 202.49 571.731 208.49 571.731 216.95C571.731 225.41 570.081 231.41 566.781 234.95C563.541 238.43 557.961 240.17 550.041 240.17C542.061 240.17 536.421 238.43 533.121 234.95C529.821 231.41 528.171 225.41 528.171 216.95C528.171 208.49 529.821 202.49 533.121 198.95C536.421 195.41 542.061 193.64 550.041 193.64ZM550.041 202.37C545.961 202.37 543.201 203.39 541.761 205.43C540.321 207.41 539.601 211.25 539.601 216.95C539.601 222.59 540.321 226.43 541.761 228.47C543.201 230.45 545.961 231.44 550.041 231.44C554.001 231.44 556.701 230.45 558.141 228.47C559.641 226.43 560.391 222.59 560.391 216.95C560.391 211.25 559.641 207.41 558.141 205.43C556.701 203.39 554.001 202.37 550.041 202.37ZM591.187 194.9L591.907 201.38C598.747 196.22 605.107 193.64 610.987 193.64C614.887 193.64 617.887 194.69 619.987 196.79C622.087 198.89 623.137 201.92 623.137 205.88V239H612.157V209.21C612.157 206.75 611.827 205.1 611.167 204.26C610.507 203.36 609.277 202.91 607.477 202.91C605.437 202.91 603.337 203.33 601.177 204.17C599.077 205.01 596.347 206.39 592.987 208.31V239H582.007V194.9H591.187ZM665.243 182.84H656.603C654.143 182.84 652.403 183.32 651.383 184.28C650.423 185.18 649.943 186.77 649.943 189.05V194.9H662.813V202.82H649.943V239H638.963V202.82H631.133V195.35L638.963 194.9V187.61C638.963 183.29 640.043 179.99 642.203 177.71C644.363 175.43 647.873 174.29 652.733 174.29C658.493 174.29 662.963 174.56 666.143 175.1L665.243 182.84ZM710.47 194.9V239H701.83L701.02 233.06C694.78 237.8 688.63 240.17 682.57 240.17C674.41 240.17 670.33 236.09 670.33 227.93V194.9H681.31V224.69C681.25 227.03 681.61 228.65 682.39 229.55C683.17 230.45 684.61 230.9 686.71 230.9C689.71 230.9 694 229.28 699.58 226.04V194.9H710.47ZM742.43 222.26L730.82 219.11C726.98 218.03 724.28 216.5 722.72 214.52C721.22 212.54 720.47 209.75 720.47 206.15C720.47 201.41 721.82 198.14 724.52 196.34C727.22 194.54 731.87 193.64 738.47 193.64C745.67 193.76 752.18 194.3 758 195.26L757.19 202.82C749.75 202.58 744.14 202.46 740.36 202.46C736.4 202.46 733.85 202.67 732.71 203.09C731.57 203.45 731 204.5 731 206.24C731 206.66 731.03 207.05 731.09 207.41C731.21 207.77 731.3 208.07 731.36 208.31C731.42 208.55 731.57 208.79 731.81 209.03C732.11 209.21 732.32 209.36 732.44 209.48C732.56 209.6 732.86 209.75 733.34 209.93C733.82 210.11 734.15 210.23 734.33 210.29C734.51 210.35 734.93 210.47 735.59 210.65C736.25 210.83 736.73 210.95 737.03 211.01L748.91 214.25C752.69 215.33 755.39 216.8 757.01 218.66C758.63 220.46 759.44 223.22 759.44 226.94C759.44 232.1 757.97 235.58 755.03 237.38C752.09 239.12 746.99 239.99 739.73 239.99C733.13 239.99 726.98 239.51 721.28 238.55L722 230.9C725.12 231.14 730.13 231.26 737.03 231.26C741.77 231.26 744.92 230.99 746.48 230.45C748.1 229.91 748.91 228.77 748.91 227.03C748.91 226.67 748.88 226.34 748.82 226.04C748.76 225.74 748.67 225.47 748.55 225.23C748.43 224.99 748.31 224.78 748.19 224.6C748.07 224.42 747.86 224.24 747.56 224.06C747.26 223.88 747.02 223.76 746.84 223.7C746.66 223.58 746.33 223.46 745.85 223.34C745.43 223.16 745.1 223.04 744.86 222.98C744.68 222.92 744.29 222.8 743.69 222.62C743.09 222.44 742.67 222.32 742.43 222.26ZM796.844 221.54H778.844C779.264 225.38 780.344 227.96 782.084 229.28C783.824 230.54 786.674 231.17 790.634 231.17C795.134 231.17 800.414 230.81 806.474 230.09L807.464 237.11C803.324 239.09 797.264 240.08 789.284 240.08C781.304 240.08 775.634 238.31 772.274 234.77C768.914 231.23 767.234 225.26 767.234 216.86C767.234 208.28 768.884 202.28 772.184 198.86C775.484 195.38 780.944 193.64 788.564 193.64C795.584 193.64 800.684 194.93 803.864 197.51C807.044 200.03 808.634 203.84 808.634 208.94C808.634 217.34 804.704 221.54 796.844 221.54ZM778.664 213.89H793.784C796.424 213.89 797.744 212.18 797.744 208.76C797.744 206.36 797.114 204.68 795.854 203.72C794.594 202.76 792.314 202.28 789.014 202.28C785.174 202.28 782.504 203.09 781.004 204.71C779.564 206.27 778.784 209.33 778.664 213.89ZM858.75 176V239H850.11L849.21 232.97C844.11 237.71 838.41 240.08 832.11 240.08C826.71 240.08 822.78 238.13 820.32 234.23C817.86 230.27 816.63 224.42 816.63 216.68C816.63 208.22 817.98 202.28 820.68 198.86C823.44 195.38 827.73 193.64 833.55 193.64C839.19 193.64 844.08 194.93 848.22 197.51C847.92 195.11 847.77 192.17 847.77 188.69V176H858.75ZM847.77 226.22V204.35C842.97 203.15 839.31 202.55 836.79 202.55C833.37 202.55 831.03 203.48 829.77 205.34C828.51 207.14 827.88 210.89 827.88 216.59C827.88 222.17 828.48 225.95 829.68 227.93C830.94 229.85 833.1 230.81 836.16 230.81C838.2 230.81 839.97 230.51 841.47 229.91C842.97 229.25 845.07 228.02 847.77 226.22ZM868.381 184.64L867.931 176.99C868.471 176.87 869.461 176.69 870.901 176.45C872.341 176.15 873.301 175.97 873.781 175.91C874.321 175.85 875.221 175.73 876.481 175.55C877.801 175.37 878.941 175.25 879.901 175.19C880.861 175.13 882.121 175.07 883.681 175.01C885.241 174.95 886.921 174.92 888.721 174.92C895.021 174.92 899.701 176.06 902.761 178.34C905.881 180.62 907.441 184.13 907.441 188.87C907.441 191.33 906.901 193.61 905.821 195.71C904.801 197.75 903.511 199.55 901.951 201.11C900.451 202.67 898.921 204.26 897.361 205.88C895.861 207.5 894.511 209.48 893.311 211.82C892.171 214.16 891.511 216.74 891.331 219.56H882.241C882.181 216.56 882.571 213.8 883.411 211.28C884.311 208.7 885.421 206.57 886.741 204.89C888.061 203.15 889.381 201.53 890.701 200.03C892.081 198.53 893.281 197.03 894.301 195.53C895.321 193.97 895.861 192.44 895.921 190.94C896.041 188.54 895.321 186.8 893.761 185.72C892.261 184.58 889.771 184.01 886.291 184.01C881.491 184.01 875.521 184.22 868.381 184.64ZM885.481 226.67H888.091C889.591 226.67 890.611 226.97 891.151 227.57C891.751 228.11 892.051 229.1 892.051 230.54V235.13C892.051 236.57 891.751 237.59 891.151 238.19C890.611 238.73 889.591 239 888.091 239H885.481C883.981 239 882.931 238.73 882.331 238.19C881.791 237.59 881.521 236.57 881.521 235.13V230.54C881.521 229.1 881.791 228.11 882.331 227.57C882.931 226.97 883.981 226.67 885.481 226.67Z" fill="#032B4D"/>
<path d="M498.25 318.15L498.7 321.45C495.933 322.217 492.567 322.6 488.6 322.6C483.633 322.6 480.133 321.267 478.1 318.6C476.067 315.933 475.05 311.317 475.05 304.75C475.05 298.183 476.067 293.567 478.1 290.9C480.133 288.233 483.633 286.9 488.6 286.9C492.167 286.9 495.3 287.233 498 287.9L497.55 291.25C494.55 290.95 491.567 290.8 488.6 290.8C485.233 290.8 482.9 291.817 481.6 293.85C480.333 295.85 479.7 299.483 479.7 304.75C479.7 310.017 480.333 313.667 481.6 315.7C482.9 317.7 485.233 318.7 488.6 318.7C492.467 318.7 495.683 318.517 498.25 318.15ZM504.566 301.3L504.166 298.15C508.632 297.417 512.549 297.05 515.916 297.05C518.749 297.05 520.849 297.65 522.216 298.85C523.582 300.017 524.266 302.017 524.266 304.85V322H520.916L520.416 318C519.249 319.167 517.782 320.2 516.016 321.1C514.282 322 512.399 322.45 510.366 322.45C508.132 322.45 506.349 321.867 505.016 320.7C503.716 319.5 503.066 317.817 503.066 315.65V313C503.066 311.1 503.649 309.633 504.816 308.6C506.016 307.533 507.682 307 509.816 307H519.966V304.85C519.966 303.317 519.616 302.233 518.916 301.6C518.216 300.967 516.916 300.65 515.016 300.65C512.616 300.65 509.132 300.867 504.566 301.3ZM507.416 313.6V315.15C507.416 316.417 507.716 317.35 508.316 317.95C508.916 318.517 509.882 318.8 511.216 318.8C512.482 318.833 513.916 318.533 515.516 317.9C517.149 317.267 518.632 316.35 519.966 315.15V310.25H510.566C509.432 310.283 508.616 310.583 508.116 311.15C507.649 311.717 507.416 312.533 507.416 313.6ZM536.157 287V315.3C536.124 316.367 536.39 317.183 536.957 317.75C537.524 318.283 538.357 318.55 539.457 318.55H541.807L542.307 321.8C541.407 322.233 539.924 322.45 537.857 322.45C536.024 322.45 534.574 321.917 533.507 320.85C532.44 319.75 531.907 318.217 531.907 316.25V287H536.157ZM551.001 287V315.3C550.967 316.367 551.234 317.183 551.801 317.75C552.367 318.283 553.201 318.55 554.301 318.55H556.651L557.151 321.8C556.251 322.233 554.767 322.45 552.701 322.45C550.867 322.45 549.417 321.917 548.351 320.85C547.284 319.75 546.751 318.217 546.751 316.25V287H551.001ZM596.708 287.5V308.8C596.708 313.833 595.774 317.4 593.908 319.5C592.041 321.6 588.858 322.65 584.358 322.65C579.691 322.65 576.391 321.6 574.458 319.5C572.558 317.4 571.608 313.833 571.608 308.8V287.5H576.008V308.8C576.008 312.5 576.608 315.083 577.808 316.55C579.008 317.983 581.124 318.7 584.158 318.7C587.158 318.7 589.258 317.983 590.458 316.55C591.691 315.083 592.308 312.5 592.308 308.8V287.5H596.708ZM615.809 312.15L608.809 310.55C606.809 310.083 605.392 309.333 604.559 308.3C603.725 307.267 603.309 305.75 603.309 303.75C603.309 301.05 604.009 299.25 605.409 298.35C606.842 297.417 609.309 296.983 612.809 297.05C616.709 297.117 620.125 297.367 623.059 297.8L622.709 300.9C617.642 300.733 614.559 300.65 613.459 300.65C610.992 300.617 609.375 300.767 608.609 301.1C607.842 301.433 607.459 302.317 607.459 303.75C607.459 304.917 607.709 305.717 608.209 306.15C608.742 306.583 609.675 306.95 611.009 307.25L618.109 308.85C620.109 309.35 621.542 310.1 622.409 311.1C623.309 312.067 623.759 313.55 623.759 315.55C623.759 318.383 622.975 320.267 621.409 321.2C619.842 322.1 617.159 322.55 613.359 322.55C609.959 322.55 606.775 322.317 603.809 321.85L604.109 318.75C606.942 318.917 609.742 318.983 612.509 318.95C615.342 318.95 617.242 318.733 618.209 318.3C619.175 317.867 619.659 316.95 619.659 315.55C619.659 314.45 619.359 313.7 618.759 313.3C618.192 312.867 617.209 312.483 615.809 312.15ZM658.761 311.2H644.561L641.161 322H636.611L647.711 288.7C647.911 287.9 648.461 287.5 649.361 287.5H653.961C654.861 287.5 655.411 287.9 655.611 288.7L666.711 322H662.161L658.761 311.2ZM657.561 307.4L653.211 293.7C652.911 292.833 652.628 291.9 652.361 290.9H650.961L650.111 293.7L645.761 307.4H657.561ZM676.678 301V315.3C676.678 316.467 676.928 317.3 677.428 317.8C677.928 318.3 678.778 318.55 679.978 318.55H683.678L684.178 321.8C682.644 322.233 680.811 322.45 678.678 322.45C676.644 322.45 675.094 321.883 674.028 320.75C672.961 319.617 672.428 317.983 672.428 315.85V301H668.028V297.9L672.428 297.7V290.45H676.678V297.65H684.428V301H676.678ZM501.64 377.98H490.42V388.6H486.52V377.98H475.36V374.14H486.52V363.58H490.48V374.14H501.64V377.98ZM510.267 393.82L510.747 389.92C512.667 390.08 515.487 390.16 519.207 390.16C521.967 390.16 524.067 389.76 525.507 388.96C526.987 388.16 528.087 386.68 528.807 384.52C529.567 382.36 530.007 379.22 530.127 375.1C528.647 376.82 527.107 378 525.507 378.64C523.947 379.28 521.967 379.6 519.567 379.6C512.087 379.6 508.347 375.1 508.347 366.1C508.347 361.18 509.347 357.58 511.347 355.3C513.347 353.02 516.767 351.88 521.607 351.88C523.647 351.88 525.367 352.02 526.767 352.3C528.207 352.58 529.447 353.08 530.487 353.8C531.527 354.52 532.347 355.36 532.947 356.32C533.547 357.28 534.007 358.62 534.327 360.34C534.687 362.02 534.927 363.8 535.047 365.68C535.167 367.56 535.227 369.94 535.227 372.82C535.227 377.46 534.947 381.22 534.387 384.1C533.827 386.94 532.847 389.16 531.447 390.76C530.087 392.32 528.467 393.38 526.587 393.94C524.747 394.46 522.287 394.72 519.207 394.72C515.727 394.72 512.747 394.42 510.267 393.82ZM520.947 375.4C522.707 375.4 524.247 375.12 525.567 374.56C526.927 374 528.447 372.96 530.127 371.44C530.127 369.28 530.087 367.56 530.007 366.28C529.967 364.96 529.847 363.66 529.647 362.38C529.447 361.1 529.167 360.14 528.807 359.5C528.447 358.86 527.947 358.28 527.307 357.76C526.667 357.2 525.887 356.84 524.967 356.68C524.047 356.48 522.907 356.38 521.547 356.38C518.307 356.38 516.127 357.16 515.007 358.72C513.887 360.28 513.347 362.74 513.387 366.1C513.347 369.26 513.887 371.6 515.007 373.12C516.127 374.64 518.107 375.4 520.947 375.4ZM556.543 394H551.263V361.18C551.263 359.78 551.363 358.58 551.563 357.58L541.423 360.76L540.703 356.86L551.263 352.6H556.543V394ZM578.988 352.6H602.388C603.628 352.6 604.488 352.92 604.968 353.56C605.448 354.2 605.508 355.1 605.148 356.26L592.248 394H586.968L598.608 360.16C598.968 359.08 599.388 358.06 599.868 357.1H579.228L578.988 352.6ZM611.612 356.98L611.192 352.9C615.272 352.18 619.152 351.82 622.832 351.82C627.472 351.82 630.752 352.52 632.672 353.92C634.632 355.32 635.612 357.82 635.612 361.42C635.612 367.58 633.592 371.06 629.552 371.86V372.1C632.112 372.54 633.932 373.62 635.012 375.34C636.092 377.06 636.672 379.44 636.752 382.48C636.832 386.76 635.852 389.88 633.812 391.84C631.812 393.8 628.412 394.78 623.612 394.78C619.892 394.78 615.512 394.42 610.472 393.7L610.832 389.44C615.352 389.84 619.172 390.04 622.292 390.04C625.652 390.04 628.032 389.44 629.432 388.24C630.832 387.04 631.532 384.94 631.532 381.94C631.532 379.42 630.952 377.52 629.792 376.24C628.672 374.96 626.512 374.32 623.312 374.32H615.632V370.18H623.312C626.272 370.14 628.212 369.46 629.132 368.14C630.092 366.82 630.572 364.98 630.572 362.62C630.532 360.1 629.932 358.46 628.772 357.7C627.612 356.9 625.392 356.5 622.112 356.5C618.792 356.5 615.292 356.66 611.612 356.98ZM647.711 356.8C649.831 353.48 653.511 351.82 658.751 351.82C663.991 351.82 667.671 353.48 669.791 356.8C671.951 360.12 673.031 365.62 673.031 373.3C673.031 380.98 671.951 386.48 669.791 389.8C667.671 393.12 663.991 394.78 658.751 394.78C653.511 394.78 649.831 393.12 647.711 389.8C645.591 386.48 644.531 380.98 644.531 373.3C644.531 365.62 645.591 360.12 647.711 356.8ZM665.831 360.22C664.511 357.7 662.151 356.44 658.751 356.44C655.351 356.44 652.991 357.7 651.671 360.22C650.351 362.74 649.691 367.1 649.691 373.3C649.691 379.5 650.351 383.86 651.671 386.38C652.991 388.9 655.351 390.16 658.751 390.16C662.151 390.16 664.511 388.9 665.831 386.38C667.191 383.86 667.871 379.5 667.871 373.3C667.871 367.1 667.191 362.74 665.831 360.22ZM680.928 356.98L680.508 352.9C684.588 352.18 688.468 351.82 692.148 351.82C696.788 351.82 700.068 352.52 701.988 353.92C703.948 355.32 704.928 357.82 704.928 361.42C704.928 367.58 702.908 371.06 698.868 371.86V372.1C701.428 372.54 703.248 373.62 704.328 375.34C705.408 377.06 705.988 379.44 706.068 382.48C706.148 386.76 705.168 389.88 703.128 391.84C701.128 393.8 697.728 394.78 692.928 394.78C689.208 394.78 684.828 394.42 679.788 393.7L680.148 389.44C684.668 389.84 688.488 390.04 691.608 390.04C694.968 390.04 697.348 389.44 698.748 388.24C700.148 387.04 700.848 384.94 700.848 381.94C700.848 379.42 700.268 377.52 699.108 376.24C697.988 374.96 695.828 374.32 692.628 374.32H684.948V370.18H692.628C695.588 370.14 697.528 369.46 698.448 368.14C699.408 366.82 699.888 364.98 699.888 362.62C699.848 360.1 699.248 358.46 698.088 357.7C696.928 356.9 694.708 356.5 691.428 356.5C688.108 356.5 684.608 356.66 680.928 356.98ZM738.388 352.78L737.908 356.62C736.148 356.46 733.528 356.38 730.048 356.38C728.008 356.38 726.368 356.56 725.128 356.92C723.928 357.28 722.868 358 721.948 359.08C721.028 360.12 720.368 361.62 719.968 363.58C719.568 365.5 719.328 368.08 719.248 371.32C720.688 369.72 722.188 368.6 723.748 367.96C725.348 367.32 727.328 367 729.688 367C734.008 367 736.968 368 738.568 370C740.208 372 741.028 375.54 741.028 380.62C741.028 382.94 740.868 384.9 740.548 386.5C740.228 388.06 739.608 389.5 738.688 390.82C737.808 392.14 736.468 393.12 734.668 393.76C732.908 394.4 730.668 394.72 727.948 394.72C725.548 394.72 723.548 394.5 721.948 394.06C720.388 393.62 719.068 392.96 717.988 392.08C716.908 391.2 716.068 389.92 715.468 388.24C714.908 386.56 714.508 384.64 714.268 382.48C714.068 380.32 713.968 377.6 713.968 374.32C713.968 370.44 714.188 367.18 714.628 364.54C715.068 361.86 715.668 359.7 716.428 358.06C717.228 356.38 718.308 355.1 719.668 354.22C721.068 353.3 722.548 352.68 724.108 352.36C725.708 352.04 727.688 351.88 730.048 351.88C733.368 351.88 736.148 352.18 738.388 352.78ZM728.008 390.22C731.328 390.22 733.488 389.48 734.488 388C735.488 386.52 735.988 384.06 735.988 380.62C735.988 377.14 735.448 374.72 734.368 373.36C733.328 371.96 731.308 371.26 728.308 371.26C726.588 371.26 725.048 371.54 723.688 372.1C722.368 372.62 720.868 373.62 719.188 375.1C719.188 377.66 719.228 379.68 719.308 381.16C719.428 382.64 719.648 384.04 719.968 385.36C720.288 386.68 720.768 387.66 721.408 388.3C722.088 388.9 722.948 389.38 723.988 389.74C725.028 390.06 726.368 390.22 728.008 390.22ZM772.724 352.78L772.244 356.62C770.484 356.46 767.864 356.38 764.384 356.38C762.344 356.38 760.704 356.56 759.464 356.92C758.264 357.28 757.204 358 756.284 359.08C755.364 360.12 754.704 361.62 754.304 363.58C753.904 365.5 753.664 368.08 753.584 371.32C755.024 369.72 756.524 368.6 758.084 367.96C759.684 367.32 761.664 367 764.024 367C768.344 367 771.304 368 772.904 370C774.544 372 775.364 375.54 775.364 380.62C775.364 382.94 775.204 384.9 774.884 386.5C774.564 388.06 773.944 389.5 773.024 390.82C772.144 392.14 770.804 393.12 769.004 393.76C767.244 394.4 765.004 394.72 762.284 394.72C759.884 394.72 757.884 394.5 756.284 394.06C754.724 393.62 753.404 392.96 752.324 392.08C751.244 391.2 750.404 389.92 749.804 388.24C749.244 386.56 748.844 384.64 748.604 382.48C748.404 380.32 748.304 377.6 748.304 374.32C748.304 370.44 748.524 367.18 748.964 364.54C749.404 361.86 750.004 359.7 750.764 358.06C751.564 356.38 752.644 355.1 754.004 354.22C755.404 353.3 756.884 352.68 758.444 352.36C760.044 352.04 762.024 351.88 764.384 351.88C767.704 351.88 770.484 352.18 772.724 352.78ZM762.344 390.22C765.664 390.22 767.824 389.48 768.824 388C769.824 386.52 770.324 384.06 770.324 380.62C770.324 377.14 769.784 374.72 768.704 373.36C767.664 371.96 765.644 371.26 762.644 371.26C760.924 371.26 759.384 371.54 758.024 372.1C756.704 372.62 755.204 373.62 753.524 375.1C753.524 377.66 753.564 379.68 753.644 381.16C753.764 382.64 753.984 384.04 754.304 385.36C754.624 386.68 755.104 387.66 755.744 388.3C756.424 388.9 757.284 389.38 758.324 389.74C759.364 390.06 760.704 390.22 762.344 390.22ZM781.02 352.6H804.42C805.66 352.6 806.52 352.92 807 353.56C807.48 354.2 807.54 355.1 807.18 356.26L794.28 394H789L800.64 360.16C801 359.08 801.42 358.06 801.9 357.1H781.26L781.02 352.6ZM813.403 357.52L813.043 353.44C817.483 352.4 821.683 351.88 825.643 351.88C830.003 351.88 833.203 352.5 835.243 353.74C837.323 354.94 838.363 357.3 838.363 360.82C838.363 363.42 837.823 365.82 836.743 368.02C835.663 370.18 833.743 372.8 830.983 375.88L819.103 389.14C820.983 388.98 823.223 388.9 825.823 388.9H839.863V394H812.683V390.7C812.683 389.74 812.943 388.98 813.463 388.42L825.463 374.86C828.183 371.94 830.143 369.4 831.343 367.24C832.543 365.04 833.103 362.98 833.023 361.06C832.983 359.18 832.343 357.96 831.103 357.4C829.903 356.84 827.963 356.56 825.283 356.56C821.283 356.56 817.323 356.88 813.403 357.52ZM850.094 356.8C852.214 353.48 855.894 351.82 861.134 351.82C866.374 351.82 870.054 353.48 872.174 356.8C874.334 360.12 875.414 365.62 875.414 373.3C875.414 380.98 874.334 386.48 872.174 389.8C870.054 393.12 866.374 394.78 861.134 394.78C855.894 394.78 852.214 393.12 850.094 389.8C847.974 386.48 846.914 380.98 846.914 373.3C846.914 365.62 847.974 360.12 850.094 356.8ZM868.214 360.22C866.894 357.7 864.534 356.44 861.134 356.44C857.734 356.44 855.374 357.7 854.054 360.22C852.734 362.74 852.074 367.1 852.074 373.3C852.074 379.5 852.734 383.86 854.054 386.38C855.374 388.9 857.734 390.16 861.134 390.16C864.534 390.16 866.894 388.9 868.214 386.38C869.574 383.86 870.254 379.5 870.254 373.3C870.254 367.1 869.574 362.74 868.214 360.22ZM881.274 352.6H904.674C905.914 352.6 906.774 352.92 907.254 353.56C907.734 354.2 907.794 355.1 907.434 356.26L894.534 394H889.254L900.894 360.16C901.254 359.08 901.674 358.06 902.154 357.1H881.514L881.274 352.6Z" fill="#032B4D"/>
<path d="M686 252C793.143 252 880 253.119 880 254.5C880 255.881 793.143 257 686 257C578.857 257 492 255.881 492 254.5C492 253.119 578.857 252 686 252Z" fill="white"/>
<path d="M673.5 420C787.547 420 880 418.209 880 416C880 413.791 787.547 412 673.5 412C559.453 412 467 413.791 467 416C467 418.209 559.453 420 673.5 420Z" fill="white"/>
<defs>
<linearGradient id="paint0_linear" x1="219.86" y1="768.05" x2="219.86" y2="299.3" gradientUnits="userSpaceOnUse">
<stop stop-color="#808080" stop-opacity="0.25"/>
<stop offset="0.54" stop-color="#808080" stop-opacity="0.12"/>
<stop offset="1" stop-color="#808080" stop-opacity="0.1"/>
</linearGradient>
</defs>
</svg>
