<svg width="1361" height="756" viewBox="0 0 1361 756" fill="none" xmlns="http://www.w3.org/2000/svg">
<path opacity="0.4" d="M1256.65 604.187C1255.13 607.46 1253.62 610.689 1252.11 613.875C1249.76 618.823 1247.44 623.675 1245.15 628.431C1244.13 630.539 1243.11 632.607 1242.12 634.676C1230.88 657.676 1220.38 678.019 1211.47 694.749C1203.38 709.915 1191.38 722.624 1176.7 731.544C1162.03 740.464 1145.23 745.267 1128.07 745.449L929.861 747.609H927.77L910.779 747.792L896.245 747.949L851.716 748.46H849.912L827.223 748.709H826.53L686.682 750.227L561.851 751.536L547.33 751.693L457.147 752.675H457.004L398.516 753.303H397.888L212.948 755.306L157.623 755.908C152.912 755.962 148.203 755.726 143.521 755.202V755.202C141.926 755.018 140.332 754.809 138.75 754.56C112.948 750.571 89.2885 737.847 71.7145 718.508C47.9141 692.17 30.5964 661.669 18.9641 628.431C17.2824 623.64 15.7141 618.788 14.2589 613.875C-26.0096 477.483 23.0812 301.596 111.434 183.924C115.137 179.002 118.901 174.202 122.726 169.524L122.818 169.42C149.99 136.012 180.456 108.103 212.909 88.2575C270.417 53.0305 334.133 43.1078 396.803 72.6796C449.828 97.709 499.337 109.478 547.33 112.672C552.179 112.986 557.028 113.221 561.851 113.365C671.939 116.835 775.113 77.1043 896.272 51.4596C901.094 50.4386 905.93 49.4306 910.805 48.475C997.237 31.2476 1093.12 22.1627 1207.14 41.262C1218.99 43.2003 1230.68 46.0004 1242.12 49.64C1247.14 51.2633 1251.99 53.0087 1256.65 54.8763C1311.07 77.0519 1340.75 118.026 1353.37 169.367C1354.56 174.132 1355.59 178.98 1356.46 183.911C1378.83 307.409 1313.33 482.588 1256.65 604.187Z" fill="#FF4568"/>
<path opacity="0.4" d="M649.603 613.874C649.076 618.77 648.26 623.631 647.158 628.431H769.624V613.874H649.603ZM547.33 696.096L561.851 695.979V660.019C556.871 659.796 552.022 659.573 547.33 659.338V696.096ZM242.905 613.874V628.431H502.343V613.874H242.905ZM1353.43 169.38H1256.71V54.8888C1252.05 52.9862 1247.21 51.2408 1242.18 49.6525V169.432H910.806V48.4351C905.93 49.3907 901.095 50.3987 896.272 51.4197V169.38H561.851V113.326C557.028 113.182 552.179 112.946 547.33 112.632V169.38H212.909V88.2176C180.457 108.063 149.991 135.972 122.818 169.38H122.727V169.485C118.893 174.197 115.129 178.997 111.434 183.884H122.727V613.874H14.2461C15.6925 618.787 17.2609 623.64 18.9513 628.431H122.714V750.986C127.934 752.585 133.263 753.806 138.659 754.638C140.24 754.887 141.835 755.096 143.429 755.279C148.111 755.804 152.821 756.04 157.532 755.986L212.857 755.384V628.405H547.33V751.732L561.851 751.575V628.431H896.272V747.962L910.806 747.805V628.431H1242.12V634.675C1243.11 632.607 1244.13 630.538 1245.15 628.431C1247.44 623.683 1249.76 618.831 1252.11 613.874C1253.62 610.689 1255.13 607.459 1256.65 604.187V183.976H1356.53C1355.65 179.01 1354.62 174.145 1353.43 169.38V169.38ZM212.909 613.874V183.924H547.33V613.874H212.909ZM561.877 613.874V183.924H896.272V613.874H561.877ZM1242.14 613.874H910.806V183.924H1242.12L1242.14 613.874Z" fill="#FF4568"/>
<path d="M1090.99 462.206C1072.88 428.709 1047.21 399.909 1016.03 378.099C1013.8 376.558 1011.23 375.587 1008.54 375.271C1012.22 351.079 1011.44 324.348 997.812 304.189C965.464 256.355 800.652 305.72 800.652 305.72C685.127 265.61 584.998 316.52 584.998 316.52C584.998 316.52 457.148 296.465 398.62 311.899C371.017 319.177 364.312 347.375 364.939 375.153H364.848C362.4 375.149 359.983 375.697 357.777 376.758C355.571 377.819 353.632 379.364 352.104 381.28C336.538 400.759 289.512 460.753 290.793 472.338C292.335 486.228 343.165 666.722 340.864 753.893L1050.94 746.038C1050.94 746.038 1062.7 570.623 1092.12 474.603C1093.4 470.483 1092.99 466.025 1090.99 462.206V462.206Z" fill="#032B4D"/>
<path opacity="0.1" d="M350.117 473.124L379.381 414.491L404.018 528.654L404.305 581.646L350.117 473.124Z" fill="black"/>
<path opacity="0.1" d="M1021.68 473.124L992.415 414.491L958.473 522.738L965.008 584.264L1021.68 473.124Z" fill="black"/>
<path d="M401.873 525.538L958.522 522.488L964.691 584.198L404.016 582.653L401.873 525.538Z" fill="#122535"/>
<path opacity="0.1" d="M953.936 578.189H415.376C407.818 578.189 401.691 584.325 401.691 591.895V630.827C401.691 638.396 407.818 644.532 415.376 644.532H953.936C961.494 644.532 967.62 638.396 967.62 630.827V591.895C967.62 584.325 961.494 578.189 953.936 578.189Z" fill="white" fill-opacity="0.8"/>
<path d="M851.807 356.25C851.807 356.25 849.925 353.632 847.703 355.046C846.644 355.74 841.664 362.023 836.776 368.411C834.371 371.54 831.98 374.695 830.084 377.208C827.745 380.298 826.163 382.445 826.163 382.445L825.222 384.212L819.511 394.907L814.139 404.961L812.832 409.699L830.973 415.878L851.624 410.236L850.735 406.401L850.578 405.746L850.748 396.923L851.218 372.051L851.441 360.858V359.549L851.807 356.25Z" fill="#FFE09C"/>
<path d="M810.271 417.567C810.271 417.567 829.876 424.57 839.927 420.905C839.927 420.905 848.619 418.13 852.043 415.446C852.043 415.446 855.69 413.535 850.736 407.304C850.736 407.304 838.045 415.093 826.034 412.029L814.023 408.953L810.271 417.567Z" fill="#795548"/>
<path d="M832.138 408.705C835.196 406.911 836.444 403.352 834.926 400.757C833.408 398.162 829.698 397.514 826.64 399.308C823.582 401.103 822.334 404.662 823.852 407.257C825.371 409.851 829.08 410.5 832.138 408.705Z" fill="#FF4568"/>
<path d="M845.177 393.049C848.235 391.254 849.483 387.696 847.965 385.101C846.447 382.506 842.737 381.857 839.679 383.652C836.622 385.447 835.373 389.005 836.891 391.6C838.41 394.195 842.119 394.844 845.177 393.049Z" fill="#FF4568"/>
<path d="M850.736 396.923C849.751 396.511 848.683 396.341 847.619 396.425C846.556 396.509 845.527 396.846 844.619 397.407C841.561 399.201 840.306 402.761 841.836 405.353C843.365 407.945 847.063 408.6 850.109 406.806C850.318 406.675 850.527 406.544 850.723 406.4L850.566 405.746L850.736 396.923Z" fill="#FF4568"/>
<path d="M828.558 386.542C828.194 385.94 827.708 385.421 827.132 385.02C826.556 384.619 825.901 384.343 825.212 384.211L819.5 394.907C820.5 395.358 821.595 395.556 822.689 395.483C823.783 395.41 824.843 395.068 825.774 394.488C828.832 392.694 830.074 389.134 828.558 386.542Z" fill="#FF4568"/>
<path d="M841.26 370.872C840.788 370.115 840.131 369.492 839.351 369.061C838.571 368.631 837.694 368.407 836.803 368.411C834.398 371.539 832.006 374.694 830.111 377.208L830.19 377.365C831.706 379.983 835.418 380.598 838.476 378.805C841.535 377.011 842.75 373.464 841.26 370.872Z" fill="#FF4568"/>
<path d="M851.43 360.845C850.755 361.014 850.108 361.279 849.508 361.63C846.45 363.424 845.208 366.984 846.724 369.576C847.199 370.337 847.86 370.962 848.645 371.393C849.43 371.824 850.312 372.046 851.207 372.037L851.43 360.845Z" fill="#FF4568"/>
<path d="M820.989 403.769L819.943 402.002C821.509 401.534 822.954 400.73 824.178 399.646C824.256 399.567 824.322 399.475 824.387 399.397C825.694 397.747 825.42 401.177 825.42 401.177C825.42 401.177 822.204 403.913 820.989 403.769Z" fill="#009688"/>
<path d="M836.411 401.033L835.365 399.253C836.93 398.782 838.374 397.978 839.6 396.897C839.6 396.818 839.744 396.739 839.809 396.648C841.116 395.011 840.841 398.428 840.841 398.428C840.841 398.428 837.626 401.177 836.411 401.033Z" fill="#009688"/>
<path d="M834.999 393.702L833.953 391.922C835.516 391.455 836.961 390.655 838.188 389.579C838.253 389.487 838.332 389.408 838.397 389.33C839.704 387.68 839.429 391.097 839.429 391.097C839.429 391.097 836.214 393.82 834.999 393.702Z" fill="#009688"/>
<path d="M836.87 380.48L835.824 378.7C837.389 378.229 838.833 377.425 840.059 376.344C840.059 376.265 840.203 376.187 840.268 376.095C841.575 374.446 841.301 377.875 841.301 377.875C841.301 377.875 838.085 380.611 836.87 380.48Z" fill="#009688"/>
<path d="M845.716 364.484L844.684 362.704C846.245 362.234 847.685 361.43 848.905 360.347C848.982 360.27 849.052 360.187 849.114 360.098C850.421 358.462 850.16 361.879 850.16 361.879C850.16 361.879 846.932 364.615 845.716 364.484Z" fill="#009688"/>
<path d="M844.725 380.808L843.68 379.028C845.244 378.564 846.689 377.764 847.914 376.684C847.914 376.593 848.058 376.514 848.123 376.436C849.43 374.786 849.156 378.203 849.156 378.203C849.156 378.203 845.941 380.952 844.725 380.808Z" fill="#009688"/>
<path d="M807.055 412.029C807.055 412.029 804.546 418.575 810.271 417.527C812.818 414.569 814.56 411.003 815.329 407.173C815.329 407.173 827.706 380.009 831.366 377.522C831.366 377.522 847.494 355.438 849.232 355.111C849.232 355.111 849.794 352.964 844.161 357.507C838.528 362.049 826.19 379.538 826.19 379.538L814.427 398.742L811.656 406.4L807.055 412.029Z" fill="#E7C4C3"/>
<path opacity="0.2" d="M807.055 412.029C807.055 412.029 804.546 418.575 810.271 417.527C812.818 414.569 814.56 411.003 815.329 407.173C815.329 407.173 827.706 380.009 831.366 377.522C831.366 377.522 847.494 355.438 849.232 355.111C849.232 355.111 849.794 352.964 844.161 357.507C838.528 362.049 826.19 379.538 826.19 379.538L814.427 398.742L811.656 406.4L807.055 412.029Z" fill="white"/>
<path d="M612.641 544.991C614.798 552.091 617.453 559.029 620.587 565.753C629.587 563.868 638.441 561.339 647.08 558.187C647.354 558.095 642.126 551.249 641.577 550.686C639.448 548.329 636.911 546.378 634.088 544.926C631.331 543.721 627.932 544.638 624.939 544.795C620.862 545.004 616.762 545.07 612.641 544.991Z" fill="#FBBEBE"/>
<path d="M634.141 555.739C629.645 554.325 626.9 549.783 625.07 545.41C623.24 541.038 621.764 536.247 618.287 533.053C617.627 533.154 617.002 533.417 616.468 533.819C615.934 534.221 615.508 534.749 615.229 535.357C614.686 536.583 614.08 537.781 613.412 538.944C611.974 541.038 609.491 542.059 607.596 543.839C605.701 545.62 604.642 548.33 602.668 550.123C600.185 552.375 596.682 552.937 593.428 553.684C588.387 554.83 583.518 556.634 578.946 559.051C577.264 560.068 575.465 560.877 573.588 561.46C571.521 561.863 569.403 561.934 567.314 561.669L552.937 560.648C551.657 560.483 550.358 560.536 549.095 560.805C547.641 561.336 546.404 562.335 545.576 563.644C544.749 564.954 544.377 566.501 544.52 568.044C544.704 569.582 545.203 571.065 545.986 572.401C546.769 573.736 547.818 574.896 549.068 575.807C551.581 577.595 554.348 578.994 557.276 579.957C569.818 584.705 582.732 588.401 595.885 591.005V593.859C605.028 598.373 615.086 600.72 625.279 600.718C626.031 600.772 626.785 600.642 627.475 600.339C628.418 599.655 629.079 598.649 629.331 597.511C632.792 587.372 634.812 576.796 635.33 566.094C635.586 563.386 635.378 560.654 634.716 558.017C633.932 555.399 636.624 556.511 634.128 555.49" fill="#282828"/>
<path d="M910.337 501.36C867.637 503.978 825.382 491.398 782.696 490.063C777.381 489.727 772.044 490.07 766.816 491.084C761.326 492.314 756.203 494.802 751.132 497.184C728.194 507.866 704.485 516.715 680.789 525.552L653.578 535.71C648.141 537.739 642.507 539.794 636.717 539.441C634.103 539.284 630.928 538.891 629.477 541.051C625.046 547.596 627.137 557.27 630.065 564.614C631.006 566.997 632.679 569.589 635.162 569.851C636.953 570.034 638.626 569 640.39 568.542C645.344 567.232 650.284 570.558 655.381 571.094C661.681 571.762 667.523 568.175 673.47 565.976C683.325 562.323 694.108 562.441 704.472 560.739C721.855 557.833 737.957 549.756 753.014 540.554C758.738 537.045 764.542 533.288 771.129 532.005C778.696 530.526 786.473 532.477 793.91 534.624C811.61 539.637 829.034 545.58 846.111 552.427C855.103 556.04 864.043 559.902 873.401 562.402C893.645 567.733 915.056 566.482 934.542 558.828C941.365 556.119 948.802 551.34 949.194 543.957C949.416 539.742 946.149 536.103 943.966 532.437C942.58 530.12 941.182 527.816 939.653 525.591C932.242 514.778 923.302 500.588 910.337 501.36Z" fill="#2F2E41"/>
<path opacity="0.1" d="M910.337 501.36C867.637 503.978 825.382 491.398 782.696 490.063C777.381 489.727 772.044 490.07 766.816 491.084C761.326 492.314 756.203 494.802 751.132 497.184C728.194 507.866 704.485 516.715 680.789 525.552L653.578 535.71C648.141 537.739 642.507 539.794 636.717 539.441C634.103 539.284 630.928 538.891 629.477 541.051C625.046 547.596 627.137 557.27 630.065 564.614C631.006 566.997 632.679 569.589 635.162 569.851C636.953 570.034 638.626 569 640.39 568.542C645.344 567.232 650.284 570.558 655.381 571.094C661.681 571.762 667.523 568.175 673.47 565.976C683.325 562.323 694.108 562.441 704.472 560.739C721.855 557.833 737.957 549.756 753.014 540.554C758.738 537.045 764.542 533.288 771.129 532.005C778.696 530.526 786.473 532.477 793.91 534.624C811.61 539.637 829.034 545.58 846.111 552.427C855.103 556.04 864.043 559.902 873.401 562.402C893.645 567.733 915.056 566.482 934.542 558.828C941.365 556.119 948.802 551.34 949.194 543.957C949.416 539.742 946.149 536.103 943.966 532.437C942.58 530.12 941.182 527.816 939.653 525.591C932.242 514.778 923.302 500.588 910.337 501.36Z" fill="black"/>
<path d="M694.615 547.073C701.29 549.35 708.034 551.449 714.848 553.369C718.651 547.112 725.774 542.753 727.395 535.605C727.463 535.447 727.497 535.276 727.494 535.104C727.491 534.932 727.452 534.763 727.379 534.607C727.306 534.451 727.201 534.312 727.071 534.2C726.941 534.088 726.788 534.005 726.623 533.956C721.755 531.255 716.35 529.668 710.796 529.309C706.404 529.034 704.405 533.615 702.405 536.849C701.608 538.145 696.406 547.688 694.615 547.073Z" fill="#FBBEBE"/>
<path d="M704.026 542.504C702.03 542.166 700.126 541.417 698.434 540.303C696.742 539.19 695.3 537.737 694.197 536.037C693.256 534.388 692.25 532.11 690.368 532.28C688.486 532.45 687.754 534.492 687.414 536.207C686.147 542.698 684.305 549.064 681.912 555.228C679.509 561.405 675.436 566.79 670.149 570.78C667.666 572.495 664.921 573.791 662.49 575.597C660.307 577.207 658.412 579.249 655.955 580.493C654.349 581.238 652.689 581.859 650.988 582.352C648.494 583.233 646.109 584.397 643.878 585.821C641.919 586.956 640.261 588.545 639.042 590.455C638.427 591.422 638.066 592.53 637.995 593.675C637.925 594.82 638.145 595.964 638.637 597C639.154 597.847 639.844 598.574 640.662 599.133C641.48 599.693 642.407 600.072 643.382 600.247C645.328 600.587 647.314 600.64 649.276 600.404C657.053 599.828 664.829 599.095 672.606 598.44C675.892 598.241 679.159 597.803 682.382 597.131C684.094 596.712 685.754 596.176 687.453 595.731C690.362 594.982 693.341 594.543 696.341 594.421C697.219 594.352 698.103 594.432 698.955 594.657C700.759 595.246 702.026 597.04 703.895 597.406C705.088 597.52 706.291 597.359 707.411 596.935C713.005 595.403 718.9 595.443 724.69 595.128C727.304 594.997 730.231 594.513 731.408 592.222C732.871 589.369 730.44 586.174 729.486 583.059C728.999 581.1 728.727 579.094 728.676 577.076C728.236 572.097 726.776 567.262 724.389 562.873C722.416 559.234 719.71 555.202 721.095 551.288C721.566 549.979 722.507 548.67 722.402 547.36C721.958 541.09 707.568 543.25 704.026 542.504Z" fill="#282828"/>
<path d="M846.304 432.751C838.746 429.407 832.693 423.377 829.313 415.825C828.594 414.202 828.006 412.513 827.327 410.877C825.085 405.43 821.603 400.584 817.158 396.726C816.68 396.203 816.096 395.79 815.444 395.514C814.792 395.238 814.088 395.107 813.381 395.129C812.697 395.337 812.081 395.723 811.594 396.247C811.108 396.772 810.768 397.415 810.61 398.113C810.219 399.603 810.121 401.155 810.323 402.682C810.704 406.28 811.324 409.849 812.178 413.364L814.244 422.803C814.498 424.258 814.937 425.674 815.551 427.018C816.437 428.608 817.612 430.02 819.014 431.181C820.909 432.935 822.831 434.623 824.778 436.273C827.493 438.875 831.028 440.449 834.776 440.724C843.246 442.295 851.872 444.572 859.034 450.11C858.943 450.11 859.034 443.774 858.877 443.054C858.551 441.156 858.289 439.271 857.061 437.988C854.251 435.108 849.689 434.283 846.304 432.751Z" fill="#FBBEBE"/>
<path opacity="0.1" d="M846.304 432.751C838.746 429.407 832.693 423.377 829.313 415.825C828.594 414.202 828.006 412.513 827.327 410.877C825.085 405.43 821.603 400.584 817.158 396.726C816.68 396.203 816.096 395.79 815.444 395.514C814.792 395.238 814.088 395.107 813.381 395.129C812.697 395.337 812.081 395.723 811.594 396.247C811.108 396.772 810.768 397.415 810.61 398.113C810.219 399.603 810.121 401.155 810.323 402.682C810.704 406.28 811.324 409.849 812.178 413.364L814.244 422.803C814.498 424.258 814.937 425.674 815.551 427.018C816.437 428.608 817.612 430.02 819.014 431.181C820.909 432.935 822.831 434.623 824.778 436.273C827.493 438.875 831.028 440.449 834.776 440.724C843.246 442.295 851.872 444.572 859.034 450.11C858.943 450.11 859.034 443.774 858.877 443.054C858.551 441.156 858.289 439.271 857.061 437.988C854.251 435.108 849.689 434.283 846.304 432.751Z" fill="black"/>
<path d="M933.26 360.478C938.998 360.478 943.65 355.795 943.65 350.019C943.65 344.242 938.998 339.559 933.26 339.559C927.521 339.559 922.869 344.242 922.869 350.019C922.869 355.795 927.521 360.478 933.26 360.478Z" fill="#2F2E41"/>
<path d="M926.828 343.696C924.018 343.381 920.882 343.159 918.62 344.887C917.42 345.944 916.462 347.248 915.81 348.709C913.486 352.712 911.672 356.991 910.413 361.446C909.485 365.269 909.328 369.301 908.178 373.019C906.047 379.983 900.597 385.861 899.97 393.126C899.695 396.372 900.244 400.182 897.865 402.407C897.285 402.896 896.664 403.334 896.009 403.716C894.366 404.819 892.972 406.255 891.919 407.932C891.205 409.437 890.221 410.8 889.017 411.95C886.9 413.521 883.397 413.351 882.351 415.786C881.306 418.221 883.998 421.022 883.371 423.64C882.861 425.787 880.469 426.769 878.822 428.235C876.705 430.107 875.738 432.922 874.901 435.618C871.429 436.276 867.855 436.173 864.426 435.317C860.997 434.46 857.793 432.871 855.035 430.657C857.924 437.804 857.989 445.698 858.12 453.422C858.12 455.922 858.12 458.736 856.29 460.478C864.563 460.661 872.627 462.899 880.691 464.732C884.22 465.531 888.05 466.224 891.33 464.732C893.182 463.734 894.835 462.402 896.205 460.805C900.597 456.341 905.198 451.484 906.269 445.292C906.871 441.836 906.269 438.276 906.452 434.82C906.856 430.478 907.733 426.194 909.066 422.043C911.392 413.436 912.953 404.64 913.732 395.757C914.203 390.285 918.96 385.874 921.417 380.965C926.123 371.723 930.919 362.088 931.272 351.707C931.442 348.277 930.266 344.075 926.828 343.696Z" fill="#2F2E41"/>
<path opacity="0.1" d="M926.828 343.696C924.018 343.381 920.882 343.159 918.62 344.887C917.42 345.944 916.462 347.248 915.81 348.709C913.486 352.712 911.672 356.991 910.413 361.446C909.485 365.269 909.328 369.301 908.178 373.019C906.047 379.983 900.597 385.861 899.97 393.126C899.695 396.372 900.244 400.182 897.865 402.407C897.285 402.896 896.664 403.334 896.009 403.716C894.366 404.819 892.972 406.255 891.919 407.932C891.205 409.437 890.221 410.8 889.017 411.95C886.9 413.521 883.397 413.351 882.351 415.786C881.306 418.221 883.998 421.022 883.371 423.64C882.861 425.787 880.469 426.769 878.822 428.235C876.705 430.107 875.738 432.922 874.901 435.618C871.429 436.276 867.855 436.173 864.426 435.317C860.997 434.46 857.793 432.871 855.035 430.657C857.924 437.804 857.989 445.698 858.12 453.422C858.12 455.922 858.12 458.736 856.29 460.478C864.563 460.661 872.627 462.899 880.691 464.732C884.22 465.531 888.05 466.224 891.33 464.732C893.182 463.734 894.835 462.402 896.205 460.805C900.597 456.341 905.198 451.484 906.269 445.292C906.871 441.836 906.269 438.276 906.452 434.82C906.856 430.478 907.733 426.194 909.066 422.043C911.392 413.436 912.953 404.64 913.732 395.757C914.203 390.285 918.96 385.874 921.417 380.965C926.123 371.723 930.919 362.088 931.272 351.707C931.442 348.277 930.266 344.075 926.828 343.696Z" fill="black"/>
<path d="M917.065 510.367C908.177 506.125 901.668 498.231 894.48 491.464C880.756 478.556 863.961 469.419 849.532 457.31C839.965 449.298 831.417 439.952 820.909 433.236C811.661 427.348 801.182 423.675 790.286 422.502C789.038 422.28 787.756 422.342 786.535 422.685C785.157 423.296 783.957 424.246 783.045 425.447C778.39 430.711 774.249 436.409 770.681 442.465C752.383 473.556 726.4 499.737 704.874 528.628C704.194 529.315 703.791 530.23 703.743 531.196C703.695 532.162 704.005 533.113 704.613 533.864L708.991 542.452C711.435 547.269 715.369 552.924 720.649 551.916C723.067 551.471 724.989 549.691 726.766 547.989L746.371 529.178L766.982 509.437C779.059 497.878 791.332 486.044 799.213 471.265C805.356 481.947 816.282 488.937 823.771 498.755C826.621 502.473 828.999 506.609 831.483 510.537C835.56 516.846 840.2 522.776 844.827 528.693L868.471 558.92C871.686 563.03 875.005 567.246 879.41 570.034C885.017 573.581 891.826 574.524 898.414 575.113C907.295 575.907 916.213 576.23 925.129 576.082C931.925 575.964 938.931 575.519 945.034 572.495C951.138 569.471 956.144 563.331 955.83 556.42C955.456 552.868 954.291 549.445 952.419 546.405C944.028 530.827 932.984 517.933 917.065 510.367Z" fill="#2F2E41"/>
<path d="M939.65 365.309C944.06 365.309 947.636 361.704 947.636 357.258C947.636 352.811 944.06 349.207 939.65 349.207C935.239 349.207 931.664 352.811 931.664 357.258C931.664 361.704 935.239 365.309 939.65 365.309Z" fill="#E8E8F0"/>
<path d="M937.887 351.21C939.683 354.794 939.997 358.942 938.762 362.756C937.527 366.519 935.799 370.102 933.626 373.412C931.756 376.829 929.516 380.029 926.947 382.955C939.272 383.557 951.231 378.714 962.105 372.836C970.862 368.123 979.593 362.285 984.324 353.462C982.934 353.799 981.487 353.839 980.08 353.58C978.673 353.321 977.335 352.767 976.156 351.956C973.809 350.315 971.705 348.349 969.908 346.118L963.713 339.14C962.259 337.624 960.983 335.946 959.91 334.14C958.567 331.668 957.998 328.85 958.276 326.05C955.817 328.63 953.067 330.914 950.081 332.857C945.663 335.737 940.788 337.831 936.358 340.711C934.789 341.719 931.286 343.329 932.188 345.411C933.09 347.492 936.671 349.011 937.887 351.21Z" fill="#FBBEBE"/>
<path opacity="0.1" d="M937.887 351.21C939.683 354.794 939.997 358.942 938.762 362.756C937.527 366.519 935.799 370.102 933.626 373.412C931.756 376.829 929.516 380.029 926.947 382.955C939.272 383.557 951.231 378.714 962.105 372.836C970.862 368.123 979.593 362.285 984.324 353.462C982.934 353.799 981.487 353.839 980.08 353.58C978.673 353.321 977.335 352.767 976.156 351.956C973.809 350.315 971.705 348.349 969.908 346.118L963.713 339.14C962.259 337.624 960.983 335.946 959.91 334.14C958.567 331.668 957.998 328.85 958.276 326.05C955.817 328.63 953.067 330.914 950.081 332.857C945.663 335.737 940.788 337.831 936.358 340.711C934.789 341.719 931.286 343.329 932.188 345.411C933.09 347.492 936.671 349.011 937.887 351.21Z" fill="black"/>
<path d="M938.056 352.428C935.742 356.355 935.246 360.937 938.056 364.497C938.408 364.943 939.702 367.692 940.264 367.718C940.808 367.663 941.312 367.406 941.676 366.998C944.669 364.262 946.904 360.767 949.518 357.664C952.132 354.562 955.465 351.747 959.464 351.119C964.287 350.373 968.953 352.925 973.175 355.399C975.011 356.296 976.613 357.609 977.854 359.235C978.743 360.847 979.27 362.634 979.396 364.471C980.847 375.481 980.82 386.634 980.781 397.735C980.781 405.772 980.781 413.849 979.213 421.73C978.429 425.814 977.252 429.807 976.69 433.917C976.287 437.546 976.126 441.198 976.207 444.848V460.138C976.101 462.944 976.298 465.753 976.795 468.516C977.514 471.867 979.095 474.957 980.154 478.216C981.247 481.962 981.995 485.801 982.389 489.684L984.48 505.51C985.134 510.498 985.617 515.983 982.611 519.91C981.304 521.716 979.461 523.17 978.089 524.976C972.861 531.705 974.573 541.326 972.416 549.56C970.72 555.588 967.227 560.954 962.405 564.942C958.706 568.084 953.936 570.545 949.191 569.668C942.774 568.476 938.918 561.813 937.167 555.438C935.415 549.063 934.788 542.216 930.998 536.875C927.9 532.503 923.156 529.754 918.764 526.639C914.373 523.523 910.19 519.504 909.249 514.216C908.831 511.912 909.093 509.542 908.844 507.212C908.503 504.259 907.373 501.452 905.575 499.086C903.776 496.72 901.375 494.883 898.624 493.768C895.343 492.459 891.291 492.027 889.475 489.016C894.258 486.319 897.421 481.332 899.094 476.082C900.767 470.833 901.107 465.256 901.434 459.758L902.531 441.366C903.015 433.145 903.237 425.003 906.858 417.619C908.465 414.307 910.478 411.218 912.164 407.959C914.388 403.372 916.288 398.634 917.849 393.781C920.463 386.241 923.077 378.701 925.43 371.069C926.366 367.382 927.763 363.829 929.586 360.492C931.442 357.298 934.344 353.122 938.056 352.428Z" fill="#FF4568"/>
<path d="M897.277 471.919L902.139 472.089L903.172 464.746C903.303 463.273 903.647 461.826 904.191 460.452C904.996 459.003 905.932 457.631 906.988 456.354C911.772 449.587 911.419 440.646 912.608 432.385C914.19 421.415 918.764 411.152 923.286 401.059L932.749 379.997C934.623 376.418 935.525 372.409 935.363 368.372C935.455 365.112 936.409 353.278 936.5 350.045C936.5 348.841 933.886 349.508 933.298 348.435C932.122 346.092 930.501 352.441 928.292 353.828C926.083 355.216 924.855 357.755 923.927 360.19C921.888 365.492 920.646 371.069 918.699 376.423C916.751 381.777 914.164 387.039 909.89 390.823C907.955 392.524 905.733 393.86 903.904 395.679C898.035 401.491 897.46 410.668 897.251 418.954C897.146 423.811 896.153 471.919 897.277 471.919Z" fill="#2F2E41"/>
<path d="M967.23 343.644C962.511 345.503 959.924 350.634 958.603 355.556C957.283 360.478 956.734 365.741 954.199 370.152C948.265 380.481 933.156 383.492 928.987 394.658C927.68 398.31 927.68 402.316 927.301 406.204C926.543 414.202 923.916 421.913 923.145 429.924C922.733 436.139 922.877 442.377 923.576 448.566L928.804 511.649C929.575 520.813 929.549 530.539 927.222 539.389C932.568 540.423 938.136 539.035 943.089 536.771C948.043 534.506 952.578 531.39 957.349 528.759C965.557 524.217 974.614 521.009 981.803 514.961C983.105 513.946 984.22 512.71 985.096 511.309C986.534 508.822 986.665 505.798 987.344 502.997C987.964 500.757 988.755 498.569 989.71 496.451C992.343 490.093 994.638 483.6 996.585 476.998C997.922 472.621 998.974 468.16 999.735 463.646C1000.31 460.059 1000.62 456.42 1000.94 452.794C1001.32 447.112 1002.44 441.505 1004.28 436.116C1008.88 423.271 1011.48 409.798 1012.01 396.163C1012.16 394.195 1012.02 392.215 1011.6 390.286C1010.8 387.946 1009.73 385.706 1008.41 383.61C1006.22 379.473 1004.9 374.917 1002.83 370.702C998.153 361.211 989.88 353.998 981.228 347.964C977.019 345.018 972.052 341.759 967.23 343.644Z" fill="#2F2E41"/>
<path d="M856.826 446.562C853.073 444.589 849.676 442.001 846.775 438.904C845.468 437.36 844.371 435.618 843.024 434.1C839.631 430.469 835.221 427.95 830.373 426.874C825.563 425.816 820.644 425.337 815.721 425.447C812.427 425.237 809.121 425.636 805.971 426.625C804.395 427.141 802.976 428.05 801.847 429.266C800.718 430.482 799.915 431.965 799.515 433.576C798.796 437.504 801.358 441.313 804.429 443.839C807.289 446.177 810.655 447.813 814.258 448.618C817.194 449.126 820.157 449.472 823.132 449.652C840.62 451.484 856.225 461.014 871.491 469.694C884.953 477.33 898.672 484.46 912.648 491.084C913.199 486.888 913.43 482.656 913.341 478.425C913.262 475.27 913.105 470.453 910.125 468.594C906.662 466.434 900.977 465.976 897.056 464.667C888.047 461.708 879.248 458.144 870.72 453.998C866.006 451.685 861.375 449.207 856.826 446.562Z" fill="#FBBEBE"/>
<path d="M964.212 324.901C968.611 308.141 958.686 291.001 942.043 286.619C925.4 282.236 908.342 292.271 903.942 309.031C899.543 325.791 909.468 342.931 926.111 347.313C942.754 351.696 959.812 341.661 964.212 324.901Z" fill="#FBBEBE"/>
<path d="M976.142 379.224C973.358 382.47 971.96 386.659 970.091 390.508C966.248 398.441 960.21 405.248 957.191 413.547C954.002 422.292 954.106 432.686 947.859 439.559C946.774 440.75 945.467 441.902 945.153 443.486C945.11 444.448 945.001 445.406 944.826 446.353C943.938 448.84 939.86 448.971 939.102 451.51C938.88 452.257 938.997 453.068 938.723 453.801C938.095 455.438 935.939 455.686 934.488 456.681C931.456 458.736 932.07 463.501 929.914 466.473C928.967 467.585 927.741 468.424 926.362 468.902C924.984 469.381 923.502 469.482 922.072 469.196C919.239 468.614 916.514 467.594 913.994 466.172C913.1 465.674 912.112 465.367 911.093 465.269C909.885 465.307 908.716 465.703 907.734 466.408C901.983 470.073 899.278 477.338 899.317 484.198C899.356 491.057 901.709 497.655 904.114 504.069C904.446 505.151 904.988 506.156 905.708 507.028C907.616 509.044 910.936 508.73 913.472 507.604C916.007 506.478 918.308 504.711 921.026 504.213C925.849 503.336 930.567 506.661 935.403 506.387C938.984 506.177 942.16 504.096 945.127 502.08C949.884 498.859 954.72 495.534 958.197 490.979C960.34 488.177 961.909 484.996 963.778 481.999C966.169 478.346 968.789 474.848 971.62 471.526L989.578 449.508C991.381 447.423 992.999 445.184 994.414 442.818C996.048 439.622 997.311 436.249 998.178 432.765C999.89 426.887 1001.62 420.983 1001.9 414.843C1002 409.806 1001.56 404.772 1000.6 399.828C999.976 394.9 998.656 390.087 996.675 385.533C992.976 377.365 983.474 370.649 976.142 379.224Z" fill="#2F2E41"/>
<path d="M1030.46 365.217C1031.9 359.844 1032.04 354.205 1030.88 348.766C1029.71 343.327 1027.28 338.242 1023.77 333.93C1028.54 313.548 1018.15 293.14 999.851 285.586C1000.5 266.474 988.415 248.932 969.79 244.01C950.433 238.918 930.58 249.155 922.228 267.351C910.465 261.238 898.023 261.892 893.919 269.079C889.632 276.593 896.075 288.414 908.296 295.47C912.148 297.724 916.363 299.288 920.751 300.091C922.636 305.43 925.616 310.315 929.499 314.432C933.382 318.549 938.082 321.806 943.297 323.994C942.975 331.722 944.811 339.386 948.597 346.127C952.383 352.867 957.971 358.417 964.732 362.154C965.471 367.525 967.453 372.649 970.522 377.116C970.162 378.054 969.857 379.011 969.607 379.983C965.764 394.579 974.077 409.424 988.153 413.129C1002.23 416.833 1016.76 408.01 1020.59 393.414C1021.62 389.523 1021.8 385.455 1021.12 381.489C1025.63 377.004 1028.86 371.383 1030.46 365.217V365.217Z" fill="#3F3D56"/>
<path opacity="0.1" d="M901.982 272.875C906.086 265.688 918.515 265.021 930.291 271.147C938.617 252.951 958.496 242.701 977.853 247.807C978.728 248.029 979.591 248.304 980.467 248.592C977.156 246.547 973.563 245.003 969.802 244.01C950.445 238.918 930.592 249.155 922.24 267.351C910.477 261.238 898.034 261.892 893.931 269.079C889.644 276.593 896.087 288.414 908.307 295.47C910.601 296.792 913.017 297.888 915.522 298.742C903.838 291.595 897.799 280.206 901.982 272.875Z" fill="black"/>
<path opacity="0.1" d="M977.686 383.779C977.936 382.807 978.241 381.85 978.601 380.912C975.532 376.441 973.549 371.312 972.811 365.937C966.05 362.204 960.462 356.656 956.675 349.918C952.889 343.179 951.054 335.516 951.376 327.79C946.161 325.602 941.46 322.345 937.577 318.228C933.694 314.112 930.715 309.226 928.83 303.887C926.271 303.43 923.769 302.697 921.367 301.701C923.363 306.681 926.329 311.214 930.092 315.035C933.856 318.856 938.34 321.888 943.286 323.955C942.964 331.682 944.799 339.347 948.585 346.087C952.372 352.828 957.959 358.378 964.72 362.114C965.459 367.486 967.442 372.61 970.51 377.077C970.151 378.014 969.845 378.971 969.595 379.944C965.766 394.487 974.013 409.28 988.011 413.05C983.523 409.801 980.131 405.259 978.286 400.029C976.441 394.8 976.232 389.131 977.686 383.779V383.779Z" fill="black"/>
<path d="M947.517 327.766C949.626 326.161 949.598 322.568 947.455 319.741C945.311 316.915 941.863 315.924 939.753 317.529C937.644 319.134 937.671 322.727 939.815 325.553C941.959 328.38 945.407 329.371 947.517 327.766Z" fill="#FBBEBE"/>
<path d="M564.359 51.4991C576.118 51.4991 585.65 41.9516 585.65 30.1743C585.65 18.397 576.118 8.84961 564.359 8.84961C552.601 8.84961 543.068 18.397 543.068 30.1743C543.068 41.9516 552.601 51.4991 564.359 51.4991Z" fill="#3F3D56"/>
<path d="M610.56 154.994C643.541 154.994 670.277 120.297 670.277 77.4968C670.277 34.6965 643.541 0 610.56 0C577.58 0 550.844 34.6965 550.844 77.4968C550.844 120.297 577.58 154.994 610.56 154.994Z" fill="#3F3D56"/>
<path opacity="0.1" d="M610.564 131.588C580.647 131.588 555.866 103.037 551.514 65.7939C551.061 69.6785 550.834 73.5861 550.834 77.497C550.834 120.29 577.575 154.994 610.564 154.994C643.552 154.994 670.28 120.29 670.28 77.497C670.28 73.5861 670.053 69.6785 669.601 65.7939C665.261 103.089 640.481 131.588 610.564 131.588Z" fill="black"/>
<path d="M737.813 304.463C736.506 309.699 731.003 313.966 724.887 316.912C712 323.13 696.133 324.976 680.723 325.604C676.803 325.842 672.869 325.768 668.96 325.382C660.896 324.426 653.42 320.983 648.754 316.074C648.089 315.538 647.627 314.789 647.447 313.953C647.48 313.452 647.612 312.962 647.837 312.512C648.061 312.062 648.373 311.662 648.754 311.335C656.975 302.355 670.673 296.831 684.422 292.904C694.878 289.88 713.098 282.051 724.508 283.112C735.591 284.067 739.434 297.786 737.813 304.463Z" fill="#3F3D56"/>
<path opacity="0.1" d="M737.813 304.463C736.506 309.699 731.003 313.966 724.887 316.912C712 323.13 696.133 324.976 680.723 325.604C676.803 325.842 672.869 325.768 668.96 325.382C660.896 324.426 653.42 320.983 648.754 316.074C648.089 315.538 647.627 314.789 647.447 313.953C647.48 313.452 647.612 312.962 647.837 312.512C648.061 312.062 648.373 311.662 648.754 311.335C656.975 302.355 670.673 296.831 684.422 292.904C694.878 289.88 713.098 282.051 724.508 283.112C735.591 284.067 739.434 297.786 737.813 304.463Z" fill="black"/>
<path opacity="0.9" d="M574.098 265.008C570.178 272.71 569.469 281.654 572.124 289.88C574.832 298.059 579.904 305.249 586.697 310.537C603.388 323.955 626.286 325.801 647.63 325.631C666.344 325.462 685.033 324.177 703.595 321.782C709.777 320.983 716.025 320.041 721.749 317.567C728.716 314.543 734.819 309.005 737.316 301.858C739.812 294.71 738.047 285.861 732.088 281.07C726.86 276.855 719.763 276.279 713.11 275.834L675.011 273.543C678.775 269.72 683.781 267.56 688.369 264.798C694.446 261.107 698.485 254.928 702.915 249.364C709.45 241.039 717.292 233.76 725.134 226.521C726.441 233.642 730.872 239.494 736.165 244.416C741.459 249.338 747.562 253.291 753.078 257.965C766.409 269.301 776.003 284.696 790.027 295.169C799.674 292.628 808.694 288.117 816.519 281.921L811.069 272.037C810.622 271.002 809.915 270.1 809.017 269.419C807.462 268.477 805.475 268.961 803.685 268.699C798.901 267.979 796.81 262.442 794.928 257.978C789.778 245.699 779.897 236.182 771.402 225.893C765.206 218.307 759.716 210.17 754.999 201.583C752.163 196.465 749.575 191.111 745.72 186.699C741.864 182.288 736.492 178.845 730.637 178.845C725.409 178.845 720.704 181.463 716.26 184.081C702.723 192.136 689.698 201.025 677.259 210.694C670.724 215.747 664.281 221.101 656.648 224.204C653.433 225.513 650.113 226.403 646.963 227.987C641.565 230.775 637.461 235.488 633.044 239.664C617.307 254.574 595.755 264.235 574.098 265.008Z" fill="#392E00"/>
<path d="M653.773 158.842C653.603 163.405 652.634 167.902 650.91 172.129C650.038 174.229 648.742 176.126 647.105 177.703C645.468 179.28 643.525 180.501 641.395 181.292C638.366 182.106 635.191 182.209 632.116 181.594C629.428 181.303 626.841 180.408 624.548 178.975C620.98 176.514 619.202 172.129 618.549 167.835C617.895 163.542 618.196 159.156 617.778 154.836C617.371 151.345 616.707 147.888 615.791 144.495C615.517 143.369 615.229 142.243 614.942 141.117C614.654 139.991 614.406 138.866 614.157 137.74C613.909 136.614 613.713 135.632 613.53 134.559C613.347 133.485 613.243 132.752 613.151 131.849C613.068 129.15 612.628 126.474 611.844 123.89C611.1 122.217 610.166 120.636 609.06 119.177C608.59 118.496 608.132 117.868 607.753 117.122C606.537 115.298 605.97 113.116 606.146 110.93C606.196 110.591 606.279 110.258 606.394 109.935C606.434 109.81 606.482 109.688 606.538 109.569C607.004 109.441 607.432 109.201 607.785 108.87C608.138 108.539 608.405 108.128 608.564 107.671C608.742 106.684 608.657 105.668 608.315 104.725C607.931 103.409 607.401 102.14 606.734 100.942C606.302 100.156 604.826 98.7296 604.812 97.8263C604.812 96.0067 608.341 94.5406 609.779 93.8206C614.171 91.6142 619.07 90.6201 623.973 90.9406C627.11 91.1501 630.508 92.1188 632.246 94.7631C633.815 97.1325 633.553 100.209 634.272 102.971C634.332 103.374 634.499 103.754 634.756 104.071C635.097 104.381 635.526 104.578 635.984 104.633C636.75 104.788 637.535 104.819 638.311 104.725V104.725C638.518 104.714 638.724 104.683 638.925 104.633C640.134 104.41 641.277 103.918 642.271 103.193C642.924 103.01 643.578 102.879 644.218 102.762H644.297C646.911 110.982 647.238 119.779 649.368 128.184C650.427 132.346 651.982 136.457 652.152 140.751C652.152 140.934 652.152 141.13 652.152 141.314C652.152 142.701 652.073 144.089 652.152 145.463C652.176 146.079 652.245 146.691 652.361 147.296C652.597 148.271 652.885 149.232 653.224 150.176C653.315 150.477 653.407 150.778 653.485 151.092C653.55 151.312 653.602 151.535 653.642 151.76V151.76C654.025 154.102 654.069 156.487 653.773 158.842V158.842Z" fill="#FBBEBE"/>
<path d="M617.333 105.066C634.253 105.066 647.969 91.328 647.969 74.3813C647.969 57.4347 634.253 43.6968 617.333 43.6968C600.413 43.6968 586.697 57.4347 586.697 74.3813C586.697 91.328 600.413 105.066 617.333 105.066Z" fill="#FBBEBE"/>
<path d="M811.853 241.575C810.961 233.212 807.991 225.205 803.214 218.287L805.606 232.49C804.614 232.775 803.56 232.765 802.574 232.46C801.588 232.156 800.711 231.57 800.051 230.776C798.759 229.162 797.771 227.325 797.137 225.356C793.656 216.703 789.102 208.522 783.583 201.007C764.083 199.371 744.792 191.281 727.644 181.829C710.496 172.378 694.433 161.081 677.494 151.25C674.558 149.476 671.5 147.91 668.345 146.563C663.052 144.442 657.105 143.343 652.086 140.843L651.08 140.306C649.942 139.695 648.866 138.976 647.865 138.159C647.327 137.714 646.816 137.238 646.336 136.732C643.829 133.815 641.84 130.49 640.454 126.901C637.762 120.932 636.795 113.719 634.115 107.749C635.351 106.597 636.736 105.615 638.232 104.83V104.83L638.886 104.503C639.951 104.005 641.057 103.602 642.192 103.298C642.846 103.115 643.499 102.984 644.14 102.866H644.218C647.256 102.376 650.366 102.623 653.289 103.586C657.55 105.04 661.131 107.919 664.738 110.655C670.424 114.962 676.331 119.02 681.494 123.956C684.448 126.796 687.153 129.912 690.329 132.491C692.977 134.538 695.768 136.393 698.681 138.041L750.359 168.87C756.189 172.339 762.031 175.821 767.729 179.512C776.395 185.102 784.72 191.163 793.085 197.224L807.841 207.932C809.457 208.982 810.874 210.312 812.023 211.859C813.035 213.595 813.663 215.528 813.866 217.528C815.092 225.591 814.403 233.83 811.853 241.575V241.575Z" fill="#FBBEBE"/>
<path d="M661.378 181.922C659.3 191.203 649.942 196.819 645.041 204.974C638.95 215.093 641.433 226.862 643.734 238.46L631.2 249.273C628.899 251.25 626.586 253.2 624.116 254.994C620.493 257.433 616.707 259.62 612.784 261.539L601.701 267.247C598.262 269.181 594.62 270.727 590.84 271.855C583.547 273.726 575.809 272.417 568.621 270.257C567.77 270.035 566.952 269.701 566.19 269.263C565.741 268.992 565.351 268.637 565.04 268.215C564.323 266.94 564.065 265.456 564.308 264.013C565.04 251.865 568.006 239.966 570.96 228.158C572.512 221.067 574.614 214.107 577.247 207.344C579.84 201.554 582.823 195.947 586.174 190.561C590.095 183.924 594.016 177.235 599.244 171.541C601.479 169.08 603.975 166.749 605.308 163.686C607.151 159.471 606.432 154.641 606.811 150.059C607.094 146.61 608.006 143.242 609.503 140.123V140.123C610.304 138.444 611.267 136.848 612.379 135.358C612.889 136.536 613.385 137.714 613.895 138.879L614.875 141.183C615.306 142.165 615.725 143.16 616.182 144.142C617.402 146.952 618.613 149.766 619.816 152.585C621.113 156.136 622.971 159.455 625.318 162.416C627.814 165.244 631.487 167.299 635.225 166.893C636.981 166.6 638.649 165.919 640.109 164.901C641.569 163.882 642.785 162.55 643.668 161.003C645.419 157.903 646.685 154.552 647.419 151.067C648.449 146.826 648.592 142.418 647.838 138.12C646.531 129.834 643.067 121.377 640.518 113.68C639.479 111.115 638.878 108.394 638.741 105.629C638.739 105.317 638.77 105.005 638.832 104.7V104.464C639.897 103.966 641.004 103.563 642.139 103.26C642.793 103.076 643.446 102.945 644.087 102.828C646.335 115.046 648.587 127.237 650.844 139.403C650.844 139.691 650.961 139.979 651.014 140.267C651.327 142.021 651.654 143.762 652.02 145.503C652.386 147.244 652.7 148.658 653.092 150.216C653.222 150.74 653.366 151.276 653.51 151.8C653.915 153.24 654.359 154.654 654.817 156.067C658.006 164.616 663.325 173.138 661.378 181.922Z" fill="#FF4568"/>
<path d="M785.726 312.396C785.613 314.198 785.959 316 786.732 317.632C788.641 321.14 793.267 321.939 797.188 322.266C820.445 324.186 843.845 323.475 866.943 320.145C868.197 320.054 869.414 319.673 870.498 319.033C873.778 316.729 871.805 311.113 868.171 309.306C864.538 307.5 860.329 307.997 856.408 307.173C852.497 306.182 848.772 304.564 845.377 302.381C837.405 297.791 829.563 292.991 821.851 287.982C817.238 285.01 811.787 281.842 806.599 283.609C792.496 288.374 785.621 297.197 785.726 312.396Z" fill="#2F2E41"/>
<path d="M614.276 137.125L614.158 137.766L613.962 138.84C613.322 142.139 612.524 145.385 611.623 148.697C609.126 157.717 605.793 166.605 602.474 175.35L575.798 245.778C573.55 251.695 571.315 257.559 568.766 263.398C567.917 265.322 567.041 267.325 566.152 269.236C563.028 276.266 560.022 283.531 559.029 291.032C558.376 295.993 557.722 301.059 558.702 305.968C559.683 310.877 562.623 315.682 567.342 317.488C569.616 318.378 572.87 319.57 572.243 321.939C571.916 323.248 570.439 323.877 569.106 324.086C567.358 324.368 565.569 324.26 563.868 323.769C562.166 323.278 560.594 322.416 559.264 321.245C556.781 319.046 554.86 315.603 551.553 315.237C549.266 314.988 547.162 316.362 545.018 317.318C536.457 321.245 526.498 318.496 517.506 315.708C518.212 312.069 521.871 309.66 525.492 308.94C529.112 308.22 532.876 308.718 536.588 308.626C537.775 308.688 538.953 308.382 539.96 307.749C540.87 306.934 541.52 305.868 541.829 304.686C544.211 297.607 545.982 290.337 547.122 282.955C548.325 275.232 548.821 267.403 550.521 259.785C551.828 253.841 553.893 248.081 555.644 242.243C559.044 230.227 561.831 218.046 563.996 205.746C565.092 200.641 565.878 195.474 566.348 190.273C566.649 185.953 566.505 181.607 566.923 177.313C567.617 171.719 568.78 166.192 570.4 160.793C571.994 154.889 573.576 149.011 575.17 143.12C577.523 134.402 580.046 125.356 586.005 118.588C588.074 116.203 590.611 114.269 593.457 112.907C596.304 111.544 599.399 110.782 602.552 110.669C603.734 110.663 604.914 110.791 606.068 111.048L606.643 111.192C607.905 111.518 609.115 112.02 610.237 112.685C612.08 111.506 613.008 111.925 614.237 113.719C615.303 115.634 615.806 117.813 615.687 120.002C615.781 125.742 615.309 131.478 614.276 137.125Z" fill="#FBBEBE"/>
<path d="M616.289 144.076L616.211 144.155L615.793 144.574L611.623 148.75L609.571 140.136L602.553 110.629C603.735 110.624 604.914 110.751 606.069 111.009C606.119 110.67 606.202 110.337 606.317 110.014L606.644 111.153L609.022 119.256L613.532 134.638L614.277 137.177L616.289 144.076Z" fill="#FF4568"/>
<path d="M639.694 29.127H604.588C595.926 29.127 588.904 36.16 588.904 44.8358V55.0334C588.904 63.7092 595.926 70.7422 604.588 70.7422H639.694C648.356 70.7422 655.378 63.7092 655.378 55.0334V44.8358C655.378 36.16 648.356 29.127 639.694 29.127Z" fill="#3F3D56"/>
<path d="M659.264 51.4991C671.022 51.4991 680.555 41.9516 680.555 30.1743C680.555 18.397 671.022 8.84961 659.264 8.84961C647.505 8.84961 637.973 18.397 637.973 30.1743C637.973 41.9516 647.505 51.4991 659.264 51.4991Z" fill="#3F3D56"/>
<path opacity="0.1" d="M658.751 8.83615H657.967C663.45 9.072 668.631 11.4197 672.428 15.3894C676.225 19.3591 678.344 24.644 678.344 30.1412C678.344 35.6385 676.225 40.9234 672.428 44.8931C668.631 48.8627 663.45 51.2105 657.967 51.4463H658.751C664.398 51.4463 669.813 49.1996 673.806 45.2004C677.799 41.2013 680.042 35.7773 680.042 30.1216C680.042 24.4659 677.799 19.0419 673.806 15.0427C669.813 11.0436 664.398 8.79688 658.751 8.79688V8.83615Z" fill="black"/>
<path opacity="0.1" d="M564.359 8.83615H565.143C559.66 9.072 554.479 11.4197 550.682 15.3894C546.886 19.3591 544.766 24.644 544.766 30.1412C544.766 35.6385 546.886 40.9234 550.682 44.8931C554.479 48.8627 559.66 51.2105 565.143 51.4463H564.359C561.563 51.4463 558.795 50.8947 556.212 49.8231C553.628 48.7514 551.281 47.1806 549.304 45.2004C547.327 43.2203 545.759 40.8694 544.689 38.2822C543.619 35.695 543.068 32.922 543.068 30.1216C543.068 27.3212 543.619 24.5482 544.689 21.961C545.759 19.3737 547.327 17.0229 549.304 15.0427C551.281 13.0626 553.628 11.4918 556.212 10.4201C558.795 9.34846 561.563 8.79687 564.359 8.79688V8.83615Z" fill="black"/>
<path opacity="0.1" d="M656.033 66.5661H602.08C600.429 66.5661 598.845 65.9101 597.676 64.7419C596.508 63.5737 595.849 61.9888 595.846 60.335V64.4847C595.849 66.1397 596.507 67.726 597.676 68.8962C598.844 70.0665 600.428 70.7255 602.08 70.729H656.085C657.738 70.7255 659.321 70.0665 660.49 68.8962C661.658 67.726 662.316 66.1397 662.32 64.4847V60.335C662.316 61.1578 662.151 61.9719 661.833 62.7306C661.515 63.4893 661.051 64.1778 660.467 64.7566C659.883 65.3354 659.19 65.7931 658.43 66.1036C657.669 66.4141 656.854 66.5713 656.033 66.5661V66.5661Z" fill="black"/>
<path d="M839.064 284.853C839.064 284.853 842.436 285.442 842.985 282.706C843.26 281.397 842.332 272.993 841.273 264.589C840.763 260.452 840.214 256.329 839.77 253.03C839.234 248.985 838.842 246.196 838.842 246.196L838.228 244.154L834.594 231.928L831.17 220.408L828.648 215.878L810.494 224.728L799.201 244.272L802.704 246.484L803.318 246.877L809.762 253.632L827.824 272.613L835.954 281.162L836.908 282.157L839.064 284.853Z" fill="#FFE09C"/>
<path d="M824.794 208.103C824.794 208.103 804.901 217.449 800.117 227.608C800.117 227.608 795.647 236.156 795.085 240.698C795.085 240.698 793.778 244.848 802.026 245.869C802.026 245.869 805.777 230.619 817.03 223.995L828.296 217.384L824.794 208.103Z" fill="#795548"/>
<path d="M829.976 231.567C830.946 227.941 829.247 224.334 826.18 223.511C823.113 222.688 819.84 224.959 818.87 228.585C817.9 232.211 819.599 235.817 822.666 236.641C825.733 237.464 829.006 235.192 829.976 231.567Z" fill="#FF4568"/>
<path d="M827.817 255.267C828.778 251.655 827.08 248.066 824.025 247.251C820.97 246.436 817.714 248.703 816.753 252.314C815.793 255.926 817.49 259.515 820.545 260.33C823.6 261.146 826.856 258.879 827.817 255.267Z" fill="#FF4568"/>
<path d="M809.761 253.632C810.804 253.208 811.73 252.542 812.464 251.688C813.198 250.835 813.719 249.818 813.983 248.723C814.95 245.11 813.251 241.51 810.193 240.698C807.134 239.887 803.88 242.152 802.926 245.765C802.851 246.009 802.794 246.258 802.756 246.511L803.37 246.903L809.761 253.632Z" fill="#FF4568"/>
<path d="M834.059 244.901C834.775 245.082 835.522 245.109 836.25 244.981C836.977 244.852 837.67 244.571 838.281 244.154L834.647 231.928C833.565 232.33 832.598 232.993 831.832 233.858C831.066 234.724 830.525 235.765 830.256 236.889C829.302 240.541 831.001 244.089 834.059 244.901Z" fill="#FF4568"/>
<path d="M836.164 266.055C837.078 266.271 838.032 266.25 838.936 265.994C839.839 265.737 840.662 265.254 841.327 264.589C840.817 260.453 840.268 256.329 839.824 253.03H839.654C836.595 252.205 833.341 254.483 832.374 258.096C831.407 261.709 833.119 265.244 836.164 266.055Z" fill="#FF4568"/>
<path d="M835.954 281.123C836.329 280.489 836.615 279.806 836.803 279.094C837.771 275.481 836.072 271.894 833.013 271.082C832.087 270.857 831.119 270.877 830.203 271.138C829.287 271.4 828.454 271.895 827.785 272.574L835.954 281.123Z" fill="#FF4568"/>
<path d="M826.974 226.377L829.065 226.94C828.243 228.455 827.757 230.129 827.64 231.849C827.634 231.962 827.634 232.076 827.64 232.189C827.915 234.349 825.549 231.626 825.549 231.626C825.549 231.626 825.954 227.189 826.974 226.377Z" fill="#94CC79"/>
<path d="M817.447 239.887L819.551 240.45C818.722 241.957 818.236 243.628 818.126 245.346C818.12 245.459 818.12 245.573 818.126 245.686C818.401 247.846 816.035 245.123 816.035 245.123C816.035 245.123 816.427 240.685 817.447 239.887Z" fill="#94CC79"/>
<path d="M823.954 244.351L826.045 244.9C825.223 246.415 824.738 248.089 824.621 249.809C824.614 249.923 824.614 250.036 824.621 250.15C824.908 252.31 822.529 249.587 822.529 249.587C822.529 249.587 822.961 245.149 823.954 244.351Z" fill="#94CC79"/>
<path d="M832.32 255.622L834.424 256.171C833.596 257.684 833.11 259.359 832.999 261.08C832.993 261.194 832.993 261.307 832.999 261.421C833.274 263.581 830.908 260.858 830.908 260.858C830.908 260.858 831.313 256.42 832.32 255.622Z" fill="#94CC79"/>
<path d="M837.534 274.171L839.625 274.734C838.805 276.245 838.319 277.915 838.2 279.63C838.194 279.744 838.194 279.857 838.2 279.971C838.488 282.131 836.109 279.421 836.109 279.421C836.109 279.421 836.515 274.97 837.534 274.171Z" fill="#94CC79"/>
<path d="M826.189 261.198L828.281 261.761C827.455 263.291 826.977 264.986 826.882 266.723C826.875 266.836 826.875 266.95 826.882 267.063C827.157 269.223 824.791 266.513 824.791 266.513C824.791 266.513 825.183 261.997 826.189 261.198Z" fill="#94CC79"/>
<path d="M831.262 209.831C831.262 209.831 828.269 203.037 824.727 208.103C825.025 212.216 826.375 216.183 828.648 219.623C828.648 219.623 839.483 249.142 838.581 253.659C838.581 253.659 842.854 282.17 841.796 283.767C841.796 283.767 842.972 285.783 843.809 278.204C844.645 270.624 840.973 248.357 840.973 248.357L835.601 225.213L832.007 217.358L831.262 209.831Z" fill="#E7C4C3"/>
<path opacity="0.2" d="M831.262 209.831C831.262 209.831 828.269 203.037 824.727 208.103C825.025 212.216 826.375 216.183 828.648 219.623C828.648 219.623 839.483 249.142 838.581 253.659C838.581 253.659 842.854 282.17 841.796 283.767C841.796 283.767 842.972 285.783 843.809 278.204C844.645 270.624 840.973 248.357 840.973 248.357L835.601 225.213L832.007 217.358L831.262 209.831Z" fill="white"/>
<path d="M795.32 221.089C795.32 221.089 800.692 236.588 805.606 232.465L801.685 212.213L795.32 221.089Z" fill="#FBBEBE"/>
<path d="M427.924 284.749C427.924 284.749 475.303 364.693 486.373 375.375C486.373 375.375 533.713 424.596 509.651 421.193C507.886 420.944 473.238 391.608 471.212 386.79C469.186 381.973 403.68 296.74 403.68 296.74L413.025 288.126L427.924 284.749Z" fill="#A0616A"/>
<path opacity="0.1" d="M427.924 284.749C427.924 284.749 475.303 364.693 486.373 375.375C486.373 375.375 533.713 424.596 509.651 421.193C507.886 420.944 473.238 391.608 471.212 386.79C469.186 381.973 403.68 296.74 403.68 296.74L413.025 288.126L427.924 284.749Z" fill="black"/>
<path d="M471.25 545.842C471.25 545.842 456.089 564.824 462.415 572.417C468.741 580.009 500.252 594.527 510.421 593.925C521.164 593.296 557.172 595.234 558.44 578.739C558.44 578.739 560.962 571.147 528.117 569.877C495.273 568.607 505.363 534.44 505.363 534.44L471.25 545.842Z" fill="#1B1B1E"/>
<path d="M290.57 385.115C290.57 385.115 275.409 436.993 320.893 445.856L370.166 443.329C370.166 443.329 439.659 429.401 458.624 439.533C458.624 439.533 466.204 440.842 463.669 450.922C461.133 461.002 467.459 529.387 467.459 529.387V552.165C467.459 552.165 510.42 552.165 515.478 547.099C515.478 547.099 511.688 526.848 515.478 510.445C519.268 494.042 509.165 442.099 509.165 442.099L508.159 410.93C508.082 407.067 506.98 403.295 504.965 400C502.951 396.706 500.097 394.008 496.697 392.184C494.307 390.917 491.65 390.239 488.946 390.207C488.946 390.207 403.024 376.292 372.702 378.818C342.38 381.345 290.57 385.115 290.57 385.115Z" fill="#FDCA05" fill-opacity="0.9"/>
<path d="M375.224 219.321C375.224 219.321 397.966 245.895 400.488 254.758C403.011 263.62 430.863 286.359 430.863 286.359C430.863 286.359 410.644 301.544 414.434 309.136C418.224 316.729 387.902 283.832 387.902 283.832L352.443 231.98L375.224 219.321Z" fill="#FF4568"/>
<path opacity="0.1" d="M388.781 224C388.781 224 411.523 250.574 414.045 259.436C416.568 268.299 444.42 291.037 444.42 291.037C444.42 291.037 424.2 306.223 427.991 313.815C431.781 321.408 401.459 288.511 401.459 288.511L366 236.659L388.781 224Z" fill="#FF4568"/>
<path d="M390.346 188.951C390.346 188.951 378.975 225.605 378.975 239.573C378.975 253.54 330.956 235.776 332.224 228.184C333.492 220.591 360.024 192.747 361.291 181.358C362.559 169.969 390.346 188.951 390.346 188.951Z" fill="#A0616A"/>
<path opacity="0.1" d="M352.446 214.255C352.446 214.255 308.217 202.866 301.905 267.417C295.592 331.967 306.95 339.546 287.998 378.779C269.047 418.012 416.881 383.845 416.881 383.845C416.881 383.845 409.3 374.983 385.291 378.779L373.92 344.612C373.92 344.612 370.13 329.427 391.617 329.427C413.104 329.427 402.988 285.128 402.988 285.128C402.988 285.128 391.617 247.165 385.291 243.369C378.965 239.573 367.647 216.795 352.446 214.255Z" fill="black"/>
<path d="M352.446 211.742C352.446 211.742 308.217 200.353 301.905 264.89C295.592 329.427 306.95 337.033 287.998 376.266C269.047 415.498 416.881 381.332 416.881 381.332C416.881 381.332 409.3 372.469 385.291 376.266L373.92 342.099C373.92 342.099 370.169 326.94 391.656 326.94C413.143 326.94 403.027 282.641 403.027 282.641C403.027 282.641 391.656 244.678 385.33 240.882C379.004 237.085 367.647 214.255 352.446 211.742Z" fill="#FF4568"/>
<path d="M379.017 211.729C402.044 211.729 420.711 193.032 420.711 169.969C420.711 146.906 402.044 128.21 379.017 128.21C355.991 128.21 337.324 146.906 337.324 169.969C337.324 193.032 355.991 211.729 379.017 211.729Z" fill="#A0616A"/>
<path d="M370.965 383.793L475.747 446.524L573.235 355.543L457.017 315.001L373.383 372.024L370.965 383.793Z" fill="#DADAE5"/>
<path d="M494.619 208.194L462.01 305.327L570.124 336.47L616.274 205.118L494.619 208.194Z" fill="#DADAE5"/>
<path opacity="0.03" d="M485.916 201.021L494.764 209.124L616.42 206.047L619.216 198.088L485.916 201.021Z" fill="black"/>
<path opacity="0.03" d="M453.801 299.737L485.914 201.02L494.762 209.123L462.976 303.821L453.801 299.737Z" fill="black"/>
<path d="M485.771 200.092L494.62 208.195L616.275 205.118L619.072 197.159L485.771 200.092Z" fill="#EFF0F4"/>
<path d="M453.658 298.821L485.771 200.091L494.619 208.194L462.833 302.892L453.658 298.821Z" fill="#EFF0F4"/>
<path opacity="0.03" d="M485.771 200.091L499.299 212.763L620.967 209.687L619.072 197.159L485.771 200.091Z" fill="black"/>
<path opacity="0.03" d="M453.658 298.821L485.771 200.091L499.298 212.763L467.512 307.461L453.658 298.821Z" fill="black"/>
<path opacity="0.03" d="M453.867 300.208L456.821 318.994L573.758 359.653L570.347 337.857L453.867 300.208Z" fill="black"/>
<path opacity="0.03" d="M367.424 361.944L453.868 300.208L457.646 318.981L372.73 382.235L367.424 361.944Z" fill="black"/>
<path d="M453.658 298.821L456.194 315.014L573.131 355.674L570.125 336.47L453.658 298.821Z" fill="#EFF0F4"/>
<path d="M367.201 360.543L453.659 298.821L457.018 315.001L372.102 378.255L367.201 360.543Z" fill="#EFF0F4"/>
<path opacity="0.03" d="M453.658 298.821L456.194 315.014L573.131 355.674L570.125 336.47L453.658 298.821Z" fill="black"/>
<path opacity="0.03" d="M367.201 360.543L453.659 298.821L457.018 315.001L372.102 378.255L367.201 360.543Z" fill="black"/>
<path d="M367.201 360.544L371.109 383.885L475.603 446.419L473.029 422.397L367.201 360.544Z" fill="#CCCAD6"/>
<path d="M414.813 356.852C414.813 356.852 412.997 360.321 415.767 361.918C417.074 362.677 426.524 364.536 436.013 366.316C440.666 367.18 445.332 368.018 449.083 368.673C453.657 369.484 456.82 369.982 456.82 369.982H459.225L473.759 370.257L487.43 370.519L493.22 369.327L489.887 346.576L472.582 327.529L468.962 330.592L468.348 331.116L458.833 335.75L431.987 348.84L419.911 354.731L418.499 355.425L414.813 356.852Z" fill="#FFE09C"/>
<path d="M502.997 367.835C502.997 367.835 499.742 342.963 490.358 334.245C490.358 334.245 482.647 326.39 477.902 324.243C477.902 324.243 473.864 321.376 469.891 330.016C469.891 330.016 485.143 339.363 488.437 353.907L491.717 368.451L502.997 367.835Z" fill="#795548"/>
<path d="M484.654 358.957C486.597 355.911 485.262 351.58 481.673 349.284C478.084 346.987 473.6 347.595 471.657 350.642C469.714 353.688 471.048 358.019 474.637 360.316C478.226 362.612 482.711 362.004 484.654 358.957Z" fill="#FF4568"/>
<path d="M460.814 353.555C462.757 350.509 461.422 346.178 457.833 343.882C454.244 341.585 449.76 342.193 447.817 345.24C445.874 348.286 447.208 352.617 450.797 354.914C454.386 357.21 458.871 356.602 460.814 353.555Z" fill="#FF4568"/>
<path d="M458.832 335.763C458.933 337.051 459.343 338.295 460.025 339.391C460.707 340.487 461.643 341.402 462.753 342.06C466.334 344.351 470.817 343.748 472.751 340.751C474.686 337.753 473.366 333.381 469.772 331.09C469.526 330.933 469.273 330.789 469.014 330.658L468.399 331.181L458.832 335.763Z" fill="#FF4568"/>
<path d="M459.878 365.204C459.433 365.922 459.144 366.725 459.029 367.562C458.914 368.398 458.976 369.25 459.211 370.061L473.745 370.336C473.689 369.004 473.301 367.707 472.616 366.564C471.931 365.42 470.971 364.467 469.824 363.79C466.295 361.552 461.812 362.167 459.878 365.204Z" fill="#FF4568"/>
<path d="M436.197 360.19C435.645 361.11 435.338 362.157 435.306 363.23C435.273 364.303 435.518 365.366 436.014 366.317C440.667 367.181 445.333 368.019 449.084 368.673L449.202 368.503C451.136 365.466 449.803 361.133 446.222 358.842C442.641 356.551 438.145 357.153 436.197 360.19Z" fill="#FF4568"/>
<path d="M419.912 354.757C420.472 355.382 421.114 355.929 421.82 356.381C425.401 358.672 429.884 358.069 431.819 355.072C432.375 354.148 432.683 353.096 432.713 352.018C432.743 350.939 432.493 349.872 431.989 348.919L419.912 354.757Z" fill="#FF4568"/>
<path d="M482.414 363.895L481.107 365.976C479.753 364.56 478.107 363.457 476.284 362.743L475.905 362.651C473.461 362.206 477.212 360.57 477.212 360.57C477.212 360.57 481.904 362.52 482.414 363.895Z" fill="#009688"/>
<path d="M471.053 348.867L469.746 350.961C468.394 349.54 466.748 348.432 464.923 347.715L464.544 347.623C462.113 347.191 465.851 345.542 465.851 345.542C465.851 345.542 470.543 347.492 471.053 348.867Z" fill="#009688"/>
<path d="M463.969 354.43L462.662 356.511C461.308 355.096 459.662 353.992 457.839 353.278L457.46 353.186C455.016 352.741 458.767 351.105 458.767 351.105C458.767 351.105 463.446 353.029 463.969 354.43Z" fill="#009688"/>
<path d="M448.85 359.667L447.543 361.761C446.19 360.34 444.544 359.232 442.72 358.515L442.341 358.423C439.897 357.991 443.648 356.342 443.648 356.342C443.648 356.342 448.327 358.24 448.85 359.667Z" fill="#009688"/>
<path d="M426.943 358.881L425.636 360.976C424.278 359.555 422.628 358.447 420.8 357.729L420.421 357.638C417.99 357.206 421.728 355.556 421.728 355.556C421.728 355.556 426.407 357.494 426.943 358.881Z" fill="#009688"/>
<path d="M444.914 351.026L443.607 353.108C442.255 351.686 440.609 350.578 438.784 349.861L438.405 349.769C435.961 349.337 439.712 347.688 439.712 347.688C439.712 347.688 444.391 349.638 444.914 351.026Z" fill="#009688"/>
<path d="M498.828 374.289C498.828 374.289 507.232 373.372 502.945 367.835C498.392 366.722 493.629 366.803 489.117 368.071C489.117 368.071 453.344 369.668 448.704 367.102C448.704 367.102 416.291 361.866 414.984 360.216C414.984 360.216 412.37 360.792 420.316 364.327C428.263 367.861 453.684 371.553 453.684 371.553L480.647 373.7L490.345 372.495L498.828 374.289Z" fill="#E7C4C3"/>
<path opacity="0.2" d="M498.828 374.289C498.828 374.289 507.232 373.372 502.945 367.835C498.392 366.722 493.629 366.803 489.117 368.071C489.117 368.071 453.344 369.668 448.704 367.102C448.704 367.102 416.291 361.866 414.984 360.216C414.984 360.216 412.37 360.792 420.316 364.327C428.263 367.861 453.684 371.553 453.684 371.553L480.647 373.7L490.345 372.495L498.828 374.289Z" fill="white"/>
<path d="M473.341 361.447C472.948 362.671 472.854 363.972 473.065 365.24C473.276 366.509 473.788 367.708 474.556 368.738C477.013 372.207 481.392 373.333 484.346 371.252C487.299 369.17 487.678 364.706 485.208 361.172C485.038 360.936 484.855 360.701 484.672 360.478L483.888 360.74L473.341 361.447Z" fill="#FF4568"/>
<path d="M473.027 422.398L570.124 336.47L573.104 355.439L475.602 446.419L473.027 422.398Z" fill="#CCCAD6"/>
<path d="M582.722 341.366L570.123 336.47L619.07 197.159L628.402 203.757L582.722 341.366Z" fill="#CCCAD6"/>
<g opacity="0.1">
<path opacity="0.1" d="M503.923 544.415C504.021 541.046 504.507 537.698 505.373 534.44L504.733 534.663C504.106 537.874 503.834 541.145 503.923 544.415Z" fill="white"/>
<path opacity="0.1" d="M510.419 591.372C500.25 591.974 468.725 577.444 462.413 569.851C461.579 568.828 461.07 567.579 460.949 566.264C460.762 567.331 460.796 568.425 461.048 569.479C461.299 570.533 461.764 571.524 462.413 572.391C468.725 579.983 500.25 594.501 510.419 593.899C521.162 593.27 557.17 595.208 558.438 578.713C558.525 578.27 558.466 577.81 558.268 577.404C555.366 592.563 520.888 590.783 510.419 591.372Z" fill="white"/>
</g>
<path d="M547.343 284.238C547.343 284.238 549.591 281.62 547.552 279.735C546.572 278.818 538.887 275.31 531.15 271.88C527.346 270.205 523.517 268.555 520.471 267.246L514.132 264.536L512.08 264.013L499.729 260.858L488.11 257.886L482.882 257.742L481.131 277.889L492.097 297.629L495.782 295.744L496.423 295.417L505.48 293.375L531.071 287.667L542.56 285.049L543.867 284.748L547.343 284.238Z" fill="#FFE09C"/>
<path d="M474.257 257.127C474.257 257.127 472.048 279.015 478.309 288.349C478.309 288.349 483.328 296.57 486.935 299.397C486.935 299.397 489.81 302.644 494.947 296.072C494.947 296.072 483.785 285.024 483.903 271.946L484.007 258.855L474.257 257.127Z" fill="#795548"/>
<path d="M497.56 278.213C499.827 276.006 499.556 272.044 496.955 269.364C494.353 266.684 490.407 266.301 488.14 268.508C485.873 270.715 486.144 274.677 488.745 277.357C491.346 280.037 495.293 280.421 497.56 278.213Z" fill="#FF244D"/>
<path d="M516.841 287.608C519.108 285.401 518.837 281.439 516.236 278.758C513.635 276.078 509.688 275.695 507.421 277.902C505.154 280.11 505.425 284.072 508.026 286.752C510.628 289.432 514.574 289.815 516.841 287.608Z" fill="#FF244D"/>
<path d="M505.532 293.388C505.706 292.274 505.611 291.135 505.257 290.065C504.902 288.994 504.297 288.025 503.493 287.236C500.879 284.618 496.958 284.172 494.671 286.385C492.384 288.597 492.684 292.55 495.285 295.234C495.458 295.419 495.642 295.593 495.834 295.758L496.475 295.43L505.532 293.388Z" fill="#FF244D"/>
<path d="M510.591 268.032C511.115 267.508 511.522 266.88 511.786 266.187C512.05 265.494 512.163 264.753 512.12 264.013L499.769 260.858C499.556 261.995 499.627 263.168 499.976 264.271C500.324 265.374 500.94 266.374 501.768 267.181C504.33 269.877 508.277 270.257 510.591 268.032Z" fill="#FF244D"/>
<path d="M529.752 277.091C530.413 276.411 530.889 275.573 531.134 274.656C531.379 273.739 531.385 272.774 531.15 271.854C527.347 270.179 523.517 268.529 520.472 267.22L520.328 267.338C518.067 269.55 518.342 273.517 520.942 276.2C523.543 278.884 527.491 279.303 529.752 277.091Z" fill="#FF244D"/>
<path d="M542.558 285.049C542.212 284.399 541.772 283.803 541.251 283.282C538.637 280.598 534.716 280.219 532.442 282.431C531.778 283.108 531.3 283.947 531.057 284.865C530.814 285.784 530.814 286.749 531.057 287.667L542.558 285.049Z" fill="#009688"/>
<path d="M490.984 264.628L492.54 263.123C493.416 264.603 494.602 265.876 496.016 266.853L496.317 267.011C498.317 267.874 494.762 268.516 494.762 268.516C494.762 268.516 491.207 265.911 490.984 264.628Z" fill="#009688"/>
<path d="M497.73 279.813L499.273 278.295C500.147 279.78 501.334 281.058 502.749 282.039L503.05 282.183C505.05 283.06 501.495 283.701 501.495 283.701C501.495 283.701 497.887 281.018 497.73 279.813Z" fill="#009688"/>
<path d="M504.881 276.449L506.436 274.93C507.311 276.415 508.497 277.693 509.913 278.674L510.213 278.818C512.213 279.695 508.658 280.337 508.658 280.337C508.658 280.337 505.051 277.732 504.881 276.449Z" fill="#009688"/>
<path d="M518.838 275.036L520.393 273.517C521.266 275 522.447 276.276 523.857 277.261L524.17 277.418C526.157 278.282 522.615 278.924 522.615 278.924C522.615 278.924 519.008 276.319 518.838 275.036Z" fill="#009688"/>
<path d="M537.412 280.089L538.967 278.57C539.835 280.057 541.017 281.335 542.431 282.314L542.745 282.458C544.731 283.335 541.189 283.977 541.189 283.977C541.189 283.977 537.582 281.359 537.412 280.089Z" fill="#009688"/>
<path d="M520.471 283.164L522.026 281.659C522.903 283.139 524.089 284.412 525.503 285.39C525.596 285.455 525.697 285.508 525.803 285.547C527.803 286.411 524.248 287.065 524.248 287.065C524.248 287.065 520.641 284.447 520.471 283.164Z" fill="#009688"/>
<path d="M479.067 252.441C479.067 252.441 471.709 251.537 474.257 257.127C477.92 259.001 482.002 259.902 486.112 259.745C486.112 259.745 516.97 265.584 520.42 268.699C520.42 268.699 547.044 279.669 547.867 281.371C547.867 281.371 550.207 281.371 544.142 276.776C538.078 272.181 517.127 263.869 517.127 263.869L494.542 256.603L486.02 255.674L479.067 252.441Z" fill="#E7C4C3"/>
<path opacity="0.2" d="M479.067 252.441C479.067 252.441 471.709 251.537 474.257 257.127C477.92 259.001 482.002 259.902 486.112 259.745C486.112 259.745 516.97 265.584 520.42 268.699C520.42 268.699 547.044 279.669 547.867 281.371C547.867 281.371 550.207 281.371 544.142 276.776C538.078 272.181 517.127 263.869 517.127 263.869L494.542 256.603L486.02 255.674L479.067 252.441Z" fill="white"/>
<path d="M441.437 282.929C445.191 280.956 448.588 278.368 451.488 275.271C452.795 273.726 453.893 271.985 455.239 270.467C458.632 266.835 463.043 264.316 467.891 263.241C472.701 262.183 477.619 261.704 482.542 261.814C485.837 261.604 489.142 262.003 492.292 262.992C493.868 263.508 495.287 264.417 496.417 265.633C497.546 266.848 498.349 268.332 498.749 269.943C499.468 273.87 496.906 277.68 493.835 280.206C490.975 282.543 487.609 284.18 484.006 284.984C481.069 285.493 478.107 285.838 475.132 286.018C457.644 287.851 442.039 297.381 426.773 306.06C413.311 313.692 405.678 313.339 391.706 319.963C391.157 315.774 384.831 319.02 384.923 314.792C385.001 311.637 385.158 306.819 388.138 304.961C391.602 302.801 397.287 302.342 401.208 301.033C410.216 298.075 419.015 294.511 427.544 290.365C432.258 288.052 436.889 285.573 441.437 282.929Z" fill="#A0616A"/>
<path opacity="0.1" d="M325.953 271.213L392.962 331.954C392.962 331.954 405.601 306.649 409.391 306.649C413.182 306.649 363.908 232.032 363.908 232.032C363.908 232.032 351.269 216.847 343.689 224.44C336.108 232.032 313.314 226.914 325.953 271.213Z" fill="black"/>
<path d="M324.685 268.686L391.656 329.427C391.656 329.427 404.294 304.109 408.084 304.109C411.875 304.109 362.588 229.492 362.588 229.492C362.588 229.492 349.949 214.294 342.369 221.887C334.788 229.479 312.046 224.387 324.685 268.686Z" fill="#FF4568"/>
<path d="M434.941 161.617C436.404 159.988 437.591 158.131 438.457 156.119C444.234 143.029 435.072 126.587 419.427 122.084C411.585 119.793 402.802 120.251 394.973 117.816C388.674 115.866 383.367 112.174 377.59 109.294C366.734 103.937 354.723 101.355 342.628 101.78C330.8 102.199 317.939 106.362 313.09 115.512C306.006 128.838 319.037 145.621 311.143 158.593C305.34 168.124 291.263 170.938 279.592 175.075C267.509 179.26 256.507 186.089 247.388 195.064C238.239 204.228 231.704 216.795 236.304 228.157C238.984 234.821 245.035 240.031 249.845 245.777C257.869 255.207 262.563 267.025 263.199 279.399C263.834 291.773 260.376 304.011 253.361 314.216C251.113 317.449 248.485 320.604 247.557 324.269C245.336 333.014 254.302 341.811 264.666 343.512C275.031 345.214 285.787 341.339 293.851 335.619C301.296 330.478 307.289 323.498 311.247 315.354C320.828 295.011 314.097 272.155 313.142 250.254C313.025 247.702 313.142 244.927 314.933 242.924C317.704 239.926 322.932 240.004 327.402 239.612C338.969 238.591 349.621 232.098 354.522 223.144C363.893 205.916 352.98 181.843 369.356 168.883C389.968 152.572 419.636 178.36 434.941 161.617Z" fill="#3F3D56"/>
<path opacity="0.1" d="M419.429 122.031H419.299C425.415 129.126 427.716 138.709 424.082 146.982C423.216 148.994 422.029 150.851 420.566 152.48C405.261 169.223 375.593 143.435 354.981 159.746C338.605 172.705 349.518 196.779 340.147 214.006C335.285 222.96 324.594 229.453 313.027 230.474C308.557 230.867 303.329 230.789 300.558 233.786C298.715 235.789 298.65 238.565 298.768 241.117C299.722 263.018 306.453 285.874 296.872 306.217C292.914 314.36 286.921 321.341 279.476 326.482C271.412 332.176 260.669 336.103 250.291 334.401L249.572 334.244C251.344 336.724 253.592 338.825 256.184 340.426C258.776 342.026 261.66 343.093 264.668 343.565C275.046 345.254 285.724 341.326 293.853 335.619C301.298 330.478 307.291 323.498 311.249 315.354C320.83 295.012 314.099 272.155 313.144 250.255C313.027 247.702 313.144 244.927 314.935 242.924C317.706 239.926 322.934 240.004 327.404 239.612C338.971 238.591 349.623 232.098 354.524 223.144C363.895 205.916 352.982 181.843 369.358 168.883C389.97 152.572 419.638 178.36 434.943 161.617C436.406 159.988 437.593 158.131 438.459 156.119C444.236 142.989 435.074 126.652 419.429 122.031Z" fill="black"/>
</svg>
