<svg width="1193" height="721" viewBox="0 0 1193 721" fill="none" xmlns="http://www.w3.org/2000/svg">
<path d="M973.999 307.938C973.999 443.464 886.058 490.785 777.577 490.785C669.096 490.785 581.154 443.464 581.154 307.938C581.154 172.411 777.577 0 777.577 0C777.577 0 973.999 172.411 973.999 307.938Z" fill="#FA6984"/>
<path d="M774.739 486.321L776.758 372.969L860.789 232.737L777.074 355.187L777.982 304.22L835.896 202.764L778.222 290.733L779.855 199.066L841.871 118.294L780.112 184.651L781.131 16.5664L774.722 239.081L775.248 229.902L712.197 141.865L774.237 247.522L768.363 349.898L768.188 347.181L695.5 254.536L767.967 356.781L767.232 369.584L767.101 369.777L767.162 370.828L752.256 630.566H772.17L774.56 496.405L846.849 394.412L774.739 486.321Z" fill="#3F3D56"/>
<path d="M185.153 529.035L169.861 505.726L312.589 393.839H679.599V426.472L547.067 557.008L394.145 584.979L185.153 529.035Z" fill="#032B4D"/>
<path d="M742.775 459.498V386.559H694.723V409.558L679.596 393.838L557.26 505.726L536.87 524.372L511.383 617.612L557.26 720.174H791.738V510.386L742.775 459.498Z" fill="#CCCCCC"/>
<path d="M557.262 505.724H169.861V720.173H557.262V505.724Z" fill="#F2F2F2"/>
<path d="M503.738 573.322H422.18V638.59H503.738V573.322Z" fill="#032B4D"/>
<path d="M389.049 570.991H317.686V720.174H389.049V570.991Z" fill="#CCCCCC"/>
<path d="M236.126 594.302V570.993H205.541V594.302H233.577H236.126Z" fill="#3F3D56"/>
<path d="M232.577 612.949H204.541V636.26H235.126V612.949H232.577Z" fill="#FDCA05"/>
<path d="M286.102 570.991H255.518V594.301H286.102V570.991Z" fill="#FDCA05"/>
<path d="M287.102 612.949H256.518V636.259H287.102V612.949Z" fill="#3F3D56"/>
<path d="M665.853 596.631V573.322H635.27V596.631H663.304H665.853Z" fill="#3F3D56"/>
<path d="M664.304 615.28H636.27V638.591H666.853V615.28H664.304Z" fill="#3F3D56"/>
<path d="M717.83 573.322H687.246V596.632H717.83V573.322Z" fill="#3F3D56"/>
<path d="M717.83 615.28H687.246V638.59H717.83V615.28Z" fill="#3F3D56"/>
<path d="M118.543 581.72H114.707V720.294H118.543V581.72Z" fill="#3F3D56"/>
<path d="M153.944 599.379C154.188 647.836 116.913 687.275 116.913 687.275C116.913 687.275 79.2415 648.151 78.9973 599.695C78.7531 551.239 116.029 511.8 116.029 511.8C116.029 511.8 153.7 550.923 153.944 599.379Z" fill="#FF4568"/>
<path d="M1192.44 717.492H9.43555V721H1192.44V717.492Z" fill="#3F3D56"/>
<path d="M71.3448 469.866H64.4248V719.805H71.3448V469.866Z" fill="#3F3D56"/>
<path d="M135.208 501.719C135.649 589.116 68.4028 660.25 68.4028 660.25C68.4028 660.25 0.442626 589.686 0.00215446 502.289C-0.438317 414.891 66.8075 343.757 66.8075 343.757C66.8075 343.757 134.768 414.321 135.208 501.719Z" fill="#032B4D"/>
<path d="M1113.35 466.109H1106.43V716.048H1113.35V466.109Z" fill="#3F3D56"/>
<path d="M1177.21 497.962C1177.65 585.359 1110.4 656.494 1110.4 656.494C1110.4 656.494 1042.44 585.929 1042 498.532C1041.56 411.134 1108.81 340 1108.81 340C1108.81 340 1176.77 410.565 1177.21 497.962Z" fill="#032B4D"/>
<path d="M1070.54 577.963H1066.71V716.538H1070.54V577.963Z" fill="#3F3D56"/>
<path d="M1105.94 595.623C1106.19 644.079 1068.91 683.518 1068.91 683.518C1068.91 683.518 1031.24 644.395 1031 595.939C1030.75 547.482 1068.03 508.043 1068.03 508.043C1068.03 508.043 1105.7 547.166 1105.94 595.623Z" fill="#FF4568"/>
<path d="M341.157 273.35C376.491 273.35 405.136 247.158 405.136 214.849C405.136 182.54 376.491 156.348 341.157 156.348C305.822 156.348 277.178 182.54 277.178 214.849C277.178 247.158 305.822 273.35 341.157 273.35Z" fill="#FF4568"/>
<path d="M274.736 229.124C220.226 229.354 175.856 230.09 175.856 230.09C175.856 230.09 228.596 166.212 274.538 189.878C320.48 213.545 373.256 229.258 373.256 229.258C373.256 229.258 329.246 228.894 274.736 229.124Z" fill="#F2F2F2"/>
<path d="M832.334 564.091H894.845V549H929.334V564.091H994V630.922H929.334V715H894.845V630.922H832.334L800 594.272L832.334 564.091Z" fill="#3F3D56"/>
<path d="M876.95 577.9V584.75H862.65V592.15H873.35V598.8H862.65V613H854.1V577.9H876.95ZM889.994 606.4H901.194V613H881.444V577.9H889.994V606.4ZM927.122 606.8H914.022L911.922 613H902.972L915.672 577.9H925.572L938.272 613H929.222L927.122 606.8ZM924.922 600.2L920.572 587.35L916.272 600.2H924.922ZM967.387 577.9V584.75H958.087V613H949.537V584.75H940.237V577.9H967.387Z" fill="white"/>
</svg>
