<svg width="1150" height="756" viewBox="0 0 1150 756" fill="none" xmlns="http://www.w3.org/2000/svg">
<g clip-path="url(#clip0)">
<path opacity="0.3" d="M1065.62 619.94C1062.03 623.093 1058.37 626.157 1054.62 629.13C1053.99 629.64 1053.34 630.13 1052.7 630.65C1039.34 641.016 1025.31 650.493 1010.7 659.02L1007.97 660.61C1007.31 661.01 1006.66 661.38 1005.97 661.75C990.709 670.56 974.879 678.67 958.859 686.35L958.689 686.44L957.479 687.01C944.559 693.203 931.446 699.13 918.139 704.79L917.819 704.91C911.819 707.437 905.819 709.897 899.819 712.29C897.369 713.29 894.909 714.22 892.449 715.17C887.819 716.94 883.179 718.68 878.499 720.35L877.919 720.57L876.919 720.92L875.669 721.38C863.462 725.74 851.092 729.767 838.559 733.46L838.339 733.52C829.599 736.067 820.802 738.423 811.949 740.59L810.739 740.89C797.739 744.03 784.529 746.73 771.239 748.89L768.179 749.38C758.459 750.907 748.672 752.153 738.819 753.12C683.429 758.47 627.379 754.12 572.329 746.66C461.169 731.58 351.479 703.31 251.439 659C232.239 650.5 213.412 641.4 194.959 631.7C194.809 631.62 194.679 631.54 194.529 631.47C183.482 625.663 172.586 619.613 161.839 613.32C158.689 611.5 155.559 609.64 152.449 607.77C148.622 605.463 144.812 603.13 141.019 600.77C136.019 597.65 131.019 594.45 126.019 591.18L123.679 589.62L122.779 589.01C121.509 588.16 120.259 587.31 118.999 586.45C71.9991 554.45 30.0891 515.67 10.2891 467.14C-12.5909 411.14 2.04908 340.14 58.7191 307.04C78.1991 295.64 100.839 289.45 123.719 284.34L126.059 283.82C129.929 282.97 133.799 282.15 137.649 281.33C151.139 278.47 164.699 275.63 178.129 272.46C185.129 270.81 192.059 269.08 198.949 267.21L201.769 266.43C218.386 261.972 234.636 256.249 250.379 249.31H250.479C252.169 248.56 253.839 247.78 255.479 246.98C256.539 246.48 257.599 245.98 258.659 245.43C275.659 236.97 293.659 225.24 307.509 211.26C308.619 210.14 309.699 209 310.749 207.86C311.559 206.97 312.359 206.07 313.129 205.17C322.839 193.85 329.559 181.28 330.839 167.94C331.27 163.457 331.068 158.936 330.239 154.51C328.669 146.12 327.149 137.91 326.029 129.9C323.939 114.85 323.229 100.46 326.129 86.59C329.079 72.45 335.769 58.8399 348.539 45.6399C350.466 43.6399 352.542 41.6399 354.769 39.6399C365.096 30.5795 376.782 23.1963 389.399 17.7599C390.959 17.0933 392.529 16.4266 394.109 15.7599C429.189 1.55995 471.339 -1.40005 510.719 0.559951C547.51 2.45333 584.068 7.53911 619.979 15.7599C622.829 16.3999 625.679 17.0699 628.509 17.7599C659.058 25.16 689.116 34.4547 718.509 45.59C794.889 74.32 866.979 114.21 934.329 158.23C934.989 158.66 935.649 159.09 936.329 159.53C939.142 161.363 941.939 163.203 944.719 165.05C950.099 168.617 955.432 172.207 960.719 175.82L964.289 178.25C966.049 179.45 967.799 180.653 969.539 181.86L974.899 185.57C975.152 185.722 975.392 185.892 975.619 186.08L980.179 189.24C982.819 191.08 985.439 192.93 988.069 194.79L993.709 198.79C994.879 199.63 996.059 200.46 997.229 201.31L1003.23 205.69L1004.57 206.69C1004.85 206.89 1005.13 207.09 1005.4 207.31L1005.57 207.42C1021.83 219.35 1037.7 231.72 1052.57 244.83L1054.49 246.53L1054.69 246.71C1056.31 248.15 1057.93 249.61 1059.52 251.08C1078.94 268.76 1096.34 287.76 1110.56 308.76C1175.88 405.76 1156.49 540.07 1065.62 619.94Z" fill="#FF4568"/>
<path opacity="0.3" d="M1066.68 622.119C1063.19 625.187 1059.62 628.167 1055.97 631.06C1055.36 631.556 1054.72 632.033 1054.1 632.539C1041.09 642.624 1027.43 651.844 1013.2 660.14L1010.55 661.687C1009.9 662.076 1009.27 662.436 1008.6 662.796C993.74 671.367 978.325 679.257 962.726 686.729L962.561 686.816L961.382 687.371C948.802 693.396 936.033 699.162 923.076 704.669L922.764 704.786C916.922 707.244 911.079 709.637 905.237 711.966C902.851 712.939 900.456 713.843 898.06 714.768C893.552 716.49 889.034 718.183 884.477 719.807L883.912 720.021L882.938 720.362L881.721 720.809C869.835 725.051 857.79 728.969 845.586 732.562L845.371 732.62C836.861 735.098 828.295 737.391 819.674 739.499L818.496 739.791C805.838 742.845 792.975 745.472 780.034 747.574L777.054 748.05C767.589 749.536 758.06 750.749 748.465 751.689C694.53 756.894 639.952 752.662 586.348 745.404C478.107 730.733 371.298 703.229 273.885 660.12C255.189 651.851 236.857 642.997 218.888 633.56C218.742 633.482 218.616 633.405 218.47 633.337C207.713 627.687 197.103 621.801 186.638 615.679C183.571 613.908 180.523 612.098 177.495 610.279C173.769 608.035 170.059 605.765 166.365 603.469C161.496 600.433 156.628 597.32 151.759 594.139L149.48 592.621L148.604 592.028C147.367 591.201 146.15 590.374 144.923 589.537C99.1576 558.404 58.3483 520.676 39.0683 473.461C16.7892 418.979 31.0447 349.904 86.2264 317.701C105.195 306.61 127.24 300.588 149.519 295.616L151.798 295.11C155.566 294.283 159.335 293.486 163.083 292.688C176.219 289.905 189.423 287.142 202.5 284.058C209.317 282.453 216.065 280.77 222.774 278.951L225.52 278.192C241.7 273.855 257.524 268.286 272.853 261.536H272.95C274.596 260.806 276.222 260.047 277.819 259.269C278.851 258.782 279.883 258.296 280.915 257.761C297.469 249.53 314.996 238.118 328.482 224.517C329.563 223.428 330.615 222.318 331.637 221.209C332.426 220.343 333.205 219.468 333.955 218.592C343.41 207.579 349.953 195.35 351.2 182.371C351.619 178.01 351.423 173.612 350.615 169.305C349.087 161.143 347.607 153.155 346.516 145.363C344.481 130.721 343.79 116.721 346.613 103.227C349.486 89.4699 356 76.2288 368.435 63.3866C370.311 61.4408 372.333 59.4951 374.501 57.5493C384.557 48.7345 395.936 41.5514 408.222 36.2624C409.741 35.6138 411.27 34.9652 412.808 34.3166C446.967 20.5015 488.01 17.6218 526.356 19.5286C562.181 21.3707 597.778 26.3186 632.746 34.3166C635.521 34.9392 638.296 35.5911 641.052 36.2624C670.798 43.4619 700.067 52.5046 728.688 63.338C803.062 91.2892 873.259 130.098 938.84 172.925C939.483 173.343 940.126 173.761 940.788 174.189C943.527 175.973 946.25 177.763 948.957 179.56C954.196 183.03 959.389 186.522 964.537 190.038L968.013 192.402C969.727 193.569 971.431 194.74 973.126 195.914L978.345 199.524C978.591 199.671 978.825 199.837 979.046 200.02L983.486 203.094C986.057 204.884 988.608 206.684 991.169 208.494L996.661 212.385C997.8 213.202 998.949 214.01 1000.09 214.837L1005.93 219.098L1007.24 220.071C1007.51 220.266 1007.78 220.46 1008.04 220.674L1008.21 220.781C1024.04 232.388 1039.5 244.423 1053.98 257.177L1055.84 258.831L1056.04 259.006C1057.62 260.407 1059.19 261.828 1060.74 263.258C1079.65 280.459 1096.6 298.943 1110.44 319.374C1174.05 413.745 1155.17 544.414 1066.68 622.119Z" fill="#FF4568"/>
<path d="M811.561 353.76C811.561 353.76 817.381 323.26 836.081 323.1L849.761 351.24L840.561 357.49C840.561 357.49 820.801 358.12 811.561 353.76Z" fill="#65617D"/>
<path opacity="0.1" d="M849.721 351.2L840.561 357.49C840.561 357.49 826.621 357.93 816.661 355.49C814.908 355.083 813.199 354.503 811.561 353.76C811.561 353.76 811.561 353.59 811.661 353.27C811.657 353.23 811.657 353.19 811.661 353.15C812.522 349.323 813.706 345.576 815.201 341.95C815.771 340.58 816.431 339.17 817.131 337.76C819.871 332.49 823.721 327.32 828.991 324.76C830.937 323.806 833.056 323.251 835.221 323.13H835.781H836.051L836.361 323.75L840.981 333.26L849.721 351.2Z" fill="black"/>
<path d="M1005.04 477.91C1005.04 477.91 1024.69 476.03 1026.42 477.44C1028.15 478.85 1039.31 486.09 1045.92 481.53C1052.53 476.97 1048.12 461.09 1048.12 460.46C1048.12 459.83 1047.49 437.35 1047.49 437.35L1035.7 421.47L1020.92 393.65L990.74 390.65L991.52 434.83L991.37 457.47L1005.04 477.91Z" fill="#032B4D"/>
<path opacity="0.1" d="M1005.04 477.91C1005.04 477.91 1024.69 476.03 1026.42 477.44C1028.15 478.85 1039.31 486.09 1045.92 481.53C1052.53 476.97 1048.12 461.09 1048.12 460.46C1048.12 459.83 1047.49 437.35 1047.49 437.35L1035.7 421.47L1020.92 393.65L990.74 390.65L991.52 434.83L991.37 457.47L1005.04 477.91Z" fill="#032B4D"/>
<path d="M832.111 322.28C832.111 322.28 830.561 341.46 818.561 341.76C818.561 341.76 815.181 339.76 810.621 336.31C800.121 328.46 783.471 313.36 788.071 299.31C794.671 279.19 826.741 316.31 826.741 316.31L829.211 319.07L832.111 322.28Z" fill="#A5636D"/>
<path opacity="0.1" d="M832.109 322.28C832.109 322.28 830.559 341.46 818.559 341.76C818.559 341.76 815.179 339.76 810.619 336.31L809.619 335C811.646 336.063 813.882 336.667 816.169 336.77C819.169 336.83 822.549 335.77 824.719 331.38C825.973 328.911 827.079 326.37 828.029 323.77C828.596 322.244 828.998 320.661 829.229 319.05L832.109 322.28Z" fill="black"/>
<path d="M826.921 357.02L824.231 353.56L815.231 341.91L810.561 335.96C812.585 337.018 814.818 337.619 817.101 337.72C820.101 337.79 823.481 336.72 825.651 332.33C826.909 329.864 828.014 327.322 828.961 324.72C830.451 320.48 830.421 318.3 829.891 317.56C829.361 316.82 833.231 320.41 835.091 322.18L835.161 322.24L836.021 323.06L836.351 323.7L840.901 332.81C840.901 332.81 840.901 332.94 840.901 333.19C841.321 336.08 842.851 354.42 826.921 357.02Z" fill="#E7EFFD"/>
<path d="M1000.64 232.35L977.37 257.2C977.37 257.2 947.51 245.2 950.65 241.2C951.87 239.62 951.65 234.63 950.97 229.12C949.87 220.41 947.51 210.38 947.51 210.38C947.51 210.38 999.7 201.89 995.29 210.7C993.69 213.91 993.96 217.7 994.96 221.14C996.244 225.155 998.161 228.94 1000.64 232.35Z" fill="#A5636D"/>
<path opacity="0.1" d="M995.29 210.66C993.69 213.87 992.92 214.18 993.92 217.66C987.1 224.98 978.42 232.99 967.63 232.99C961.849 233.001 956.145 231.666 950.97 229.09C949.87 220.38 947.51 210.35 947.51 210.35C947.51 210.35 999.7 201.85 995.29 210.66Z" fill="black"/>
<path d="M1005.05 194.62C1005.05 204.545 1001.11 214.062 994.091 221.08C987.073 228.098 977.555 232.04 967.631 232.04C957.707 232.04 948.189 228.098 941.171 221.08C934.153 214.062 930.211 204.545 930.211 194.62C930.211 194.44 930.211 194.26 930.211 194.08C930.426 184.253 934.499 174.905 941.55 168.057C948.601 161.208 958.063 157.409 967.892 157.48C977.721 157.551 987.128 161.486 994.079 168.436C1001.03 175.386 1004.97 184.791 1005.04 194.62H1005.05Z" fill="#A5636D"/>
<path opacity="0.1" d="M1010.46 441.46C1005.46 441.46 989 441.64 970.56 441.93H970.33L964.24 442.03H964.05C942.18 442.38 920.63 438.11 911.98 438.92C893.58 440.65 918.58 421.92 918.58 421.92C932.286 425.245 946.385 426.672 960.48 426.16L965.77 425.88C982.48 424.94 999.28 423.37 1008.06 420.73C1008.67 425.61 1009.56 432.68 1010.46 441.46Z" fill="black"/>
<path d="M1010.46 440.52C1005.46 440.52 989 440.69 970.56 440.99H970.33L964.24 441.09H964.05C942.18 441.44 920.63 437.17 911.98 437.98C893.58 439.7 918.58 420.98 918.58 420.98C932.286 424.305 946.385 425.729 960.48 425.21L965.77 424.94C982.48 424 999.28 422.42 1008.06 419.79C1008.67 424.67 1009.56 431.76 1010.46 440.52Z" fill="#5F5D7E"/>
<path opacity="0.1" d="M957.56 242.76L928.63 256.28L906.32 428.86C906.32 428.86 919.52 422.86 927.07 426.66C934.62 430.46 957.88 426.98 957.88 426.98C957.88 426.98 974.88 425.98 977.37 427.92C979.86 429.86 1009.45 420.06 1009.45 420.06C1009.45 420.06 1014.79 408.11 1010.7 406.23C1006.61 404.35 1011.96 385.76 1011.96 385.76L1009.45 261.25L1004.45 245.25L990.93 237.08L977.1 248.08L970.5 249.03L957.56 242.76Z" fill="black"/>
<path d="M957.56 240.84L928.64 254.36L906.32 426.98C906.32 426.98 919.52 420.98 927.07 424.78C934.62 428.58 957.88 425.09 957.88 425.09C957.88 425.09 974.88 424.15 977.37 426.03C979.86 427.91 1009.45 418.17 1009.45 418.17C1009.45 418.17 1014.79 406.23 1010.7 404.34C1006.61 402.45 1011.96 383.9 1011.96 383.9L1009.45 259.39L1004.45 243.39L990.93 235.21L977.1 246.21L970.5 247.15L957.56 240.84Z" fill="#E7EFFD"/>
<path opacity="0.1" d="M957.09 248.86C957.09 248.86 965.43 258.76 965.27 260.81C965.11 262.86 964.8 267.72 964.8 267.72L958.56 280.46C958.56 280.46 955.1 296.34 955.1 299.64C955.1 302.94 949.6 331.55 949.6 331.55L943 375.55L934.66 433.25L943.15 447.87L953.21 439.38L966.56 336.58L969.39 316.3C969.39 316.3 972.39 279.83 972.39 276.06C972.39 272.29 970.66 262.38 970.66 262.38C970.66 262.38 972.71 252.95 981.2 250.75C989.69 248.55 980.57 250.27 980.57 250.27L975.7 246.34L971.45 248.07C971.45 248.07 959.61 244.46 957.09 248.86Z" fill="black"/>
<path d="M956.15 247.92C956.15 247.92 964.48 257.82 964.33 259.86C964.18 261.9 963.85 266.78 963.85 266.78L957.56 279.52C957.56 279.52 954.1 295.39 954.1 298.69C954.1 301.99 948.6 330.61 948.6 330.61L941.99 374.61L933.66 432.3L942.15 446.92L952.21 438.43L965.56 335.64L968.39 315.36C968.39 315.36 971.39 278.89 971.39 275.11C971.39 271.33 969.66 261.44 969.66 261.44C969.66 261.44 971.66 252 980.19 249.8C988.72 247.6 979.57 249.33 979.57 249.33L974.69 245.4L970.45 247.13C970.45 247.13 958.67 243.51 956.15 247.92Z" fill="#FF4568"/>
<path opacity="0.1" d="M950.649 231.41C950.649 231.41 949.389 232.35 949.079 238.64C948.769 244.93 944.359 259.08 944.359 259.08C944.359 259.08 960.709 247.76 968.889 249.02L950.649 231.41Z" fill="black"/>
<path d="M950.649 229.52C950.649 229.52 949.389 230.47 949.079 236.75C948.769 243.03 944.359 257.19 944.359 257.19C944.359 257.19 960.709 245.87 968.889 247.13L950.649 229.52Z" fill="#E7EFFD"/>
<path opacity="0.1" d="M995.301 226.38L969.561 249.02C969.561 249.02 991.261 261.91 994.091 265.02C996.921 268.13 999.75 234.21 999.75 234.21L995.301 226.38Z" fill="black"/>
<path d="M996.241 224.49L970.461 247.13C970.461 247.13 992.151 260.02 994.981 263.13C997.811 266.24 1000.64 232.31 1000.64 232.31L996.241 224.49Z" fill="#E7EFFD"/>
<path opacity="0.1" d="M951.561 231.41C951.561 231.41 948.731 229.99 946.061 234.08C943.391 238.17 938.361 240.08 938.361 240.08C938.361 240.08 909.741 244.64 908.641 248.41L895.281 249.19C895.281 249.19 890.561 249.76 890.121 259.76C889.681 269.76 887.121 270.6 887.121 270.6C887.121 270.6 881.611 280.35 882.121 285.38C882.631 290.41 877.871 292.93 877.871 292.93L897.561 343.97C897.561 343.97 898.191 365.04 894.561 372.74C890.931 380.44 884.181 414.56 884.181 414.56C884.181 414.56 887.011 413.93 886.851 415.82C886.691 417.71 883.391 438.3 883.391 438.3C883.391 438.3 882.451 446.47 880.881 449.3C879.311 452.13 879.151 466.91 879.151 466.91L876.561 477.6C876.561 477.6 882.561 490.96 891.661 489.07C900.761 487.18 917.281 451.5 917.281 451.5L927.811 412.99L935.991 374.94L938.351 349.16L942.121 292.09L947.621 254.36C947.621 254.36 953.791 234.08 951.561 231.41Z" fill="black"/>
<path d="M950.65 229.52C950.65 229.52 947.82 228.11 945.15 232.2C942.48 236.29 937.44 238.2 937.44 238.2C937.44 238.2 908.83 242.76 907.73 246.53L894.37 247.32C894.37 247.32 889.65 247.95 889.18 257.85C888.71 267.75 886.18 268.7 886.18 268.7C886.18 268.7 880.68 278.45 881.18 283.48C881.68 288.51 876.94 291.02 876.94 291.02L896.56 342.08C896.56 342.08 897.19 363.15 893.56 370.85C889.93 378.55 883.19 412.67 883.19 412.67C883.19 412.67 886.02 412.04 885.86 413.93C885.7 415.82 882.4 436.41 882.4 436.41C882.4 436.41 881.46 444.58 879.89 447.41C878.32 450.24 878.16 465.02 878.16 465.02L875.66 475.76C875.66 475.76 881.66 489.12 890.75 487.24C899.84 485.36 916.38 449.66 916.38 449.66L926.91 411.15L935.09 373.15L937.44 347.37L941.22 290.31L946.72 252.58C946.72 252.58 952.85 232.2 950.65 229.52Z" fill="#032B4D"/>
<path opacity="0.1" d="M849.72 351.2L840.56 357.49C840.56 357.49 826.62 357.93 816.66 355.49L811.58 353.24L810.58 352.79L811.63 353.12C816.89 354.68 821 354.65 824.21 353.57C837.12 349.23 835.69 327.92 835.21 323.1C835.21 322.62 835.13 322.31 835.11 322.19C835.108 322.17 835.108 322.15 835.11 322.13L835.19 322.25C835.362 322.544 835.559 322.821 835.78 323.08C835.96 323.295 836.154 323.499 836.36 323.69V323.69L840.91 332.8C840.91 332.8 840.91 332.93 840.91 333.18L849.72 351.2Z" fill="black"/>
<path d="M881.32 289.76L876.919 291.02L876.289 300.02C876.289 300.02 871.1 299.24 869.69 305.37C868.28 311.5 865.76 314.37 865.76 314.37C865.76 314.37 857.11 321.6 856.64 327.73L851.289 331.03C851.289 331.03 838.869 328.2 836.039 323.17C836.039 323.17 841.7 363.73 811.52 353.83C811.52 353.83 845.32 368.61 846.89 370.65C848.46 372.69 858.84 378.65 868.27 373.65C877.7 368.65 879.75 360.76 879.75 360.76C879.75 360.76 888.87 348.03 889.18 346.14C889.49 344.25 896.57 342.05 896.57 342.05L910.09 309.36L881.32 289.76Z" fill="#032B4D"/>
<path opacity="0.1" d="M991.681 245.24L996.241 224.49C996.241 224.49 998.241 231.25 1000.33 232.82C1002.42 234.39 1007.09 238.01 1007.09 238.01C1007.09 238.01 1013.85 241.16 1016.2 241.16C1018.55 241.16 1031.3 244.46 1032.87 246.16C1034.44 247.86 1040.73 246.63 1040.73 246.63C1040.73 246.63 1045.92 248.36 1050.48 249.46C1055.04 250.56 1057.24 258.11 1056.29 261.09C1055.91 262.576 1055.91 264.134 1056.3 265.618C1056.68 267.103 1057.44 268.466 1058.49 269.58C1060.38 271.47 1061.32 277.58 1061.32 277.58C1063.64 278.334 1065.56 279.973 1066.67 282.14C1068.24 285.6 1067.77 293.14 1067.77 293.14L1044.35 326.14C1044.35 326.14 1044.66 338.87 1043.72 341.7C1042.78 344.53 1047.02 392.64 1047.02 392.64L1051.89 475.33C1051.89 475.33 1045.45 480.83 1044.03 481.46C1042.61 482.09 1041.2 452.22 1041.2 451.12C1041.2 450.02 1004.89 396.72 1004.89 396.72C1004.89 396.72 1000.01 388.86 1000.01 387.13C1000.01 385.4 995.451 369.53 995.451 369.53L988.561 338.94L991.681 245.24Z" fill="black"/>
<path d="M1069.72 291.39C1069.72 292.47 1069.66 293.19 1069.66 293.19L1046.25 326.19C1046.25 326.19 1046.57 338.93 1045.63 341.76C1045.08 343.4 1046.28 360.32 1047.39 374.21C1048.18 384.21 1048.93 392.69 1048.93 392.69L1050.99 427.77L1053.79 475.39C1053.79 475.39 1047.35 480.89 1045.94 481.52C1044.53 482.15 1043.11 452.28 1043.11 451.17C1043.11 450.06 1006.77 396.76 1006.77 396.76C1006.77 396.76 1001.9 388.89 1001.9 387.16C1001.9 385.43 997.34 369.55 997.34 369.55L990.43 338.9L993.57 245.2L996.24 224.45C996.24 224.45 1000.17 231.22 1002.24 232.78C1004.31 234.34 1008.99 237.97 1008.99 237.97C1008.99 237.97 1015.75 241.12 1018.11 241.12C1020.47 241.12 1033.2 244.42 1034.78 246.12C1036.36 247.82 1042.64 246.59 1042.64 246.59C1042.64 246.59 1047.82 248.32 1052.38 249.42C1056.94 250.52 1059.14 258.07 1058.2 261.05C1057.82 262.536 1057.82 264.094 1058.2 265.579C1058.59 267.064 1059.34 268.427 1060.4 269.54C1062.28 271.42 1063.23 277.54 1063.23 277.54C1065.54 278.297 1067.47 279.935 1068.58 282.1C1069.65 284.58 1069.75 288.94 1069.72 291.39Z" fill="#032B4D"/>
<path opacity="0.1" d="M899.831 712.29C897.381 713.29 894.921 714.22 892.461 715.17C884.751 712.92 877.551 710.27 877.551 710.27C885.009 710.537 892.447 711.211 899.831 712.29V712.29Z" fill="black"/>
<path opacity="0.1" d="M974.23 628.36C974.23 628.36 992.94 632.76 994.04 635.75L974.23 628.36Z" fill="black"/>
<path opacity="0.1" d="M902.069 641.88C902.069 641.88 892.319 644.71 901.759 650.37C911.199 656.03 902.069 641.88 902.069 641.88Z" fill="black"/>
<path opacity="0.1" d="M945.301 490.76C946.401 490.76 963.541 485.1 969.511 487.62C975.481 490.14 982.881 490.13 982.881 490.13L945.301 490.76Z" fill="black"/>
<path opacity="0.1" d="M947.56 508.76L947.39 510.32L932.73 548.66C932.73 548.66 930.37 560.29 928.32 566.89C927.034 571.376 926.012 575.934 925.26 580.54L938.26 500.08L947.56 508.76Z" fill="black"/>
<path d="M970.331 440.99L964.24 441.09H964.05L960.48 425.24C962.23 425.16 964.001 425.07 965.771 424.96L970.331 440.99Z" fill="#3F3D56"/>
<path d="M1044.5 421.76L1040.59 424.99L1027.56 435.76C1027.56 435.76 992.19 454.63 982.45 436.7C973.86 420.91 1013.96 409.64 1023.62 407.18C1024.93 406.85 1025.68 406.68 1025.68 406.68L1044.5 421.76Z" fill="#A5636D"/>
<path opacity="0.1" d="M893.43 267.25C893.43 267.25 900.34 270.4 901.91 274.8C903.48 279.2 893.43 267.25 893.43 267.25Z" fill="black"/>
<path opacity="0.1" d="M872.04 314.42C872.04 314.42 861.98 326.68 866.04 331.42C870.1 336.16 872.04 314.42 872.04 314.42Z" fill="black"/>
<path opacity="0.1" d="M1051.89 274.17C1051.89 274.17 1042.46 275.11 1042.14 283.29L1051.89 274.17Z" fill="black"/>
<path opacity="0.1" d="M964.48 403.08C965.48 402.14 987.121 370.08 992.151 372.9L964.48 403.08Z" fill="black"/>
<path opacity="0.1" d="M1005.05 194.62C1005.06 200.782 1003.53 206.85 1000.62 212.28H1000.34C997.971 211.78 996.741 209.02 994.931 207.28C993.817 206.221 992.399 205.537 990.877 205.324C989.354 205.11 987.803 205.378 986.441 206.09C985.063 206.913 983.942 208.105 983.205 209.531C982.468 210.956 982.145 212.56 982.271 214.16C981.071 209.16 981.451 203.77 980.271 198.73C979.091 193.69 975.581 188.58 970.761 188.49C968.681 188.49 966.261 189.26 964.761 187.7C963.851 186.76 963.671 185.28 962.991 184.14C959.541 178.57 949.061 181.39 944.781 184.25C940.501 187.11 935.531 191.67 930.211 194.12C930.426 184.293 934.499 174.945 941.55 168.097C948.601 161.248 958.063 157.449 967.892 157.52C977.721 157.591 987.128 161.526 994.079 168.476C1001.03 175.426 1004.97 184.831 1005.04 194.66L1005.05 194.62Z" fill="black"/>
<path d="M963.001 183.16C963.681 184.3 963.861 185.78 964.771 186.72C966.271 188.27 968.691 187.47 970.771 187.51C975.591 187.59 979.111 192.7 980.281 197.74C981.451 202.78 981.071 208.14 982.281 213.17C982.156 211.572 982.481 209.97 983.218 208.546C983.954 207.122 985.074 205.932 986.451 205.11C987.811 204.398 989.361 204.129 990.882 204.343C992.403 204.556 993.819 205.241 994.931 206.3C996.741 208.02 997.931 210.78 1000.35 211.3C1002.77 211.82 1005.01 209.52 1005.87 207.02C1006.73 204.52 1006.66 201.78 1007.22 199.19C1008.29 194.28 1011.49 190.26 1013.22 185.6C1015.33 179.927 1015.27 173.675 1013.06 168.04C1011.88 165.04 1010.13 162.43 1008.93 159.48C1007.13 155 1006.65 149.95 1004.45 145.68C1000.75 138.53 992.031 134.96 984.871 137.68C981.451 138.97 978.481 141.46 975.011 142.57C970.371 144.06 965.401 142.94 960.591 142.27C955.781 141.6 950.461 141.54 946.591 144.7C942.141 148.34 940.921 155.18 936.741 159.18C934.981 160.86 932.801 161.93 930.951 163.48C929.101 165.03 927.501 167.34 927.711 169.86C927.991 173.12 931.181 176.08 930.001 179.09C929.577 179.966 928.982 180.748 928.251 181.39C924.752 185.065 922.148 189.496 920.641 194.34C929.061 196.97 938.161 187.69 944.751 183.34C949.081 180.41 959.561 177.58 963.001 183.16Z" fill="black"/>
<path opacity="0.1" d="M1044.5 421.76L1040.59 424.99C1037.14 419.24 1022.97 407.76 1022.97 407.76L1023.58 407.17C1024.89 406.84 1025.64 406.67 1025.64 406.67L1044.5 421.76Z" fill="black"/>
<path d="M1048.28 415.97C1048.28 415.97 1046.87 419.47 1045.42 422.5C1043.97 425.53 1042.42 428.27 1042.3 426.04C1042.14 421.63 1023.91 406.85 1023.91 406.85L1026.38 404.45L1029.25 401.66L1048.28 415.97Z" fill="#E7EFFD"/>
<path opacity="0.1" d="M1048.91 392.7L1050.97 427.78C1046.09 420.19 1032.68 400.72 1024.06 401.35L1044.97 377.35C1045.84 376.383 1046.65 375.353 1047.37 374.27C1048.16 384.25 1048.91 392.7 1048.91 392.7Z" fill="black"/>
<path opacity="0.1" d="M1048.28 415.97C1048.28 415.97 1046.87 419.47 1045.42 422.5C1039.94 414.98 1032.42 406.11 1026.42 404.45L1029.29 401.66L1048.28 415.97Z" fill="black"/>
<path d="M1064 288.76L1069.66 293.16C1069.66 293.16 1079.09 293.32 1080.03 301.16C1080.97 309 1089.62 312.64 1089.62 312.64C1089.62 312.64 1096.07 319.08 1096.07 322.07C1096.07 325.06 1100.94 330.4 1100.94 330.87C1100.94 331.34 1105.66 340.93 1105.03 342.66C1104.4 344.39 1110.03 351.94 1108.33 354.77C1106.91 357.308 1105.65 359.933 1104.56 362.63C1104.56 362.63 1097.17 376.78 1093.39 379.45C1089.61 382.12 1072.33 404.6 1072.33 404.6C1072.33 404.6 1053.78 425.98 1053.78 432.6C1053.78 432.6 1035.7 402.41 1025.01 403.2L1045.92 379.15C1045.92 379.15 1049.53 375.22 1049.69 372.86C1049.85 370.5 1059.75 359.65 1064.47 359.18C1064.47 359.18 1065.25 352.73 1063.21 352.58C1061.17 352.43 1059.44 347.39 1059.44 347.39C1059.44 347.39 1045.6 331.04 1045.44 320.66C1045.28 310.28 1064 288.76 1064 288.76Z" fill="#032B4D"/>
<path opacity="0.1" d="M1072.33 303.76C1072.33 303.76 1059.12 313.5 1061.95 316.65C1064.78 319.8 1072.33 303.76 1072.33 303.76Z" fill="black"/>
<path opacity="0.1" d="M1072.96 343.97C1072.96 343.97 1097.48 336.11 1099.96 343.97H1072.96Z" fill="black"/>
<path opacity="0.1" d="M899.949 301.84C899.949 301.84 899.949 337.68 896.879 341.22C893.809 344.76 899.949 301.84 899.949 301.84Z" fill="black"/>
<path opacity="0.1" d="M1041.67 313.39L1046.23 326.2C1046.23 326.2 1048.04 313.63 1041.67 313.39Z" fill="black"/>
<g opacity="0.1">
<path opacity="0.1" d="M930.559 175.98C931.709 173.03 928.699 170.14 928.299 166.98C927.904 167.872 927.733 168.847 927.799 169.82C927.999 172.21 929.799 174.43 930.229 176.64C930.359 176.431 930.47 176.21 930.559 175.98V175.98Z" fill="black"/>
<path opacity="0.1" d="M982.69 209.84C981.56 204.84 981.89 199.63 980.75 194.68C979.61 189.73 976.06 184.52 971.24 184.44C969.16 184.44 966.74 185.2 965.24 183.65C964.33 182.71 964.15 181.23 963.47 180.09C960.03 174.52 949.55 177.34 945.26 180.2C938.83 184.47 930 193.41 921.75 191.39C921.36 192.34 920.99 193.3 920.68 194.29C929.1 196.92 938.2 187.64 944.79 183.29C949.08 180.44 959.55 177.61 963 183.19C963.68 184.33 963.86 185.81 964.77 186.75C966.27 188.3 968.69 187.5 970.77 187.54C975.59 187.62 979.11 192.73 980.28 197.77C981.45 202.81 981.07 208.17 982.28 213.2C982.191 212.064 982.33 210.921 982.69 209.84Z" fill="black"/>
<path opacity="0.1" d="M1006.33 203.94C1005.47 206.44 1003.23 208.73 1000.81 208.22C998.39 207.71 997.21 204.96 995.4 203.22C994.284 202.164 992.866 201.482 991.344 201.271C989.822 201.059 988.272 201.328 986.91 202.04C985.6 202.821 984.522 203.938 983.788 205.277C983.055 206.615 982.693 208.125 982.74 209.65C983.372 207.729 984.689 206.109 986.44 205.1C987.801 204.387 989.351 204.119 990.872 204.332C992.393 204.546 993.808 205.23 994.92 206.29C996.73 208.01 997.92 210.77 1000.34 211.29C1002.76 211.81 1005 209.51 1005.86 207.01C1006.3 205.537 1006.59 204.022 1006.72 202.49C1006.62 202.98 1006.49 203.464 1006.33 203.94V203.94Z" fill="black"/>
<path opacity="0.1" d="M1013.72 182.53C1011.95 187.19 1008.72 191.21 1007.72 196.11C1007.5 197.11 1007.38 198.11 1007.26 199.11C1008.33 194.23 1011.52 190.22 1013.26 185.57C1014.05 183.476 1014.54 181.281 1014.71 179.05C1014.47 180.234 1014.14 181.398 1013.72 182.53V182.53Z" fill="black"/>
</g>
<path d="M786.531 296.36C786.746 296.36 786.921 296.185 786.921 295.97C786.921 295.755 786.746 295.58 786.531 295.58C786.315 295.58 786.141 295.755 786.141 295.97C786.141 296.185 786.315 296.36 786.531 296.36Z" fill="#E6E8EC"/>
<path d="M473.135 515.412C473.444 515.217 473.87 514.961 474.397 514.672C475.587 514.02 477.29 513.201 479.343 512.532C483.323 511.235 488.579 510.516 493.96 512.631C493.863 512.772 493.738 512.94 493.582 513.13C493.09 513.728 492.283 514.538 491.041 515.35C488.58 516.96 484.376 518.599 477.455 518.581L473.135 515.412Z" fill="#0B0B0B" stroke="black"/>
<path d="M477.14 536.35C477.026 536.569 476.919 536.75 476.827 536.894C472.791 532.783 471.4 527.665 471.036 523.494C470.848 521.342 470.935 519.452 471.068 518.101C471.128 517.502 471.196 517.01 471.254 516.649L475.826 519.377C478.566 525.738 478.707 530.248 478.19 533.143C477.929 534.604 477.498 535.664 477.14 536.35Z" fill="#0B0B0B" stroke="black"/>
<path d="M456.84 503.587C456.847 503.542 456.856 503.491 456.868 503.435C456.922 503.164 457.027 502.773 457.229 502.306C457.631 501.375 458.42 500.136 459.977 498.966C463.058 496.652 469.219 494.56 481.505 495.82C481.496 495.995 481.477 496.22 481.442 496.485C481.348 497.181 481.137 498.15 480.665 499.233C479.726 501.387 477.741 504.023 473.513 505.841C469.232 507.681 466.133 507.91 463.572 507.292C461.077 506.69 459.031 505.272 456.84 503.587Z" fill="#0B0B0B" stroke="black"/>
<path d="M455.53 529.924C455.287 530.04 455.077 530.127 454.911 530.19C449.932 518.885 450.026 512.379 451.279 508.736C451.913 506.895 452.849 505.763 453.61 505.096C453.992 504.76 454.333 504.54 454.573 504.405C454.622 504.378 454.667 504.353 454.708 504.333C456.982 505.915 458.949 507.422 460.285 509.605C461.657 511.845 462.394 514.855 461.981 519.495C461.573 524.077 459.677 526.778 457.913 528.336C457.026 529.12 456.166 529.62 455.53 529.924Z" fill="#0B0B0B" stroke="black"/>
<path d="M440.401 488.3C440.393 488.175 440.383 487.988 440.379 487.748C440.371 487.27 440.387 486.582 440.485 485.758C440.682 484.109 441.204 481.926 442.501 479.774C445.042 475.562 450.653 471.317 463.108 471.646C463.114 471.723 463.12 471.811 463.125 471.907C463.15 472.352 463.162 472.997 463.112 473.789C463.011 475.374 462.659 477.539 461.658 479.858C459.682 484.432 455.141 489.687 444.769 492.222L440.401 488.3Z" fill="#0B0B0B" stroke="black"/>
<path d="M422.672 468.341C422.697 468.196 422.737 467.986 422.797 467.721C422.918 467.176 423.121 466.398 423.444 465.48C424.091 463.642 425.216 461.25 427.126 459.022C430.879 454.645 437.747 450.798 450.3 453.211C450.298 453.308 450.293 453.422 450.286 453.551C450.259 454.029 450.194 454.721 450.039 455.561C449.729 457.241 449.062 459.508 447.631 461.851C444.805 466.48 438.946 471.493 426.72 472.767L422.672 468.341Z" fill="#0B0B0B" stroke="black"/>
<path d="M409.443 447.528C409.446 447.517 409.45 447.505 409.454 447.492C409.495 447.35 409.561 447.14 409.653 446.873C409.838 446.338 410.131 445.575 410.563 444.673C411.426 442.869 412.839 440.517 415.035 438.325C419.339 434.028 426.713 430.279 439.063 432.592C439.037 432.663 439.009 432.741 438.977 432.825C438.789 433.315 438.494 434.022 438.066 434.873C437.211 436.576 435.827 438.857 433.717 441.155C429.544 445.699 422.511 450.339 411.025 450.702L409.443 447.528Z" fill="#0B0B0B" stroke="black"/>
<path d="M396.851 427.083C396.856 427.068 396.86 427.053 396.864 427.036C396.905 426.889 396.969 426.67 397.059 426.393C397.239 425.838 397.525 425.047 397.945 424.113C398.785 422.243 400.156 419.809 402.281 417.543C406.44 413.109 413.54 409.256 425.403 411.657C425.365 411.747 425.322 411.847 425.273 411.957C425.034 412.498 424.669 413.274 424.167 414.204C423.161 416.064 421.61 418.534 419.428 420.975C415.108 425.805 408.334 430.505 398.404 430.172L396.851 427.083Z" fill="#0B0B0B" stroke="black"/>
<path d="M388.467 407.506C388.473 407.471 388.479 407.429 388.487 407.382C388.517 407.199 388.564 406.93 388.633 406.587C388.77 405.902 388.992 404.926 389.33 403.769C390.007 401.451 391.145 398.419 392.99 395.542C394.834 392.666 397.374 389.96 400.85 388.262C404.213 386.618 408.492 385.899 413.938 386.927C413.899 387.064 413.852 387.226 413.796 387.413C413.604 388.052 413.308 388.968 412.894 390.072C412.066 392.282 410.766 395.236 408.881 398.22C405.152 404.128 399.183 410.082 390.097 410.739L388.467 407.506Z" fill="#0B0B0B" stroke="black"/>
<path d="M380.432 383.805C380.438 383.771 380.446 383.731 380.455 383.686C380.491 383.502 380.548 383.23 380.629 382.886C380.79 382.198 381.047 381.219 381.428 380.064C382.191 377.751 383.446 374.746 385.415 371.953C387.383 369.162 390.054 366.597 393.646 365.131C397.124 363.71 401.512 363.301 407.041 364.77C406.986 364.921 406.919 365.103 406.838 365.314C406.583 365.981 406.199 366.934 405.683 368.072C404.648 370.35 403.087 373.364 400.977 376.318C396.787 382.184 390.527 387.693 382.013 386.958L380.432 383.805Z" fill="#0B0B0B" stroke="black"/>
<path d="M375.164 361.751C375.176 361.713 375.19 361.666 375.207 361.613C375.265 361.424 375.352 361.146 375.471 360.792C375.707 360.083 376.065 359.069 376.551 357.85C377.524 355.412 379.005 352.165 381.039 348.922C385.019 342.579 391.028 336.384 399.39 336.072C399.344 336.226 399.289 336.404 399.225 336.607C398.988 337.364 398.631 338.452 398.151 339.77C397.192 342.406 395.748 345.957 393.804 349.618C389.969 356.842 384.276 364.337 376.67 366.296L375.164 361.751Z" fill="#0B0B0B" stroke="black"/>
<path d="M371.519 340.099C371.534 340.041 371.556 339.956 371.586 339.847C371.647 339.619 371.74 339.284 371.863 338.858C372.108 338.006 372.476 336.789 372.963 335.334C373.938 332.422 375.388 328.565 377.292 324.769C379.198 320.968 381.544 317.259 384.299 314.621C386.901 312.128 389.824 310.63 393.066 310.842C393.031 310.98 392.989 311.141 392.94 311.325C392.761 311.996 392.485 312.97 392.103 314.171C391.339 316.574 390.148 319.887 388.443 323.523C385.121 330.611 379.872 338.873 372.076 344.054L371.519 340.099Z" fill="#0B0B0B" stroke="black"/>
<path d="M368.926 314.171C368.941 314.123 368.961 314.056 368.987 313.971C369.045 313.781 369.133 313.501 369.251 313.143C369.485 312.426 369.836 311.4 370.303 310.163C371.237 307.687 372.629 304.372 374.466 301.013C376.305 297.65 378.578 294.26 381.266 291.62C383.774 289.156 386.618 287.37 389.785 286.833C389.757 286.958 389.726 287.098 389.69 287.253C389.526 287.968 389.272 289.001 388.916 290.27C388.204 292.808 387.084 296.283 385.452 300.031C382.269 307.337 377.175 315.599 369.441 320.04L368.926 314.171Z" fill="#0B0B0B" stroke="black"/>
<path d="M366.274 289.997C366.289 289.956 366.308 289.908 366.329 289.851C366.402 289.659 366.511 289.377 366.653 289.017C366.936 288.297 367.353 287.267 367.882 286.027C368.941 283.545 370.45 280.231 372.253 276.889C374.058 273.543 376.147 270.19 378.363 267.621C380.374 265.289 382.422 263.683 384.396 263.226C384.374 263.352 384.349 263.493 384.321 263.65C384.193 264.359 383.994 265.381 383.71 266.626C383.142 269.117 382.235 272.497 380.881 276.054C378.228 283.024 373.912 290.529 367.197 293.515L366.274 289.997Z" fill="#0B0B0B" stroke="black"/>
<path d="M364.213 267.399C364.222 267.357 364.232 267.307 364.244 267.249C364.286 267.042 364.35 266.736 364.434 266.346C364.603 265.566 364.855 264.447 365.186 263.095C365.849 260.391 366.831 256.761 368.104 253.05C369.378 249.334 370.938 245.558 372.753 242.551C374.394 239.834 376.191 237.833 378.101 237.001C378.097 237.083 378.092 237.171 378.086 237.265C378.049 237.91 377.981 238.846 377.857 240C377.61 242.311 377.141 245.495 376.254 248.992C374.518 255.834 371.203 263.787 364.904 268.774L364.213 267.399Z" fill="#0B0B0B" stroke="black"/>
<path d="M359.505 238.077C359.513 238.048 359.522 238.014 359.533 237.977C359.579 237.811 359.647 237.566 359.737 237.252C359.918 236.626 360.184 235.726 360.527 234.634C361.214 232.449 362.208 229.499 363.436 226.436C364.665 223.37 366.124 220.204 367.738 217.58C369.132 215.316 370.608 213.512 372.109 212.498C372.105 212.574 372.101 212.654 372.097 212.738C372.062 213.47 371.999 214.523 371.888 215.803C371.667 218.366 371.258 221.834 370.502 225.466C369.746 229.1 368.648 232.877 367.059 236.067C365.566 239.062 363.665 241.491 361.254 242.826L359.505 238.077Z" fill="#0B0B0B" stroke="black"/>
<path d="M356.814 224.395L355.766 218.766L353.04 181.771C353.361 182.467 353.733 183.302 354.136 184.257C355.407 187.266 356.983 191.453 358.208 196.171C360.562 205.237 361.58 216.12 356.814 224.395Z" fill="#0B0B0B" stroke="black"/>
<path d="M332.348 154.851C332.071 154.291 331.802 153.761 331.544 153.266C333.483 155.318 336.058 158.305 338.602 162.045C343.402 169.1 348.064 178.796 348.173 189.92L343.098 179.616L343.096 179.613L343.072 179.551L342.975 179.312C342.89 179.102 342.766 178.794 342.607 178.401C342.288 177.616 341.83 176.494 341.273 175.142C340.158 172.438 338.645 168.816 337.052 165.146C335.46 161.477 333.785 157.754 332.348 154.851Z" fill="#0B0B0B" stroke="black"/>
<path d="M423.156 512.034C423.06 512.032 422.973 512.028 422.896 512.024C422.258 499.588 426.362 493.874 430.511 491.229C432.63 489.879 434.799 489.302 436.444 489.065C437.265 488.946 437.952 488.912 438.431 488.908C438.67 488.906 438.857 488.911 438.983 488.917C438.983 488.917 438.983 488.917 438.983 488.917L443.017 493.182C440.738 503.589 435.597 508.259 431.071 510.354C428.777 511.416 426.62 511.825 425.037 511.969C424.247 512.041 423.601 512.047 423.156 512.034Z" fill="#0B0B0B" stroke="black"/>
<path d="M403.704 494.399C403.576 494.393 403.463 494.387 403.367 494.381C402.154 481.679 406.633 475.218 411.344 471.901C413.743 470.212 416.23 469.32 418.121 468.851C419.065 468.617 419.858 468.488 420.412 468.419C420.683 468.385 420.896 468.365 421.042 468.354L425.06 472.769C422.615 484.813 417.072 490.169 412.202 492.543C409.738 493.744 407.423 494.194 405.724 494.343C404.875 494.418 404.182 494.417 403.704 494.399Z" fill="#0B0B0B" stroke="black"/>
<path d="M378.65 464.375C384.228 453.117 391.661 449.481 397.686 448.626C400.759 448.191 403.489 448.476 405.451 448.872C406.431 449.069 407.218 449.294 407.757 449.468C408.026 449.555 408.233 449.629 408.372 449.681C408.384 449.686 408.396 449.691 408.407 449.695L410.009 452.907C402.803 461.846 394.858 464.665 388.714 465.26C385.606 465.561 382.95 465.294 381.073 464.952C380.135 464.781 379.393 464.591 378.888 464.446C378.801 464.421 378.722 464.397 378.65 464.375Z" fill="#0B0B0B" stroke="black"/>
<path d="M366.027 441.282C371.254 430.345 378.607 426.988 384.65 426.334C387.739 425.999 390.508 426.369 392.506 426.824C393.504 427.052 394.308 427.3 394.859 427.49C395.135 427.585 395.348 427.666 395.49 427.722C395.506 427.729 395.522 427.735 395.536 427.74L397.071 430.828C391.363 438.97 383.53 441.561 377.071 442.11C373.806 442.387 370.899 442.141 368.807 441.825C367.761 441.668 366.922 441.493 366.345 441.358C366.228 441.331 366.122 441.305 366.027 441.282Z" fill="#0B0B0B" stroke="black"/>
<path d="M355.072 409.525C358.507 405.182 362.206 402.925 365.82 401.966C369.555 400.975 373.244 401.359 376.52 402.327C379.798 403.295 382.643 404.843 384.673 406.153C385.686 406.808 386.494 407.401 387.046 407.829C387.322 408.043 387.534 408.216 387.677 408.335C387.714 408.366 387.747 408.393 387.774 408.417L388.673 411.912C381.38 417.359 372.973 416.767 366.288 414.746C362.91 413.725 359.994 412.344 357.921 411.218C356.885 410.655 356.062 410.156 355.498 409.799C355.334 409.695 355.191 409.603 355.072 409.525Z" fill="#0B0B0B" stroke="black"/>
<path d="M347.829 385.23C351.232 380.63 354.917 378.211 358.522 377.149C362.244 376.053 365.932 376.391 369.212 377.344C372.495 378.297 375.351 379.862 377.391 381.194C378.41 381.859 379.221 382.464 379.777 382.901C380.055 383.12 380.269 383.297 380.412 383.418C380.448 383.448 380.479 383.474 380.505 383.497L381.232 386.894C375.042 392.804 366.712 392.419 359.777 390.459C356.284 389.471 353.182 388.093 350.952 386.96C349.837 386.394 348.942 385.89 348.327 385.528C348.132 385.414 347.966 385.314 347.829 385.23Z" fill="#0B0B0B" stroke="black"/>
<path d="M345.207 345.013C345.082 344.842 344.973 344.69 344.88 344.56C352.891 342.168 360.57 346.103 366.376 350.83C369.344 353.247 371.789 355.846 373.494 357.842C374.346 358.84 375.011 359.685 375.463 360.28C375.689 360.578 375.861 360.813 375.977 360.973C376.01 361.018 376.038 361.057 376.061 361.09L376.097 365.835C368.266 366.446 360.468 361.189 354.518 355.586C351.502 352.747 348.994 349.85 347.24 347.662C346.363 346.569 345.675 345.654 345.207 345.013Z" fill="#0B0B0B" stroke="black"/>
<path d="M371.413 344.043C362.554 341.038 355.36 334.401 350.326 328.404C347.745 325.328 345.742 322.432 344.384 320.306C343.706 319.244 343.19 318.374 342.843 317.771C342.748 317.606 342.666 317.461 342.597 317.337C345.677 316.297 348.888 316.992 352.045 318.731C355.386 320.572 358.607 323.553 361.427 326.737C364.242 329.916 366.635 333.271 368.326 335.835C369.17 337.116 369.839 338.197 370.295 338.958C370.523 339.338 370.699 339.638 370.817 339.843C370.873 339.94 370.916 340.016 370.946 340.068L371.413 344.043Z" fill="#0B0B0B" stroke="black"/>
<path d="M370.411 318.521C361.63 316.929 354.06 310.856 348.613 305.042C345.819 302.06 343.599 299.162 342.077 297.011C341.317 295.936 340.732 295.047 340.337 294.429C340.252 294.295 340.175 294.174 340.108 294.066C343.267 293.51 346.542 294.24 349.728 295.719C353.145 297.304 356.421 299.734 359.28 302.284C362.136 304.833 364.559 307.486 366.269 309.505C367.124 310.514 367.799 311.363 368.26 311.958C368.491 312.256 368.668 312.491 368.787 312.65C368.84 312.722 368.881 312.778 368.911 312.819L370.411 318.521Z" fill="#0B0B0B" stroke="black"/>
<path d="M366.289 293.067C359.28 290.864 354.137 283.9 350.705 277.276C348.955 273.897 347.668 270.643 346.819 268.233C346.395 267.028 346.08 266.036 345.872 265.346C345.826 265.194 345.786 265.056 345.75 264.935C347.763 265.167 349.982 266.533 352.246 268.623C354.742 270.926 357.201 274.021 359.376 277.141C361.549 280.257 363.427 283.379 364.762 285.724C365.429 286.896 365.96 287.873 366.324 288.556C366.506 288.897 366.647 289.165 366.741 289.348C366.769 289.401 366.793 289.447 366.812 289.485L366.289 293.067Z" fill="#0B0B0B" stroke="black"/>
<path d="M363.387 268.515C355.86 265.707 350.257 259.159 346.497 253.184C344.576 250.13 343.148 247.244 342.201 245.122C341.728 244.062 341.375 243.193 341.141 242.59C341.106 242.502 341.075 242.42 341.046 242.343C343.127 242.545 345.458 243.896 347.857 245.976C350.512 248.277 353.158 251.389 355.513 254.531C357.865 257.67 359.913 260.821 361.374 263.189C362.104 264.373 362.687 265.36 363.087 266.05C363.287 266.395 363.441 266.666 363.545 266.851C363.574 266.902 363.599 266.946 363.62 266.984L363.387 268.515Z" fill="#0B0B0B" stroke="black"/>
<path d="M359.869 244.696C357.236 243.877 354.882 241.884 352.813 239.253C350.611 236.451 348.771 232.974 347.295 229.568C345.821 226.164 344.719 222.85 343.984 220.385C343.617 219.154 343.343 218.135 343.16 217.426C343.139 217.344 343.119 217.266 343.101 217.192C344.774 217.881 346.583 219.348 348.405 221.283C350.516 223.525 352.585 226.33 354.409 229.083C356.231 231.833 357.8 234.52 358.915 236.52C359.472 237.52 359.914 238.347 360.218 238.924C360.369 239.212 360.486 239.438 360.565 239.591C360.583 239.626 360.599 239.657 360.612 239.684L359.869 244.696Z" fill="#0B0B0B" stroke="black"/>
<path d="M356.437 223.421C347.49 220.079 341.325 211.045 337.347 202.561C335.278 198.147 333.817 193.918 332.874 190.791C332.575 189.799 332.328 188.919 332.13 188.18L353.656 218.387L356.437 223.421Z" fill="#0B0B0B" stroke="black"/>
<path d="M346.688 189.945C335.775 187.831 327.096 181.474 321.037 175.459C317.833 172.278 315.371 169.201 313.708 166.916C314.139 167.254 314.601 167.609 315.09 167.977C317.678 169.923 321.03 172.253 324.345 174.492C327.661 176.732 330.945 178.884 333.4 180.476C334.627 181.273 335.648 181.929 336.361 182.386C336.718 182.615 336.998 182.794 337.189 182.916L337.407 183.055L337.463 183.09L337.466 183.092L346.688 189.945Z" fill="#0B0B0B" stroke="black"/>
<path d="M336.012 173.394L335.739 174.044C335.532 173.862 335.266 173.629 334.949 173.351C334.109 172.617 332.901 171.569 331.428 170.312C328.484 167.799 324.479 164.451 320.241 161.111C316.005 157.773 311.527 154.437 307.637 151.952C306.116 150.98 304.677 150.133 303.374 149.468C305.693 149.913 308.664 150.683 311.957 152.016C319.602 155.111 328.99 161.24 336.012 173.394Z" fill="#0B0B0B" stroke="black"/>
<path d="M348.487 193.12C352.795 204.954 356.819 221.803 360.435 243.351L360.361 243.363C356.83 222.308 352.853 205.564 348.615 193.708C346.481 187.735 344.273 182.982 342.01 179.539C339.902 176.332 337.707 174.198 335.422 173.325L335.436 173.279C337.541 174.081 339.672 176.008 341.8 179.136C344.08 182.487 346.316 187.157 348.487 193.12Z" fill="#0B0B0B" stroke="black"/>
<path d="M371.231 333.64C371.539 337.567 371.938 341.475 372.394 345.266L371.796 345.341C371.333 341.51 370.944 337.625 370.618 333.739C367.746 298.495 364.147 266.155 360.118 241.908L360.167 241.843C364.112 266.016 368.388 298.874 371.231 333.64Z" fill="#0B0B0B" stroke="black"/>
<path d="M503.037 532.892L502.621 533.953C498.78 532.333 472.099 520.54 443.915 493.748L443.915 493.747C426.16 476.879 411.19 457.305 399.56 435.753L399.12 435.99L399.56 435.753C385.153 409.054 375.668 375.946 371.593 343.508L372.229 343.778C381.303 417.275 416.855 466.423 444.636 492.852C459.713 507.198 474.35 517.22 485.254 523.673C490.707 526.899 495.227 529.234 498.404 530.771C499.992 531.539 501.245 532.109 502.11 532.49C502.499 532.661 502.809 532.795 503.037 532.892Z" fill="#0B0B0B" stroke="black"/>
<g opacity="0.7">
<path opacity="0.7" d="M523.639 502.271C523.992 502.178 524.474 502.061 525.064 501.942C526.394 501.674 528.265 501.398 530.425 501.37C534.611 501.315 539.841 502.188 544.34 505.794C544.206 505.899 544.036 506.024 543.831 506.159C543.183 506.584 542.173 507.118 540.745 507.524C537.917 508.33 533.416 508.644 526.814 506.562L523.639 502.271Z" fill="#FDCA05" stroke="black"/>
<path opacity="0.7" d="M521.244 523.452C521.071 523.627 520.915 523.768 520.785 523.879C518.147 518.749 518.336 513.446 519.227 509.354C519.686 507.242 520.33 505.462 520.859 504.212C521.094 503.657 521.306 503.207 521.468 502.879L525.038 506.844C525.759 513.734 524.552 518.085 523.198 520.699C522.515 522.017 521.79 522.902 521.244 523.452Z" fill="#FDCA05" stroke="black"/>
<path opacity="0.7" d="M511.591 486.134C511.612 486.093 511.636 486.047 511.663 485.996C511.796 485.755 512.013 485.411 512.344 485.025C513.004 484.256 514.126 483.307 515.958 482.653C519.582 481.36 526.075 481.195 537.403 486.058C537.342 486.224 537.257 486.434 537.144 486.678C536.847 487.316 536.357 488.182 535.583 489.078C534.045 490.862 531.364 492.797 526.787 493.283C522.153 493.774 519.141 493.061 516.894 491.698C514.703 490.371 513.184 488.396 511.591 486.134Z" fill="#FDCA05" stroke="black"/>
<path opacity="0.7" d="M502.506 510.968C502.242 511.007 502.018 511.028 501.844 511.039C500.447 498.768 502.473 492.584 504.754 489.478C505.907 487.908 507.138 487.106 508.064 486.694C508.529 486.488 508.92 486.378 509.19 486.321C509.246 486.309 509.298 486.299 509.343 486.291C511.042 488.439 512.48 490.469 513.11 492.962C513.757 495.523 513.564 498.637 511.768 502.937C509.994 507.185 507.382 509.198 505.241 510.161C504.165 510.645 503.199 510.867 502.506 510.968Z" fill="#FDCA05" stroke="black"/>
<path opacity="0.7" d="M500.441 466.674C500.47 466.552 500.516 466.37 500.583 466.141C500.719 465.681 500.939 465.03 501.278 464.272C501.957 462.756 503.105 460.827 504.985 459.159C508.665 455.893 515.284 453.51 527.073 457.53C527.056 457.605 527.036 457.69 527.012 457.784C526.903 458.215 526.723 458.835 526.439 459.576C525.871 461.059 524.891 463.021 523.245 464.937C519.997 468.716 514.099 472.382 503.445 471.718L500.441 466.674Z" fill="#FDCA05" stroke="black"/>
<path opacity="0.7" d="M489.453 442.316C489.52 442.186 489.621 441.997 489.757 441.761C490.035 441.276 490.46 440.595 491.041 439.814C492.205 438.252 493.99 436.304 496.475 434.744C501.357 431.683 509.05 430.054 520.298 436.093C520.267 436.184 520.23 436.291 520.185 436.411C520.017 436.859 519.75 437.498 519.353 438.252C518.559 439.76 517.249 441.721 515.189 443.529C511.117 447.101 504.033 450.141 491.975 447.74L489.453 442.316Z" fill="#FDCA05" stroke="black"/>
<path opacity="0.7" d="M483.013 418.509C483.019 418.499 483.026 418.488 483.033 418.478C483.115 418.355 483.24 418.173 483.408 417.945C483.744 417.489 484.252 416.848 484.933 416.116C486.295 414.65 488.345 412.825 491.095 411.385C496.486 408.563 504.645 407.177 515.748 413.059C515.702 413.119 515.651 413.185 515.595 413.256C515.27 413.669 514.778 414.256 514.117 414.942C512.793 416.315 510.793 418.083 508.094 419.653C502.758 422.757 494.662 425.106 483.59 422.054L483.013 418.509Z" fill="#FDCA05" stroke="black"/>
<path opacity="0.7" d="M477.082 395.244C477.09 395.231 477.099 395.217 477.109 395.202C477.192 395.074 477.317 394.884 477.485 394.646C477.822 394.17 478.329 393.499 479.007 392.732C480.363 391.196 482.394 389.279 485.096 387.748C490.384 384.75 498.313 383.182 508.943 389.006C508.88 389.08 508.809 389.163 508.73 389.254C508.341 389.7 507.761 390.332 507.005 391.07C505.491 392.547 503.275 394.444 500.463 396.125C494.9 399.451 487.028 401.921 477.635 398.648L477.082 395.244Z" fill="#FDCA05" stroke="black"/>
<path opacity="0.7" d="M474.907 374.056C474.923 374.024 474.942 373.985 474.964 373.942C475.047 373.776 475.173 373.533 475.34 373.226C475.676 372.612 476.179 371.746 476.846 370.741C478.184 368.728 480.173 366.171 482.79 363.972C485.407 361.773 488.634 359.945 492.453 359.358C496.148 358.791 500.439 359.379 505.32 361.984C505.243 362.103 505.149 362.245 505.04 362.406C504.667 362.959 504.112 363.745 503.388 364.676C501.939 366.538 499.819 368.971 497.131 371.259C491.812 375.788 484.341 379.695 475.47 377.622L474.907 374.056Z" fill="#FDCA05" stroke="black"/>
<path opacity="0.7" d="M474.28 349.044C474.297 349.013 474.316 348.977 474.338 348.936C474.427 348.771 474.562 348.529 474.742 348.225C475.101 347.616 475.637 346.757 476.345 345.768C477.762 343.787 479.854 341.292 482.565 339.211C485.276 337.132 488.588 335.479 492.454 335.148C496.197 334.827 500.508 335.743 505.349 338.791C505.252 338.919 505.133 339.073 504.993 339.25C504.551 339.811 503.901 340.605 503.068 341.538C501.403 343.404 499.014 345.816 496.119 348.005C490.372 352.351 482.752 355.736 474.839 352.476L474.28 349.044Z" fill="#FDCA05" stroke="black"/>
<path opacity="0.7" d="M475.82 326.399C475.843 326.365 475.871 326.325 475.903 326.278C476.014 326.115 476.18 325.876 476.399 325.573C476.835 324.967 477.479 324.105 478.306 323.086C479.96 321.048 482.339 318.389 485.246 315.898C490.932 311.027 498.512 306.901 506.586 309.09C506.496 309.222 506.39 309.377 506.269 309.551C505.817 310.204 505.152 311.136 504.302 312.252C502.602 314.484 500.165 317.444 497.218 320.362C491.404 326.118 483.732 331.582 475.873 331.191L475.82 326.399Z" fill="#FDCA05" stroke="black"/>
<path opacity="0.7" d="M478.777 304.658C478.809 304.607 478.855 304.533 478.916 304.438C479.042 304.239 479.23 303.947 479.474 303.576C479.962 302.836 480.674 301.783 481.572 300.539C483.368 298.048 485.899 294.797 488.844 291.739C491.794 288.678 495.137 285.836 498.552 284.138C501.779 282.534 505.017 281.975 508.052 283.147C507.978 283.267 507.89 283.409 507.788 283.57C507.417 284.157 506.864 285.004 506.142 286.037C504.697 288.103 502.574 290.91 499.865 293.874C494.585 299.652 487.119 305.979 478.146 308.608L478.777 304.658Z" fill="#FDCA05" stroke="black"/>
<path opacity="0.7" d="M484.028 279.13C484.055 279.088 484.095 279.03 484.145 278.957C484.258 278.793 484.425 278.551 484.643 278.244C485.08 277.631 485.721 276.756 486.535 275.714C488.162 273.628 490.478 270.88 493.23 268.219C495.984 265.557 499.161 262.998 502.511 261.276C505.636 259.67 508.878 258.81 512.057 259.238C511.994 259.348 511.922 259.472 511.842 259.61C511.472 260.244 510.923 261.155 510.206 262.26C508.771 264.472 506.668 267.456 503.995 270.549C498.784 276.578 491.463 282.952 482.754 284.894L484.028 279.13Z" fill="#FDCA05" stroke="black"/>
<path opacity="0.7" d="M488.671 255.271C488.697 255.237 488.729 255.196 488.767 255.149C488.893 254.987 489.081 254.75 489.324 254.448C489.809 253.845 490.513 252.985 491.388 251.958C493.137 249.904 495.565 247.187 498.282 244.532C501.001 241.875 503.994 239.294 506.874 237.5C509.488 235.872 511.922 234.947 513.941 235.099C513.883 235.212 513.817 235.34 513.744 235.481C513.411 236.12 512.917 237.036 512.275 238.14C510.991 240.349 509.121 243.305 506.77 246.298C502.163 252.164 495.811 258.047 488.513 258.905L488.671 255.271Z" fill="#FDCA05" stroke="black"/>
<path opacity="0.7" d="M493.431 233.079C493.452 233.041 493.476 232.996 493.505 232.944C493.607 232.759 493.759 232.486 493.955 232.138C494.348 231.444 494.922 230.451 495.64 229.259C497.077 226.875 499.094 223.702 501.413 220.538C503.735 217.37 506.349 214.229 508.978 211.899C511.354 209.793 513.667 208.417 515.741 208.191C515.713 208.268 515.682 208.351 515.648 208.44C515.421 209.046 515.077 209.919 514.615 210.986C513.691 213.121 512.295 216.024 510.407 219.101C506.712 225.12 501.178 231.726 493.677 234.601L493.431 233.079Z" fill="#FDCA05" stroke="black"/>
<path opacity="0.7" d="M497.668 203.684C497.684 203.658 497.703 203.629 497.724 203.597C497.817 203.452 497.955 203.238 498.135 202.966C498.493 202.422 499.015 201.642 499.667 200.702C500.972 198.821 502.797 196.301 504.88 193.742C506.965 191.181 509.3 188.592 511.622 186.566C513.626 184.818 515.572 183.534 517.308 183.011C517.282 183.082 517.255 183.157 517.226 183.236C516.974 183.924 516.6 184.91 516.114 186.1C515.14 188.481 513.716 191.671 511.914 194.913C510.111 198.158 507.938 201.437 505.472 204.008C503.156 206.423 500.619 208.174 497.921 208.73L497.668 203.684Z" fill="#FDCA05" stroke="black"/>
<path opacity="0.7" d="M499.182 189.854L499.833 184.125L508.234 148.007C508.333 148.767 508.441 149.675 508.542 150.707C508.861 153.958 509.123 158.424 508.891 163.293C508.446 172.653 506.186 183.355 499.182 189.854Z" fill="#FDCA05" stroke="black"/>
<path opacity="0.7" d="M496.484 116.144C496.387 115.533 496.288 114.951 496.189 114.406C497.432 116.943 499.002 120.559 500.317 124.88C502.802 133.046 504.365 143.688 501.137 154.326L499.386 142.992L499.386 142.988L499.38 142.922L499.359 142.664C499.341 142.438 499.314 142.107 499.279 141.685C499.208 140.841 499.105 139.633 498.975 138.176C498.715 135.262 498.347 131.353 497.917 127.375C497.488 123.398 496.995 119.345 496.484 116.144Z" fill="#FDCA05" stroke="black"/>
<path opacity="0.7" d="M498.907 466.817C498.908 466.817 498.908 466.817 498.908 466.817L501.524 472.114C496.228 481.395 489.923 484.324 484.979 484.972C482.473 485.3 480.293 485.045 478.741 484.708C477.966 484.54 477.348 484.351 476.928 484.206C476.836 484.174 476.754 484.145 476.681 484.118C479.764 472.033 485.381 467.793 490.129 466.501C492.553 465.842 494.797 465.937 496.438 466.201C497.258 466.332 497.924 466.505 498.382 466.644C498.612 466.713 498.789 466.774 498.907 466.817Z" fill="#FDCA05" stroke="black"/>
<path opacity="0.7" d="M487.277 441.714C487.545 441.762 487.754 441.806 487.897 441.838L490.42 447.291C484.496 458.064 477.608 461.528 472.253 462.344C469.543 462.757 467.198 462.497 465.533 462.134C464.7 461.952 464.039 461.745 463.589 461.585C463.467 461.542 463.362 461.502 463.272 461.467C465.9 448.962 472.1 444.115 477.585 442.346C480.378 441.445 483.017 441.331 484.962 441.445C485.933 441.502 486.728 441.615 487.277 441.714Z" fill="#FDCA05" stroke="black"/>
<path opacity="0.7" d="M448.606 425.437C457.287 416.345 465.465 415.083 471.471 416.06C474.534 416.558 477.055 417.642 478.81 418.604C479.687 419.084 480.371 419.532 480.833 419.859C481.064 420.022 481.24 420.155 481.357 420.246C481.367 420.254 481.377 420.261 481.386 420.269L481.955 423.814C472.415 430.205 463.992 430.534 457.949 429.274C454.893 428.637 452.437 427.592 450.748 426.708C449.903 426.266 449.251 425.864 448.812 425.575C448.737 425.525 448.668 425.479 448.606 425.437Z" fill="#FDCA05" stroke="black"/>
<path opacity="0.7" d="M443.432 399.656C451.679 390.757 459.695 389.734 465.658 390.904C468.705 391.503 471.236 392.679 473.008 393.708C473.892 394.222 474.585 394.698 475.055 395.044C475.29 395.217 475.469 395.357 475.588 395.453C475.601 395.464 475.614 395.474 475.626 395.484L476.179 398.898C468.304 404.977 460.055 405.123 453.727 403.728C450.528 403.023 447.826 401.924 445.923 401.002C444.973 400.541 444.223 400.124 443.713 399.824C443.609 399.763 443.516 399.707 443.432 399.656Z" fill="#FDCA05" stroke="black"/>
<path opacity="0.7" d="M442.748 366.435C442.622 366.286 442.513 366.155 442.423 366.045C446.993 362.922 451.194 361.868 454.929 362.028C458.79 362.194 462.197 363.659 465.037 365.558C467.879 367.458 470.135 369.783 471.683 371.638C472.457 372.564 473.051 373.371 473.451 373.944C473.651 374.231 473.802 374.459 473.903 374.615C473.929 374.655 473.952 374.691 473.972 374.722L473.787 378.323C465.204 381.358 457.355 378.291 451.575 374.371C448.654 372.391 446.282 370.204 444.638 368.511C443.817 367.665 443.18 366.943 442.748 366.435Z" fill="#FDCA05" stroke="black"/>
<path opacity="0.7" d="M443.075 341.154C442.923 340.986 442.793 340.841 442.688 340.721C447.316 337.337 451.562 336.12 455.326 336.176C459.212 336.233 462.637 337.65 465.488 339.533C468.341 341.418 470.604 343.76 472.157 345.637C472.932 346.575 473.527 347.393 473.928 347.975C474.128 348.267 474.28 348.499 474.381 348.657C474.405 348.695 474.426 348.729 474.444 348.758L474.089 352.247C466.419 356.051 458.579 353.205 452.54 349.269C449.498 347.286 446.947 345.047 445.154 343.302C444.259 342.43 443.554 341.682 443.075 341.154Z" fill="#FDCA05" stroke="black"/>
<path opacity="0.7" d="M452.179 301.515C452.111 301.315 452.052 301.137 452.002 300.985C460.366 301.092 466.527 307.133 470.663 313.372C472.777 316.562 474.338 319.769 475.371 322.181C475.887 323.386 476.271 324.391 476.525 325.093C476.652 325.444 476.746 325.72 476.809 325.907C476.827 325.96 476.842 326.006 476.855 326.045L475.473 330.634C467.819 328.868 461.94 321.517 457.925 314.391C455.89 310.778 454.357 307.264 453.332 304.652C452.82 303.346 452.436 302.267 452.179 301.515Z" fill="#FDCA05" stroke="black"/>
<path opacity="0.7" d="M477.503 308.39C469.938 302.89 465.043 294.414 462.021 287.192C460.472 283.488 459.421 280.128 458.757 277.694C458.426 276.478 458.192 275.494 458.04 274.816C457.999 274.63 457.964 274.467 457.934 274.328C461.184 274.25 464.043 275.868 466.539 278.467C469.182 281.218 471.37 285.021 473.115 288.899C474.858 292.771 476.145 296.686 476.997 299.636C477.423 301.11 477.739 302.341 477.949 303.203C478.054 303.634 478.132 303.973 478.184 304.203C478.209 304.313 478.227 304.398 478.24 304.457L477.503 308.39Z" fill="#FDCA05" stroke="black"/>
<path opacity="0.7" d="M484.134 283.697C476.229 279.569 470.809 271.517 467.336 264.343C465.554 260.663 464.296 257.235 463.482 254.727C463.076 253.473 462.781 252.451 462.588 251.743C462.546 251.589 462.509 251.45 462.477 251.327C465.66 251.736 468.57 253.408 471.174 255.771C473.964 258.304 476.371 261.602 478.342 264.892C480.311 268.178 481.836 271.437 482.868 273.877C483.384 275.095 483.776 276.108 484.039 276.815C484.171 277.168 484.27 277.445 484.336 277.633C484.365 277.717 484.388 277.784 484.405 277.831L484.134 283.697Z" fill="#FDCA05" stroke="black"/>
<path opacity="0.7" d="M487.776 258.223C481.736 254.029 478.897 245.849 477.59 238.505C476.923 234.758 476.663 231.269 476.569 228.716C476.522 227.44 476.517 226.399 476.524 225.678C476.525 225.519 476.527 225.376 476.53 225.249C478.384 226.066 480.097 228.028 481.638 230.694C483.336 233.633 484.763 237.318 485.912 240.942C487.06 244.563 487.924 248.102 488.501 250.737C488.789 252.054 489.006 253.145 489.15 253.905C489.222 254.285 489.276 254.583 489.312 254.785C489.323 254.845 489.332 254.896 489.339 254.938L487.776 258.223Z" fill="#FDCA05" stroke="black"/>
<path opacity="0.7" d="M492.362 233.913C486.007 228.991 482.605 221.075 480.794 214.254C479.868 210.767 479.364 207.588 479.092 205.281C478.955 204.128 478.877 203.194 478.833 202.549C478.827 202.454 478.821 202.366 478.816 202.284C480.737 203.09 482.558 205.068 484.228 207.765C486.077 210.749 487.678 214.506 488.992 218.205C490.305 221.9 491.325 225.518 492.016 228.213C492.362 229.56 492.626 230.676 492.803 231.454C492.891 231.844 492.958 232.148 493.003 232.355C493.015 232.414 493.026 232.464 493.035 232.507L492.362 233.913Z" fill="#FDCA05" stroke="black"/>
<path opacity="0.7" d="M496.026 210.113C493.757 208.547 492.102 205.943 490.91 202.814C489.641 199.483 488.919 195.615 488.524 191.923C488.129 188.234 488.063 184.741 488.095 182.169C488.111 180.883 488.152 179.829 488.189 179.097C488.193 179.012 488.197 178.933 488.201 178.857C489.596 180.016 490.888 181.958 492.054 184.35C493.403 187.121 494.545 190.415 495.468 193.587C496.39 196.756 497.09 199.789 497.56 202.03C497.794 203.15 497.971 204.072 498.089 204.713C498.148 205.033 498.193 205.284 498.222 205.453C498.229 205.492 498.235 205.526 498.24 205.556L496.026 210.113Z" fill="#FDCA05" stroke="black"/>
<path opacity="0.7" d="M499.091 188.796C491.541 182.944 488.343 172.483 487.07 163.197C486.408 158.366 486.273 153.893 486.303 150.626C486.312 149.589 486.339 148.675 486.37 147.909L497.936 183.149L499.091 188.796Z" fill="#FDCA05" stroke="black"/>
<path opacity="0.7" d="M499.736 153.9C489.967 148.621 483.583 139.976 479.595 132.438C477.503 128.485 476.076 124.848 475.167 122.181C475.465 122.614 475.786 123.07 476.126 123.544C478.013 126.174 480.516 129.397 483.012 132.522C485.509 135.648 488.003 138.68 489.872 140.931C490.807 142.056 491.585 142.987 492.131 143.636C492.403 143.96 492.617 144.214 492.763 144.387L492.93 144.585L492.973 144.636L492.976 144.639L499.736 153.9Z" fill="#FDCA05" stroke="black"/>
<path opacity="0.7" d="M494.004 135.466C493.863 135.233 493.683 134.939 493.468 134.588C492.885 133.637 492.043 132.277 491.011 130.639C488.947 127.363 486.12 122.973 483.065 118.523C480.012 114.075 476.727 109.556 473.748 106.026C472.589 104.652 471.471 103.422 470.427 102.402C472.505 103.517 475.102 105.133 477.837 107.376C484.215 112.609 491.349 121.258 494.41 134.955L494.004 135.466Z" fill="#FDCA05" stroke="black"/>
<path opacity="0.7" d="M498.355 142.585C497.298 138.897 495.84 136.208 493.926 134.695L493.967 134.637C495.735 136.034 497.195 138.512 498.295 142.133C499.474 146.013 500.219 151.138 500.516 157.477C501.107 170.057 499.934 187.339 496.971 208.994L496.901 208.984C499.794 187.833 500.971 170.661 500.448 158.079C500.185 151.74 499.489 146.545 498.355 142.585Z" fill="#FDCA05" stroke="black"/>
<path opacity="0.7" d="M497.173 207.441C493.792 231.702 488.055 264.339 480.401 298.41L480.4 298.412C479.556 302.249 478.766 306.079 478.076 309.857L477.48 309.748C478.177 305.96 478.955 302.089 479.816 298.321L479.816 298.319C487.555 263.824 493.785 231.873 497.105 207.489L497.173 207.441Z" fill="#FDCA05" stroke="black"/>
<path opacity="0.7" d="M546.262 528.736C546.077 528.58 545.828 528.368 545.52 528.1C544.807 527.481 543.777 526.564 542.483 525.354C539.895 522.935 536.253 519.345 531.98 514.617C523.434 505.162 512.37 491.162 502.187 472.897L502.186 472.896C490.234 451.512 481.75 428.367 477.051 404.324C471.236 374.541 472.046 340.071 477.789 307.94L478.316 308.385C465.144 381.265 484.403 438.756 503.093 472.254C521.949 506.102 543.804 525.207 546.948 527.855L546.262 528.736Z" fill="#FDCA05" stroke="black"/>
</g>
<path d="M307.359 437.33C305.008 438.299 302.566 439.029 300.069 439.51C295.706 440.327 291.278 440.745 286.839 440.76C286.969 441.93 287.069 443.02 287.169 444.01C287.409 446.73 287.549 448.6 287.549 448.6L282.859 448.28L244.179 445.64L221.559 442.29C222.651 443.755 223.837 445.148 225.109 446.46C226.427 447.855 227.952 449.039 229.629 449.97C229.629 449.97 250.039 466.5 253.569 466.65C254.069 466.65 254.229 467.15 254.149 467.94C262.739 467.94 289.449 469.19 282.039 484.06C280.813 486.711 278.652 488.815 275.969 489.97C267.399 493.6 254.469 487.07 247.809 483.06C247.159 484.33 246.539 485.51 245.989 486.52C244.859 488.65 244.069 490.06 244.069 490.06L243.399 489.58L209.079 465.14L201.559 458.76C199.35 458.659 197.163 458.279 195.049 457.63V457.63L194.049 457.31C194.006 457.397 193.969 457.487 193.939 457.58C193.666 458.36 193.461 459.163 193.329 459.98C193.329 460.1 193.329 460.22 193.329 460.34C193.189 461.271 193.096 462.209 193.049 463.15C193.049 463.79 192.999 464.47 192.999 465.15C192.939 478.77 198.399 500.66 198.399 500.66C198.399 500.66 212.549 536.75 207.529 545.08C207.271 545.503 206.931 545.87 206.529 546.16C204.759 547.44 203.699 549.72 203.149 552.43C201.279 561.27 204.559 574.76 204.559 574.76C204.559 574.76 204.259 575.26 203.749 576.04C202.646 577.804 201.402 579.476 200.029 581.04C199.819 581.28 199.599 581.53 199.369 581.76C198.75 582.411 198.081 583.012 197.369 583.56C197.499 583.95 197.639 584.35 197.779 584.78C197.919 585.21 198.099 585.88 198.239 586.48C199.353 591.395 198.916 596.534 196.989 601.19C195.679 604.584 194.831 608.14 194.469 611.76V611.76C193.819 618.389 193.99 625.073 194.979 631.66C194.829 631.58 194.699 631.5 194.549 631.43C183.489 625.65 172.586 619.613 161.839 613.32C158.689 611.5 155.559 609.64 152.449 607.77C148.623 605.463 144.813 603.13 141.019 600.77C136.019 597.65 131.019 594.45 126.019 591.18L123.679 589.62L122.779 589.01C121.509 588.16 120.259 587.31 118.999 586.45C113.829 579.769 109.106 572.753 104.859 565.45C104.149 564.18 103.509 562.97 102.979 561.86V561.8L102.639 561.07L101.229 560.57C98.5794 559.64 96.8994 558.99 96.8994 558.99C98.1224 554.528 98.7082 549.916 98.6394 545.29C98.5594 536.29 96.0694 524.29 85.8094 514.67C70.6494 500.34 68.5594 486.19 68.3394 480.76C68.3394 480.38 68.3394 480.04 68.3394 479.76C68.3343 479.303 68.3544 478.845 68.3994 478.39L69.5594 477.28C66.6194 476.69 63.8594 476.42 63.8594 476.42C63.8594 476.42 73.9194 440.02 90.8594 427.87C99.2594 421.87 106.249 411.87 111.189 403.29C120.201 387.784 130.321 372.948 141.469 358.9L144.519 355.05L145.409 353.92L145.599 353.69L145.839 353.37C145.426 352.743 145.006 352.123 144.579 351.51L144.299 351.1C142.969 349.1 141.829 347.1 142.009 344.71C142.009 344.71 142.009 344.66 142.009 344.64C142.009 344.47 142.009 344.31 142.009 344.13C142.052 343.731 142.125 343.337 142.229 342.95C142.264 343.014 142.304 343.074 142.349 343.13C143.779 338.97 149.289 337.13 153.349 334.83C162.919 329.45 166.999 317.68 169.049 306.73C170.639 298.21 171.959 288.66 178.559 283.19C182.819 279.67 188.559 278.51 192.869 275.02C195.363 272.816 197.425 270.168 198.949 267.21C199.949 265.51 200.809 263.75 201.739 262.05C205.999 254.35 211.599 247.19 219.009 242.58C226.419 237.97 235.819 236.18 243.939 239.28C247.069 240.47 249.939 242.28 252.939 243.61C254.792 244.365 256.705 244.961 258.659 245.39C264.769 246.82 271.199 247.19 276.939 249.74C286.269 253.88 292.339 263.04 297.879 271.74C300.749 276.24 305.259 282.82 307.819 289.44C307.819 289.2 307.819 288.98 307.819 288.75C309.054 291.665 309.732 294.785 309.819 297.95C309.869 299.297 309.725 300.644 309.389 301.95C308.469 305.35 306.119 307.5 303.169 309.08L302.699 309.31C302.069 309.634 301.421 309.925 300.759 310.18C300.659 310.73 300.549 311.29 300.429 311.83C300.379 312.06 300.319 312.3 300.259 312.53C300.129 313.09 299.979 313.64 299.819 314.19C297.682 321.337 293.513 327.709 287.819 332.53C283.877 335.903 279.32 338.484 274.399 340.13C274.049 340.25 273.679 340.34 273.329 340.45C273.032 341.287 272.607 342.073 272.069 342.78C271.68 343.278 271.222 343.719 270.709 344.09C270.39 344.306 270.056 344.5 269.709 344.67C269.625 344.723 269.534 344.767 269.439 344.8C265.839 346.42 260.909 345.15 257.439 342.73C257.259 342.61 257.089 342.47 256.919 342.34C256.919 342.91 256.829 343.51 256.729 344.13C256.629 344.75 256.559 345.13 256.449 345.65C256.339 346.17 256.299 346.42 256.229 346.79C256.159 347.16 256.109 347.41 256.049 347.7L255.929 348.21C253.948 357.862 250.169 367.055 244.789 375.31C244.009 376.492 243.165 377.631 242.259 378.72L239.779 382.5V383.01C240.249 391.71 237.389 399.82 233.349 406.8C231.997 409.114 230.511 411.348 228.899 413.49L229.459 413.82C235.059 417.01 246.099 422.68 253.079 422.2C253.079 422.2 279.479 425.61 282.539 423.9C282.959 423.66 283.369 423.99 283.749 424.7C288.019 422.1 297.839 416.59 305.589 415.86C311.009 415.34 315.419 417.15 316.239 423.86C317.059 430.57 313.019 434.9 307.359 437.33Z" fill="url(#paint0_linear)"/>
<path d="M162.851 574.84C164.541 577.724 165.549 580.955 165.799 584.288C166.048 587.621 165.532 590.967 164.291 594.07C161.861 600.16 161.591 607.75 161.841 613.32C158.691 611.5 155.561 609.64 152.451 607.77C148.624 605.463 144.814 603.13 141.021 600.77C136.021 597.65 131.021 594.45 126.021 591.18L123.681 589.62L122.781 589.01C122.702 588.865 122.604 588.73 122.491 588.61C121.151 587.19 113.341 575.99 108.701 567.49C107.861 565.93 107.131 564.49 106.551 563.17V563.1C105.551 560.88 105.081 559.1 105.381 558.29C105.744 557.015 106.361 555.827 107.194 554.796C108.028 553.765 109.06 552.913 110.231 552.29C115.991 549.29 125.231 552.06 134.371 556.47C142.234 560.445 149.771 565.036 156.911 570.2L157.721 570.79L157.801 570.85C160.801 572.98 162.541 574.39 162.541 574.39C162.541 574.39 162.671 574.55 162.851 574.84Z" fill="#FBBEBE"/>
<path opacity="0.05" d="M161.33 573.51C163.023 576.396 164.033 579.631 164.283 582.968C164.533 586.304 164.015 589.654 162.77 592.76C160.34 598.85 160.07 606.44 160.32 612.02C157.173 610.186 154.043 608.333 150.93 606.46C147.096 604.153 143.286 601.82 139.5 599.46C134.5 596.33 129.5 593.13 124.55 589.86L122.21 588.3L121.31 587.69C121.229 587.546 121.131 587.412 121.02 587.29C119.68 585.88 111.87 574.68 107.23 566.17C106.39 564.61 105.66 563.17 105.08 561.85V561.79C104.08 559.56 103.61 557.79 103.91 556.97C104.275 555.696 104.892 554.508 105.726 553.477C106.559 552.447 107.591 551.594 108.76 550.97C114.52 547.97 123.76 550.74 132.9 555.15C140.764 559.124 148.301 563.715 155.44 568.88L156.25 569.47L156.33 569.53C159.33 571.66 161.07 573.07 161.07 573.07C161.07 573.07 161.15 573.22 161.33 573.51Z" fill="black"/>
<path d="M198.151 597.76C197.86 599.472 197.387 601.148 196.741 602.76C195.634 605.661 194.872 608.681 194.471 611.76V611.76C193.683 618.295 193.71 624.902 194.551 631.43C183.491 625.65 172.588 619.613 161.841 613.32C158.691 611.5 155.561 609.64 152.451 607.77C151.751 602.45 150.751 597.77 149.621 596.62C148.141 595.06 139.691 582.98 134.441 573.45C133.761 572.25 133.171 571.09 132.621 569.99V569.94C132.411 569.5 132.211 569.08 132.021 568.66C130.671 565.76 129.951 563.5 130.311 562.41C131.013 560.04 132.457 557.958 134.431 556.47C143.301 549.99 161.741 558.76 175.901 567.47L176.251 567.68C178.931 569.35 181.471 571 183.751 572.54L185.081 573.44C190.941 577.44 194.831 580.55 194.831 580.55C195.797 582.041 196.573 583.647 197.141 585.33C197.475 586.279 197.752 587.248 197.971 588.23C198.663 591.363 198.724 594.603 198.151 597.76V597.76Z" fill="#FBBEBE"/>
<path opacity="0.1" d="M108.751 567.49C116.021 570.03 126.751 573.4 132.591 573.49C133.195 573.509 133.801 573.479 134.401 573.4V573.4C138.511 572.84 151.181 573.74 162.811 574.79C167.471 575.2 171.961 575.63 175.671 576.01L184.991 577.01V573.41C182.401 571.63 179.391 569.65 176.171 567.65C161.961 558.87 143.291 549.9 134.351 556.43C121.761 550.35 108.981 547.43 105.351 558.25C104.931 559.66 106.461 563.24 108.751 567.49Z" fill="black"/>
<path d="M73.8203 483.68C74.0203 489.07 76.0403 503.06 90.5103 517.19C108.97 535.19 101.1 561.07 101.1 561.07C101.1 561.07 123.1 569.71 132.59 569.94C133.195 569.959 133.8 569.929 134.4 569.85C140.09 569.06 162.71 571.15 175.71 572.46L185.03 573.46V496.94L83.0903 472.18L73.8603 481.38C73.7979 482.145 73.7846 482.913 73.8203 483.68V483.68Z" fill="#032B4D"/>
<g opacity="0.1">
<path opacity="0.1" d="M183.359 572.51L185.029 572.68V573.5L175.709 572.5C166.379 571.56 152.119 570.22 142.709 569.83C149.219 569.25 170.769 571.24 183.359 572.51Z" fill="#032B4D"/>
<path opacity="0.1" d="M73.8592 481.43L83.0892 472.23L89.2492 473.72L81.5592 481.43C81.5102 482.196 81.5102 482.964 81.5592 483.73C81.7592 489.12 83.7792 503.1 98.2492 517.24C116.709 535.24 108.839 561.11 108.839 561.11C108.839 561.11 127.039 568.26 137.469 569.73C136.467 569.726 135.465 569.783 134.469 569.9C133.869 569.978 133.264 570.009 132.659 569.99C123.169 569.75 101.169 561.11 101.169 561.11C101.169 561.11 109.039 535.24 90.5792 517.24C76.0392 503.1 74.0192 489.12 73.8192 483.76C73.7822 482.983 73.7956 482.205 73.8592 481.43Z" fill="#032B4D"/>
</g>
<path d="M277.561 429.64C277.561 429.64 308.391 408.26 310.641 427.5C312.891 446.74 277.561 444.04 277.561 444.04V429.64Z" fill="#FBBEBE"/>
<path d="M224.4 415.46C224.4 415.46 241.07 426.46 250.3 425.81C250.3 425.81 275.5 429.19 278.43 427.5C281.36 425.81 283.16 451.92 283.16 451.92L241.75 448.99L215.19 444.94C215.19 444.94 201.91 436.84 201.91 429.86C201.91 422.88 224.4 415.46 224.4 415.46Z" fill="#F7CDDD"/>
<path d="M224.4 415.46C224.4 415.46 241.07 426.46 250.3 425.81C250.3 425.81 275.5 429.19 278.43 427.5C281.36 425.81 283.16 451.92 283.16 451.92L241.75 448.99L215.19 444.94C215.19 444.94 201.91 436.84 201.91 429.86C201.91 422.88 224.4 415.46 224.4 415.46Z" fill="#032B4D"/>
<path d="M248.841 471.1C248.841 471.1 286.331 469.55 277.931 487.01C269.531 504.47 241.131 483.27 241.131 483.27L248.841 471.1Z" fill="#FBBEBE"/>
<path d="M211.141 433.91C211.141 433.91 241.521 411.18 237.251 383.5C232.981 355.82 211.141 404.66 211.141 404.66V433.91Z" fill="#5C5C8E"/>
<path d="M219.561 308.42C219.566 318.377 223.439 327.942 230.361 335.1C234.094 338.954 238.589 341.989 243.561 344.01C245.164 344.68 246.815 345.228 248.501 345.65C250.291 346.112 252.112 346.446 253.951 346.65C255.271 346.78 256.601 346.85 257.951 346.85C262.248 346.841 266.512 346.1 270.561 344.66C277.221 342.346 283.115 338.244 287.598 332.802C292.081 327.361 294.98 320.79 295.975 313.81C296.971 306.831 296.027 299.712 293.245 293.233C290.462 286.755 285.951 281.168 280.203 277.084C274.456 273 267.696 270.577 260.663 270.081C253.63 269.585 246.596 271.035 240.332 274.271C234.069 277.508 228.817 282.406 225.153 288.43C221.489 294.453 219.554 301.369 219.561 308.42V308.42Z" fill="#FBBEBE"/>
<path opacity="0.1" d="M73.8203 483.68C77.2603 484.31 81.5103 485.47 81.5103 487.25C81.5103 490.25 129.51 506.46 129.51 506.46C129.51 506.46 127.71 510.65 132.51 517.86C137.31 525.07 176.34 566.47 176.34 566.47L176.21 567.69L175.71 572.46L173.33 595.27C173.33 595.27 188.33 589.87 193.13 590.47C194.68 590.66 196.37 589.67 197.92 588.23C197.35 585.505 196.289 582.906 194.79 580.56C194.79 580.56 190.9 577.5 185.03 573.45V496.94L83.0903 472.18L73.8603 481.38C73.7979 482.145 73.7846 482.913 73.8203 483.68V483.68Z" fill="black"/>
<path d="M69.5 479.45C69.5 479.45 81.5 480.64 81.5 483.65C81.5 486.66 129.5 502.86 129.5 502.86C129.5 502.86 127.7 507.05 132.5 514.26C137.3 521.47 176.33 562.87 176.33 562.87L173.33 591.67C173.33 591.67 188.33 586.27 193.13 586.87C195.28 587.14 197.65 585.15 199.61 582.87C201.236 580.948 202.685 578.883 203.94 576.7C203.94 576.7 198.53 553.88 205.74 548.48C212.95 543.08 197.94 503.48 197.94 503.48C197.94 503.48 191.15 475.32 193.15 463.24C193.277 462.435 193.471 461.643 193.73 460.87C193.73 460.78 193.78 460.69 193.82 460.6C198.1 449.06 244.14 352.25 244.14 352.25C244.11 349.504 243.917 346.763 243.56 344.04C243.47 343.28 243.35 342.49 243.2 341.7C242.968 340.261 242.657 338.836 242.27 337.43C242.01 336.51 241.73 335.63 241.4 334.79C239.98 331.13 237.8 328.32 234.54 328.25C234.54 328.25 230.94 324.25 222.54 323.19C216.34 322.38 207.54 323.19 195.54 328.25C167.34 340.25 160.74 340.85 160.74 340.85L146.56 359.42L143.64 363.24C132.968 377.161 123.306 391.829 114.73 407.13C110.01 415.61 103.33 425.5 95.32 431.44C79.11 443.45 69.5 479.45 69.5 479.45Z" fill="#032B4D"/>
<path opacity="0.1" d="M174.68 410.06C174.68 410.06 134.62 419.96 119.09 444.94L174.68 410.06Z" fill="black"/>
<path opacity="0.1" d="M162.299 453.94C162.299 453.94 154.729 504.8 156.829 508.63C158.929 512.46 162.299 453.94 162.299 453.94Z" fill="black"/>
<path opacity="0.1" d="M165.01 480.05C167.93 483.87 179.76 513.36 179.76 513.36L176.34 562.87L173.34 591.67C173.34 591.67 188.34 586.27 193.15 586.87C195.29 587.14 197.67 585.16 199.63 582.87C196.51 566 189.85 530.71 188.63 530.03C187.04 529.13 178.94 500.77 178.51 492.89C178.08 485.01 166.8 467.25 166.8 467.25C166.8 467.25 162.08 476.23 165.01 480.05Z" fill="black"/>
<path opacity="0.1" d="M176.34 431.44C177.07 433.69 178.23 446.74 178.23 446.74C179.05 458.25 187.75 462.01 193.15 463.21C193.278 462.405 193.472 461.613 193.73 460.84C197.33 450.65 244.14 352.22 244.14 352.22C244.092 347.224 243.464 342.251 242.27 337.4C232.08 334.4 215.94 339.02 215.94 339.02C211.28 338.41 196.07 368.66 196.07 368.66C196.07 368.66 185.93 391.83 184.82 394.98C183.71 398.13 184.82 403.32 184.37 405.12C183.92 406.92 179.18 408.48 178.51 410.97C177.84 413.46 178.28 418.38 177.83 419.28C177.38 420.18 175.56 429.19 176.34 431.44Z" fill="black"/>
<path d="M179.941 429.64C180.681 431.89 181.831 444.94 181.831 444.94C182.511 454.52 188.671 458.73 193.831 460.57C196.148 461.398 198.573 461.883 201.031 462.01L208.271 468.29L241.681 492.94C241.681 492.94 254.141 469.94 250.761 469.79C247.381 469.64 227.891 453.29 227.891 453.29C221.891 450.11 215.951 439.47 213.181 434.01C213.344 433.352 213.464 432.684 213.541 432.01C214.751 421.82 239.951 382.81 239.951 382.81C239.951 382.81 249.691 371.34 253.491 350.09C253.601 349.61 253.671 349.09 253.761 348.6C253.868 347.938 253.935 347.27 253.961 346.6C254.411 338.43 248.471 335.46 241.411 334.75C237.743 334.465 234.054 334.579 230.411 335.09C226.766 335.545 223.157 336.254 219.611 337.21C216.611 336.82 209.151 349.37 204.271 358.26C201.641 363.08 199.751 366.85 199.751 366.85C199.751 366.85 189.561 390.03 188.421 393.18C187.281 396.33 188.421 401.51 187.971 403.32C187.521 405.13 182.781 406.68 182.121 409.17C181.461 411.66 181.881 416.58 181.431 417.48C180.981 418.38 179.181 427.39 179.941 429.64Z" fill="#032B4D"/>
<path opacity="0.1" d="M141.17 377.76C147.51 384.28 157.85 384.3 166.11 380.99C174.37 377.68 181.38 371.64 189.05 366.99C194.05 363.99 199.29 361.46 204.19 358.33C204.91 357.86 205.61 357.39 206.29 356.91C211.95 352.91 216.84 347.78 222.69 344.11C226.611 341.516 231.172 340.056 235.87 339.89C238.038 339.868 240.184 340.319 242.16 341.21C242.505 341.36 242.839 341.534 243.16 341.73C245.083 342.843 246.862 344.186 248.46 345.73C250.11 347.22 251.7 348.81 253.46 350.19C253.57 349.71 253.64 349.19 253.73 348.7C253.838 348.038 253.904 347.37 253.93 346.7C255.25 346.83 256.58 346.9 257.93 346.9C262.237 346.877 266.508 346.12 270.56 344.66C270.56 344.5 270.62 344.33 270.65 344.17C272.09 336.61 274.65 328.6 280.77 324.35C284.3 321.88 289.94 320.88 294.82 319C296.513 313.104 296.768 306.889 295.566 300.873C294.363 294.858 291.737 289.219 287.907 284.427C284.077 279.636 279.155 275.832 273.553 273.333C267.95 270.834 261.831 269.714 255.707 270.066C249.583 270.418 243.633 272.232 238.354 275.357C233.075 278.481 228.621 282.824 225.365 288.023C222.11 293.222 220.147 299.125 219.642 305.238C219.136 311.352 220.103 317.497 222.46 323.16C216.26 322.35 207.46 323.16 195.46 328.22C167.26 340.22 160.66 340.82 160.66 340.82L146.56 359.42C148.09 361.76 149.82 364.07 149.98 366.8C150.3 371.86 145.42 375.35 141.17 377.76Z" fill="black"/>
<path d="M280.82 320.76C274.73 325.02 272.14 333.02 270.7 340.57C270.25 342.93 269.82 345.42 268.38 347.29C265.15 351.48 258.65 350.29 254.43 347.29C250.21 344.29 246.89 339.73 242.18 337.6C235.92 334.78 228.57 336.84 222.72 340.51C216.87 344.18 211.97 349.31 206.31 353.3C200.84 357.16 194.74 359.91 189.04 363.38C181.38 368.05 174.38 374.08 166.11 377.38C157.84 380.68 147.51 380.68 141.18 374.16C145.43 371.8 150.31 368.31 149.98 363.26C149.65 358.21 143.76 354.42 144.16 349.26C144.56 344.1 150.65 342.04 155.02 339.5C164.17 334.18 168.02 322.5 170.02 311.7C171.54 303.27 172.79 293.84 179.1 288.43C183.16 284.94 188.67 283.8 192.76 280.35C196.64 277.07 198.76 272.1 201.24 267.53C205.31 259.9 210.65 252.82 217.72 248.26C224.79 243.7 233.78 241.94 241.54 245.01C244.54 246.18 247.22 248.01 250.16 249.28C257.46 252.44 265.83 252.02 273.07 255.34C281.98 259.44 287.77 268.5 293.07 277.1C297.6 284.45 306.46 297.46 303.98 306.96C301.45 316.65 287.43 316.13 280.82 320.76Z" fill="#795548"/>
<g opacity="0.1">
<path opacity="0.1" d="M144.161 348.63C144.194 348.234 144.264 347.842 144.371 347.46C145.981 350 147.991 352.46 148.181 355.46C148.227 356.148 148.17 356.839 148.011 357.51C146.221 354.63 143.911 351.94 144.161 348.63Z" fill="black"/>
<path opacity="0.1" d="M164.311 369.57C172.581 366.25 179.581 360.22 187.241 355.57C192.941 352.1 199.041 349.35 204.511 345.49C210.171 341.49 215.071 336.36 220.921 332.7C226.771 329.04 234.121 326.97 240.381 329.79C245.091 331.92 248.381 336.43 252.631 339.48C256.881 342.53 263.351 343.72 266.581 339.53C268.031 337.66 268.451 335.18 268.901 332.82C270.341 325.26 272.901 317.26 279.021 313C285.641 308.38 299.651 308.9 302.191 299.15C302.614 297.42 302.725 295.629 302.521 293.86C304.151 298.19 304.981 302.55 304.001 306.35C301.451 316.1 287.441 315.58 280.821 320.2C274.741 324.46 272.141 332.46 270.701 340.02C270.251 342.38 269.831 344.87 268.391 346.73C265.151 350.92 258.651 349.73 254.391 346.68C250.131 343.63 246.851 339.12 242.141 336.99C235.881 334.17 228.531 336.24 222.681 339.9C216.831 343.56 211.931 348.7 206.271 352.69C200.801 356.56 194.701 359.3 189.001 362.77C181.341 367.45 174.341 373.47 166.071 376.77C157.801 380.07 147.471 380.06 141.141 373.54C142.776 372.654 144.329 371.623 145.781 370.46C151.561 372.57 158.461 371.91 164.311 369.57Z" fill="black"/>
</g>
<path d="M815.56 281.4L774.56 240.17C772.55 238.115 770.153 236.478 767.507 235.354C764.861 234.23 762.019 233.642 759.144 233.622C756.269 233.603 753.419 234.153 750.758 235.24C748.097 236.328 745.678 237.932 743.64 239.96L486.18 495.24L377.32 385.53C373.278 381.43 367.773 379.104 362.016 379.062C356.258 379.021 350.721 381.269 346.62 385.31L305.18 426.31C301.085 430.4 298.766 435.939 298.727 441.727C298.688 447.515 300.931 453.085 304.97 457.23L470.29 623.85C474.379 627.947 479.917 630.267 485.705 630.308C491.493 630.349 497.064 628.108 501.21 624.07L815.33 312.31C817.385 310.302 819.022 307.906 820.147 305.262C821.272 302.617 821.862 299.777 821.883 296.903C821.905 294.03 821.357 291.18 820.272 288.519C819.186 285.859 817.585 283.439 815.56 281.4Z" fill="#032B4D"/>
<path d="M759.766 330.506L725.832 296.415C724.168 294.715 722.184 293.362 719.994 292.433C717.804 291.503 715.452 291.017 713.072 291C710.693 290.984 708.334 291.439 706.132 292.339C703.929 293.238 701.927 294.564 700.24 296.241L487.149 507.319L397.049 416.605C393.704 413.215 389.147 411.292 384.382 411.258C379.617 411.223 375.034 413.082 371.64 416.423L337.341 450.324C333.952 453.706 332.033 458.286 332 463.072C331.968 467.857 333.824 472.463 337.168 475.89L473.998 613.66C477.382 617.047 481.966 618.965 486.756 619C491.546 619.034 496.157 617.18 499.589 613.842L759.576 356.063C761.277 354.403 762.632 352.422 763.563 350.236C764.493 348.049 764.982 345.7 765 343.324C765.017 340.948 764.564 338.592 763.666 336.392C762.767 334.192 761.442 332.191 759.766 330.506Z" fill="#FDCA05"/>
<g opacity="0.95">
<path opacity="0.5" d="M753.78 602.01C753.78 602.01 723.2 600.17 726.78 621.6C726.596 622.687 726.76 623.803 727.249 624.791C727.737 625.779 728.525 626.587 729.5 627.1C729.5 627.1 729.5 625.51 732.63 626.05C733.729 626.238 734.847 626.292 735.96 626.21C737.459 626.113 738.886 625.526 740.02 624.54V624.54C740.02 624.54 748.61 620.99 751.96 606.93C751.96 606.93 754.43 603.87 754.33 603.08L749.17 605.29C749.17 605.29 750.94 609.01 749.55 612.1C749.55 612.1 749.38 605.42 748.39 605.58C748.19 605.58 745.71 606.87 745.71 606.87C745.71 606.87 748.71 613.35 746.45 618.07C746.45 618.07 747.32 610.07 744.76 607.34L741.13 609.46C741.13 609.46 744.67 616.16 742.27 621.62C742.27 621.62 742.89 613.24 740.36 609.98L737.07 612.54C737.07 612.54 740.4 619.14 738.37 623.68C738.37 623.68 738.11 613.92 736.37 613.18C736.37 613.18 733.49 615.72 733.05 616.77C733.05 616.77 735.33 621.56 733.92 624.09C733.92 624.09 733.05 617.58 732.34 617.56C732.34 617.56 729.47 621.86 729.17 624.81C729.308 622.082 730.16 619.437 731.64 617.14C729.986 617.457 728.46 618.25 727.25 619.42C727.25 619.42 727.69 616.42 732.35 616.1C732.35 616.1 734.72 612.84 735.35 612.64C735.35 612.64 730.72 612.25 727.91 613.5C727.91 613.5 730.38 610.62 736.19 611.93L739.44 609.28C739.44 609.28 733.35 608.44 730.76 609.36C730.76 609.36 733.76 606.82 740.32 608.67L743.86 606.56C743.86 606.56 738.66 605.44 735.56 605.84C735.56 605.84 738.83 604.08 744.9 605.99L747.43 604.85C747.43 604.85 743.62 604.1 742.5 603.99C741.38 603.88 741.33 603.56 741.33 603.56C743.741 603.161 746.216 603.438 748.48 604.36C748.48 604.36 753.87 602.35 753.78 602.01Z" fill="#032B4D"/>
</g>
<g opacity="0.95">
<path opacity="0.5" d="M698.91 452.35C698.91 452.35 683.38 478.76 704.12 485.28C705.005 485.937 706.074 486.299 707.177 486.313C708.279 486.328 709.358 485.994 710.26 485.36C710.26 485.36 708.87 484.59 710.74 482.09C711.404 481.194 711.961 480.224 712.4 479.2C712.984 477.815 713.106 476.28 712.75 474.82V474.82C712.75 474.82 713.48 465.55 702.48 456.19C702.48 456.19 700.87 452.59 700.13 452.32L699.75 457.92C699.75 457.92 703.86 458.04 705.99 460.68C705.99 460.68 699.99 457.8 699.65 458.75C699.59 458.95 699.58 461.75 699.58 461.75C699.58 461.75 706.74 461.99 709.9 466.17C709.9 466.17 703.18 461.77 699.57 462.81L699.81 467.01C699.81 467.01 707.39 466.89 711.17 471.51C711.17 471.51 703.98 467.15 699.93 467.92L700.72 472.02C700.72 472.02 708.12 472.02 711.23 475.91C711.23 475.91 702.42 471.72 700.97 472.91C700.97 472.91 701.97 476.63 702.65 477.5C702.65 477.5 707.96 477.64 709.57 480.05C709.57 480.05 703.38 477.87 703.03 478.49C703.03 478.49 705.57 483 708.03 484.61C705.662 483.244 703.694 481.283 702.32 478.92C701.826 480.55 701.826 482.29 702.32 483.92C702.32 483.92 699.81 482.14 701.69 477.92C701.69 477.92 699.85 474.33 699.96 473.67C699.96 473.67 697.52 477.62 697.35 480.67C697.35 480.67 695.91 477.16 699.71 472.57L698.83 468.47C698.83 468.47 695.32 473.53 694.96 476.25C694.96 476.25 694.05 472.44 698.69 467.42L698.41 463.31C698.41 463.31 695.05 467.43 694.01 470.37C694.01 470.37 693.92 466.66 698.37 462.12L698.51 459.35C698.51 459.35 696.11 462.41 695.51 463.35C694.91 464.29 694.6 464.2 694.6 464.2C695.334 461.872 696.702 459.794 698.55 458.2C698.55 458.2 699.25 452.42 698.91 452.35Z" fill="#032B4D"/>
</g>
<g opacity="0.95">
<path opacity="0.5" d="M601.78 241.64C601.78 241.64 586.26 268.06 606.99 274.57C607.874 275.231 608.944 275.594 610.047 275.608C611.151 275.623 612.23 275.287 613.13 274.65C613.13 274.65 611.74 273.88 613.62 271.38C614.282 270.485 614.835 269.515 615.27 268.49C615.859 267.107 615.982 265.569 615.62 264.11V264.11C615.62 264.11 616.36 254.84 605.35 245.48C605.35 245.48 603.74 241.89 603 241.62L602.62 247.21C602.62 247.21 606.74 247.33 608.86 249.97C608.86 249.97 602.86 247.09 602.53 248.04C602.46 248.24 602.46 251.04 602.46 251.04C602.46 251.04 609.61 251.28 612.77 255.46C612.77 255.46 606.05 251.06 602.44 252.1L602.69 256.3C602.69 256.3 610.26 256.18 614.04 260.8C614.04 260.8 606.85 256.45 602.8 257.21L603.591 261.31C603.591 261.31 610.99 261.31 614.11 265.21C614.11 265.21 605.291 261.01 603.841 262.21C603.841 262.21 604.84 265.92 605.53 266.79C605.53 266.79 610.83 266.93 612.44 269.34C612.44 269.34 606.25 267.16 605.91 267.78C605.91 267.78 608.44 272.3 610.91 273.9C608.541 272.538 606.569 270.58 605.19 268.22C604.712 269.832 604.712 271.548 605.19 273.16C605.19 273.16 602.68 271.38 604.56 267.11C604.56 267.11 602.72 263.52 602.83 262.86C602.83 262.86 600.39 266.81 600.22 269.86C600.22 269.86 598.781 266.35 602.591 261.76L601.7 257.66C601.7 257.66 598.191 262.72 597.841 265.44C597.841 265.44 596.92 261.63 601.56 256.61L601.28 252.5C601.28 252.5 597.92 256.62 596.88 259.56C596.88 259.56 596.79 255.85 601.24 251.32L601.38 248.54C601.38 248.54 598.98 251.6 598.38 252.54C597.78 253.48 597.47 253.39 597.47 253.39C598.222 251.058 599.607 248.981 601.47 247.39C601.47 247.39 602.12 241.76 601.78 241.64Z" fill="#032B4D"/>
</g>
<g opacity="0.95">
<path opacity="0.5" d="M267.419 41.5498C267.419 41.5498 209.619 83.5498 247.879 116.82C247.879 116.82 252.209 124.7 260.939 122.71C260.939 122.71 258.679 119.77 265.029 116.17C267.28 114.877 269.368 113.319 271.249 111.53C273.793 109.134 275.489 105.975 276.079 102.53V102.53C276.079 102.53 286.299 83.3898 271.489 53.1298C271.489 53.1298 271.399 43.9398 270.049 42.6698L264.049 54.2898C264.049 54.2898 272.739 58.3798 274.829 66.0098C274.829 66.0098 264.619 54.2198 263.069 56.0098C262.759 56.3598 260.149 62.3098 260.149 62.3098C260.149 62.3098 275.239 69.4898 278.099 81.3698C278.099 81.3698 267.819 65.6898 259.099 64.5498L255.709 73.7598C255.709 73.7598 272.019 80.5698 275.799 93.9698C275.799 93.9698 264.479 77.9698 255.099 75.8198L252.979 85.3298C252.979 85.3298 268.759 92.2798 271.829 103.45C271.829 103.45 256.829 86.2698 252.639 87.5398C252.639 87.5398 251.219 96.3798 251.969 98.9098C251.969 98.9098 263.189 104.16 264.389 110.81C264.389 110.81 253.179 100.39 251.859 101.39C251.859 101.39 253.079 113.39 256.919 119.16C256.919 119.16 250.629 111.07 249.989 101.68C249.989 101.68 245.699 106.68 245.459 112.29C245.459 112.29 241.739 106.14 249.729 98.7598C249.729 98.7598 249.159 89.3598 250.009 88.0598C250.009 88.0598 241.089 94.2298 237.879 100.63C237.879 100.63 238.069 91.7898 250.479 85.5198L252.399 75.9298C252.399 75.9298 240.189 83.4598 236.899 88.9298C236.899 88.9298 238.489 79.9298 253.079 73.5098L256.319 64.4598C256.319 64.4598 245.319 70.1498 240.319 75.4598C240.319 75.4598 243.589 67.4598 257.319 61.8898L260.189 56.0898C260.189 56.0898 252.189 60.3898 250.039 61.8298C247.889 63.2698 247.289 62.8298 247.289 62.8298C251.035 58.5287 255.903 55.3538 261.349 53.6598C261.349 53.6598 268.089 42.0198 267.419 41.5498Z" fill="#032B4D"/>
</g>
<g opacity="0.95">
<path opacity="0.5" d="M211.269 180.14C211.269 180.14 136.499 148.7 126.699 205.39C126.699 205.39 121.589 214.23 128.699 221.53C128.699 221.53 130.229 217.61 137.459 221.66C140.038 223.086 142.777 224.201 145.619 224.98C149.457 226.039 153.535 225.821 157.239 224.36V224.36C157.239 224.36 181.819 223.03 202.509 190.86C202.509 190.86 211.369 185.38 211.819 183.32L196.989 184.32C196.989 184.32 198.129 195.17 191.989 201.68C191.989 201.68 197.439 184.84 194.819 184.37C194.289 184.27 186.989 185.23 186.989 185.23C186.989 185.23 188.879 204.1 178.989 213.86C178.989 213.86 188.169 194.67 184.169 185.57L173.239 187.68C173.239 187.68 176.239 207.53 165.419 219.07C165.419 219.07 174.309 198.67 170.879 188.31L160.399 191.83C160.399 191.83 162.929 211.24 153.879 220.83C153.879 220.83 161.779 196.22 158.059 192.83C158.059 192.83 148.639 196.65 146.619 198.83C146.619 198.83 148.119 212.83 142.359 217.88C142.359 217.88 145.899 200.88 144.149 200.18C144.149 200.18 133.199 208.42 129.859 215.53C129.859 215.53 134.029 204.67 142.769 198.53C142.769 198.53 135.429 197.28 129.769 200.36C129.769 200.36 133.559 193.15 145.419 196.57C145.419 196.57 154.209 190.48 155.969 190.57C155.969 190.57 144.749 185.57 136.639 186.19C136.639 186.19 145.329 181.19 158.709 189.54L169.139 185.76C169.139 185.76 154.649 178.33 147.379 178.36C147.379 178.36 157.039 174.62 171.859 185.02L182.559 182.81C182.559 182.81 170.559 175.46 162.459 173.76C162.459 173.76 172.169 172.22 185.639 182.31L192.959 181.7C192.959 181.7 184.099 176.48 181.419 175.21C178.739 173.94 178.859 173.12 178.859 173.12C185.238 174.228 191.183 177.088 196.029 181.38C196.029 181.38 211.199 181.07 211.269 180.14Z" fill="#032B4D"/>
</g>
<g opacity="0.95">
<path opacity="0.5" d="M166.499 100.76C166.499 100.76 139.989 39.49 101.879 67.59C101.879 67.59 93.8094 69.93 93.8794 78.29C93.8794 78.29 97.0194 76.83 98.9994 83.36C99.7376 85.673 100.744 87.8915 101.999 89.97C103.675 92.788 106.224 94.9824 109.259 96.22C109.259 96.22 124.619 109.44 155.259 102.11C155.259 102.11 163.649 103.9 165.089 102.94L155.719 95.07C155.719 95.07 150.219 102.17 142.839 102.51C142.839 102.51 155.669 95.61 154.379 93.84C154.119 93.48 149.239 89.9 149.239 89.9C149.239 89.9 139.609 102.18 128.239 102.37C128.239 102.37 144.629 96.19 147.429 88.52L139.729 83.52C139.729 83.52 130.059 97.05 117.069 97.76C117.069 97.76 133.969 90.71 137.839 82.59L129.609 78.76C129.609 78.76 120.049 91.76 109.239 92.25C109.239 92.25 127.949 82.13 127.659 78C127.659 78 119.889 74.9 117.429 75.08C117.429 75.08 110.359 84.23 104.049 83.97C104.049 83.97 115.839 75.88 115.189 74.47C115.189 74.47 103.989 73.13 97.9594 75.47C97.9594 75.47 106.619 71.39 115.309 72.73C115.309 72.73 111.659 67.8 106.559 66.43C106.559 66.43 112.929 64.3 118.019 73.08C118.019 73.08 126.709 74.48 127.719 75.52C127.719 75.52 123.919 66.13 118.719 61.9C118.719 61.9 126.719 63.9 129.929 76.47L138.279 80.18C138.279 80.18 133.909 67.5 129.569 63.39C129.569 63.39 137.439 66.67 140.319 81.29L147.909 86.08C147.909 86.08 144.969 74.88 141.139 69.25C141.139 69.25 147.779 73.87 150.039 87.54L154.739 91.34C154.739 91.34 152.439 83.2 151.569 80.92C150.699 78.64 151.249 78.22 151.249 78.22C154.404 82.5104 156.304 87.5926 156.739 92.9C156.739 92.9 165.939 101.29 166.499 100.76Z" fill="#032B4D"/>
</g>
<g opacity="0.95">
<path opacity="0.5" d="M683.18 132.64C683.18 132.64 676.93 102.64 657.18 111.75C656.082 111.855 655.045 112.306 654.218 113.037C653.392 113.768 652.818 114.742 652.58 115.82C652.58 115.82 654.13 115.45 654.42 118.57C654.53 119.677 654.768 120.768 655.13 121.82C655.63 123.239 656.573 124.459 657.82 125.3C657.82 125.3 663.5 132.66 677.93 132.2C677.93 132.2 681.54 133.78 682.28 133.48L678.79 129.08C678.79 129.08 675.66 131.76 672.32 131.23C672.32 131.23 678.72 129.32 678.32 128.4C678.23 128.21 676.37 126.15 676.37 126.15C676.37 126.15 670.91 130.78 665.76 129.81C665.76 129.81 673.69 128.55 675.67 125.36L672.67 122.41C672.67 122.41 667.13 127.59 661.23 126.7C661.23 126.7 669.48 125.1 671.97 121.81L668.63 119.31C668.63 119.31 663.13 124.25 658.22 123.48C658.22 123.48 667.57 120.66 667.82 118.78C667.82 118.78 664.62 116.67 663.49 116.52C663.49 116.52 659.49 119.98 656.66 119.28C656.66 119.28 662.66 116.74 662.55 116.04C662.55 116.04 657.64 114.4 654.71 114.89C657.38 114.311 660.155 114.439 662.76 115.26C662.025 113.744 660.86 112.478 659.41 111.62C659.41 111.62 662.47 111.25 663.95 115.62C663.95 115.62 667.72 117.05 668.08 117.62C668.08 117.62 667.24 113.05 665.3 110.62C665.3 110.62 668.72 112.25 668.99 118.21L672.4 120.65C672.4 120.65 671.61 114.55 670.04 112.29C670.04 112.29 673.27 114.5 673.21 121.29L676.21 124.15C676.21 124.15 675.93 118.84 674.73 115.96C674.73 115.96 677.28 118.65 677.03 124.96L678.79 127.11C678.79 127.11 678.52 123.24 678.34 122.11C678.16 120.98 678.44 120.86 678.44 120.86C679.462 123.085 679.846 125.55 679.55 127.98C679.55 127.98 682.88 132.82 683.18 132.64Z" fill="#032B4D"/>
</g>
<g opacity="0.95">
<path opacity="0.5" d="M575.559 688.76C575.559 688.76 569.319 658.76 549.559 667.87C548.459 667.975 547.421 668.425 546.593 669.156C545.765 669.887 545.189 670.862 544.949 671.94C544.949 671.94 546.499 671.57 546.789 674.69C546.897 675.799 547.139 676.89 547.509 677.94C548.006 679.358 548.946 680.578 550.189 681.42V681.42C550.189 681.42 555.869 688.78 570.309 688.32C570.309 688.32 573.919 689.9 574.649 689.6L571.169 685.2C571.169 685.2 568.039 687.88 564.689 687.35C564.689 687.35 571.089 685.44 570.689 684.52C570.609 684.33 568.739 682.27 568.739 682.27C568.739 682.27 563.279 686.9 558.129 685.93C558.129 685.93 566.069 684.67 568.039 681.48L565.039 678.48C565.039 678.48 559.559 683.68 553.639 682.76C553.639 682.76 561.889 681.16 564.379 677.87L561.039 675.37C561.039 675.37 555.549 680.31 550.639 679.54C550.639 679.54 559.989 676.73 560.239 674.84C560.239 674.84 557.029 672.73 555.909 672.58C555.909 672.58 551.909 676.04 549.069 675.34C549.069 675.34 555.069 672.8 554.959 672.1C554.959 672.1 550.049 670.46 547.119 670.95C549.792 670.371 552.57 670.499 555.179 671.32C554.441 669.807 553.276 668.541 551.829 667.68C551.829 667.68 554.879 667.31 556.359 671.68C556.359 671.68 560.139 673.11 560.499 673.68C560.499 673.68 559.659 669.11 557.719 666.68C557.719 666.68 561.139 668.31 561.399 674.27L564.819 676.71C564.819 676.71 564.019 670.61 562.449 668.35C562.449 668.35 565.689 670.56 565.629 677.35L568.629 680.21C568.629 680.21 568.349 674.9 567.139 672.02C567.139 672.02 569.699 674.71 569.449 681.02L571.209 683.17C571.209 683.17 570.929 679.3 570.749 678.17C570.569 677.04 570.849 676.93 570.849 676.93C571.872 679.151 572.256 681.613 571.959 684.04C571.959 684.04 575.279 688.91 575.559 688.76Z" fill="#032B4D"/>
</g>
</g>
<defs>
<linearGradient id="paint0_linear" x1="54487.2" y1="277547" x2="54487.2" y2="122343" gradientUnits="userSpaceOnUse">
<stop stop-color="#808080" stop-opacity="0.25"/>
<stop offset="0.54" stop-color="#808080" stop-opacity="0.12"/>
<stop offset="1" stop-color="#808080" stop-opacity="0.1"/>
</linearGradient>
<clipPath id="clip0">
<rect width="1149.12" height="755.51" fill="white"/>
</clipPath>
</defs>
</svg>
