<svg width="420" height="334" viewBox="0 0 420 334" fill="none" xmlns="http://www.w3.org/2000/svg">
<path d="M304.933 0C304.933 0 300.844 40.5634 301.521 47.755V49.3138C298.731 48.7691 295.915 48.5676 293.102 48.7115C291.964 49.3138 300.747 65.3266 300.747 65.3266V76.8757L296.174 78.0448L299.005 81.9417H295.4L300.868 88.106V90.9401H295.134L297.819 93.1719C297.819 93.1719 292.085 98.6631 296.174 101.462C296.174 101.462 291.577 105.642 297.36 108.264C297.36 183.368 297.416 258.484 297.529 333.612H419.492L417.46 151.094L418.355 142.202H420C420 142.202 416.177 76.9465 307.304 51.1914L304.933 0Z" fill="black"/>
<path d="M307.452 63.5913V75.9906C322.403 79.2884 337.101 84.6985 351.34 92.1451C373.393 103.615 394.038 120.219 412.479 141.317C406.838 131.454 400.558 122.414 393.728 114.322C363.001 78.01 327.218 67.2757 307.452 63.5913Z" fill="#FCFAFA"/>
<path d="M318.169 62.564H321.58V87.7168H318.169V62.564Z" fill="#020202"/>
<path d="M339.772 70.144H343.184V95.2969H339.772V70.144Z" fill="#020202"/>
<path d="M361.352 79.1787H364.764V104.332H361.352V79.1787Z" fill="#020202"/>
<path d="M379.716 89.9126H383.127V115.065H379.716V89.9126Z" fill="#020202"/>
<path d="M394.788 104.332H398.199V129.485H394.788V104.332Z" fill="#020202"/>
<path d="M180.303 0C180.303 0 186.709 40.5634 185.648 47.755V49.3138C190.02 48.7691 194.433 48.5676 198.841 48.7115C200.623 49.3138 186.861 65.3266 186.861 65.3266V76.8757L194.026 78.0448L189.591 81.9417H195.239L186.672 88.106V90.9401H195.656L191.448 93.1719C191.448 93.1719 200.433 98.6631 194.026 101.462C194.026 101.462 201.229 105.642 192.169 108.264C192.169 183.368 192.08 258.484 191.903 333.612H0.796118L3.98062 151.094L2.57792 142.202H0C0 142.202 5.98987 76.9465 176.587 51.1914L180.303 0Z" fill="black"/>
<path d="M176.359 63.5913V75.9906C152.931 79.2884 129.9 84.6985 107.589 92.1451C73.0336 103.615 40.6847 120.219 11.7891 141.317C20.6279 131.454 30.4673 122.414 41.1697 114.322C89.3161 78.01 145.386 67.2757 176.359 63.5913Z" fill="#FCFAFA"/>
<path d="M159.564 62.564H154.219V87.7168H159.564V62.564Z" fill="#020202"/>
<path d="M125.711 70.144H120.365V95.2969H125.711V70.144Z" fill="#020202"/>
<path d="M91.8962 79.1787H86.5508V104.332H91.8962V79.1787Z" fill="#020202"/>
<path d="M63.1227 89.9126H57.7773V115.065H63.1227V89.9126Z" fill="#020202"/>
<path d="M39.5016 104.332H34.1562V129.485H39.5016V104.332Z" fill="#020202"/>
<path d="M300.37 0C300.37 0 306.068 40.5634 305.124 47.755V49.3138C309.013 48.7691 312.938 48.5676 316.858 48.7115C318.443 49.3138 306.203 65.3266 306.203 65.3266V76.8757L312.576 78.0448L308.631 81.9417H313.655L306.034 88.106V90.9401H314.026L310.283 93.1719C310.283 93.1719 318.275 98.6631 312.576 101.462C312.576 101.462 318.983 105.642 310.924 108.264C310.924 183.368 310.845 258.484 310.688 333.612H140.708L143.541 151.094L142.293 142.202H140C140 142.202 145.328 76.9465 297.065 51.1914L300.37 0Z" fill="black"/>
<path d="M296.86 63.5913V75.9906C276.023 79.2884 255.538 84.6985 235.693 92.1451C204.958 103.615 176.185 120.219 150.484 141.317C158.346 131.454 167.098 122.414 176.617 114.322C219.441 78.01 269.312 67.2757 296.86 63.5913Z" fill="#FCFAFA"/>
<path d="M281.924 62.564H277.17V87.7168H281.924V62.564Z" fill="#020202"/>
<path d="M251.813 70.144H247.059V95.2969H251.813V70.144Z" fill="#020202"/>
<path d="M221.737 79.1787H216.982V104.332H221.737V79.1787Z" fill="#020202"/>
<path d="M196.143 89.9126H191.389V115.065H196.143V89.9126Z" fill="#020202"/>
<path d="M175.135 104.332H170.381V129.485H175.135V104.332Z" fill="#020202"/>
</svg>
