<svg width="1269" height="731" viewBox="0 0 1269 731" fill="none" xmlns="http://www.w3.org/2000/svg">
<g clip-path="url(#clip0)">
<path opacity="0.5" d="M314.909 478.741C238.184 452.245 150.458 429.818 78.7743 467.893C69.6891 472.718 60.7369 478.794 55.8418 487.834C42.9124 511.618 63.4638 542.46 53.4475 567.6C43.4312 592.739 5.73362 605.396 8.81966 632.25C9.63107 639.269 13.4354 645.624 17.9181 651.101C45.9984 685.387 97.4767 688.857 140.987 680.349C184.498 671.84 227.05 654.199 271.346 656.419C313.912 658.613 353.072 679.019 392.074 696.195C457.825 725.23 534.617 746.062 600.315 716.881C630.417 703.507 655.305 680.734 684.116 664.834C722.944 643.604 767.575 635.419 811.416 641.489C840.68 645.611 868.614 655.98 897.253 663.133C962.299 679.365 1030.19 678.833 1097.22 678.195C1109.7 678.075 1122.37 677.929 1134.33 674.366C1152.04 669.049 1166.64 656.804 1180.7 644.826C1199.18 629.099 1218.64 611.817 1224.6 588.299C1231.64 560.381 1217.07 530.708 1195.47 511.737C1173.87 492.766 1146.25 482.397 1119.3 472.399C1112.65 469.953 1105.55 467.467 1098.74 469.315C1094.27 470.538 1090.5 473.516 1087.16 476.72C1068.04 495.119 1051.87 526.241 1025.79 521.243C1016.48 519.461 1008.86 512.987 1001.49 507.004C962.139 475.098 909.211 450.464 861.723 468.092C826.992 480.987 802.477 514.104 767.28 525.789C742.246 534.111 715.043 530.509 688.706 532.131C650.396 534.47 613.111 548.004 574.748 547.18C476.926 545.079 395.426 451.594 298.003 460.501C290.367 461.192 282.04 462.947 277.358 468.983" fill="#FF4568"/>
<path d="M191.547 389.815C191.547 389.815 110.259 438.858 260.158 514.396C260.158 514.396 293.187 453.109 256.673 403.136C249.587 393.399 239.175 386.598 227.407 384.02C215.64 381.443 203.335 383.268 192.824 389.151L191.547 389.815Z" fill="#FDCA05"/>
<path d="M192.518 388.792C192.518 388.792 262.113 441.969 260.171 514.356" stroke="white" stroke-width="4" stroke-miterlimit="10"/>
<path d="M1219.98 348.962C1236.45 409.145 1166.2 580.602 1166.2 580.602C1166.2 580.602 1018.39 468.757 1001.91 408.573C997.601 394.144 996.219 378.998 997.848 364.027C999.477 349.056 1004.08 334.561 1011.4 321.395C1018.71 308.228 1028.58 296.656 1040.44 287.357C1052.29 278.058 1065.88 271.22 1080.41 267.246C1094.95 263.272 1110.13 262.242 1125.07 264.215C1140.01 266.189 1154.4 271.126 1167.4 278.738C1180.4 286.349 1191.75 296.482 1200.78 308.539C1209.81 320.596 1216.33 334.335 1219.97 348.948L1219.98 348.962Z" fill="#FFCB00" fill-opacity="0.44"/>
<path opacity="0.1" d="M1219.98 348.962C1236.45 409.145 1166.2 580.602 1166.2 580.602C1166.2 580.602 1018.39 468.757 1001.91 408.573C997.601 394.144 996.219 378.998 997.848 364.027C999.477 349.056 1004.08 334.561 1011.4 321.395C1018.71 308.228 1028.58 296.656 1040.44 287.357C1052.29 278.058 1065.88 271.22 1080.41 267.246C1094.95 263.272 1110.13 262.242 1125.07 264.215C1140.01 266.189 1154.4 271.126 1167.4 278.738C1180.4 286.349 1191.75 296.482 1200.78 308.539C1209.81 320.596 1216.33 334.335 1219.97 348.948L1219.98 348.962Z" fill="#FDCA05"/>
<path d="M1081.72 270.14C1081.72 270.14 1173.73 408.959 1166.85 580.934" stroke="white" stroke-width="4" stroke-miterlimit="10"/>
<path d="M1243.46 458.959C1243.46 458.959 1160.03 413.599 1170.59 581.04C1170.59 581.04 1240.19 578.554 1264.89 521.814C1269.72 510.779 1270.33 498.356 1266.61 486.901C1262.88 475.445 1255.08 465.754 1244.68 459.663L1243.46 458.959Z" fill="#B42B44"/>
<path d="M1244.83 459.251C1244.83 459.251 1234.06 546.17 1170.59 581.04" stroke="white" stroke-width="4" stroke-miterlimit="10"/>
<path d="M22.0275 440.294C22.0275 440.294 -59.3003 489.323 90.612 564.821C90.612 564.821 123.641 503.535 87.1269 453.561C80.0411 443.825 69.6282 437.023 57.8609 434.446C46.0935 431.868 33.7888 433.693 23.2779 439.576L22.0275 440.294Z" fill="#FDCA05" fill-opacity="0.78"/>
<path d="M22.959 439.27C22.959 439.27 92.5545 492.447 90.6124 564.835" stroke="white" stroke-width="5" stroke-miterlimit="10"/>
<path d="M1036.79 504.12H951.324C953.291 500.167 954.311 495.812 954.304 491.397V102.459C954.304 94.8752 951.289 87.6016 945.924 82.2389C940.558 76.8761 933.28 73.8633 925.691 73.8633H264.149C256.56 73.8633 249.283 76.8761 243.917 82.2389C238.551 87.6016 235.536 94.8752 235.536 102.459V491.41C235.529 495.825 236.549 500.18 238.516 504.133H150.032C149.034 504.133 148.047 504.33 147.126 504.713C146.205 505.095 145.369 505.656 144.666 506.363C143.962 507.069 143.406 507.908 143.028 508.83C142.65 509.753 142.458 510.741 142.463 511.737V517.84C142.463 529.059 146.922 539.819 154.86 547.752C162.798 555.685 173.564 560.142 184.79 560.142H1002.03C1013.26 560.142 1024.02 555.685 1031.96 547.752C1039.9 539.819 1044.36 529.059 1044.36 517.84V511.737C1044.36 510.74 1044.17 509.75 1043.8 508.826C1043.42 507.902 1042.86 507.062 1042.16 506.354C1041.46 505.646 1040.62 505.084 1039.7 504.701C1038.78 504.317 1037.79 504.12 1036.79 504.12ZM510.18 528.315L502.811 520.006H684.754L676.64 528.329L510.18 528.315Z" fill="url(#paint0_linear)"/>
<path d="M915.196 79.3672H274.577C257.489 79.3672 243.637 93.2117 243.637 110.29V484.484C243.637 501.562 257.489 515.407 274.577 515.407H915.196C932.284 515.407 946.136 501.562 946.136 484.484V110.29C946.136 93.2117 932.284 79.3672 915.196 79.3672Z" fill="#032B4D"/>
<path d="M929.869 142.927H258.43V499.147H929.869V142.927Z" fill="white"/>
<path d="M594.156 117.801C597.425 117.801 600.075 115.152 600.075 111.885C600.075 108.617 597.425 105.969 594.156 105.969C590.887 105.969 588.236 108.617 588.236 111.885C588.236 115.152 590.887 117.801 594.156 117.801Z" fill="white"/>
<path d="M697.818 499.879L674.752 523.529H512.123L491.279 499.879H160.076C158.114 499.879 156.233 500.658 154.846 502.044C153.459 503.43 152.68 505.31 152.68 507.271V513.226C152.68 524.192 157.038 534.708 164.796 542.462C172.555 550.216 183.077 554.572 194.049 554.572H992.774C998.206 554.572 1003.59 553.502 1008.6 551.424C1013.62 549.347 1018.18 546.301 1022.03 542.462C1025.87 538.623 1028.91 534.065 1030.99 529.049C1033.07 524.032 1034.14 518.656 1034.14 513.226V507.271C1034.14 505.31 1033.36 503.43 1031.98 502.044C1030.59 500.658 1028.71 499.879 1026.75 499.879H697.818Z" fill="#032B4D"/>
<path d="M344.213 165.102V468.106H845.561" stroke="#535461" stroke-width="5" stroke-miterlimit="10"/>
<g opacity="0.5">
<path d="M440.332 376.468H388.574V456.287H440.332V376.468Z" fill="#FDCA05"/>
<path d="M440.332 376.468H388.574V456.287H440.332V376.468Z" fill="#FDCA05"/>
</g>
<g opacity="0.7">
<path d="M529 368H477V456H529V368Z" fill="#FDCA05"/>
<path d="M529 368H477V456H529V368Z" fill="#FDCA05"/>
</g>
<g opacity="0.5">
<path d="M617.806 348.377H566.049V456.273H617.806V348.377Z" fill="#FDCA05"/>
<path d="M617.806 348.377H566.049V456.273H617.806V348.377Z" fill="#FDCA05"/>
</g>
<g opacity="0.8">
<path d="M706.543 281.866H654.785V456.287H706.543V281.866Z" fill="#FDCA05"/>
<path d="M706.543 281.866H654.785V456.287H706.543V281.866Z" fill="#FDCA05"/>
</g>
<path d="M795.281 219.781H743.523V456.273H795.281V219.781Z" fill="#FDCA05"/>
<path d="M795.281 219.781H743.523V456.273H795.281V219.781Z" fill="#FDCA05"/>
<path opacity="0.9" d="M435.332 376.468H383.574V456.287H435.332V376.468Z" fill="#032B4D"/>
<path opacity="0.9" d="M524 368H472V456H524V368Z" fill="#032B4D"/>
<path opacity="0.9" d="M612.806 348.377H561.049V456.273H612.806V348.377Z" fill="#032B4D"/>
<path opacity="0.9" d="M701.543 281.866H649.785V456.287H701.543V281.866Z" fill="#032B4D"/>
<path d="M790.281 219.781H738.523V456.273H790.281V219.781Z" fill="#032B4D"/>
<path d="M413.715 327.691L507 301L591 275L679.926 230.137L768.662 193.179" stroke="#FDCA05" stroke-width="5" stroke-miterlimit="10"/>
<path d="M413.716 338.034C419.432 338.034 424.065 333.403 424.065 327.691C424.065 321.979 419.432 317.348 413.716 317.348C408.001 317.348 403.367 321.979 403.367 327.691C403.367 333.403 408.001 338.034 413.716 338.034Z" fill="#FF4568"/>
<path d="M591.189 282.118C596.904 282.118 601.538 277.487 601.538 271.775C601.538 266.063 596.904 261.432 591.189 261.432C585.473 261.432 580.84 266.063 580.84 271.775C580.84 277.487 585.473 282.118 591.189 282.118Z" fill="#FF4568"/>
<path d="M681.404 240.48C687.119 240.48 691.752 235.85 691.752 230.137C691.752 224.425 687.119 219.794 681.404 219.794C675.688 219.794 671.055 224.425 671.055 230.137C671.055 235.85 675.688 240.48 681.404 240.48Z" fill="#FF4568"/>
<path d="M503.929 315.25C509.644 315.25 514.278 310.62 514.278 304.907C514.278 299.195 509.644 294.564 503.929 294.564C498.213 294.564 493.58 299.195 493.58 304.907C493.58 310.62 498.213 315.25 503.929 315.25Z" fill="#FF4568"/>
<path d="M768.663 203.522C774.379 203.522 779.012 198.892 779.012 193.179C779.012 187.467 774.379 182.836 768.663 182.836C762.948 182.836 758.314 187.467 758.314 193.179C758.314 198.892 762.948 203.522 768.663 203.522Z" fill="#FF4568"/>
<path d="M1153.69 512.827C1148.23 511.032 1140.15 508.959 1133.73 509.69C1127.63 507.47 1113.28 501.713 1103.47 493.045C1103.75 484.523 1103.54 475.991 1102.82 467.494C1097.81 410.501 1109.09 372.931 1109.09 372.931C1109.09 372.931 1117.94 344.269 1116.97 320.485C1117.55 321.562 1117.86 322.2 1117.86 322.2C1118.64 301.687 1125.63 280.456 1130.87 267.228C1131.07 267.171 1131.27 267.1 1131.46 267.016L1137.31 253.136C1137.78 252.327 1138.15 251.466 1138.42 250.571L1139.36 248.377L1139.08 248.257C1139.17 247.899 1139.27 247.513 1139.36 247.127C1143.1 231.321 1146.01 193.831 1146.01 193.831C1156.04 154.373 1132.23 130.018 1132.23 130.018L1091.82 95.2667C1092.02 95.7191 1092.15 96.1983 1092.22 96.6892L1091.89 96.3967C1091.31 94.7615 1090.69 92.8073 1090.08 90.5738C1091.5 89.5509 1092.84 88.4079 1094.07 87.1572C1098.66 82.8205 1101.82 77.1851 1103.13 71.0046C1103.91 66.1715 1104.11 61.2619 1103.72 56.3809L1103.06 39.6168C1103.03 36.3359 1102.7 33.0649 1102.06 29.8455C1099.02 16.5512 1085.38 7.2452 1071.69 6.63367C1067.34 6.60832 1062.99 6.83916 1058.66 7.32498C1055.12 7.61557 1051.56 7.69104 1048.02 7.55098C1047.61 7.57237 1047.21 7.46534 1046.87 7.24521C1046.56 6.93814 1046.39 6.52336 1046.38 6.0886C1046.31 5.31053 1046.4 4.52639 1046.64 3.7837C1046.88 3.041 1047.27 2.35522 1047.79 1.76795C1048.33 1.29862 1048.95 0.941488 1049.63 0.71771L1048.65 0.943711C1049.13 0.566409 1049.67 0.274121 1050.25 0.0795898C1046.7 0.703063 1043.29 1.94024 1040.17 3.73552C1039.31 4.30047 1038.52 4.96539 1037.81 5.71636C1035.95 7.34748 1034.74 9.59429 1034.41 12.0445C1032.74 10.6382 1031.5 8.7973 1030.82 6.72674C1030.61 5.88006 1030.61 4.99431 1030.82 4.14764C1030.58 4.44011 1030.35 4.74144 1030.13 5.05164C1030.13 4.95858 1030.13 4.86553 1030.13 4.77247C1027.55 7.93045 1025.74 11.6307 1024.8 15.594C1024.45 15.1648 1024.18 14.6688 1024.01 14.1347C1023.85 13.6007 1023.79 13.0393 1023.85 12.4832C1023.65 13.108 1023.46 13.7328 1023.29 14.3576C1023.23 13.9433 1023.23 13.5223 1023.29 13.108C1021.72 17.9008 1021.01 22.9324 1021.2 27.971C1021.2 32.9963 1023.43 40.8266 1028.82 42.5947C1029.1 42.6878 1029.38 42.7543 1029.67 42.8207C1026.64 47.5245 1024.83 52.9061 1024.39 58.4832C1023.96 64.0602 1024.91 69.6584 1027.17 74.7758C1029.43 79.8932 1032.93 84.3699 1037.35 87.8046C1041.76 91.2393 1046.97 93.5247 1052.49 94.4558C1052.57 95.0673 1052.66 95.7099 1052.74 96.3835H1052.95C1053.1 97.7129 1053.22 99.1752 1053.3 100.664C1051.94 101.996 1050.45 103.189 1048.85 104.227C1044.33 106.899 1039.29 108.568 1034.06 109.119C1027.82 109.609 1021.76 111.421 1016.28 114.437C1009.83 118.04 1002.71 123.291 1000.48 129.672C996.751 140.308 976.239 156.859 962.485 158.92L957.59 158.641L957.231 158.534V158.627L956.034 158.561H955.967H955.648V158.627L954.411 158.561C954.411 158.561 954.291 159.133 954.118 160.143C947.201 157.763 932.503 151.169 913.374 133.82C892.091 114.504 863.293 118.306 852.186 120.739C851.808 120.822 851.464 121.018 851.201 121.302C850.938 121.585 850.768 121.942 850.713 122.325C850.658 122.708 850.721 123.098 850.894 123.444C851.067 123.79 851.341 124.076 851.68 124.262C856.163 126.721 863.107 130.297 866.312 130.696C866.312 130.696 859.661 137.649 866.738 141.331C867.587 141.742 868.533 141.91 869.471 141.819C870.41 141.727 871.305 141.379 872.059 140.813C875.491 138.3 885.028 143.99 898.849 146.955C898.849 146.955 937.85 187.29 957.217 193.485C957.664 194.366 958.157 195.222 958.694 196.051L959.891 195.958V196.051H960.397L960.543 197.38C960.543 197.38 990.658 195.798 1000.45 184.87C1001.14 184.25 1001.78 183.569 1002.35 182.836L991.882 314.45H991.975L991.882 315.699H999.584C1000.24 331.886 999.544 348.1 997.496 364.17V449.972C997.496 449.972 997.097 457.523 1012.79 468.584C1029.25 480.035 1045.11 492.322 1060.31 505.396L1062.21 507.044C1059.32 533.3 1053.28 582.237 1048.24 584.058L1051.35 584.603C1046.03 591.343 1030.92 609.862 1026.32 610.354C1020.68 610.979 1016.92 619.753 1026.32 621.628C1045.1 624.876 1064.41 622.974 1082.19 616.124C1083.96 615.425 1085.45 614.152 1086.41 612.508C1087.38 610.865 1087.76 608.945 1087.51 607.057L1085.69 593.231C1086.03 593.423 1086.31 593.715 1086.49 594.069C1087.74 597.831 1086.49 589.057 1086.49 589.057C1091.64 572.504 1095.69 555.627 1098.6 538.538L1117.23 554.624C1117.23 554.624 1117.6 554.159 1118.25 553.295C1122.81 563.638 1130.95 584.803 1129.13 600.304C1126.63 621.575 1150.41 602.803 1147.93 590.28C1145.9 580.15 1154.95 537.209 1158.48 521.149C1158.85 519.416 1158.57 517.602 1157.69 516.064C1156.8 514.525 1155.38 513.371 1153.69 512.827V512.827Z" fill="url(#paint1_linear)"/>
<path d="M959.066 165.408C959.066 165.408 941.321 162.35 915.01 138.5C894.193 119.635 866.112 123.344 855.285 125.724C854.916 125.804 854.58 125.994 854.323 126.27C854.065 126.546 853.898 126.894 853.845 127.268C853.791 127.641 853.853 128.022 854.023 128.359C854.192 128.697 854.461 128.974 854.792 129.154C859.169 131.547 865.953 135.043 869.132 135.442C869.132 135.442 862.574 142.222 869.544 145.852C870.379 146.261 871.311 146.431 872.236 146.342C873.162 146.253 874.044 145.908 874.785 145.346C878.137 142.9 887.449 148.457 900.95 151.342C900.95 151.342 953.572 205.769 965.81 196.543L959.066 165.408Z" fill="#FEC3BE"/>
<path d="M1049.66 91.4113C1049.66 91.4113 1054.56 112.204 1049.66 126.881L1071.69 129.938L1091.27 120.154V107.311C1091.27 107.311 1082.09 87.7421 1084.54 65.1152L1049.66 91.4113Z" fill="#FEC3BE"/>
<path d="M1112.04 542.088C1112.04 542.088 1128 573.277 1125.5 594.069C1123 614.861 1146.3 596.515 1143.86 584.284C1141.87 574.393 1150.71 532.437 1154.15 516.829C1154.52 515.142 1154.26 513.377 1153.4 511.876C1152.55 510.375 1151.16 509.246 1149.52 508.706C1142.17 506.287 1129.85 503.322 1123.66 507.855C1114.52 514.569 1112.04 542.088 1112.04 542.088Z" fill="#8B416F"/>
<path d="M1051.5 576.334C1051.5 576.334 1030.7 603.242 1025.19 603.853C1019.68 604.465 1016.01 613.026 1025.19 614.861C1043.52 618.049 1062.36 616.211 1079.73 609.543C1081.47 608.866 1082.93 607.625 1083.87 606.019C1084.82 604.414 1085.2 602.537 1084.96 600.689L1081.44 574.5L1051.5 576.334Z" fill="#8B416F"/>
<path d="M1017.23 290.759L997.281 293.418C1000.02 316.71 999.94 340.247 997.042 363.519V447.273C997.042 447.273 996.656 454.651 1011.98 465.38C1028.05 476.545 1043.53 488.525 1058.38 501.274L1113.9 549.347C1113.9 549.347 1135.93 522.439 1132.87 506.539C1132.87 506.539 1096.15 494.92 1091.26 475.962C1088.45 465.114 1074.22 456.021 1062.57 450.304C1055.24 446.749 1049.35 440.796 1045.88 433.435C1042.41 426.073 1041.56 417.746 1043.48 409.836C1044.16 407.088 1045.21 404.444 1046.6 401.979C1056.39 384.856 1070.47 346.329 1070.47 346.329L1043.55 295.04L1017.23 290.759Z" fill="#032B4D"/>
<path opacity="0.05" d="M1017.23 290.759L997.281 293.418C1000.02 316.71 999.94 340.247 997.042 363.519V447.273C997.042 447.273 996.656 454.651 1011.98 465.38C1028.05 476.545 1043.53 488.525 1058.38 501.274L1113.9 549.347C1113.9 549.347 1135.93 522.439 1132.87 506.539C1132.87 506.539 1096.15 494.92 1091.26 475.962C1088.45 465.114 1074.22 456.021 1062.57 450.304C1055.24 446.749 1049.35 440.796 1045.88 433.435C1042.41 426.073 1041.56 417.746 1043.48 409.836C1044.16 407.088 1045.21 404.444 1046.6 401.979C1056.39 384.856 1070.47 346.329 1070.47 346.329L1043.55 295.04L1017.23 290.759Z" fill="#032B4D"/>
<path d="M1046.61 578.209C1046.61 578.209 1082.71 584.324 1083.93 587.993C1085.15 591.662 1083.93 583.101 1083.93 583.101C1083.93 583.101 1104.73 520.113 1099.89 464.476C1095.05 408.839 1106.01 372.134 1106.01 372.134C1106.01 372.134 1118.86 330.549 1111.52 306.699C1104.18 282.849 1027.08 293.245 1027.08 293.245C1027.08 293.245 1054 356.234 1053.39 386.199C1053.39 386.199 1056.45 476.707 1061.96 487.103C1061.9 487.05 1053.34 575.723 1046.61 578.209Z" fill="#032B4D"/>
<path d="M1050.58 112.344C1051.65 114.38 1053.35 116.798 1056.02 118.95C1061.86 123.649 1071.89 126.732 1088.87 122.803L1065.05 304.101C1064.66 304.112 1064.22 304.124 1063.71 304.137C1061.78 304.187 1059.02 304.249 1055.7 304.297C1049.07 304.392 1040.25 304.43 1031.45 304.201C1022.64 303.973 1013.92 303.478 1007.48 302.522C1004.23 302.04 1001.7 301.46 1000.04 300.796C999.197 300.461 998.724 300.159 998.497 299.948C998.485 299.936 998.474 299.926 998.464 299.916L1013.02 188.013L1050.58 112.344Z" fill="#FDCA05" stroke="black" stroke-width="4"/>
<path opacity="0.1" d="M1051.81 106.088C1047.03 110.792 1040.8 113.748 1034.13 114.477C1028.04 114.944 1022.12 116.702 1016.76 119.635C1010.47 123.158 1003.46 128.277 1001.33 134.512C997.044 146.742 970.121 166.923 957.883 162.642L962.166 199.335C962.166 199.335 997.044 197.5 1003.16 184.046L992.774 314.982H1001.95C1001.95 314.982 1006.85 279.512 1010.52 272.174C1014.19 264.836 1021.53 224.474 1022.14 214.689C1022.76 204.905 1031.93 148.643 1039.89 138.912L1051.86 109.864L1051.81 106.088Z" fill="black"/>
<path opacity="0.1" d="M1051.81 107.923C1046.34 112.198 1039.8 114.889 1032.9 115.701C1026.82 116.177 1020.9 117.945 1015.55 120.885C1009.25 124.408 1002.24 129.527 1000.12 135.762C995.833 147.992 968.91 168.173 956.672 163.892L960.955 200.585C960.955 200.585 995.833 198.75 1001.95 185.296L991.549 316.152H1000.73C1000.73 316.152 1005.62 280.683 1009.29 273.344C1012.97 266.006 1020.31 225.644 1020.92 215.86C1021.53 206.075 1030.71 149.814 1038.66 140.082L1051.81 111.579V107.923Z" fill="black"/>
<path d="M1051.81 106.7C1046.34 110.975 1039.8 113.665 1032.9 114.477C1026.81 114.943 1020.89 116.702 1015.53 119.635C1009.24 123.158 1002.23 128.276 1000.1 134.511C995.819 146.742 968.896 166.923 956.658 162.642L960.941 199.334C960.941 199.334 995.819 197.5 1001.94 184.046L991.549 314.981H1000.73C1000.73 314.981 1005.62 279.512 1009.29 272.174C1012.97 264.835 1020.31 224.474 1020.92 214.689C1021.53 204.905 1030.71 148.643 1038.66 138.912L1051.82 110.475L1051.81 106.7Z" fill="#FF4568"/>
<path opacity="0.1" d="M1083.01 83.1559C1082.21 77.3596 1083.81 73.7436 1084.54 66.9502L1049.66 93.2463C1049.66 93.2463 1050.5 96.7959 1051.14 101.994C1052.9 102.278 1054.68 102.42 1056.46 102.419C1068.57 102.419 1077.28 92.9671 1083.01 83.1559Z" fill="black"/>
<path d="M1056.4 100.598C1074.64 100.598 1089.44 85.8129 1089.44 67.5748C1089.44 49.3367 1074.64 34.5518 1056.4 34.5518C1038.15 34.5518 1023.35 49.3367 1023.35 67.5748C1023.35 85.8129 1038.15 100.598 1056.4 100.598Z" fill="#FEC3BE"/>
<path opacity="0.1" d="M1020.33 35.2031C1020.12 29.634 1021.03 24.0789 1023 18.8644C1022.45 19.6848 1022.22 20.6752 1022.34 21.6527C1022.47 22.6302 1022.95 23.5286 1023.69 24.1821C1024.75 18.4989 1027.67 13.3285 1031.99 9.47861C1029.63 9.86414 1028.42 12.7756 1029.01 15.0888C1029.8 17.3482 1031.22 19.3385 1033.09 20.8319C1032.89 17.3355 1035.21 14.0652 1038.13 12.1508C1041.18 10.4004 1044.51 9.1947 1047.98 8.58789C1046.79 9.0092 1045.77 9.81152 1045.09 10.8697C1044.41 11.9278 1044.09 13.1823 1044.2 14.4374C1044.21 14.8638 1044.39 15.2693 1044.69 15.5674C1045.02 15.7799 1045.41 15.8823 1045.81 15.8599C1049.25 15.9926 1052.71 15.9172 1056.14 15.6339C1060.37 15.1585 1064.62 14.9321 1068.87 14.9559C1082.18 15.5142 1095.54 24.5942 1098.52 37.5562C1099.14 40.7012 1099.47 43.8966 1099.49 47.1015L1100.15 63.4667C1100.52 68.2412 1100.33 73.0438 1099.56 77.7714C1098.64 82.1358 1096.77 86.2432 1094.07 89.8005C1091.38 93.3579 1087.94 96.2775 1083.98 98.351C1079.18 91.3981 1078.76 82.4643 1077.09 74.1819C1076.83 72.2706 1076.12 70.4484 1075.02 68.8642C1074.45 68.0809 1073.65 67.4938 1072.73 67.1841C1071.82 66.8745 1070.83 66.8576 1069.9 67.136C1068.1 67.8539 1067.33 70.5925 1068.82 71.8156C1067.49 73.3843 1065 72.2144 1063.5 70.8185C1059.3 66.8387 1056.41 61.679 1055.21 56.0219C1054.61 53.177 1054.02 49.6673 1051.22 48.6968C1050.26 48.4328 1049.26 48.365 1048.27 48.4974C1042.44 48.8962 1033.33 51.3025 1027.69 49.4546C1022.52 47.7662 1020.33 40.1087 1020.33 35.2031Z" fill="black"/>
<path d="M1020.95 34.5917C1020.73 29.0227 1021.64 23.4676 1023.61 18.253C1023.06 19.0735 1022.83 20.0639 1022.96 21.0414C1023.08 22.0188 1023.56 22.9173 1024.3 23.5708C1025.36 17.8876 1028.28 12.7171 1032.6 8.86728C1030.24 9.25281 1029.03 12.1643 1029.62 14.4775C1030.41 16.7369 1031.83 18.7271 1033.7 20.2206C1033.5 16.7242 1035.82 13.4538 1038.74 11.5394C1041.79 9.78904 1045.12 8.58337 1048.59 7.97656C1047.4 8.39787 1046.39 9.2002 1045.7 10.2584C1045.02 11.3165 1044.7 12.571 1044.81 13.826C1044.82 14.2525 1045 14.658 1045.3 14.9561C1045.63 15.1686 1046.03 15.2709 1046.42 15.2485C1049.87 15.3813 1053.32 15.3058 1056.75 15.0225C1060.98 14.5471 1065.23 14.3207 1069.48 14.3445C1082.79 14.9029 1096.16 23.9829 1099.13 36.9448C1099.75 40.0899 1100.08 43.2852 1100.11 46.4901L1100.76 62.8554C1101.14 67.6299 1100.94 72.4324 1100.17 77.1601C1099.25 81.5245 1097.38 85.6319 1094.68 89.1892C1091.99 92.7465 1088.55 95.6661 1084.6 97.7396C1079.79 90.7867 1079.37 81.8529 1077.71 73.5706C1077.44 71.6593 1076.73 69.8371 1075.63 68.2529C1075.06 67.4696 1074.26 66.8824 1073.35 66.5728C1072.43 66.2631 1071.44 66.2463 1070.51 66.5246C1068.71 67.2425 1067.94 69.9811 1069.43 71.2042C1068.1 72.7729 1065.61 71.603 1064.11 70.2071C1059.91 66.2273 1057.02 61.0676 1055.82 55.4106C1055.23 52.5656 1054.63 49.0559 1051.83 48.0854C1050.87 47.8215 1049.87 47.7537 1048.88 47.886C1043.05 48.2848 1033.94 50.6911 1028.3 48.8432C1023.13 47.1415 1020.95 39.4973 1020.95 34.5917Z" fill="#000226"/>
<path opacity="0.1" d="M955.076 162.656C955.076 162.656 950.18 185.256 959.359 199.348L964.56 198.923L961.726 163.028L955.076 162.656Z" fill="black"/>
<path d="M956.406 162.656C956.406 162.656 951.51 185.256 960.689 199.348L965.89 198.923L963.057 163.028L956.406 162.656Z" fill="#FD6F8D"/>
<path opacity="0.1" d="M1087.91 100.944L1127.38 134.884C1127.38 134.884 1150.63 158.734 1140.84 197.261C1140.84 197.261 1136.55 253.522 1131.66 255.969C1131.66 255.969 1114.53 290.215 1113.3 322.626C1113.3 322.626 1090.36 276.455 1079.95 304.586C1069.55 332.717 1045.37 336.692 1045.37 336.692L1058.83 170.3C1058.83 170.3 1092.8 111.287 1087.91 100.944Z" fill="black"/>
<path d="M1089.13 100.944L1128.6 134.884C1128.6 134.884 1151.85 158.734 1142.06 197.261C1142.06 197.261 1137.78 253.522 1132.88 255.969C1132.88 255.969 1115.75 290.215 1114.53 322.626C1114.53 322.626 1090.36 274.009 1079.94 302.14C1069.53 330.27 1046.59 336.705 1046.59 336.705L1060.06 170.38C1060.06 170.38 1094.03 111.287 1089.13 100.944Z" fill="#FF4568"/>
<path d="M1107.18 244.296C1107.18 244.296 1116.97 237.569 1132.88 255.915L1093.72 326.853L1080.57 307.005C1080.57 307.005 1108.41 252.246 1107.18 244.296Z" fill="#FEC3BE"/>
<path opacity="0.1" d="M1097.7 248.271C1097.7 248.271 1119.35 272.573 1127.8 268.678L1135.62 250.478L1106.27 237.875L1097.7 248.271Z" fill="black"/>
<path d="M1097.7 247.048C1097.7 247.048 1119.35 271.35 1127.8 267.454L1135.62 249.254L1106.27 236.651L1097.7 247.048Z" fill="#FD6F8D"/>
<path opacity="0.1" d="M1081.9 302.365C1081.9 302.365 1092.21 323.477 1097.7 324.7L1089.72 333.873L1078.09 311.857L1081.9 302.365Z" fill="black"/>
<path d="M1081.28 303.017C1081.28 303.017 1091.59 324.128 1097.09 325.351L1089.11 334.525L1077.45 312.469L1081.28 303.017Z" fill="#4D4981"/>
<path opacity="0.1" d="M1100.76 172.44C1100.76 172.44 1101.98 216.471 1097.09 232.983Z" fill="black"/>
<path opacity="0.1" d="M1001.63 181.002C1001.63 181.002 1008.98 178.556 1008.98 172.44Z" fill="black"/>
<path d="M109.994 188.367C109.994 188.367 75.1163 260.475 98.0222 345.811C120.928 431.147 113.652 533.261 90.8125 558.52" stroke="#535461" stroke-width="2" stroke-miterlimit="10"/>
<path d="M109.994 197.992C115.306 197.992 119.611 193.689 119.611 188.38C119.611 183.072 115.306 178.769 109.994 178.769C104.683 178.769 100.377 183.072 100.377 188.38C100.377 193.689 104.683 197.992 109.994 197.992Z" fill="#FF4568"/>
<path d="M95.4941 234.751C95.4941 234.751 131.649 241.265 141.266 228.104" stroke="#535461" stroke-width="2" stroke-miterlimit="10"/>
<path d="M92.062 255.689C92.062 255.689 70.3134 231.64 71.5106 217.215" stroke="#535461" stroke-width="2" stroke-miterlimit="10"/>
<path d="M90.2129 299.746C90.2129 299.746 109.993 304.958 128.043 266.511" stroke="#535461" stroke-width="2" stroke-miterlimit="10"/>
<path d="M95.4944 331.786C95.4944 331.786 46.2774 300.132 52.2766 279.712" stroke="#535461" stroke-width="2" stroke-miterlimit="10"/>
<path d="M103.184 368.012C103.184 368.012 137.662 337.436 134.057 307.351" stroke="#535461" stroke-width="2" stroke-miterlimit="10"/>
<path d="M106.934 389.31C106.934 389.31 63.0373 377.053 64.3675 357.829" stroke="#535461" stroke-width="2" stroke-miterlimit="10"/>
<path d="M109.992 414.689C109.992 414.689 137.647 389.084 141.252 373.477" stroke="#535461" stroke-width="2" stroke-miterlimit="10"/>
<path d="M111.921 458.228C111.921 458.228 83.5484 425.125 82.3379 408.308" stroke="#535461" stroke-width="2" stroke-miterlimit="10"/>
<path d="M111.922 485.627C111.922 485.627 143.673 450.371 146.068 433.554" stroke="#535461" stroke-width="2" stroke-miterlimit="10"/>
<path d="M71.5098 229.234C76.8213 229.234 81.1271 224.93 81.1271 219.622C81.1271 214.314 76.8213 210.01 71.5098 210.01C66.1984 210.01 61.8926 214.314 61.8926 219.622C61.8926 224.93 66.1984 229.234 71.5098 229.234Z" fill="black"/>
<path d="M60.6973 367.441C66.0088 367.441 70.3146 363.138 70.3146 357.829C70.3146 352.521 66.0088 348.217 60.6973 348.217C55.3859 348.217 51.0801 352.521 51.0801 357.829C51.0801 363.138 55.3859 367.441 60.6973 367.441Z" fill="#FF4568"/>
<path d="M52.2774 289.324C57.5889 289.324 61.8947 285.02 61.8947 279.712C61.8947 274.403 57.5889 270.1 52.2774 270.1C46.966 270.1 42.6602 274.403 42.6602 279.712C42.6602 285.02 46.966 289.324 52.2774 289.324Z" fill="#FF4568"/>
<path d="M141.266 237.649C146.577 237.649 150.883 233.346 150.883 228.037C150.883 222.729 146.577 218.425 141.266 218.425C135.954 218.425 131.648 222.729 131.648 228.037C131.648 233.346 135.954 237.649 141.266 237.649Z" fill="#FF4568"/>
<path d="M141.266 385.468C146.577 385.468 150.883 381.165 150.883 375.856C150.883 370.548 146.577 366.245 141.266 366.245C135.954 366.245 131.648 370.548 131.648 375.856C131.648 381.165 135.954 385.468 141.266 385.468Z" fill="#FF4568"/>
<path d="M125.637 276.109C130.948 276.109 135.254 271.806 135.254 266.498C135.254 261.189 130.948 256.886 125.637 256.886C120.325 256.886 116.02 261.189 116.02 266.498C116.02 271.806 120.325 276.109 125.637 276.109Z" fill="black"/>
<path d="M144.871 449.174C150.183 449.174 154.488 444.871 154.488 439.562C154.488 434.254 150.183 429.951 144.871 429.951C139.56 429.951 135.254 434.254 135.254 439.562C135.254 444.871 139.56 449.174 144.871 449.174Z" fill="black"/>
<path d="M79.9317 423.929C85.2432 423.929 89.549 419.625 89.549 414.317C89.549 409.008 85.2432 404.705 79.9317 404.705C74.6202 404.705 70.3145 409.008 70.3145 414.317C70.3145 419.625 74.6202 423.929 79.9317 423.929Z" fill="black"/>
<path d="M135.254 316.962C140.565 316.962 144.871 312.659 144.871 307.351C144.871 302.042 140.565 297.739 135.254 297.739C129.943 297.739 125.637 302.042 125.637 307.351C125.637 312.659 129.943 316.962 135.254 316.962Z" fill="#FF4568"/>
</g>
<defs>
<linearGradient id="paint0_linear" x1="593.41" y1="560.089" x2="593.41" y2="73.85" gradientUnits="userSpaceOnUse">
<stop stop-color="#808080" stop-opacity="0.25"/>
<stop offset="0.54" stop-color="#808080" stop-opacity="0.12"/>
<stop offset="1" stop-color="#808080" stop-opacity="0.1"/>
</linearGradient>
<linearGradient id="paint1_linear" x1="271330" y1="401128" x2="271330" y2="109085" gradientUnits="userSpaceOnUse">
<stop stop-color="#808080" stop-opacity="0.25"/>
<stop offset="0.54" stop-color="#808080" stop-opacity="0.12"/>
<stop offset="1" stop-color="#808080" stop-opacity="0.1"/>
</linearGradient>
<clipPath id="clip0">
<rect width="1269" height="731" fill="white"/>
</clipPath>
</defs>
</svg>
