<svg width="1043" height="841" viewBox="0 0 1043 841" fill="none" xmlns="http://www.w3.org/2000/svg">
<g clip-path="url(#clip0)">
<path d="M521.442 841C809.427 841 1042.88 825.33 1042.88 806C1042.88 786.67 809.427 771 521.442 771C233.458 771 0 786.67 0 806C0 825.33 233.458 841 521.442 841Z" fill="#FDCA05" fill-opacity="0.5"/>
<path opacity="0.1" d="M645.885 829C834.214 829 986.885 817.359 986.885 803C986.885 788.641 834.214 777 645.885 777C457.556 777 304.885 788.641 304.885 803C304.885 817.359 457.556 829 645.885 829Z" fill="black"/>
<path d="M191.359 706.733L196.699 768.133L220.725 773.472L226.064 757.455C226.064 757.455 216.72 713.407 216.72 705.398L191.359 706.733Z" fill="#A0616A"/>
<path d="M258.099 664.021C258.099 664.021 247.42 690.716 243.416 693.386C239.412 696.055 255.429 730.76 255.429 730.76L279.455 726.755C279.455 726.755 271.446 698.725 278.12 682.707L258.099 664.021Z" fill="#A0616A"/>
<path d="M250.758 679.37C250.758 679.37 240.747 682.707 236.743 697.39C232.738 712.072 232.738 713.407 232.738 713.407L239.412 728.09H243.417C243.417 728.09 250.09 750.781 248.756 758.79C247.421 766.798 258.099 797.498 276.786 796.163C295.473 794.829 291.469 772.137 291.469 772.137L282.125 725.42C282.125 725.42 282.125 713.407 279.456 713.407C276.786 713.407 255.43 717.411 255.43 717.411V721.416C255.43 721.416 240.08 700.727 250.758 679.37Z" fill="#2F2E41"/>
<path d="M216.721 761.46V753.451C216.721 753.451 188.691 757.455 188.691 761.46V770.803C188.691 770.803 164.665 821.525 191.36 821.525C218.056 821.525 223.395 810.846 223.395 810.846V796.164C223.395 796.164 236.743 789.49 236.743 785.486C236.743 781.481 223.718 746.108 223.718 746.108C223.718 746.108 223.395 766.799 216.721 761.46Z" fill="#2F2E41"/>
<path d="M184.686 100.743C208.275 100.743 227.399 81.6201 227.399 58.0303C227.399 34.4406 208.275 15.3174 184.686 15.3174C161.096 15.3174 141.973 34.4406 141.973 58.0303C141.973 81.6201 161.096 100.743 184.686 100.743Z" fill="#A0616A"/>
<path d="M168 90.7325C168 90.7325 173.339 116.093 173.339 118.763C173.339 121.432 198.7 133.445 198.7 133.445L221.391 129.441L229.4 105.415C229.4 105.415 216.052 85.3934 216.052 77.3848L168 90.7325Z" fill="#A0616A"/>
<path d="M171.575 108.328C171.575 108.328 185.354 130.776 205.376 124.102C210.943 122.412 215.835 119.006 219.352 114.371C222.87 109.735 224.833 104.107 224.961 98.29L290.801 121.432L278.788 218.871L289.467 332.327L281.458 347.01H163.997C163.997 347.01 159.993 326.988 158.658 326.988C157.323 326.988 154.654 322.984 155.989 321.649C157.323 320.314 159.993 318.98 158.658 314.975C157.323 310.971 155.989 266.923 155.989 266.923L115.945 150.797L171.575 108.328Z" fill="#FF4568"/>
<path d="M120.615 362.36L144.641 394.395C144.641 394.395 148.646 361.025 153.985 359.691L140.637 350.347L120.615 362.36Z" fill="#A0616A"/>
<path d="M387.572 337C387.572 337 423.611 359.691 419.607 374.373C415.603 389.056 374.225 349.013 374.225 347.678C374.225 346.343 387.572 337 387.572 337Z" fill="#A0616A"/>
<path d="M163.328 336.999H160.659L156.654 355.686C156.654 355.686 135.298 374.373 145.976 403.738L167.333 543.89L170.002 706.734L194.028 713.407L220.724 708.068L227.398 490.499C227.398 490.499 236.741 470.477 232.737 463.804C228.733 457.13 234.072 458.464 234.072 458.464L262.102 535.882C262.102 535.882 252.759 561.242 262.102 569.251C262.102 569.251 260.767 573.255 262.102 574.59C263.437 575.925 270.111 581.264 267.441 583.934C264.772 586.603 263.437 583.934 263.437 587.938C263.437 591.942 250.089 625.312 255.428 668.025L272.78 694.72L288.798 685.377L318.163 602.621C318.163 602.621 311.489 590.608 318.163 587.938C324.837 585.268 326.171 582.599 323.502 578.595C320.832 574.59 320.832 561.242 324.837 554.569C328.841 547.895 324.837 537.216 324.837 537.216L310.154 402.404C310.154 402.404 316.828 366.365 294.137 347.678L290.132 332.995C290.132 332.995 256.763 357.021 163.328 336.999Z" fill="#032B4D"/>
<path d="M147.645 23.6179C147.645 23.6179 161.206 -5.76473 187.199 1.01588C213.191 7.79649 227.882 17.9674 229.012 28.1383C230.142 38.3092 228.447 53.5656 228.447 53.5656C228.447 53.5656 225.622 32.6587 207.54 37.1791C189.459 41.6995 161.206 38.3092 161.206 38.3092L156.686 78.9928C156.686 78.9928 151.6 71.6472 145.95 76.1676C140.299 80.688 129.563 32.6587 147.645 23.6179Z" fill="#2F2E41"/>
<path d="M135.967 150.797H115.945C115.945 150.797 98.5927 165.48 99.9274 193.51L90.584 272.262C90.584 272.262 90.584 310.971 106.601 339.001L123.954 372.371C123.954 372.371 130.627 353.684 150.649 356.354L139.971 328.323V321.649C139.971 321.649 135.967 316.31 135.967 314.975C135.967 313.641 141.306 313.641 137.301 310.971C133.297 308.301 129.293 281.606 129.293 281.606C129.293 281.606 130.627 276.267 131.962 274.932C133.297 273.597 130.627 269.593 130.627 269.593L133.297 265.588L150.649 200.184L135.967 150.797Z" fill="#FF4568"/>
<path d="M268.109 117.428L290.8 121.433C290.8 121.433 304.148 134.78 309.487 150.798L320.165 198.85L337.518 233.554C337.518 233.554 357.539 253.576 372.222 298.958L393.578 339.002L370.887 352.35C370.887 352.35 308.152 278.937 300.144 253.576L265.439 186.837L268.109 117.428Z" fill="#FF4568"/>
<path d="M941.885 316H394.885V809H941.885V316Z" fill="#032B4D"/>
<path d="M402.749 386H387.455V753H402.749V386Z" fill="#FDCA05"/>
<path d="M802.385 388.5H731.385V390.5H802.385V388.5Z" fill="#F2F2F2"/>
<path d="M803.385 372.5H731.385V384.5H803.385V372.5Z" fill="#FF4568"/>
<path d="M804.385 755H806.885V752.5V737.965V735.465H804.385H802.385H799.885V737.965V748H762.885V731H791.635H794.135V728.5V726.5V724H791.635H758.385H755.885V726.5V752.5V755H758.385H804.385Z" stroke="#FF4568" stroke-width="5"/>
<path d="M802.385 430.5H471.385V438.5H802.385V430.5Z" fill="#FDCA05"/>
<path d="M802.385 467.5H471.385V475.5H802.385V467.5Z" fill="#FDCA05"/>
<path d="M802.385 504.5H471.385V512.5H802.385V504.5Z" fill="#FF4568"/>
<path d="M802.385 541.5H471.385V549.5H802.385V541.5Z" fill="#FDCA05"/>
<path d="M802.385 578.5H471.385V586.5H802.385V578.5Z" fill="#FDCA05"/>
<path d="M802.385 615.5H471.385V623.5H802.385V615.5Z" fill="#FF4568"/>
<path d="M802.385 652.5H471.385V660.5H802.385V652.5Z" fill="#FDCA05"/>
<path d="M802.385 689.5H471.385V697.5H802.385V689.5Z" fill="#FDCA05"/>
<path d="M852.385 447.5C859.564 447.5 865.385 441.68 865.385 434.5C865.385 427.32 859.564 421.5 852.385 421.5C845.205 421.5 839.385 427.32 839.385 434.5C839.385 441.68 845.205 447.5 852.385 447.5Z" fill="#FF4568"/>
<path d="M852.385 484.5C859.564 484.5 865.385 478.68 865.385 471.5C865.385 464.32 859.564 458.5 852.385 458.5C845.205 458.5 839.385 464.32 839.385 471.5C839.385 478.68 845.205 484.5 852.385 484.5Z" fill="#FDCA05"/>
<path d="M852.385 521.5C859.564 521.5 865.385 515.68 865.385 508.5C865.385 501.32 859.564 495.5 852.385 495.5C845.205 495.5 839.385 501.32 839.385 508.5C839.385 515.68 845.205 521.5 852.385 521.5Z" fill="#FF4568"/>
<path d="M852.385 558.5C859.564 558.5 865.385 552.68 865.385 545.5C865.385 538.32 859.564 532.5 852.385 532.5C845.205 532.5 839.385 538.32 839.385 545.5C839.385 552.68 845.205 558.5 852.385 558.5Z" fill="#FDCA05"/>
<path d="M852.385 595.5C859.564 595.5 865.385 589.68 865.385 582.5C865.385 575.32 859.564 569.5 852.385 569.5C845.205 569.5 839.385 575.32 839.385 582.5C839.385 589.68 845.205 595.5 852.385 595.5Z" fill="#FF4568"/>
<path d="M852.385 632.5C859.564 632.5 865.385 626.68 865.385 619.5C865.385 612.32 859.564 606.5 852.385 606.5C845.205 606.5 839.385 612.32 839.385 619.5C839.385 626.68 845.205 632.5 852.385 632.5Z" fill="#FDCA05"/>
<path d="M852.385 669.5C859.564 669.5 865.385 663.68 865.385 656.5C865.385 649.32 859.564 643.5 852.385 643.5C845.205 643.5 839.385 649.32 839.385 656.5C839.385 663.68 845.205 669.5 852.385 669.5Z" fill="#FF4568"/>
<path d="M852.385 706.5C859.564 706.5 865.385 700.68 865.385 693.5C865.385 686.32 859.564 680.5 852.385 680.5C845.205 680.5 839.385 686.32 839.385 693.5C839.385 700.68 845.205 706.5 852.385 706.5Z" fill="#FDCA05"/>
<path d="M779.824 747.475L780.885 748.535L781.945 747.475L812.652 716.768L813.713 715.707L812.652 714.646L811.238 713.232L810.178 712.172L809.117 713.232L780.885 741.465L772.152 732.732L771.092 731.672L770.031 732.732L768.617 734.146L767.556 735.207L768.617 736.268L779.824 747.475Z" fill="#FDCA05" stroke="#FDCA05" stroke-width="3"/>
<path opacity="0.1" d="M781.885 771C819.992 771 850.885 769.209 850.885 767C850.885 764.791 819.992 763 781.885 763C743.777 763 712.885 764.791 712.885 767C712.885 769.209 743.777 771 781.885 771Z" fill="black"/>
<path d="M81.5888 794.021C81.3593 793.646 75.9482 784.611 74.0722 765.85C72.3515 748.637 73.458 719.623 88.5048 679.151C117.011 602.48 81.9355 540.618 81.5771 540.002L83.3076 538.998C83.3984 539.154 92.4492 554.927 97.7958 580.042C104.86 613.34 102.288 647.961 90.3798 679.849C61.9228 756.389 83.0791 792.622 83.2958 792.979L81.5888 794.021Z" fill="#3F3D56"/>
<path d="M70.4414 535.5C77.6211 535.5 83.4414 529.68 83.4414 522.5C83.4414 515.32 77.6211 509.5 70.4414 509.5C63.2617 509.5 57.4414 515.32 57.4414 522.5C57.4414 529.68 63.2617 535.5 70.4414 535.5Z" fill="#FF4568"/>
<path d="M111.441 583.5C118.621 583.5 124.441 577.68 124.441 570.5C124.441 563.32 118.621 557.5 111.441 557.5C104.262 557.5 98.4414 563.32 98.4414 570.5C98.4414 577.68 104.262 583.5 111.441 583.5Z" fill="#032B4D"/>
<path d="M83.4414 615.5C90.6211 615.5 96.4414 609.68 96.4414 602.5C96.4414 595.32 90.6211 589.5 83.4414 589.5C76.2617 589.5 70.4414 595.32 70.4414 602.5C70.4414 609.68 76.2617 615.5 83.4414 615.5Z" fill="#032B4D"/>
<path d="M117.441 642.5C124.621 642.5 130.441 636.68 130.441 629.5C130.441 622.32 124.621 616.5 117.441 616.5C110.262 616.5 104.441 622.32 104.441 629.5C104.441 636.68 110.262 642.5 117.441 642.5Z" fill="#FF4568"/>
<path d="M73.4414 684.5C80.6211 684.5 86.4414 678.68 86.4414 671.5C86.4414 664.32 80.6211 658.5 73.4414 658.5C66.2617 658.5 60.4414 664.32 60.4414 671.5C60.4414 678.68 66.2617 684.5 73.4414 684.5Z" fill="#FF4568"/>
<path d="M89.4413 794.5C89.4413 794.5 76.4413 762.5 115.441 738.5L89.4413 794.5Z" fill="#3F3D56"/>
<path d="M73.4546 793.919C73.4546 793.919 67.5382 759.89 21.7461 760.182L73.4546 793.919Z" fill="#3F3D56"/>
</g>
<defs>
<clipPath id="clip0">
<rect width="1042.88" height="841" fill="white"/>
</clipPath>
</defs>
</svg>
