<svg width="779" height="518" viewBox="0 0 779 518" fill="none" xmlns="http://www.w3.org/2000/svg">
<path d="M93.1079 60.3179C95.5126 60.3179 97.4619 58.3685 97.4619 55.9639C97.4619 53.5592 95.5126 51.6099 93.1079 51.6099C90.7033 51.6099 88.7539 53.5592 88.7539 55.9639C88.7539 58.3685 90.7033 60.3179 93.1079 60.3179Z" fill="white"/>
<path d="M109.633 60.3179C112.038 60.3179 113.987 58.3685 113.987 55.9639C113.987 53.5592 112.038 51.6099 109.633 51.6099C107.229 51.6099 105.279 53.5592 105.279 55.9639C105.279 58.3685 107.229 60.3179 109.633 60.3179Z" fill="white"/>
<path d="M126.159 60.3179C128.563 60.3179 130.513 58.3685 130.513 55.9639C130.513 53.5592 128.563 51.6099 126.159 51.6099C123.754 51.6099 121.805 53.5592 121.805 55.9639C121.805 58.3685 123.754 60.3179 126.159 60.3179Z" fill="white"/>
<path d="M635.428 66.1929H82.5293V69.2659H635.428V66.1929Z" fill="white"/>
<path d="M635.902 0.359863H0.271484V407.446H635.902V0.359863Z" fill="#FF4568" fill-opacity="0.4"/>
<path d="M635.631 0H0V27.004H635.631V0Z" fill="#FF4568"/>
<path d="M618.253 48.7852H18.9727V203.97H618.253V48.7852Z" fill="white"/>
<path d="M618.632 229.471H19.3516V384.656H618.632V229.471Z" fill="white"/>
<path d="M545.671 83.1152H221.34V97.5702H545.671V83.1152Z" fill="#FDCA05" fill-opacity="0.41"/>
<path d="M336.979 119.252H221.34V133.707H336.979V119.252Z" fill="#FDCA05" fill-opacity="0.41"/>
<path d="M451.715 155.389H221.34V169.844H451.715V155.389Z" fill="#FDCA05" fill-opacity="0.41"/>
<path d="M199.581 126.449C199.598 136.966 196.537 147.258 190.774 156.056C189.567 157.911 188.243 159.688 186.812 161.377C183.456 165.353 179.546 168.827 175.203 171.692C174.022 172.475 172.808 173.208 171.561 173.892C165.07 177.482 157.905 179.688 150.519 180.372C148.84 180.536 147.133 180.614 145.411 180.614C140.692 180.618 135.992 180.004 131.433 178.786C128.849 178.107 126.32 177.229 123.871 176.161C122.619 175.62 121.395 175.032 120.2 174.397C117.325 172.887 114.594 171.118 112.041 169.112C110.853 168.187 109.708 167.213 108.605 166.188C102.005 160.075 97.0321 152.415 94.134 143.899C91.236 135.383 90.5045 126.279 92.0056 117.409C93.5067 108.54 97.1932 100.184 102.732 93.0955C108.271 86.0074 115.488 80.4103 123.732 76.8097C131.976 73.209 140.986 71.7181 149.95 72.4716C158.914 73.2251 167.55 76.1993 175.077 81.1256C182.603 86.0519 188.785 92.7752 193.063 100.689C197.341 108.602 199.581 117.456 199.58 126.452L199.581 126.449Z" fill="#032B4D"/>
<path d="M196.947 306.269C196.964 316.793 193.9 327.092 188.134 335.896C186.925 337.753 185.601 339.531 184.169 341.221C180.81 345.2 176.898 348.676 172.552 351.543C171.37 352.326 170.155 353.06 168.907 353.743C162.411 357.336 155.241 359.544 147.85 360.228C146.17 360.392 144.462 360.47 142.739 360.47C138.016 360.475 133.313 359.86 128.751 358.641C126.165 357.961 123.635 357.083 121.184 356.014C119.931 355.473 118.707 354.884 117.511 354.249C114.634 352.738 111.901 350.968 109.346 348.96C108.157 348.035 107.011 347.059 105.908 346.034C99.3062 339.917 94.3318 332.252 91.4337 323.731C88.5356 315.21 87.805 306.102 89.3078 297.228C90.8107 288.354 94.4996 279.994 100.042 272.903C105.584 265.811 112.805 260.212 121.053 256.609C129.3 253.007 138.315 251.515 147.284 252.268C156.253 253.022 164.892 255.997 172.423 260.925C179.955 265.853 186.14 272.578 190.422 280.495C194.703 288.412 196.946 297.27 196.947 306.27V306.269Z" fill="#032B4D"/>
<path d="M146.065 280.966H139.42V331.558H146.065V280.966Z" fill="#FDCA05"/>
<path d="M168.037 309.585V302.94H117.445V309.585H168.037Z" fill="#FDCA05"/>
<path d="M537.54 263.801H213.209V278.256H537.54V263.801Z" fill="#FDCA05" fill-opacity="0.41"/>
<path d="M328.848 299.938H213.209V314.393H328.848V299.938Z" fill="#FDCA05" fill-opacity="0.41"/>
<path d="M443.584 336.075H213.209V350.53H443.584V336.075Z" fill="#FDCA05" fill-opacity="0.41"/>
<path d="M545.462 87H221.131V101.455H545.462V87Z" fill="#032B4D" fill-opacity="0.83"/>
<path d="M336.77 123.137H221.131V137.592H336.77V123.137Z" fill="#032B4D" fill-opacity="0.83"/>
<path d="M451.506 159.274H221.131V173.729H451.506V159.274Z" fill="#032B4D" fill-opacity="0.83"/>
<path d="M537.331 267.686H213V282.141H537.331V267.686Z" fill="#032B4D" fill-opacity="0.83"/>
<path d="M328.639 303.823H213V318.278H328.639V303.823Z" fill="#032B4D" fill-opacity="0.83"/>
<path d="M443.375 339.959H213V354.414H443.375V339.959Z" fill="#032B4D" fill-opacity="0.83"/>
<path d="M665.379 382.92C665.379 382.92 661.861 370.997 667.593 374.887C673.325 378.776 690.009 384.617 683.998 393.971C677.987 403.325 642.009 455.03 636.192 444.784C632.962 439.096 644.217 390.85 644.217 390.85C644.217 390.85 652.223 389 653.37 390.85C654.516 392.7 665.379 382.92 665.379 382.92Z" fill="#2F2E41"/>
<path d="M572.324 251.148C572.324 251.148 579.27 285.27 592.255 277.003C605.24 268.736 589.456 244.781 589.456 244.781L572.324 251.148Z" fill="#FFB8B8"/>
<path opacity="0.3" d="M630.4 359.816L631.883 395.804L627.412 391.956L630.4 359.816Z" fill="black"/>
<path opacity="0.3" d="M666.143 374.173L664.575 374.951L662.893 423.161L666.779 418.159L666.143 374.173Z" fill="black"/>
<path d="M450.444 493.312C450.444 493.312 458.469 466.301 427.943 450.923L450.444 493.312Z" fill="#FDCA05"/>
<path d="M451.445 493.455C451.445 493.455 454.628 466.798 490.182 465.127L451.445 493.455Z" fill="#FDCA05"/>
<path d="M728.636 501.159C722.989 524.389 426.552 522.439 427.001 501.159C432.647 477.929 729.084 479.879 728.636 501.159Z" fill="#6B7E8E"/>
<path d="M613.761 78.6431L612.686 97.9911L598.709 125.945L644.94 123.794L641.714 94.7657L643.865 82.9392L613.761 78.6431Z" fill="#FDB797"/>
<path d="M609.226 114.531C610.368 115.247 612.025 116.037 614.25 116.524C618.674 117.492 625.188 117.228 634.185 113.077L648.824 184.175L650.917 248.028L589.485 245.98L590.533 180.991L609.226 114.531Z" fill="#FDCA05" stroke="black" stroke-width="3"/>
<path d="M636.341 434.513L635.266 452.79L652.468 458.166V433.438L636.341 434.513Z" fill="#FFB8B8"/>
<path d="M579.359 243.139V350.652L640.642 403.335L655.693 377.531L612.688 342.052L623.439 315.174L668.595 286.144V244.214L579.359 243.139Z" fill="#032B4D"/>
<path d="M624.514 309.796L630.964 364.628L633.115 437.733H661.068C661.068 437.733 670.742 373.225 659.993 357.098L668.594 286.149L659.993 258.195L624.514 309.796Z" fill="#032B4D"/>
<path d="M649.242 451.715C649.242 451.715 650.317 447.415 642.791 447.415C635.265 447.415 632.039 448.49 632.039 449.565C631.787 451.376 631.428 453.171 630.964 454.941C630.964 454.941 611.616 503.322 630.964 501.171C650.312 499.021 653.542 489.347 653.542 489.347L655.693 458.168C655.693 458.168 653.542 455.535 652.467 455.777C651.392 456.019 649.242 451.715 649.242 451.715Z" fill="#2F2E41"/>
<path d="M630.965 89.3944C644.029 89.3944 654.618 78.8046 654.618 65.7414C654.618 52.6782 644.029 42.0884 630.965 42.0884C617.902 42.0884 607.312 52.6782 607.312 65.7414C607.312 78.8046 617.902 89.3944 630.965 89.3944Z" fill="#FDB797"/>
<path d="M635.265 118.423L627.739 109.822L642.29 91.6104L648.167 97.9864L682.576 113.038L672.902 207.65C672.902 207.65 671.826 235.604 678.277 254.956C678.277 254.956 664.3 272.159 642.798 267.858L614.844 273.234C614.844 273.234 611.612 134.55 635.265 118.423Z" fill="#FF4568"/>
<path d="M611.613 113.047L612.849 95.1284L607.314 102.295L578.285 123.798L581.511 243.138L591.185 248.515L607.313 120.579L611.613 113.047Z" fill="#FF4568"/>
<path d="M585.811 122.723L578.285 123.798C578.285 123.798 572.909 133.472 572.909 134.55C572.909 135.627 570.759 191.532 570.759 191.532C570.759 191.532 566.996 247.977 573.447 258.728L592.48 238.25L585.811 219.485V122.723Z" fill="#FF4568"/>
<path d="M697.623 256.041C697.623 256.041 692.247 290.449 707.297 287.219C722.347 283.99 715.898 256.041 715.898 256.041H697.623Z" fill="#FFB8B8"/>
<path d="M672.895 113.047H682.569C682.569 113.047 689.019 116.273 690.095 125.949C691.17 135.625 706.222 178.631 706.222 178.631C706.222 178.631 723.424 249.59 722.349 259.266H695.47L697.62 239.918L668.592 162.508L672.895 113.047Z" fill="#FF4568"/>
<path d="M610.845 43.0194L606.338 41.2143C606.338 41.2143 615.765 30.8345 628.883 31.737L625.193 27.675C625.193 27.675 634.208 24.0649 642.41 33.5421C646.719 38.5243 651.706 44.3803 654.814 50.9763H659.644L657.629 55.4142L664.683 59.8522L657.443 59.0552C657.875 61.4868 657.941 63.9694 657.64 66.4206C657.329 68.8708 656.079 71.1045 654.153 72.6505V72.6505C654.153 72.6505 648.56 61.0757 648.56 59.2706V63.7834C648.56 63.7834 644.053 59.7214 644.053 57.0137L641.594 60.1732L640.364 55.2086L625.193 60.1732L627.652 56.1112L618.225 57.4656L621.914 52.501C621.914 52.501 611.256 58.3681 610.846 63.3315C610.388 66.773 609.183 70.0728 607.316 73.0001C607.316 73.0001 598.957 49.789 610.845 43.0194Z" fill="#2F2E41"/>
<path d="M769.528 316.418C773.768 324.633 776.008 333.73 776.069 342.97L776.069 343.361C776.072 352.421 773.978 361.359 769.951 369.474C765.923 377.589 760.072 384.662 752.854 390.138L752.852 390.14C751.804 390.937 750.73 391.701 749.63 392.432L749.629 392.432C749.361 392.611 749.094 392.781 748.828 392.944L748.806 392.957L748.785 392.971C747.773 393.62 746.741 394.226 745.687 394.804L745.681 394.807L745.675 394.81C745.255 395.043 744.836 395.268 744.418 395.485L744.396 395.496L744.375 395.508C744.356 395.518 744.337 395.528 744.316 395.538C744.302 395.545 744.287 395.552 744.269 395.56L744.211 395.587L744.154 395.616C743.602 395.904 743.075 396.172 742.551 396.419L742.544 396.422L742.538 396.425C740.152 397.565 737.69 398.54 735.17 399.341L735.169 399.341C731.173 400.613 727.05 401.45 722.874 401.837L722.871 401.838C721.045 402.009 719.197 402.095 717.328 402.095H717.326C712.21 402.1 707.115 401.434 702.173 400.113L702.162 400.11C699.631 399.445 697.148 398.605 694.733 397.595C694.598 397.538 694.463 397.481 694.334 397.428L694.33 397.426C694.201 397.373 694.079 397.322 693.96 397.272C692.782 396.759 691.627 396.209 690.496 395.621C690.495 395.62 690.494 395.62 690.493 395.619L689.987 395.354L689.984 395.353C688.746 394.707 687.537 394.017 686.357 393.283C684.555 392.16 682.814 390.94 681.144 389.63L681.135 389.623L681.127 389.617C680.288 388.97 679.471 388.292 678.677 387.583L678.655 387.563L678.632 387.544C678.265 387.232 677.903 386.901 677.508 386.542L677.419 386.461C677.417 386.458 677.414 386.456 677.411 386.453C675.835 384.989 674.338 383.442 672.928 381.817L672.928 381.817C672.364 381.168 671.82 380.514 671.294 379.848L671.291 379.844C665.469 372.498 661.489 363.864 659.684 354.665C657.88 345.467 658.303 335.97 660.919 326.968C663.535 317.966 668.266 309.721 674.719 302.921C681.172 296.122 689.159 290.966 698.012 287.883C706.864 284.8 716.326 283.881 725.607 285.203C734.887 286.524 743.717 290.047 751.358 295.477C758.999 300.908 765.229 308.088 769.528 316.418Z" fill="#032B4D" stroke="#FDCA05" stroke-width="5"/>
<path d="M42.0393 17.8998C44.5063 17.8998 46.5063 15.8999 46.5063 13.4328C46.5063 10.9658 44.5063 8.96582 42.0393 8.96582C39.5722 8.96582 37.5723 10.9658 37.5723 13.4328C37.5723 15.8999 39.5722 17.8998 42.0393 17.8998Z" fill="white"/>
<path d="M58.9943 17.8998C61.4614 17.8998 63.4613 15.8999 63.4613 13.4328C63.4613 10.9658 61.4614 8.96582 58.9943 8.96582C56.5273 8.96582 54.5273 10.9658 54.5273 13.4328C54.5273 15.8999 56.5273 17.8998 58.9943 17.8998Z" fill="white"/>
<path d="M25.0393 17.8998C27.5063 17.8998 29.5063 15.8999 29.5063 13.4328C29.5063 10.9658 27.5063 8.96582 25.0393 8.96582C22.5722 8.96582 20.5723 10.9658 20.5723 13.4328C20.5723 15.8999 22.5722 17.8998 25.0393 17.8998Z" fill="white"/>
<path d="M150.234 93.3623L129.732 107.769V119.908V155.39H170.736V119.908V107.769L150.234 93.3623Z" fill="url(#paint0_linear)"/>
<path d="M170.051 107.421L150.574 93.3623L131.098 107.421V119.264H170.051V107.421Z" fill="white"/>
<path opacity="0.5" d="M170.051 107.421L150.574 93.3623L131.098 107.421V119.264H170.051V107.421Z" fill="white"/>
<path d="M170.055 119.265H131.102V154.028H170.055V119.265Z" fill="white"/>
<path d="M172.452 114.494L150.577 98.9842L128.441 114.494L127 109.039L150.577 92L174.154 109.039L172.452 114.494Z" fill="white"/>
<path d="M172.531 113.812L150.575 98.226L128.62 113.812L127.682 108.932L150.575 92.6816L173.469 108.932L172.531 113.812Z" fill="white"/>
<path opacity="0.2" d="M172.531 113.812L150.575 98.226L128.62 113.812L127.682 108.932L150.575 92.6816L173.469 108.932L172.531 113.812Z" fill="white"/>
<path d="M161.851 126.763H139.299V154.028H161.851V126.763Z" fill="white"/>
<path d="M161.851 133.579H139.299V138.35H161.851V133.579Z" fill="#FDCA05"/>
<path d="M161.851 143.122H139.299V147.212H161.851V143.122Z" fill="#032B4D"/>
<path d="M161.851 124.718H139.299V128.808H161.851V124.718Z" fill="#032B4D"/>
<g filter="url(#filter0_d)">
<path d="M126.368 118.784L114.572 127.072V134.057V154.471H138.163V134.057V127.072L126.368 118.784Z" fill="url(#paint1_linear)"/>
<path d="M137.771 126.873L126.565 118.784L115.359 126.873V133.686H137.771V126.873Z" fill="white"/>
<path opacity="0.5" d="M137.771 126.873L126.565 118.784L115.359 126.873V133.686H137.771V126.873Z" fill="white"/>
<path d="M137.771 133.687H115.359V153.687H137.771V133.687Z" fill="white"/>
<path d="M139.15 130.942L126.565 122.018L113.829 130.942L113 127.803L126.565 118L140.13 127.803L139.15 130.942Z" fill="white"/>
<path d="M139.196 130.549L126.564 121.582L113.932 130.549L113.393 127.741L126.564 118.392L139.736 127.741L139.196 130.549Z" fill="white"/>
<path opacity="0.2" d="M139.196 130.549L126.564 121.582L113.932 130.549L113.393 127.741L126.564 118.392L139.736 127.741L139.196 130.549Z" fill="white"/>
<path d="M133.053 138H120.078V153.687H133.053V138Z" fill="white"/>
<path d="M133.053 141.922H120.078V144.667H133.053V141.922Z" fill="#FDCA05"/>
<path d="M133.053 147.413H120.078V149.766H133.053V147.413Z" fill="#032B4D"/>
<path d="M133.053 136.824H120.078V139.177H133.053V136.824Z" fill="#032B4D"/>
</g>
<path d="M698.469 319.083L682.172 330.535V340.185V368.39H714.767V340.185V330.535L698.469 319.083Z" fill="url(#paint2_linear)"/>
<path d="M714.223 330.258L698.74 319.083L683.258 330.258V339.673H714.223V330.258Z" fill="white"/>
<path opacity="0.5" d="M714.223 330.258L698.74 319.083L683.258 330.258V339.673H714.223V330.258Z" fill="white"/>
<path d="M714.225 339.673H683.26V367.307H714.225V339.673Z" fill="white"/>
<path d="M716.13 335.881L698.742 323.552L681.145 335.881L680 331.545L698.742 318L717.484 331.545L716.13 335.881Z" fill="white"/>
<path d="M716.193 335.339L698.739 322.949L681.287 335.339L680.541 331.459L698.739 318.542L716.938 331.459L716.193 335.339Z" fill="white"/>
<path opacity="0.2" d="M716.193 335.339L698.739 322.949L681.287 335.339L680.541 331.459L698.739 318.542L716.938 331.459L716.193 335.339Z" fill="white"/>
<path d="M707.704 345.634H689.777V367.307H707.704V345.634Z" fill="white"/>
<path d="M707.704 351.052H689.777V354.845H707.704V351.052Z" fill="#FDCA05"/>
<path d="M707.704 358.638H689.777V361.889H707.704V358.638Z" fill="#032B4D"/>
<path d="M707.704 344.008H689.777V347.259H707.704V344.008Z" fill="#032B4D"/>
<path d="M737.42 319.083L721.123 330.535V340.185V368.39H753.718V340.185V330.535L737.42 319.083Z" fill="url(#paint3_linear)"/>
<path d="M753.174 330.258L737.691 319.083L722.209 330.258V339.673H753.174V330.258Z" fill="white"/>
<path opacity="0.5" d="M753.174 330.258L737.691 319.083L722.209 330.258V339.673H753.174V330.258Z" fill="white"/>
<path d="M753.176 339.673H722.211V367.307H753.176V339.673Z" fill="white"/>
<path d="M755.082 335.881L737.693 323.552L720.097 335.881L718.951 331.545L737.693 318L756.435 331.545L755.082 335.881Z" fill="white"/>
<path d="M755.144 335.339L737.69 322.949L720.238 335.339L719.492 331.459L737.69 318.542L755.89 331.459L755.144 335.339Z" fill="white"/>
<path opacity="0.2" d="M755.144 335.339L737.69 322.949L720.238 335.339L719.492 331.459L737.69 318.542L755.89 331.459L755.144 335.339Z" fill="white"/>
<path d="M746.656 345.634H728.729V367.307H746.656V345.634Z" fill="white"/>
<path d="M746.656 351.052H728.729V354.845H746.656V351.052Z" fill="#FDCA05"/>
<path d="M746.656 358.638H728.729V361.889H746.656V358.638Z" fill="#032B4D"/>
<path d="M746.656 344.008H728.729V347.259H746.656V344.008Z" fill="#032B4D"/>
<g filter="url(#filter1_d)">
<path d="M718.449 340.291L709.072 346.88V352.432V368.659H727.825V352.432V346.88L718.449 340.291Z" fill="url(#paint4_linear)"/>
<path d="M727.513 346.721L718.605 340.292L709.697 346.721V352.138H727.513V346.721Z" fill="white"/>
<path opacity="0.5" d="M727.513 346.721L718.605 340.292L709.697 346.721V352.138H727.513V346.721Z" fill="white"/>
<path d="M727.513 352.138H709.697V368.037H727.513V352.138Z" fill="white"/>
<path d="M728.609 349.955L718.605 342.862L708.481 349.955L707.822 347.461L718.605 339.668L729.388 347.461L728.609 349.955Z" fill="white"/>
<path d="M728.647 349.643L718.605 342.515L708.564 349.643L708.135 347.411L718.605 339.979L729.076 347.411L728.647 349.643Z" fill="white"/>
<path opacity="0.2" d="M728.647 349.643L718.605 342.515L708.564 349.643L708.135 347.411L718.605 339.979L729.076 347.411L728.647 349.643Z" fill="white"/>
<path d="M723.763 355.567H713.449V368.037H723.763V355.567Z" fill="white"/>
<path d="M723.763 358.684H713.449V360.866H723.763V358.684Z" fill="#FDCA05"/>
<path d="M723.763 363.049H713.449V364.919H723.763V363.049Z" fill="#032B4D"/>
<path d="M723.763 354.631H713.449V356.502H723.763V354.631Z" fill="#032B4D"/>
</g>
<defs>
<filter id="filter0_d" x="98" y="103" width="57.1297" height="66.4709" filterUnits="userSpaceOnUse" color-interpolation-filters="sRGB">
<feFlood flood-opacity="0" result="BackgroundImageFix"/>
<feColorMatrix in="SourceAlpha" type="matrix" values="0 0 0 0 0 0 0 0 0 0 0 0 0 0 0 0 0 0 127 0"/>
<feOffset/>
<feGaussianBlur stdDeviation="7.5"/>
<feColorMatrix type="matrix" values="0 0 0 0 0 0 0 0 0 0 0 0 0 0 0 0 0 0 1 0"/>
<feBlend mode="normal" in2="BackgroundImageFix" result="effect1_dropShadow"/>
<feBlend mode="normal" in="SourceGraphic" in2="effect1_dropShadow" result="shape"/>
</filter>
<filter id="filter1_d" x="692.822" y="324.668" width="51.566" height="58.9915" filterUnits="userSpaceOnUse" color-interpolation-filters="sRGB">
<feFlood flood-opacity="0" result="BackgroundImageFix"/>
<feColorMatrix in="SourceAlpha" type="matrix" values="0 0 0 0 0 0 0 0 0 0 0 0 0 0 0 0 0 0 127 0"/>
<feOffset/>
<feGaussianBlur stdDeviation="7.5"/>
<feColorMatrix type="matrix" values="0 0 0 0 0 0 0 0 0 0 0 0 0 0 0 0 0 0 1 0"/>
<feBlend mode="normal" in2="BackgroundImageFix" result="effect1_dropShadow"/>
<feBlend mode="normal" in="SourceGraphic" in2="effect1_dropShadow" result="shape"/>
</filter>
<linearGradient id="paint0_linear" x1="10350.3" y1="30259.5" x2="10350.3" y2="920.196" gradientUnits="userSpaceOnUse">
<stop stop-color="#808080" stop-opacity="0.25"/>
<stop offset="0.54" stop-color="#808080" stop-opacity="0.12"/>
<stop offset="1" stop-color="#808080" stop-opacity="0.1"/>
</linearGradient>
<linearGradient id="paint1_linear" x1="5994.88" y1="17474.5" x2="5994.88" y2="594.493" gradientUnits="userSpaceOnUse">
<stop stop-color="#808080" stop-opacity="0.25"/>
<stop offset="0.54" stop-color="#808080" stop-opacity="0.12"/>
<stop offset="1" stop-color="#808080" stop-opacity="0.1"/>
</linearGradient>
<linearGradient id="paint2_linear" x1="8806.73" y1="24298.8" x2="8806.73" y2="976.35" gradientUnits="userSpaceOnUse">
<stop stop-color="#808080" stop-opacity="0.25"/>
<stop offset="0.54" stop-color="#808080" stop-opacity="0.12"/>
<stop offset="1" stop-color="#808080" stop-opacity="0.1"/>
</linearGradient>
<linearGradient id="paint3_linear" x1="8845.69" y1="24298.8" x2="8845.69" y2="976.35" gradientUnits="userSpaceOnUse">
<stop stop-color="#808080" stop-opacity="0.25"/>
<stop offset="0.54" stop-color="#808080" stop-opacity="0.12"/>
<stop offset="1" stop-color="#808080" stop-opacity="0.1"/>
</linearGradient>
<linearGradient id="paint4_linear" x1="5383.45" y1="14136.7" x2="5383.45" y2="718.443" gradientUnits="userSpaceOnUse">
<stop stop-color="#808080" stop-opacity="0.25"/>
<stop offset="0.54" stop-color="#808080" stop-opacity="0.12"/>
<stop offset="1" stop-color="#808080" stop-opacity="0.1"/>
</linearGradient>
</defs>
</svg>
