<svg width="487" height="316" viewBox="0 0 487 316" fill="none" xmlns="http://www.w3.org/2000/svg">
<path d="M255.114 0V315.013H0C26.5883 298.181 48.5194 274.938 63.7785 247.419C96.341 188.08 111.4 113.507 126.281 113.507L128.195 111.381V107.343L130.321 106.28V100.966L128.195 98.8402L128.407 96.7147L127.344 95.2267H184.036L192.115 111.169H209.831V57.2494H207.351L196.119 20.4058H212.064V4.60552L213.162 3.5072V1.59424L255.114 0Z" fill="black"/>
<path d="M216 0V315.013H471.114C444.526 298.181 422.595 274.938 407.336 247.419C374.773 188.08 359.714 113.507 344.833 113.507L342.919 111.381V107.343L340.793 106.28V100.966L342.919 98.8402L342.707 96.7147L343.77 95.2267H287.078L278.999 111.169H261.283V57.2494H263.621L274.995 20.4766H259.05V4.67634L257.952 3.57812V1.66505L216 0Z" fill="black"/>
<path d="M487 315V255H360L361.87 315H487Z" fill="black"/>
<path d="M437 255V195H310L311.87 255H437Z" fill="black"/>
<path d="M157 255V195H30L31.8697 255H157Z" fill="black"/>
<path d="M395 195V135H268L269.87 195H395Z" fill="black"/>
<path d="M156 315V135H29L30.8697 315H156Z" fill="black"/>
<path d="M437 315V135H310L311.87 315H437Z" fill="black"/>
<path d="M128 315V255H1L2.86972 315H128Z" fill="black"/>
</svg>
