<svg width="60" height="52" viewBox="0 0 60 52" fill="none" xmlns="http://www.w3.org/2000/svg">
<path opacity="0.2" d="M59.5358 20.7127C59.5246 20.7921 59.514 20.8715 59.5016 20.95C59.1145 23.6486 58.4819 26.2491 57.5413 28.6373C57.51 28.7167 57.4787 28.7961 57.4469 28.8755C56.8266 30.412 56.0845 31.8282 55.237 33.0925C54.7684 33.7919 54.2574 34.4565 53.6496 34.9356C52.7981 35.6082 51.8026 35.8812 50.8242 36.1042C49.8081 36.3371 48.7778 36.5315 47.7504 36.7412C47.3854 36.8143 47.0225 36.8919 46.6617 36.974C45.6692 37.1962 44.6837 37.4531 43.7219 37.7939C42.5328 38.214 41.3804 38.7645 40.2916 39.5388C40.2047 39.5983 40.1187 39.6613 40.0338 39.7279C39.9488 39.7922 39.8632 39.8573 39.7794 39.9233C39.6956 39.9893 39.613 40.0554 39.531 40.1232C39.4885 40.1579 39.446 40.1927 39.4041 40.2293C39.3622 40.2659 39.3209 40.298 39.2802 40.3337C39.1575 40.4372 39.0371 40.5433 38.9167 40.6504L38.912 40.6548C38.8323 40.7253 38.7539 40.7976 38.676 40.8698C38.231 41.2784 37.7955 41.7049 37.3601 42.134L37.0862 42.4016L36.662 42.8164C36.5794 42.8976 36.495 42.9788 36.4118 43.0591C36.3528 43.118 36.2937 43.1768 36.2294 43.2375C35.9202 43.5319 35.6069 43.8209 35.2853 44.0966C35.2092 44.1626 35.1324 44.2286 35.0551 44.2929C34.4054 44.8409 33.7259 45.3041 33.024 45.6774L33.0146 45.6827C32.6615 45.869 32.3013 46.0227 31.9359 46.1431C31.7252 46.2127 31.514 46.2698 31.3004 46.3135C30.7293 46.4359 30.1504 46.4482 29.5773 46.35C28.452 46.1529 27.3975 45.4999 26.2728 45.2795C23.9572 44.8335 21.7084 46.2706 19.5309 47.3965C18.9955 47.673 18.4562 47.932 17.9129 48.1735C17.5518 48.335 17.1894 48.4875 16.8242 48.6347C14.5863 49.5286 12.3023 50.1341 9.99678 50.4448C9.03301 50.5876 8.06348 50.6201 7.09646 50.5421C6.72883 50.5082 6.36534 50.4528 6.00833 50.3636C4.78683 50.0782 3.64795 49.4796 2.72859 48.3832C1.97562 47.483 1.43687 46.3099 1.02675 45.0824C0.606932 43.8298 0.31052 42.4912 0.146921 41.1089C0.124498 40.9207 0.104435 40.7316 0.087912 40.5424C0.0584072 40.2189 0.0363769 39.8936 0.0218212 39.5665C-0.0575771 37.823 0.0801344 36.0724 0.427806 34.4056C0.817269 32.5394 1.46637 30.748 1.75198 28.8675C1.76378 28.7878 1.77499 28.7084 1.78561 28.6293C1.82462 28.3436 1.85358 28.0551 1.87236 27.7648C2.01811 25.4543 1.45929 23.2017 1.02085 20.942C1.00551 20.8635 0.990166 20.7841 0.975414 20.7047C0.928206 20.4537 0.882966 20.203 0.839692 19.9526C0.433707 17.5636 0.320999 15.0059 0.682727 12.6213C0.693939 12.5419 0.707511 12.4625 0.720493 12.384C0.962657 10.8767 1.41804 9.46661 2.05529 8.2509C2.73272 6.96626 3.62199 5.89663 4.57204 4.95724C5.03507 4.4993 5.51383 4.07138 6.00833 3.6735C6.36239 3.38803 6.7251 3.11772 7.09646 2.86258C10.0735 0.810737 13.4695 -0.191098 16.8277 0.0301446C17.0047 0.041742 17.1818 0.0560156 17.3588 0.0756419C17.5358 0.0952682 17.7294 0.118463 17.9147 0.144334C20.078 0.461924 22.1828 1.22824 24.2729 2.06593C24.9734 2.34694 25.6726 2.63509 26.3713 2.91789C26.6823 3.04279 26.9927 3.16768 27.3037 3.28901C28.8267 3.88404 30.3721 4.42287 31.9371 4.82521C32.2994 4.91977 32.6621 5.00601 33.0252 5.08392C34.2859 5.36403 35.5568 5.527 36.8307 5.5719C37.326 5.58677 37.8215 5.58023 38.3172 5.55228C38.5674 5.5386 38.8178 5.51808 39.0684 5.49072C41.6559 5.21506 44.1568 4.29262 46.6617 3.43085C47.024 3.30596 47.3869 3.18285 47.7504 3.06152C48.2272 2.90272 48.704 2.74928 49.1832 2.60744C52.1649 1.72158 54.8227 2.23097 57.595 4.05889C58.2252 4.47372 58.8548 4.97509 59.2408 5.75389C59.6267 6.5327 59.7235 7.48904 59.7954 8.41237C59.8975 9.72733 59.9642 11.0592 59.9896 12.3983C59.9896 12.4768 59.9896 12.5562 59.9931 12.6356C60.0332 15.3405 59.8999 18.0712 59.5358 20.7127Z" fill="#FDCA05"/>
<path d="M43.3713 37.3193C43.3713 37.3193 49.1418 37.6551 47.7977 39.6995C46.4536 41.7439 42.9219 38.5002 42.9219 38.5002L43.3713 37.3193Z" fill="#FFB8B8"/>
<path d="M32.7386 17.8477L33.9132 18.1781C33.9132 18.1781 34.5984 20.4914 35.0878 22.5844C35.5772 24.6773 36.556 30.9562 36.556 30.9562L44.1443 36.9413L43.2393 39.2199L33.1302 34.7361L30.8789 24.7875L32.7386 17.8477Z" fill="#575A89"/>
<path opacity="0.2" d="M33.8408 21.9536L33.4031 32.2708L34.3166 35.3382L31.6406 33.1298L33.8408 21.9536Z" fill="black"/>
<path d="M35.4304 40.2641C35.4304 40.2641 36.7029 44.1195 36.8986 46.7633C37.0944 49.407 37.2901 51.5 37.2901 51.5H31.3194L30.1449 49.5172V51.5H23.1954C23.1954 51.5 21.2378 44.3398 22.0208 43.4586C22.8039 42.5773 30.2428 38.832 30.2428 38.832L35.4304 40.2641Z" fill="#2F2E41"/>
<path d="M27.9382 13.6614C29.9924 13.6614 31.6576 11.7873 31.6576 9.47548C31.6576 7.16365 29.9924 5.28955 27.9382 5.28955C25.884 5.28955 24.2188 7.16365 24.2188 9.47548C24.2188 11.7873 25.884 13.6614 27.9382 13.6614Z" fill="#FFB8B8"/>
<path d="M25.1022 11.2373L24.8086 16.0842L28.528 21.7021L30.3878 16.4146C30.3878 16.4146 28.7238 15.2029 29.7026 12.6693L25.1022 11.2373Z" fill="#FFB8B8"/>
<path d="M35.9683 41.2001C35.9683 42.1919 33.5213 43.7339 33.5213 43.7339V44.2846L32.5425 44.8354L30.3893 39.9888L29.8024 45.2758C29.8024 45.2758 25.4953 46.0474 24.1252 45.2758C22.7546 44.5048 22.0695 44.8354 20.1119 44.0645C18.1543 43.2935 20.8951 32.9385 20.8951 32.9385L18.9375 16.9659L23.2142 14.5594L23.4396 14.4322L24.0277 14.3104L24.9292 14.123L27.9423 16.4152L28.1849 17.8473L28.3342 18.7287L29.1168 17.7369L29.7078 15.5492L33.9132 18.1779L32.7388 28.7524C32.7388 28.7524 35.9683 40.209 35.9683 41.2001Z" fill="#575A89"/>
<path d="M21.5765 44.6152C21.5765 44.6152 26.0789 48.691 23.9256 49.4621C21.7722 50.2332 20.5977 45.2762 20.5977 45.2762L21.5765 44.6152Z" fill="#FFB8B8"/>
<path d="M19.9152 17.1861L18.9364 16.9658C18.9364 16.9658 17.4682 17.8471 17.3703 19.6096C17.2724 21.3721 16 33.7095 16 33.7095L20.111 46.1571L23.4389 44.7251L20.2089 33.0486L22.6559 22.9142L19.9152 17.1861Z" fill="#575A89"/>
<path d="M28.3724 20.5477C28.5695 20.5477 28.7292 20.3679 28.7292 20.1462C28.7292 19.9244 28.5695 19.7446 28.3724 19.7446C28.1754 19.7446 28.0156 19.9244 28.0156 20.1462C28.0156 20.3679 28.1754 20.5477 28.3724 20.5477Z" fill="#2F2E41"/>
<path d="M28.3724 23.1585C28.5695 23.1585 28.7292 22.9788 28.7292 22.757C28.7292 22.5352 28.5695 22.3555 28.3724 22.3555C28.1754 22.3555 28.0156 22.5352 28.0156 22.757C28.0156 22.9788 28.1754 23.1585 28.3724 23.1585Z" fill="#2F2E41"/>
<path d="M30.3919 40.3568C30.589 40.3568 30.7487 40.177 30.7487 39.9552C30.7487 39.7335 30.589 39.5537 30.3919 39.5537C30.1949 39.5537 30.0352 39.7335 30.0352 39.9552C30.0352 40.177 30.1949 40.3568 30.3919 40.3568Z" fill="#2F2E41"/>
<path d="M24.7977 5.18699L24.1101 4.87721C24.1101 4.87721 25.5477 3.09596 27.5479 3.25086L26.9854 2.55384C26.9854 2.55384 28.3605 1.93429 29.6106 3.56063C30.2678 4.41557 31.0281 5.4205 31.5021 6.55254H32.2384L31.9311 7.31409L33.0067 8.07563L31.9027 7.93884C31.9685 8.35587 31.9786 8.78162 31.9327 9.202C31.8853 9.62251 31.6946 10.0059 31.4009 10.2712V10.2712C31.4009 10.2712 30.5482 8.2848 30.5482 7.97501V8.74947C30.5482 8.74947 29.8606 8.05246 29.8606 7.58779L29.4856 8.12991H26.9854L27.3604 7.43291L25.9228 7.66524L26.4853 6.81334L24.2595 10.3311C24.2595 10.3311 22.985 6.34866 24.7977 5.18699Z" fill="#2F2E41"/>
</svg>
