<svg width="1183" height="721" viewBox="0 0 1183 721" fill="none" xmlns="http://www.w3.org/2000/svg">
<path d="M142.957 721L140.927 720.543C163.563 619.899 220.449 528.505 301.106 463.197C362.086 413.899 434.612 380.928 511.855 367.389C589.098 353.849 668.517 360.188 742.634 385.806C816.751 411.425 883.127 455.481 935.512 513.827C987.898 572.173 1024.57 642.888 1042.07 719.315L1040.04 719.776C992.128 509.431 807.737 362.523 591.639 362.523C378.373 362.523 189.675 513.284 142.957 721Z" fill="#3F3D56"/>
<path d="M434.01 128.697C465.221 128.697 490.522 103.4 490.522 72.1959C490.522 40.9915 465.221 15.6953 434.01 15.6953C402.799 15.6953 377.497 40.9915 377.497 72.1959C377.497 103.4 402.799 128.697 434.01 128.697Z" fill="#FF4568"/>
<path d="M190.539 708.165C192.302 714.678 198.338 718.713 198.338 718.713C198.338 718.713 201.518 712.186 199.755 705.672C197.993 699.158 191.956 695.124 191.956 695.124C191.956 695.124 188.777 701.651 190.539 708.165Z" fill="#3F3D56"/>
<path d="M193.13 706.765C197.966 711.472 198.557 718.707 198.557 718.707C198.557 718.707 191.306 718.312 186.47 713.605C181.634 708.898 181.043 701.662 181.043 701.662C181.043 701.662 188.293 702.058 193.13 706.765Z" fill="#6C63FF"/>
<path d="M324.759 708.165C326.521 714.678 332.558 718.713 332.558 718.713C332.558 718.713 335.738 712.186 333.975 705.672C332.213 699.158 326.176 695.124 326.176 695.124C326.176 695.124 322.996 701.651 324.759 708.165Z" fill="#3F3D56"/>
<path d="M327.348 706.765C332.185 711.472 332.775 718.707 332.775 718.707C332.775 718.707 325.525 718.312 320.689 713.605C315.852 708.898 315.262 701.662 315.262 701.662C315.262 701.662 322.512 702.058 327.348 706.765Z" fill="#6C63FF"/>
<path d="M351.373 189.31L330.123 172.313L449.124 66.085H750.877V159.566L555.375 291.289L351.373 189.31Z" fill="#032B4D"/>
<path d="M805.892 125.673V68.207H765.828V82.2804L750.876 66.085L653.125 172.313L614.875 197.808L555.566 631.028L645.01 720.452H852.877V176.562L805.892 125.673Z" fill="#CCCCCC"/>
<path d="M653.126 172.313H330.123V720.452H653.126V172.313Z" fill="#F2F2F2"/>
<path d="M515 586.604H455.499V720.452H515V586.604Z" fill="#032B4D"/>
<path d="M391.748 624.846V603.601H366.248V624.846H389.623H391.748Z" fill="#FDCA05"/>
<path d="M389.623 641.843H366.248V663.089H391.748V641.843H389.623Z" fill="#3F3D56"/>
<path d="M434.248 603.601H408.748V624.846H434.248V603.601Z" fill="#3F3D56"/>
<path d="M434.248 641.843H408.748V663.088H434.248V641.843Z" fill="#FDCA05"/>
<path d="M566 624.846V603.601H540.5V624.846H563.875H566Z" fill="#3F3D56"/>
<path d="M563.875 641.843H540.5V663.089H566V641.843H563.875Z" fill="#3F3D56"/>
<path d="M608.5 603.601H583V624.846H608.5V603.601Z" fill="#FDCA05"/>
<path d="M608.5 641.843H583V663.088H608.5V641.843Z" fill="#FDCA05"/>
<path d="M744.501 199.932V178.688H719.001V199.932H742.377H744.501Z" fill="#3F3D56"/>
<path d="M742.377 216.93H719.001V238.174H744.501V216.93H742.377Z" fill="#3F3D56"/>
<path d="M787.002 178.688H761.502V199.933H787.002V178.688Z" fill="#3F3D56"/>
<path d="M787.002 216.93H761.502V238.175H787.002V216.93Z" fill="#3F3D56"/>
<path d="M744.501 318.908V297.662H719.001V318.908H742.377H744.501Z" fill="#3F3D56"/>
<path d="M742.377 335.904H719.001V357.15H744.501V335.904H742.377Z" fill="#3F3D56"/>
<path d="M787.002 297.663H761.502V318.909H787.002V297.663Z" fill="#3F3D56"/>
<path d="M787.002 335.905H761.502V357.151H787.002V335.905Z" fill="#3F3D56"/>
<path d="M744.501 437.884V416.639H719.001V437.884H742.377H744.501Z" fill="#3F3D56"/>
<path d="M742.377 454.881H719.001V476.127H744.501V454.881H742.377Z" fill="#3F3D56"/>
<path d="M787.002 416.639H761.502V437.884H787.002V416.639Z" fill="#3F3D56"/>
<path d="M787.002 454.881H761.502V476.127H787.002V454.881Z" fill="#3F3D56"/>
<path d="M744.501 556.86V535.614H719.001V556.86H742.377H744.501Z" fill="#3F3D56"/>
<path d="M742.377 573.856H719.001V595.102H744.501V573.856H742.377Z" fill="#3F3D56"/>
<path d="M787.002 535.614H761.502V556.86H787.002V535.614Z" fill="#3F3D56"/>
<path d="M787.002 573.856H761.502V595.102H787.002V573.856Z" fill="#3F3D56"/>
<path d="M612.502 234.933H366V284.933H612.502V234.933Z" fill="#032B4D"/>
<path d="M612.502 315.933H366V365.933H612.502V315.933Z" fill="#032B4D"/>
<path d="M612.502 396.933H366V446.933H612.502V396.933Z" fill="#032B4D"/>
<path d="M612.502 477.933H366V527.933H612.502V477.933Z" fill="#032B4D"/>
<path d="M1183 718.313H0V720.394H1183V718.313Z" fill="#3F3D56"/>
<path d="M204.221 478.107H198.108V719.498H204.221V478.107Z" fill="#3F3D56"/>
<path d="M260.632 508.87C261.021 593.278 201.622 661.98 201.622 661.98C201.622 661.98 141.593 593.829 141.204 509.42C140.815 425.012 200.213 356.311 200.213 356.311C200.213 356.311 260.242 424.462 260.632 508.87Z" fill="#032B4D"/>
<path opacity="0.1" d="M260.632 508.87C261.021 593.278 201.622 661.98 201.622 661.98C201.622 661.98 141.593 593.829 141.204 509.42C140.815 425.012 200.213 356.311 200.213 356.311C200.213 356.311 260.242 424.462 260.632 508.87Z" fill="#032B4D"/>
<path d="M154.759 478.107H148.646V719.498H154.759V478.107Z" fill="#3F3D56"/>
<path d="M211.17 508.87C211.559 593.278 152.16 661.98 152.16 661.98C152.16 661.98 92.1312 593.829 91.7421 509.42C91.3531 425.012 150.751 356.311 150.751 356.311C150.751 356.311 210.78 424.462 211.17 508.87Z" fill="#FF4568"/>
<path d="M983.809 171.972C935.66 172.194 896.469 172.905 896.469 172.905C896.469 172.905 943.054 111.212 983.634 134.069C1024.21 156.926 1070.83 172.102 1070.83 172.102C1070.83 172.102 1031.96 171.75 983.809 171.972Z" fill="#F2F2F2"/>
<path d="M181.617 290.559C133.468 290.781 94.2764 291.492 94.2764 291.492C94.2764 291.492 140.861 229.799 181.442 252.656C222.022 275.513 268.639 290.689 268.639 290.689C268.639 290.689 229.766 290.337 181.617 290.559Z" fill="#F2F2F2"/>
<path d="M315.34 65.9829C267.191 66.2048 228 66.916 228 66.916C228 66.916 274.585 5.22241 315.166 28.0794C355.746 50.9365 402.363 66.1126 402.363 66.1126C402.363 66.1126 363.489 65.761 315.34 65.9829Z" fill="#F2F2F2"/>
<path d="M1083.02 478.107H1076.91V719.498H1083.02V478.107Z" fill="#3F3D56"/>
<path d="M1139.43 508.87C1139.82 593.278 1080.42 661.98 1080.42 661.98C1080.42 661.98 1020.39 593.829 1020 509.42C1019.61 425.012 1079.01 356.311 1079.01 356.311C1079.01 356.311 1139.04 424.462 1139.43 508.87Z" fill="#FF4568"/>
<path d="M858.334 568.091H920.845V553H955.334V568.091H1020V634.922H955.334V719H920.845V634.922H858.334L826 598.272L858.334 568.091Z" fill="#3F3D56"/>
<path d="M930.85 594.2C930.85 596.233 930.383 598.1 929.45 599.8C928.517 601.467 927.083 602.817 925.15 603.85C923.217 604.883 920.817 605.4 917.95 605.4H912.65V618H904.1V582.9H917.95C920.75 582.9 923.117 583.383 925.05 584.35C926.983 585.317 928.433 586.65 929.4 588.35C930.367 590.05 930.85 592 930.85 594.2ZM917.3 598.6C918.933 598.6 920.15 598.217 920.95 597.45C921.75 596.683 922.15 595.6 922.15 594.2C922.15 592.8 921.75 591.717 920.95 590.95C920.15 590.183 918.933 589.8 917.3 589.8H912.65V598.6H917.3ZM958.601 594C957.968 592.833 957.051 591.95 955.851 591.35C954.685 590.717 953.301 590.4 951.701 590.4C948.935 590.4 946.718 591.317 945.051 593.15C943.385 594.95 942.551 597.367 942.551 600.4C942.551 603.633 943.418 606.167 945.151 608C946.918 609.8 949.335 610.7 952.401 610.7C954.501 610.7 956.268 610.167 957.701 609.1C959.168 608.033 960.235 606.5 960.901 604.5H950.051V598.2H968.651V606.15C968.018 608.283 966.935 610.267 965.401 612.1C963.901 613.933 961.985 615.417 959.651 616.55C957.318 617.683 954.685 618.25 951.751 618.25C948.285 618.25 945.185 617.5 942.451 616C939.751 614.467 937.635 612.35 936.101 609.65C934.601 606.95 933.851 603.867 933.851 600.4C933.851 596.933 934.601 593.85 936.101 591.15C937.635 588.417 939.751 586.3 942.451 584.8C945.151 583.267 948.235 582.5 951.701 582.5C955.901 582.5 959.435 583.517 962.301 585.55C965.201 587.583 967.118 590.4 968.051 594H958.601Z" fill="white"/>
</svg>
