<svg width="80" height="80" viewBox="0 0 80 80" fill="none" xmlns="http://www.w3.org/2000/svg">
<g clip-path="url(#clip0)">
<path d="M1.60952 54.3781C1.1426 52.3151 0.899075 50.1679 0.907009 47.9615C0.963772 31.9593 13.9832 19.2493 29.9823 19.5618C45.5634 19.8657 58.0811 32.6691 57.923 48.3594C57.768 63.7159 45.2948 76.2928 29.9402 76.5693C25.459 76.6498 21.2085 75.6959 17.4115 73.9307C15.1398 72.8742 12.5098 73.0335 10.3034 74.22C8.04019 75.4377 5.49441 76.0407 3.34353 76.3343C1.18838 76.6279 -0.541965 74.563 0.154446 72.5025C3.25686 63.3252 1.60952 54.3787 1.60952 54.3781Z" fill="#032B4D"/>
<path d="M29.9845 19.5618C22.5369 19.416 15.7358 22.0917 10.5862 26.6089C9.79156 35.8906 10.95 51.0981 24.7995 59.7077C28.3988 61.9447 30.9744 65.5299 31.7734 69.6913C32.15 71.6554 32.2775 73.932 31.9034 76.4662C46.3449 75.2076 57.7768 63.0561 57.9252 48.3595C58.0832 32.6691 45.5655 19.8658 29.9845 19.5618V19.5618Z" fill="#2B6FA9"/>
<path d="M78.3882 38.1038C78.8552 36.0408 79.0993 33.8929 79.0914 31.6871C79.034 15.6849 66.0146 2.97498 50.0154 3.28687C34.4344 3.59082 21.9166 16.3948 22.0747 32.0851C22.2298 47.4409 34.7029 60.0184 50.0575 60.2949C54.5387 60.3755 58.7892 59.4215 62.5862 57.6558C64.858 56.5999 67.488 56.7592 69.6944 57.9457C71.9582 59.1633 74.5033 59.7664 76.6548 60.0599C78.8094 60.3535 80.5397 58.2887 79.8433 56.2281C76.7415 47.0509 78.3882 38.1038 78.3882 38.1038V38.1038Z" fill="#FF4568"/>
<path d="M41.9397 23.9116H38.1372C36.3184 23.9116 34.8438 25.3856 34.8438 27.2045V31.7528C34.8438 33.5717 36.3184 35.0463 38.1372 35.0463C38.1372 35.0463 40.8105 35.0304 42.027 37.509C42.4597 38.3916 42.8375 39.4982 42.9889 40.7872C43.1873 42.481 45.4175 42.9467 46.2854 41.4788C47.9559 38.6528 49.1907 34.287 47.497 28.1249C46.8109 25.6304 44.5264 23.9116 41.9397 23.9116V23.9116Z" fill="#FDCA05"/>
<path d="M59.9553 23.9116H56.1528C54.334 23.9116 52.8594 25.3856 52.8594 27.2045V31.7528C52.8594 33.5717 54.334 35.0463 56.1528 35.0463C56.1528 35.0463 58.8262 35.0304 60.0426 37.509C60.4753 38.3916 60.8531 39.4982 61.0045 40.7872C61.2029 42.481 63.4331 42.9467 64.301 41.4788C65.9715 38.6528 67.2063 34.287 65.5125 28.1249C64.8265 25.6304 62.542 23.9116 59.9553 23.9116V23.9116Z" fill="#FDCA05"/>
</g>
<defs>
<clipPath id="clip0">
<rect width="80" height="80" fill="white"/>
</clipPath>
</defs>
</svg>
