<svg width="86" height="67" viewBox="0 0 86 67" fill="none" xmlns="http://www.w3.org/2000/svg">
<path d="M83.2679 64.9482L85.5001 61.7075L83.2682 65.2997L83.2684 65.6674C83.1083 65.6667 82.9497 65.6621 82.7928 65.6536L82.9582 60.9294L82.9557 60.8929L82.9598 60.8859L82.9755 60.4395L80.6157 56.9176L82.9767 60.1053L82.9841 60.1997L83.109 56.6304L81.0779 52.984L83.1224 56.0033L83.1893 48.6062L83.1896 48.5815L83.19 48.6058L83.2579 54.4371L85.1768 52.0918L83.2581 54.9394L83.2611 58.1335L85.0381 55.0376L83.2619 58.6031L83.2636 60.3791L85.8456 56.0679L83.2638 60.9987L83.2679 64.9482Z" fill="#D0CDE1"/>
<path d="M16.236 64.0027L22.6673 54.7816L16.231 65.007L16.2253 66.0575C15.7679 66.0528 15.3151 66.0371 14.867 66.0103L15.4181 52.5161L15.4114 52.4118L15.4232 52.3919L15.4757 51.1168L8.79242 41.0154L15.4846 50.1619L15.5041 50.432L15.9205 40.2366L10.1786 29.785L15.9692 38.4452L16.2835 17.3132L16.2849 17.2429L16.2857 17.3121L16.3825 33.9731L21.9038 27.3047L16.3746 35.4081L16.33 44.5335L21.4585 35.7183L16.3244 45.8751L16.2997 50.9492L23.7482 38.6753L16.2902 52.7194L16.236 64.0027Z" fill="#575A89"/>
<path d="M66.6921 62.2364C66.6961 61.7039 66.5862 61.1767 66.3697 60.6903C65.9155 61.0169 65.5411 61.4424 65.2748 61.9348C65.0085 61.4424 64.6341 61.0169 64.1799 60.6903C63.9634 61.1767 63.8535 61.7039 63.8575 62.2365C63.3993 61.98 62.8922 61.8234 62.3694 61.777C62.3694 61.777 62.4674 62.9797 63.2697 63.7621C63.9831 64.4578 65.013 64.5869 65.2326 64.607L65.2387 64.6112L65.2404 64.6077C65.2627 64.6096 65.2748 64.6103 65.2748 64.6103C65.2748 64.6103 65.2729 64.5875 65.2677 64.5465C65.2699 64.5412 65.2723 64.5356 65.2748 64.5297C65.2773 64.5356 65.2797 64.5412 65.2819 64.5465C65.2767 64.5875 65.2748 64.6103 65.2748 64.6103C65.2748 64.6103 65.2869 64.6096 65.3092 64.6077L65.3109 64.6112L65.317 64.607C65.5366 64.5869 66.5665 64.4578 67.2799 63.7621C68.0822 62.9797 68.1802 61.777 68.1802 61.777C67.6574 61.8234 67.1503 61.98 66.6921 62.2364Z" fill="#6C63FF"/>
<path d="M67.6428 5.4422L67.6474 5.44141L66.9703 1.47573L63.2259 2.66736L63.7861 6.21436C63.5932 6.09215 63.3632 6.04265 63.1371 6.07469C62.9111 6.10673 62.7038 6.21824 62.5523 6.38928C62.4008 6.56032 62.3149 6.77976 62.31 7.00838C62.3051 7.237 62.3816 7.45992 62.5256 7.6373C62.6697 7.81468 62.8721 7.93497 63.0965 7.97667C63.321 8.01837 63.5529 7.97877 63.7509 7.86494C63.9489 7.75112 64.1 7.57048 64.1773 7.35531C64.2546 7.14013 64.253 6.90444 64.1727 6.69035L64.1762 6.6898L63.5749 2.88325L66.7239 1.8811L67.2592 5.01598C67.0616 4.89892 66.8287 4.85664 66.6027 4.89679C66.3767 4.93695 66.1725 5.05689 66.0272 5.23487C65.8819 5.41285 65.805 5.6371 65.8105 5.86698C65.8161 6.09685 65.9036 6.31714 66.0573 6.48791C66.211 6.65869 66.4207 6.76865 66.6484 6.79786C66.8761 6.82708 67.1067 6.77362 67.2984 6.64718C67.4901 6.52073 67.6303 6.32967 67.6935 6.10861C67.7566 5.88755 67.7387 5.65113 67.6428 5.4422Z" fill="#6C63FF"/>
<path d="M85.569 6.95972L85.5736 6.95893L84.8965 2.99325L81.1521 4.18489L81.7124 7.73189C81.5194 7.60968 81.2894 7.56017 81.0634 7.59221C80.8373 7.62425 80.63 7.73576 80.4785 7.9068C80.327 8.07784 80.2411 8.29728 80.2362 8.5259C80.2314 8.75453 80.3078 8.97745 80.4518 9.15483C80.5959 9.33221 80.7983 9.4525 81.0227 9.4942C81.2472 9.5359 81.4791 9.4963 81.6771 9.38247C81.8751 9.26865 82.0262 9.08801 82.1035 8.87284C82.1808 8.65766 82.1792 8.42197 82.099 8.20787L82.1024 8.20733L81.5011 4.40077L84.6501 3.39862L85.1854 6.5335C84.9878 6.41645 84.7549 6.37416 84.5289 6.41432C84.3029 6.45448 84.0987 6.57441 83.9534 6.7524C83.8081 6.93038 83.7312 7.15463 83.7367 7.3845C83.7423 7.61438 83.8298 7.83466 83.9835 8.00543C84.1372 8.17621 84.3469 8.28617 84.5746 8.31538C84.8023 8.3446 85.0329 8.29114 85.2246 8.1647C85.4163 8.03825 85.5565 7.84719 85.6196 7.62613C85.6828 7.40508 85.6649 7.16866 85.569 6.95972Z" fill="#6C63FF"/>
<path d="M72.7564 9.80527L72.7591 9.80485L72.2767 6.75067L72.0384 6.78842L72.4566 9.4362C72.307 9.34144 72.1287 9.30306 71.9534 9.32791C71.7782 9.35276 71.6174 9.43922 71.5 9.57184C71.3825 9.70447 71.3159 9.87461 71.3121 10.0519C71.3083 10.2291 71.3676 10.402 71.4793 10.5395C71.591 10.6771 71.7479 10.7703 71.9219 10.8027C72.096 10.835 72.2758 10.8043 72.4293 10.716C72.5828 10.6278 72.7 10.4877 72.7599 10.3209C72.8199 10.154 72.8186 9.97127 72.7564 9.80527Z" fill="#6C63FF"/>
<path d="M76.8491 6.01344C76.8495 5.8479 76.7949 5.68694 76.6939 5.5559C76.593 5.42485 76.4514 5.33118 76.2914 5.28962C76.1314 5.24807 75.9622 5.26099 75.8104 5.32636C75.6586 5.39172 75.5328 5.50582 75.4528 5.65068C75.3728 5.79554 75.3432 5.96294 75.3687 6.1265C75.3941 6.29007 75.4731 6.44051 75.5933 6.55414C75.7135 6.66778 75.8679 6.73814 76.0324 6.75415C76.1969 6.77017 76.362 6.73092 76.5018 6.6426L76.0836 9.29037L76.3218 9.32813L76.8042 6.27394L76.8016 6.27352C76.8328 6.19038 76.849 6.10229 76.8491 6.01344Z" fill="#6C63FF"/>
<path d="M45.8519 53.8325L47.2635 55.9536L49.3808 54.3039L47.9693 52.5363L45.8519 53.8325Z" fill="#FFB8B8"/>
<path d="M47.5361 54.8155C47.5361 54.8155 45.5145 54.9096 46.0844 55.9802C46.6543 57.0507 47.0988 63.0911 48.7252 62.7411C50.3517 62.3911 51.8263 60.5398 51.8083 59.2653C51.7902 57.9908 51.5866 57.4381 51.5866 57.4381C51.5866 57.4381 51.1505 56.5945 51.4408 56.3615C51.7312 56.1286 51.8408 54.6562 51.1493 54.2085C50.4577 53.7607 48.459 53.1681 48.459 53.1681C48.459 53.1681 48.2566 55.0014 47.5361 54.8155Z" fill="#2F2E41"/>
<path d="M48.5575 58.7817L48.0869 61.3741L50.5572 61.6097V59.6066L48.5575 58.7817Z" fill="#FFB8B8"/>
<path d="M43.4993 23.6664C43.4993 23.6664 42.2054 28.0264 41.8525 30.6188C41.8525 30.6188 34.7947 40.1635 36.0886 44.2878C37.3825 48.4121 41.1467 56.6606 41.1467 56.6606C41.1467 56.6606 47.4988 54.0682 48.7927 52.6542L44.0875 45.9375C44.0875 45.9375 44.7933 45.1127 43.7346 44.6413C42.6759 44.17 43.617 43.5808 43.617 43.5808C43.617 43.5808 45.6167 36.8641 47.6164 36.1571L54.5566 34.743C54.5566 34.743 54.0861 24.7269 52.4393 22.9594C52.4393 22.9594 44.2051 23.0772 43.4993 23.6664Z" fill="#F86D70"/>
<path d="M49.1456 60.3136C49.1456 60.3136 47.9693 58.6639 47.3811 59.7244C46.793 60.7849 41.9701 64.4378 43.1464 65.6162C44.3227 66.7946 46.6753 67.0302 47.734 66.3232C48.7927 65.6162 49.1456 65.1449 49.1456 65.1449C49.1456 65.1449 49.6161 64.32 49.969 64.4378C50.3219 64.5557 51.6158 63.8487 51.6158 63.0238C51.6158 62.1989 51.0277 60.1957 51.0277 60.1957C51.0277 60.1957 49.3808 61.0206 49.1456 60.3136Z" fill="#2F2E41"/>
<path d="M47.3811 35.3322L49.0279 49.5905C49.0279 49.5905 48.0869 53.5969 47.8516 56.6607C47.6164 59.7244 47.8516 59.6066 47.8516 59.6066C47.8516 59.6066 53.145 61.7276 54.0861 60.3136C55.0271 58.8996 54.5566 34.743 54.5566 34.743L51.7334 32.1506L47.3811 35.3322Z" fill="#F86D70"/>
<path d="M44.5094 3.50149C45.7306 0.615089 48.8392 0.0699652 48.8392 0.0699652C48.8392 0.0699652 51.8323 -0.729926 54.3319 3.07952C56.6618 6.63023 59.6662 9.95693 55.856 11.3742L54.8495 9.25671L54.7287 11.6936C54.1747 11.8092 53.6147 11.8943 53.0513 11.9486C48.825 12.3787 44.841 13.0939 44.7672 11.5638C44.6691 9.52982 43.3344 6.27878 44.5094 3.50149Z" fill="#2F2E41"/>
<path d="M49.4985 9.17251C51.3825 9.17251 52.9098 7.64256 52.9098 5.75526C52.9098 3.86796 51.3825 2.338 49.4985 2.338C47.6145 2.338 46.0872 3.86796 46.0872 5.75526C46.0872 7.64256 47.6145 9.17251 49.4985 9.17251Z" fill="#FFB8B8"/>
<path d="M48.4986 7.93525C48.4986 7.93525 48.4398 11.4114 48.0869 12.2363C47.734 13.0611 54.3802 11.5882 54.3802 11.5882C54.3802 11.5882 52.0276 9.93847 51.6747 7.69957L48.4986 7.93525Z" fill="#FFB8B8"/>
<path d="M49.028 10.8222L48.3856 10.3489L43.8522 10.5866L42.9112 20.9562C42.9112 20.9562 40.2057 24.1377 43.4993 24.1377C46.793 24.1377 49.8514 22.6059 52.204 23.6664C54.5566 24.7269 56.5563 12.4719 56.5563 12.4719L53.0395 10.3489C53.0395 10.3489 51.4982 12.2363 49.028 10.8222Z" fill="#575A89"/>
<path d="M45.1461 19.1886L51.7335 20.6026V22.1345L45.1461 22.3702C45.1461 22.3702 44.4404 19.6599 45.1461 19.1886Z" fill="#FFB8B8"/>
<path d="M45.1461 11.1757L43.8522 10.5866C43.8522 10.5866 42.323 10.9401 42.2054 12.2363C42.0877 13.5325 39.8528 21.8989 41.6172 22.2524C43.3817 22.6059 45.7343 22.6059 45.7343 22.6059C45.7343 22.6059 44.2051 20.4848 46.0872 19.3065L44.6756 18.5994C44.6756 18.5994 43.2641 15.4179 44.2051 13.7681C45.1461 12.1184 45.1461 11.1757 45.1461 11.1757Z" fill="#575A89"/>
<path d="M45.2 2.45287L48.3153 0.818142L52.6175 1.48688L53.5075 5.42506L51.2919 5.33969L50.6728 3.89288V5.31582L49.6505 5.27643L49.057 2.97297L48.6862 5.42506L45.0516 5.35075L45.2 2.45287Z" fill="#2F2E41"/>
<path d="M52.9294 6.52187C53.2758 6.52187 53.5567 6.02947 53.5567 5.42206C53.5567 4.81466 53.2758 4.32226 52.9294 4.32226C52.5829 4.32226 52.302 4.81466 52.302 5.42206C52.302 6.02947 52.5829 6.52187 52.9294 6.52187Z" fill="#FFB8B8"/>
<path d="M52.9897 6.20062C53.2262 6.20062 53.4179 6.0086 53.4179 5.77173C53.4179 5.53485 53.2262 5.34283 52.9897 5.34283C52.7533 5.34283 52.5616 5.53485 52.5616 5.77173C52.5616 6.0086 52.7533 6.20062 52.9897 6.20062Z" fill="white"/>
<path d="M53.1735 5.9163C53.212 5.9163 53.2432 5.82266 53.2432 5.70714C53.2432 5.59162 53.212 5.49798 53.1735 5.49798C53.1351 5.49798 53.1039 5.59162 53.1039 5.70714C53.1039 5.82266 53.1351 5.9163 53.1735 5.9163Z" fill="#2F2E41"/>
<path d="M53.1624 7.01666C53.1334 7.01666 53.1055 7.0051 53.085 6.98452C53.0644 6.96394 53.0529 6.93603 53.0529 6.90693L52.9434 6.02909H53.272V6.90693C53.272 6.92134 53.2691 6.93561 53.2636 6.94892C53.2581 6.96224 53.2501 6.97433 53.2399 6.98452C53.2297 6.99471 53.2176 7.00279 53.2044 7.00831C53.1911 7.01382 53.1768 7.01666 53.1624 7.01666Z" fill="white"/>
<path opacity="0.1" d="M44.6196 14.3729L43.5089 19.1947H46.1007L44.0643 18.731L44.6196 14.3729Z" fill="black"/>
<path d="M58.001 22.3382L57.9764 22.316L58.5844 21.6401C58.6306 21.5888 58.6663 21.5288 58.6894 21.4636C58.7124 21.3985 58.7225 21.3294 58.7189 21.2603C58.7153 21.1913 58.6982 21.1236 58.6685 21.0612C58.6388 20.9987 58.5971 20.9428 58.5459 20.8965L57.1166 19.6061C57.0653 19.5598 57.0054 19.5241 56.9404 19.501C56.8753 19.4778 56.8063 19.4678 56.7374 19.4714C56.6685 19.475 56.6009 19.4921 56.5386 19.5219C56.4763 19.5516 56.4204 19.5933 56.3742 19.6447L53.0386 23.3523C52.9924 23.4036 52.9567 23.4636 52.9337 23.5288C52.9106 23.594 52.9006 23.663 52.9041 23.7321C52.9077 23.8012 52.9249 23.8688 52.9545 23.9313C52.9842 23.9937 53.0259 24.0496 53.0772 24.0959L54.5065 25.3863C54.5577 25.4326 54.6176 25.4683 54.6827 25.4915C54.7477 25.5146 54.8167 25.5246 54.8856 25.521C54.9546 25.5175 55.0221 25.5003 55.0844 25.4706C55.1468 25.4408 55.2026 25.3991 55.2488 25.3477L57.5436 22.797L57.5682 22.8192L58.001 22.3382Z" fill="#3F3D56"/>
<path d="M56.8798 21.673C57.0668 21.673 57.2185 21.5211 57.2185 21.3337C57.2185 21.1463 57.0668 20.9944 56.8798 20.9944C56.6927 20.9944 56.541 21.1463 56.541 21.3337C56.541 21.5211 56.6927 21.673 56.8798 21.673Z" fill="#6C63FF"/>
<path d="M54.5309 21.1291C54.5309 21.1291 58.5408 22.1014 57.6169 23.4876C56.693 24.8737 53.0455 22.3401 53.0455 22.3401L54.5309 21.1291Z" fill="#FFB8B8"/>
<path d="M55.4977 12.472H56.5563C56.5563 12.472 57.7326 13.7682 57.4974 14.9465C57.2621 16.1249 56.5563 21.6632 56.5563 21.6632C56.5563 21.6632 53.0274 24.9626 51.2629 23.1951C49.4985 21.4275 50.7924 19.7778 50.7924 19.7778C50.7924 19.7778 53.145 21.6632 54.439 19.1886L55.4977 12.472Z" fill="#575A89"/>
<path d="M54.4455 20.5059L55.2557 12.4872C55.2557 12.4872 56.9551 7.42505 55.2962 7.30098C53.6373 7.17691 53.5208 12.0979 53.5208 12.0979L50.6315 20.8723C50.6315 20.8723 52.2171 22.4281 54.4455 20.5059Z" fill="#FFB8B8"/>
</svg>
