<svg width="107" height="67" viewBox="0 0 107 67" fill="none" xmlns="http://www.w3.org/2000/svg">
<path opacity="0.1" d="M106.306 46.0464C105.235 48.6338 102.994 50.9709 100.588 53.1842C98.474 55.1302 96.2122 57.0107 93.8031 58.8257C93.1355 59.3296 92.4572 59.8271 91.7683 60.3183L91.2897 60.6575C90.8653 60.9591 90.4336 61.2579 89.9948 61.5539L89.9422 61.5898C89.5165 61.8808 89.0871 62.1689 88.6539 62.4542C87.2369 63.3894 85.739 64.318 84.083 65.087C83.5189 65.3496 82.9368 65.5943 82.3341 65.8134C82.0081 65.9324 81.6752 66.0439 81.3354 66.1478C80.7788 66.3179 80.2071 66.4662 79.6099 66.588C79.5103 66.6088 79.4097 66.6287 79.309 66.6476C78.6978 66.7628 78.0791 66.8469 77.4538 66.9045C75.1622 67.1152 72.7955 66.9612 70.5001 66.6003C69.3529 66.4199 68.2236 66.1875 67.131 65.923C66.9965 65.8909 66.863 65.8578 66.7285 65.8285C63.0077 64.8933 59.5144 63.6237 55.7672 62.731C54.4758 62.423 53.1594 62.1617 51.8179 61.9469C51.1634 61.8424 50.5052 61.7479 49.8432 61.6635C48.2851 61.4689 46.7072 61.3386 45.1228 61.2724C42.9864 61.178 40.7804 61.2186 38.7474 61.5936C38.4766 61.6434 38.2093 61.6994 37.9454 61.7618C37.6106 61.8405 37.2821 61.9302 36.9599 62.031C36.0913 62.313 35.2459 62.6626 34.4314 63.0767C34.2706 63.1561 34.1117 63.2364 33.9528 63.3176C33.4544 63.5727 32.9626 63.8334 32.4633 64.0866C31.5647 64.5591 30.6294 64.9578 29.6668 65.2787C29.1395 65.446 28.6033 65.5836 28.0607 65.6906C26.6249 65.9797 25.0968 66.094 23.5622 66.1015C22.8222 66.1015 22.0812 66.0855 21.3487 66.0467H21.3262C21.076 66.0335 20.825 66.0184 20.5739 65.9995C19.4305 65.9211 18.2908 65.8002 17.1681 65.6349C13.3212 65.0681 9.67278 63.9968 6.73804 62.3626C2.75203 60.1445 0.220693 56.8372 0.600582 53.5328C0.873275 51.1523 2.56679 48.9417 4.17379 46.7775C7.16307 42.7476 9.96334 38.626 11.4368 34.2815C12.632 30.7551 12.9883 27.0265 15.7388 23.8572C16.6199 22.8426 17.7464 21.9168 19.0581 21.1054C20.0386 20.5023 21.0663 19.9804 22.1311 19.5448C23.3345 19.0496 24.5724 18.6439 25.835 18.3309C26.9292 18.0582 28.0381 17.8488 29.1562 17.7036C29.7636 17.6243 30.3786 17.5629 30.9973 17.5213C31.4738 17.4879 31.9524 17.4668 32.4332 17.458H32.5075C32.8015 17.4524 33.0955 17.4524 33.3895 17.458C35.5333 17.4914 37.6712 17.6932 39.7837 18.0617C41.1058 18.2837 42.4166 18.5557 43.7001 18.8552C44.4662 19.0334 45.2253 19.2201 45.9776 19.4154C46.207 19.4749 46.4364 19.5353 46.6631 19.5967C52.0153 21.0374 56.7245 23.0268 61.8812 24.6592C61.9075 24.6677 61.9329 24.6762 61.9592 24.6828C63.0176 25.0098 64.0923 25.281 65.1789 25.4952C65.9772 25.6558 66.7934 25.7947 67.6237 25.9165C68.895 26.1055 70.1936 26.2547 71.5016 26.3832L71.7903 26.4115C73.7094 26.6005 75.6456 26.7412 77.5262 26.9056C78.1938 26.9642 78.8558 27.0246 79.5084 27.0945C79.9221 27.1361 80.3321 27.1802 80.7383 27.2268C81.0298 27.2608 81.3223 27.2948 81.6147 27.3307C81.9071 27.3666 82.2165 27.4044 82.5174 27.4431C82.713 27.4677 82.9077 27.4932 83.1032 27.5206C84.288 27.6783 85.47 27.855 86.6388 28.0571C87.3497 28.18 88.0568 28.3122 88.7555 28.4548C89.2614 28.5581 89.7629 28.6671 90.26 28.7817C90.6286 28.8655 90.9941 28.9536 91.3564 29.0462C94.3006 29.7897 97.0557 30.7645 99.43 32.0805C105.596 35.4898 108.355 41.0982 106.306 46.0464Z" fill="#6C63FF"/>
<path opacity="0.1" d="M23.3655 8.44538C24.4539 8.44538 25.3361 7.56311 25.3361 6.47479C25.3361 5.38646 24.4539 4.5042 23.3655 4.5042C22.2772 4.5042 21.395 5.38646 21.395 6.47479C21.395 7.56311 22.2772 8.44538 23.3655 8.44538Z" fill="#6C63FF"/>
<path opacity="0.1" d="M65.0294 3.94118C66.1177 3.94118 67 3.05891 67 1.97059C67 0.882262 66.1177 0 65.0294 0C63.941 0 63.0588 0.882262 63.0588 1.97059C63.0588 3.05891 63.941 3.94118 65.0294 3.94118Z" fill="#6C63FF"/>
<path opacity="0.1" d="M89.8026 8.44538C90.8909 8.44538 91.7731 7.56311 91.7731 6.47479C91.7731 5.38646 90.8909 4.5042 89.8026 4.5042C88.7142 4.5042 87.832 5.38646 87.832 6.47479C87.832 7.56311 88.7142 8.44538 89.8026 8.44538Z" fill="#6C63FF"/>
<path opacity="0.1" d="M3.37815 14.6387C5.24385 14.6387 6.7563 13.1262 6.7563 11.2605C6.7563 9.3948 5.24385 7.88235 3.37815 7.88235C1.51245 7.88235 0 9.3948 0 11.2605C0 13.1262 1.51245 14.6387 3.37815 14.6387Z" fill="#6C63FF"/>
<path opacity="0.1" d="M6.75632 31.5294C8.62203 31.5294 10.1345 30.017 10.1345 28.1513C10.1345 26.2856 8.62203 24.7731 6.75632 24.7731C4.89062 24.7731 3.37817 26.2856 3.37817 28.1513C3.37817 30.017 4.89062 31.5294 6.75632 31.5294Z" fill="#6C63FF"/>
<path opacity="0.1" d="M98.2479 25.3361C100.269 25.3361 101.908 23.8237 101.908 21.958C101.908 20.0923 100.269 18.5798 98.2479 18.5798C96.2267 18.5798 94.5883 20.0923 94.5883 21.958C94.5883 23.8237 96.2267 25.3361 98.2479 25.3361Z" fill="#6C63FF"/>
<path d="M33.4752 21.9778C33.4921 22.2747 33.4754 22.5727 33.4255 22.8656C33.2379 23.7721 32.4441 24.3945 31.6757 24.8668C30.9074 25.339 30.063 25.7859 29.6061 26.583C29.0553 27.546 29.2308 28.8407 29.8772 29.7403C30.5236 30.6399 31.5481 31.1755 32.6027 31.3989C34.526 31.8117 36.6323 31.2321 38.0743 29.8466C39.5163 28.4612 40.2397 26.2961 39.886 24.2853C39.1035 24.3994 38.4064 23.6813 38.1531 22.9027C37.8998 22.1241 37.9523 21.2802 37.8538 20.4635C37.8466 20.3254 37.8067 20.1914 37.7375 20.0733C37.6277 19.9152 37.4335 19.8508 37.2524 19.7991C36.348 19.5405 34.8262 18.9746 33.889 19.1912C33.0446 19.3922 33.4611 21.2402 33.4752 21.9778Z" fill="#BE6F72"/>
<path opacity="0.1" d="M33.4752 21.9778C33.4921 22.2747 33.4754 22.5727 33.4255 22.8656C33.2379 23.7721 32.4441 24.3945 31.6757 24.8668C30.9074 25.339 30.063 25.7859 29.6061 26.583C29.0553 27.546 29.2308 28.8407 29.8772 29.7403C30.5236 30.6399 31.5481 31.1755 32.6027 31.3989C34.526 31.8117 36.6323 31.2321 38.0743 29.8466C39.5163 28.4612 40.2397 26.2961 39.886 24.2853C39.1035 24.3994 38.4064 23.6813 38.1531 22.9027C37.8998 22.1241 37.9523 21.2802 37.8538 20.4635C37.8466 20.3254 37.8067 20.1914 37.7375 20.0733C37.6277 19.9152 37.4335 19.8508 37.2524 19.7991C36.348 19.5405 34.8262 18.9746 33.889 19.1912C33.0446 19.3922 33.4611 21.2402 33.4752 21.9778Z" fill="black"/>
<path d="M32.5825 63.8267C31.5733 64.2639 30.5229 64.6328 29.4417 64.9298C28.8495 65.0846 28.2473 65.2119 27.6379 65.3109C27.5948 64.6388 27.639 63.9648 27.7699 63.3005C27.8523 62.9185 27.9737 62.5401 28.0054 62.1528C28.0503 61.5939 27.9058 61.0357 27.5883 60.541C28.7647 60.4082 29.8821 60.1914 31.0639 60.2552L31.1389 60.2596C31.2794 60.2625 31.4184 60.2841 31.5507 60.3234C31.7326 60.3962 31.887 60.5086 31.9975 60.6485C32.0583 60.7172 32.1144 60.7887 32.1654 60.8627C32.4991 61.3399 32.6258 61.8906 32.6522 62.4579C32.6647 62.9149 32.6414 63.3722 32.5825 63.8267V63.8267Z" fill="#BE6F72"/>
<path d="M37.7227 61.6299C37.4078 61.7154 37.0988 61.8129 36.7957 61.9224C35.9786 62.2288 35.1833 62.6088 34.4171 63.0588C34.3674 62.7792 34.3431 62.4943 34.3446 62.2089C34.7961 61.8475 35.3056 61.5953 35.8427 61.4671C36.3799 61.3388 36.9338 61.3373 37.4715 61.4626C37.5434 61.4727 37.6117 61.5045 37.6696 61.5549C37.6906 61.5765 37.7085 61.6018 37.7227 61.6299V61.6299Z" fill="#BE6F72"/>
<path d="M39.272 56.7852C39.2091 57.3979 39.1165 58.0125 38.9019 58.5887C38.6697 59.2071 38.2922 59.8067 38.3403 60.4673C38.3616 60.754 38.4578 61.065 38.4717 61.3489C38.2052 61.3983 37.9421 61.4539 37.6824 61.5157C37.3531 61.5938 37.0298 61.6828 36.7128 61.7827C35.8581 62.0624 35.0263 62.4092 34.2248 62.8199C34.0666 62.8986 33.9103 62.9782 33.7539 63.0588C33.6891 63.0504 33.6253 63.0401 33.5605 63.0279C33.0979 62.9426 32.6112 62.7328 32.3494 62.358C32.2895 62.2717 32.2424 62.177 32.2097 62.0769C32.0589 61.6206 32.2162 61.0519 31.9025 60.6903L31.8877 60.7034L31.8766 60.7109C31.7048 60.8685 31.5161 61.0061 31.3141 61.1213V61.1213C30.8542 61.3848 30.3447 61.5475 29.8187 61.5989C29.2927 61.6502 28.7619 61.589 28.2608 61.4192C28.0623 61.3507 27.8705 61.2635 27.6881 61.1587C27.2643 60.9142 26.8554 60.5029 26.8887 60.0119C26.9072 59.7383 27.0617 59.476 27.0201 59.2052C26.9895 59.0113 26.8637 58.8501 26.7693 58.6787C26.1504 57.5544 26.8887 56.1087 26.5001 54.8869C26.4908 54.8579 26.4807 54.8288 26.4705 54.8007C26.4418 54.7211 26.4094 54.6443 26.378 54.5674C26.2984 54.3885 26.2096 54.2123 26.1392 54.0287C26.0807 53.8743 26.0343 53.7155 26.0005 53.5537C25.9131 53.0838 25.8821 52.605 25.9079 52.1277C25.9079 50.8694 26.13 49.5811 26.4464 48.3687C26.5029 48.1532 26.5658 47.8487 26.6491 47.517C26.7302 47.1675 26.8398 46.8253 26.9766 46.4939C27.1616 46.0629 27.4133 45.7191 27.7575 45.6376C28.2756 45.5148 29.0676 45.7744 29.5931 45.8381L31.6703 46.0892L35.8236 46.5923C36.5407 46.6794 37.2938 46.7797 37.8851 47.1882C37.9239 47.2154 37.9619 47.2435 37.9998 47.2735C38.156 47.398 38.2959 47.5422 38.4161 47.7026C38.4587 47.7578 38.4994 47.8159 38.5383 47.875C38.673 48.0838 38.7877 48.3054 38.8806 48.5364C39.396 49.79 39.408 51.1889 39.4117 52.5465C39.4117 53.9631 39.4163 55.3788 39.272 56.7852Z" fill="#3F3D56"/>
<path opacity="0.1" d="M31.2171 61.3697C31.0965 60.8783 30.8419 60.1667 30.8044 59.973C30.6786 59.3231 30.5873 58.6662 30.5311 58.0054C30.4319 56.8279 30.2533 55.1703 30.6463 54.0504C31.0152 54.2583 31.3395 54.8471 31.5101 55.2487C32.1282 56.705 31.4324 58.4931 32.013 59.9664C32.0564 60.0546 32.0834 60.1509 32.0925 60.2499C32.0824 60.3756 32.0397 60.4959 31.9692 60.5977L31.7736 60.9416L31.2171 61.3697Z" fill="black"/>
<path d="M44.9937 16.4573C45.6517 15.3214 46.5528 14.2043 46.4965 12.8761C46.4759 12.4028 46.3293 11.9399 46.2176 11.476C45.8973 10.1335 45.8762 8.73057 46.1559 7.37794C47.2614 7.18987 48.3929 7.45824 49.3171 8.1277C49.6094 8.34164 49.8865 8.60765 50.0153 8.95886C50.1342 9.28262 50.1145 9.6433 50.093 9.98977C50.0439 10.7859 49.9768 11.6351 49.5137 12.2618C49.3698 12.4577 49.1928 12.6234 49.0524 12.8212C48.8477 13.1052 48.7279 13.4517 48.6108 13.7897L47.091 18.168C46.324 20.3746 45.4926 22.6826 43.8029 24.2095C43.7618 24.2464 42.5513 22.426 42.4512 22.2433C42.0462 21.4945 42.2232 21.1783 42.7131 20.5516C43.6795 19.3125 44.2043 17.8177 44.9937 16.4573Z" fill="#BE6F72"/>
<path d="M26.4622 53.4874C26.4567 53.8123 26.429 54.1364 26.3795 54.4577C26.3624 54.5762 26.3424 54.6939 26.3186 54.8115C25.9943 56.4866 25.187 58.0799 24.6222 59.7117C23.8776 61.8659 23.5505 63.7349 23.2909 65.8739C22.5425 65.8739 21.7932 65.8579 21.0525 65.8194H21.0296C20.7767 65.8062 20.5228 65.7911 20.2689 65.7723C20.4981 63.7772 20.0787 61.6842 20.4886 59.6873C20.654 58.8836 20.9365 58.1034 21.1067 57.3035C21.1591 57.068 21.1988 56.8299 21.2255 56.5901C21.2493 56.3624 21.2617 56.1262 21.3653 55.921C21.3748 55.9012 21.3856 55.882 21.3977 55.8636C21.4887 55.7216 21.6016 55.5946 21.7324 55.4872C22.891 54.4817 24.3081 53.813 25.827 53.5551C26.0428 53.526 26.253 53.5015 26.4622 53.4874Z" fill="#FBBEBE"/>
<path opacity="0.1" d="M26.4622 53.4874C26.4567 53.8123 26.429 54.1364 26.3795 54.4577C26.3624 54.5762 26.3424 54.6939 26.3186 54.8115C25.9943 56.4866 25.187 58.0799 24.6222 59.7117C23.8776 61.8659 23.5505 63.7349 23.2909 65.8739C22.5425 65.8739 21.7932 65.8579 21.0525 65.8194H21.0296C20.7767 65.8062 20.5228 65.7911 20.2689 65.7723C20.4981 63.7772 20.0787 61.6842 20.4886 59.6873C20.654 58.8836 20.9365 58.1034 21.1067 57.3035C21.1591 57.068 21.1988 56.8299 21.2255 56.5901C21.2493 56.3624 21.2617 56.1262 21.3653 55.921C21.3748 55.9012 21.3856 55.882 21.3977 55.8636C21.4887 55.7216 21.6016 55.5946 21.7324 55.4872C22.891 54.4817 24.3081 53.813 25.827 53.5551C26.0428 53.526 26.253 53.5015 26.4622 53.4874Z" fill="black"/>
<path d="M21.9576 57.8819C21.9417 58.4016 21.8969 58.9201 21.8233 59.4352C21.5618 61.5403 21.5128 63.7371 21.3335 65.8739C21.0729 65.8609 20.8113 65.8459 20.5497 65.8272C19.3585 65.7496 18.1711 65.6299 17.0013 65.4662C17.0915 64.9849 17.1823 64.5036 17.2737 64.0223C17.3854 63.4322 17.4971 62.8365 17.4647 62.238C17.4344 61.6722 17.2756 61.1213 17.1493 60.5668C16.8799 59.3791 16.729 58.0979 16.2852 56.9776C16.0537 56.3492 15.6843 55.7753 15.2017 55.2942C17.0376 54.6059 18.802 54.5666 20.7741 54.6396C20.9141 54.6322 21.0532 54.6648 21.1738 54.7331C21.2673 54.8104 21.3367 54.9107 21.3746 55.023C21.671 55.7035 21.857 56.4231 21.9262 57.1571C21.9498 57.398 21.9602 57.6399 21.9576 57.8819V57.8819Z" fill="#FBBEBE"/>
<path d="M36.0335 21.958C37.8992 21.958 39.4117 20.3195 39.4117 18.2983C39.4117 16.2771 37.8992 14.6387 36.0335 14.6387C34.1678 14.6387 32.6554 16.2771 32.6554 18.2983C32.6554 20.3195 34.1678 21.958 36.0335 21.958Z" fill="#BE6F72"/>
<path d="M36.604 26.8347C37.0746 26.0359 37.4869 25.0386 38.3923 24.8167C38.9034 24.6903 39.4352 24.8626 39.9331 25.0321C40.0774 25.066 40.2083 25.1416 40.3096 25.2493C40.3832 25.3655 40.4226 25.4997 40.4235 25.637C40.5811 27.288 40.5758 28.9503 40.4075 30.6002C40.288 31.768 40.0865 32.9301 40.0508 34.1035C40.0009 35.7301 40.2701 37.3568 40.1816 38.9815C40.1148 40.213 39.8437 41.4229 39.5745 42.6262L38.445 47.6643C38.4248 47.8202 38.362 47.9676 38.2634 48.0904C38.1681 48.1773 38.0542 48.2414 37.9302 48.2777C36.2953 48.8527 34.5574 49.0802 32.8287 48.9455C31.1 48.8108 29.4189 48.317 27.8939 47.4958C27.4864 47.2729 27.0798 47.0154 26.8143 46.6352C26.4378 46.0958 26.403 45.3822 26.5254 44.736C26.6477 44.0899 26.9122 43.4803 27.0901 42.8463C27.365 41.863 27.4299 40.8366 27.492 39.8178C27.5748 38.4768 27.6577 37.1273 27.5137 35.791C27.4148 34.8705 27.2087 33.964 27.0534 33.0509C26.8247 31.6748 26.692 30.2846 26.6562 28.8903C26.6327 28.0578 26.6713 27.1335 27.2501 26.5332C27.5325 26.241 27.909 26.065 28.2921 25.9226C28.9349 25.6866 29.6531 25.5481 30.3025 25.7634C30.952 25.9788 31.4753 26.6568 31.3219 27.3208C31.2513 27.6289 31.0508 27.8986 31.0018 28.2113C30.9369 28.6252 31.1571 29.042 31.4725 29.322C33.1685 30.8465 35.7578 28.2806 36.604 26.8347Z" fill="#E3E8F4"/>
<path d="M36.6905 22.6536C37.2096 22.461 37.7739 22.4278 38.3118 22.5581C38.6543 22.6402 39.0243 22.7854 39.3402 22.6316C39.455 22.5762 39.5499 22.4855 39.6656 22.4339C39.9787 22.2954 40.3847 22.4654 40.6618 22.2638C40.8363 22.1368 40.8932 21.9056 40.9521 21.6954C41.2369 20.6922 41.8208 19.8013 42.6246 19.1429C42.525 19.8756 42.4529 20.7096 42.9339 21.2694C43.1531 21.5235 43.4604 21.683 43.7716 21.8072C44.2185 21.9858 44.7089 22.1043 45.1804 22.0069C45.6519 21.9094 46.0931 21.5502 46.168 21.0716C46.1519 21.791 45.4717 22.2934 45.281 22.988C45.2089 23.2478 45.2155 23.5239 45.1653 23.7895C45.0372 24.4677 44.5562 25.0122 44.1359 25.5587C42.7936 27.3162 41.9361 29.3997 41.6503 31.5981C41.6309 31.859 41.5766 32.116 41.489 32.3624C41.396 32.5513 41.2908 32.7338 41.1741 32.9088C40.4786 34.0915 40.6931 35.5836 40.9293 36.9344C41.2983 39.0504 41.6664 41.1234 42.2641 43.1859C42.3666 43.5384 42.4823 43.9062 42.7432 44.1632C42.6607 44.9972 41.8249 45.3774 41.0735 45.7376C40.3316 46.0938 39.6472 46.5604 39.0433 47.1218C38.827 47.3224 38.6135 47.5479 38.5347 47.8335C38.4607 48.1019 38.5139 48.3971 38.419 48.6579C38.3241 48.9187 37.9447 49.106 37.7777 48.8862C37.569 48.1 37.9257 47.2775 37.9096 46.4636C37.8982 45.9143 37.7198 45.3803 37.6942 44.831C37.6695 44.2091 37.8517 43.5986 38.0452 43.0083C38.5841 41.3642 39.2349 39.7354 39.4218 38.0149C39.6087 36.2944 39.2596 34.4153 38.0471 33.1877C36.6079 31.7242 35.8091 29.74 34.2665 28.3959C34.0217 28.1829 33.7447 27.9183 33.7855 27.5954C33.8137 27.4532 33.8759 27.32 33.9667 27.2075C34.4961 26.4548 35.2 25.8405 35.7693 25.1202C36.3385 24.3999 36.7939 23.5707 36.6905 22.6536Z" fill="#3F3D56"/>
<path d="M31.6669 24.42C31.5714 24.5156 31.5056 24.6474 31.3949 24.7295C31.2656 24.8094 31.1181 24.8551 30.9663 24.8623C30.4046 24.9477 29.8382 24.9984 29.2703 25.0142C28.7931 25.0142 28.2977 24.9722 27.8386 25.1031C27.1982 25.2846 26.6866 25.7909 26.366 26.3736C26.0453 26.9563 25.8935 27.6154 25.7704 28.2717C25.499 29.7176 25.3537 31.1844 25.3361 32.6555C26.1228 32.0275 26.8239 31.2991 27.4216 30.4889C27.8797 29.867 28.2949 29.1792 28.9487 28.7637C29.2493 28.5726 29.5872 28.4465 29.8897 28.2602C30.5206 27.8714 30.9577 27.2429 31.3777 26.6363C31.6869 26.1863 32.5812 25.3075 32.6519 24.7687C32.712 24.2538 32.0009 24.0026 31.6669 24.42Z" fill="#3F3D56"/>
<path d="M35.1766 15.4422C35.2908 15.5099 35.4002 15.5854 35.504 15.6679C36.132 16.1012 36.9727 16.0207 37.732 15.922C37.9651 15.8928 38.2046 15.8599 38.4044 15.7392C38.7253 15.5436 38.8761 15.1414 38.8446 14.7694C38.8132 14.3974 38.6236 14.0546 38.3924 13.764C38.0861 13.3793 37.7039 13.0601 37.2691 12.8257C36.8343 12.5913 36.3559 12.4465 35.8629 12.4002C35.6076 12.3671 35.348 12.3944 35.1054 12.4797C34.8067 12.6013 34.5819 12.8517 34.3063 13.019C33.4933 13.5126 32.2411 13.2932 31.7167 14.0811C31.3329 14.6625 31.6066 15.4522 31.4253 16.1204C31.2903 16.6194 30.9009 17.0737 30.9759 17.5829C31.0175 17.8571 31.1913 18.0965 31.3301 18.3415C31.6487 18.9047 31.7961 19.5467 31.7546 20.1906C32.1107 20.4393 32.6073 20.0526 32.7063 19.634C32.8052 19.2153 32.6915 18.7693 32.7757 18.347C32.9246 17.6057 33.5868 17.0618 33.8855 16.3818C34.1001 15.8946 34.4497 15.072 35.1766 15.4422Z" fill="#3F3D56"/>
<path d="M26.0582 23.9086C26.0296 24.085 26.0115 24.2799 26.1078 24.4292C26.2986 24.7201 26.7354 24.6154 27.0787 24.659C27.6138 24.7259 28.0087 25.2408 28.1126 25.7819C28.2166 26.3229 28.0926 26.8736 27.9572 27.405C27.6507 28.6093 27.2857 29.7964 26.8622 30.9664C25.7234 30.8297 24.5246 30.3846 23.9199 29.3966C23.3705 28.4977 23.4268 27.3526 23.0777 26.3559C22.8326 25.6539 22.3929 25.043 21.958 24.4438C22.6571 24.533 23.1569 23.7204 23.1979 23.0049C23.2389 22.2893 23.0176 21.5631 23.1683 20.864C23.2036 20.6982 25.959 21.2208 26.227 21.4099C27.0015 21.9557 26.1803 23.1503 26.0582 23.9086Z" fill="#FBBEBE"/>
<path opacity="0.1" d="M26.0582 23.9086C26.0296 24.085 26.0115 24.2799 26.1078 24.4292C26.2986 24.7201 26.7354 24.6154 27.0787 24.659C27.6138 24.7259 28.0087 25.2408 28.1126 25.7819C28.2166 26.3229 28.0926 26.8736 27.9572 27.405C27.6507 28.6093 27.2857 29.7964 26.8622 30.9664C25.7234 30.8297 24.5246 30.3846 23.9199 29.3966C23.3705 28.4977 23.4268 27.3526 23.0777 26.3559C22.8326 25.6539 22.3929 25.043 21.958 24.4438C22.6571 24.533 23.1569 23.7204 23.1979 23.0049C23.2389 22.2893 23.0176 21.5631 23.1683 20.864C23.2036 20.6982 25.959 21.2208 26.227 21.4099C27.0015 21.9557 26.1803 23.1503 26.0582 23.9086Z" fill="black"/>
<path d="M25.6177 22.521C27.6388 22.521 29.2773 20.8825 29.2773 18.8613C29.2773 16.8402 27.6388 15.2017 25.6177 15.2017C23.5965 15.2017 21.958 16.8402 21.958 18.8613C21.958 20.8825 23.5965 22.521 25.6177 22.521Z" fill="#FBBEBE"/>
<path d="M24.7653 23.5719C24.8984 23.3608 24.6716 23.066 24.7756 22.8388C24.8375 22.7018 24.994 22.6429 25.1149 22.5535C25.2665 22.4283 25.3875 22.2691 25.4683 22.0885C26.0374 20.979 26.2096 19.7035 25.9556 18.4796C25.8694 18.0688 25.7926 17.523 26.1628 17.3385C26.2654 17.292 26.3779 17.2724 26.4899 17.2814C27.1573 17.3033 27.8021 17.7569 28.4498 17.5962C28.6708 17.5352 28.8683 17.4072 29.0157 17.2293C29.1631 17.0513 29.2534 16.832 29.2746 16.6005C29.3168 15.9862 28.8631 15.4594 28.417 15.0457C27.6137 14.2964 26.3896 14.13 25.2986 14.1119L23.2694 14.0777C22.6198 14.0663 21.8916 14.0872 21.4398 14.5598C20.7893 15.2397 21.1164 16.3523 21.0227 17.2947C20.943 18.0469 20.5722 18.7361 19.9917 19.2109C19.5708 19.5513 18.9916 19.8766 18.9991 20.4205C18.9991 20.6107 19.0797 20.7838 19.1313 20.9635C19.3384 21.6748 19.1406 22.4612 18.7432 23.0841C18.3458 23.707 17.7647 24.1863 17.162 24.6056C16.8396 24.8291 16.5059 25.044 16.251 25.3474C15.9715 25.6978 15.8055 26.1272 15.7758 26.5769C15.7357 26.9206 15.8053 27.2683 15.9745 27.5688C16.3709 28.2116 17.3223 28.3058 17.9737 27.933C18.6251 27.5602 19.0225 26.8546 19.2859 26.1452C19.4434 25.7239 19.6036 25.2418 20.0067 25.0526C20.5166 24.812 21.1127 25.1924 21.4445 25.6536C21.7763 26.1148 21.9806 26.6777 22.4052 27.0524C23.0707 27.6401 24.2029 27.545 24.7653 26.8546C25.1674 26.3592 25.2564 25.6735 25.2339 25.0317C25.2227 24.5089 25.0597 24.0011 24.7653 23.5719Z" fill="#3F3D56"/>
<path d="M25.9333 28.4147C25.5109 28.504 25.0695 28.3065 24.7554 28.0113C24.4412 27.716 24.2295 27.3352 24.0093 26.9665C23.451 26.0367 22.8109 25.1575 22.0966 24.3392C21.474 23.6273 20.6073 22.9042 19.6828 23.1242C19.3733 23.2127 19.0861 23.3649 18.8399 23.5709C18.0248 24.2103 17.3867 25.0442 16.9854 25.9944C16.5842 26.9447 16.4329 27.9803 16.5457 29.0043C16.6178 29.6033 16.7821 30.1892 16.8504 30.791C16.8964 31.2871 16.9098 31.7856 16.8903 32.2833C16.8646 33.7992 16.8124 35.4025 15.9876 36.6795C14.709 38.6543 14.0246 41.0127 13.0859 43.1681C12.579 44.3332 12.2752 45.5735 11.9772 46.8073C11.8006 47.5395 11.6244 48.2714 11.4485 49.003L10.3 53.7895C10.1813 54.2832 10.0627 54.8004 10.188 55.294C10.3778 56.0313 11.0774 56.5466 11.8149 56.7563C12.5524 56.966 13.3336 56.9303 14.0996 56.9369C15.5652 56.951 17.0421 57.1315 18.4175 57.6355C18.8105 57.7794 19.2025 57.9515 19.6211 57.9854C20.0397 58.0192 20.4564 57.9111 20.8484 57.7606C21.9182 57.3506 22.8351 56.6322 23.8204 56.052C24.4358 55.6846 25.084 55.3739 25.7568 55.1238C26.0947 54.9988 26.4573 54.8803 26.6898 54.6066C26.8654 54.4007 26.9442 54.1318 27.0021 53.8684C27.3229 52.3864 27.1075 50.8508 27.0021 49.3387C26.8968 47.8266 25.9846 46.2289 26.7392 44.9105C26.8911 44.6444 27.0724 44.3886 27.1502 44.0934C27.2527 43.7078 27.1663 43.2931 27.2527 42.9038C27.3163 42.6161 27.4691 42.3575 27.5735 42.0819C27.7558 41.5967 27.7805 41.0682 27.7786 40.5501C27.7743 39.4125 27.6534 38.2782 27.4179 37.1648C27.1189 35.7542 28.1079 34.3597 28.6746 33.0272C28.8777 32.5504 29.1653 32.1 29.2498 31.5894C29.3258 31.1286 29.228 30.6593 29.1549 30.1976C29.0458 29.482 29.0013 28.7582 29.022 28.0348C29.04 27.3859 29.1093 26.7249 28.9527 26.0939C28.7961 25.4629 28.349 24.8507 27.7064 24.7209C27.6344 24.7 27.5585 24.6951 27.4843 24.7067C27.4102 24.7182 27.3395 24.7459 27.2774 24.7877C27.2032 24.8598 27.1509 24.951 27.1265 25.051C26.9176 25.6848 26.9584 26.3675 26.8417 27.0258C26.7249 27.684 26.5883 28.2755 25.9333 28.4147Z" fill="#F86D70"/>
<path d="M17.0425 32.1488C17.0809 31.8787 16.9601 31.5199 16.698 31.5296C16.4564 31.5394 16.3488 31.8543 16.3497 32.1069C16.3507 32.3595 16.3834 32.6491 16.2121 32.8266C16.0605 32.9836 15.8096 32.9787 15.6336 33.1065C15.5715 33.1526 15.5209 33.2137 15.4862 33.2844C15.4515 33.3552 15.4337 33.4336 15.4342 33.5131C15.4342 33.6487 15.4932 33.7784 15.4969 33.9139C15.5006 34.0495 15.4136 34.2065 15.2844 34.1977C15.218 34.3137 15.1904 34.4493 15.2058 34.5834C15.2212 34.7175 15.2788 34.8424 15.3696 34.9388C15.437 35.0071 15.525 35.0656 15.5474 35.1612C15.5546 35.2282 15.5495 35.296 15.5325 35.3611C15.4932 35.6293 15.671 35.9296 15.9303 35.9589C15.7852 36.0671 15.8142 36.3207 15.9472 36.4465C16.0801 36.5723 16.2711 36.5966 16.4499 36.5966C16.8557 36.5943 17.257 36.5078 17.6304 36.3421C17.7582 36.2982 17.8713 36.2169 17.9561 36.1081C17.9955 36.0519 18.0144 35.983 18.0094 35.9137C18.0045 35.8443 17.976 35.7791 17.929 35.7297C18.1106 35.7609 18.3287 35.7785 18.4476 35.6322C18.6133 35.4274 18.4355 35.1241 18.2604 34.9262C18.333 34.9149 18.4008 34.8817 18.4555 34.8306C18.5101 34.7796 18.5491 34.7129 18.5677 34.6389C18.5862 34.5649 18.5835 34.4869 18.5598 34.4145C18.5361 34.3422 18.4926 34.2786 18.4345 34.2318C18.3746 34.186 18.2932 34.146 18.2847 34.069C18.2763 33.9919 18.339 33.9422 18.3652 33.8739C18.4252 33.7208 18.2885 33.5648 18.1565 33.4722C17.8438 33.2557 17.3832 33.2596 17.1052 33.0411C16.8272 32.8227 17.0022 32.4414 17.0425 32.1488Z" fill="#BE6F72"/>
<path d="M36.4209 18.0172C36.1719 18.0407 35.9213 18.0462 35.6714 18.0336C35.6288 18.0292 35.586 18.0407 35.5524 18.0656C35.5187 18.0905 35.4968 18.1267 35.4914 18.1666L35.0133 21.528C34.9765 21.772 34.8699 22.0021 34.7049 22.1939C34.5688 22.3465 34.4676 22.5237 34.4076 22.7146C34.3477 22.9054 34.3302 23.1057 34.3563 23.3031V29.013C34.3563 29.013 34.3255 29.7744 34.9496 29.7744C35.6965 29.8623 36.4523 29.8623 37.1992 29.7744C37.1992 29.7744 37.6989 29.6857 37.6989 28.9832V23.3609C37.7371 23.1648 37.7292 22.9632 37.676 22.7702C37.6227 22.5771 37.5253 22.3973 37.3905 22.243C37.2309 22.0505 37.1278 21.8223 37.0913 21.581L36.5947 18.1492C36.589 18.1107 36.5679 18.0755 36.5357 18.051C36.5034 18.0265 36.4623 18.0144 36.4209 18.0172V18.0172Z" fill="#3F3D56"/>
<path opacity="0.1" d="M36.4209 18.0172C36.1719 18.0407 35.9213 18.0462 35.6714 18.0336C35.6288 18.0292 35.586 18.0407 35.5524 18.0656C35.5187 18.0905 35.4968 18.1267 35.4914 18.1666L35.0133 21.528C34.9765 21.772 34.8699 22.0021 34.7049 22.1939C34.5688 22.3465 34.4676 22.5237 34.4076 22.7146C34.3477 22.9054 34.3302 23.1057 34.3563 23.3031V29.013C34.3563 29.013 34.3255 29.7744 34.9496 29.7744C35.6965 29.8623 36.4523 29.8623 37.1992 29.7744C37.1992 29.7744 37.6989 29.6857 37.6989 28.9832V23.3609C37.7371 23.1648 37.7292 22.9632 37.676 22.7702C37.6227 22.5771 37.5253 22.3973 37.3905 22.243C37.2309 22.0505 37.1278 21.8223 37.0913 21.581L36.5947 18.1492C36.589 18.1107 36.5679 18.0755 36.5357 18.051C36.5034 18.0265 36.4623 18.0144 36.4209 18.0172V18.0172Z" fill="black"/>
<path d="M36.3153 23.6471H35.752C35.2857 23.6471 34.9076 24.0942 34.9076 24.6459V27.1524C34.9076 27.7041 35.2857 28.1513 35.752 28.1513H36.3153C36.7816 28.1513 37.1597 27.7041 37.1597 27.1524V24.6459C37.1597 24.0942 36.7816 23.6471 36.3153 23.6471Z" fill="#6C63FF"/>
<path d="M45.7273 3.95851C45.5396 4.06988 45.344 4.16498 45.1423 4.24293C45.1074 4.25419 45.0779 4.27967 45.06 4.31399C45.0421 4.34832 45.0373 4.38879 45.0466 4.42686L45.8493 7.65038C45.9068 7.88435 45.9043 8.13074 45.8423 8.36334C45.7882 8.5502 45.7704 8.74711 45.7901 8.94174C45.8097 9.13637 45.8664 9.32452 45.9565 9.49441L47.9607 14.6786C47.9607 14.6786 48.2031 15.3802 48.6958 15.1583C49.3161 14.9726 49.9122 14.7031 50.4699 14.3562C50.4699 14.3562 50.8327 14.0983 50.5867 13.4612L48.6133 8.3567C48.5744 8.16505 48.4975 7.98477 48.3879 7.82829C48.2783 7.67181 48.1385 7.54286 47.9783 7.45033C47.7852 7.33234 47.6238 7.16211 47.5102 6.95637L45.9143 4.01729C45.8962 3.98329 45.8667 3.95818 45.8318 3.94722C45.7969 3.93626 45.7594 3.9403 45.7273 3.95851Z" fill="#3F3D56"/>
<path d="M47.6992 8.68831L47.0582 8.95577C46.5274 9.17725 46.2767 9.78705 46.4982 10.3178L47.5045 12.7295C47.726 13.2602 48.3358 13.511 48.8666 13.2895L49.5075 13.022C50.0383 12.8005 50.289 12.1907 50.0675 11.66L49.0612 9.24831C48.8397 8.71755 48.2299 8.46683 47.6992 8.68831Z" fill="#6C63FF"/>
<path d="M19.243 23.5787C18.2433 23.9961 17.848 25.2945 18.0824 26.363C18.3167 27.4315 19.0226 28.322 19.7108 29.169L21.6397 31.5529C22.1726 32.2125 22.7557 32.9069 23.5685 33.1368C24.7571 33.4732 25.9456 32.7062 26.9733 32.0127C30.0408 29.9417 33.3197 28.2118 36.7532 26.853C37.089 26.7211 37.4331 26.5873 37.7093 26.3517C38.2822 25.8637 38.4431 24.9638 38.1241 24.2788C37.8051 23.5938 37.062 23.1481 36.3133 23.1425C35.5647 23.1368 34.8365 23.5382 34.3864 24.145C34.1715 24.4343 34.0144 24.765 33.807 25.059C33.2824 25.7977 32.464 26.2547 31.6633 26.6674C29.7326 27.6654 27.7451 28.5464 25.7112 29.3057C25.3392 29.4432 24.9198 29.5742 24.5692 29.3923C24.3544 29.2802 24.2093 29.0682 24.0791 28.8609C23.4858 27.9147 23.0139 26.8958 22.6748 25.8288C22.4209 25.0279 22.2153 24.1554 21.6052 23.5863C20.7403 22.7797 19.1742 22.9729 18.526 23.9632C18.526 23.9632 17.7662 25.0891 18.2312 25.5603C18.6962 26.0314 19.243 23.5787 19.243 23.5787Z" fill="#FBBEBE"/>
<path d="M72.1045 19.9363C72.2493 20.2959 72.2532 20.6896 72.2324 21.0733C72.2066 21.541 72.0807 22.0901 71.6147 22.2685C71.3113 22.3821 70.9365 22.2962 70.6668 22.4681C70.3396 22.6752 70.3554 23.1207 70.406 23.4849C70.5458 24.486 70.7035 25.524 71.2885 26.3708C71.6028 26.8246 72.0281 27.2027 72.4595 27.5641C73.3191 28.2869 74.2621 28.9932 75.3914 29.2344C75.5754 29.2828 75.7689 29.2904 75.9566 29.2566C76.1416 29.2033 76.3096 29.108 76.4454 28.9793C77.0998 28.4191 77.4369 27.6196 77.8732 26.8949C78.1816 26.3763 78.5494 25.8781 78.7229 25.3068C78.8658 24.8077 78.8564 24.2813 78.6955 23.7869C78.5347 23.2925 78.2289 22.8498 77.8127 22.5088C77.6194 22.3544 77.4052 22.225 77.2178 22.0651C76.728 21.651 76.4424 21.0566 76.3254 20.4502C76.2084 19.8439 76.2263 19.2199 76.2828 18.6015C75.2913 18.5303 74.3067 18.6422 73.3389 18.8224C72.9086 18.9029 72.3028 18.9398 71.9131 19.1312C71.4749 19.3484 71.9845 19.6266 72.1045 19.9363Z" fill="#FBBEBE"/>
<path opacity="0.1" d="M72.1045 19.9363C72.2493 20.2959 72.2532 20.6896 72.2324 21.0733C72.2066 21.541 72.0807 22.0901 71.6147 22.2685C71.3113 22.3821 70.9365 22.2962 70.6668 22.4681C70.3396 22.6752 70.3554 23.1207 70.406 23.4849C70.5458 24.486 70.7035 25.524 71.2885 26.3708C71.6028 26.8246 72.0281 27.2027 72.4595 27.5641C73.3191 28.2869 74.2621 28.9932 75.3914 29.2344C75.5754 29.2828 75.7689 29.2904 75.9566 29.2566C76.1416 29.2033 76.3096 29.108 76.4454 28.9793C77.0998 28.4191 77.4369 27.6196 77.8732 26.8949C78.1816 26.3763 78.5494 25.8781 78.7229 25.3068C78.8658 24.8077 78.8564 24.2813 78.6955 23.7869C78.5347 23.2925 78.2289 22.8498 77.8127 22.5088C77.6194 22.3544 77.4052 22.225 77.2178 22.0651C76.728 21.651 76.4424 21.0566 76.3254 20.4502C76.2084 19.8439 76.2263 19.2199 76.2828 18.6015C75.2913 18.5303 74.3067 18.6422 73.3389 18.8224C72.9086 18.9029 72.3028 18.9398 71.9131 19.1312C71.4749 19.3484 71.9845 19.6266 72.1045 19.9363Z" fill="black"/>
<path d="M66.8545 22.372C65.35 21.853 64.6311 19.8253 63.0561 19.5979C62.8078 19.5616 62.5531 19.5756 62.3094 19.5178C61.4024 19.3016 61.0124 18.2467 60.7502 17.3475C59.8664 14.3498 58.712 11.4163 57.0722 8.75867C56.3802 7.64045 55.2861 6.72165 54.7867 5.4972C54.6718 5.21765 54.6135 4.89896 54.4069 4.67811C54.2003 4.45726 53.7584 4.42558 53.6463 4.70699C53.615 4.80668 53.608 4.91246 53.6259 5.01544L53.7343 6.17559L51.8499 6.00506C51.6756 5.97516 51.4967 5.98794 51.3283 6.04233C51.1465 6.13384 51.0016 6.28555 50.9179 6.47192C50.2805 7.67679 50.9596 9.25535 52.0843 10.0176C53.398 10.9075 55.274 11.0426 56.1467 12.3705C56.6655 13.1607 56.6757 14.1774 57.0176 15.0598C57.1806 15.482 57.4187 15.8696 57.6086 16.2787C57.9709 17.0586 58.1562 17.9066 58.4369 18.7192C58.839 19.8812 59.4347 20.964 60.0285 22.0403C60.4862 22.8715 60.955 23.7176 61.659 24.3531C62.1223 24.7706 62.667 25.08 63.2118 25.3782C64.5514 26.1143 66.131 26.8225 67.5503 26.2578C67.6318 24.9849 67.314 23.5657 66.8545 22.372Z" fill="#FBBEBE"/>
<path d="M71.4909 63.0695C71.3829 64.2436 70.6869 65.307 70.5244 66.437C69.4524 66.2651 68.3971 66.0438 67.3761 65.7919C67.2504 65.7613 67.1257 65.7298 67 65.7019C67.5782 64.0825 67.0747 62.2688 67.2276 60.5441C67.2425 60.3786 67.2636 60.2131 67.2917 60.0493C68.6159 59.5869 69.8118 58.9697 71.2001 59.1496C71.2273 59.4375 71.2554 59.7263 71.2827 60.0142C71.3383 60.5894 71.3934 61.164 71.4479 61.738C71.5036 62.1794 71.518 62.6253 71.4909 63.0695V63.0695Z" fill="#FBBEBE"/>
<path d="M81.0756 66.2565C80.5708 66.4236 80.0524 66.5693 79.511 66.689C79.4206 66.7095 79.3293 66.729 79.2381 66.7475C78.6839 66.8608 78.1228 66.9434 77.5558 67C77.4978 65.7097 76.7031 64.5235 76.5871 63.1989C76.5634 62.8697 76.5665 62.5389 76.5965 62.2103C76.6067 62.0803 76.6187 61.9504 76.6298 61.8204L76.8702 59.1499C77.0616 59.1236 77.2546 59.1134 77.4475 59.1192C78.556 59.148 79.5647 59.6706 80.6629 60.0781C80.7448 60.6415 80.7733 61.2126 80.7482 61.7824C80.7064 63.2323 80.4924 64.6998 80.9869 66.03C81.0151 66.1052 81.0458 66.1804 81.0756 66.2565Z" fill="#FBBEBE"/>
<path d="M65.3388 45.118C65.501 46.4209 64.855 47.6684 64.5751 48.9493C64.3898 49.7965 64.3647 50.6686 64.3397 51.5378L64.1933 56.7446C64.1785 57.2651 64.1655 57.7953 64.3193 58.2948C64.6289 59.2959 65.5826 59.9721 66.5752 60.2128C67.5678 60.4535 68.6058 60.3313 69.6169 60.1937C70.1128 60.1259 70.6299 60.0466 71.0405 59.7515C71.6049 59.3455 71.8514 58.6225 72.0646 57.9481L72.6661 56.0444C73.3584 57.651 73.0655 59.4076 73.4807 61.1126C73.5074 61.2703 73.571 61.4188 73.6661 61.5453C73.8413 61.7459 74.1295 61.7774 74.3918 61.7965C76.2083 61.9284 78.0499 62.0592 79.8367 61.701C80.3279 61.6055 80.8405 61.4508 81.1797 61.0706C81.5745 60.6283 81.6431 59.9779 81.6384 59.377C81.6134 57.3129 80.8896 55.3213 80.7283 53.2639C80.6588 52.3822 80.6931 51.4958 80.6625 50.6113C80.6385 49.9461 80.5781 49.2828 80.4818 48.6245C80.4512 48.323 80.371 48.029 80.2445 47.7553C79.9665 47.2204 79.3891 46.93 78.8423 46.7046C74.5938 44.926 69.9209 44.9432 65.3388 45.118Z" fill="#F86D70"/>
<path d="M73.4748 20.2689C75.8069 20.2689 77.6975 18.3783 77.6975 16.0462C77.6975 13.7141 75.8069 11.8235 73.4748 11.8235C71.1426 11.8235 69.2521 13.7141 69.2521 16.0462C69.2521 18.3783 71.1426 20.2689 73.4748 20.2689Z" fill="#FBBEBE"/>
<path d="M77.109 23.0435C76.8025 23.7055 76.3201 24.3675 75.6023 24.5358C74.9422 24.6919 74.2426 24.3788 73.7564 23.9126C73.2702 23.4463 72.9522 22.8411 72.6149 22.2613C72.3689 21.8376 72.095 21.4102 71.679 21.1435C71.1101 20.7803 70.376 20.7898 69.7053 20.8966C69.0346 21.0035 68.3686 21.1945 67.6874 21.151C66.8389 21.0952 65.9741 20.6782 65.1736 20.9562C65.4331 22.0987 65.3399 23.3546 65.3101 24.5254C65.3151 24.7062 65.2891 24.8865 65.2332 25.0588C65.1634 25.2194 65.0691 25.3687 64.9536 25.5014L64.1849 26.4765C65.0093 27.0836 65.7223 27.8761 66.0106 28.8493C66.173 29.4035 66.123 29.9918 66.1173 30.5687C66.099 32.2625 66.4728 33.9496 66.3546 35.6397C66.2162 37.6191 65.4129 39.4897 64.9988 41.4313C64.644 43.0981 64.5771 44.8118 64.8008 46.5005C69.1076 47.9673 73.545 48.7182 78.0978 48.9641C78.9021 49.0076 79.7707 49.0142 80.4309 48.5593C80.9795 48.181 81.287 47.5332 81.3918 46.8806C81.4965 46.2281 81.4244 45.5642 81.3514 44.9079C81.1535 43.133 80.9558 41.3582 80.7585 39.5834C80.6461 38.5733 80.5337 37.5576 80.6067 36.5447C80.6615 35.7882 80.8191 35.0458 80.9757 34.3052L81.9366 29.7601C82.074 29.1141 82.2124 28.4634 82.4843 27.861C82.7072 27.3692 83.0157 26.9153 83.2617 26.4367C83.5549 25.863 83.7571 25.2484 83.8613 24.6143C83.903 24.4303 83.9004 24.2392 83.8536 24.0563C83.7508 23.7461 83.4366 23.5598 83.1435 23.4076C81.3564 22.4832 79.4411 21.822 77.4588 21.4452C77.3243 22.0022 77.3502 22.5242 77.109 23.0435Z" fill="#E3E8F4"/>
<path d="M76.5837 20.2604C77.0372 19.3603 77.8853 18.7289 78.3778 17.8494C78.65 17.3508 78.8022 16.7916 78.8214 16.2191C78.8407 15.6466 78.7265 15.0778 78.4884 14.5608C78.3152 14.1943 78.0803 13.8579 77.9442 13.4746C77.7928 13.0386 77.7782 12.5585 77.6032 12.1319C77.3628 11.5474 76.8422 11.1265 76.2753 10.8841C75.7084 10.6417 75.0962 10.5543 74.4858 10.4697L72.425 10.1822C72.1266 10.1408 71.8173 10.0995 71.5271 10.1822C71.2368 10.2649 70.9665 10.5101 70.943 10.8221C70.9148 11.1913 71.2278 11.5352 71.1552 11.8979C71.1289 12.0257 71.0563 12.1554 71.0981 12.2794C71.1352 12.3623 71.1995 12.4288 71.2795 12.4673C71.7683 12.7492 72.3525 12.7746 72.8822 12.9587C73.4119 13.1429 73.9434 13.6052 73.8899 14.1802C73.8608 14.4894 73.6685 14.8107 73.7992 15.0879C73.9243 15.3444 74.2527 15.3914 74.5148 15.4713C75.3629 15.7259 75.9579 16.6787 75.8345 17.5854C75.7964 17.8673 75.6984 18.1369 75.6785 18.4198C75.6123 19.4101 75.7629 19.6929 76.5438 20.2689L76.5837 20.2604Z" fill="#3F3D56"/>
<path d="M81.8379 24.8554C81.8423 25.0391 81.8071 25.2216 81.7343 25.3918C81.4323 26.0037 80.508 25.965 79.8953 26.3119C79.1326 26.7443 78.9642 27.7095 78.8945 28.5504C78.8151 29.5027 78.7609 30.4688 78.9661 31.4026C79.1713 32.3365 79.6649 33.2474 80.4896 33.7948C81.4933 34.4582 82.858 34.4812 84.004 34.0773C85.15 33.6733 86.1073 32.8922 86.9378 32.0384C87.7256 31.2287 88.4312 30.3261 88.8542 29.2984C88.9287 29.1144 88.9946 28.9194 88.9345 28.7353C88.8445 28.4593 88.528 28.3342 88.2706 28.1833C87.6695 27.8383 87.2688 27.2366 87.0607 26.6008C86.8526 25.965 86.8177 25.2888 86.811 24.6217C86.8032 23.9289 86.8013 23.1717 86.3367 22.6371C85.8721 22.1026 85.0668 21.9526 84.3331 21.9581C83.733 21.9581 82.0721 22.0124 81.6627 22.5102C81.3268 22.9242 81.8621 24.2629 81.8379 24.8554Z" fill="#BE6F72"/>
<path opacity="0.1" d="M81.8379 24.8554C81.8423 25.0391 81.8071 25.2216 81.7343 25.3918C81.4323 26.0037 80.508 25.965 79.8953 26.3119C79.1326 26.7443 78.9642 27.7095 78.8945 28.5504C78.8151 29.5027 78.7609 30.4688 78.9661 31.4026C79.1713 32.3365 79.6649 33.2474 80.4896 33.7948C81.4933 34.4582 82.858 34.4812 84.004 34.0773C85.15 33.6733 86.1073 32.8922 86.9378 32.0384C87.7256 31.2287 88.4312 30.3261 88.8542 29.2984C88.9287 29.1144 88.9946 28.9194 88.9345 28.7353C88.8445 28.4593 88.528 28.3342 88.2706 28.1833C87.6695 27.8383 87.2688 27.2366 87.0607 26.6008C86.8526 25.965 86.8177 25.2888 86.811 24.6217C86.8032 23.9289 86.8013 23.1717 86.3367 22.6371C85.8721 22.1026 85.0668 21.9526 84.3331 21.9581C83.733 21.9581 82.0721 22.0124 81.6627 22.5102C81.3268 22.9242 81.8621 24.2629 81.8379 24.8554Z" fill="black"/>
<path d="M77.0989 50.1426C77.1282 50.2848 77.1964 50.4164 77.296 50.5233C77.3896 50.596 77.4989 50.6468 77.6154 50.6716C80.7258 51.5701 84.0485 51.2118 87.2689 50.8452C86.8282 49.524 86.3847 48.188 86.2624 46.8025C86.161 45.6595 86.2747 44.4699 85.8634 43.3979C85.7421 43.0807 78.6721 44.5409 77.9746 44.6594C77.6173 44.72 77.206 44.6995 76.953 44.9784C76.6478 45.3162 76.6222 46.1204 76.59 46.5412C76.499 47.7569 76.7539 48.981 77.0989 50.1426Z" fill="#BE6F72"/>
<path d="M83.8753 64.9216C83.3119 65.1867 82.7306 65.4337 82.1287 65.655C81.8031 65.7751 81.4707 65.8876 81.1314 65.9926C80.5755 66.1642 80.0045 66.3139 79.4082 66.437C79.0683 65.5615 78.728 64.6857 78.3875 63.8096C78.1367 63.1649 77.886 62.5173 77.6766 61.8583C77.5309 61.4083 77.4112 60.9501 77.3179 60.486C77.0104 58.9084 77.0904 57.2782 77.5508 55.7395C78.8523 55.9884 80.1247 56.1505 81.4066 56.3394C82.0911 56.4347 82.7776 56.5473 83.4725 56.6798C83.527 57.1395 83.5764 57.5992 83.6209 58.0589C83.6885 58.7684 83.7439 59.4779 83.7871 60.1875C83.8829 61.7642 83.9123 63.3423 83.8753 64.9216Z" fill="#BE6F72"/>
<path opacity="0.1" d="M83.8753 64.9216C83.3119 65.1867 82.7306 65.4337 82.1287 65.655C81.8031 65.7751 81.4707 65.8876 81.1314 65.9926C80.5755 66.1642 80.0045 66.3139 79.4082 66.437C79.0683 65.5615 78.728 64.6857 78.3875 63.8096C78.1367 63.1649 77.886 62.5173 77.6766 61.8583C77.5309 61.4083 77.4112 60.9501 77.3179 60.486C77.0104 58.9084 77.0904 57.2782 77.5508 55.7395C78.8523 55.9884 80.1247 56.1505 81.4066 56.3394C82.0911 56.4347 82.7776 56.5473 83.4725 56.6798C83.527 57.1395 83.5764 57.5992 83.6209 58.0589C83.6885 58.7684 83.7439 59.4779 83.7871 60.1875C83.8829 61.7642 83.9123 63.3423 83.8753 64.9216Z" fill="black"/>
<path d="M91.2098 60.8876C91.2173 61.4505 91.0649 62.0252 90.9236 62.5774C90.9134 62.6165 90.9041 62.6546 90.8948 62.6937C90.5588 62.5836 90.269 62.3551 90.0743 62.0467C89.9738 61.8794 89.8994 61.6963 89.8541 61.5043C89.4335 61.8053 89.0091 62.1034 88.581 62.3985C87.1807 63.3661 85.7004 64.3268 84.064 65.1224C83.5065 65.3941 82.9313 65.6472 82.3357 65.874C82.2118 65.4179 82.0941 64.9588 81.9826 64.4969C81.8607 64.0213 81.7652 63.5386 81.6964 63.0514C81.5602 61.9447 81.6657 60.82 82.0049 59.7626L82.0467 59.6356C82.2046 59.1653 82.4086 58.7137 82.6553 58.2878C82.8867 57.8969 83.3448 57.9624 83.8122 58.0924C84.0241 58.15 84.2387 58.2194 84.4339 58.2624C85.6484 58.5302 86.9094 58.2536 88.1508 58.3269C88.7424 58.358 89.3222 58.5132 89.8559 58.7833C90.4534 59.099 90.9348 59.5818 91.1234 60.2494C91.1502 60.3455 91.1707 60.4435 91.1847 60.5426C91.2004 60.6568 91.2088 60.7721 91.2098 60.8876Z" fill="#BE6F72"/>
<path d="M68.8189 17.6389C66.7934 15.7946 64.4912 14.2315 62.1361 12.7699C61.5232 12.4086 60.9337 12.0135 60.3705 11.5867C59.7819 11.1257 59.2689 10.5844 58.6441 10.1694C58.0192 9.7544 57.2463 9.46945 56.4959 9.60593C55.7455 9.74241 55.0785 10.4174 55.1884 11.1238C55.2865 11.7454 55.8809 12.1714 56.4302 12.5283C57.4699 13.2042 58.5146 13.882 59.6456 14.4123C60.0385 14.5797 60.4195 14.7707 60.7864 14.984C61.4906 15.4303 62.0037 16.0906 62.5363 16.7112C64.5466 19.0588 67.0091 21.0297 69.7949 22.5209C69.8283 22.5393 70.9887 20.185 70.9396 19.8798C70.8317 19.178 69.3526 18.1258 68.8189 17.6389Z" fill="#BE6F72"/>
<path d="M85.4086 48.4258C83.9072 48.5159 82.4669 49.0007 80.9985 49.3097C79.53 49.6188 77.9344 49.7386 76.5714 49.1295L77.4003 54.5439C77.4465 54.8448 77.4945 55.153 77.4257 55.4494C77.3626 55.7324 77.1987 55.9991 77.2129 56.2883C77.2345 56.746 77.6838 57.0677 78.1068 57.2795C79.3354 57.9 80.7119 58.2034 82.1005 58.1598C81.9979 58.5562 81.8698 58.9482 81.7661 59.3446C82.4585 60.0556 83.5907 60.1033 84.5787 60.3286C85.3323 60.4989 86.0387 60.7944 86.7772 61.0026C87.6702 61.2547 88.5975 61.3783 89.5286 61.3693C90.1569 61.363 90.8228 61.2792 91.3107 60.9044C91.9107 60.4421 92.0972 59.6564 92.2272 58.9302C92.2997 58.5247 92.3666 58.1138 92.3214 57.7048C92.2724 57.2344 92.0822 56.7893 91.8938 56.3532L90.6033 53.3572C90.3688 52.8166 90.1324 52.2679 89.8498 51.7462C88.9267 50.0585 87.3951 48.3078 85.4086 48.4258Z" fill="#3F3D56"/>
<path d="M86.226 28.4691C86.3359 28.1743 86.5387 27.9252 86.8024 27.761C87.0662 27.5968 87.3759 27.5269 87.6829 27.5623C88.0541 27.6153 88.3853 27.8229 88.7036 28.0256L90.476 29.1552C90.7697 29.3337 91.0515 29.5318 91.3195 29.7484C92.5416 30.7832 93.013 32.4842 93.1476 34.0999C93.2821 35.7155 93.1476 37.3587 93.4621 38.9479C92.7142 39.5809 91.8846 40.1163 91.1367 40.7483C90.7451 41.0791 90.3489 41.4117 90.0519 41.8372C89.8162 42.1717 89.6483 42.5545 89.4024 42.8795C88.9997 43.3932 88.4155 43.7247 87.7757 43.8025C88.1812 44.0432 88.4085 44.5104 88.518 44.9757C88.6275 45.4409 88.6572 45.9233 88.7788 46.3886C88.9458 47.0206 89.2919 47.5977 89.4061 48.2421C89.4859 48.6865 89.4506 49.1423 89.4794 49.5934C89.6241 51.9274 91.4179 53.9676 91.3019 56.3025C90.4552 55.9883 89.6542 55.5583 88.9208 55.0242C88.5904 54.7825 88.2712 54.521 87.9585 54.2604L85.595 52.3036C84.4453 51.356 83.2844 50.3875 82.3704 49.1973C81.7969 48.4506 81.3292 47.6242 80.7539 46.8794C80.1786 46.1346 79.4705 45.458 78.5918 45.1453C78.4628 45.3433 78.2336 45.4807 78.1046 45.6788C78.0818 45.71 78.0637 45.7445 78.0508 45.7811C78.0351 45.8695 78.0458 45.9606 78.0814 46.0427C78.1851 46.4259 78.2473 46.8197 78.267 47.2168L78.3255 47.9294C78.3473 48.1183 78.3473 48.3091 78.3255 48.498C78.2373 49.1073 77.6842 49.5801 77.0876 49.6749C77.0013 49.6939 76.9117 49.691 76.8268 49.6664C76.6607 49.6095 76.5688 49.4304 76.5187 49.2598C76.284 48.4506 76.644 47.5968 76.6728 46.7543C76.6768 46.5406 76.6697 46.3267 76.6514 46.1137L76.5958 45.2732C76.0566 45.1585 75.7467 44.5672 75.6038 44.0243C75.2178 42.5583 74.8289 41.0412 75.0526 39.5401C75.112 39.1383 75.2159 38.7309 75.1454 38.3291C75.0526 37.7918 74.674 37.3559 74.4745 36.8498C73.8249 35.2 75.2048 33.4091 75.0767 31.638C75.0229 30.8941 74.5608 30.2478 74.2824 29.5579C74.1383 29.1558 73.9516 28.771 73.7256 28.4104C73.4417 27.9963 73.0584 27.6646 72.6863 27.331C71.5371 26.3013 70.4471 25.2047 69.4218 24.0466C68.8952 23.9908 68.4012 23.7597 68.016 23.389C67.771 23.152 67.5696 22.8393 67.5631 22.4954C67.5566 22.1514 67.8053 21.7903 68.1422 21.7723C68.3389 21.7619 68.5226 21.8614 68.7147 21.905C69.316 22.0395 69.921 21.5875 70.1892 21.0199C70.4574 20.4523 70.4574 19.7994 70.4527 19.1702C70.7466 19.1169 71.0489 19.1418 71.3306 19.2426C71.6123 19.3433 71.8638 19.5165 72.0609 19.7454C72.4757 20.2059 72.7457 20.7802 73.0723 21.3089C73.2053 21.5439 73.3759 21.7543 73.5771 21.9315C74.0235 22.2935 74.6666 22.3617 75.0563 22.7844C75.2539 23.0004 75.3634 23.2866 75.5444 23.5178C76.0529 24.1688 76.9836 24.2484 77.6787 24.6768C78.3737 25.1051 78.8572 25.8878 79.6274 26.1418C79.9058 26.2365 80.2092 26.2489 80.4848 26.354C81.1214 26.5957 81.5102 27.2865 81.5983 27.9735C81.6865 28.6605 81.5362 29.3551 81.384 30.0317L81.0267 31.6152C80.9478 31.9658 80.8875 32.3875 81.1408 32.6377C81.2606 32.7388 81.4011 32.8111 81.5519 32.849C82.2015 33.0651 82.9253 33.2773 83.5359 32.9713C83.8245 32.8253 84.0509 32.5789 84.2578 32.3269C85.1635 31.2371 85.7657 29.81 86.226 28.4691Z" fill="#6C63FF"/>
<path d="M93.9794 60.693C93.8356 61.5764 93.3105 62.4453 92.4509 62.8498C91.9355 63.0853 91.3408 63.1234 90.7953 62.956C90.4184 62.8473 90.0936 62.6215 89.8753 62.3169C89.7625 62.1516 89.6792 61.9707 89.6283 61.781C89.6283 61.7714 89.6231 61.7608 89.621 61.7511C89.5427 61.4095 89.5102 61.0603 89.5241 60.7113C89.5239 60.1695 89.5587 59.6282 89.6283 59.0903C89.6865 58.6374 89.7826 58.1894 89.9159 57.7503C90.1097 57.1237 90.3889 56.5203 90.6452 55.9159C90.7786 55.5973 90.9068 55.2778 91.012 54.9505C91.0756 54.7574 91.1297 54.5585 91.1735 54.3577L91.1891 54.2853C91.1975 54.2447 91.2048 54.2042 91.212 54.1636C91.3162 53.6133 91.3465 53.0437 91.6142 52.5465C92.2394 51.3793 93.4563 51.6776 93.6418 52.7541C93.6558 52.8375 93.6638 52.9217 93.6658 53.0061C93.6939 54.3683 93.1104 55.6997 93.3772 57.0667C93.4524 57.4001 93.547 57.7295 93.6606 58.0534C93.7543 58.3518 93.8387 58.6539 93.9033 58.96C94.0342 59.5295 94.0599 60.1155 93.9794 60.693Z" fill="#BE6F72"/>
<path d="M94.4446 45.6435C94.4708 46.1876 94.4447 46.7383 94.557 47.2721C94.8195 48.5336 95.8162 49.65 95.7058 50.9322C95.6787 51.2447 95.5595 51.5808 95.2786 51.7352C94.9977 51.8896 94.5328 51.8774 94.4408 52.188C94.4146 52.2746 94.4282 52.3688 94.3991 52.4544C94.3381 52.6371 94.1085 52.7152 93.9148 52.7105C93.7211 52.7058 93.5274 52.6436 93.3269 52.6597C92.6246 52.7171 92.3669 53.6302 91.7412 53.9437C91.3199 54.1546 90.7726 54.0378 90.4248 53.7262C90.0771 53.4146 89.925 52.9289 89.9521 52.4685C89.9725 52.1212 90.0858 51.786 90.1459 51.4434C90.2553 50.8324 90.1982 50.2064 90.141 49.5889C90.0568 48.6842 89.9696 47.7682 89.6635 46.9106C89.5192 46.5058 89.3274 46.1189 89.2024 45.7085C89.0242 45.1276 88.9835 44.5167 88.9651 43.9114C88.9273 42.6377 89.0174 41.2755 89.8001 40.2513C90.388 39.4831 91.2307 38.859 91.8962 38.1482C92.3127 37.7029 92.4328 37.5636 92.8929 37.9411C93.2716 38.2508 93.6678 38.6782 93.7104 39.0981C93.8267 40.1741 93.7104 41.2322 93.9177 42.328C94.125 43.4237 94.3904 44.5186 94.4446 45.6435Z" fill="#6C63FF"/>
<path d="M84.7353 24.7731C87.3784 24.7731 89.521 22.6305 89.521 19.9874C89.521 17.3443 87.3784 15.2017 84.7353 15.2017C82.0922 15.2017 79.9496 17.3443 79.9496 19.9874C79.9496 22.6305 82.0922 24.7731 84.7353 24.7731Z" fill="#BE6F72"/>
<path d="M89.0913 29.1605C89.1954 29.0129 89.319 28.854 89.4956 28.823C89.629 28.8128 89.7624 28.8412 89.8804 28.9048L91.1288 29.4322C91.4662 28.8687 91.6651 28.2317 91.7088 27.5745C91.7349 27.1712 91.7033 26.7622 91.7795 26.3655C91.8929 25.777 92.2378 25.2496 92.3177 24.6554C92.3809 24.176 92.2666 23.6937 92.1978 23.2152C91.9858 21.7373 92.2136 20.2293 92.0918 18.7411C91.97 17.2529 91.3798 15.6585 90.0673 14.975C89.6955 14.787 89.2948 14.6741 88.9082 14.5256C88.0465 14.1937 87.274 13.6626 86.4226 13.3034C85.5711 12.9443 84.5709 12.7798 83.7455 13.1925C82.9201 13.6052 82.4395 14.7663 82.9758 15.524C83.1525 15.7731 83.4109 15.9499 83.6581 16.1295C84.161 16.4933 84.6741 16.9427 84.7903 17.5575C84.9985 18.664 83.8608 19.5318 83.5401 20.6138C83.4217 21.0364 83.4111 21.4824 83.5094 21.9103C83.6479 22.5514 83.9863 23.1569 83.9742 23.8131C83.9649 24.5323 83.5391 25.1838 83.4592 25.8992C83.4304 26.1615 83.4481 26.4276 83.4155 26.6889C83.3582 27.0337 83.2573 27.3695 83.1153 27.6883C82.3716 29.5685 81.6178 31.4685 80.5126 33.1588C81.6958 33.1791 82.8656 32.9026 83.9175 32.3541C83.7663 33.0788 83.4768 33.7666 83.0651 34.3791C84.0108 34.2684 84.9206 33.9473 85.7291 33.439C85.5329 34.1495 85.2487 34.8321 84.8833 35.4706C84.9149 35.4161 85.4995 35.2826 85.6074 35.2205C85.829 35.0931 86.0073 34.9006 86.1186 34.6687C86.4347 34.0971 86.6317 33.408 86.9245 32.8138C87.5506 31.5402 88.2751 30.3187 89.0913 29.1605V29.1605Z" fill="#3F3D56"/>
<path d="M52.7487 0.563407C52.4996 0.585803 52.249 0.591019 51.9991 0.57901C51.9565 0.574854 51.9138 0.5858 51.8801 0.609489C51.8465 0.633178 51.8246 0.667716 51.8192 0.705667L51.3411 3.90699C51.3043 4.13938 51.1977 4.35854 51.0326 4.5412C50.8965 4.68656 50.7953 4.85535 50.7354 5.03707C50.6754 5.2188 50.658 5.40959 50.6841 5.5976V11.0356C50.6841 11.0356 50.6532 11.7607 51.2773 11.7607C52.0243 11.8445 52.78 11.8445 53.527 11.7607C53.527 11.7607 54.0267 11.6763 54.0267 11.0072V5.65267C54.0648 5.46585 54.057 5.27388 54.0037 5.09004C53.9505 4.9062 53.853 4.7349 53.7182 4.58801C53.5587 4.40468 53.4556 4.18732 53.419 3.95747L52.9224 0.689147C52.9168 0.652401 52.8957 0.618952 52.8634 0.595596C52.8311 0.57224 52.7901 0.560731 52.7487 0.563407Z" fill="#3F3D56"/>
<path d="M52.4319 5.63025H51.7279C51.1449 5.63025 50.6723 6.13334 50.6723 6.75393V9.5738C50.6723 10.1944 51.1449 10.6975 51.7279 10.6975H52.4319C53.0148 10.6975 53.4874 10.1944 53.4874 9.5738V6.75393C53.4874 6.13334 53.0148 5.63025 52.4319 5.63025Z" fill="#6C63FF"/>
<path d="M59.1589 5.63063C58.9514 5.65303 58.7425 5.65824 58.5343 5.64623C58.4988 5.64208 58.4632 5.65302 58.4351 5.67671C58.4071 5.7004 58.3888 5.73494 58.3843 5.77289L57.9859 8.97421C57.9552 9.2066 57.8664 9.42576 57.7289 9.60842C57.6154 9.75378 57.5311 9.92257 57.4812 10.1043C57.4312 10.286 57.4166 10.4768 57.4384 10.6648V16.1028C57.4384 16.1028 57.4127 16.8279 57.9328 16.8279C58.5552 16.9117 59.185 16.9117 59.8075 16.8279C59.8075 16.8279 60.2239 16.7435 60.2239 16.0744V10.7199C60.2557 10.5331 60.2492 10.3411 60.2048 10.1573C60.1604 9.97342 60.0792 9.80212 59.9669 9.65523C59.8339 9.4719 59.748 9.25455 59.7175 9.02469L59.3037 5.75637C59.299 5.71963 59.2814 5.68618 59.2545 5.66282C59.2276 5.63946 59.1934 5.62795 59.1589 5.63063Z" fill="#3F3D56"/>
<path d="M59.1882 10.6975H58.4841C57.9012 10.6975 57.4286 11.1447 57.4286 11.6963V14.2029C57.4286 14.7545 57.9012 15.2017 58.4841 15.2017H59.1882C59.7711 15.2017 60.2437 14.7545 60.2437 14.2029V11.6963C60.2437 11.1447 59.7711 10.6975 59.1882 10.6975Z" fill="#6C63FF"/>
</svg>
