<svg width="702" height="388" viewBox="0 0 702 388" fill="none" xmlns="http://www.w3.org/2000/svg">
<rect width="702" height="388" fill="white"/>
<path d="M75.96 109.48V106H56.2V134H60.2V122.68H74.24V119.24H60.2V109.48H75.96ZM82.56 108.72C84.08 108.72 85.16 107.6 85.16 106.16C85.16 104.8 84.04 103.72 82.56 103.72C81.08 103.72 79.96 104.84 79.96 106.24C79.96 107.64 81.08 108.72 82.56 108.72ZM80.64 134H84.48V112.8H80.64V134ZM91.8119 134H95.6519V104.32H91.8119V134ZM114.212 130C113.412 130.64 112.332 131 111.212 131C109.092 131 107.892 129.72 107.892 127.44V115.96H113.972V112.8H107.892V108.16H104.052V112.8H100.452V115.96H104.052V127.6C104.052 131.88 106.492 134.24 110.772 134.24C112.492 134.24 114.252 133.76 115.412 132.76L114.212 130ZM138.511 123.52C138.511 117 134.151 112.6 128.031 112.6C121.911 112.6 117.391 117.12 117.391 123.4C117.391 129.72 121.951 134.24 128.791 134.24C132.311 134.24 135.231 133.04 137.151 130.8L135.031 128.32C133.471 130.04 131.391 130.88 128.911 130.88C124.711 130.88 121.711 128.4 121.231 124.68H138.431C138.471 124.32 138.511 123.84 138.511 123.52ZM128.031 115.84C131.751 115.84 134.431 118.36 134.831 121.92H121.231C121.631 118.32 124.351 115.84 128.031 115.84ZM147.523 116.36V112.8H143.843V134H147.683V123.44C147.683 118.8 150.243 116.28 154.363 116.28C154.643 116.28 154.923 116.28 155.243 116.32V112.6C151.523 112.6 148.883 113.88 147.523 116.36ZM178.941 123.52C178.941 117 174.581 112.6 168.461 112.6C162.341 112.6 157.821 117.12 157.821 123.4C157.821 129.72 162.381 134.24 169.221 134.24C172.741 134.24 175.661 133.04 177.581 130.8L175.461 128.32C173.901 130.04 171.821 130.88 169.341 130.88C165.141 130.88 162.141 128.4 161.661 124.68H178.861C178.901 124.32 178.941 123.84 178.941 123.52ZM168.461 115.84C172.181 115.84 174.861 118.36 175.261 121.92H161.661C162.061 118.32 164.781 115.84 168.461 115.84ZM200.433 104.32V116C198.673 113.72 196.033 112.6 193.033 112.6C186.833 112.6 182.313 116.92 182.313 123.4C182.313 129.88 186.833 134.24 193.033 134.24C196.153 134.24 198.873 133.04 200.593 130.64V134H204.273V104.32H200.433ZM193.353 130.88C189.273 130.88 186.193 127.92 186.193 123.4C186.193 118.88 189.273 115.96 193.353 115.96C197.393 115.96 200.473 118.88 200.473 123.4C200.473 127.92 197.393 130.88 193.353 130.88ZM231.001 134.32C238.401 134.32 241.841 130.64 241.841 126.36C241.841 116.08 224.881 120.36 224.881 113.52C224.881 111.08 226.921 109.08 231.681 109.08C234.161 109.08 236.921 109.8 239.361 111.36L240.681 108.16C238.361 106.56 234.961 105.68 231.681 105.68C224.321 105.68 220.961 109.36 220.961 113.68C220.961 124.08 237.921 119.76 237.921 126.6C237.921 129.04 235.841 130.92 231.001 130.92C227.401 130.92 223.841 129.56 221.761 127.68L220.281 130.8C222.521 132.88 226.721 134.32 231.001 134.32ZM266.284 123.52C266.284 117 261.924 112.6 255.804 112.6C249.684 112.6 245.164 117.12 245.164 123.4C245.164 129.72 249.724 134.24 256.564 134.24C260.084 134.24 263.004 133.04 264.924 130.8L262.804 128.32C261.244 130.04 259.164 130.88 256.684 130.88C252.484 130.88 249.484 128.4 249.004 124.68H266.204C266.244 124.32 266.284 123.84 266.284 123.52ZM255.804 115.84C259.524 115.84 262.204 118.36 262.604 121.92H249.004C249.404 118.32 252.124 115.84 255.804 115.84ZM278.751 112.6C275.351 112.6 272.191 113.56 269.991 115.32L271.591 118.2C273.231 116.8 275.791 115.92 278.311 115.92C282.111 115.92 283.991 117.8 283.991 121.04V121.8H277.911C271.591 121.8 269.391 124.6 269.391 128C269.391 131.68 272.431 134.24 277.231 134.24C280.551 134.24 282.911 133.12 284.191 131.2V134H287.831V121.2C287.831 115.4 284.551 112.6 278.751 112.6ZM277.871 131.28C274.951 131.28 273.191 129.96 273.191 127.84C273.191 126.04 274.271 124.56 278.071 124.56H283.991V127.52C283.031 129.96 280.751 131.28 277.871 131.28ZM298.617 116.36V112.8H294.937V134H298.777V123.44C298.777 118.8 301.337 116.28 305.457 116.28C305.737 116.28 306.017 116.28 306.337 116.32V112.6C302.617 112.6 299.977 113.88 298.617 116.36ZM320.114 134.24C323.914 134.24 327.074 132.64 328.754 129.68L325.834 127.84C324.474 129.92 322.394 130.88 320.074 130.88C315.914 130.88 312.794 128 312.794 123.4C312.794 118.88 315.914 115.96 320.074 115.96C322.394 115.96 324.474 116.92 325.834 119L328.754 117.12C327.074 114.16 323.914 112.6 320.114 112.6C313.594 112.6 308.914 117.08 308.914 123.4C308.914 129.72 313.594 134.24 320.114 134.24ZM344.773 112.6C341.533 112.6 338.893 113.76 337.293 115.8V104.32H333.453V134H337.293V123.08C337.293 118.48 339.933 116.04 344.013 116.04C347.653 116.04 349.733 118.08 349.733 122.24V134H353.573V121.8C353.573 115.56 349.933 112.6 344.773 112.6Z" fill="black"/>
<path d="M58.078 181H70.66V179.272H60.076V162.1H58.078V181ZM79.1665 181.135C83.3245 181.135 86.3755 178.111 86.3755 173.899C86.3755 169.687 83.3245 166.69 79.1665 166.69C75.0085 166.69 71.9305 169.687 71.9305 173.899C71.9305 178.111 75.0085 181.135 79.1665 181.135ZM79.1665 179.434C76.1425 179.434 73.8745 177.22 73.8745 173.899C73.8745 170.578 76.1425 168.364 79.1665 168.364C82.1905 168.364 84.4315 170.578 84.4315 173.899C84.4315 177.22 82.1905 179.434 79.1665 179.434ZM92.1252 169.579V166.798H90.2892V181H92.2062V173.764C92.2062 170.416 94.0152 168.526 96.9852 168.526C97.1202 168.526 97.2822 168.553 97.4442 168.553V166.69C94.8252 166.69 93.0162 167.689 92.1252 169.579ZM113.176 173.899C113.176 169.633 110.287 166.69 106.291 166.69C102.295 166.69 99.3524 169.687 99.3524 173.899C99.3524 178.111 102.376 181.135 106.804 181.135C109.045 181.135 111.016 180.325 112.285 178.813L111.205 177.571C110.125 178.813 108.586 179.434 106.858 179.434C103.753 179.434 101.485 177.463 101.269 174.493H113.149C113.149 174.277 113.176 174.061 113.176 173.899ZM106.291 168.337C109.072 168.337 111.097 170.281 111.34 173.062H101.269C101.512 170.281 103.537 168.337 106.291 168.337ZM134.79 166.69C132.225 166.69 130.2 167.851 129.174 169.687C128.31 167.689 126.474 166.69 124.125 166.69C121.749 166.69 119.913 167.689 118.914 169.39V166.798H117.078V181H118.995V173.548C118.995 170.308 120.858 168.418 123.747 168.418C126.339 168.418 127.851 169.957 127.851 172.954V181H129.768V173.548C129.768 170.308 131.604 168.418 134.52 168.418C137.085 168.418 138.597 169.957 138.597 172.954V181H140.514V172.765C140.514 168.688 138.246 166.69 134.79 166.69ZM153.751 163.693C154.561 163.693 155.155 163.072 155.155 162.289C155.155 161.56 154.534 160.966 153.751 160.966C152.968 160.966 152.347 161.587 152.347 162.316C152.347 163.072 152.968 163.693 153.751 163.693ZM152.779 181H154.696V166.798H152.779V181ZM167.347 166.69C164.998 166.69 163.027 167.716 161.866 169.606V166.798H160.03V186.238H161.947V178.327C163.135 180.163 165.079 181.135 167.347 181.135C171.397 181.135 174.421 178.219 174.421 173.899C174.421 169.606 171.397 166.69 167.347 166.69ZM167.212 179.434C164.188 179.434 161.92 177.22 161.92 173.899C161.92 170.605 164.188 168.364 167.212 168.364C170.209 168.364 172.504 170.605 172.504 173.899C172.504 177.22 170.209 179.434 167.212 179.434ZM182.136 181.135C185.835 181.135 187.995 179.542 187.995 177.085C187.995 171.631 178.788 174.52 178.788 170.686C178.788 169.336 179.922 168.337 182.487 168.337C183.945 168.337 185.43 168.688 186.672 169.552L187.509 168.013C186.321 167.203 184.323 166.69 182.487 166.69C178.869 166.69 176.871 168.418 176.871 170.74C176.871 176.356 186.078 173.44 186.078 177.139C186.078 178.543 184.971 179.461 182.271 179.461C180.273 179.461 178.356 178.759 177.222 177.868L176.358 179.38C177.519 180.379 179.787 181.135 182.136 181.135ZM202.42 166.798V174.25C202.42 177.49 200.557 179.407 197.587 179.407C194.887 179.407 193.321 177.868 193.321 174.844V166.798H191.404V175.033C191.404 179.11 193.78 181.135 197.398 181.135C199.666 181.135 201.502 180.136 202.501 178.408V181H204.337V166.798H202.42ZM227.418 166.69C224.853 166.69 222.828 167.851 221.802 169.687C220.938 167.689 219.102 166.69 216.753 166.69C214.377 166.69 212.541 167.689 211.542 169.39V166.798H209.706V181H211.623V173.548C211.623 170.308 213.486 168.418 216.375 168.418C218.967 168.418 220.479 169.957 220.479 172.954V181H222.396V173.548C222.396 170.308 224.232 168.418 227.148 168.418C229.713 168.418 231.225 169.957 231.225 172.954V181H233.142V172.765C233.142 168.688 230.874 166.69 227.418 166.69ZM256.45 160.966V169.498C255.262 167.662 253.318 166.69 251.05 166.69C247 166.69 243.976 169.606 243.976 173.899C243.976 178.192 247 181.135 251.05 181.135C253.399 181.135 255.37 180.109 256.531 178.192V181H258.367V160.966H256.45ZM251.212 179.434C248.188 179.434 245.92 177.22 245.92 173.899C245.92 170.578 248.188 168.364 251.212 168.364C254.209 168.364 256.477 170.578 256.477 173.899C256.477 177.22 254.209 179.434 251.212 179.434ZM269.511 181.135C273.669 181.135 276.72 178.111 276.72 173.899C276.72 169.687 273.669 166.69 269.511 166.69C265.353 166.69 262.275 169.687 262.275 173.899C262.275 178.111 265.353 181.135 269.511 181.135ZM269.511 179.434C266.487 179.434 264.219 177.22 264.219 173.899C264.219 170.578 266.487 168.364 269.511 168.364C272.535 168.364 274.776 170.578 274.776 173.899C274.776 177.22 272.535 179.434 269.511 179.434ZM280.634 181H282.551V160.966H280.634V181ZM293.69 181.135C297.848 181.135 300.899 178.111 300.899 173.899C300.899 169.687 297.848 166.69 293.69 166.69C289.532 166.69 286.454 169.687 286.454 173.899C286.454 178.111 289.532 181.135 293.69 181.135ZM293.69 179.434C290.666 179.434 288.398 177.22 288.398 173.899C288.398 170.578 290.666 168.364 293.69 168.364C296.714 168.364 298.955 170.578 298.955 173.899C298.955 177.22 296.714 179.434 293.69 179.434ZM306.649 169.579V166.798H304.813V181H306.73V173.764C306.73 170.416 308.539 168.526 311.509 168.526C311.644 168.526 311.806 168.553 311.968 168.553V166.69C309.349 166.69 307.54 167.689 306.649 169.579ZM326.523 181.135C330.222 181.135 332.382 179.542 332.382 177.085C332.382 171.631 323.175 174.52 323.175 170.686C323.175 169.336 324.309 168.337 326.874 168.337C328.332 168.337 329.817 168.688 331.059 169.552L331.896 168.013C330.708 167.203 328.71 166.69 326.874 166.69C323.256 166.69 321.258 168.418 321.258 170.74C321.258 176.356 330.465 173.44 330.465 177.139C330.465 178.543 329.358 179.461 326.658 179.461C324.66 179.461 322.743 178.759 321.609 177.868L320.745 179.38C321.906 180.379 324.174 181.135 326.523 181.135ZM336.898 163.693C337.708 163.693 338.302 163.072 338.302 162.289C338.302 161.56 337.681 160.966 336.898 160.966C336.115 160.966 335.494 161.587 335.494 162.316C335.494 163.072 336.115 163.693 336.898 163.693ZM335.926 181H337.843V166.798H335.926V181ZM349.981 178.759C349.441 179.245 348.658 179.488 347.875 179.488C346.282 179.488 345.418 178.57 345.418 176.896V168.418H349.738V166.798H345.418V163.693H343.501V166.798H340.963V168.418H343.501V177.004C343.501 179.623 344.986 181.135 347.659 181.135C348.766 181.135 349.9 180.811 350.656 180.136L349.981 178.759ZM366.18 166.69C363.939 166.69 361.833 167.392 360.402 168.607L361.266 170.038C362.427 169.012 364.155 168.364 365.991 168.364C368.637 168.364 370.014 169.687 370.014 172.117V172.981H365.505C361.428 172.981 360.024 174.817 360.024 177.004C360.024 179.461 361.995 181.135 365.208 181.135C367.557 181.135 369.231 180.244 370.095 178.786V181H371.931V172.198C371.931 168.526 369.852 166.69 366.18 166.69ZM365.505 179.623C363.237 179.623 361.914 178.597 361.914 176.95C361.914 175.492 362.805 174.412 365.559 174.412H370.014V176.734C369.258 178.597 367.665 179.623 365.505 179.623ZM394.85 166.69C392.285 166.69 390.26 167.851 389.234 169.687C388.37 167.689 386.534 166.69 384.185 166.69C381.809 166.69 379.973 167.689 378.974 169.39V166.798H377.138V181H379.055V173.548C379.055 170.308 380.918 168.418 383.807 168.418C386.399 168.418 387.911 169.957 387.911 172.954V181H389.828V173.548C389.828 170.308 391.664 168.418 394.58 168.418C397.145 168.418 398.657 169.957 398.657 172.954V181H400.574V172.765C400.574 168.688 398.306 166.69 394.85 166.69ZM418.218 173.899C418.218 169.633 415.329 166.69 411.333 166.69C407.337 166.69 404.394 169.687 404.394 173.899C404.394 178.111 407.418 181.135 411.846 181.135C414.087 181.135 416.058 180.325 417.327 178.813L416.247 177.571C415.167 178.813 413.628 179.434 411.9 179.434C408.795 179.434 406.527 177.463 406.311 174.493H418.191C418.191 174.277 418.218 174.061 418.218 173.899ZM411.333 168.337C414.114 168.337 416.139 170.281 416.382 173.062H406.311C406.554 170.281 408.579 168.337 411.333 168.337ZM428.924 178.759C428.384 179.245 427.601 179.488 426.818 179.488C425.225 179.488 424.361 178.57 424.361 176.896V168.418H428.681V166.798H424.361V163.693H422.444V166.798H419.906V168.418H422.444V177.004C422.444 179.623 423.929 181.135 426.602 181.135C427.709 181.135 428.843 180.811 429.599 180.136L428.924 178.759ZM433.569 178.192C432.759 178.192 432.138 178.813 432.138 179.65C432.138 180.352 432.543 180.865 433.11 181.027L432.192 184.942H433.488L434.622 181.216C434.892 180.46 435 180.109 435 179.65C435 178.84 434.406 178.192 433.569 178.192ZM452.027 181.135C454.43 181.135 456.455 180.163 457.589 178.327L456.158 177.355C455.186 178.786 453.674 179.434 452.027 179.434C448.922 179.434 446.654 177.247 446.654 173.899C446.654 170.578 448.922 168.364 452.027 168.364C453.674 168.364 455.186 169.039 456.158 170.47L457.589 169.498C456.455 167.635 454.43 166.69 452.027 166.69C447.788 166.69 444.71 169.66 444.71 173.899C444.71 178.138 447.788 181.135 452.027 181.135ZM466.922 181.135C471.08 181.135 474.131 178.111 474.131 173.899C474.131 169.687 471.08 166.69 466.922 166.69C462.764 166.69 459.686 169.687 459.686 173.899C459.686 178.111 462.764 181.135 466.922 181.135ZM466.922 179.434C463.898 179.434 461.63 177.22 461.63 173.899C461.63 170.578 463.898 168.364 466.922 168.364C469.946 168.364 472.187 170.578 472.187 173.899C472.187 177.22 469.946 179.434 466.922 179.434ZM485.281 166.69C482.824 166.69 480.907 167.689 479.881 169.417V166.798H478.045V181H479.962V173.548C479.962 170.308 481.879 168.418 484.93 168.418C487.63 168.418 489.196 169.957 489.196 172.954V181H491.113V172.765C491.113 168.688 488.737 166.69 485.281 166.69ZM500.125 181.135C503.824 181.135 505.984 179.542 505.984 177.085C505.984 171.631 496.777 174.52 496.777 170.686C496.777 169.336 497.911 168.337 500.476 168.337C501.934 168.337 503.419 168.688 504.661 169.552L505.498 168.013C504.31 167.203 502.312 166.69 500.476 166.69C496.858 166.69 494.86 168.418 494.86 170.74C494.86 176.356 504.067 173.44 504.067 177.139C504.067 178.543 502.96 179.461 500.26 179.461C498.262 179.461 496.345 178.759 495.211 177.868L494.347 179.38C495.508 180.379 497.776 181.135 500.125 181.135ZM521.92 173.899C521.92 169.633 519.031 166.69 515.035 166.69C511.039 166.69 508.096 169.687 508.096 173.899C508.096 178.111 511.12 181.135 515.548 181.135C517.789 181.135 519.76 180.325 521.029 178.813L519.949 177.571C518.869 178.813 517.33 179.434 515.602 179.434C512.497 179.434 510.229 177.463 510.013 174.493H521.893C521.893 174.277 521.92 174.061 521.92 173.899ZM515.035 168.337C517.816 168.337 519.841 170.281 520.084 173.062H510.013C510.256 170.281 512.281 168.337 515.035 168.337ZM531.708 181.135C534.111 181.135 536.136 180.163 537.27 178.327L535.839 177.355C534.867 178.786 533.355 179.434 531.708 179.434C528.603 179.434 526.335 177.247 526.335 173.899C526.335 170.578 528.603 168.364 531.708 168.364C533.355 168.364 534.867 169.039 535.839 170.47L537.27 169.498C536.136 167.635 534.111 166.69 531.708 166.69C527.469 166.69 524.391 169.66 524.391 173.899C524.391 178.138 527.469 181.135 531.708 181.135ZM547.998 178.759C547.458 179.245 546.675 179.488 545.892 179.488C544.299 179.488 543.435 178.57 543.435 176.896V168.418H547.755V166.798H543.435V163.693H541.518V166.798H538.98V168.418H541.518V177.004C541.518 179.623 543.003 181.135 545.676 181.135C546.783 181.135 547.917 180.811 548.673 180.136L547.998 178.759ZM564.055 173.899C564.055 169.633 561.166 166.69 557.17 166.69C553.174 166.69 550.231 169.687 550.231 173.899C550.231 178.111 553.255 181.135 557.683 181.135C559.924 181.135 561.895 180.325 563.164 178.813L562.084 177.571C561.004 178.813 559.465 179.434 557.737 179.434C554.632 179.434 552.364 177.463 552.148 174.493H564.028C564.028 174.277 564.055 174.061 564.055 173.899ZM557.17 168.337C559.951 168.337 561.976 170.281 562.219 173.062H552.148C552.391 170.281 554.416 168.337 557.17 168.337ZM574.761 178.759C574.221 179.245 573.438 179.488 572.655 179.488C571.062 179.488 570.198 178.57 570.198 176.896V168.418H574.518V166.798H570.198V163.693H568.281V166.798H565.743V168.418H568.281V177.004C568.281 179.623 569.766 181.135 572.439 181.135C573.546 181.135 574.68 180.811 575.436 180.136L574.761 178.759ZM589.807 166.798V174.25C589.807 177.49 587.944 179.407 584.974 179.407C582.274 179.407 580.708 177.868 580.708 174.844V166.798H578.791V175.033C578.791 179.11 581.167 181.135 584.785 181.135C587.053 181.135 588.889 180.136 589.888 178.408V181H591.724V166.798H589.807ZM598.929 169.579V166.798H597.093V181H599.01V173.764C599.01 170.416 600.819 168.526 603.789 168.526C603.924 168.526 604.086 168.553 604.248 168.553V166.69C601.629 166.69 599.82 167.689 598.929 169.579ZM62.641 199.69C60.4 199.69 58.294 200.392 56.863 201.607L57.727 203.038C58.888 202.012 60.616 201.364 62.452 201.364C65.098 201.364 66.475 202.687 66.475 205.117V205.981H61.966C57.889 205.981 56.485 207.817 56.485 210.004C56.485 212.461 58.456 214.135 61.669 214.135C64.018 214.135 65.692 213.244 66.556 211.786V214H68.392V205.198C68.392 201.526 66.313 199.69 62.641 199.69ZM61.966 212.623C59.698 212.623 58.375 211.597 58.375 209.95C58.375 208.492 59.266 207.412 62.02 207.412H66.475V209.734C65.719 211.597 64.126 212.623 61.966 212.623ZM84.6945 193.966V202.498C83.5065 200.662 81.5625 199.69 79.2945 199.69C75.2445 199.69 72.2205 202.606 72.2205 206.899C72.2205 211.192 75.2445 214.135 79.2945 214.135C81.6435 214.135 83.6145 213.109 84.7755 211.192V214H86.6115V193.966H84.6945ZM79.4565 212.434C76.4325 212.434 74.1645 210.22 74.1645 206.899C74.1645 203.578 76.4325 201.364 79.4565 201.364C82.4535 201.364 84.7215 203.578 84.7215 206.899C84.7215 210.22 82.4535 212.434 79.4565 212.434ZM92.9223 196.693C93.7323 196.693 94.3263 196.072 94.3263 195.289C94.3263 194.56 93.7053 193.966 92.9223 193.966C92.1393 193.966 91.5183 194.587 91.5183 195.316C91.5183 196.072 92.1393 196.693 92.9223 196.693ZM91.9503 214H93.8673V199.798H91.9503V214ZM106.518 199.69C104.169 199.69 102.198 200.716 101.037 202.606V199.798H99.2013V219.238H101.118V211.327C102.306 213.163 104.25 214.135 106.518 214.135C110.568 214.135 113.592 211.219 113.592 206.899C113.592 202.606 110.568 199.69 106.518 199.69ZM106.383 212.434C103.359 212.434 101.091 210.22 101.091 206.899C101.091 203.605 103.359 201.364 106.383 201.364C109.38 201.364 111.675 203.605 111.675 206.899C111.675 210.22 109.38 212.434 106.383 212.434ZM118.472 196.693C119.282 196.693 119.876 196.072 119.876 195.289C119.876 194.56 119.255 193.966 118.472 193.966C117.689 193.966 117.068 194.587 117.068 195.316C117.068 196.072 117.689 196.693 118.472 196.693ZM117.5 214H119.417V199.798H117.5V214ZM128.558 214.135C132.257 214.135 134.417 212.542 134.417 210.085C134.417 204.631 125.21 207.52 125.21 203.686C125.21 202.336 126.344 201.337 128.909 201.337C130.367 201.337 131.852 201.688 133.094 202.552L133.931 201.013C132.743 200.203 130.745 199.69 128.909 199.69C125.291 199.69 123.293 201.418 123.293 203.74C123.293 209.356 132.5 206.44 132.5 210.139C132.5 211.543 131.393 212.461 128.693 212.461C126.695 212.461 124.778 211.759 123.644 210.868L122.78 212.38C123.941 213.379 126.209 214.135 128.558 214.135ZM143.847 214.135C146.25 214.135 148.275 213.163 149.409 211.327L147.978 210.355C147.006 211.786 145.494 212.434 143.847 212.434C140.742 212.434 138.474 210.247 138.474 206.899C138.474 203.578 140.742 201.364 143.847 201.364C145.494 201.364 147.006 202.039 147.978 203.47L149.409 202.498C148.275 200.635 146.25 199.69 143.847 199.69C139.608 199.69 136.53 202.66 136.53 206.899C136.53 211.138 139.608 214.135 143.847 214.135ZM154.147 196.693C154.957 196.693 155.551 196.072 155.551 195.289C155.551 194.56 154.93 193.966 154.147 193.966C153.364 193.966 152.743 194.587 152.743 195.316C152.743 196.072 153.364 196.693 154.147 196.693ZM153.175 214H155.092V199.798H153.175V214ZM167.662 199.69C165.205 199.69 163.288 200.689 162.262 202.417V199.798H160.426V214H162.343V206.548C162.343 203.308 164.26 201.418 167.311 201.418C170.011 201.418 171.577 202.957 171.577 205.954V214H173.494V205.765C173.494 201.688 171.118 199.69 167.662 199.69ZM190.064 199.798V202.525C188.876 200.662 186.824 199.69 184.448 199.69C180.398 199.69 177.32 202.471 177.32 206.548C177.32 210.625 180.398 213.46 184.448 213.46C186.77 213.46 188.795 212.515 189.983 210.706V212.515C189.983 216.025 188.336 217.672 184.745 217.672C182.558 217.672 180.506 216.943 179.156 215.728L178.184 217.186C179.669 218.59 182.207 219.373 184.799 219.373C189.497 219.373 191.9 217.159 191.9 212.272V199.798H190.064ZM184.637 211.759C181.505 211.759 179.264 209.626 179.264 206.548C179.264 203.47 181.505 201.364 184.637 201.364C187.769 201.364 190.037 203.47 190.037 206.548C190.037 209.626 187.769 211.759 184.637 211.759ZM216.72 206.899C216.72 202.633 213.831 199.69 209.835 199.69C205.839 199.69 202.896 202.687 202.896 206.899C202.896 211.111 205.92 214.135 210.348 214.135C212.589 214.135 214.56 213.325 215.829 211.813L214.749 210.571C213.669 211.813 212.13 212.434 210.402 212.434C207.297 212.434 205.029 210.463 204.813 207.493H216.693C216.693 207.277 216.72 207.061 216.72 206.899ZM209.835 201.337C212.616 201.337 214.641 203.281 214.884 206.062H204.813C205.056 203.281 207.081 201.337 209.835 201.337ZM220.622 214H222.539V193.966H220.622V214ZM228.845 196.693C229.655 196.693 230.249 196.072 230.249 195.289C230.249 194.56 229.628 193.966 228.845 193.966C228.062 193.966 227.441 194.587 227.441 195.316C227.441 196.072 228.062 196.693 228.845 196.693ZM227.873 214H229.79V199.798H227.873V214ZM241.928 211.759C241.388 212.245 240.605 212.488 239.822 212.488C238.229 212.488 237.365 211.57 237.365 209.896V201.418H241.685V199.798H237.365V196.693H235.448V199.798H232.91V201.418H235.448V210.004C235.448 212.623 236.933 214.135 239.606 214.135C240.713 214.135 241.847 213.811 242.603 213.136L241.928 211.759ZM246.573 211.192C245.763 211.192 245.142 211.813 245.142 212.65C245.142 213.352 245.547 213.865 246.114 214.027L245.196 217.942H246.492L247.626 214.216C247.896 213.46 248.004 213.109 248.004 212.65C248.004 211.84 247.41 211.192 246.573 211.192ZM262.952 214.135C266.651 214.135 268.811 212.542 268.811 210.085C268.811 204.631 259.604 207.52 259.604 203.686C259.604 202.336 260.738 201.337 263.303 201.337C264.761 201.337 266.246 201.688 267.488 202.552L268.325 201.013C267.137 200.203 265.139 199.69 263.303 199.69C259.685 199.69 257.687 201.418 257.687 203.74C257.687 209.356 266.894 206.44 266.894 210.139C266.894 211.543 265.787 212.461 263.087 212.461C261.089 212.461 259.172 211.759 258.038 210.868L257.174 212.38C258.335 213.379 260.603 214.135 262.952 214.135ZM284.748 206.899C284.748 202.633 281.859 199.69 277.863 199.69C273.867 199.69 270.924 202.687 270.924 206.899C270.924 211.111 273.948 214.135 278.376 214.135C280.617 214.135 282.588 213.325 283.857 211.813L282.777 210.571C281.697 211.813 280.158 212.434 278.43 212.434C275.325 212.434 273.057 210.463 272.841 207.493H284.721C284.721 207.277 284.748 207.061 284.748 206.899ZM277.863 201.337C280.644 201.337 282.669 203.281 282.912 206.062H272.841C273.084 203.281 275.109 201.337 277.863 201.337ZM299.693 193.966V202.498C298.505 200.662 296.561 199.69 294.293 199.69C290.243 199.69 287.219 202.606 287.219 206.899C287.219 211.192 290.243 214.135 294.293 214.135C296.642 214.135 298.613 213.109 299.774 211.192V214H301.61V193.966H299.693ZM294.455 212.434C291.431 212.434 289.163 210.22 289.163 206.899C289.163 203.578 291.431 201.364 294.455 201.364C297.452 201.364 299.72 203.578 299.72 206.899C299.72 210.22 297.452 212.434 294.455 212.434ZM325.058 193.966V202.498C323.87 200.662 321.926 199.69 319.658 199.69C315.608 199.69 312.584 202.606 312.584 206.899C312.584 211.192 315.608 214.135 319.658 214.135C322.007 214.135 323.978 213.109 325.139 211.192V214H326.975V193.966H325.058ZM319.82 212.434C316.796 212.434 314.528 210.22 314.528 206.899C314.528 203.578 316.796 201.364 319.82 201.364C322.817 201.364 325.085 203.578 325.085 206.899C325.085 210.22 322.817 212.434 319.82 212.434ZM338.119 214.135C342.277 214.135 345.328 211.111 345.328 206.899C345.328 202.687 342.277 199.69 338.119 199.69C333.961 199.69 330.883 202.687 330.883 206.899C330.883 211.111 333.961 214.135 338.119 214.135ZM338.119 212.434C335.095 212.434 332.827 210.22 332.827 206.899C332.827 203.578 335.095 201.364 338.119 201.364C341.143 201.364 343.384 203.578 343.384 206.899C343.384 210.22 341.143 212.434 338.119 212.434ZM368.701 206.899C368.701 202.633 365.812 199.69 361.816 199.69C357.82 199.69 354.877 202.687 354.877 206.899C354.877 211.111 357.901 214.135 362.329 214.135C364.57 214.135 366.541 213.325 367.81 211.813L366.73 210.571C365.65 211.813 364.111 212.434 362.383 212.434C359.278 212.434 357.01 210.463 356.794 207.493H368.674C368.674 207.277 368.701 207.061 368.701 206.899ZM361.816 201.337C364.597 201.337 366.622 203.281 366.865 206.062H356.794C357.037 203.281 359.062 201.337 361.816 201.337ZM373.575 196.693C374.385 196.693 374.979 196.072 374.979 195.289C374.979 194.56 374.358 193.966 373.575 193.966C372.792 193.966 372.171 194.587 372.171 195.316C372.171 196.072 372.792 196.693 373.575 196.693ZM372.603 214H374.52V199.798H372.603V214ZM390.735 199.798V207.25C390.735 210.49 388.872 212.407 385.902 212.407C383.202 212.407 381.636 210.868 381.636 207.844V199.798H379.719V208.033C379.719 212.11 382.095 214.135 385.713 214.135C387.981 214.135 389.817 213.136 390.816 211.408V214H392.652V199.798H390.735ZM401.828 214.135C405.527 214.135 407.687 212.542 407.687 210.085C407.687 204.631 398.48 207.52 398.48 203.686C398.48 202.336 399.614 201.337 402.179 201.337C403.637 201.337 405.122 201.688 406.364 202.552L407.201 201.013C406.013 200.203 404.015 199.69 402.179 199.69C398.561 199.69 396.563 201.418 396.563 203.74C396.563 209.356 405.77 206.44 405.77 210.139C405.77 211.543 404.663 212.461 401.963 212.461C399.965 212.461 398.048 211.759 396.914 210.868L396.05 212.38C397.211 213.379 399.479 214.135 401.828 214.135ZM428.943 199.69C426.378 199.69 424.353 200.851 423.327 202.687C422.463 200.689 420.627 199.69 418.278 199.69C415.902 199.69 414.066 200.689 413.067 202.39V199.798H411.231V214H413.148V206.548C413.148 203.308 415.011 201.418 417.9 201.418C420.492 201.418 422.004 202.957 422.004 205.954V214H423.921V206.548C423.921 203.308 425.757 201.418 428.673 201.418C431.238 201.418 432.75 202.957 432.75 205.954V214H434.667V205.765C434.667 201.688 432.399 199.69 428.943 199.69ZM445.723 214.135C449.881 214.135 452.932 211.111 452.932 206.899C452.932 202.687 449.881 199.69 445.723 199.69C441.565 199.69 438.487 202.687 438.487 206.899C438.487 211.111 441.565 214.135 445.723 214.135ZM445.723 212.434C442.699 212.434 440.431 210.22 440.431 206.899C440.431 203.578 442.699 201.364 445.723 201.364C448.747 201.364 450.988 203.578 450.988 206.899C450.988 210.22 448.747 212.434 445.723 212.434ZM467.889 193.966V202.498C466.701 200.662 464.757 199.69 462.489 199.69C458.439 199.69 455.415 202.606 455.415 206.899C455.415 211.192 458.439 214.135 462.489 214.135C464.838 214.135 466.809 213.109 467.97 211.192V214H469.806V193.966H467.889ZM462.651 212.434C459.627 212.434 457.359 210.22 457.359 206.899C457.359 203.578 459.627 201.364 462.651 201.364C465.648 201.364 467.916 203.578 467.916 206.899C467.916 210.22 465.648 212.434 462.651 212.434ZM489.015 211.759C488.475 212.245 487.692 212.488 486.909 212.488C485.316 212.488 484.452 211.57 484.452 209.896V201.418H488.772V199.798H484.452V196.693H482.535V199.798H479.997V201.418H482.535V210.004C482.535 212.623 484.02 214.135 486.693 214.135C487.8 214.135 488.934 213.811 489.69 213.136L489.015 211.759ZM505.072 206.899C505.072 202.633 502.183 199.69 498.187 199.69C494.191 199.69 491.248 202.687 491.248 206.899C491.248 211.111 494.272 214.135 498.7 214.135C500.941 214.135 502.912 213.325 504.181 211.813L503.101 210.571C502.021 211.813 500.482 212.434 498.754 212.434C495.649 212.434 493.381 210.463 493.165 207.493H505.045C505.045 207.277 505.072 207.061 505.072 206.899ZM498.187 201.337C500.968 201.337 502.993 203.281 503.236 206.062H493.165C493.408 203.281 495.433 201.337 498.187 201.337ZM526.686 199.69C524.121 199.69 522.096 200.851 521.07 202.687C520.206 200.689 518.37 199.69 516.021 199.69C513.645 199.69 511.809 200.689 510.81 202.39V199.798H508.974V214H510.891V206.548C510.891 203.308 512.754 201.418 515.643 201.418C518.235 201.418 519.747 202.957 519.747 205.954V214H521.664V206.548C521.664 203.308 523.5 201.418 526.416 201.418C528.981 201.418 530.493 202.957 530.493 205.954V214H532.41V205.765C532.41 201.688 530.142 199.69 526.686 199.69ZM544.926 199.69C542.577 199.69 540.606 200.716 539.445 202.606V199.798H537.609V219.238H539.526V211.327C540.714 213.163 542.658 214.135 544.926 214.135C548.976 214.135 552 211.219 552 206.899C552 202.606 548.976 199.69 544.926 199.69ZM544.791 212.434C541.767 212.434 539.499 210.22 539.499 206.899C539.499 203.605 541.767 201.364 544.791 201.364C547.788 201.364 550.083 203.605 550.083 206.899C550.083 210.22 547.788 212.434 544.791 212.434ZM561.712 214.135C565.87 214.135 568.921 211.111 568.921 206.899C568.921 202.687 565.87 199.69 561.712 199.69C557.554 199.69 554.476 202.687 554.476 206.899C554.476 211.111 557.554 214.135 561.712 214.135ZM561.712 212.434C558.688 212.434 556.42 210.22 556.42 206.899C556.42 203.578 558.688 201.364 561.712 201.364C564.736 201.364 566.977 203.578 566.977 206.899C566.977 210.22 564.736 212.434 561.712 212.434ZM574.671 202.579V199.798H572.835V214H574.752V206.764C574.752 203.416 576.561 201.526 579.531 201.526C579.666 201.526 579.828 201.553 579.99 201.553V199.69C577.371 199.69 575.562 200.689 574.671 202.579ZM58.645 229.693C59.455 229.693 60.049 229.072 60.049 228.289C60.049 227.56 59.428 226.966 58.645 226.966C57.862 226.966 57.241 227.587 57.241 228.316C57.241 229.072 57.862 229.693 58.645 229.693ZM57.673 247H59.59V232.798H57.673V247ZM72.16 232.69C69.703 232.69 67.786 233.689 66.76 235.417V232.798H64.924V247H66.841V239.548C66.841 236.308 68.758 234.418 71.809 234.418C74.509 234.418 76.075 235.957 76.075 238.954V247H77.992V238.765C77.992 234.688 75.616 232.69 72.16 232.69ZM89.1352 247.135C91.5382 247.135 93.5632 246.163 94.6972 244.327L93.2662 243.355C92.2942 244.786 90.7822 245.434 89.1352 245.434C86.0302 245.434 83.7622 243.247 83.7622 239.899C83.7622 236.578 86.0302 234.364 89.1352 234.364C90.7822 234.364 92.2942 235.039 93.2662 236.47L94.6972 235.498C93.5632 233.635 91.5382 232.69 89.1352 232.69C84.8962 232.69 81.8182 235.66 81.8182 239.899C81.8182 244.138 84.8962 247.135 89.1352 247.135ZM99.435 229.693C100.245 229.693 100.839 229.072 100.839 228.289C100.839 227.56 100.218 226.966 99.435 226.966C98.652 226.966 98.031 227.587 98.031 228.316C98.031 229.072 98.652 229.693 99.435 229.693ZM98.463 247H100.38V232.798H98.463V247ZM116.757 226.966V235.498C115.569 233.662 113.625 232.69 111.357 232.69C107.307 232.69 104.283 235.606 104.283 239.899C104.283 244.192 107.307 247.135 111.357 247.135C113.706 247.135 115.677 246.109 116.838 244.192V247H118.674V226.966H116.757ZM111.519 245.434C108.495 245.434 106.227 243.22 106.227 239.899C106.227 236.578 108.495 234.364 111.519 234.364C114.516 234.364 116.784 236.578 116.784 239.899C116.784 243.22 114.516 245.434 111.519 245.434ZM124.985 229.693C125.795 229.693 126.389 229.072 126.389 228.289C126.389 227.56 125.768 226.966 124.985 226.966C124.202 226.966 123.581 227.587 123.581 228.316C123.581 229.072 124.202 229.693 124.985 229.693ZM124.013 247H125.93V232.798H124.013V247ZM142.307 226.966V235.498C141.119 233.662 139.175 232.69 136.907 232.69C132.857 232.69 129.833 235.606 129.833 239.899C129.833 244.192 132.857 247.135 136.907 247.135C139.256 247.135 141.227 246.109 142.388 244.192V247H144.224V226.966H142.307ZM137.069 245.434C134.045 245.434 131.777 243.22 131.777 239.899C131.777 236.578 134.045 234.364 137.069 234.364C140.066 234.364 142.334 236.578 142.334 239.899C142.334 243.22 140.066 245.434 137.069 245.434ZM160.444 232.798V240.25C160.444 243.49 158.581 245.407 155.611 245.407C152.911 245.407 151.345 243.868 151.345 240.844V232.798H149.428V241.033C149.428 245.11 151.804 247.135 155.422 247.135C157.69 247.135 159.526 246.136 160.525 244.408V247H162.361V232.798H160.444ZM174.966 232.69C172.509 232.69 170.592 233.689 169.566 235.417V232.798H167.73V247H169.647V239.548C169.647 236.308 171.564 234.418 174.615 234.418C177.315 234.418 178.881 235.957 178.881 238.954V247H180.798V238.765C180.798 234.688 178.422 232.69 174.966 232.69ZM192.806 244.759C192.266 245.245 191.483 245.488 190.7 245.488C189.107 245.488 188.243 244.57 188.243 242.896V234.418H192.563V232.798H188.243V229.693H186.326V232.798H183.788V234.418H186.326V243.004C186.326 245.623 187.811 247.135 190.484 247.135C191.591 247.135 192.725 246.811 193.481 246.136L192.806 244.759ZM214.918 232.798V240.25C214.918 243.49 213.055 245.407 210.085 245.407C207.385 245.407 205.819 243.868 205.819 240.844V232.798H203.902V241.033C203.902 245.11 206.278 247.135 209.896 247.135C212.164 247.135 214 246.136 214.999 244.408V247H216.835V232.798H214.918ZM229.008 244.759C228.468 245.245 227.685 245.488 226.902 245.488C225.309 245.488 224.445 244.57 224.445 242.896V234.418H228.765V232.798H224.445V229.693H222.528V232.798H219.99V234.418H222.528V243.004C222.528 245.623 224.013 247.135 226.686 247.135C227.793 247.135 228.927 246.811 229.683 246.136L229.008 244.759ZM240.239 247H242.156V226.966H240.239V247ZM252.458 232.69C250.217 232.69 248.111 233.392 246.68 234.607L247.544 236.038C248.705 235.012 250.433 234.364 252.269 234.364C254.915 234.364 256.292 235.687 256.292 238.117V238.981H251.783C247.706 238.981 246.302 240.817 246.302 243.004C246.302 245.461 248.273 247.135 251.486 247.135C253.835 247.135 255.509 246.244 256.373 244.786V247H258.209V238.198C258.209 234.526 256.13 232.69 252.458 232.69ZM251.783 245.623C249.515 245.623 248.192 244.597 248.192 242.95C248.192 241.492 249.083 240.412 251.837 240.412H256.292V242.734C255.536 244.597 253.943 245.623 251.783 245.623ZM270.733 232.69C268.465 232.69 266.521 233.662 265.333 235.498V226.966H263.416V247H265.252V244.192C266.413 246.109 268.384 247.135 270.733 247.135C274.783 247.135 277.807 244.192 277.807 239.899C277.807 235.606 274.783 232.69 270.733 232.69ZM270.598 245.434C267.574 245.434 265.306 243.22 265.306 239.899C265.306 236.578 267.574 234.364 270.598 234.364C273.595 234.364 275.89 236.578 275.89 239.899C275.89 243.22 273.595 245.434 270.598 245.434ZM287.52 247.135C291.678 247.135 294.729 244.111 294.729 239.899C294.729 235.687 291.678 232.69 287.52 232.69C283.362 232.69 280.284 235.687 280.284 239.899C280.284 244.111 283.362 247.135 287.52 247.135ZM287.52 245.434C284.496 245.434 282.228 243.22 282.228 239.899C282.228 236.578 284.496 234.364 287.52 234.364C290.544 234.364 292.785 236.578 292.785 239.899C292.785 243.22 290.544 245.434 287.52 245.434ZM300.479 235.579V232.798H298.643V247H300.56V239.764C300.56 236.416 302.369 234.526 305.339 234.526C305.474 234.526 305.636 234.553 305.798 234.553V232.69C303.179 232.69 301.37 233.689 300.479 235.579ZM321.53 239.899C321.53 235.633 318.641 232.69 314.645 232.69C310.649 232.69 307.706 235.687 307.706 239.899C307.706 244.111 310.73 247.135 315.158 247.135C317.399 247.135 319.37 246.325 320.639 244.813L319.559 243.571C318.479 244.813 316.94 245.434 315.212 245.434C312.107 245.434 309.839 243.463 309.623 240.493H321.503C321.503 240.277 321.53 240.061 321.53 239.899ZM314.645 234.337C317.426 234.337 319.451 236.281 319.694 239.062H309.623C309.866 236.281 311.891 234.337 314.645 234.337ZM344.891 239.899C344.891 235.633 342.002 232.69 338.006 232.69C334.01 232.69 331.067 235.687 331.067 239.899C331.067 244.111 334.091 247.135 338.519 247.135C340.76 247.135 342.731 246.325 344 244.813L342.92 243.571C341.84 244.813 340.301 245.434 338.573 245.434C335.468 245.434 333.2 243.463 332.984 240.493H344.864C344.864 240.277 344.891 240.061 344.891 239.899ZM338.006 234.337C340.787 234.337 342.812 236.281 343.055 239.062H332.984C333.227 236.281 335.252 234.337 338.006 234.337ZM355.597 244.759C355.057 245.245 354.274 245.488 353.491 245.488C351.898 245.488 351.034 244.57 351.034 242.896V234.418H355.354V232.798H351.034V229.693H349.117V232.798H346.579V234.418H349.117V243.004C349.117 245.623 350.602 247.135 353.275 247.135C354.382 247.135 355.516 246.811 356.272 246.136L355.597 244.759ZM377.871 226.966V235.498C376.683 233.662 374.739 232.69 372.471 232.69C368.421 232.69 365.397 235.606 365.397 239.899C365.397 244.192 368.421 247.135 372.471 247.135C374.82 247.135 376.791 246.109 377.952 244.192V247H379.788V226.966H377.871ZM372.633 245.434C369.609 245.434 367.341 243.22 367.341 239.899C367.341 236.578 369.609 234.364 372.633 234.364C375.63 234.364 377.898 236.578 377.898 239.899C377.898 243.22 375.63 245.434 372.633 245.434ZM390.932 247.135C395.09 247.135 398.141 244.111 398.141 239.899C398.141 235.687 395.09 232.69 390.932 232.69C386.774 232.69 383.696 235.687 383.696 239.899C383.696 244.111 386.774 247.135 390.932 247.135ZM390.932 245.434C387.908 245.434 385.64 243.22 385.64 239.899C385.64 236.578 387.908 234.364 390.932 234.364C393.956 234.364 396.197 236.578 396.197 239.899C396.197 243.22 393.956 245.434 390.932 245.434ZM402.055 247H403.972V226.966H402.055V247ZM415.111 247.135C419.269 247.135 422.32 244.111 422.32 239.899C422.32 235.687 419.269 232.69 415.111 232.69C410.953 232.69 407.875 235.687 407.875 239.899C407.875 244.111 410.953 247.135 415.111 247.135ZM415.111 245.434C412.087 245.434 409.819 243.22 409.819 239.899C409.819 236.578 412.087 234.364 415.111 234.364C418.135 234.364 420.376 236.578 420.376 239.899C420.376 243.22 418.135 245.434 415.111 245.434ZM428.07 235.579V232.798H426.234V247H428.151V239.764C428.151 236.416 429.96 234.526 432.93 234.526C433.065 234.526 433.227 234.553 433.389 234.553V232.69C430.77 232.69 428.961 233.689 428.07 235.579ZM449.121 239.899C449.121 235.633 446.232 232.69 442.236 232.69C438.24 232.69 435.297 235.687 435.297 239.899C435.297 244.111 438.321 247.135 442.749 247.135C444.99 247.135 446.961 246.325 448.23 244.813L447.15 243.571C446.07 244.813 444.531 245.434 442.803 245.434C439.698 245.434 437.43 243.463 437.214 240.493H449.094C449.094 240.277 449.121 240.061 449.121 239.899ZM442.236 234.337C445.017 234.337 447.042 236.281 447.285 239.062H437.214C437.457 236.281 439.482 234.337 442.236 234.337ZM477.801 232.69C475.236 232.69 473.211 233.851 472.185 235.687C471.321 233.689 469.485 232.69 467.136 232.69C464.76 232.69 462.924 233.689 461.925 235.39V232.798H460.089V247H462.006V239.548C462.006 236.308 463.869 234.418 466.758 234.418C469.35 234.418 470.862 235.957 470.862 238.954V247H472.779V239.548C472.779 236.308 474.615 234.418 477.531 234.418C480.096 234.418 481.608 235.957 481.608 238.954V247H483.525V238.765C483.525 234.688 481.257 232.69 477.801 232.69ZM493.692 232.69C491.451 232.69 489.345 233.392 487.914 234.607L488.778 236.038C489.939 235.012 491.667 234.364 493.503 234.364C496.149 234.364 497.526 235.687 497.526 238.117V238.981H493.017C488.94 238.981 487.536 240.817 487.536 243.004C487.536 245.461 489.507 247.135 492.72 247.135C495.069 247.135 496.743 246.244 497.607 244.786V247H499.443V238.198C499.443 234.526 497.364 232.69 493.692 232.69ZM493.017 245.623C490.749 245.623 489.426 244.597 489.426 242.95C489.426 241.492 490.317 240.412 493.071 240.412H497.526V242.734C496.77 244.597 495.177 245.623 493.017 245.623ZM516.015 232.798V235.525C514.827 233.662 512.775 232.69 510.399 232.69C506.349 232.69 503.271 235.471 503.271 239.548C503.271 243.625 506.349 246.46 510.399 246.46C512.721 246.46 514.746 245.515 515.934 243.706V245.515C515.934 249.025 514.287 250.672 510.696 250.672C508.509 250.672 506.457 249.943 505.107 248.728L504.135 250.186C505.62 251.59 508.158 252.373 510.75 252.373C515.448 252.373 517.851 250.159 517.851 245.272V232.798H516.015ZM510.588 244.759C507.456 244.759 505.215 242.626 505.215 239.548C505.215 236.47 507.456 234.364 510.588 234.364C513.72 234.364 515.988 236.47 515.988 239.548C515.988 242.626 513.72 244.759 510.588 244.759ZM530.448 232.69C527.991 232.69 526.074 233.689 525.048 235.417V232.798H523.212V247H525.129V239.548C525.129 236.308 527.046 234.418 530.097 234.418C532.797 234.418 534.363 235.957 534.363 238.954V247H536.28V238.765C536.28 234.688 533.904 232.69 530.448 232.69ZM546.453 232.69C544.212 232.69 542.106 233.392 540.675 234.607L541.539 236.038C542.7 235.012 544.428 234.364 546.264 234.364C548.91 234.364 550.287 235.687 550.287 238.117V238.981H545.778C541.701 238.981 540.297 240.817 540.297 243.004C540.297 245.461 542.268 247.135 545.481 247.135C547.83 247.135 549.504 246.244 550.368 244.786V247H552.204V238.198C552.204 234.526 550.125 232.69 546.453 232.69ZM545.778 245.623C543.51 245.623 542.187 244.597 542.187 242.95C542.187 241.492 543.078 240.412 545.832 240.412H550.287V242.734C549.531 244.597 547.938 245.623 545.778 245.623ZM569.445 232.69C567.204 232.69 565.098 233.392 563.667 234.607L564.531 236.038C565.692 235.012 567.42 234.364 569.256 234.364C571.902 234.364 573.279 235.687 573.279 238.117V238.981H568.77C564.693 238.981 563.289 240.817 563.289 243.004C563.289 245.461 565.26 247.135 568.473 247.135C570.822 247.135 572.496 246.244 573.36 244.786V247H575.196V238.198C575.196 234.526 573.117 232.69 569.445 232.69ZM568.77 245.623C566.502 245.623 565.179 244.597 565.179 242.95C565.179 241.492 566.07 240.412 568.824 240.412H573.279V242.734C572.523 244.597 570.93 245.623 568.77 245.623ZM580.402 247H582.319V226.966H580.402V247ZM588.625 229.693C589.435 229.693 590.029 229.072 590.029 228.289C590.029 227.56 589.408 226.966 588.625 226.966C587.842 226.966 587.221 227.587 587.221 228.316C587.221 229.072 587.842 229.693 588.625 229.693ZM587.653 247H589.57V232.798H587.653V247ZM606.028 232.798V235.606C604.867 233.716 602.896 232.69 600.547 232.69C596.497 232.69 593.473 235.606 593.473 239.899C593.473 244.219 596.497 247.135 600.547 247.135C602.815 247.135 604.759 246.163 605.947 244.327V252.238H607.864V232.798H606.028ZM600.709 245.434C597.685 245.434 595.417 243.22 595.417 239.899C595.417 236.605 597.685 234.364 600.709 234.364C603.706 234.364 605.974 236.605 605.974 239.899C605.974 243.22 603.706 245.434 600.709 245.434ZM624.084 232.798V240.25C624.084 243.49 622.221 245.407 619.251 245.407C616.551 245.407 614.985 243.868 614.985 240.844V232.798H613.068V241.033C613.068 245.11 615.444 247.135 619.062 247.135C621.33 247.135 623.166 246.136 624.165 244.408V247H626.001V232.798H624.084ZM636.338 232.69C634.097 232.69 631.991 233.392 630.56 234.607L631.424 236.038C632.585 235.012 634.313 234.364 636.149 234.364C638.795 234.364 640.172 235.687 640.172 238.117V238.981H635.663C631.586 238.981 630.182 240.817 630.182 243.004C630.182 245.461 632.153 247.135 635.366 247.135C637.715 247.135 639.389 246.244 640.253 244.786V247H642.089V238.198C642.089 234.526 640.01 232.69 636.338 232.69ZM635.663 245.623C633.395 245.623 632.072 244.597 632.072 242.95C632.072 241.492 632.963 240.412 635.717 240.412H640.172V242.734C639.416 244.597 637.823 245.623 635.663 245.623ZM647.485 247.135C648.268 247.135 648.943 246.487 648.943 245.65C648.943 244.813 648.268 244.192 647.485 244.192C646.702 244.192 646.054 244.813 646.054 245.65C646.054 246.487 646.702 247.135 647.485 247.135ZM65.692 280.162C70.525 280.162 73.441 277.354 73.441 271.927V261.1H71.497V271.846C71.497 276.328 69.391 278.38 65.692 278.38C62.02 278.38 59.914 276.328 59.914 271.846V261.1H57.916V271.927C57.916 277.354 60.859 280.162 65.692 280.162ZM85.8608 277.759C85.3208 278.245 84.5378 278.488 83.7548 278.488C82.1618 278.488 81.2978 277.57 81.2978 275.896V267.418H85.6178V265.798H81.2978V262.693H79.3808V265.798H76.8428V267.418H79.3808V276.004C79.3808 278.623 80.8658 280.135 83.5388 280.135C84.6458 280.135 85.7798 279.811 86.5358 279.136L85.8608 277.759ZM109.485 272.899C109.485 268.633 106.596 265.69 102.6 265.69C98.6039 265.69 95.6609 268.687 95.6609 272.899C95.6609 277.111 98.6849 280.135 103.113 280.135C105.354 280.135 107.325 279.325 108.594 277.813L107.514 276.571C106.434 277.813 104.895 278.434 103.167 278.434C100.062 278.434 97.7939 276.463 97.5779 273.493H109.458C109.458 273.277 109.485 273.061 109.485 272.899ZM102.6 267.337C105.381 267.337 107.406 269.281 107.649 272.062H97.5779C97.8209 269.281 99.8459 267.337 102.6 267.337ZM120.623 265.69C118.166 265.69 116.249 266.689 115.223 268.417V265.798H113.387V280H115.304V272.548C115.304 269.308 117.221 267.418 120.272 267.418C122.972 267.418 124.538 268.957 124.538 271.954V280H126.455V271.765C126.455 267.688 124.079 265.69 120.623 265.69ZM132.631 262.693C133.441 262.693 134.035 262.072 134.035 261.289C134.035 260.56 133.414 259.966 132.631 259.966C131.848 259.966 131.227 260.587 131.227 261.316C131.227 262.072 131.848 262.693 132.631 262.693ZM131.659 280H133.576V265.798H131.659V280ZM156.622 265.69C154.057 265.69 152.032 266.851 151.006 268.687C150.142 266.689 148.306 265.69 145.957 265.69C143.581 265.69 141.745 266.689 140.746 268.39V265.798H138.91V280H140.827V272.548C140.827 269.308 142.69 267.418 145.579 267.418C148.171 267.418 149.683 268.957 149.683 271.954V280H151.6V272.548C151.6 269.308 153.436 267.418 156.352 267.418C158.917 267.418 160.429 268.957 160.429 271.954V280H162.346V271.765C162.346 267.688 160.078 265.69 156.622 265.69ZM179.579 265.69C177.338 265.69 175.232 266.392 173.801 267.607L174.665 269.038C175.826 268.012 177.554 267.364 179.39 267.364C182.036 267.364 183.413 268.687 183.413 271.117V271.981H178.904C174.827 271.981 173.423 273.817 173.423 276.004C173.423 278.461 175.394 280.135 178.607 280.135C180.956 280.135 182.63 279.244 183.494 277.786V280H185.33V271.198C185.33 267.526 183.251 265.69 179.579 265.69ZM178.904 278.623C176.636 278.623 175.313 277.597 175.313 275.95C175.313 274.492 176.204 273.412 178.958 273.412H183.413V275.734C182.657 277.597 181.064 278.623 178.904 278.623ZM201.633 259.966V268.498C200.445 266.662 198.501 265.69 196.233 265.69C192.183 265.69 189.159 268.606 189.159 272.899C189.159 277.192 192.183 280.135 196.233 280.135C198.582 280.135 200.553 279.109 201.714 277.192V280H203.55V259.966H201.633ZM196.395 278.434C193.371 278.434 191.103 276.22 191.103 272.899C191.103 269.578 193.371 267.364 196.395 267.364C199.392 267.364 201.66 269.578 201.66 272.899C201.66 276.22 199.392 278.434 196.395 278.434ZM233.667 265.69C231.102 265.69 229.077 266.851 228.051 268.687C227.187 266.689 225.351 265.69 223.002 265.69C220.626 265.69 218.79 266.689 217.791 268.39V265.798H215.955V280H217.872V272.548C217.872 269.308 219.735 267.418 222.624 267.418C225.216 267.418 226.728 268.957 226.728 271.954V280H228.645V272.548C228.645 269.308 230.481 267.418 233.397 267.418C235.962 267.418 237.474 268.957 237.474 271.954V280H239.391V271.765C239.391 267.688 237.123 265.69 233.667 265.69ZM245.562 262.693C246.372 262.693 246.966 262.072 246.966 261.289C246.966 260.56 246.345 259.966 245.562 259.966C244.779 259.966 244.158 260.587 244.158 261.316C244.158 262.072 244.779 262.693 245.562 262.693ZM244.59 280H246.507V265.798H244.59V280ZM259.077 265.69C256.62 265.69 254.703 266.689 253.677 268.417V265.798H251.841V280H253.758V272.548C253.758 269.308 255.675 267.418 258.726 267.418C261.426 267.418 262.992 268.957 262.992 271.954V280H264.909V271.765C264.909 267.688 262.533 265.69 259.077 265.69ZM271.085 262.693C271.895 262.693 272.489 262.072 272.489 261.289C272.489 260.56 271.868 259.966 271.085 259.966C270.302 259.966 269.681 260.587 269.681 261.316C269.681 262.072 270.302 262.693 271.085 262.693ZM270.113 280H272.03V265.798H270.113V280ZM295.076 265.69C292.511 265.69 290.486 266.851 289.46 268.687C288.596 266.689 286.76 265.69 284.411 265.69C282.035 265.69 280.199 266.689 279.2 268.39V265.798H277.364V280H279.281V272.548C279.281 269.308 281.144 267.418 284.033 267.418C286.625 267.418 288.137 268.957 288.137 271.954V280H290.054V272.548C290.054 269.308 291.89 267.418 294.806 267.418C297.371 267.418 298.883 268.957 298.883 271.954V280H300.8V271.765C300.8 267.688 298.532 265.69 295.076 265.69ZM323.11 265.798L317.737 277.894L312.418 265.798H310.42L316.711 280H318.682L325 265.798H323.11ZM339.697 272.899C339.697 268.633 336.808 265.69 332.812 265.69C328.816 265.69 325.873 268.687 325.873 272.899C325.873 277.111 328.897 280.135 333.325 280.135C335.566 280.135 337.537 279.325 338.806 277.813L337.726 276.571C336.646 277.813 335.107 278.434 333.379 278.434C330.274 278.434 328.006 276.463 327.79 273.493H339.67C339.67 273.277 339.697 273.061 339.697 272.899ZM332.812 267.337C335.593 267.337 337.618 269.281 337.861 272.062H327.79C328.033 269.281 330.058 267.337 332.812 267.337ZM350.835 265.69C348.378 265.69 346.461 266.689 345.435 268.417V265.798H343.599V280H345.516V272.548C345.516 269.308 347.433 267.418 350.484 267.418C353.184 267.418 354.75 268.957 354.75 271.954V280H356.667V271.765C356.667 267.688 354.291 265.69 350.835 265.69ZM362.843 262.693C363.653 262.693 364.247 262.072 364.247 261.289C364.247 260.56 363.626 259.966 362.843 259.966C362.06 259.966 361.439 260.587 361.439 261.316C361.439 262.072 362.06 262.693 362.843 262.693ZM361.871 280H363.788V265.798H361.871V280ZM374.09 265.69C371.849 265.69 369.743 266.392 368.312 267.607L369.176 269.038C370.337 268.012 372.065 267.364 373.901 267.364C376.547 267.364 377.924 268.687 377.924 271.117V271.981H373.415C369.338 271.981 367.934 273.817 367.934 276.004C367.934 278.461 369.905 280.135 373.118 280.135C375.467 280.135 377.141 279.244 378.005 277.786V280H379.841V271.198C379.841 267.526 377.762 265.69 374.09 265.69ZM373.415 278.623C371.147 278.623 369.824 277.597 369.824 275.95C369.824 274.492 370.715 273.412 373.469 273.412H377.924V275.734C377.168 277.597 375.575 278.623 373.415 278.623ZM402.76 265.69C400.195 265.69 398.17 266.851 397.144 268.687C396.28 266.689 394.444 265.69 392.095 265.69C389.719 265.69 387.883 266.689 386.884 268.39V265.798H385.048V280H386.965V272.548C386.965 269.308 388.828 267.418 391.717 267.418C394.309 267.418 395.821 268.957 395.821 271.954V280H397.738V272.548C397.738 269.308 399.574 267.418 402.49 267.418C405.055 267.418 406.567 268.957 406.567 271.954V280H408.484V271.765C408.484 267.688 406.216 265.69 402.76 265.69ZM413.899 277.192C413.089 277.192 412.468 277.813 412.468 278.65C412.468 279.352 412.873 279.865 413.44 280.027L412.522 283.942H413.818L414.952 280.216C415.222 279.46 415.33 279.109 415.33 278.65C415.33 277.84 414.736 277.192 413.899 277.192ZM437.595 265.798V268.606C436.434 266.716 434.463 265.69 432.114 265.69C428.064 265.69 425.04 268.606 425.04 272.899C425.04 277.219 428.064 280.135 432.114 280.135C434.382 280.135 436.326 279.163 437.514 277.327V285.238H439.431V265.798H437.595ZM432.276 278.434C429.252 278.434 426.984 276.22 426.984 272.899C426.984 269.605 429.252 267.364 432.276 267.364C435.273 267.364 437.541 269.605 437.541 272.899C437.541 276.22 435.273 278.434 432.276 278.434ZM455.651 265.798V273.25C455.651 276.49 453.788 278.407 450.818 278.407C448.118 278.407 446.552 276.868 446.552 273.844V265.798H444.635V274.033C444.635 278.11 447.011 280.135 450.629 280.135C452.897 280.135 454.733 279.136 455.732 277.408V280H457.568V265.798H455.651ZM463.909 262.693C464.719 262.693 465.313 262.072 465.313 261.289C465.313 260.56 464.692 259.966 463.909 259.966C463.126 259.966 462.505 260.587 462.505 261.316C462.505 262.072 463.126 262.693 463.909 262.693ZM462.937 280H464.854V265.798H462.937V280ZM473.995 280.135C477.694 280.135 479.854 278.542 479.854 276.085C479.854 270.631 470.647 273.52 470.647 269.686C470.647 268.336 471.781 267.337 474.346 267.337C475.804 267.337 477.289 267.688 478.531 268.552L479.368 267.013C478.18 266.203 476.182 265.69 474.346 265.69C470.728 265.69 468.73 267.418 468.73 269.74C468.73 275.356 477.937 272.44 477.937 276.139C477.937 277.543 476.83 278.461 474.13 278.461C472.132 278.461 470.215 277.759 469.081 276.868L468.217 278.38C469.378 279.379 471.646 280.135 473.995 280.135ZM497.7 265.69C495.243 265.69 493.326 266.689 492.3 268.417V265.798H490.464V280H492.381V272.548C492.381 269.308 494.298 267.418 497.349 267.418C500.049 267.418 501.615 268.957 501.615 271.954V280H503.532V271.765C503.532 267.688 501.156 265.69 497.7 265.69ZM514.594 280.135C518.752 280.135 521.803 277.111 521.803 272.899C521.803 268.687 518.752 265.69 514.594 265.69C510.436 265.69 507.358 268.687 507.358 272.899C507.358 277.111 510.436 280.135 514.594 280.135ZM514.594 278.434C511.57 278.434 509.302 276.22 509.302 272.899C509.302 269.578 511.57 267.364 514.594 267.364C517.618 267.364 519.859 269.578 519.859 272.899C519.859 276.22 517.618 278.434 514.594 278.434ZM529.524 280.135C533.223 280.135 535.383 278.542 535.383 276.085C535.383 270.631 526.176 273.52 526.176 269.686C526.176 268.336 527.31 267.337 529.875 267.337C531.333 267.337 532.818 267.688 534.06 268.552L534.897 267.013C533.709 266.203 531.711 265.69 529.875 265.69C526.257 265.69 524.259 267.418 524.259 269.74C524.259 275.356 533.466 272.44 533.466 276.139C533.466 277.543 532.359 278.461 529.659 278.461C527.661 278.461 525.744 277.759 524.61 276.868L523.746 278.38C524.907 279.379 527.175 280.135 529.524 280.135ZM545.731 277.759C545.191 278.245 544.408 278.488 543.625 278.488C542.032 278.488 541.168 277.57 541.168 275.896V267.418H545.488V265.798H541.168V262.693H539.251V265.798H536.713V267.418H539.251V276.004C539.251 278.623 540.736 280.135 543.409 280.135C544.516 280.135 545.65 279.811 546.406 279.136L545.731 277.759ZM551.732 268.579V265.798H549.896V280H551.813V272.764C551.813 269.416 553.622 267.526 556.592 267.526C556.727 267.526 556.889 267.553 557.051 267.553V265.69C554.432 265.69 552.623 266.689 551.732 268.579ZM571.614 265.798V273.25C571.614 276.49 569.751 278.407 566.781 278.407C564.081 278.407 562.515 276.868 562.515 273.844V265.798H560.598V274.033C560.598 278.11 562.974 280.135 566.592 280.135C568.86 280.135 570.696 279.136 571.695 277.408V280H573.531V265.798H571.614ZM589.943 259.966V268.498C588.755 266.662 586.811 265.69 584.543 265.69C580.493 265.69 577.469 268.606 577.469 272.899C577.469 277.192 580.493 280.135 584.543 280.135C586.892 280.135 588.863 279.109 590.024 277.192V280H591.86V259.966H589.943ZM584.705 278.434C581.681 278.434 579.413 276.22 579.413 272.899C579.413 269.578 581.681 267.364 584.705 267.364C587.702 267.364 589.97 269.578 589.97 272.899C589.97 276.22 587.702 278.434 584.705 278.434Z" fill="#1E1E1E"/>
</svg>
