<svg width="850" height="674" viewBox="0 0 850 674" fill="none" xmlns="http://www.w3.org/2000/svg">
<path opacity="0.65" d="M466.431 168.669C434.249 196.056 392.507 194.288 355.928 180.037C319.349 165.785 285.748 140.411 250.108 122.379C220.403 107.319 189.106 97.4022 157.133 92.9196C111.71 86.6015 60.985 94.2983 29.3392 138.593C-5.90392 187.894 -3.19719 276.838 34.9057 322.13C54.2982 345.153 79.6885 356.453 101.829 374.426C123.97 392.399 144.483 422.23 142.597 456.908C140.851 489.048 120.554 513.677 99.5471 529.147C83.3137 541.098 63.3229 554.149 61.3677 578.905C59.475 602.858 76.286 621.626 92.3385 632.3C144.706 667.13 209.236 666.792 261.422 631.455C280.028 618.81 297.117 602.029 316.635 592.235C367.882 566.421 424.354 592.413 478.621 601.911C524.732 609.941 571.725 605.783 616.393 589.723C643.265 580.072 670.242 565.322 689.12 537.842C702.737 518.025 711.219 492.956 719.179 468.182C727.668 441.776 735.83 415.182 743.665 388.398C748.362 372.328 752.989 355.937 754.207 338.733C756.405 307.566 747.137 276.753 734.515 250.449C704.546 187.945 654.072 144.031 599.408 132.875C544.745 121.719 486.915 143.507 444.519 191.184" fill="#FDCA05"/>
<g clip-path="url(#clip0)">
<path d="M49.9834 127.368H52.6211V254.697H49.9834V127.368Z" fill="#3F3D56"/>
<path d="M25.64 143.594C25.4721 188.118 51.1044 224.357 51.1044 224.357C51.1044 224.357 77.009 188.408 77.1769 143.885C77.3448 99.3608 51.7125 63.1221 51.7125 63.1221C51.7125 63.1221 25.8079 99.0706 25.64 143.594Z" fill="#00897B"/>
<path d="M102.724 187.278H104.081V252.766H102.724V187.278Z" fill="#3F3D56"/>
<path d="M90.2044 195.624C90.118 218.523 103.301 237.162 103.301 237.162C103.301 237.162 116.625 218.673 116.711 195.773C116.797 172.873 103.614 154.235 103.614 154.235C103.614 154.235 90.2908 172.724 90.2044 195.624Z" fill="#009688"/>
<path d="M75.9842 261.486C55.6844 261.486 39.2281 258.403 39.2281 254.6C39.2281 250.798 55.6844 247.715 75.9842 247.715C96.284 247.715 112.74 250.798 112.74 254.6C112.74 258.403 96.284 261.486 75.9842 261.486Z" fill="white"/>
<path d="M72.9526 94.1268C76.0666 87.6965 82.2275 87.3968 82.2275 87.3968C82.2275 87.3968 88.231 86.4586 92.0822 96.2521C95.6718 105.38 100.626 114.194 92.8797 116.331L91.4805 111.009L90.614 116.727C89.5111 116.824 88.4047 116.847 87.2998 116.796C79.0043 116.469 71.1041 116.892 71.3585 113.254C71.6966 108.418 69.9562 100.314 72.9526 94.1268Z" fill="#2F2E41"/>
<path d="M84.167 106.237C84.167 106.237 80.1426 113.122 82.5572 118.696C84.9719 124.27 76.9231 130.172 76.9231 130.172L71.0207 114.434C71.0207 114.434 77.9963 108.86 76.1183 103.614L84.167 106.237Z" fill="#FBBEBE"/>
<path d="M81.4843 109.188C77.6318 109.188 74.5087 105.371 74.5087 100.663C74.5087 95.9549 77.6318 92.1382 81.4843 92.1382C85.3369 92.1382 88.46 95.9549 88.46 100.663C88.46 105.371 85.3369 109.188 81.4843 109.188Z" fill="#FBBEBE"/>
<path d="M105.625 110.517L99.7956 101.326C99.7956 101.326 97.743 91.6912 94.7701 92.1796C91.7973 92.668 95.9443 103.734 95.9443 103.734L101.737 113.908L105.625 110.517Z" fill="#FBBEBE"/>
<path d="M76.1182 232.797L74.2401 244.928L70.2157 246.24L71.2889 231.813L76.1182 232.797Z" fill="#FBBEBE"/>
<path d="M35.606 219.682L28.362 231.813L25.4108 233.452L22.9962 228.534L30.2401 217.059L35.606 219.682Z" fill="#FBBEBE"/>
<path d="M77.728 124.926L82.2035 117.726C82.2035 117.726 90.8744 119.68 91.6793 120.663C92.4842 121.647 89.5329 139.68 89.5329 139.68C89.5329 139.68 88.9963 144.598 86.5817 147.221L84.1671 149.188L64.3134 144.27L63.5669 133.475C63.295 129.542 63.6982 125.584 64.7508 121.854C65.8034 118.123 67.482 114.702 69.6793 111.811L73.1337 112.388L77.728 124.926Z" fill="#575A89"/>
<path d="M90.6061 121.319L91.9476 120.663L98.1183 120.007C98.1183 120.007 100.265 119.351 99.728 118.04C99.1914 116.728 98.6549 116.4 99.728 116.073C100.801 115.745 101.069 115.417 100.801 114.433C100.533 113.45 98.9232 111.482 98.9232 111.482L103.484 106.892C103.484 106.892 103.731 107.105 104.13 107.5C106.394 109.741 113.56 117.825 108.313 125.909C102.143 135.417 94.8988 140.991 88.9963 139.024L90.6061 121.319Z" fill="#575A89"/>
<path d="M84.7035 147.549V152.139C84.7035 152.139 87.1182 157.713 86.3133 162.959C85.5084 168.205 85.2401 170.828 85.2401 170.828C85.1525 175.29 84.5195 179.71 83.3621 183.943C81.484 190.5 87.6547 233.452 79.8743 234.108C72.0938 234.764 67.8011 235.419 65.3865 232.141C62.9718 228.862 69.4109 172.467 69.4109 172.467C69.4109 172.467 47.4109 228.534 42.8499 226.239C38.2889 223.944 26.7524 218.698 28.0938 215.747C29.4353 212.796 63.2401 147.221 63.2401 147.221L64.3133 144.27L84.7035 147.549Z" fill="#FF4466"/>
<path d="M71.8259 242.633C71.8259 242.633 76.1185 242.305 76.1185 243.944C76.1185 245.584 78.2649 251.157 78.2649 251.157C78.2649 251.157 79.8746 257.715 75.5819 257.059C71.2893 256.404 68.6063 250.502 68.6063 250.502L69.6795 244.272L71.8259 242.633Z" fill="#2F2E41"/>
<path d="M27.0209 231.157C27.0209 231.157 30.777 228.206 30.5087 230.174C30.2404 232.141 29.9722 237.387 28.0941 237.715C26.216 238.043 20.5819 240.01 20.3136 240.666C20.0453 241.321 13.6063 243.944 13.6063 239.682C13.6063 235.42 17.6307 232.141 17.6307 232.141L22.1916 227.878C22.1916 227.878 25.1429 227.551 25.6795 229.846C26.216 232.141 27.0209 231.157 27.0209 231.157Z" fill="#2F2E41"/>
<path d="M81.4736 92.8733C79.0133 92.8733 77.0189 90.4359 77.0189 87.4293C77.0189 84.4227 79.0133 81.9854 81.4736 81.9854C83.9338 81.9854 85.9282 84.4227 85.9282 87.4293C85.9282 90.4359 83.9338 92.8733 81.4736 92.8733Z" fill="#2F2E41"/>
<path d="M86.3971 85.9967C86.397 84.6522 85.9898 83.3552 85.2539 82.3558C84.518 81.3563 83.5055 80.7249 82.4114 80.5833C82.5671 80.5632 82.7236 80.553 82.8803 80.5527C84.0617 80.5527 85.1948 81.1263 86.0302 82.1472C86.8656 83.1682 87.335 84.5529 87.335 85.9967C87.335 87.4405 86.8656 88.8252 86.0302 89.8462C85.1948 90.8671 84.0617 91.4407 82.8803 91.4407C82.7236 91.4405 82.5671 91.4303 82.4114 91.4101C83.5055 91.2685 84.518 90.6372 85.2539 89.6377C85.9898 88.6382 86.397 87.3412 86.3971 85.9967Z" fill="#2F2E41"/>
<path d="M74.3294 93.5073L80.4159 89.6108L88.8215 91.205L90.5605 100.591L86.2314 100.388L85.0219 96.9395V100.331L83.0245 100.237L81.8652 94.747L81.1405 100.591L74.0394 100.414L74.3294 93.5073Z" fill="#2F2E41"/>
<path d="M74.6939 148.308L84.0808 148.618C84.0808 148.618 92.0903 150.523 91.641 146.572C91.1916 142.621 83.3777 144.003 83.3777 144.003L74.8245 142.409L74.6939 148.308Z" fill="#FBBEBE"/>
<path d="M67.2671 111.255C66.7953 111.167 66.3135 111.289 65.9084 111.597C65.5033 111.905 65.2016 112.38 65.0575 112.936C63.2198 120.013 57.5585 143.695 63.1834 146.944C69.8084 150.771 74.6432 150.603 74.6432 150.603L77.231 142.816L74.8752 140.115L72.3601 120.352L71.155 111.974L67.2671 111.255Z" fill="#575A89"/>
<path opacity="0.4" d="M69.0087 124.434L70.0819 137.549L79.4722 142.467L69.0087 139.516V124.434Z" fill="black"/>
<path d="M119.65 81.1367C116.625 82.1161 114.008 84.4392 112.311 87.6515L111.434 89.3124L111.389 89.3811L95.9934 94.8866C95.7112 94.9875 95.4727 95.2198 95.3291 95.5334C95.1856 95.847 95.1485 96.217 95.2259 96.5637L96.4212 101.92C96.4601 102.094 96.5269 102.257 96.6177 102.4C96.7085 102.543 96.8215 102.662 96.9502 102.752C97.0789 102.841 97.2207 102.898 97.3676 102.92C97.5145 102.942 97.6635 102.928 97.806 102.88L113.206 97.6191L113.206 97.6196L114.753 98.3343C117.601 99.6501 120.725 99.7799 123.639 98.7033L119.65 81.1367Z" fill="#3F3D56"/>
<path d="M103.436 96.6698C103.29 96.0607 103.93 95.2962 104.864 94.9621C105.798 94.6279 106.674 94.8508 106.82 95.4598C106.966 96.0688 106.327 96.8334 105.392 97.1675C104.458 97.5016 103.582 97.2788 103.436 96.6698Z" fill="#575A89"/>
<path d="M104.223 97.2311C103.866 97.2311 103.576 96.8775 103.576 96.4413C103.576 96.005 103.866 95.6514 104.223 95.6514C104.58 95.6514 104.869 96.005 104.869 96.4413C104.869 96.8775 104.58 97.2311 104.223 97.2311Z" fill="#3F3D56"/>
<path d="M118.362 91.2819C117.079 86.4433 117.489 81.9456 119.28 81.2361C121.07 80.5266 123.562 83.8739 124.846 88.7125C126.13 93.5512 125.719 98.0488 123.929 98.7583C122.139 99.4678 119.646 96.1205 118.362 91.2819Z" fill="#6C63FF"/>
<path opacity="0.4" d="M118.841 91.1104C117.604 86.4481 117.941 82.1029 119.568 81.1577C119.471 81.1727 119.374 81.1988 119.28 81.2358C117.489 81.9453 117.079 86.4429 118.363 91.2815C119.646 96.1202 122.139 99.4674 123.929 98.7579C123.994 98.732 124.058 98.7009 124.119 98.6648C122.358 98.9389 120.057 95.6942 118.841 91.1104Z" fill="black"/>
<path d="M119.448 81.1541L154.389 48.0304C160.568 42.1308 166.498 35.8509 172.154 29.2151C182.115 17.6124 195.636 8.33575 211.379 3.3968C249.627 -8.60267 279.927 12.6739 293.709 43.9151C314.768 91.655 330.908 169.124 237.53 127.887C217.108 118.869 196.437 117.91 180.763 113.16L124.009 98.8594L119.448 81.1541Z" fill="#032B4D"/>
<path d="M224.35 25.415C223.313 25.415 222.472 24.3874 222.472 23.1198C222.472 21.8523 223.313 20.8247 224.35 20.8247C225.387 20.8247 226.228 21.8523 226.228 23.1198C226.228 24.3874 225.387 25.415 224.35 25.415Z" fill="#F2F2F2"/>
<path d="M187.867 28.425H188.356V27.8276H188.452V28.425H188.94V28.5417H188.452V29.1391H188.356V28.5417H187.867V28.425Z" fill="#F2F2F2"/>
<path d="M138.77 78.2624H139.259V77.665H139.354V78.2624H139.843V78.3792H139.354V78.9765H139.259V78.3792H138.77V78.2624Z" fill="#F2F2F2"/>
<path d="M142.258 93.6721H142.747V93.0747H142.842V93.6721H143.331V93.7888H142.842V94.3862H142.747V93.7888H142.258V93.6721Z" fill="#F2F2F2"/>
<path d="M292.233 106.787H292.722V106.19H292.817V106.787H293.306V106.904H292.817V107.501H292.722V106.904H292.233V106.787Z" fill="#F2F2F2"/>
<path d="M270.77 35.3108H271.259V34.7134H271.354V35.3108H271.843V35.4275H271.354V36.0249H271.259V35.4275H270.77V35.3108Z" fill="#F2F2F2"/>
<path d="M187.331 96.2952H187.819V95.6978H187.915V96.2952H188.404V96.4119H187.915V97.0093H187.819V96.4119H187.331V96.2952Z" fill="#F2F2F2"/>
<path d="M238.575 14.3264H239.064V13.729H239.159V14.3264H239.648V14.4431H239.159V15.0405H239.064V14.4431H238.575V14.3264Z" fill="#F2F2F2"/>
<path d="M238.387 61.5332L238.996 61.648C238.806 63.1365 238.655 64.6578 238.545 66.1628L237.931 66.0972C238.041 64.5726 238.194 63.0382 238.387 61.5332Z" fill="#E6E6E6"/>
<path d="M240.053 52.5693L240.643 52.789C240.286 54.2317 239.967 55.7104 239.696 57.1825L239.092 57.0153C239.369 55.5268 239.693 54.0317 240.053 52.5693Z" fill="#E6E6E6"/>
<path d="M242.712 43.9722L243.272 44.2869C242.757 45.6607 242.274 47.0706 241.837 48.4804L241.26 48.2149C241.703 46.7886 242.189 45.3591 242.712 43.9722Z" fill="#E6E6E6"/>
<path d="M246.307 35.9131L246.828 36.3164C246.165 37.5885 245.529 38.9066 244.939 40.2279L244.397 39.8673C244.993 38.5295 245.636 37.1983 246.307 35.9131Z" fill="#E6E6E6"/>
<path d="M250.777 28.5259L251.246 29.0144C250.447 30.162 249.669 31.362 248.933 32.5751L248.44 32.126C249.18 30.8997 249.966 29.6866 250.777 28.5259Z" fill="#E6E6E6"/>
<path d="M256.03 21.9487L256.44 22.5094C255.518 23.516 254.613 24.575 253.752 25.6537L253.309 25.1258C254.181 24.034 255.096 22.9651 256.03 21.9487Z" fill="#E6E6E6"/>
<path d="M261.964 16.3027L262.311 16.9257C261.286 17.7683 260.272 18.6667 259.298 19.5946L258.917 19.0011C259.904 18.0634 260.929 17.1552 261.964 16.3027Z" fill="#E6E6E6"/>
<path d="M267.365 12.3813V13.2338C266.724 13.6437 266.088 14.0732 265.466 14.5125L265.157 13.8601C265.882 13.3486 266.618 12.8557 267.365 12.3813Z" fill="#E6E6E6"/>
<path d="M238.345 70.814L237.728 70.8003C237.717 71.5613 237.716 72.3264 237.726 73.0745L238.343 73.0627C238.333 72.3231 238.334 71.5666 238.345 70.814Z" fill="#E6E6E6"/>
<path d="M274.606 126.125L275.215 126.24C275.025 127.728 274.875 129.25 274.765 130.755L274.15 130.689C274.26 129.164 274.413 127.63 274.606 126.125Z" fill="#E6E6E6"/>
<path d="M276.273 117.161L276.863 117.38C276.506 118.823 276.187 120.302 275.916 121.774L275.312 121.607C275.588 120.118 275.913 118.623 276.273 117.161Z" fill="#E6E6E6"/>
<path d="M278.931 108.564L279.492 108.879C278.977 110.253 278.494 111.662 278.057 113.072L277.48 112.807C277.923 111.38 278.408 109.951 278.931 108.564Z" fill="#E6E6E6"/>
<path d="M282.526 100.505L283.047 100.908C282.384 102.18 281.748 103.498 281.158 104.82L280.616 104.459C281.212 103.121 281.856 101.79 282.526 100.505Z" fill="#E6E6E6"/>
<path d="M286.996 93.1177L287.465 93.6062C286.666 94.7538 285.888 95.9538 285.153 97.1669L284.659 96.7178C285.399 95.4915 286.186 94.2783 286.996 93.1177Z" fill="#E6E6E6"/>
<path d="M292.249 86.5405L292.66 87.1012C291.737 88.1078 290.833 89.1668 289.971 90.2455L289.529 89.7177C290.401 88.6258 291.316 87.5569 292.249 86.5405Z" fill="#E6E6E6"/>
<path d="M298.184 80.8945L298.53 81.5175C297.505 82.3601 296.491 83.2585 295.517 84.1864L295.136 83.5929C296.124 82.6552 297.149 81.747 298.184 80.8945Z" fill="#E6E6E6"/>
<path d="M303.584 76.9731V77.8256C302.943 78.2355 302.307 78.665 301.685 79.1043L301.376 78.4519C302.101 77.9404 302.837 77.4475 303.584 76.9731Z" fill="#E6E6E6"/>
<path d="M274.564 135.405L273.948 135.392C273.936 136.153 273.936 136.918 273.945 137.666L274.562 137.654C274.552 136.914 274.553 136.158 274.564 135.405Z" fill="#E6E6E6"/>
<path d="M150.656 93.665L151.265 93.7798C151.074 95.2684 150.924 96.7897 150.814 98.2946L150.2 98.2291C150.31 96.7044 150.462 95.17 150.656 93.665Z" fill="#E6E6E6"/>
<path d="M152.321 84.7012L152.912 84.9209C152.555 86.3635 152.236 87.8422 151.965 89.3144L151.361 89.1472C151.637 87.6586 151.962 86.1635 152.321 84.7012Z" fill="#E6E6E6"/>
<path d="M154.98 76.104L155.541 76.4188C155.026 77.7926 154.543 79.2024 154.106 80.6123L153.529 80.3467C153.972 78.9205 154.457 77.4909 154.98 76.104Z" fill="#E6E6E6"/>
<path d="M158.575 68.0449L159.096 68.4482C158.433 69.7203 157.797 71.0384 157.207 72.3598L156.665 71.9991C157.261 70.6614 157.904 69.3302 158.575 68.0449Z" fill="#E6E6E6"/>
<path d="M163.045 60.6577L163.514 61.1462C162.715 62.2938 161.937 63.4938 161.201 64.707L160.708 64.2578C161.448 63.0315 162.234 61.8184 163.045 60.6577Z" fill="#E6E6E6"/>
<path d="M168.298 54.0811L168.708 54.6417C167.786 55.6483 166.881 56.7073 166.02 57.786L165.578 57.2582C166.449 56.1663 167.364 55.0975 168.298 54.0811Z" fill="#E6E6E6"/>
<path d="M174.233 48.4346L174.579 49.0575C173.554 49.9002 172.54 50.7986 171.566 51.7264L171.185 51.133C172.172 50.1953 173.197 49.2871 174.233 48.4346Z" fill="#E6E6E6"/>
<path d="M179.633 44.5132V45.3657C178.992 45.7755 178.356 46.205 177.734 46.6444L177.425 45.9919C178.15 45.4804 178.886 44.9875 179.633 44.5132Z" fill="#E6E6E6"/>
<path d="M150.613 102.946L149.997 102.932C149.985 103.693 149.984 104.458 149.994 105.206L150.611 105.195C150.601 104.455 150.602 103.698 150.613 102.946Z" fill="#E6E6E6"/>
<path d="M269.872 65.5405H270.327V64.9844H270.416V65.5405H270.871V65.6487H270.416V66.2047H270.327V65.6487H269.872V65.5405Z" fill="#F2F2F2"/>
<path d="M275.115 99.101H275.569V98.5449H275.658V99.101H276.113V99.2095H275.658V99.7653H275.569V99.2095H275.115V99.101Z" fill="#F2F2F2"/>
<path d="M290.498 128.514H290.953V127.958H291.041V128.514H291.496V128.622H291.041V129.178H290.953V128.622H290.498V128.514Z" fill="#F2F2F2"/>
<path d="M247.704 91.2093C252.103 83.2196 254.012 73.5682 253.087 64.0053C252.162 54.4425 248.463 45.6014 242.662 39.0854C236.86 32.5694 229.34 28.8099 221.465 28.4887C213.59 28.1675 205.881 31.3059 199.737 37.3347C193.593 43.3635 189.42 51.8835 187.975 61.3497C186.53 70.8159 187.909 80.6014 191.862 88.9317C195.814 97.262 202.079 103.586 209.519 106.755C216.96 109.925 225.083 109.732 232.417 106.21C232.892 108.284 233.781 110.181 235.004 111.733C236.226 113.284 237.745 114.44 239.423 115.098C241.101 115.756 242.886 115.896 244.619 115.504C246.352 115.112 247.978 114.201 249.353 112.853C250.727 111.504 251.806 109.76 252.493 107.777C253.181 105.794 253.455 103.634 253.292 101.489C253.129 99.3448 252.533 97.2832 251.558 95.4892C250.583 93.6952 249.259 92.2247 247.704 91.2093Z" fill="#FDCA05"/>
<path d="M219.97 48.7178C227.524 48.7178 232.72 53.2959 232.72 59.8771C232.72 64.2351 230.787 67.2505 227.06 69.6497C223.555 71.8727 222.367 73.5015 222.367 76.3188C222.367 76.5472 222.326 76.7733 222.246 76.9842C222.166 77.1952 222.049 77.3869 221.901 77.5484C221.753 77.7098 221.578 77.8379 221.385 77.9253C221.192 78.0127 220.985 78.0576 220.776 78.0576H216.914C216.502 78.0576 216.106 77.8827 215.809 77.5696C215.512 77.2565 215.338 76.8298 215.324 76.3794L215.317 76.1647C214.975 71.6306 216.425 68.8133 220.071 66.4802C223.475 64.2571 224.905 62.8485 224.905 60.1192C224.905 57.3899 222.488 55.3869 219.487 55.3869C217.205 55.3869 215.4 56.6003 214.572 58.5812C214.281 59.2518 213.82 59.8173 213.245 60.2107C212.669 60.6042 212.002 60.8092 211.323 60.8015C208.706 60.8015 206.978 57.7612 208.201 55.2341C210.137 51.2365 214.221 48.7178 219.97 48.7178ZM214.673 86.4436C214.673 83.9124 216.606 81.9095 218.983 81.9095C221.38 81.9095 223.314 83.8904 223.314 86.4436C223.314 88.9968 221.38 90.9778 218.983 90.9778C216.586 90.9778 214.673 88.9968 214.673 86.4436Z" fill="#032B4D"/>
</g>
<path d="M588 163H158V242.181H588V163Z" fill="url(#paint0_linear)"/>
<g filter="url(#filter0_d)">
<path d="M624.177 165.71H160.48V237.762H624.177V165.71Z" fill="white"/>
</g>
<g filter="url(#filter1_d)">
<path d="M499.052 180.292H186.767V223.18H499.052V180.292Z" fill="#F5F5F5"/>
</g>
<path d="M571.006 183.117C567.993 179.994 564.147 177.794 559.921 176.773C555.695 175.752 551.265 175.954 547.15 177.354C543.035 178.754 539.407 181.295 536.692 184.678C533.977 188.061 532.288 192.145 531.824 196.45C531.36 200.756 532.139 205.104 534.07 208.984C536.002 212.864 539.005 216.114 542.728 218.353C546.45 220.591 550.737 221.725 555.084 221.621C559.431 221.518 563.658 220.18 567.269 217.767L583.782 234.871C583.986 235.083 584.267 235.205 584.561 235.211C584.856 235.217 585.141 235.106 585.354 234.902L589.469 230.962C589.681 230.759 589.804 230.48 589.81 230.186C589.816 229.893 589.704 229.609 589.5 229.397L572.987 212.292C576.153 207.973 577.689 202.681 577.327 197.346C576.965 192.01 574.727 186.972 571.006 183.117ZM565.863 210.612C563.533 212.842 560.592 214.335 557.411 214.9C554.229 215.466 550.951 215.079 547.99 213.789C545.03 212.5 542.519 210.364 540.777 207.654C539.035 204.944 538.139 201.78 538.203 198.562C538.266 195.345 539.287 192.218 541.135 189.578C542.982 186.938 545.575 184.903 548.584 183.73C551.594 182.557 554.885 182.299 558.041 182.989C561.198 183.679 564.078 185.286 566.318 187.605C569.321 190.716 570.96 194.888 570.875 199.202C570.79 203.517 568.987 207.621 565.863 210.612Z" fill="url(#paint1_linear)"/>
<path d="M500.378 194.359C498.54 194.359 498.537 197.203 500.378 197.203C502.215 197.203 502.218 194.359 500.378 194.359Z" fill="url(#paint2_linear)"/>
<path d="M513.186 185.25C510.856 185.18 508.546 185.703 506.475 186.768C504.403 187.834 502.639 189.407 501.347 191.34C500.567 192.556 502.783 193.631 503.559 192.421C505.54 189.333 509.306 187.372 513.374 187.474C515.433 187.546 517.442 188.123 519.222 189.155C521.003 190.186 522.5 191.639 523.581 193.385C524.361 194.666 526.404 193.501 525.629 192.229C523.137 188.139 518.295 185.366 513.186 185.25Z" fill="url(#paint3_linear)"/>
<path d="M571.006 180.616C567.993 177.494 564.147 175.293 559.921 174.272C555.695 173.252 551.265 173.453 547.15 174.854C543.035 176.254 539.407 178.795 536.692 182.177C533.977 185.56 532.288 189.644 531.824 193.95C531.36 198.256 532.139 202.604 534.07 206.484C536.002 210.363 539.005 213.613 542.728 215.852C546.45 218.091 550.737 219.225 555.084 219.121C559.431 219.017 563.658 217.68 567.269 215.266L583.782 232.371C583.986 232.583 584.267 232.705 584.561 232.71C584.856 232.716 585.141 232.605 585.354 232.402L589.469 228.462C589.681 228.258 589.804 227.979 589.81 227.686C589.816 227.392 589.704 227.108 589.5 226.897L572.987 209.792C576.153 205.473 577.689 200.181 577.327 194.845C576.965 189.51 574.727 184.472 571.006 180.616ZM565.863 208.111C563.533 210.342 560.592 211.834 557.411 212.4C554.229 212.965 550.951 212.579 547.99 211.289C545.03 209.999 542.519 207.864 540.777 205.154C539.035 202.443 538.139 199.279 538.203 196.062C538.266 192.844 539.287 189.718 541.135 187.077C542.982 184.437 545.575 182.402 548.584 181.23C551.594 180.057 554.885 179.799 558.041 180.489C561.198 181.179 564.078 182.785 566.318 185.105C569.321 188.216 570.96 192.387 570.875 196.702C570.79 201.016 568.987 205.121 565.863 208.111Z" fill="#032B4D"/>
<path d="M542.436 191.859C540.599 191.859 540.596 194.702 542.436 194.702C544.274 194.702 544.277 191.859 542.436 191.859Z" fill="#6C63FF"/>
<path d="M555.244 182.75C552.914 182.68 550.605 183.202 548.533 184.268C546.462 185.333 544.697 186.906 543.406 188.839C542.625 190.056 544.841 191.131 545.618 189.921C547.599 186.833 551.364 184.872 555.433 184.973C557.492 185.046 559.5 185.623 561.281 186.654C563.061 187.686 564.558 189.139 565.639 190.885C566.419 192.165 568.463 191.001 567.688 189.729C565.195 185.638 560.354 182.865 555.244 182.75Z" fill="#6C63FF"/>
<g filter="url(#filter2_d)">
<g clip-path="url(#clip1)">
<path d="M632.818 631.688C659.296 631.688 680.76 610.426 680.76 584.199C680.76 557.971 659.296 536.709 632.818 536.709C606.341 536.709 584.877 557.971 584.877 584.199C584.877 610.426 606.341 631.688 632.818 631.688Z" stroke="#FF4466" stroke-width="4" stroke-miterlimit="10" stroke-dasharray="12 12"/>
<path d="M759.257 622.295C785.735 622.295 807.199 601.033 807.199 574.805C807.199 548.578 785.735 527.316 759.257 527.316C732.78 527.316 711.316 548.578 711.316 574.805C711.316 601.033 732.78 622.295 759.257 622.295Z" stroke="#FF4466" stroke-width="4" stroke-miterlimit="10" stroke-dasharray="12 12"/>
<path d="M777.791 593.156C775.726 590.981 774.575 588.108 774.572 585.122C774.584 583.063 775.135 581.041 776.17 579.254C777.205 577.468 778.689 575.977 780.478 574.928C779.678 573.776 779.248 572.412 779.245 571.014C779.245 567.076 782.58 563.885 786.695 563.885C788.284 563.869 789.836 564.359 791.123 565.283C792.41 566.207 793.363 567.516 793.841 569.018C794.857 567.435 796.262 566.133 797.924 565.236C799.587 564.338 801.452 563.873 803.345 563.885C809.475 563.885 814.446 568.642 814.446 574.508C814.446 575.76 814.216 577.003 813.766 578.174C813.99 578.158 814.216 578.14 814.446 578.14C819.366 578.14 823.354 581.957 823.354 586.667C823.354 586.955 823.339 587.242 823.309 587.528C827.245 589.151 830 592.895 830 597.256C830 603.103 825.048 607.844 818.937 607.844C818.295 607.843 817.654 607.789 817.022 607.682C817.053 608.035 817.074 608.392 817.074 608.752C817.074 615.315 811.516 620.635 804.66 620.635C802.143 620.642 799.681 619.905 797.59 618.519C795.897 619.893 793.775 620.641 791.586 620.635C786.463 620.635 782.312 616.661 782.312 611.763C782.312 611.552 782.33 611.343 782.346 611.134H782.312C776.827 611.134 772.381 606.879 772.381 601.629C772.392 599.857 772.905 598.123 773.862 596.625C774.818 595.128 776.18 593.926 777.791 593.156V593.156Z" fill="url(#paint4_linear)"/>
<path d="M778.795 593.117C776.819 591.035 775.719 588.285 775.716 585.428C775.727 583.456 776.253 581.521 777.244 579.81C778.235 578.1 779.656 576.673 781.368 575.669C780.601 574.564 780.189 573.255 780.188 571.914C780.188 568.146 783.381 565.091 787.319 565.091C788.841 565.076 790.327 565.545 791.56 566.429C792.793 567.312 793.707 568.565 794.168 570.001C795.139 568.49 796.481 567.247 798.069 566.388C799.657 565.53 801.439 565.084 803.248 565.093C809.117 565.093 813.871 569.647 813.871 575.27C813.872 576.469 813.651 577.658 813.221 578.779C813.437 578.763 813.653 578.748 813.871 578.748C818.581 578.748 822.398 582.401 822.398 586.91C822.397 587.185 822.382 587.46 822.353 587.734C826.12 589.3 828.757 592.872 828.757 597.044C828.757 602.641 824.015 607.179 818.167 607.179C817.55 607.179 816.933 607.127 816.324 607.025C816.355 607.361 816.374 607.703 816.374 608.048C816.374 614.328 811.053 619.419 804.491 619.419C802.082 619.425 799.726 618.72 797.724 617.394C796.11 618.706 794.088 619.424 792 619.424C787.098 619.424 783.123 615.62 783.123 610.928C783.123 610.725 783.139 610.526 783.154 610.326H783.123C777.873 610.326 773.616 606.252 773.616 601.227C773.627 599.531 774.118 597.871 775.034 596.438C775.949 595.004 777.252 593.854 778.795 593.117V593.117Z" fill="#009688"/>
<path d="M800.614 581.222H797.139V644.427H800.614V581.222Z" fill="url(#paint5_linear)"/>
<path d="M799.897 581.222H797.974V644.427H799.897V581.222Z" fill="#795548"/>
<path d="M788.423 587.973L787.05 589.307L798.444 600.82L799.818 599.487L788.423 587.973Z" fill="#795548"/>
<path d="M810.39 601.05L798.578 609.261L799.683 610.82L811.494 602.61L810.39 601.05Z" fill="#795548"/>
<path d="M800.732 594.265C801.917 592.923 802.797 591.345 803.312 589.637C803.828 587.928 803.968 586.131 803.722 584.364C803.476 582.598 802.85 580.905 801.887 579.399C800.923 577.893 799.645 576.609 798.137 575.635C798.917 574.44 799.33 573.047 799.328 571.625C799.328 567.601 796.109 564.339 792.137 564.339C790.567 564.351 789.044 564.869 787.798 565.816C786.553 566.762 785.653 568.085 785.235 569.584C784.3 567.994 782.961 566.674 781.352 565.754C779.742 564.834 777.919 564.346 776.061 564.339C770.142 564.339 765.342 569.2 765.342 575.197C765.341 576.474 765.563 577.742 765.998 578.944C765.782 578.928 765.564 578.91 765.342 578.91C760.601 578.91 756.739 582.824 756.739 587.625C756.739 587.922 756.755 588.214 756.784 588.504C754.85 589.363 753.21 590.759 752.063 592.524C750.916 594.289 750.311 596.346 750.322 598.446C750.322 604.423 755.106 609.269 761.004 609.269C761.622 609.268 762.239 609.213 762.848 609.105C762.816 609.465 762.798 609.83 762.798 610.198C762.798 616.904 768.163 622.342 774.786 622.342C777.233 622.342 779.619 621.586 781.611 620.178C783.214 621.571 785.273 622.34 787.406 622.342C792.353 622.342 796.362 618.279 796.362 613.269C796.362 613.052 796.343 612.838 796.33 612.625H796.362C801.659 612.625 805.95 608.275 805.95 602.91C805.958 601.135 805.477 599.391 804.557 597.868C803.637 596.344 802.315 595.098 800.732 594.265V594.265Z" fill="url(#paint6_linear)"/>
<path d="M799.346 594.208C800.457 592.948 801.283 591.467 801.766 589.864C802.25 588.261 802.38 586.574 802.149 584.917C801.918 583.26 801.331 581.671 800.427 580.258C799.523 578.845 798.324 577.64 796.91 576.725C797.641 575.604 798.029 574.296 798.027 572.96C798.027 569.182 795.005 566.121 791.275 566.121C789.804 566.134 788.377 566.622 787.21 567.51C786.044 568.397 785.2 569.638 784.809 571.042C783.93 569.549 782.674 568.31 781.163 567.446C779.652 566.582 777.939 566.125 776.195 566.119C770.639 566.119 766.135 570.682 766.135 576.311C766.134 577.51 766.342 578.7 766.751 579.828C766.549 579.812 766.343 579.797 766.135 579.797C761.675 579.797 758.061 583.45 758.061 587.977C758.061 588.256 758.075 588.53 758.104 588.801C756.29 589.609 754.752 590.921 753.677 592.578C752.602 594.235 752.035 596.165 752.045 598.135C752.045 603.745 756.523 608.293 762.073 608.293C762.655 608.292 763.236 608.241 763.809 608.139C763.78 608.478 763.762 608.82 763.762 609.164C763.762 615.461 768.798 620.562 775.012 620.562C777.309 620.563 779.549 619.853 781.418 618.532C782.923 619.839 784.856 620.56 786.858 620.562C791.499 620.562 795.263 616.75 795.263 612.045C795.263 611.841 795.248 611.641 795.234 611.44H795.263C800.234 611.44 804.264 607.356 804.264 602.32C804.271 600.652 803.816 599.014 802.949 597.584C802.082 596.154 800.836 594.986 799.346 594.208V594.208Z" fill="#00897B"/>
<path d="M781.597 581.198H778.984V645.59H781.597V581.198Z" fill="url(#paint7_linear)"/>
<path d="M781.042 582.103H779.727V645.59H781.042V582.103Z" fill="#795548"/>
<path d="M790.392 589.259L779.604 600.8L780.568 601.684L791.357 590.144L790.392 589.259Z" fill="#795548"/>
<path d="M769.3 602.429L768.516 603.475L779.701 611.703L780.485 610.658L769.3 602.429Z" fill="#795548"/>
<path d="M750.383 613.094C748.976 611.61 748.192 609.651 748.192 607.615C748.2 606.211 748.575 604.834 749.28 603.616C749.986 602.399 750.997 601.384 752.216 600.669C751.669 599.882 751.376 598.949 751.376 597.994C751.376 595.312 753.649 593.136 756.452 593.136C757.535 593.125 758.593 593.459 759.47 594.088C760.346 594.718 760.996 595.609 761.323 596.632C762.015 595.554 762.973 594.667 764.106 594.055C765.239 593.444 766.51 593.127 767.8 593.136C771.978 593.136 775.365 596.376 775.365 600.374C775.366 601.228 775.209 602.075 774.902 602.873C775.055 602.873 775.207 602.85 775.365 602.85C778.719 602.85 781.424 605.459 781.424 608.661C781.424 608.857 781.413 609.053 781.392 609.248C782.729 609.782 783.877 610.697 784.688 611.877C785.5 613.058 785.94 614.45 785.952 615.878C785.952 619.863 782.578 623.093 778.413 623.093C777.972 623.093 777.531 623.057 777.096 622.983C777.12 623.223 777.133 623.466 777.133 623.711C777.133 628.184 773.345 631.8 768.672 631.8C766.967 631.808 765.298 631.315 763.875 630.383C762.72 631.316 761.274 631.821 759.784 631.813C756.294 631.813 753.462 629.105 753.462 625.765C753.462 625.619 753.462 625.478 753.486 625.337H753.462C749.725 625.337 746.695 622.438 746.695 618.861C746.705 617.654 747.055 616.474 747.707 615.455C748.359 614.436 749.286 613.618 750.383 613.094V613.094Z" fill="url(#paint8_linear)"/>
<path d="M751.065 613.068C749.716 611.65 748.962 609.777 748.958 607.828C748.966 606.485 749.325 605.166 750 604.001C750.676 602.836 751.644 601.864 752.812 601.18C752.288 600.427 752.008 599.534 752.008 598.62C752.008 596.053 754.184 593.97 756.866 593.97C757.902 593.96 758.915 594.279 759.755 594.882C760.594 595.485 761.216 596.339 761.528 597.318C762.19 596.286 763.107 595.437 764.191 594.852C765.275 594.266 766.491 593.963 767.726 593.97C771.725 593.97 774.967 597.073 774.967 600.901C774.968 601.718 774.818 602.529 774.525 603.294C774.672 603.294 774.817 603.273 774.967 603.273C778.176 603.273 780.778 605.762 780.778 608.833C780.778 609.02 780.769 609.208 780.749 609.394C782.029 609.905 783.127 610.781 783.904 611.911C784.681 613.04 785.102 614.373 785.114 615.74C785.114 619.555 781.882 622.647 777.897 622.647C777.478 622.646 777.061 622.612 776.648 622.542C776.669 622.772 776.682 623.004 776.682 623.239C776.682 627.518 773.058 630.989 768.585 630.989C766.944 630.993 765.339 630.512 763.975 629.608C762.872 630.505 761.488 630.992 760.061 630.989C756.721 630.989 754.002 628.398 754.002 625.199C754.002 625.06 754.002 624.925 754.023 624.789H754.002C750.425 624.789 747.525 622.013 747.525 618.589C747.534 617.433 747.871 616.303 748.497 615.327C749.123 614.35 750.013 613.568 751.065 613.068V613.068Z" fill="#009688"/>
<path d="M765.935 604.961H763.567V648.033H765.935V604.961Z" fill="url(#paint9_linear)"/>
<path d="M765.445 604.961H764.136V648.033H765.445V604.961Z" fill="#795548"/>
<path d="M757.626 609.561L756.691 610.469L764.454 618.313L765.389 617.406L757.626 609.561Z" fill="#795548"/>
<path d="M772.598 618.471L764.549 624.066L765.301 625.128L773.35 619.533L772.598 618.471Z" fill="#795548"/>
<path d="M772.66 614.373C773.456 613.472 774.048 612.413 774.396 611.266C774.743 610.12 774.837 608.913 774.672 607.727C774.507 606.541 774.086 605.404 773.439 604.393C772.791 603.383 771.931 602.522 770.918 601.869C771.438 601.065 771.712 600.13 771.709 599.176C771.737 598.011 771.334 596.876 770.575 595.986C769.817 595.095 768.755 594.511 767.591 594.342C766.428 594.174 765.242 594.433 764.258 595.071C763.273 595.709 762.559 596.682 762.249 597.806C761.622 596.74 760.724 595.854 759.645 595.237C758.566 594.619 757.342 594.292 756.096 594.286C752.124 594.286 748.902 597.548 748.902 601.574C748.901 602.431 749.05 603.282 749.342 604.089C749.197 604.089 749.05 604.066 748.902 604.066C748.135 604.074 747.378 604.232 746.672 604.531C745.967 604.83 745.328 605.263 744.792 605.806C744.256 606.349 743.833 606.992 743.547 607.697C743.262 608.402 743.12 609.156 743.128 609.916C743.128 610.114 743.128 610.312 743.157 610.506C741.859 611.082 740.758 612.02 739.989 613.205C739.219 614.39 738.813 615.771 738.821 617.18C738.821 621.191 742.032 624.444 745.992 624.444C746.408 624.444 746.823 624.408 747.232 624.335C747.211 624.578 747.198 624.82 747.198 625.068C747.198 629.569 750.802 633.22 755.243 633.22C756.885 633.22 758.486 632.713 759.823 631.769C760.9 632.703 762.283 633.219 763.714 633.22C764.512 633.211 765.301 633.046 766.036 632.735C766.77 632.424 767.435 631.973 767.993 631.408C768.551 630.842 768.992 630.173 769.289 629.439C769.586 628.705 769.734 627.92 769.725 627.129C769.725 626.983 769.725 626.84 769.704 626.696H769.725C773.281 626.696 776.163 623.776 776.163 620.173C776.168 618.982 775.845 617.812 775.227 616.789C774.61 615.767 773.722 614.931 772.66 614.373V614.373Z" fill="url(#paint10_linear)"/>
<path d="M771.73 614.336C772.477 613.49 773.032 612.495 773.357 611.419C773.682 610.342 773.77 609.209 773.615 608.096C773.46 606.982 773.066 605.915 772.458 604.966C771.851 604.017 771.045 603.208 770.094 602.594C770.585 601.842 770.846 600.964 770.845 600.068C770.872 598.975 770.493 597.909 769.781 597.073C769.069 596.237 768.073 595.688 766.98 595.53C765.888 595.372 764.774 595.615 763.85 596.214C762.927 596.813 762.256 597.727 761.965 598.782C761.376 597.78 760.532 596.948 759.518 596.369C758.504 595.789 757.354 595.482 756.183 595.479C752.454 595.479 749.432 598.542 749.432 602.32C749.431 603.125 749.571 603.924 749.846 604.682C749.709 604.682 749.582 604.661 749.432 604.661C747.981 604.677 746.595 605.263 745.579 606.291C744.563 607.318 744 608.702 744.014 610.14C744.014 610.328 744.014 610.513 744.04 610.693C742.822 611.234 741.789 612.114 741.067 613.226C740.344 614.338 739.963 615.634 739.97 616.956C739.97 620.721 742.984 623.774 746.701 623.774C747.091 623.773 747.481 623.738 747.865 623.669C747.844 623.896 747.833 624.126 747.833 624.358C747.833 628.583 751.215 632.009 755.385 632.009C756.927 632.01 758.431 631.534 759.687 630.647C760.696 631.525 761.994 632.009 763.338 632.009C764.851 631.992 766.295 631.38 767.353 630.308C768.411 629.237 768.996 627.793 768.98 626.294C768.98 626.159 768.98 626.033 768.959 625.89H768.98C769.783 625.881 770.576 625.716 771.314 625.403C772.052 625.091 772.72 624.637 773.281 624.069C773.843 623.501 774.285 622.828 774.584 622.09C774.883 621.352 775.032 620.564 775.023 619.769C775.025 618.652 774.72 617.556 774.139 616.599C773.559 615.641 772.726 614.859 771.73 614.336V614.336Z" fill="#00897B"/>
<path d="M759.818 605.603H758.064V648.823H759.818V605.603Z" fill="url(#paint11_linear)"/>
<path d="M759.444 606.211H758.562V648.823H759.444V606.211Z" fill="#795548"/>
<path d="M765.718 611.011L758.477 618.757L759.125 619.351L766.366 611.605L765.718 611.011Z" fill="#795548"/>
<path d="M751.561 619.853L751.035 620.555L758.542 626.078L759.068 625.376L751.561 619.853Z" fill="#795548"/>
<path d="M757.034 584.405H682.751V649.898H757.034V584.405Z" fill="url(#paint12_linear)"/>
<path d="M755.191 584.405H634.02V647.811H755.191V584.405Z" fill="white"/>
<path d="M760.988 590.667H641.925V559.877H756.642C757.795 559.877 758.9 560.331 759.715 561.138C760.53 561.946 760.988 563.041 760.988 564.183V590.667Z" fill="url(#paint13_linear)"/>
<path d="M641.922 561.096H755.617C756.77 561.096 757.875 561.549 758.691 562.357C759.506 563.164 759.964 564.259 759.964 565.401V589.874H641.922V561.096Z" fill="#6C63FF"/>
<path opacity="0.7" d="M641.922 561.096H755.617C756.77 561.096 757.875 561.549 758.691 562.357C759.506 563.164 759.964 564.259 759.964 565.401V589.874H641.922V561.096Z" fill="#032B4D"/>
<path d="M641.659 526.476L600.566 555.141V579.296V649.896H682.751V579.296V555.141L641.659 526.476Z" fill="url(#paint14_linear)"/>
<path d="M680.908 554.659L641.922 526.476L602.937 554.659V578.401H680.908V554.659Z" fill="#6C63FF"/>
<path opacity="0.5" d="M680.908 554.659L641.922 526.476L602.937 554.659V578.401H680.908V554.659Z" fill="#032B4D"/>
<path d="M680.908 578.403H602.937V647.811H680.908V578.403Z" fill="white"/>
<path d="M685.913 568.746L641.922 537.63L597.405 568.746L594.508 557.803L641.922 523.618L689.337 557.803L685.913 568.746Z" fill="url(#paint15_linear)"/>
<path d="M685.509 567.144L641.922 535.72L598.337 567.144L596.475 557.304L641.922 524.542L687.371 557.304L685.509 567.144Z" fill="#032B4D"/>
<path opacity="0.2" d="M685.509 567.144L641.922 535.72L598.337 567.144L596.475 557.304L641.922 524.542L687.371 557.304L685.509 567.144Z" fill="#032B4D"/>
<path d="M664.049 593.537H619.795V647.811H664.049V593.537Z" fill="#FDCA05"/>
<path d="M664.049 593.537H619.795V602.931H664.049V593.537Z" fill="#032B4D"/>
<path d="M664.049 638.417H619.795V647.81H664.049V638.417Z" fill="#032B4D"/>
<path d="M716.031 628.295C716.136 628.295 716.236 628.254 716.31 628.181C716.384 628.107 716.426 628.008 716.426 627.904C716.426 627.8 716.384 627.701 716.31 627.627C716.236 627.554 716.136 627.513 716.031 627.513C715.926 627.513 715.826 627.554 715.751 627.627C715.677 627.701 715.636 627.8 715.636 627.904C715.636 628.008 715.677 628.107 715.751 628.181C715.826 628.254 715.926 628.295 716.031 628.295V628.295Z" fill="#00FF00"/>
<path d="M726.742 608.149H705.142V647.811H726.742V608.149Z" fill="#FDCA05"/>
<path d="M752.556 599.799H732.273V614.411H752.556V599.799Z" fill="#F2F2F2"/>
<path opacity="0.2" d="M752.556 599.799H732.273V606.323H752.556V599.799Z" fill="#6C63FF"/>
<path d="M591.989 620.872C590.811 619.639 590.151 618.007 590.145 616.308C590.153 615.139 590.466 613.991 591.054 612.976C591.642 611.962 592.485 611.115 593.501 610.518C593.045 609.863 592.801 609.086 592.8 608.29C592.82 607.197 593.276 606.157 594.069 605.398C594.863 604.639 595.928 604.222 597.031 604.24C597.935 604.23 598.819 604.509 599.551 605.034C600.284 605.56 600.826 606.306 601.098 607.16C601.675 606.261 602.473 605.522 603.418 605.012C604.362 604.502 605.422 604.239 606.498 604.246C609.98 604.246 612.804 606.949 612.804 610.281C612.805 610.994 612.673 611.702 612.417 612.368C612.546 612.368 612.68 612.35 612.804 612.35C615.599 612.35 617.864 614.518 617.864 617.193C617.864 617.356 617.855 617.519 617.838 617.681C618.952 618.126 619.908 618.889 620.585 619.873C621.262 620.856 621.628 622.017 621.639 623.207C621.639 626.529 618.826 629.222 615.354 629.222C614.989 629.221 614.625 629.191 614.266 629.13C614.284 629.331 614.295 629.532 614.295 629.738C614.295 633.467 611.134 636.489 607.243 636.489C605.813 636.492 604.415 636.074 603.226 635.286C602.265 636.067 601.059 636.492 599.815 636.489C596.917 636.489 594.547 634.232 594.547 631.445C594.547 631.325 594.547 631.205 594.565 631.087H594.547C591.43 631.087 588.904 628.669 588.904 625.689C588.911 624.68 589.204 623.694 589.749 622.842C590.295 621.99 591.071 621.308 591.989 620.872V620.872Z" fill="url(#paint16_linear)"/>
<path d="M592.55 620.852C591.428 619.669 590.803 618.107 590.801 616.484C590.808 615.364 591.107 614.265 591.669 613.294C592.232 612.322 593.039 611.512 594.012 610.942C593.576 610.314 593.343 609.569 593.343 608.807C593.352 608.289 593.464 607.778 593.672 607.303C593.881 606.827 594.182 606.397 594.558 606.037C594.934 605.677 595.378 605.394 595.865 605.204C596.351 605.014 596.871 604.921 597.394 604.93C598.258 604.921 599.102 605.188 599.801 605.69C600.501 606.192 601.019 606.903 601.28 607.719C601.832 606.859 602.596 606.151 603.5 605.663C604.404 605.175 605.418 604.923 606.448 604.93C609.78 604.93 612.483 607.516 612.483 610.707C612.483 611.388 612.358 612.064 612.114 612.7C612.235 612.7 612.359 612.682 612.483 612.682C615.159 612.682 617.327 614.769 617.327 617.319C617.327 617.475 617.319 617.631 617.303 617.786C618.37 618.213 619.284 618.943 619.931 619.885C620.578 620.827 620.929 621.938 620.938 623.078C620.938 626.258 618.246 628.836 614.922 628.836C614.569 628.836 614.216 628.807 613.868 628.748C613.887 628.938 613.897 629.134 613.897 629.329C613.897 632.896 610.876 635.79 607.146 635.79C605.782 635.79 604.449 635.389 603.316 634.637C602.396 635.384 601.242 635.791 600.052 635.787C597.268 635.787 595.01 633.627 595.01 630.96C595.01 630.845 595.01 630.731 595.029 630.618H595.01C592.028 630.618 589.61 628.304 589.61 625.449C589.618 624.488 589.898 623.547 590.417 622.735C590.937 621.922 591.676 621.27 592.55 620.852V620.852Z" fill="#009688"/>
<path d="M604.946 614.093H602.971V650H604.946V614.093Z" fill="url(#paint17_linear)"/>
<path d="M604.535 614.093H603.445V650H604.535V614.093Z" fill="#795548"/>
<path d="M598.018 617.927L597.239 618.683L603.712 625.223L604.49 624.467L598.018 617.927Z" fill="#795548"/>
<path d="M610.5 625.357L603.79 630.021L604.416 630.905L611.127 626.241L610.5 625.357Z" fill="#795548"/>
<path d="M579.082 620.872C577.903 619.639 577.244 618.007 577.238 616.308C577.246 615.139 577.559 613.991 578.147 612.976C578.735 611.962 579.578 611.115 580.594 610.518C580.138 609.863 579.893 609.086 579.893 608.29C579.912 607.197 580.369 606.157 581.162 605.398C581.955 604.639 583.02 604.222 584.123 604.24C585.028 604.23 585.912 604.509 586.644 605.034C587.376 605.56 587.919 606.306 588.191 607.16C588.768 606.261 589.566 605.522 590.511 605.012C591.455 604.502 592.515 604.239 593.591 604.246C597.073 604.246 599.897 606.949 599.897 610.281C599.897 610.994 599.766 611.702 599.509 612.368C599.639 612.368 599.773 612.35 599.897 612.35C602.691 612.35 604.957 614.518 604.957 617.193C604.957 617.356 604.948 617.519 604.931 617.681C606.045 618.126 607.001 618.889 607.678 619.873C608.355 620.856 608.721 622.017 608.732 623.207C608.732 626.529 605.918 629.222 602.447 629.222C602.082 629.221 601.718 629.191 601.359 629.13C601.377 629.331 601.388 629.532 601.388 629.738C601.388 633.467 598.227 636.489 594.336 636.489C592.906 636.492 591.507 636.074 590.319 635.286C589.357 636.067 588.151 636.492 586.908 636.489C584.01 636.489 581.639 634.232 581.639 631.445C581.639 631.325 581.639 631.205 581.658 631.087H581.639C578.523 631.087 575.997 628.669 575.997 625.689C576.004 624.68 576.297 623.694 576.842 622.842C577.387 621.99 578.163 621.308 579.082 620.872V620.872Z" fill="url(#paint18_linear)"/>
<path d="M579.643 620.852C578.521 619.669 577.896 618.107 577.894 616.484C577.9 615.364 578.199 614.265 578.762 613.294C579.325 612.322 580.132 611.512 581.105 610.942C580.669 610.314 580.435 609.569 580.436 608.807C580.445 608.289 580.556 607.778 580.765 607.303C580.973 606.827 581.274 606.397 581.651 606.037C582.027 605.677 582.471 605.394 582.958 605.204C583.444 605.014 583.964 604.921 584.487 604.93C585.351 604.921 586.195 605.188 586.894 605.69C587.594 606.192 588.112 606.903 588.372 607.719C588.925 606.859 589.689 606.151 590.593 605.663C591.497 605.175 592.511 604.923 593.541 604.93C596.873 604.93 599.575 607.516 599.575 610.707C599.576 611.388 599.451 612.064 599.207 612.7C599.328 612.7 599.452 612.682 599.575 612.682C602.252 612.682 604.42 614.769 604.42 617.319C604.42 617.475 604.412 617.631 604.396 617.786C605.462 618.213 606.377 618.943 607.024 619.885C607.671 620.827 608.022 621.938 608.031 623.078C608.031 626.258 605.339 628.836 602.015 628.836C601.662 628.836 601.309 628.807 600.961 628.748C600.979 628.938 600.99 629.134 600.99 629.329C600.99 632.896 597.969 635.79 594.239 635.79C592.875 635.79 591.542 635.389 590.409 634.637C589.489 635.384 588.335 635.791 587.145 635.787C584.361 635.787 582.103 633.627 582.103 630.96C582.103 630.845 582.103 630.731 582.122 630.618H582.103C579.121 630.618 576.703 628.304 576.703 625.449C576.711 624.488 576.99 623.547 577.51 622.735C578.029 621.922 578.768 621.27 579.643 620.852V620.852Z" fill="#009688"/>
<path d="M592.039 614.093H590.063V650H592.039V614.093Z" fill="url(#paint19_linear)"/>
<path d="M591.629 614.093H590.538V650H591.629V614.093Z" fill="#795548"/>
<path d="M585.113 617.928L584.334 618.684L590.806 625.224L591.585 624.468L585.113 617.928Z" fill="#795548"/>
<path d="M597.593 625.358L590.883 630.023L591.509 630.907L598.219 626.243L597.593 625.358Z" fill="#795548"/>
<path d="M608.445 621.157C609.11 620.405 609.604 619.521 609.894 618.564C610.184 617.607 610.263 616.599 610.126 615.61C609.988 614.62 609.637 613.671 609.097 612.827C608.556 611.983 607.839 611.264 606.993 610.719C607.43 610.051 607.661 609.271 607.66 608.475C607.684 607.504 607.348 606.557 606.716 605.814C606.084 605.071 605.199 604.583 604.228 604.442C603.257 604.302 602.268 604.518 601.447 605.051C600.626 605.583 600.031 606.395 599.773 607.332C599.25 606.443 598.501 605.704 597.6 605.189C596.7 604.674 595.679 604.401 594.639 604.397C593.843 604.405 593.055 604.568 592.322 604.878C591.589 605.188 590.925 605.637 590.368 606.202C589.811 606.766 589.372 607.434 589.075 608.166C588.779 608.899 588.632 609.682 588.641 610.471C588.641 611.183 588.765 611.889 589.008 612.559C588.886 612.559 588.765 612.541 588.641 612.541C588 612.547 587.365 612.679 586.775 612.929C586.185 613.179 585.651 613.543 585.203 613.998C584.756 614.453 584.403 614.992 584.166 615.583C583.93 616.174 583.813 616.805 583.824 617.441C583.824 617.608 583.824 617.772 583.847 617.934C582.766 618.415 581.848 619.197 581.206 620.184C580.565 621.172 580.227 622.323 580.233 623.497C580.218 625.084 580.839 626.613 581.959 627.748C583.079 628.883 584.608 629.532 586.21 629.553C586.557 629.553 586.904 629.523 587.245 629.462C587.227 629.663 587.216 629.866 587.216 630.073C587.216 633.825 590.219 636.857 593.923 636.857C595.292 636.856 596.627 636.433 597.742 635.646C598.639 636.425 599.792 636.856 600.985 636.857C602.328 636.84 603.609 636.296 604.547 635.345C605.486 634.393 606.005 633.112 605.99 631.782C605.99 631.659 605.99 631.542 605.971 631.422H605.99C607.429 631.405 608.802 630.823 609.808 629.804C610.815 628.785 611.371 627.412 611.356 625.986C611.36 624.995 611.091 624.022 610.578 623.171C610.065 622.319 609.328 621.623 608.445 621.157V621.157Z" fill="url(#paint20_linear)"/>
<path d="M607.67 621.125C608.292 620.42 608.755 619.591 609.025 618.694C609.296 617.797 609.369 616.852 609.24 615.925C609.111 614.997 608.782 614.108 608.276 613.317C607.769 612.526 607.098 611.852 606.306 611.341C606.715 610.713 606.931 609.982 606.93 609.235C606.954 608.322 606.64 607.432 606.047 606.733C605.453 606.035 604.622 605.576 603.71 605.444C602.798 605.311 601.868 605.515 601.097 606.016C600.327 606.517 599.768 607.281 599.528 608.162C599.036 607.327 598.333 606.633 597.488 606.15C596.642 605.667 595.684 605.411 594.708 605.407C593.2 605.428 591.762 606.04 590.709 607.109C589.656 608.178 589.075 609.617 589.092 611.111C589.091 611.782 589.208 612.447 589.437 613.078C589.323 613.078 589.207 613.06 589.092 613.06C587.88 613.074 586.723 613.564 585.876 614.422C585.029 615.28 584.561 616.437 584.574 617.637C584.574 617.793 584.574 617.947 584.598 618.099C583.583 618.55 582.722 619.283 582.119 620.209C581.517 621.136 581.199 622.215 581.205 623.317C581.189 624.808 581.771 626.244 582.823 627.309C583.875 628.375 585.311 628.983 586.816 629C587.142 629 587.467 628.971 587.788 628.914C587.772 629.105 587.761 629.295 587.761 629.488C587.761 633.011 590.58 635.865 594.057 635.865C595.342 635.866 596.595 635.469 597.642 634.73C598.484 635.46 599.564 635.862 600.682 635.863C601.307 635.856 601.924 635.727 602.498 635.484C603.073 635.241 603.593 634.888 604.03 634.446C604.467 634.003 604.812 633.48 605.044 632.906C605.277 632.331 605.393 631.717 605.386 631.098C605.386 630.983 605.386 630.871 605.371 630.759H605.386C606.055 630.751 606.716 630.614 607.332 630.353C607.947 630.092 608.504 629.714 608.972 629.24C609.439 628.766 609.808 628.206 610.057 627.591C610.306 626.976 610.431 626.318 610.423 625.655C610.424 624.723 610.168 623.809 609.683 623.011C609.198 622.212 608.502 621.56 607.67 621.125V621.125Z" fill="#00897B"/>
<path d="M597.737 613.845H596.275V649.877H597.737V613.845Z" fill="url(#paint21_linear)"/>
<path d="M597.426 614.352H596.691V649.877H597.426V614.352Z" fill="#795548"/>
<path d="M602.665 618.354L596.628 624.812L597.167 625.307L603.204 618.849L602.665 618.354Z" fill="#795548"/>
<path d="M590.855 625.725L590.417 626.309L596.676 630.914L597.114 630.33L590.855 625.725Z" fill="#795548"/>
<path d="M713.5 556.501C710.257 556.501 710.252 561.49 713.5 561.49C716.748 561.49 716.745 556.501 713.5 556.501Z" fill="url(#paint22_linear)"/>
<path d="M722.285 618.582C721.21 617.473 719.922 616.588 718.496 615.979C717.07 615.371 715.537 615.051 713.985 615.04C712.433 615.028 710.894 615.325 709.46 615.912C708.025 616.499 706.723 617.364 705.631 618.458C701.227 622.861 701.153 630.03 705.46 634.523C707.352 636.5 709.888 637.748 712.619 638.048C715.351 638.347 718.1 637.678 720.382 636.159L728.793 644.833C728.844 644.886 728.906 644.929 728.974 644.959C729.042 644.988 729.115 645.004 729.19 645.006C729.264 645.007 729.338 644.994 729.407 644.967C729.477 644.94 729.54 644.9 729.594 644.849L731.689 642.85C731.743 642.799 731.786 642.738 731.816 642.67C731.846 642.603 731.862 642.53 731.863 642.456C731.865 642.383 731.852 642.309 731.825 642.241C731.798 642.172 731.757 642.109 731.705 642.056L723.295 633.382C724.907 631.191 725.69 628.507 725.505 625.8C725.321 623.094 724.181 620.538 722.285 618.582V618.582ZM719.666 632.53C718.479 633.662 716.982 634.419 715.361 634.706C713.741 634.994 712.071 634.798 710.563 634.144C709.055 633.49 707.777 632.408 706.889 631.033C706.001 629.659 705.544 628.054 705.576 626.422C705.608 624.789 706.127 623.203 707.068 621.864C708.009 620.524 709.329 619.492 710.861 618.896C712.394 618.301 714.07 618.17 715.678 618.519C717.286 618.869 718.753 619.683 719.894 620.859C720.651 621.641 721.247 622.562 721.645 623.571C722.044 624.581 722.238 625.658 722.217 626.742C722.196 627.825 721.959 628.894 721.522 629.887C721.084 630.881 720.453 631.778 719.666 632.53V632.53Z" fill="#032B4D"/>
</g>
</g>
<g clip-path="url(#clip2)">
<path d="M309.573 501.793H216.949V612.282H309.573V501.793Z" fill="url(#paint23_linear)"/>
<g filter="url(#filter3_d)">
<path d="M309.108 502.64H217.414V611.431H309.108V502.64Z" fill="white"/>
</g>
<path d="M299.798 511.676H226.725V580.738H299.798V511.676Z" fill="#032B4D"/>
<path d="M295.696 588.116H231.171V591.735H295.696V588.116Z" fill="#E0E0E0"/>
<path d="M285.4 595.35H241.466V598.969H285.4V595.35Z" fill="#E0E0E0"/>
<g opacity="0.5">
<path opacity="0.5" d="M399.248 326.304H366.558V371.574H399.248V326.304Z" fill="#032B4D"/>
</g>
<path d="M398.557 326.937H367.593V371.579H398.557V326.937Z" fill="#032B4D"/>
<g opacity="0.5">
<path opacity="0.5" d="M335.157 275.449H307.206V314.161H335.157V275.449Z" fill="#032B4D"/>
</g>
<path d="M334.567 275.991H308.093V314.161H334.567V275.991Z" fill="#032B4D"/>
<g opacity="0.5">
<path opacity="0.5" d="M535.546 328.668L504.712 329.043L505.08 373.833L535.914 373.458L535.546 328.668Z" fill="#032B4D"/>
</g>
<path d="M534.984 329.996L505.183 330.326L505.503 373.293L535.305 372.963L534.984 329.996Z" fill="#032B4D"/>
<g opacity="0.5">
<path opacity="0.5" d="M291.488 295.524L265.123 295.845L265.438 334.143L291.802 333.822L291.488 295.524Z" fill="#032B4D"/>
</g>
<path d="M291.023 296.445L265.542 296.727L265.816 333.463L291.297 333.181L291.023 296.445Z" fill="#032B4D"/>
<g opacity="0.5">
<path opacity="0.5" d="M250.371 332.536L218.627 332.887L218.963 377.837L250.706 377.486L250.371 332.536Z" fill="#032B4D"/>
</g>
<path d="M249.842 333.426L219.279 333.764L219.607 377.83L250.171 377.492L249.842 333.426Z" fill="#032B4D"/>
<g opacity="0.5">
<path opacity="0.5" d="M459.51 277.024L433.037 277.316L433.312 314.134L459.785 313.841L459.51 277.024Z" fill="#032B4D"/>
</g>
<path d="M459.067 277.756L433.578 278.038L433.847 314.128L459.336 313.846L459.067 277.756Z" fill="#032B4D"/>
<g opacity="0.5">
<path opacity="0.5" d="M357.224 428.878V429.744L372.633 462.268V481.636L383.952 489.008V488.575V462.268L399.244 429.744V428.878H357.224Z" fill="url(#paint24_linear)"/>
</g>
<path d="M398.541 429.302H357.692V430.158H398.541V429.302Z" fill="#CFD8DC"/>
<path opacity="0.1" d="M398.541 429.302H357.692V430.158H398.541V429.302Z" fill="black"/>
<path d="M357.692 430.158L372.672 462.221V481.312L383.678 488.152V462.221L398.541 430.158H357.692Z" fill="#FF4466"/>
<path opacity="0.2" d="M373.375 481.312V462.221L358.392 430.158H357.692L372.672 462.221V481.312H373.375Z" fill="#032B4D"/>
<path d="M372.672 481.312L383.679 488.58V488.152L373.376 481.312H372.672Z" fill="#CFD8DC"/>
<path opacity="0.1" d="M372.672 481.312L383.679 488.58V488.152L373.376 481.312H372.672Z" fill="black"/>
<path d="M551.822 500.224H459.197V610.713H551.822V500.224Z" fill="url(#paint25_linear)"/>
<g filter="url(#filter4_d)">
<path d="M551.36 501.075H459.666V609.866H551.36V501.075Z" fill="white"/>
</g>
<path d="M542.047 510.107H468.973V579.169H542.047V510.107Z" fill="#032B4D"/>
<path d="M538.663 588.872H474.138V592.492H538.663V588.872Z" fill="#E0E0E0"/>
<path d="M528.368 596.106H484.433V599.726H528.368V596.106Z" fill="#E0E0E0"/>
<path d="M430.731 499.852H337.438V611.14H430.731V499.852Z" fill="url(#paint26_linear)"/>
<g filter="url(#filter5_d)">
<path d="M430.262 500.708H337.907V610.285H430.262V500.708Z" fill="white"/>
</g>
<path d="M420.885 509.808H347.284V579.369H420.885V509.808Z" fill="#032B4D"/>
<path d="M415.033 587.702H350.043V591.345H415.033V587.702Z" fill="#E0E0E0"/>
<path d="M404.663 594.988H360.408V598.632H404.663V594.988Z" fill="#E0E0E0"/>
<path d="M233.41 386.162C233.41 386.162 233.019 438.957 271.308 428.969C309.597 418.981 310.769 402.809 354.528 423.737" stroke="#032B4D" stroke-width="2" stroke-miterlimit="10" stroke-dasharray="12 12"/>
<path d="M520.186 381.406C520.186 381.406 520.577 434.201 482.288 424.213C443.999 414.224 442.827 398.053 399.068 418.981" stroke="#032B4D" stroke-width="2" stroke-miterlimit="10" stroke-dasharray="12 12"/>
<path d="M382.658 381.406C382.658 381.406 377.579 396.15 385.003 403.285C392.426 410.419 384.221 425.64 384.221 425.64" stroke="#032B4D" stroke-width="2" stroke-miterlimit="10" stroke-dasharray="12 12"/>
<path d="M278.505 343.945C278.505 343.945 284.365 378.666 312.887 378.666C341.408 378.666 366.413 417.668 360.943 422.424" stroke="#032B4D" stroke-width="2" stroke-miterlimit="10" stroke-dasharray="12 12"/>
<path d="M319.919 324.444C319.919 324.444 312.41 341.258 320.666 358.39C324.634 366.471 331.036 372.348 338.509 374.771C356.212 380.678 363.963 377.934 375.403 413.383" stroke="#032B4D" stroke-width="2" stroke-miterlimit="10" stroke-dasharray="12 12"/>
<path d="M446.117 325.395C446.117 325.395 452.114 334.285 440.893 353.096C436.423 360.468 430.263 366.068 423.186 369.191C411.856 374.314 400.795 389.13 400.795 411.009" stroke="#032B4D" stroke-width="2" stroke-miterlimit="10" stroke-dasharray="12 12"/>
<path d="M262.969 522.801L250.642 533.367V542.27V568.292H275.295V542.27V533.367L262.969 522.801Z" fill="url(#paint27_linear)"/>
<path d="M274.884 533.112L263.174 522.801L251.464 533.112V541.797H274.884V533.112Z" fill="white"/>
<path opacity="0.5" d="M274.884 533.112L263.174 522.801L251.464 533.112V541.797H274.884V533.112Z" fill="white"/>
<path d="M274.884 541.797H251.464V567.292H274.884V541.797Z" fill="white"/>
<path d="M276.326 538.298L263.174 526.923L249.865 538.298L248.999 534.297L263.174 521.801L277.35 534.297L276.326 538.298Z" fill="white"/>
<path d="M276.375 537.798L263.174 526.367L249.974 537.798L249.41 534.219L263.174 522.301L276.939 534.219L276.375 537.798Z" fill="white"/>
<path opacity="0.2" d="M276.375 537.798L263.174 526.367L249.974 537.798L249.41 534.219L263.174 522.301L276.939 534.219L276.375 537.798Z" fill="white"/>
<path d="M269.954 547.296H256.395V567.292H269.954V547.296Z" fill="white"/>
<path d="M269.954 547.296H256.395V550.795H269.954V547.296Z" fill="#FDCA05"/>
<path d="M269.954 554.294H256.395V557.294H269.954V554.294Z" fill="#032B4D"/>
<path d="M505.802 522.801L493.476 533.367V542.27V568.292H518.129V542.27V533.367L505.802 522.801Z" fill="url(#paint28_linear)"/>
<path d="M517.718 533.112L506.008 522.801L494.297 533.112V541.797H517.718V533.112Z" fill="white"/>
<path opacity="0.5" d="M517.718 533.112L506.008 522.801L494.297 533.112V541.797H517.718V533.112Z" fill="white"/>
<path d="M517.718 541.797H494.297V567.292H517.718V541.797Z" fill="white"/>
<path d="M519.159 538.298L506.008 526.923L492.698 538.298L491.832 534.297L506.008 521.801L520.183 534.297L519.159 538.298Z" fill="white"/>
<path d="M519.209 537.798L506.007 526.367L492.807 537.798L492.243 534.219L506.007 522.301L519.773 534.219L519.209 537.798Z" fill="white"/>
<path opacity="0.2" d="M519.209 537.798L506.007 526.367L492.807 537.798L492.243 534.219L506.007 522.301L519.773 534.219L519.209 537.798Z" fill="white"/>
<path d="M512.787 547.296H499.228V567.292H512.787V547.296Z" fill="white"/>
<path d="M512.787 547.296H499.228V550.795H512.787V547.296Z" fill="#FDCA05"/>
<path d="M512.787 554.294H499.228V557.294H512.787V554.294Z" fill="#032B4D"/>
<path d="M321.017 284.801L315.479 289.548V293.548V305.239H326.555V293.548V289.548L321.017 284.801Z" fill="url(#paint29_linear)"/>
<path d="M326.37 289.433L321.109 284.801L315.848 289.433V293.335H326.37V289.433Z" fill="white"/>
<path opacity="0.5" d="M326.37 289.433L321.109 284.801L315.848 289.433V293.335H326.37V289.433Z" fill="white"/>
<path d="M326.37 293.335H315.848V304.789H326.37V293.335Z" fill="white"/>
<path d="M327.018 291.763L321.109 286.653L315.129 291.763L314.74 289.966L321.109 284.352L327.478 289.966L327.018 291.763Z" fill="white"/>
<path d="M327.04 291.538L321.109 286.403L315.178 291.538L314.925 289.93L321.109 284.576L327.293 289.93L327.04 291.538Z" fill="white"/>
<path opacity="0.2" d="M327.04 291.538L321.109 286.403L315.178 291.538L314.925 289.93L321.109 284.576L327.293 289.93L327.04 291.538Z" fill="white"/>
<path d="M324.155 295.806H318.063V304.789H324.155V295.806Z" fill="white"/>
<path d="M324.155 295.806H318.063V297.378H324.155V295.806Z" fill="#FDCA05"/>
<path d="M324.155 298.95H318.063V300.298H324.155V298.95Z" fill="#032B4D"/>
<path d="M278.357 304.331L272.392 309.443V313.751V326.342H284.321V313.751V309.443L278.357 304.331Z" fill="url(#paint30_linear)"/>
<path d="M284.123 309.319L278.456 304.331L272.79 309.319V313.522H284.123V309.319Z" fill="white"/>
<path opacity="0.5" d="M284.123 309.319L278.456 304.331L272.79 309.319V313.522H284.123V309.319Z" fill="white"/>
<path d="M284.123 313.522H272.79V325.859H284.123V313.522Z" fill="white"/>
<path d="M284.82 311.829L278.456 306.326L272.016 311.829L271.597 309.894L278.456 303.847L285.315 309.894L284.82 311.829Z" fill="white"/>
<path d="M284.844 311.587L278.456 306.056L272.069 311.587L271.796 309.855L278.456 304.089L285.117 309.855L284.844 311.587Z" fill="white"/>
<path opacity="0.2" d="M284.844 311.587L278.456 306.056L272.069 311.587L271.796 309.855L278.456 304.089L285.117 309.855L284.844 311.587Z" fill="white"/>
<path d="M281.737 316.184H275.176V325.859H281.737V316.184Z" fill="white"/>
<path d="M281.737 316.184H275.176V317.877H281.737V316.184Z" fill="#FDCA05"/>
<path d="M281.737 319.57H275.176V321.021H281.737V319.57Z" fill="#032B4D"/>
<path d="M446.409 284.835L440.445 289.947V294.255V306.846H452.374V294.255V289.947L446.409 284.835Z" fill="url(#paint31_linear)"/>
<path d="M452.176 289.824L446.51 284.835L440.843 289.824V294.027H452.176V289.824Z" fill="white"/>
<path opacity="0.5" d="M452.176 289.824L446.51 284.835L440.843 289.824V294.027H452.176V289.824Z" fill="white"/>
<path d="M452.176 294.027H440.843V306.363H452.176V294.027Z" fill="white"/>
<path d="M452.873 292.334L446.509 286.83L440.069 292.334L439.65 290.398L446.509 284.352L453.368 290.398L452.873 292.334Z" fill="white"/>
<path d="M452.896 292.092L446.509 286.561L440.122 292.092L439.849 290.36L446.509 284.593L453.169 290.36L452.896 292.092Z" fill="white"/>
<path opacity="0.2" d="M452.896 292.092L446.509 286.561L440.122 292.092L439.849 290.36L446.509 284.593L453.169 290.36L452.896 292.092Z" fill="white"/>
<path d="M449.79 296.688H443.229V306.363H449.79V296.688Z" fill="white"/>
<path d="M449.79 296.688H443.229V298.381H449.79V296.688Z" fill="#FDCA05"/>
<path d="M449.79 300.074H443.229V301.526H449.79V300.074Z" fill="#032B4D"/>
<path d="M520.369 339.823L514.404 344.936V349.244V361.835H526.333V349.244V344.936L520.369 339.823Z" fill="url(#paint32_linear)"/>
<path d="M526.135 344.812L520.468 339.823L514.802 344.812V349.015H526.135V344.812Z" fill="white"/>
<path opacity="0.5" d="M526.135 344.812L520.468 339.823L514.802 344.812V349.015H526.135V344.812Z" fill="white"/>
<path d="M526.135 349.015H514.802V361.351H526.135V349.015Z" fill="white"/>
<path d="M526.832 347.322L520.468 341.818L514.029 347.322L513.609 345.386L520.468 339.34L527.328 345.386L526.832 347.322Z" fill="white"/>
<path d="M526.856 347.08L520.468 341.549L514.081 347.08L513.808 345.348L520.468 339.582L527.129 345.348L526.856 347.08Z" fill="white"/>
<path opacity="0.2" d="M526.856 347.08L520.468 341.549L514.081 347.08L513.808 345.348L520.468 339.582L527.129 345.348L526.856 347.08Z" fill="white"/>
<path d="M523.749 351.676H517.188V361.351H523.749V351.676Z" fill="white"/>
<path d="M523.749 351.676H517.188V353.369H523.749V351.676Z" fill="#FDCA05"/>
<path d="M523.749 355.062H517.188V356.514H523.749V355.062Z" fill="#032B4D"/>
<path d="M383.358 522.801L371.032 533.367V542.27V568.292H395.685V542.27V533.367L383.358 522.801Z" fill="url(#paint33_linear)"/>
<path d="M395.274 533.112L383.564 522.801L371.854 533.112V541.797H395.274V533.112Z" fill="white"/>
<path opacity="0.5" d="M395.274 533.112L383.564 522.801L371.854 533.112V541.797H395.274V533.112Z" fill="white"/>
<path d="M395.274 541.797H371.854V567.292H395.274V541.797Z" fill="white"/>
<path d="M396.716 538.298L383.564 526.923L370.254 538.298L369.388 534.297L383.564 521.801L397.739 534.297L396.716 538.298Z" fill="white"/>
<path d="M396.765 537.798L383.564 526.367L370.363 537.798L369.799 534.219L383.564 522.301L397.329 534.219L396.765 537.798Z" fill="white"/>
<path opacity="0.2" d="M396.765 537.798L383.564 526.367L370.363 537.798L369.799 534.219L383.564 522.301L397.329 534.219L396.765 537.798Z" fill="white"/>
<path d="M390.343 547.296H376.784V567.292H390.343V547.296Z" fill="white"/>
<path d="M390.343 552.295H376.784V555.794H390.343V552.295Z" fill="#FDCA05"/>
<path d="M390.343 559.293H376.784V562.293H390.343V559.293Z" fill="#032B4D"/>
<path d="M390.343 545.796H376.784V548.795H390.343V545.796Z" fill="#032B4D"/>
<path d="M234.713 343.375L228.103 349.041V353.815V367.768H241.323V353.815V349.041L234.713 343.375Z" fill="url(#paint34_linear)"/>
<path d="M241.102 348.904L234.823 343.375L228.543 348.904V353.561H241.102V348.904Z" fill="white"/>
<path opacity="0.5" d="M241.102 348.904L234.823 343.375L228.543 348.904V353.561H241.102V348.904Z" fill="white"/>
<path d="M241.102 353.561H228.543V367.232H241.102V353.561Z" fill="white"/>
<path d="M241.875 351.685L234.823 345.585L227.686 351.685L227.222 349.54L234.823 342.839L242.424 349.54L241.875 351.685Z" fill="white"/>
<path d="M241.902 351.417L234.823 345.287L227.744 351.417L227.442 349.497L234.823 343.107L242.204 349.497L241.902 351.417Z" fill="white"/>
<path opacity="0.2" d="M241.902 351.417L234.823 345.287L227.744 351.417L227.442 349.497L234.823 343.107L242.204 349.497L241.902 351.417Z" fill="white"/>
<path d="M238.458 356.51H231.188V367.232H238.458V356.51Z" fill="white"/>
<path d="M238.458 359.19H231.188V361.067H238.458V359.19Z" fill="#FDCA05"/>
<path d="M238.458 362.943H231.188V364.552H238.458V362.943Z" fill="#032B4D"/>
<path d="M238.458 355.706H231.188V357.314H238.458V355.706Z" fill="#032B4D"/>
<path d="M382.632 337.376L376.022 343.042V347.816V361.77H389.242V347.816V343.042L382.632 337.376Z" fill="url(#paint35_linear)"/>
<path d="M389.022 342.905L382.742 337.376L376.463 342.905V347.563H389.022V342.905Z" fill="white"/>
<path opacity="0.5" d="M389.022 342.905L382.742 337.376L376.463 342.905V347.563H389.022V342.905Z" fill="white"/>
<path d="M389.022 347.563H376.463V361.234H389.022V347.563Z" fill="white"/>
<path d="M389.794 345.686L382.742 339.587L375.605 345.686L375.141 343.541L382.742 336.84L390.343 343.541L389.794 345.686Z" fill="white"/>
<path d="M389.821 345.418L382.742 339.289L375.663 345.418L375.361 343.499L382.742 337.108L390.123 343.499L389.821 345.418Z" fill="white"/>
<path opacity="0.2" d="M389.821 345.418L382.742 339.289L375.663 345.418L375.361 343.499L382.742 337.108L390.123 343.499L389.821 345.418Z" fill="white"/>
<path d="M386.377 350.511H379.106V361.234H386.377V350.511Z" fill="white"/>
<path d="M386.377 353.192H379.106V355.068H386.377V353.192Z" fill="#FDCA05"/>
<path d="M386.377 356.945H379.106V358.553H386.377V356.945Z" fill="#032B4D"/>
<path d="M386.377 349.707H379.106V351.315H386.377V349.707Z" fill="#032B4D"/>
</g>
<defs>
<filter id="filter0_d" x="140.48" y="149.71" width="503.697" height="112.052" filterUnits="userSpaceOnUse" color-interpolation-filters="sRGB">
<feFlood flood-opacity="0" result="BackgroundImageFix"/>
<feColorMatrix in="SourceAlpha" type="matrix" values="0 0 0 0 0 0 0 0 0 0 0 0 0 0 0 0 0 0 127 0"/>
<feOffset dy="4"/>
<feGaussianBlur stdDeviation="10"/>
<feColorMatrix type="matrix" values="0 0 0 0 0 0 0 0 0 0 0 0 0 0 0 0 0 0 0.25 0"/>
<feBlend mode="normal" in2="BackgroundImageFix" result="effect1_dropShadow"/>
<feBlend mode="normal" in="SourceGraphic" in2="effect1_dropShadow" result="shape"/>
</filter>
<filter id="filter1_d" x="181.767" y="179.292" width="322.286" height="52.8878" filterUnits="userSpaceOnUse" color-interpolation-filters="sRGB">
<feFlood flood-opacity="0" result="BackgroundImageFix"/>
<feColorMatrix in="SourceAlpha" type="matrix" values="0 0 0 0 0 0 0 0 0 0 0 0 0 0 0 0 0 0 127 0"/>
<feOffset dy="4"/>
<feGaussianBlur stdDeviation="2.5"/>
<feColorMatrix type="matrix" values="0 0 0 0 0 0 0 0 0 0 0 0 0 0 0 0 0 0 0.25 0"/>
<feBlend mode="normal" in2="BackgroundImageFix" result="effect1_dropShadow"/>
<feBlend mode="normal" in="SourceGraphic" in2="effect1_dropShadow" result="shape"/>
</filter>
<filter id="filter2_d" x="556" y="507" width="294" height="167" filterUnits="userSpaceOnUse" color-interpolation-filters="sRGB">
<feFlood flood-opacity="0" result="BackgroundImageFix"/>
<feColorMatrix in="SourceAlpha" type="matrix" values="0 0 0 0 0 0 0 0 0 0 0 0 0 0 0 0 0 0 127 0"/>
<feOffset dy="4"/>
<feGaussianBlur stdDeviation="10"/>
<feColorMatrix type="matrix" values="0 0 0 0 0 0 0 0 0 0 0 0 0 0 0 0 0 0 0.25 0"/>
<feBlend mode="normal" in2="BackgroundImageFix" result="effect1_dropShadow"/>
<feBlend mode="normal" in="SourceGraphic" in2="effect1_dropShadow" result="shape"/>
</filter>
<filter id="filter3_d" x="201.414" y="490.64" width="131.694" height="148.791" filterUnits="userSpaceOnUse" color-interpolation-filters="sRGB">
<feFlood flood-opacity="0" result="BackgroundImageFix"/>
<feColorMatrix in="SourceAlpha" type="matrix" values="0 0 0 0 0 0 0 0 0 0 0 0 0 0 0 0 0 0 127 0"/>
<feOffset dx="4" dy="8"/>
<feGaussianBlur stdDeviation="10"/>
<feColorMatrix type="matrix" values="0 0 0 0 0 0 0 0 0 0 0 0 0 0 0 0 0 0 0.25 0"/>
<feBlend mode="normal" in2="BackgroundImageFix" result="effect1_dropShadow"/>
<feBlend mode="normal" in="SourceGraphic" in2="effect1_dropShadow" result="shape"/>
</filter>
<filter id="filter4_d" x="443.666" y="489.075" width="131.694" height="148.791" filterUnits="userSpaceOnUse" color-interpolation-filters="sRGB">
<feFlood flood-opacity="0" result="BackgroundImageFix"/>
<feColorMatrix in="SourceAlpha" type="matrix" values="0 0 0 0 0 0 0 0 0 0 0 0 0 0 0 0 0 0 127 0"/>
<feOffset dx="4" dy="8"/>
<feGaussianBlur stdDeviation="10"/>
<feColorMatrix type="matrix" values="0 0 0 0 0 0 0 0 0 0 0 0 0 0 0 0 0 0 0.25 0"/>
<feBlend mode="normal" in2="BackgroundImageFix" result="effect1_dropShadow"/>
<feBlend mode="normal" in="SourceGraphic" in2="effect1_dropShadow" result="shape"/>
</filter>
<filter id="filter5_d" x="321.907" y="488.708" width="132.355" height="149.576" filterUnits="userSpaceOnUse" color-interpolation-filters="sRGB">
<feFlood flood-opacity="0" result="BackgroundImageFix"/>
<feColorMatrix in="SourceAlpha" type="matrix" values="0 0 0 0 0 0 0 0 0 0 0 0 0 0 0 0 0 0 127 0"/>
<feOffset dx="4" dy="8"/>
<feGaussianBlur stdDeviation="10"/>
<feColorMatrix type="matrix" values="0 0 0 0 0 0 0 0 0 0 0 0 0 0 0 0 0 0 0.25 0"/>
<feBlend mode="normal" in2="BackgroundImageFix" result="effect1_dropShadow"/>
<feBlend mode="normal" in="SourceGraphic" in2="effect1_dropShadow" result="shape"/>
</filter>
<linearGradient id="paint0_linear" x1="373" y1="242.181" x2="373" y2="163" gradientUnits="userSpaceOnUse">
<stop stop-color="#808080" stop-opacity="0.25"/>
<stop offset="0.53514" stop-color="#808080" stop-opacity="0.12"/>
<stop offset="1" stop-color="#808080" stop-opacity="0.1"/>
</linearGradient>
<linearGradient id="paint1_linear" x1="560.77" y1="235.211" x2="560.77" y2="176.134" gradientUnits="userSpaceOnUse">
<stop stop-color="#B3B3B3" stop-opacity="0.25"/>
<stop offset="0.53514" stop-color="#B3B3B3" stop-opacity="0.1"/>
<stop offset="1" stop-color="#B3B3B3" stop-opacity="0.05"/>
</linearGradient>
<linearGradient id="paint2_linear" x1="500.378" y1="197.203" x2="500.378" y2="194.359" gradientUnits="userSpaceOnUse">
<stop stop-opacity="0.12"/>
<stop offset="0.55135" stop-opacity="0.09"/>
<stop offset="1" stop-opacity="0.02"/>
</linearGradient>
<linearGradient id="paint3_linear" x1="22285.6" y1="2052.47" x2="22285.6" y2="1898.51" gradientUnits="userSpaceOnUse">
<stop stop-opacity="0.12"/>
<stop offset="0.55135" stop-opacity="0.09"/>
<stop offset="1" stop-opacity="0.02"/>
</linearGradient>
<linearGradient id="paint4_linear" x1="801.193" y1="620.627" x2="801.193" y2="563.875" gradientUnits="userSpaceOnUse">
<stop stop-color="#808080" stop-opacity="0.25"/>
<stop offset="0.54" stop-color="#808080" stop-opacity="0.12"/>
<stop offset="1" stop-color="#808080" stop-opacity="0.1"/>
</linearGradient>
<linearGradient id="paint5_linear" x1="3736.91" y1="29995" x2="3736.91" y2="14684.2" gradientUnits="userSpaceOnUse">
<stop stop-color="#808080" stop-opacity="0.25"/>
<stop offset="0.54" stop-color="#808080" stop-opacity="0.12"/>
<stop offset="1" stop-color="#808080" stop-opacity="0.1"/>
</linearGradient>
<linearGradient id="paint6_linear" x1="51576.5" y1="37116.8" x2="51576.5" y2="24222.9" gradientUnits="userSpaceOnUse">
<stop stop-color="#808080" stop-opacity="0.25"/>
<stop offset="0.54" stop-color="#808080" stop-opacity="0.12"/>
<stop offset="1" stop-color="#808080" stop-opacity="0.1"/>
</linearGradient>
<linearGradient id="paint7_linear" x1="2805.56" y1="30834" x2="2805.56" y2="14943.3" gradientUnits="userSpaceOnUse">
<stop stop-color="#808080" stop-opacity="0.25"/>
<stop offset="0.54" stop-color="#808080" stop-opacity="0.12"/>
<stop offset="1" stop-color="#808080" stop-opacity="0.1"/>
</linearGradient>
<linearGradient id="paint8_linear" x1="34854.8" y1="26371.3" x2="34854.8" y2="20638.8" gradientUnits="userSpaceOnUse">
<stop stop-color="#808080" stop-opacity="0.25"/>
<stop offset="0.54" stop-color="#808080" stop-opacity="0.12"/>
<stop offset="1" stop-color="#808080" stop-opacity="0.1"/>
</linearGradient>
<linearGradient id="paint9_linear" x1="2460.45" y1="21244.1" x2="2460.45" y2="14134.2" gradientUnits="userSpaceOnUse">
<stop stop-color="#808080" stop-opacity="0.25"/>
<stop offset="0.54" stop-color="#808080" stop-opacity="0.12"/>
<stop offset="1" stop-color="#808080" stop-opacity="0.1"/>
</linearGradient>
<linearGradient id="paint10_linear" x1="31930.8" y1="26752.5" x2="31930.8" y2="20943.2" gradientUnits="userSpaceOnUse">
<stop stop-color="#808080" stop-opacity="0.25"/>
<stop offset="0.54" stop-color="#808080" stop-opacity="0.12"/>
<stop offset="1" stop-color="#808080" stop-opacity="0.1"/>
</linearGradient>
<linearGradient id="paint11_linear" x1="1976.48" y1="21447" x2="1976.48" y2="14287.9" gradientUnits="userSpaceOnUse">
<stop stop-color="#808080" stop-opacity="0.25"/>
<stop offset="0.54" stop-color="#808080" stop-opacity="0.12"/>
<stop offset="1" stop-color="#808080" stop-opacity="0.1"/>
</linearGradient>
<linearGradient id="paint12_linear" x1="41260.5" y1="32435.8" x2="41260.5" y2="15997" gradientUnits="userSpaceOnUse">
<stop stop-color="#808080" stop-opacity="0.25"/>
<stop offset="0.54" stop-color="#808080" stop-opacity="0.12"/>
<stop offset="1" stop-color="#808080" stop-opacity="0.1"/>
</linearGradient>
<linearGradient id="paint13_linear" x1="74767.2" y1="16225.4" x2="74767.2" y2="12592.2" gradientUnits="userSpaceOnUse">
<stop stop-color="#808080" stop-opacity="0.25"/>
<stop offset="0.54" stop-color="#808080" stop-opacity="0.12"/>
<stop offset="1" stop-color="#808080" stop-opacity="0.1"/>
</linearGradient>
<linearGradient id="paint14_linear" x1="21086.1" y1="60549.3" x2="21086.1" y2="2171.66" gradientUnits="userSpaceOnUse">
<stop stop-color="#808080" stop-opacity="0.25"/>
<stop offset="0.54" stop-color="#808080" stop-opacity="0.12"/>
<stop offset="1" stop-color="#808080" stop-opacity="0.1"/>
</linearGradient>
<linearGradient id="paint15_linear" x1="24326.5" y1="8435.89" x2="24326.5" y2="630.572" gradientUnits="userSpaceOnUse">
<stop stop-color="#808080" stop-opacity="0.25"/>
<stop offset="0.54" stop-color="#808080" stop-opacity="0.12"/>
<stop offset="1" stop-color="#808080" stop-opacity="0.1"/>
</linearGradient>
<linearGradient id="paint16_linear" x1="9015.75" y1="22674.2" x2="9015.75" y2="18689.5" gradientUnits="userSpaceOnUse">
<stop stop-color="#808080" stop-opacity="0.25"/>
<stop offset="0.54" stop-color="#808080" stop-opacity="0.12"/>
<stop offset="1" stop-color="#808080" stop-opacity="0.1"/>
</linearGradient>
<linearGradient id="paint17_linear" x1="812.662" y1="18090.6" x2="812.662" y2="13149.5" gradientUnits="userSpaceOnUse">
<stop stop-color="#808080" stop-opacity="0.25"/>
<stop offset="0.54" stop-color="#808080" stop-opacity="0.12"/>
<stop offset="1" stop-color="#808080" stop-opacity="0.1"/>
</linearGradient>
<linearGradient id="paint18_linear" x1="7398.85" y1="22674.2" x2="7398.85" y2="18689.5" gradientUnits="userSpaceOnUse">
<stop stop-color="#808080" stop-opacity="0.25"/>
<stop offset="0.54" stop-color="#808080" stop-opacity="0.12"/>
<stop offset="1" stop-color="#808080" stop-opacity="0.1"/>
</linearGradient>
<linearGradient id="paint19_linear" x1="702.95" y1="18090.6" x2="702.95" y2="13149.5" gradientUnits="userSpaceOnUse">
<stop stop-color="#808080" stop-opacity="0.25"/>
<stop offset="0.54" stop-color="#808080" stop-opacity="0.12"/>
<stop offset="1" stop-color="#808080" stop-opacity="0.1"/>
</linearGradient>
<linearGradient id="paint20_linear" x1="7473.35" y1="22866.9" x2="7473.35" y2="18829.2" gradientUnits="userSpaceOnUse">
<stop stop-color="#808080" stop-opacity="0.25"/>
<stop offset="0.54" stop-color="#808080" stop-opacity="0.12"/>
<stop offset="1" stop-color="#808080" stop-opacity="0.1"/>
</linearGradient>
<linearGradient id="paint21_linear" x1="712.865" y1="18134.3" x2="712.865" y2="13158.7" gradientUnits="userSpaceOnUse">
<stop stop-color="#808080" stop-opacity="0.25"/>
<stop offset="0.54" stop-color="#808080" stop-opacity="0.12"/>
<stop offset="1" stop-color="#808080" stop-opacity="0.1"/>
</linearGradient>
<linearGradient id="paint22_linear" x1="713.5" y1="561.493" x2="713.5" y2="556.501" gradientUnits="userSpaceOnUse">
<stop stop-opacity="0.12"/>
<stop offset="0.55" stop-opacity="0.09"/>
<stop offset="1" stop-opacity="0.02"/>
</linearGradient>
<linearGradient id="paint23_linear" x1="11195.7" y1="84344.4" x2="11195.7" y2="58677.7" gradientUnits="userSpaceOnUse">
<stop stop-color="#808080" stop-opacity="0.25"/>
<stop offset="0.54" stop-color="#808080" stop-opacity="0.12"/>
<stop offset="1" stop-color="#808080" stop-opacity="0.1"/>
</linearGradient>
<linearGradient id="paint24_linear" x1="17703.2" y1="30472.5" x2="17703.2" y2="22871" gradientUnits="userSpaceOnUse">
<stop stop-color="#808080" stop-opacity="0.25"/>
<stop offset="0.54" stop-color="#808080" stop-opacity="0.12"/>
<stop offset="1" stop-color="#808080" stop-opacity="0.1"/>
</linearGradient>
<linearGradient id="paint25_linear" x1="68868.7" y1="83979.3" x2="68868.7" y2="58311.6" gradientUnits="userSpaceOnUse">
<stop stop-color="#808080" stop-opacity="0.25"/>
<stop offset="0.54" stop-color="#808080" stop-opacity="0.12"/>
<stop offset="1" stop-color="#808080" stop-opacity="0.1"/>
</linearGradient>
<linearGradient id="paint26_linear" x1="40246" y1="84681.7" x2="40246" y2="58642.5" gradientUnits="userSpaceOnUse">
<stop stop-color="#808080" stop-opacity="0.25"/>
<stop offset="0.54" stop-color="#808080" stop-opacity="0.12"/>
<stop offset="1" stop-color="#808080" stop-opacity="0.1"/>
</linearGradient>
<linearGradient id="paint27_linear" x1="6395.69" y1="22646.1" x2="6395.69" y2="1129.19" gradientUnits="userSpaceOnUse">
<stop stop-color="#808080" stop-opacity="0.25"/>
<stop offset="0.54" stop-color="#808080" stop-opacity="0.12"/>
<stop offset="1" stop-color="#808080" stop-opacity="0.1"/>
</linearGradient>
<linearGradient id="paint28_linear" x1="6638.53" y1="22646.1" x2="6638.53" y2="1129.19" gradientUnits="userSpaceOnUse">
<stop stop-color="#808080" stop-opacity="0.25"/>
<stop offset="0.54" stop-color="#808080" stop-opacity="0.12"/>
<stop offset="1" stop-color="#808080" stop-opacity="0.1"/>
</linearGradient>
<linearGradient id="paint29_linear" x1="3076.3" y1="10224.3" x2="3076.3" y2="557.235" gradientUnits="userSpaceOnUse">
<stop stop-color="#808080" stop-opacity="0.25"/>
<stop offset="0.54" stop-color="#808080" stop-opacity="0.12"/>
<stop offset="1" stop-color="#808080" stop-opacity="0.1"/>
</linearGradient>
<linearGradient id="paint30_linear" x1="3245.8" y1="11009.2" x2="3245.8" y2="597.743" gradientUnits="userSpaceOnUse">
<stop stop-color="#808080" stop-opacity="0.25"/>
<stop offset="0.54" stop-color="#808080" stop-opacity="0.12"/>
<stop offset="1" stop-color="#808080" stop-opacity="0.1"/>
</linearGradient>
<linearGradient id="paint31_linear" x1="3413.86" y1="10989.7" x2="3413.86" y2="578.248" gradientUnits="userSpaceOnUse">
<stop stop-color="#808080" stop-opacity="0.25"/>
<stop offset="0.54" stop-color="#808080" stop-opacity="0.12"/>
<stop offset="1" stop-color="#808080" stop-opacity="0.1"/>
</linearGradient>
<linearGradient id="paint32_linear" x1="3487.81" y1="11044.7" x2="3487.81" y2="633.236" gradientUnits="userSpaceOnUse">
<stop stop-color="#808080" stop-opacity="0.25"/>
<stop offset="0.54" stop-color="#808080" stop-opacity="0.12"/>
<stop offset="1" stop-color="#808080" stop-opacity="0.1"/>
</linearGradient>
<linearGradient id="paint33_linear" x1="6516.1" y1="22646.1" x2="6516.1" y2="1129.19" gradientUnits="userSpaceOnUse">
<stop stop-color="#808080" stop-opacity="0.25"/>
<stop offset="0.54" stop-color="#808080" stop-opacity="0.12"/>
<stop offset="1" stop-color="#808080" stop-opacity="0.1"/>
</linearGradient>
<linearGradient id="paint34_linear" x1="3523.28" y1="12206.6" x2="3523.28" y2="668.539" gradientUnits="userSpaceOnUse">
<stop stop-color="#808080" stop-opacity="0.25"/>
<stop offset="0.54" stop-color="#808080" stop-opacity="0.12"/>
<stop offset="1" stop-color="#808080" stop-opacity="0.1"/>
</linearGradient>
<linearGradient id="paint35_linear" x1="3671.2" y1="12200.6" x2="3671.2" y2="662.54" gradientUnits="userSpaceOnUse">
<stop stop-color="#808080" stop-opacity="0.25"/>
<stop offset="0.54" stop-color="#808080" stop-opacity="0.12"/>
<stop offset="1" stop-color="#808080" stop-opacity="0.1"/>
</linearGradient>
<clipPath id="clip0">
<rect width="296.321" height="261.486" transform="matrix(-1 0 0 1 309.927 0)" fill="white"/>
</clipPath>
<clipPath id="clip1">
<rect x="576" y="523" width="254" height="127" fill="white"/>
</clipPath>
<clipPath id="clip2">
<rect x="216.949" y="251.358" width="334.872" height="360.924" fill="white"/>
</clipPath>
</defs>
</svg>
