<svg width="831" height="646" viewBox="0 0 831 646" fill="none" xmlns="http://www.w3.org/2000/svg">
<path opacity="0.65" d="M489.495 159.633C457.314 186.823 415.572 185.068 378.993 170.919C342.414 156.77 308.813 131.579 273.173 113.676C243.468 98.7241 212.171 88.879 180.198 84.4287C134.775 78.1561 84.0499 85.7974 52.4042 129.773C17.161 178.72 19.8678 267.024 57.9707 311.991C77.3631 334.848 102.753 346.066 124.894 363.91C147.035 381.754 167.548 411.371 165.662 445.799C163.916 477.708 143.619 502.16 122.612 517.519C106.379 529.384 86.3878 542.341 84.4326 566.919C82.54 590.7 99.3509 609.333 115.403 619.93C167.771 654.51 232.301 654.174 284.487 619.09C303.093 606.537 320.182 589.877 339.7 580.153C390.947 554.525 447.419 580.329 501.686 589.759C547.797 597.731 594.79 593.604 639.458 577.659C666.33 568.078 693.307 553.433 712.185 526.151C725.802 506.477 734.284 481.587 742.244 456.992C750.733 430.776 758.895 404.373 766.73 377.782C771.427 361.828 776.054 345.554 777.272 328.474C779.47 297.531 770.202 266.94 757.58 240.825C727.611 178.77 677.136 135.173 622.473 124.097C567.81 113.021 509.98 134.652 467.584 181.987" fill="#FDC910"/>
<g clip-path="url(#clip0)">
<path d="M77.0363 244.554C76.4833 243.565 75.9397 242.55 75.4204 241.537L76.2592 240.91C76.7715 241.911 77.3079 242.912 77.8535 243.888L77.0363 244.554Z" fill="#3F3D56"/>
<path d="M72.4474 235.156C71.5328 232.989 70.6827 230.75 69.9209 228.502L70.8334 228.051C71.5853 230.269 72.4238 232.478 73.3262 234.616L72.4474 235.156ZM67.8601 221.618C67.2551 219.3 66.7232 216.923 66.279 214.552L67.2411 214.289C67.679 216.628 68.2036 218.974 68.8005 221.26L67.8601 221.618ZM65.1886 207.352C64.9091 204.949 64.7088 202.499 64.5928 200.069L65.5775 200.001C65.6916 202.398 65.8895 204.816 66.1651 207.186L65.1886 207.352ZM65.4759 192.779L64.4902 192.751C64.5377 190.318 64.6686 187.861 64.8793 185.45L65.8601 185.575C65.6521 187.954 65.5228 190.378 65.4759 192.779ZM66.7319 178.433L65.7631 178.211C66.1387 175.824 66.6016 173.426 67.1392 171.085L68.0897 171.403C67.5591 173.713 67.1024 176.078 66.7319 178.433ZM69.9257 164.532L69.0007 164.12C69.698 161.839 70.4836 159.565 71.3356 157.361L72.2293 157.864C71.3886 160.039 70.6136 162.282 69.9257 164.532ZM204.978 160.852C204.208 158.645 203.35 156.448 202.429 154.321L203.303 153.77C204.236 155.925 205.106 158.152 205.887 160.389L204.978 160.852ZM74.9813 151.45L74.1252 150.859C75.1239 148.75 76.2085 146.664 77.3489 144.659L78.1617 145.332C77.0367 147.311 75.9665 149.369 74.9813 151.45ZM199.441 148.067C198.379 146.042 197.234 144.044 196.037 142.13L196.824 141.413C198.037 143.353 199.198 145.377 200.274 147.43L199.441 148.067ZM81.7478 139.551L80.9831 138.799C82.2553 136.915 83.6073 135.072 85.0025 133.32L85.7132 134.145C84.3368 135.873 83.0026 137.692 81.7478 139.551ZM192.241 136.55C190.918 134.76 189.518 133.015 188.079 131.363L188.759 130.5C190.217 132.175 191.636 133.943 192.977 135.757L192.241 136.55ZM90.0316 129.148L89.3792 128.256C90.888 126.648 92.471 125.096 94.084 123.642L94.6739 124.596C93.0822 126.03 91.5205 127.562 90.0316 129.148ZM183.58 126.605C182.033 125.1 180.415 123.653 178.772 122.307L179.326 121.322C180.991 122.687 182.631 124.152 184.198 125.677L183.58 126.605ZM99.6084 120.519L99.0855 119.51C100.793 118.221 102.564 117.003 104.351 115.889L104.803 116.947C103.041 118.046 101.293 119.247 99.6084 120.519ZM173.688 118.501C171.956 117.321 170.164 116.215 168.362 115.214L168.774 114.132C170.6 115.147 172.417 116.268 174.173 117.464L173.688 118.501ZM110.223 113.906L109.845 112.806C111.703 111.874 113.616 111.025 115.53 110.283L115.832 111.417C113.944 112.149 112.057 112.986 110.223 113.906ZM162.828 112.469C160.962 111.652 159.043 110.918 157.125 110.289L157.383 109.141C159.327 109.778 161.272 110.521 163.164 111.35L162.828 112.469ZM121.596 109.496L121.374 108.337C123.332 107.788 125.336 107.332 127.33 106.981L127.472 108.159C125.505 108.506 123.528 108.956 121.596 109.496V109.496ZM151.292 108.688C149.343 108.254 147.35 107.913 145.371 107.674L145.469 106.489C147.475 106.732 149.495 107.077 151.471 107.517L151.292 108.688ZM133.419 107.41L133.357 106.222C135.363 106.069 137.408 106.015 139.418 106.059L139.4 107.249C137.415 107.205 135.399 107.26 133.419 107.41Z" fill="#3F3D56"/>
<path d="M207.948 171.096C207.684 169.963 207.397 168.821 207.095 167.702L208.033 167.333C208.339 168.467 208.63 169.625 208.897 170.773L207.948 171.096Z" fill="#3F3D56"/>
<path d="M201.935 104.425H200.949C200.949 103.234 200.967 102.025 201.001 100.833L201.987 100.874C201.953 102.053 201.935 103.247 201.935 104.425Z" fill="#3F3D56"/>
<path d="M202.405 93.7146L201.424 93.5885C201.635 91.1908 201.921 88.7737 202.273 86.4042L203.244 86.6146C202.896 88.9562 202.613 91.3452 202.405 93.7146ZM204.504 79.6059L203.549 79.3118C204.042 76.9752 204.613 74.6325 205.244 72.3484L206.18 72.7251C205.556 74.9824 204.992 77.2972 204.504 79.6059ZM361.774 67.0453C361.036 64.836 360.223 62.6317 359.357 60.4941L360.242 59.9709C361.119 62.134 361.942 64.3646 362.689 66.6006L361.774 67.0453ZM208.264 66.0019L207.353 65.5444C208.12 63.3196 208.965 61.0987 209.863 58.9432L210.744 59.4786C209.856 61.6088 209.022 63.8033 208.264 66.0019ZM356.555 54.1688C355.564 52.1115 354.498 50.0702 353.386 48.1018L354.201 47.431C355.326 49.4229 356.404 51.4883 357.407 53.57L356.555 54.1688ZM213.606 53.1884L212.76 52.578C213.782 50.5108 214.881 48.4593 216.026 46.4808L216.834 47.1627C215.703 49.118 214.616 51.1453 213.606 53.1884H213.606ZM349.865 42.3235C348.639 40.4548 347.342 38.6175 346.012 36.8625L346.739 36.0586C348.085 37.8345 349.397 39.6933 350.638 41.584L349.865 42.3235ZM220.41 41.4317L219.644 40.6818C220.902 38.8088 222.231 36.9678 223.595 35.2098L224.315 36.0237C222.967 37.7613 221.653 39.5808 220.41 41.4317ZM341.846 31.7466C340.413 30.1079 338.914 28.5116 337.389 27.0016L338.014 26.0814C339.557 27.6088 341.074 29.2243 342.524 30.8822L341.846 31.7466ZM228.528 30.9659L227.858 30.0922C229.322 28.4555 230.854 26.8612 232.412 25.3541L233.029 26.2831C231.49 27.7727 229.975 29.3481 228.528 30.9659V30.9659ZM332.663 22.6521C331.052 21.2762 329.38 19.9537 327.692 18.7213L328.202 17.7028C329.91 18.9497 331.602 20.2879 333.232 21.6802L332.663 22.6521ZM237.793 21.9999L237.232 21.0204C238.874 19.6519 240.578 18.3379 242.297 17.1142L242.798 18.1396C241.099 19.3491 239.415 20.6478 237.793 21.9999V21.9999ZM322.5 15.2307C320.742 14.1465 318.93 13.1269 317.114 12.1994L317.498 11.103C319.336 12.0413 321.17 13.0734 322.949 14.1704L322.5 15.2307ZM248.018 14.7229L247.579 13.6568C249.366 12.586 251.207 11.58 253.052 10.6671L253.427 11.7687C251.603 12.6709 249.783 13.6649 248.018 14.7229V14.7229ZM311.561 9.6448C309.696 8.87804 307.781 8.18336 305.869 7.58024L306.119 6.42864C308.053 7.03874 309.991 7.74185 311.879 8.51762L311.561 9.6448ZM258.995 9.29253L258.688 8.16127C260.584 7.41137 262.527 6.735 264.465 6.15104L264.704 7.30612C262.789 7.88309 260.868 8.55131 258.995 9.2925L258.995 9.29253ZM300.071 6.01793C298.132 5.58338 296.155 5.22849 294.194 4.96283L294.304 3.77984C296.288 4.0487 298.289 4.40766 300.251 4.84716L300.071 6.01793ZM270.515 5.82202L270.346 4.64892C272.311 4.23589 274.314 3.90364 276.301 3.66096L276.401 4.84569C274.437 5.08519 272.457 5.41363 270.515 5.82201L270.515 5.82202ZM288.27 4.41697C286.296 4.32018 284.288 4.30739 282.328 4.37802L282.299 3.18807C284.282 3.11657 286.312 3.12906 288.311 3.2276L288.27 4.41697Z" fill="#3F3D56"/>
<path d="M364.658 77.261C364.395 76.128 364.11 74.9842 363.812 73.8608L364.751 73.498C365.052 74.6345 365.341 75.792 365.608 76.9383L364.658 77.261Z" fill="#3F3D56"/>
<path d="M362.731 106.218L313.34 165.847L314.038 166.688L363.428 107.06L362.731 106.218Z" fill="#3F3D56"/>
<path d="M299.022 173.466H216.074V174.656H299.022V173.466Z" fill="#3F3D56"/>
<path d="M200.935 181.582L154.542 237.592L155.239 238.434L201.632 182.424L200.935 181.582Z" fill="#3F3D56"/>
<path d="M140.518 245.35H85.083V246.54H140.518V245.35Z" fill="#3F3D56"/>
<path d="M70.0137 252.885L14.9272 319.391L15.6245 320.232L70.711 253.727L70.0137 252.885Z" fill="#3F3D56"/>
<path d="M76.4599 256.951C74.6569 256.951 72.8943 256.305 71.3951 255.096C69.8958 253.887 68.7273 252.168 68.0373 250.157C67.3472 248.146 67.1667 245.933 67.5184 243.798C67.8701 241.663 68.7384 239.701 70.0133 238.162C71.2883 236.623 72.9127 235.575 74.6811 235.15C76.4495 234.725 78.2825 234.943 79.9483 235.776C81.6142 236.609 83.038 238.02 84.0397 239.83C85.0414 241.64 85.5761 243.768 85.5761 245.945C85.5734 248.863 84.6121 251.66 82.9031 253.723C81.194 255.787 78.8769 256.947 76.4599 256.951ZM76.4599 236.129C74.8519 236.129 73.28 236.705 71.9429 237.783C70.6059 238.862 69.5638 240.395 68.9484 242.188C68.333 243.982 68.1719 245.955 68.4856 247.859C68.7993 249.763 69.5736 251.512 70.7106 252.885C71.8477 254.258 73.2963 255.193 74.8735 255.572C76.4506 255.95 78.0853 255.756 79.571 255.013C81.0566 254.27 82.3264 253.012 83.2198 251.398C84.1131 249.784 84.59 247.886 84.59 245.945C84.5875 243.342 83.7302 240.847 82.206 239.007C80.6819 237.167 78.6154 236.132 76.4599 236.129Z" fill="#FDCA05"/>
<path d="M149.141 256.951C147.338 256.951 145.576 256.305 144.077 255.096C142.577 253.887 141.409 252.168 140.719 250.157C140.029 248.145 139.848 245.932 140.2 243.797C140.552 241.662 141.42 239.701 142.695 238.162C143.97 236.623 145.594 235.575 147.363 235.15C149.131 234.725 150.964 234.943 152.63 235.776C154.296 236.609 155.72 238.02 156.721 239.83C157.723 241.64 158.258 243.768 158.258 245.945C158.255 248.863 157.294 251.66 155.585 253.724C153.876 255.787 151.558 256.948 149.141 256.951ZM149.141 236.129C147.533 236.129 145.961 236.705 144.624 237.783C143.287 238.862 142.245 240.395 141.63 242.188C141.015 243.982 140.854 245.956 141.167 247.86C141.481 249.764 142.255 251.513 143.392 252.885C144.529 254.258 145.978 255.193 147.555 255.572C149.132 255.95 150.767 255.756 152.253 255.013C153.738 254.27 155.008 253.012 155.901 251.398C156.795 249.784 157.272 247.886 157.272 245.945C157.269 243.342 156.412 240.847 154.888 239.007C153.363 237.167 151.297 236.132 149.141 236.129Z" fill="#FDCA05"/>
<path d="M207.451 185.067C205.648 185.067 203.885 184.422 202.386 183.212C200.887 182.003 199.718 180.284 199.028 178.273C198.338 176.262 198.158 174.049 198.51 171.914C198.861 169.779 199.73 167.818 201.005 166.279C202.28 164.74 203.904 163.691 205.672 163.267C207.441 162.842 209.274 163.06 210.939 163.893C212.605 164.726 214.029 166.137 215.031 167.946C216.032 169.756 216.567 171.884 216.567 174.061C216.564 176.979 215.603 179.777 213.894 181.84C212.185 183.903 209.868 185.064 207.451 185.067ZM207.451 164.246C205.843 164.246 204.271 164.821 202.934 165.9C201.597 166.979 200.555 168.512 199.939 170.305C199.324 172.099 199.163 174.072 199.477 175.976C199.791 177.88 200.565 179.629 201.702 181.002C202.839 182.375 204.288 183.309 205.865 183.688C207.442 184.067 209.077 183.872 210.562 183.129C212.048 182.387 213.318 181.128 214.211 179.514C215.104 177.9 215.581 176.002 215.581 174.061C215.579 171.459 214.721 168.964 213.197 167.124C211.673 165.284 209.606 164.249 207.451 164.246V164.246Z" fill="#FDCA05"/>
<path d="M307.644 185.067C305.841 185.067 304.079 184.422 302.58 183.212C301.081 182.003 299.912 180.284 299.222 178.273C298.532 176.262 298.352 174.049 298.703 171.914C299.055 169.779 299.924 167.818 301.198 166.279C302.473 164.74 304.098 163.691 305.866 163.267C307.634 162.842 309.467 163.06 311.133 163.893C312.799 164.726 314.223 166.137 315.224 167.946C316.226 169.756 316.761 171.884 316.761 174.061C316.758 176.979 315.797 179.777 314.088 181.84C312.379 183.903 310.061 185.064 307.644 185.067ZM307.644 164.246C306.036 164.246 304.465 164.821 303.128 165.9C301.791 166.979 300.749 168.512 300.133 170.305C299.518 172.099 299.357 174.072 299.671 175.976C299.984 177.88 300.759 179.629 301.896 181.002C303.033 182.375 304.481 183.309 306.059 183.688C307.636 184.067 309.27 183.872 310.756 183.129C312.242 182.387 313.511 181.128 314.405 179.514C315.298 177.9 315.775 176.002 315.775 174.061C315.772 171.459 314.915 168.964 313.391 167.124C311.867 165.284 309.8 164.249 307.644 164.246V164.246Z" fill="#FDCA05"/>
<path d="M369.239 110.209C367.436 110.209 365.674 109.563 364.175 108.354C362.675 107.144 361.507 105.426 360.817 103.415C360.127 101.403 359.946 99.1905 360.298 97.0556C360.65 94.9206 361.518 92.9596 362.793 91.4204C364.068 89.8812 365.692 88.8329 367.461 88.4083C369.229 87.9836 371.062 88.2015 372.728 89.0345C374.394 89.8675 375.817 91.2782 376.819 93.0881C377.821 94.898 378.356 97.0259 378.356 99.2026C378.353 102.121 377.392 104.918 375.682 106.982C373.973 109.045 371.656 110.205 369.239 110.209ZM369.239 89.3873C367.631 89.3874 366.059 89.9631 364.722 91.0416C363.385 92.1202 362.343 93.6532 361.728 95.4467C361.113 97.2403 360.952 99.2138 361.265 101.118C361.579 103.022 362.353 104.771 363.491 106.143C364.628 107.516 366.076 108.451 367.653 108.83C369.23 109.208 370.865 109.014 372.351 108.271C373.836 107.528 375.106 106.27 375.999 104.656C376.893 103.042 377.37 101.144 377.369 99.2026C377.367 96.6003 376.51 94.1055 374.985 92.2654C373.461 90.4253 371.395 89.3902 369.239 89.3873V89.3873Z" fill="#FDCA05"/>
<path d="M9.11666 338.254C7.3136 338.254 5.55101 337.609 4.05179 336.399C2.55257 335.19 1.38406 333.471 0.694019 331.46C0.00398244 329.449 -0.176588 327.236 0.175144 325.101C0.526876 322.966 1.39511 321.005 2.67006 319.465C3.945 317.926 5.56939 316.878 7.33781 316.453C9.10623 316.029 10.9392 316.246 12.6051 317.079C14.2709 317.912 15.6947 319.323 16.6964 321.133C17.6982 322.943 18.2328 325.071 18.2328 327.248C18.2301 330.166 17.2688 332.963 15.5598 335.027C13.8508 337.09 11.5336 338.251 9.11666 338.254ZM9.11666 317.432C7.50863 317.432 5.9367 318.008 4.59965 319.086C3.2626 320.165 2.22048 321.698 1.60509 323.491C0.989687 325.285 0.828645 327.259 1.14233 329.163C1.45601 331.067 2.23032 332.816 3.36736 334.188C4.50439 335.561 5.95306 336.496 7.53019 336.875C9.10732 337.254 10.7421 337.059 12.2277 336.316C13.7133 335.573 14.9831 334.315 15.8765 332.701C16.7699 331.087 17.2467 329.189 17.2467 327.248C17.2442 324.646 16.3869 322.151 14.8628 320.311C13.3386 318.47 11.2722 317.435 9.11666 317.432Z" fill="#FDCA05"/>
<path d="M76.4599 181.001C74.3029 181.001 72.167 181.514 70.1742 182.511C68.1814 183.507 66.3707 184.968 64.8455 186.81C63.3203 188.651 62.1104 190.837 61.285 193.243C60.4595 195.649 60.0347 198.227 60.0347 200.831C60.0347 211.783 76.4599 247.928 76.4599 247.928C76.4599 247.928 92.8851 211.783 92.8851 200.831C92.8851 198.227 92.4603 195.649 91.6348 193.243C90.8094 190.837 89.5995 188.651 88.0743 186.81C86.549 184.968 84.7383 183.507 82.7455 182.511C80.7527 181.514 78.6169 181.001 76.4599 181.001ZM76.4599 211.242C74.7544 211.242 73.0872 210.632 71.6691 209.488C70.251 208.344 69.1457 206.718 68.4931 204.815C67.8404 202.913 67.6696 200.82 68.0024 198.8C68.3351 196.781 69.1564 194.926 70.3623 193.47C71.5683 192.014 73.1048 191.022 74.7776 190.621C76.4503 190.219 78.1842 190.425 79.7599 191.213C81.3355 192.001 82.6823 193.336 83.6298 195.048C84.5774 196.76 85.0831 198.772 85.0831 200.831C85.0831 203.593 84.1746 206.241 82.5574 208.193C80.9403 210.145 78.7469 211.242 76.4599 211.242Z" fill="#FF4364"/>
<path d="M207.451 106.639C203.095 106.639 198.917 108.728 195.837 112.447C192.756 116.166 191.026 121.21 191.026 126.469C191.026 137.421 207.451 173.565 207.451 173.565C207.451 173.565 223.876 137.421 223.876 126.469C223.876 123.865 223.452 121.286 222.626 118.881C221.801 116.475 220.591 114.289 219.066 112.447C217.54 110.606 215.73 109.145 213.737 108.149C211.744 107.152 209.608 106.639 207.451 106.639ZM207.451 136.88C205.746 136.88 204.078 136.269 202.66 135.125C201.242 133.981 200.137 132.355 199.484 130.453C198.832 128.551 198.661 126.458 198.994 124.438C199.326 122.419 200.148 120.564 201.354 119.108C202.56 117.652 204.096 116.66 205.769 116.258C207.442 115.857 209.175 116.063 210.751 116.851C212.327 117.639 213.674 118.973 214.621 120.685C215.569 122.397 216.074 124.41 216.074 126.469C216.074 129.23 215.166 131.878 213.549 133.831C211.931 135.783 209.738 136.88 207.451 136.88Z" fill="#FF4364"/>
<path d="M369.239 35.251C367.082 35.251 364.946 35.7639 362.954 36.7605C360.961 37.757 359.15 39.2177 357.625 41.0591C356.1 42.9004 354.89 45.0865 354.064 47.4924C353.239 49.8982 352.814 52.4769 352.814 55.081C352.814 66.0328 369.239 102.177 369.239 102.177C369.239 102.177 385.664 66.0328 385.664 55.081C385.664 52.4769 385.239 49.8982 384.414 47.4924C383.589 45.0865 382.379 42.9004 380.853 41.0591C379.328 39.2177 377.518 37.757 375.525 36.7605C373.532 35.7639 371.396 35.251 369.239 35.251ZM369.239 65.4917C367.534 65.4917 365.866 64.8811 364.448 63.7372C363.03 62.5933 361.925 60.9673 361.272 59.065C360.62 57.1627 360.449 55.0694 360.782 53.05C361.114 51.0305 361.936 49.1755 363.142 47.7195C364.348 46.2635 365.884 45.272 367.557 44.8703C369.23 44.4686 370.963 44.6748 372.539 45.4627C374.115 46.2507 375.462 47.5851 376.409 49.2971C377.357 51.0091 377.862 53.0219 377.862 55.081C377.862 57.8421 376.954 60.4901 375.337 62.4425C373.72 64.3949 371.526 65.4917 369.239 65.4917Z" fill="#FF4364"/>
</g>
<g clip-path="url(#clip1)">
<path d="M753.668 244.554C754.221 243.565 754.764 242.55 755.284 241.537L754.445 240.91C753.933 241.911 753.396 242.912 752.851 243.888L753.668 244.554Z" fill="#3F3D56"/>
<path d="M758.257 235.156C759.171 232.989 760.021 230.75 760.783 228.502L759.871 228.051C759.119 230.269 758.28 232.478 757.378 234.616L758.257 235.156ZM762.844 221.618C763.449 219.3 763.981 216.923 764.425 214.552L763.463 214.289C763.025 216.628 762.5 218.974 761.904 221.26L762.844 221.618ZM765.515 207.352C765.795 204.949 765.995 202.499 766.111 200.069L765.127 200.001C765.013 202.398 764.815 204.816 764.539 207.186L765.515 207.352ZM765.228 192.779L766.214 192.751C766.166 190.318 766.035 187.861 765.825 185.45L764.844 185.575C765.052 187.954 765.181 190.378 765.228 192.779ZM763.972 178.433L764.941 178.211C764.565 175.824 764.102 173.426 763.565 171.085L762.614 171.403C763.145 173.713 763.602 176.078 763.972 178.433ZM760.778 164.532L761.703 164.12C761.006 161.839 760.221 159.565 759.369 157.361L758.475 157.864C759.316 160.039 760.091 162.282 760.778 164.532ZM625.726 160.852C626.497 158.645 627.354 156.448 628.275 154.321L627.402 153.77C626.468 155.925 625.598 158.152 624.817 160.389L625.726 160.852ZM755.723 151.45L756.579 150.859C755.58 148.75 754.496 146.664 753.355 144.659L752.542 145.332C753.667 147.311 754.738 149.369 755.723 151.45ZM631.263 148.067C632.325 146.042 633.47 144.044 634.667 142.13L633.88 141.413C632.667 143.353 631.506 145.377 630.43 147.43L631.263 148.067ZM748.956 139.551L749.721 138.799C748.449 136.915 747.097 135.072 745.702 133.32L744.991 134.145C746.367 135.873 747.702 137.692 748.956 139.551ZM638.463 136.55C639.786 134.76 641.186 133.015 642.625 131.363L641.945 130.5C640.487 132.175 639.068 133.943 637.727 135.757L638.463 136.55ZM740.672 129.148L741.325 128.256C739.816 126.648 738.233 125.096 736.62 123.642L736.03 124.596C737.622 126.03 739.184 127.562 740.672 129.148ZM647.124 126.605C648.671 125.1 650.289 123.653 651.932 122.307L651.378 121.322C649.713 122.687 648.073 124.152 646.506 125.677L647.124 126.605ZM731.096 120.519L731.619 119.51C729.911 118.221 728.14 117.003 726.353 115.889L725.901 116.947C727.664 118.046 729.411 119.247 731.096 120.519ZM657.016 118.501C658.748 117.321 660.54 116.215 662.342 115.214L661.93 114.132C660.104 115.147 658.287 116.268 656.531 117.464L657.016 118.501ZM720.481 113.906L720.859 112.806C719.001 111.874 717.088 111.025 715.174 110.283L714.872 111.417C716.76 112.149 718.648 112.986 720.481 113.906ZM667.876 112.469C669.743 111.652 671.661 110.918 673.579 110.289L673.321 109.141C671.377 109.778 669.432 110.521 667.54 111.35L667.876 112.469ZM709.108 109.496L709.331 108.337C707.372 107.788 705.368 107.332 703.375 106.981L703.232 108.159C705.199 108.506 707.176 108.956 709.108 109.496V109.496ZM679.412 108.688C681.361 108.254 683.354 107.913 685.334 107.674L685.235 106.489C683.229 106.732 681.209 107.077 679.234 107.517L679.412 108.688ZM697.285 107.41L697.347 106.222C695.341 106.069 693.296 106.015 691.286 106.059L691.304 107.249C693.289 107.205 695.305 107.26 697.285 107.41Z" fill="#3F3D56"/>
<path d="M622.756 171.096C623.02 169.963 623.307 168.821 623.609 167.702L622.671 167.333C622.365 168.467 622.074 169.625 621.807 170.773L622.756 171.096Z" fill="#3F3D56"/>
<path d="M628.769 104.425H629.755C629.755 103.234 629.738 102.025 629.703 100.833L628.717 100.874C628.751 102.053 628.769 103.247 628.769 104.425Z" fill="#3F3D56"/>
<path d="M628.299 93.7146L629.28 93.5885C629.069 91.1908 628.783 88.7737 628.431 86.4042L627.46 86.6146C627.808 88.9562 628.091 91.3452 628.299 93.7146ZM626.2 79.6059L627.155 79.3118C626.662 76.9752 626.091 74.6325 625.46 72.3484L624.524 72.7251C625.148 74.9824 625.712 77.2972 626.2 79.6059ZM468.93 67.0453C469.668 64.836 470.481 62.6317 471.348 60.4941L470.462 59.9709C469.585 62.134 468.762 64.3646 468.016 66.6006L468.93 67.0453ZM622.44 66.0019L623.351 65.5444C622.584 63.3196 621.74 61.0987 620.841 58.9432L619.96 59.4786C620.848 61.6088 621.683 63.8033 622.44 66.0019ZM474.149 54.1688C475.14 52.1115 476.207 50.0702 477.318 48.1018L476.504 47.431C475.378 49.4229 474.3 51.4883 473.297 53.57L474.149 54.1688ZM617.098 53.1884L617.944 52.578C616.922 50.5108 615.823 48.4593 614.678 46.4808L613.87 47.1627C615.002 49.118 616.088 51.1453 617.098 53.1884H617.098ZM480.839 42.3235C482.066 40.4548 483.362 38.6175 484.692 36.8625L483.965 36.0586C482.619 37.8345 481.307 39.6933 480.066 41.584L480.839 42.3235ZM610.294 41.4317L611.06 40.6818C609.802 38.8088 608.473 36.9678 607.109 35.2098L606.389 36.0237C607.737 37.7613 609.051 39.5808 610.294 41.4317ZM488.858 31.7466C490.291 30.1079 491.791 28.5116 493.315 27.0016L492.69 26.0814C491.147 27.6088 489.63 29.2243 488.18 30.8822L488.858 31.7466ZM602.176 30.9659L602.846 30.0922C601.382 28.4555 599.85 26.8612 598.292 25.3541L597.675 26.2831C599.215 27.7727 600.729 29.3481 602.176 30.9659V30.9659ZM498.041 22.6521C499.652 21.2762 501.324 19.9537 503.012 18.7213L502.502 17.7028C500.794 18.9497 499.102 20.2879 497.472 21.6802L498.041 22.6521ZM592.911 21.9999L593.472 21.0204C591.83 19.6519 590.126 18.3379 588.407 17.1142L587.906 18.1396C589.605 19.3491 591.289 20.6478 592.911 21.9999V21.9999ZM508.204 15.2307C509.962 14.1465 511.774 13.1269 513.59 12.1994L513.206 11.103C511.368 12.0413 509.534 13.0734 507.755 14.1704L508.204 15.2307ZM582.686 14.7229L583.125 13.6568C581.338 12.586 579.497 11.58 577.652 10.6671L577.278 11.7687C579.101 12.6709 580.921 13.6649 582.686 14.7229V14.7229ZM519.143 9.6448C521.009 8.87804 522.924 8.18336 524.835 7.58024L524.585 6.42864C522.651 7.03874 520.713 7.74185 518.825 8.51762L519.143 9.6448ZM571.709 9.29253L572.016 8.16127C570.121 7.41137 568.177 6.735 566.239 6.15104L566.001 7.30612C567.916 7.88309 569.836 8.55131 571.709 9.2925L571.709 9.29253ZM530.633 6.01793C532.573 5.58338 534.55 5.22849 536.51 4.96283L536.4 3.77984C534.416 4.0487 532.416 4.40766 530.453 4.84716L530.633 6.01793ZM560.189 5.82202L560.358 4.64892C558.393 4.23589 556.39 3.90364 554.403 3.66096L554.304 4.84569C556.267 5.08519 558.247 5.41363 560.189 5.82201L560.189 5.82202ZM542.434 4.41697C544.408 4.32018 546.416 4.30739 548.376 4.37802L548.406 3.18807C546.422 3.11657 544.392 3.12906 542.393 3.2276L542.434 4.41697Z" fill="#3F3D56"/>
<path d="M466.046 77.261C466.309 76.128 466.595 74.9842 466.892 73.8608L465.953 73.498C465.652 74.6345 465.363 75.792 465.096 76.9383L466.046 77.261Z" fill="#3F3D56"/>
<path d="M467.973 106.218L517.364 165.847L516.667 166.688L467.276 107.06L467.973 106.218Z" fill="#3F3D56"/>
<path d="M531.682 173.466H614.63V174.656H531.682V173.466Z" fill="#3F3D56"/>
<path d="M629.77 181.582L676.163 237.592L675.465 238.434L629.072 182.424L629.77 181.582Z" fill="#3F3D56"/>
<path d="M690.186 245.35H745.621V246.54H690.186V245.35Z" fill="#3F3D56"/>
<path d="M760.69 252.885L815.777 319.391L815.08 320.232L759.993 253.727L760.69 252.885Z" fill="#3F3D56"/>
<path d="M754.244 256.951C756.047 256.951 757.81 256.305 759.309 255.096C760.808 253.887 761.977 252.168 762.667 250.157C763.357 248.146 763.537 245.933 763.186 243.798C762.834 241.663 761.966 239.701 760.691 238.162C759.416 236.623 757.791 235.575 756.023 235.15C754.255 234.725 752.422 234.943 750.756 235.776C749.09 236.609 747.666 238.02 746.664 239.83C745.663 241.64 745.128 243.768 745.128 245.945C745.131 248.863 746.092 251.66 747.801 253.723C749.51 255.787 751.827 256.947 754.244 256.951ZM754.244 236.129C755.852 236.129 757.424 236.705 758.761 237.783C760.098 238.862 761.14 240.395 761.756 242.188C762.371 243.982 762.532 245.955 762.219 247.859C761.905 249.763 761.131 251.512 759.993 252.885C758.856 254.258 757.408 255.193 755.831 255.572C754.254 255.95 752.619 255.756 751.133 255.013C749.648 254.27 748.378 253.012 747.484 251.398C746.591 249.784 746.114 247.886 746.114 245.945C746.117 243.342 746.974 240.847 748.498 239.007C750.022 237.167 752.089 236.132 754.244 236.129Z" fill="#FDCA05"/>
<path d="M681.563 256.951C683.366 256.951 685.128 256.305 686.628 255.096C688.127 253.887 689.295 252.168 689.985 250.157C690.675 248.145 690.856 245.932 690.504 243.797C690.152 241.662 689.284 239.701 688.009 238.162C686.734 236.623 685.11 235.575 683.341 235.15C681.573 234.725 679.74 234.943 678.074 235.776C676.408 236.609 674.984 238.02 673.983 239.83C672.981 241.64 672.446 243.768 672.446 245.945C672.449 248.863 673.41 251.66 675.119 253.724C676.829 255.787 679.146 256.948 681.563 256.951ZM681.563 236.129C683.171 236.129 684.743 236.705 686.08 237.783C687.417 238.862 688.459 240.395 689.074 242.188C689.69 243.982 689.851 245.956 689.537 247.86C689.223 249.764 688.449 251.513 687.312 252.885C686.175 254.258 684.726 255.193 683.149 255.572C681.572 255.95 679.937 255.756 678.451 255.013C676.966 254.27 675.696 253.012 674.803 251.398C673.909 249.784 673.432 247.886 673.432 245.945C673.435 243.342 674.292 240.847 675.817 239.007C677.341 237.167 679.407 236.132 681.563 236.129Z" fill="#FDCA05"/>
<path d="M623.253 185.067C625.056 185.067 626.819 184.422 628.318 183.212C629.817 182.003 630.986 180.284 631.676 178.273C632.366 176.262 632.546 174.049 632.194 171.914C631.843 169.779 630.974 167.818 629.7 166.279C628.425 164.74 626.8 163.691 625.032 163.267C623.263 162.842 621.431 163.06 619.765 163.893C618.099 164.726 616.675 166.137 615.673 167.946C614.672 169.756 614.137 171.884 614.137 174.061C614.14 176.979 615.101 179.777 616.81 181.84C618.519 183.903 620.836 185.064 623.253 185.067ZM623.253 164.246C624.861 164.246 626.433 164.821 627.77 165.9C629.107 166.979 630.149 168.512 630.765 170.305C631.38 172.099 631.541 174.072 631.227 175.976C630.914 177.88 630.139 179.629 629.002 181.002C627.865 182.375 626.416 183.309 624.839 183.688C623.262 184.067 621.628 183.872 620.142 183.129C618.656 182.387 617.387 181.128 616.493 179.514C615.6 177.9 615.123 176.002 615.123 174.061C615.126 171.459 615.983 168.964 617.507 167.124C619.031 165.284 621.098 164.249 623.253 164.246V164.246Z" fill="#FDCA05"/>
<path d="M523.06 185.067C524.863 185.067 526.625 184.422 528.124 183.212C529.623 182.003 530.792 180.284 531.482 178.273C532.172 176.262 532.352 174.049 532.001 171.914C531.649 169.779 530.781 167.818 529.506 166.279C528.231 164.74 526.606 163.691 524.838 163.267C523.07 162.842 521.237 163.06 519.571 163.893C517.905 164.726 516.481 166.137 515.48 167.946C514.478 169.756 513.943 171.884 513.943 174.061C513.946 176.979 514.907 179.777 516.616 181.84C518.325 183.903 520.643 185.064 523.06 185.067ZM523.06 164.246C524.668 164.246 526.239 164.821 527.576 165.9C528.913 166.979 529.955 168.512 530.571 170.305C531.186 172.099 531.347 174.072 531.033 175.976C530.72 177.88 529.945 179.629 528.808 181.002C527.671 182.375 526.223 183.309 524.646 183.688C523.068 184.067 521.434 183.872 519.948 183.129C518.463 182.387 517.193 181.128 516.299 179.514C515.406 177.9 514.929 176.002 514.929 174.061C514.932 171.459 515.789 168.964 517.313 167.124C518.838 165.284 520.904 164.249 523.06 164.246V164.246Z" fill="#FDCA05"/>
<path d="M461.465 110.209C463.268 110.209 465.03 109.563 466.53 108.354C468.029 107.144 469.197 105.426 469.887 103.415C470.577 101.403 470.758 99.1905 470.406 97.0556C470.054 94.9206 469.186 92.9596 467.911 91.4204C466.636 89.8812 465.012 88.8329 463.243 88.4083C461.475 87.9836 459.642 88.2015 457.976 89.0345C456.31 89.8675 454.887 91.2782 453.885 93.0881C452.883 94.898 452.349 97.0259 452.348 99.2026C452.351 102.121 453.313 104.918 455.022 106.982C456.731 109.045 459.048 110.205 461.465 110.209ZM461.465 89.3873C463.073 89.3874 464.645 89.9631 465.982 91.0416C467.319 92.1202 468.361 93.6532 468.976 95.4467C469.591 97.2403 469.752 99.2138 469.439 101.118C469.125 103.022 468.351 104.771 467.214 106.143C466.077 107.516 464.628 108.451 463.051 108.83C461.474 109.208 459.839 109.014 458.353 108.271C456.868 107.528 455.598 106.27 454.705 104.656C453.811 103.042 453.335 101.144 453.335 99.2026C453.337 96.6003 454.194 94.1055 455.719 92.2654C457.243 90.4253 459.309 89.3902 461.465 89.3873V89.3873Z" fill="#FDCA05"/>
<path d="M821.587 338.254C823.391 338.254 825.153 337.609 826.652 336.399C828.152 335.19 829.32 333.471 830.01 331.46C830.7 329.449 830.881 327.236 830.529 325.101C830.177 322.966 829.309 321.005 828.034 319.465C826.759 317.926 825.135 316.878 823.366 316.453C821.598 316.029 819.765 316.246 818.099 317.079C816.433 317.912 815.009 319.323 814.008 321.133C813.006 322.943 812.471 325.071 812.471 327.248C812.474 330.166 813.435 332.963 815.144 335.027C816.853 337.09 819.17 338.251 821.587 338.254ZM821.587 317.432C823.195 317.432 824.767 318.008 826.104 319.086C827.441 320.165 828.484 321.698 829.099 323.491C829.714 325.285 829.875 327.259 829.562 329.163C829.248 331.067 828.474 332.816 827.337 334.188C826.2 335.561 824.751 336.496 823.174 336.875C821.597 337.254 819.962 337.059 818.476 336.316C816.991 335.573 815.721 334.315 814.828 332.701C813.934 331.087 813.457 329.189 813.457 327.248C813.46 324.646 814.317 322.151 815.841 320.311C817.365 318.47 819.432 317.435 821.587 317.432Z" fill="#FDCA05"/>
<path d="M754.244 181.001C756.401 181.001 758.537 181.514 760.53 182.511C762.523 183.507 764.333 184.968 765.859 186.81C767.384 188.651 768.594 190.837 769.419 193.243C770.245 195.649 770.669 198.227 770.669 200.831C770.669 211.783 754.244 247.928 754.244 247.928C754.244 247.928 737.819 211.783 737.819 200.831C737.819 198.227 738.244 195.649 739.069 193.243C739.895 190.837 741.105 188.651 742.63 186.81C744.155 184.968 745.966 183.507 747.959 182.511C749.951 181.514 752.087 181.001 754.244 181.001ZM754.244 211.242C755.95 211.242 757.617 210.632 759.035 209.488C760.453 208.344 761.558 206.718 762.211 204.815C762.864 202.913 763.034 200.82 762.702 198.8C762.369 196.781 761.548 194.926 760.342 193.47C759.136 192.014 757.599 191.022 755.927 190.621C754.254 190.219 752.52 190.425 750.944 191.213C749.369 192.001 748.022 193.336 747.074 195.048C746.127 196.76 745.621 198.772 745.621 200.831C745.621 203.593 746.53 206.241 748.147 208.193C749.764 210.145 751.957 211.242 754.244 211.242Z" fill="#032B4D"/>
<path d="M623.253 106.639C627.609 106.639 631.787 108.728 634.867 112.447C637.948 116.166 639.678 121.21 639.678 126.469C639.678 137.421 623.253 173.565 623.253 173.565C623.253 173.565 606.828 137.421 606.828 126.469C606.828 123.865 607.253 121.286 608.078 118.881C608.903 116.475 610.113 114.289 611.639 112.447C613.164 110.606 614.975 109.145 616.967 108.149C618.96 107.152 621.096 106.639 623.253 106.639ZM623.253 136.88C624.959 136.88 626.626 136.269 628.044 135.125C629.462 133.981 630.567 132.355 631.22 130.453C631.873 128.551 632.043 126.458 631.711 124.438C631.378 122.419 630.557 120.564 629.351 119.108C628.145 117.652 626.608 116.66 624.935 116.258C623.263 115.857 621.529 116.063 619.953 116.851C618.377 117.639 617.031 118.973 616.083 120.685C615.136 122.397 614.63 124.41 614.63 126.469C614.63 129.23 615.538 131.878 617.155 133.831C618.773 135.783 620.966 136.88 623.253 136.88Z" fill="#032B4D"/>
<path d="M461.465 35.251C463.622 35.251 465.758 35.7639 467.751 36.7605C469.743 37.757 471.554 39.2177 473.079 41.0591C474.605 42.9004 475.814 45.0865 476.64 47.4924C477.465 49.8982 477.89 52.4769 477.89 55.081C477.89 66.0328 461.465 102.177 461.465 102.177C461.465 102.177 445.04 66.0328 445.04 55.081C445.04 52.4769 445.465 49.8982 446.29 47.4924C447.116 45.0865 448.325 42.9004 449.851 41.0591C451.376 39.2177 453.187 37.757 455.179 36.7605C457.172 35.7639 459.308 35.251 461.465 35.251ZM461.465 65.4917C463.17 65.4917 464.838 64.8811 466.256 63.7372C467.674 62.5933 468.779 60.9673 469.432 59.065C470.084 57.1627 470.255 55.0694 469.922 53.05C469.59 51.0305 468.768 49.1755 467.562 47.7195C466.356 46.2635 464.82 45.272 463.147 44.8703C461.475 44.4686 459.741 44.6748 458.165 45.4627C456.589 46.2507 455.243 47.5851 454.295 49.2971C453.347 51.0091 452.842 53.0219 452.842 55.081C452.842 57.8421 453.75 60.4901 455.367 62.4425C456.985 64.3949 459.178 65.4917 461.465 65.4917Z" fill="#032B4D"/>
</g>
<g clip-path="url(#clip2)">
<g opacity="0.1">
<path opacity="0.1" d="M416.009 188.773L413.768 337.903C413.768 337.903 494.892 337.903 563.917 363.612L565.258 212.958C565.258 212.958 454.554 182.599 416.009 188.773Z" fill="black"/>
</g>
<path d="M414.244 186.074L412.003 335.203C412.003 335.203 493.128 335.203 562.153 360.913L563.494 210.259C563.494 210.259 452.789 179.9 414.244 186.074Z" fill="#032B4D"/>
<g opacity="0.1">
<path opacity="0.1" d="M375.282 193.045L377.523 342.174C377.523 342.174 296.399 342.174 227.38 367.884L226.033 217.23C226.033 217.23 336.737 186.904 375.282 193.045Z" fill="black"/>
</g>
<path d="M377.047 189.671L379.288 338.8C379.288 338.8 298.164 338.8 229.145 364.51L227.798 213.856C227.798 213.856 338.502 183.53 377.047 189.671Z" fill="#032B4D"/>
<path opacity="0.2" d="M340.608 207.067L341.814 287.037C341.814 287.037 298.287 287.037 261.29 300.823L260.566 220.03C260.566 220.03 319.939 203.774 340.608 207.067Z" fill="#FDCA05"/>
<g opacity="0.1">
<path opacity="0.1" d="M613.072 243.627V391.198C613.072 391.198 639.541 387.594 695.096 466.268L700.025 318.698C700.025 318.698 642.206 247.224 613.072 243.627Z" fill="black"/>
</g>
<path d="M611.896 241.603V389.173C611.896 389.173 638.365 385.57 693.92 464.244L698.849 316.674C698.849 316.674 641.029 245.2 611.896 241.603Z" fill="#032B4D"/>
<g opacity="0.1">
<path opacity="0.1" d="M185.248 244.302V391.873C185.248 391.873 158.803 388.269 103.259 466.943L98.3008 319.373C98.3008 319.373 156.115 247.899 185.248 244.302Z" fill="black"/>
</g>
<path d="M187.012 241.603V389.173C187.012 389.173 160.567 385.57 105.023 464.244L100.065 316.674C100.065 316.674 157.879 245.2 187.012 241.603Z" fill="#032B4D"/>
<g opacity="0.2">
<path opacity="0.2" d="M435.919 217.094L490.875 228.37V237.554L435.919 225.448V217.094Z" fill="#6C63FF"/>
</g>
<path d="M330.044 305.83L275.094 317.105V326.289L330.044 314.184V305.83Z" fill="white"/>
<path d="M330.044 223.851L275.094 235.127V244.311L330.044 232.205V223.851Z" fill="white"/>
<path d="M330.044 242.068L275.094 253.344V262.528L330.044 250.422V242.068Z" fill="#FDCA05"/>
<path d="M330.044 260.286L275.094 271.562V280.746L330.044 268.64V260.286Z" fill="white"/>
<path d="M436.648 234.214L537.088 258.014V267.198L436.648 242.568V234.214Z" fill="white"/>
<path d="M436.648 251.333L537.088 275.127V284.317L436.648 259.681V251.333Z" fill="#FDCA05"/>
<g opacity="0.2">
<path opacity="0.2" d="M635.318 289.257V297.361L656.864 317.443L657.875 310.493L635.318 289.257Z" fill="#6C63FF"/>
</g>
<path d="M635.318 367.533V375.637L656.864 395.719L657.875 388.768L635.318 367.533Z" fill="white"/>
<path d="M635.659 303.158L635.318 311.269L676.051 355.285L675.38 346.021L635.659 303.158Z" fill="white"/>
<path d="M635.318 318.219V325.938L676.051 370.738V360.697L635.318 318.219Z" fill="#FDCA05"/>
<g opacity="0.2">
<path d="M163.249 291.011L163.585 299.122L122.858 343.139L123.528 333.874L163.249 291.011Z" fill="white"/>
</g>
<path opacity="0.2" d="M163.585 306.073V313.792L122.858 358.592V348.551L163.585 306.073Z" fill="#FDCA05"/>
<path d="M218.351 545.563C236.868 545.563 251.878 542.463 251.878 538.64C251.878 534.816 236.868 531.716 218.351 531.716C199.834 531.716 184.824 534.816 184.824 538.64C184.824 542.463 199.834 545.563 218.351 545.563Z" fill="white"/>
<path d="M138.838 500.575C138.838 500.575 142.068 505.42 137.344 512.721C132.621 520.022 128.727 526.217 130.286 530.778C130.286 530.778 137.409 517.188 143.226 516.999C149.044 516.81 145.22 508.78 138.838 500.575Z" fill="#6C63FF"/>
<path opacity="0.1" d="M138.839 500.575C139.122 501.041 139.344 501.553 139.497 502.093C145.156 509.718 148.173 516.837 142.732 517.019C137.668 517.181 131.557 527.58 130.133 530.205C130.18 530.401 130.239 530.603 130.304 530.799C130.304 530.799 137.427 517.208 143.244 517.019C149.061 516.83 145.221 508.78 138.839 500.575Z" fill="black"/>
<path d="M144.844 506.756C144.844 508.463 144.679 509.847 144.473 509.847C144.267 509.847 144.097 508.463 144.097 506.756C144.097 505.049 144.308 505.852 144.514 505.852C144.72 505.852 144.844 505.042 144.844 506.756Z" fill="#FFD037"/>
<path d="M146.908 508.78C145.603 509.596 144.461 510.089 144.361 509.886C144.262 509.684 145.244 508.847 146.55 508.031C147.855 507.214 147.338 507.808 147.438 508.031C147.538 508.254 148.214 507.97 146.908 508.78Z" fill="#FFD037"/>
<path d="M121.769 500.575C121.769 500.575 118.551 505.406 123.257 512.741C127.963 520.076 131.874 526.237 130.315 530.799C130.315 530.799 123.192 517.208 117.375 517.019C111.558 516.83 115.393 508.78 121.769 500.575Z" fill="#6C63FF"/>
<path opacity="0.1" d="M121.769 500.575C121.488 501.043 121.266 501.554 121.11 502.093C115.451 509.718 112.434 516.837 117.875 517.019C122.945 517.181 129.051 527.58 130.474 530.205C130.428 530.407 130.371 530.605 130.303 530.799C130.303 530.799 123.18 517.208 117.363 517.019C111.546 516.83 115.393 508.78 121.769 500.575Z" fill="black"/>
<path d="M115.763 506.756C115.763 508.463 115.928 509.847 116.134 509.847C116.34 509.847 116.51 508.463 116.51 506.756C116.51 505.049 116.298 505.852 116.093 505.852C115.887 505.852 115.763 505.042 115.763 506.756Z" fill="#FFD037"/>
<path d="M113.705 508.78C115.011 509.596 116.146 510.089 116.246 509.886C116.346 509.684 115.364 508.847 114.058 508.031C112.752 507.214 113.27 507.808 113.17 508.031C113.07 508.254 112.399 507.97 113.705 508.78Z" fill="#FFD037"/>
<path d="M116.787 530.164C116.787 530.164 125.822 529.847 128.551 527.62C131.28 525.394 142.444 522.742 143.121 526.311C143.797 529.881 156.696 544.052 146.497 544.146C136.298 544.24 122.798 542.324 120.081 540.421C117.364 538.518 116.787 530.164 116.787 530.164Z" fill="#A8A8A8"/>
<path opacity="0.2" d="M146.679 542.904C136.479 542.999 122.98 541.083 120.263 539.18C118.192 537.736 117.369 532.546 117.092 530.151H116.792C116.792 530.151 117.381 538.512 120.081 540.408C122.78 542.304 136.297 544.227 146.496 544.133C149.437 544.133 150.461 542.904 150.402 541.123C149.996 542.209 148.873 542.884 146.679 542.904Z" fill="black"/>
<path d="M451.212 447.496C481.748 447.496 506.502 442.632 506.502 436.632C506.502 430.632 481.748 425.768 451.212 425.768C420.676 425.768 395.921 430.632 395.921 436.632C395.921 442.632 420.676 447.496 451.212 447.496Z" fill="white"/>
<path d="M440.06 290.006C439.79 290.666 439.593 291.362 439.472 292.077C439.437 292.257 439.401 292.446 439.366 292.644C439.013 294.709 438.778 297.307 438.654 298.818C438.596 299.574 438.566 300.06 438.566 300.06C438.566 300.06 425.808 299.082 428.02 296.625C428.59 295.947 428.996 295.11 429.196 294.196C429.261 293.933 429.314 293.67 429.361 293.4C429.466 292.787 429.535 292.167 429.567 291.544C429.567 291.389 429.567 291.234 429.567 291.072C429.596 290.06 429.554 289.047 429.443 288.042C429.443 288.042 433.59 288.042 436.719 288.427C438.825 288.703 440.466 289.182 440.06 290.006Z" fill="#D38884"/>
<path d="M417.944 359.651C413.597 359.489 416.803 349.104 417.303 347.708C417.803 346.311 416.562 342.89 416.562 342.89C416.562 342.89 415.091 332.997 415.091 332.349C415.016 331.001 414.851 329.661 414.597 328.341C414.444 326.994 414.649 325.625 415.185 324.414C415.685 323.516 415.609 319.92 415.609 319.92V315.264L416.579 313.792L419.056 316.492L419.744 317.234L420.956 322.443L420.526 329.907L420.297 337.174L421.797 347.228C421.797 347.228 422.32 359.82 417.944 359.651Z" fill="#D38884"/>
<path opacity="0.1" d="M419.32 317.726L415.614 315.958V315.27L416.579 313.799L419.061 316.485L419.32 317.726Z" fill="black"/>
<path d="M417.614 307.092C417.138 308.434 416.793 309.833 416.585 311.262C416.393 312.633 416.068 313.976 415.614 315.264L419.732 317.227L417.614 307.092Z" fill="#4C4981"/>
<path opacity="0.05" d="M417.614 307.092C417.138 308.434 416.793 309.833 416.585 311.262C416.393 312.633 416.068 313.976 415.614 315.264L419.732 317.227L417.614 307.092Z" fill="black"/>
<path d="M450.412 410.329L450.071 411.165C450.071 411.165 449.7 413.939 449.7 414.006C449.7 414.074 448.63 415.923 448.63 415.923L445.942 416.597L444.801 416.435C444.74 415.673 444.638 414.916 444.495 414.168C444.454 413.959 444.413 413.743 444.36 413.527C443.958 411.797 443.325 410.149 442.483 408.642C442.483 408.642 440.489 403 439.778 402.265C439.066 401.529 436.354 394.086 436.642 392.291C436.795 391.306 436.672 388 436.531 385.247C436.413 382.999 436.284 381.11 436.284 381.11L443.054 376.521L443.842 377.945L444.313 378.789C444.313 378.789 444.313 378.951 444.283 379.221V379.322C444.205 380.469 444.008 381.602 443.695 382.696C443.695 382.696 443.189 386.866 443.695 387.602C444.201 388.337 445.813 398.169 446.171 402.717C446.171 402.859 446.171 403 446.171 403.129C446.312 405.22 447.442 407.083 448.577 408.446C448.648 408.54 448.724 408.628 448.801 408.716C449.305 409.295 449.843 409.834 450.412 410.329Z" fill="#D38884"/>
<path opacity="0.1" d="M444.801 416.421L445.942 416.583L448.63 415.908C448.63 415.908 449.701 414.053 449.701 413.992C449.701 413.931 450.071 411.151 450.071 411.151L450.412 410.314L450.454 410.213C449.796 409.691 449.179 409.106 448.607 408.466C448.542 408.398 448.477 408.331 448.418 408.256C448.36 408.182 448.801 410.956 446.754 412.163C445.76 412.75 444.942 413.203 444.372 413.513L444.801 416.421Z" fill="black"/>
<path d="M450.883 410.72L450.501 411.658C450.501 411.658 450.13 414.431 450.13 414.498C450.13 414.566 449.059 416.415 449.059 416.415L446.371 417.09L444.825 416.881C444.825 416.523 444.772 416.017 444.695 415.403C444.648 415.032 444.583 414.62 444.495 414.175C445.083 413.871 445.995 413.372 447.165 412.677C449.218 411.469 448.83 408.77 448.83 408.77C449.274 409.277 449.744 409.755 450.236 410.2C450.518 410.43 450.748 410.612 450.883 410.72Z" fill="#CEDDF9"/>
<path opacity="0.1" d="M450.883 410.719L450.501 411.657C450.501 411.657 450.13 414.431 450.13 414.498C450.13 414.566 449.06 416.415 449.06 416.415L446.372 417.089L444.825 416.88C444.825 416.523 444.772 416.016 444.695 415.402C445.024 415.42 445.351 415.472 445.672 415.558C445.672 415.558 449.342 416.455 449.519 413.122C449.624 411.232 449.966 410.49 450.236 410.2C450.519 410.429 450.748 410.611 450.883 410.719Z" fill="black"/>
<path d="M450.612 410.497C450.612 410.497 449.701 410.267 449.518 413.594C449.336 416.921 445.672 416.03 445.672 416.03C445.672 416.03 443.872 415.517 443.854 416.374C443.914 417.166 444.077 417.944 444.336 418.682C444.336 418.682 444.442 420.666 444.783 421.138C445.125 421.61 444.907 423.365 444.907 423.365C444.907 423.365 445.048 424.674 447.883 423.365C447.883 423.365 450.412 422.764 452.512 419.154C452.583 419.033 452.265 418.662 454.1 417.906C455.935 417.15 461.159 412.305 460.782 409.936C460.742 409.544 460.602 409.175 460.38 408.872C460.159 408.57 459.865 408.349 459.535 408.236C459.261 408.152 458.974 408.131 458.692 408.175C458.411 408.219 458.139 408.327 457.894 408.492C457.398 408.8 456.885 409.071 456.359 409.302C455.66 409.627 454.922 409.829 454.171 409.903C453.595 409.959 453.025 410.083 452.471 410.274C451.88 410.538 451.238 410.615 450.612 410.497Z" fill="#CC8294"/>
<path d="M429.837 387.594C429.432 387.979 429.083 388.434 428.802 388.944C427.767 390.759 427.143 393.296 426.449 394.39C425.543 395.807 425.273 398.56 425.273 398.56C425.032 400.368 421.691 410.031 420.785 411.745C419.879 413.459 418.62 418.122 418.62 418.122C417.85 419.229 417.897 420.875 417.973 421.658C417.973 421.793 417.973 421.901 418.009 421.975C418.044 422.049 418.009 422.103 418.009 422.103V422.151L416.773 424.56L412.844 423.932L410.815 422.353C410.981 422.043 411.129 421.721 411.256 421.388C412.344 418.608 413.115 413.642 413.115 413.642C413.115 413.642 414.209 407.973 414.126 406.651C414.154 404.846 414.262 403.044 414.45 401.252C414.45 401.252 417.544 390.422 418.532 388.667C418.944 387.974 419.199 387.174 419.273 386.339C419.292 386.171 419.292 386.001 419.273 385.833L420.603 384.315C420.603 384.315 431.543 386.036 429.837 387.594Z" fill="#D38884"/>
<path opacity="0.1" d="M418.05 421.631C418.05 421.631 418.05 421.766 418.05 421.988V422.164L416.814 424.573L412.885 423.945L410.856 422.366C411.022 422.057 411.17 421.734 411.297 421.401C412.285 421.077 414.544 421.995 414.544 421.995C414.544 421.995 416.985 422.528 418.014 421.671C418.014 421.664 418.026 421.644 418.05 421.631Z" fill="black"/>
<path d="M417.091 428.061L413.103 429.155L409.444 426.051L409.633 424.303C409.888 424.123 410.115 423.895 410.303 423.628C410.57 423.268 410.752 422.836 410.832 422.373C411.044 421.084 414.52 422.494 414.52 422.494C414.52 422.494 417.061 423.048 418.05 422.123C417.98 422.971 418.044 423.825 418.238 424.647C418.332 425.047 418.539 425.401 418.826 425.652C419.844 426.455 417.091 428.061 417.091 428.061Z" fill="#CEDDF9"/>
<path opacity="0.1" d="M417.091 428.062L413.103 429.155L409.444 426.051L409.633 424.303C409.888 424.124 410.115 423.896 410.303 423.628C410.568 423.628 410.856 423.628 411.103 423.628C411.691 423.696 413.162 426.699 413.162 426.699C416.773 426.975 417.867 425.619 418.238 424.62C418.332 425.021 418.539 425.374 418.826 425.626C419.844 426.456 417.091 428.062 417.091 428.062Z" fill="black"/>
<path d="M413.162 427.205C413.162 427.205 411.715 424.202 411.103 424.141C410.586 424.108 410.067 424.108 409.55 424.141C409.55 424.141 407.95 428.493 407.362 428.865C406.774 429.236 405.915 431.321 405.915 431.321C405.915 431.321 410.15 436.044 414.244 435.12C415.55 435.141 416.834 435.508 417.997 436.193C419.891 437.326 427.802 436.469 428.767 434.479C429.484 432.981 429.772 431.894 429.137 431.105C428.947 430.879 428.713 430.709 428.454 430.608C428.195 430.507 427.919 430.478 427.649 430.524C426.655 430.68 424.42 430.653 422.461 427.893C422.461 427.893 418.85 424.101 418.555 424.094C418.261 424.087 418.797 427.636 413.162 427.205Z" fill="#CC8294"/>
<path opacity="0.1" d="M444.318 379.281L444.289 379.322C444.042 379.632 442.301 381.825 441.772 381.981C440.896 382.36 440.04 382.794 439.207 383.283C439.207 383.283 438.137 384.923 437.284 385.004C437.026 385.046 436.773 385.123 436.531 385.233C436.413 382.986 436.284 381.097 436.284 381.097L443.054 376.521L443.842 377.945C444.019 378.519 444.218 379.052 444.283 379.221L444.318 379.281Z" fill="black"/>
<path d="M419.708 347.708C419.708 347.708 417.073 351.649 419.708 356.878C421.126 359.818 422.956 362.47 425.126 364.726L434.101 386.063C434.101 386.063 436.454 384.592 437.313 384.511C438.172 384.43 439.236 382.797 439.236 382.797C440.069 382.306 440.925 381.869 441.801 381.488C442.389 381.326 444.348 378.789 444.348 378.789C444.348 378.789 443.366 376.339 443.583 375.685C443.801 375.03 442.942 373.39 442.942 373.39C442.675 372.571 442.478 371.723 442.354 370.86C442.354 370.185 441.425 368.653 441.425 368.653C441.425 368.653 440.501 367.014 440.501 366.116C440.501 365.219 439.119 361.676 439.119 361.676L438.76 346.156L419.708 347.708Z" fill="#CEDDF9"/>
<path opacity="0.05" d="M444.319 378.789C444.319 378.789 442.343 381.319 441.772 381.488C440.896 381.869 440.04 382.306 439.207 382.797C439.207 382.797 438.137 384.43 437.284 384.511C436.67 384.657 436.076 384.9 435.519 385.233C434.755 385.631 434.067 386.063 434.067 386.063L425.085 364.726C424.299 363.94 423.569 363.082 422.903 362.162C421.686 360.517 420.603 358.749 419.668 356.878C418.638 354.982 418.273 352.708 418.644 350.515C418.811 349.51 419.16 348.556 419.668 347.715L426.055 347.195L438.778 346.156L438.884 350.751L439.119 361.676C439.119 361.676 439.325 362.223 439.584 362.945C439.988 363.948 440.286 365.004 440.472 366.089C440.472 366.993 441.396 368.626 441.396 368.626C441.396 368.626 442.325 370.178 442.325 370.833C442.45 371.698 442.647 372.548 442.913 373.37C442.913 373.37 443.772 375.003 443.56 375.651C443.348 376.299 444.319 378.789 444.319 378.789Z" fill="black"/>
<path opacity="0.1" d="M429.837 387.594C429.432 387.979 429.082 388.434 428.801 388.944C424.925 389.268 420.42 386.919 419.249 386.298C419.268 386.13 419.268 385.96 419.249 385.792L420.578 384.274C420.578 384.274 431.542 386.035 429.837 387.594Z" fill="black"/>
<path d="M441.272 352.546C441.272 352.546 440.683 354.833 440.489 355.812C440.295 356.79 439.848 361.622 439.848 361.622L439.601 362.971L435.531 385.239L434.643 390.078C433.078 391.063 429.161 388.438 429.161 388.438C424.596 389.018 418.967 385.664 418.967 385.664C418.967 385.664 419.891 382.23 419.679 380.516C419.467 378.802 420.961 377.405 420.961 377.405C420.608 375.853 421.885 369.065 421.885 369.065C421.885 369.065 422.173 366.534 423.243 365.88C424.314 365.225 423.102 364.247 422.814 363.666C422.713 363.167 422.748 362.644 422.914 362.168C423.007 361.791 423.117 361.419 423.243 361.055C420.526 357.937 420.108 353.065 420.102 350.359C420.095 349.699 420.121 349.039 420.179 348.382L426.061 347.201L438.913 344.624L440.225 349.253L440.554 350.413L441.272 352.546Z" fill="#CEDDF9"/>
<path opacity="0.1" d="M440.06 290.006C439.791 290.666 439.593 291.362 439.472 292.078C439.437 292.258 439.402 292.447 439.366 292.645C438.125 293.569 437.361 293.576 435.772 293.576C435.225 293.576 434.92 292.375 434.402 292.226C434.402 292.226 433.625 289.014 433.408 291.72C431.914 291.369 430.626 292.705 429.567 291.538C429.567 291.383 429.567 291.227 429.567 291.065C429.596 290.053 429.554 289.04 429.443 288.036C429.443 288.036 433.59 288.036 436.719 288.42C438.825 288.704 440.466 289.183 440.06 290.006Z" fill="black"/>
<path d="M443.001 284.499C442.999 285.85 442.736 287.184 442.231 288.404C441.725 289.624 440.989 290.7 440.077 291.554C439.165 292.408 438.099 293.019 436.955 293.343C435.812 293.667 434.62 293.696 433.466 293.427C432.165 293.119 430.952 292.442 429.938 291.457C428.924 290.472 428.141 289.211 427.662 287.789C427.183 286.367 427.023 284.83 427.196 283.318C427.369 281.807 427.87 280.37 428.653 279.138C429.436 277.906 430.475 276.919 431.677 276.268C432.878 275.617 434.203 275.322 435.529 275.41C436.856 275.499 438.142 275.967 439.269 276.774C440.397 277.58 441.33 278.698 441.984 280.026C442.659 281.389 443.009 282.932 443.001 284.499Z" fill="#D38884"/>
<path opacity="0.1" d="M438.654 298.819C438.596 299.575 438.566 300.061 438.566 300.061C438.566 300.061 425.808 299.082 428.02 296.626C428.59 295.948 428.996 295.11 429.196 294.197L434.731 295.236C434.731 295.236 436.296 296.626 437.507 297.935C437.852 298.289 438.238 298.586 438.654 298.819Z" fill="black"/>
<path opacity="0.1" d="M440.561 350.879C439.999 350.964 439.429 350.916 438.884 350.737C438.649 350.651 438.422 350.536 438.208 350.393C437.137 349.658 433.579 350.562 433.579 350.562C433.579 350.562 423.885 351.297 423.456 350.562C423.215 350.137 421.503 350.197 420.103 350.326C419.515 350.38 419.015 350.447 418.656 350.488C418.823 349.482 419.172 348.528 419.68 347.687L426.068 347.168L438.92 344.59L440.231 349.219C440.316 349.778 440.426 350.332 440.561 350.879Z" fill="black"/>
<path d="M434.713 295.728L427.761 294.419C427.638 294.733 427.457 295.013 427.231 295.239C427.004 295.465 426.737 295.632 426.449 295.728C425.526 295.971 421.391 298.427 419.538 301.369L417.685 304.318C417.685 304.318 416.185 306.444 416.685 308.158C417.185 309.872 417.756 315.682 417.756 315.682L418.467 322.139C418.467 322.139 419.82 326.802 419.397 328.847C418.973 330.891 419.608 339.475 419.608 339.475L418.185 350.103C418.185 350.103 423.026 349.367 423.479 350.103C423.932 350.838 433.602 350.103 433.602 350.103C433.602 350.103 437.131 349.199 438.231 349.934C438.95 350.379 439.774 350.552 440.583 350.427C440.583 350.427 439.731 347.053 440.225 345.197C440.719 343.341 440.583 339.88 440.583 339.88C440.583 339.88 441.295 334.893 440.936 333.996C440.578 333.098 441.725 329.825 441.725 329.825L445.501 307.017C445.501 307.017 445.042 302.928 443.025 301.538C441.007 300.148 438.731 299.736 437.519 298.434C436.307 297.132 434.713 295.728 434.713 295.728Z" fill="#4C4981"/>
<path d="M437.942 318.212V320.911L440.136 327.7L440.93 333.996C440.93 333.996 442.36 338.49 442.36 340.069C442.36 341.648 445.848 349.145 445.848 349.145C445.848 349.145 446.801 351.682 446.324 352.168C445.848 352.654 441.719 363.45 446.912 363.126C452.106 362.802 450.477 351.52 450.477 351.52L449.765 346.614C449.765 346.614 448.765 334.346 448.765 333.449C448.765 333.449 447.483 328.219 447.342 327.072C447.201 325.925 446.271 320.122 446.271 320.122L445.489 316.363L437.942 318.212Z" fill="#D38884"/>
<path opacity="0.1" d="M435.442 326.714L427.696 331.802L425.29 335.972L428.496 332.234L435.442 326.714Z" fill="black"/>
<path opacity="0.1" d="M433.096 336.458C433.096 336.458 429.567 339.097 427.908 339.097C426.25 339.097 422.403 343.632 422.403 343.632C422.403 343.632 427.855 339.583 428.285 339.711C428.714 339.839 433.096 336.458 433.096 336.458Z" fill="black"/>
<path opacity="0.1" d="M424.061 337.869C424.061 337.869 420.749 341.304 421.602 341.675C422.455 342.046 426.896 337.869 426.896 337.869H424.061Z" fill="black"/>
<path opacity="0.1" d="M438.707 325.608C438.707 325.608 436.143 329.596 436.837 329.535C437.531 329.475 439.507 327.2 439.507 327.2L438.707 325.608Z" fill="black"/>
<path opacity="0.1" d="M439.078 329.535C439.078 329.535 436.301 333.152 436.407 334.07C436.513 334.987 439.078 329.535 439.078 329.535Z" fill="black"/>
<path opacity="0.1" d="M439.777 331.344C439.777 331.344 437.907 335.177 438.707 335.973C439.507 336.769 439.777 331.344 439.777 331.344Z" fill="black"/>
<path opacity="0.1" d="M437.354 321.499C437.354 321.499 435.96 324.198 436.978 324.38C437.995 324.562 438.095 324.38 438.095 324.38L437.354 321.499Z" fill="black"/>
<path opacity="0.1" d="M437.742 311.626C437.395 313.276 436.918 314.886 436.319 316.437C436.095 315.647 435.911 314.842 435.766 314.028C436.352 313.153 437.014 312.349 437.742 311.626Z" fill="black"/>
<path opacity="0.1" d="M441.984 280.025C441.846 280.37 441.665 280.691 441.448 280.977C441.084 281.354 440.76 281.78 440.484 282.246C440.266 282.941 440.149 283.673 440.137 284.412C440.031 285.14 439.631 285.95 438.96 285.97C438.63 285.938 438.31 285.828 438.019 285.646C437.874 285.56 437.711 285.518 437.548 285.524C437.384 285.529 437.224 285.583 437.084 285.68C436.898 285.897 436.791 286.186 436.784 286.49C436.703 287.124 436.671 287.766 436.69 288.406C436.69 288.663 436.69 288.912 436.725 289.169C436.889 289.975 436.846 290.819 436.602 291.598C436.295 292.162 435.83 292.59 435.284 292.813C434.691 293.093 434.071 293.293 433.437 293.407C432.229 293.577 431.011 293.622 429.796 293.541C429.684 293.545 429.572 293.524 429.467 293.481C429.415 293.457 429.367 293.423 429.326 293.38C429.46 292.613 429.533 291.834 429.543 291.052C428.727 290.142 428.09 289.042 427.677 287.826C427.263 286.609 427.082 285.305 427.146 284.002C427.211 282.698 427.518 281.426 428.048 280.271C428.579 279.116 429.319 278.105 430.22 277.307C431.12 276.508 432.16 275.942 433.268 275.645C434.376 275.348 435.527 275.327 436.643 275.585C437.758 275.843 438.813 276.373 439.734 277.139C440.655 277.905 441.423 278.889 441.984 280.025Z" fill="black"/>
<path d="M438.666 272.313C437.937 272.225 437.249 272.671 436.531 272.853C435.055 273.224 433.543 272.455 432.025 272.462C430.721 272.547 429.452 272.981 428.32 273.73C427.404 274.226 426.569 274.897 425.849 275.714C425.127 276.544 424.706 277.659 424.673 278.832C424.773 279.504 424.755 280.192 424.62 280.856C424.467 281.191 424.286 281.507 424.079 281.801C423.891 282.147 423.771 282.535 423.728 282.939C423.684 283.344 423.717 283.754 423.826 284.142C424.13 284.911 424.541 285.617 425.044 286.234C426.02 287.671 426.632 289.392 427.508 290.917C427.89 291.579 428.319 292.204 428.79 292.786C428.867 292.889 428.961 292.974 429.067 293.036C429.171 293.078 429.28 293.096 429.39 293.09C431.249 293.151 433.172 293.198 434.884 292.361C435.432 292.143 435.898 291.714 436.202 291.147C436.448 290.368 436.493 289.524 436.331 288.717C436.253 287.818 436.271 286.912 436.384 286.018C436.391 285.716 436.499 285.429 436.684 285.215C436.824 285.115 436.985 285.059 437.151 285.054C437.316 285.048 437.479 285.092 437.625 285.181C437.916 285.357 438.233 285.467 438.56 285.505C439.201 285.505 439.607 284.669 439.737 283.94C439.666 283.285 439.75 282.62 439.981 282.016C440.212 281.411 440.581 280.889 441.048 280.505C441.489 279.864 441.791 279.112 441.932 278.311C442.072 277.51 442.045 276.683 441.854 275.896C441.431 274.378 440.137 272.482 438.666 272.313Z" fill="#1E1637"/>
<path opacity="0.1" d="M446.295 311.066C446.138 312.184 446.138 313.323 446.295 314.44C446.225 315.345 446.295 320.331 446.295 320.331C443.942 319.508 437.96 321.148 437.96 321.148L437.249 318.698C436.842 318.094 436.539 317.407 436.355 316.674C436.131 315.881 435.947 315.075 435.802 314.258C435.491 312.562 435.257 310.848 435.102 309.123C434.802 306.525 438.172 303.725 440.725 302.173C443.278 300.621 445.513 307.24 445.513 307.24C445.513 307.24 446.577 309.784 446.295 311.066Z" fill="black"/>
<path d="M446.295 310.6C446.139 311.718 446.139 312.857 446.295 313.974C446.225 314.872 446.295 319.858 446.295 319.858C443.942 319.042 437.96 320.675 437.96 320.675L437.249 318.225C436.841 317.622 436.538 316.935 436.355 316.201C436.131 315.411 435.947 314.606 435.802 313.792C435.492 312.095 435.258 310.381 435.102 308.657C434.802 306.052 438.172 303.259 440.725 301.7C443.278 300.141 445.513 306.768 445.513 306.768C445.513 306.768 446.577 309.291 446.295 310.6Z" fill="#4C4981"/>
<path opacity="0.2" d="M441.771 275.896C441.649 275.432 441.473 274.99 441.248 274.58C441.283 274.695 441.319 274.803 441.348 274.917C441.539 275.704 441.565 276.532 441.425 277.332C441.285 278.133 440.983 278.885 440.542 279.526C440.075 279.911 439.706 280.433 439.475 281.037C439.244 281.641 439.16 282.306 439.23 282.961C439.13 283.69 438.725 284.493 438.054 284.52C437.724 284.488 437.404 284.378 437.113 284.196C436.968 284.109 436.805 284.067 436.642 284.073C436.478 284.079 436.318 284.133 436.178 284.23C435.992 284.446 435.885 284.736 435.878 285.039C435.764 285.933 435.746 286.84 435.825 287.739C435.889 288.562 436.031 289.446 435.695 290.175C435.385 290.736 434.922 291.163 434.378 291.389C432.666 292.226 430.743 292.179 428.884 292.118C428.774 292.122 428.664 292.101 428.561 292.057C428.453 292 428.358 291.915 428.284 291.808C427.808 291.23 427.379 290.605 427.002 289.938C426.125 288.413 425.514 286.699 424.537 285.255C424.273 284.864 423.949 284.479 423.731 284.068V284.149C424.031 284.92 424.443 285.627 424.949 286.241C425.92 287.678 426.537 289.399 427.408 290.924C427.79 291.587 428.221 292.213 428.696 292.793C428.771 292.896 428.863 292.981 428.966 293.042C429.07 293.084 429.18 293.102 429.29 293.096C431.149 293.157 433.078 293.204 434.784 292.368C435.332 292.15 435.798 291.72 436.101 291.153C436.348 290.375 436.393 289.531 436.231 288.724C436.159 287.825 436.176 286.919 436.284 286.025C436.296 285.724 436.403 285.439 436.584 285.222C436.724 285.122 436.885 285.066 437.05 285.06C437.215 285.054 437.379 285.098 437.525 285.188C437.815 285.364 438.133 285.474 438.46 285.512C439.107 285.512 439.507 284.675 439.636 283.946C439.646 283.207 439.763 282.475 439.983 281.78C440.258 281.313 440.582 280.887 440.948 280.512C441.392 279.871 441.697 279.119 441.841 278.317C441.984 277.515 441.96 276.685 441.771 275.896Z" fill="black"/>
<path d="M499.115 277.671L494.033 290.06C494.033 290.06 493.286 292.388 492.803 292.82C492.321 293.252 490.186 300.607 490.186 300.607L484.733 310.243L484.363 310.918L482.227 310.243L480.728 303.819L480.816 301.956V301.72C480.816 301.72 484.18 297.672 484.933 297.368C484.933 297.368 485.521 297.449 486.639 294.311C487.757 291.173 488.78 290.499 488.78 290.499L489.368 288.231L495.68 276.699C495.68 276.699 500.973 268.001 502.414 271.861C503.856 275.721 499.115 277.671 499.115 277.671Z" fill="#FFD2C6"/>
<path d="M478.011 365.677C477.994 365.888 477.936 366.091 477.84 366.271C477.252 367.256 473.941 387.305 473.941 387.305C474.205 388.654 473.458 391.353 472.976 392.581C472.494 393.81 471.423 400.18 471.423 400.18C471.423 400.18 471.158 413.918 470.47 416.064C469.782 418.21 470.688 422.812 470.688 422.812C470.623 424.924 471.729 427.165 472.388 428.298L472.517 428.514C472.729 428.865 472.87 429.067 472.87 429.067C473.051 429.477 473.306 429.838 473.617 430.127L473.77 430.262C474.679 430.959 475.695 431.451 476.764 431.713H476.87C477.293 431.821 477.576 431.868 477.576 431.868L477.84 433.528L475.011 434.203L469.612 434.628C469.612 434.628 463.247 435.188 464.694 431.929C464.794 431.711 464.881 431.486 464.953 431.254C465.009 431.095 465.058 430.933 465.1 430.768C465.971 427.644 465.382 423.845 465.382 423.845L464.153 412.751C462.124 402.447 465.747 390.982 465.747 390.982C465.747 390.982 465.435 390.064 466.129 387.736C466.823 385.408 466.129 380.314 466.129 380.314C466.129 380.314 465.759 373.755 465.276 370.509C465.086 369.142 465.021 367.755 465.082 366.373C465.106 365.564 465.17 364.757 465.276 363.957L477.458 362.101C477.458 362.101 478.158 364.375 478.011 365.677Z" fill="#FFD2C6"/>
<path opacity="0.1" d="M477.84 433.541L475.011 434.216L469.611 434.641C469.611 434.641 463.247 435.201 464.694 431.942C464.794 431.725 464.881 431.499 464.953 431.267C465.009 431.108 465.058 430.946 465.1 430.781C466.203 430.823 467.292 431.074 468.323 431.524C470.135 432.327 471.499 430.235 471.499 430.235L472.382 428.305L472.511 428.028C472.723 428.379 472.864 428.582 472.864 428.582C473.077 429.056 473.386 429.465 473.764 429.776L473.611 430.134L472.758 432.199C472.758 432.199 473.852 432.327 475.346 432.603C475.635 432.689 475.942 432.646 476.204 432.481C476.466 432.317 476.664 432.045 476.758 431.719H476.864C477.287 431.827 477.57 431.875 477.57 431.875L477.84 433.541Z" fill="black"/>
<path d="M480.457 435.066C480.246 436.173 474.287 436.51 474.287 436.51C474.287 436.51 470.97 436.146 470.04 437.03C469.111 437.914 466.376 437.705 466.27 437.705C466.164 437.705 464.723 437.644 464.158 434.675C463.594 431.706 464.894 431.301 464.952 431.254C466.106 431.273 467.247 431.527 468.323 432.003C470.135 432.806 471.499 430.714 471.499 430.714L472.511 428.507C472.723 428.858 472.864 429.061 472.864 429.061C473.077 429.535 473.386 429.944 473.764 430.255L472.758 432.678C472.758 432.678 473.852 432.806 475.346 433.076C475.525 433.123 475.711 433.124 475.89 433.078C476.07 433.033 476.238 432.942 476.383 432.813C476.528 432.684 476.647 432.519 476.73 432.331C476.813 432.144 476.859 431.937 476.863 431.726C476.866 431.665 476.866 431.605 476.863 431.544C476.863 431.544 477.793 431.854 478.946 432.219C479.463 432.39 479.905 432.777 480.185 433.304C480.465 433.832 480.562 434.461 480.457 435.066Z" fill="#626696"/>
<path d="M491.687 380.293C491.545 381.272 491.398 383.809 491.398 383.809C491.898 385.935 490.616 390.982 490.616 390.982L489.975 393.863C490.257 397.541 488.21 406.536 488.21 406.536C488.21 406.536 486.84 414.876 486.128 418.473C485.702 420.472 485.832 422.575 486.499 424.485L486.552 424.634C486.552 424.701 486.581 424.769 486.593 424.836C486.614 424.935 486.642 425.032 486.675 425.127C486.834 425.622 487.072 426.079 487.375 426.476C487.492 426.638 487.62 426.789 487.757 426.928C488.428 427.61 489.196 428.153 490.028 428.534L490.387 428.696C490.759 428.854 491.137 428.989 491.522 429.101H491.651L491.363 431.031L487.587 429.918L482.528 428.035L480.076 426.456C480.076 426.456 480.076 426.301 480.152 426.004C480.155 425.986 480.155 425.968 480.152 425.95C480.152 425.822 480.199 425.673 480.229 425.498C480.617 422.967 481.581 415.889 481.099 410.652C480.511 404.194 482.864 395.28 483.411 393.162C483.751 391.947 483.896 390.671 483.84 389.396C482.911 387.844 482.699 381.629 482.699 381.629C482.699 381.629 480.987 377.621 479.576 373.37C479.105 371.982 478.764 370.541 478.558 369.072C478.391 368.037 478.322 366.985 478.352 365.934C478.352 365.934 489.828 353.916 491.087 365.549C491.128 365.947 491.169 366.318 491.21 366.69C492.328 377.385 491.822 379.342 491.687 380.293Z" fill="#FFD2C6"/>
<path opacity="0.1" d="M491.687 429.155L491.398 431.085L487.622 429.971L482.564 428.088L480.076 426.456C480.076 426.456 480.076 426.3 480.152 426.003C480.155 425.986 480.155 425.967 480.152 425.949C480.152 425.821 480.199 425.673 480.229 425.497H480.582C481.3 425.417 482.025 425.531 482.699 425.828C483.523 426.179 484.605 426.584 484.822 426.415C485.204 426.227 485.619 426.144 486.034 426.172L486.558 424.823L486.64 424.62C486.798 425.116 487.035 425.574 487.34 425.97C487.466 426.139 487.602 426.299 487.746 426.449V426.914L487.716 427.589C488.281 428.002 488.893 428.324 489.534 428.547C489.7 428.595 489.874 428.595 490.04 428.547L490.398 428.709C490.77 428.867 491.149 429.003 491.534 429.114L491.687 429.155Z" fill="black"/>
<path d="M489.792 433.291C488.739 432.947 486.198 432.387 485.786 432.819C485.375 433.251 481.851 432.819 481.851 432.819C481.482 432.812 481.121 432.696 480.803 432.482C480.484 432.268 480.219 431.964 480.034 431.598C479.299 430.289 479.893 426.058 479.893 426.058H480.152L480.587 426.004C481.305 425.924 482.029 426.035 482.704 426.327C483.528 426.685 484.61 427.09 484.828 426.921C485.209 426.729 485.624 426.644 486.039 426.672L486.628 425.153C486.787 425.649 487.024 426.106 487.328 426.503C487.452 426.672 487.588 426.83 487.733 426.975L487.68 428.102C488.246 428.515 488.857 428.84 489.498 429.067C489.653 429.135 489.823 429.14 489.981 429.082C490.139 429.025 490.276 428.908 490.369 428.75C490.396 428.697 490.417 428.64 490.433 428.581C490.909 428.839 491.411 429.029 491.927 429.148C492.588 429.069 493.252 429.269 493.793 429.712C494.335 430.154 494.717 430.808 494.868 431.55C495.427 433.433 490.845 433.636 489.792 433.291Z" fill="#626696"/>
<path opacity="0.1" d="M478.011 365.677L477.358 365.907C476.845 366.086 476.32 366.212 475.788 366.285C472.411 366.831 466.853 366.501 465.088 366.373C465.112 365.564 465.176 364.757 465.282 363.957L477.464 362.101C477.464 362.101 478.158 364.375 478.011 365.677Z" fill="black"/>
<path d="M488.639 362.283C488.639 362.283 484.169 363.079 480.528 363.99C479.316 364.294 478.175 364.617 477.357 364.921C476.844 365.099 476.319 365.228 475.787 365.306C471.734 365.981 464.535 365.353 464.535 365.353C462.558 357.998 466.934 348.733 466.934 348.733C466.834 347.997 467.846 345.737 467.846 345.737V345.663L468.47 343.038H485.086L485.292 344.164L485.715 346.459L488.327 360.677L488.639 362.283Z" fill="#032B4D"/>
<path opacity="0.1" d="M491.216 366.743L491.116 366.791L489.169 367.782C487.063 368.896 480.764 369.132 478.581 369.132C478.414 368.098 478.345 367.046 478.376 365.994C478.376 365.994 489.851 353.976 491.11 365.61C491.134 366.001 491.175 366.399 491.216 366.743Z" fill="black"/>
<path d="M491.522 365.603L491.116 365.812L489.169 366.804C487.028 367.937 480.522 368.153 478.44 368.153H477.893C476.934 368.12 475.97 367.087 475.97 366.804C475.97 366.655 475.87 365.927 475.787 365.306C475.711 364.806 475.652 364.375 475.652 364.375C473.419 363.272 471.257 361.989 469.182 360.535C467.553 359.26 467.964 350.197 468.276 345.642C468.388 344.07 468.488 343.038 468.488 343.038L485.31 344.164L487.663 344.32L489.01 344.664L489.369 344.752C489.369 344.752 490.34 352.849 490.816 353.524C491.292 354.199 490.981 356.466 490.922 357.762C490.921 358.318 490.868 358.872 490.763 359.415C490.763 359.415 491.457 361.682 491.298 362.951C491.225 363.843 491.301 364.743 491.522 365.603Z" fill="#032B4D"/>
<path d="M473.511 298.401C477.319 298.401 480.405 294.86 480.405 290.492C480.405 286.124 477.319 282.583 473.511 282.583C469.704 282.583 466.618 286.124 466.618 290.492C466.618 294.86 469.704 298.401 473.511 298.401Z" fill="#FFD2C6"/>
<path d="M470.147 293.785C470.147 293.785 470.623 301.275 469.288 302.995C467.762 304.748 466.156 306.406 464.477 307.962L465.547 313.05L471.588 313.846L478.646 305.202L477.04 302.968C477.04 302.968 475.811 298.184 476.823 295.795C477.835 293.407 470.147 293.785 470.147 293.785Z" fill="#FFD2C6"/>
<path opacity="0.1" d="M484.733 310.243L484.363 310.918L482.227 310.243L480.728 303.819L480.816 301.956L481.257 301.228C481.257 301.228 483.61 301.288 483.51 303.744C483.41 305.89 484.48 309.426 484.733 310.243Z" fill="black"/>
<path opacity="0.1" d="M489.381 345.737C489.381 345.737 487.681 346.169 485.734 346.459C483.787 346.749 481.54 346.904 480.616 346.284C479.069 345.231 470.688 345.535 468.264 345.642H467.853L468.476 343.018H485.093L485.298 344.144L487.651 344.3L488.998 344.644C489.245 345.305 489.381 345.737 489.381 345.737Z" fill="black"/>
<path d="M480.834 301.707C480.834 301.707 483.187 301.767 483.081 304.224C482.975 306.68 484.363 310.904 484.363 310.904L483.828 312.314C483.828 312.314 483.081 315.749 483.669 316.606C484.257 317.463 486.392 317.463 485.163 324.515C485.163 324.515 484.898 329.791 485.539 331.505C486.181 333.219 486.181 337.329 487.139 339.05C488.015 340.881 488.766 342.788 489.386 344.752C489.386 344.752 482.44 346.526 480.622 345.305C478.805 344.084 467.635 344.691 467.635 344.691C467.635 344.691 467.688 342.545 467.635 342.295C467.583 342.029 467.58 341.752 467.625 341.484C467.671 341.216 467.764 340.961 467.9 340.737C468.276 340.15 468.864 339.171 468.541 338.314C468.217 337.457 469.341 336.188 468.752 334.859C468.164 333.53 467.453 333.267 467.576 332.538C467.608 332.12 467.566 331.699 467.452 331.3C467.339 330.902 467.157 330.533 466.917 330.217C466.494 329.602 463.606 323.124 463.606 323.124L463.123 320.101C463.123 320.101 459.406 316.977 459.477 315.506C459.547 314.035 460.882 311.99 460.882 311.99L464.459 307.942C464.459 307.942 466.441 310.391 468.364 309.534C470.288 308.677 474.423 304.568 474.423 304.568C474.423 304.568 475.899 303.65 476.005 302.975C476.111 302.3 477.022 302.914 477.022 302.914C477.022 302.914 478.358 302.071 478.622 302.368C479.076 302.639 479.564 302.824 480.069 302.914L480.834 301.707Z" fill="#FF4365"/>
<path d="M460.63 314.48L459.494 315.506C458.632 317.6 458.145 319.872 458.065 322.187C457.764 325.667 457.283 329.123 456.624 332.538L454.377 337.147C454.377 337.147 450.689 346.034 450.207 348.396C449.724 350.757 447.536 354.745 447.536 354.745C447.536 354.745 440.107 362.404 445.289 363.788C450.471 365.171 450.636 357.714 450.636 357.714C450.636 357.714 451.812 356.183 452.042 355.137C452.271 354.091 458.812 340.757 458.812 340.757C458.812 340.757 461.112 337.167 460.63 335.264C460.63 335.264 463.623 327.167 463.623 325.142C463.568 323.449 463.407 321.762 463.141 320.095L463.623 315.864L460.63 314.48Z" fill="#FFD2C6"/>
<path opacity="0.1" d="M476.022 331.384C476.022 331.384 470.787 334.529 469.77 334.697C468.752 334.866 474.205 334.023 474.205 334.023L476.022 331.384Z" fill="black"/>
<path opacity="0.1" d="M480.293 333.833C480.293 333.833 473.346 336.533 470.293 336.047C470.293 336.033 477.893 337.7 480.293 333.833Z" fill="black"/>
<path opacity="0.1" d="M480.728 334.718C480.728 334.718 474.469 339.232 470.787 338.497C470.787 338.497 479.392 340.46 480.728 339.414L476.881 338.193C476.881 338.193 481.151 335.595 480.728 334.718Z" fill="black"/>
<path opacity="0.1" d="M473.522 276.571C472.62 276.316 471.681 276.286 470.768 276.483C469.855 276.679 468.989 277.098 468.229 277.711C467.158 278.676 466.464 280.154 465.241 280.876C464.605 281.187 463.953 281.451 463.288 281.665C462.117 282.215 461.14 283.201 460.516 284.464C459.892 285.727 459.656 287.194 459.847 288.629C460.035 289.844 460.529 290.964 460.776 292.165C461.212 294.304 460.823 296.544 460.353 298.677C459.036 304.589 457.038 310.274 454.412 315.58C454.205 315.909 454.101 316.309 454.118 316.714C454.184 316.986 454.31 317.235 454.483 317.436C456.953 320.709 460.953 321.836 464.747 321.984C466.139 322.142 467.544 321.874 468.817 321.208C469.603 320.689 470.28 319.977 470.799 319.123C472.112 317.063 472.764 314.546 472.646 311.997C472.546 309.939 471.946 307.861 472.399 305.87C472.444 305.592 472.554 305.333 472.717 305.121C473.123 304.642 473.799 304.77 474.375 304.689C475.946 304.48 476.958 302.584 477.146 300.782C477.334 298.98 476.94 297.172 476.928 295.384C476.922 292.99 477.575 290.654 478.793 288.71C479.316 287.887 479.969 287.077 480.157 286.045C480.381 284.749 479.728 283.798 479.163 282.779C478.287 281.186 477.858 279.33 476.522 278.116C475.641 277.339 474.614 276.81 473.522 276.571Z" fill="black"/>
<path d="M473.093 276.078C472.197 275.827 471.263 275.799 470.356 275.995C469.449 276.192 468.59 276.609 467.835 277.219C466.764 278.19 466.07 279.668 464.841 280.39C464.204 280.696 463.552 280.957 462.888 281.173C461.719 281.722 460.744 282.705 460.12 283.966C459.496 285.226 459.259 286.69 459.447 288.123C459.635 289.338 460.129 290.458 460.376 291.659C460.812 293.798 460.429 296.039 459.953 298.171C458.637 304.072 456.641 309.745 454.018 315.041C453.807 315.367 453.703 315.769 453.724 316.174C453.784 316.448 453.908 316.697 454.083 316.896C456.553 320.176 460.553 321.296 464.347 321.444C465.739 321.602 467.143 321.337 468.417 320.675C469.203 320.152 469.879 319.438 470.399 318.583C471.709 316.522 472.36 314.005 472.24 311.458C472.135 309.433 471.535 307.321 471.987 305.33C472.037 305.054 472.147 304.797 472.305 304.581C472.717 304.102 473.387 304.23 473.97 304.156C475.534 303.947 476.546 302.044 476.734 300.249C476.922 298.454 476.528 296.639 476.523 294.851C476.514 292.458 477.166 290.124 478.387 288.184C478.905 287.354 479.563 286.544 479.752 285.485C479.969 284.189 479.316 283.244 478.752 282.219C477.875 280.633 477.446 278.771 476.111 277.556C475.219 276.801 474.186 276.295 473.093 276.078Z" fill="#985C7E"/>
<path opacity="0.1" d="M470.787 352.741C470.787 352.741 472.158 360.103 474.44 362.101L470.787 352.741Z" fill="black"/>
<g opacity="0.1">
<path opacity="0.1" d="M459.853 289.784C459.782 289.5 459.7 289.21 459.612 288.927C459.706 289.217 459.765 289.473 459.853 289.784Z" fill="black"/>
<path opacity="0.1" d="M479.352 283.4C479.376 283.624 479.376 283.851 479.352 284.075C479.175 285.107 478.51 285.917 477.987 286.74C476.77 288.685 476.118 291.02 476.122 293.414C476.122 295.229 476.522 297.037 476.334 298.812C476.146 300.587 475.158 302.51 473.57 302.712C472.981 302.793 472.317 302.665 471.911 303.144C471.751 303.359 471.639 303.617 471.587 303.893C471.135 305.884 471.74 307.942 471.84 310.02C471.95 312.57 471.289 315.084 469.97 317.14C469.453 317.995 468.775 318.707 467.988 319.225C466.717 319.891 465.314 320.159 463.923 320.001C460.212 319.859 456.277 318.759 453.783 315.608C453.717 315.796 453.696 316.001 453.724 316.202C453.784 316.475 453.908 316.725 454.083 316.924C456.553 320.203 460.553 321.323 464.347 321.472C465.739 321.63 467.143 321.364 468.417 320.702C469.203 320.179 469.879 319.465 470.399 318.611C471.709 316.549 472.36 314.032 472.24 311.485C472.134 309.46 471.534 307.348 471.987 305.358C472.037 305.082 472.146 304.824 472.305 304.609C472.717 304.13 473.387 304.258 473.97 304.184C475.534 303.974 476.546 302.071 476.734 300.276C476.922 298.482 476.528 296.666 476.522 294.878C476.514 292.485 477.166 290.151 478.387 288.211C478.905 287.381 479.563 286.571 479.752 285.512C479.849 284.776 479.707 284.024 479.352 283.4Z" fill="black"/>
</g>
<path opacity="0.1" d="M173.983 457.908C180.857 457.908 186.43 457.261 186.43 456.464C186.43 455.666 180.857 455.02 173.983 455.02C167.109 455.02 161.537 455.666 161.537 456.464C161.537 457.261 167.109 457.908 173.983 457.908Z" fill="#6C63FF"/>
<path d="M194.329 449.716C196.029 450.87 198.688 451.619 202.035 449.142L201.999 454.615C202.24 458.373 206.281 472.045 206.281 472.045L209.134 483.3C211.18 491.248 212.238 499.488 212.275 507.775C212.202 510.384 212.51 512.989 213.187 515.481C214.704 520.204 212.599 526.278 211.669 528.525C209.975 529.199 208.228 529.706 206.964 530.043C206.82 530.081 206.678 530.131 206.54 530.191V530.158C206.54 530.158 202.258 532.108 200.352 531.838C198.935 531.635 198.047 533.667 199.176 535.158C198.253 535.484 197.288 535.63 196.323 535.59C194.417 535.32 193.47 539.078 197.035 540.151C200.599 541.224 220.833 540.151 220.833 540.151C221.403 539.825 221.862 539.29 222.138 538.632C222.413 537.973 222.49 537.228 222.357 536.514C223.91 536.447 224.88 536.393 224.88 536.393C224.88 536.393 228.45 534.517 224.88 529.422L224.692 529.591L223.927 527.013V523.524C223.927 523.524 228.45 498.557 227.021 495.642C225.592 492.727 224.88 477.679 224.88 477.679L225.357 461.322C226.645 458.265 227.309 453.481 227.645 449.736C228.129 447.948 228.435 446.103 228.556 444.236C228.609 443.359 228.656 442.435 228.686 441.477C228.705 439.377 228.412 437.289 227.821 435.302C229.43 432.55 231.232 429.952 233.209 427.535C234.031 426.659 234.655 425.567 235.028 424.353C235.401 423.138 235.511 421.839 235.35 420.565L234.174 411.448L231.315 395.928C231.674 391.609 230.891 389.126 230.021 387.723C230.227 386.333 230.421 384.936 230.568 383.539C231.2 377.456 230.918 371.293 229.733 365.319C229.321 363.234 228.756 361.095 227.486 359.516C226.039 357.728 223.698 356.635 223.163 354.293C223.08 353.7 222.97 353.112 222.833 352.532C222.31 350.994 220.657 350.44 219.21 350.238C216.634 349.88 212.91 349.604 210.434 350.764C208.711 351.581 206.317 353.808 205.381 356.203C204.818 357.201 204.607 358.407 204.793 359.577C204.883 359.977 205.022 360.361 205.205 360.717C204.823 361.866 204.624 363.084 204.617 364.314C204.626 366.415 205.187 368.464 206.225 370.195C207.264 371.926 208.732 373.258 210.44 374.018C210.493 374.22 210.546 374.422 210.593 374.625C210.7 375.104 210.777 375.591 210.822 376.082C210.781 377.034 210.728 377.985 210.687 378.93C210.664 379.06 210.635 379.189 210.599 379.315C208.55 380.355 206.553 381.524 204.617 382.817C206.046 385.226 204.381 395.415 204.381 395.415C200.811 397.831 197.241 403.999 201.046 410.429C204.852 416.86 202.711 423.756 202.711 423.756L202.123 434.243L202.005 436.335H202.052L202.005 437.131H202.105V437.988C200.429 438.663 197.988 440.107 196.535 442.711C195.844 444.004 195.005 445.184 194.041 446.22C193.805 446.439 193.62 446.721 193.502 447.041C193.385 447.362 193.338 447.711 193.367 448.057C193.395 448.403 193.498 448.736 193.666 449.025C193.834 449.315 194.062 449.552 194.329 449.716ZM223.063 421.86C222.92 420.048 223.213 418.225 223.91 416.59C224.468 416.59 225.033 416.59 225.592 416.59C225.651 417.042 225.715 417.474 225.798 417.866C226.28 420.254 224.351 421.381 223.063 421.86Z" fill="url(#paint0_linear)"/>
<path d="M223.533 525.785L224.451 528.936L221.486 532.351L211.64 534.976L204.54 534.186L204.999 531.298C205.134 530.677 205.416 530.111 205.813 529.662C206.211 529.213 206.708 528.899 207.252 528.754C210.193 527.965 215.733 526.176 216.904 523.68L223.533 525.785Z" fill="#DB8B8B"/>
<path opacity="0.1" d="M223.533 525.785L224.451 528.936L221.486 532.351L211.64 534.976L204.54 534.186L204.999 531.298C205.134 530.677 205.416 530.111 205.813 529.662C206.211 529.213 206.708 528.899 207.252 528.754C210.193 527.965 215.733 526.176 216.904 523.68L223.533 525.785Z" fill="black"/>
<path d="M206.817 533.404L208.193 531.298L206.817 528.869C206.817 528.869 202.699 530.772 200.864 530.509C199.029 530.246 198.117 533.93 201.552 534.976C204.987 536.022 224.451 534.976 224.451 534.976C224.451 534.976 227.886 533.14 224.451 528.147L221.486 530.772C221.486 530.772 216.445 533.93 213.928 533.404H206.817Z" fill="#2E3037"/>
<path d="M200.634 537.87L207.734 538.653L217.58 536.028L220.557 532.614L220.315 531.777L219.974 530.603L219.645 529.462L213.004 527.357C212.667 527.988 212.206 528.52 211.657 528.909C209.498 530.596 205.622 531.817 203.352 532.431L203.064 532.526C202.622 532.691 202.22 532.971 201.887 533.342C201.488 533.789 201.205 534.355 201.07 534.975L200.634 537.87Z" fill="#DB8B8B"/>
<path opacity="0.1" d="M200.634 537.871L207.734 538.653L217.58 536.029L220.557 532.614L220.315 531.777L217.58 534.186C217.58 534.186 212.545 537.344 210.022 536.818H202.928L204.299 534.713L203.064 532.526C202.622 532.692 202.22 532.971 201.887 533.343C201.488 533.79 201.205 534.355 201.07 534.976L200.634 537.871Z" fill="black"/>
<path d="M202.929 537.081L204.299 534.976L202.929 532.547C202.929 532.547 198.811 534.45 196.97 534.186C195.129 533.923 194.223 537.608 197.658 538.654C201.094 539.699 220.557 538.654 220.557 538.654C220.557 538.654 223.992 536.818 220.557 531.825L217.581 534.423C217.581 534.423 212.546 537.581 210.022 537.054L202.929 537.081Z" fill="#2E3037"/>
<path d="M208.651 384.713C208.651 384.713 219.645 386.022 218.063 380.773C217.616 379.281 217.499 377.686 217.721 376.13C218.009 374.202 218.674 372.375 219.668 370.786L209.363 372.628C209.978 373.812 210.447 375.088 210.757 376.42C211.963 381.994 208.651 384.713 208.651 384.713Z" fill="#DB8B8B"/>
<path d="M227.427 444.607C227.427 444.607 227.198 455.903 224.91 461.423L224.427 477.443C224.427 477.443 225.116 492.153 226.486 495.048C227.857 497.943 223.51 522.371 223.51 522.371V526.568C223.51 526.568 216.187 529.726 214.099 526.048L216.193 494.785L215.293 451.423L227.427 444.607Z" fill="#474463"/>
<path opacity="0.1" d="M227.427 444.607C227.427 444.607 227.198 455.903 224.91 461.423L224.427 477.443C224.427 477.443 225.116 492.153 226.486 495.048C227.857 497.943 223.51 522.371 223.51 522.371V526.568C223.51 526.568 216.187 529.726 214.099 526.048L216.193 494.785L215.293 451.423L227.427 444.607Z" fill="black"/>
<path d="M232.009 408.351L233.379 412.555L234.526 421.489C234.682 422.733 234.576 424.002 234.218 425.189C233.86 426.377 233.26 427.45 232.468 428.318C229.721 431.469 226.056 438.041 226.056 438.041L221.704 423.081C221.704 423.081 226.056 422.292 225.368 418.877C224.68 415.463 224.909 409.154 224.909 409.154L232.009 408.351Z" fill="#FC6681"/>
<path opacity="0.05" d="M232.009 408.351L233.379 412.555L234.526 421.489C234.682 422.733 234.576 424.002 234.218 425.189C233.86 426.377 233.26 427.45 232.468 428.318C229.721 431.469 226.056 438.041 226.056 438.041L221.704 423.081C221.704 423.081 226.056 422.292 225.368 418.877C224.68 415.463 224.909 409.154 224.909 409.154L232.009 408.351Z" fill="#FF4365"/>
<path opacity="0.1" d="M211.657 528.909C214.598 534.213 219.163 531.203 219.974 530.603L219.645 529.462L213.004 527.357C212.667 527.988 212.206 528.52 211.657 528.909Z" fill="black"/>
<path d="M202.47 454.851C202.7 458.529 206.588 471.93 206.588 471.93L209.334 482.956C211.306 490.751 212.321 498.822 212.352 506.938C212.294 509.495 212.598 512.045 213.252 514.489C215.087 520.265 211.423 528.147 211.423 528.147C214.628 534.713 220.122 530.252 220.122 530.252V526.048C220.122 526.048 224.475 503.193 223.328 498.726C222.181 494.259 221.728 482.173 221.728 482.173V460.371C225.386 456.169 227.607 450.598 227.986 444.675C228.045 443.818 228.086 442.914 228.116 441.976C228.304 436.045 224.769 429.101 223.41 426.618C223.081 426.024 222.875 425.687 222.875 425.687L202.629 434.891H202.582V435.788V437.779L202.47 454.851Z" fill="#474463"/>
<path opacity="0.1" d="M209.34 372.628C209.955 373.812 210.424 375.088 210.734 376.42C211.852 376.911 213.045 377.138 214.242 377.088C215.438 377.039 216.614 376.713 217.698 376.13C217.985 374.202 218.651 372.375 219.645 370.786L209.34 372.628Z" fill="black"/>
<path d="M213.916 376.568C218.847 376.568 222.844 371.982 222.844 366.325C222.844 360.668 218.847 356.082 213.916 356.082C208.984 356.082 204.987 360.668 204.987 366.325C204.987 371.982 208.984 376.568 213.916 376.568Z" fill="#DB8B8B"/>
<path opacity="0.1" d="M202.47 437.779H202.564C212.17 440.039 224.222 428.561 224.222 428.561C223.9 427.934 223.62 427.28 223.386 426.604C223.057 426.01 222.851 425.673 222.851 425.673L202.629 434.89L202.576 435.808L202.47 437.779Z" fill="black"/>
<path d="M205.017 384.45C205.017 384.45 217.839 375.516 221.963 379.193L227.686 387.601C227.686 387.601 231.35 388.91 230.662 397.318L233.409 412.555L225.174 414.923C225.174 414.923 220.31 420.173 224.221 427.805C224.221 427.805 212.087 439.364 202.458 437.003L203.14 424.654C203.14 424.654 205.205 417.825 201.54 411.522C197.876 405.22 201.311 399.174 204.746 396.805C204.758 396.765 206.364 386.812 205.017 384.45Z" fill="#FF4365"/>
<path d="M204.299 438.042C204.299 438.042 199.494 439.088 197.2 443.292C196.541 444.556 195.736 445.712 194.806 446.727C194.596 446.945 194.434 447.216 194.333 447.519C194.231 447.822 194.192 448.148 194.219 448.471C194.247 448.794 194.34 449.106 194.49 449.38C194.641 449.655 194.846 449.885 195.088 450.053C196.905 451.302 199.87 452.078 203.611 448.549C210.022 442.502 204.299 438.042 204.299 438.042Z" fill="#DB8B8B"/>
<path opacity="0.1" d="M211.399 389.437C211.399 389.437 215.981 388.91 217.122 402.575C218.263 416.239 220.098 419.391 220.098 419.391C220.098 419.391 221.245 426.483 218.498 430.687C215.751 434.89 210.481 443.818 210.481 443.818C210.481 443.818 204.758 445.66 203.611 439.094L210.71 423.858C210.71 423.858 211.857 418.608 209.11 414.93C206.364 411.253 204.299 386.812 211.399 389.437Z" fill="black"/>
<path d="M210.94 388.667C210.94 388.667 215.522 388.141 216.663 401.799C217.804 415.457 219.645 418.615 219.645 418.615C219.645 418.615 220.786 425.707 218.039 429.911C215.292 434.115 210.022 443.042 210.022 443.042C210.022 443.042 204.299 444.884 203.152 438.319L210.251 423.082C210.251 423.082 211.398 417.825 208.651 414.148C205.905 410.47 203.84 386.022 210.94 388.667Z" fill="#FF4365"/>
<path opacity="0.1" d="M207.164 398.499C207.164 398.499 206.705 406.644 208.764 411.111C210.822 415.578 210.828 421.354 208.764 424.512" fill="black"/>
<path opacity="0.1" d="M206.016 388.519C206.016 388.519 207.851 386.42 213.116 386.157C218.38 385.894 220.674 384.052 220.674 384.052" fill="black"/>
<path opacity="0.1" d="M218.756 353.079C220.144 353.274 221.738 353.821 222.238 355.326C222.371 355.895 222.477 356.471 222.556 357.053C223.074 359.348 225.326 360.427 226.715 362.175C227.944 363.72 228.479 365.819 228.879 367.857C230.019 373.712 230.292 379.746 229.685 385.705C229.238 390.064 228.326 394.356 228.067 398.728C227.809 403.101 228.279 407.71 230.367 411.388C231.261 412.967 232.444 414.357 233.079 416.111C231.767 417.333 229.956 417.508 228.267 417.575C226.307 417.647 224.346 417.647 222.385 417.575C221.347 417.625 220.315 417.38 219.38 416.86C218.718 416.377 218.176 415.708 217.803 414.917C216.68 412.724 216.392 410.092 216.439 407.541C216.486 404.991 216.839 402.467 216.88 399.923C216.88 398.533 216.809 397.062 216.115 395.928C215.545 395.17 214.899 394.491 214.192 393.904C211.745 391.414 210.904 387.412 210.821 383.66C210.739 379.909 211.274 376.143 210.998 372.398C210.892 370.934 210.41 369.173 209.157 368.889C208.762 368.864 208.368 368.806 207.981 368.714C206.969 368.268 207.069 366.635 206.804 365.441C206.481 364.091 205.487 363.066 205.204 361.709C204.545 358.531 208.069 354.739 210.38 353.612C212.692 352.485 216.274 352.728 218.756 353.079Z" fill="black"/>
<path d="M218.986 352.552C220.374 352.755 221.962 353.301 222.468 354.799C222.601 355.37 222.707 355.949 222.786 356.533C223.303 358.828 225.556 359.907 226.944 361.648C228.173 363.194 228.709 365.292 229.109 367.33C230.249 373.185 230.521 379.219 229.915 385.178C229.468 389.537 228.556 393.829 228.297 398.202C228.038 402.574 228.509 407.183 230.597 410.861C231.491 412.44 232.673 413.83 233.308 415.584C231.997 416.806 230.185 416.981 228.497 417.049C226.536 417.121 224.566 417.121 222.586 417.049C221.548 417.099 220.515 416.853 219.58 416.333C218.92 415.851 218.378 415.185 218.004 414.397C216.874 412.197 216.592 409.565 216.639 407.015C216.686 404.464 217.039 401.94 217.08 399.396C217.08 398.013 217.01 396.535 216.315 395.401C215.743 394.645 215.098 393.966 214.392 393.377C211.945 390.887 211.098 386.892 211.016 383.134C210.933 379.375 211.475 375.617 211.198 371.871C211.092 370.407 210.61 368.646 209.357 368.363C208.962 368.338 208.569 368.279 208.181 368.187C207.169 367.742 207.269 366.109 207.004 364.914C206.681 363.565 205.687 362.539 205.404 361.183C204.746 358.011 208.269 354.212 210.581 353.085C212.892 351.958 216.504 352.228 218.986 352.552Z" fill="#472727"/>
<path opacity="0.1" d="M663.339 588.635C671.136 588.635 677.456 587.638 677.456 586.408C677.456 585.178 671.136 584.181 663.339 584.181C655.543 584.181 649.223 585.178 649.223 586.408C649.223 587.638 655.543 588.635 663.339 588.635Z" fill="#6C63FF"/>
<path opacity="0.1" d="M609.261 594.931C617.057 594.931 623.377 593.934 623.377 592.704C623.377 591.475 617.057 590.478 609.261 590.478C601.464 590.478 595.144 591.475 595.144 592.704C595.144 593.934 601.464 594.931 609.261 594.931Z" fill="#6C63FF"/>
<path opacity="0.1" d="M545.565 586.415C553.361 586.415 559.682 585.418 559.682 584.188C559.682 582.958 553.361 581.961 545.565 581.961C537.769 581.961 531.448 582.958 531.448 584.188C531.448 585.418 537.769 586.415 545.565 586.415Z" fill="#6C63FF"/>
<path opacity="0.1" d="M630.907 612.192C636.449 612.192 640.941 611.485 640.941 610.613C640.941 609.741 636.449 609.034 630.907 609.034C625.365 609.034 620.872 609.741 620.872 610.613C620.872 611.485 625.365 612.192 630.907 612.192Z" fill="#6C63FF"/>
<path opacity="0.1" d="M574.781 610.606C580.323 610.606 584.815 609.899 584.815 609.027C584.815 608.155 580.323 607.448 574.781 607.448C569.239 607.448 564.746 608.155 564.746 609.027C564.746 609.899 569.239 610.606 574.781 610.606Z" fill="#6C63FF"/>
<path d="M608.961 592.198C608.961 592.198 628.759 517.741 605.861 487.916C588.732 465.607 569.293 468.272 560.57 471.046C558.316 471.735 556.22 472.978 554.426 474.688C552.633 476.399 551.185 478.536 550.182 480.952C547.141 488.482 547.688 500.716 569.181 514.988C605.161 538.883 607.414 571.671 607.414 571.671L608.961 592.198Z" fill="#FF4365"/>
<path d="M563.682 481.593C563.682 481.593 622.048 502.511 608.973 592.198" stroke="white" stroke-miterlimit="10"/>
<path d="M597.774 489.104C597.774 489.104 589.733 495.312 592.292 504.624" stroke="white" stroke-miterlimit="10"/>
<path d="M569.534 494.61C569.534 494.61 574.451 488.874 580.428 492.039" stroke="white" stroke-miterlimit="10"/>
<path d="M592.639 523.464C592.639 523.464 601.262 518.444 603.491 524.733" stroke="white" stroke-miterlimit="10"/>
<path d="M613.955 533.936C613.955 533.936 607.484 533.342 607.361 536.898" stroke="white" stroke-miterlimit="10"/>
<path d="M609.761 592.792C609.761 592.792 586.574 538.673 580.204 539.861C577.181 540.421 575.787 543.836 575.151 547.284C574.37 551.719 574.812 556.322 576.416 560.456C579.698 569.1 588.521 585.545 609.761 592.792Z" fill="#032B4D"/>
<path d="M580.375 550.131C580.375 550.131 604.715 590.619 609.42 592.4" stroke="white" stroke-miterlimit="10"/>
<path d="M578.133 556.454H583.815" stroke="white" stroke-miterlimit="10"/>
<path d="M584.939 571.266L593.844 571.705" stroke="white" stroke-miterlimit="10"/>
<path d="M590.356 559.417L589.392 564.741" stroke="white" stroke-miterlimit="10"/>
<path d="M599.826 575.611L599.655 580.45" stroke="white" stroke-miterlimit="10"/>
<path d="M609.073 592.792C609.073 592.792 632.259 538.673 638.629 539.861C641.659 540.421 643.053 543.836 643.682 547.284C644.464 551.719 644.022 556.322 642.417 560.456C639.106 569.1 630.283 585.545 609.073 592.792Z" fill="#032B4D"/>
<path d="M638.459 550.131C638.459 550.131 614.12 590.619 609.42 592.4" stroke="white" stroke-miterlimit="10"/>
<path d="M640.694 556.454H635.013" stroke="white" stroke-miterlimit="10"/>
<path d="M633.889 571.266L624.983 571.705" stroke="white" stroke-miterlimit="10"/>
<path d="M628.471 559.417L629.436 564.741" stroke="white" stroke-miterlimit="10"/>
<path d="M619.002 575.611L619.172 580.45" stroke="white" stroke-miterlimit="10"/>
<path d="M569.258 605.431C568.626 604.84 568.166 604.042 567.94 603.143C567.837 602.692 567.873 602.215 568.041 601.791C568.209 601.366 568.5 601.022 568.864 600.815C569.711 600.444 570.628 601.119 571.299 601.8C571.969 602.482 572.769 603.258 573.652 603.116C573.19 602.634 572.845 602.024 572.649 601.344C572.454 600.665 572.414 599.938 572.534 599.236C572.575 598.948 572.683 598.678 572.846 598.453C573.316 597.873 574.169 598.123 574.734 598.575C576.498 600.019 577.022 602.812 577.034 605.323C577.122 604.399 577.122 603.467 577.034 602.543C577 602.079 577.065 601.613 577.224 601.185C577.383 600.756 577.63 600.379 577.945 600.086C578.371 599.822 578.85 599.691 579.334 599.708C579.733 599.643 580.14 599.675 580.528 599.802C580.916 599.928 581.277 600.147 581.586 600.444C582.269 601.281 582.092 602.691 581.498 603.615C580.829 604.481 580.033 605.205 579.145 605.755C578.48 606.213 577.911 606.835 577.481 607.577C577.433 607.681 577.391 607.789 577.357 607.901H572.316C571.205 607.239 570.176 606.408 569.258 605.431Z" fill="#6C63FF"/>
<path d="M657.616 583.635C656.985 583.044 656.525 582.246 656.299 581.348C656.197 580.899 656.232 580.423 656.399 580.001C656.566 579.578 656.855 579.234 657.216 579.026C658.063 578.648 658.981 579.323 659.657 580.005C660.334 580.686 661.128 581.462 662.01 581.354C661.549 580.872 661.204 580.262 661.008 579.582C660.812 578.903 660.772 578.177 660.893 577.474C660.934 577.186 661.041 576.916 661.204 576.692C661.675 576.111 662.528 576.361 663.093 576.813C664.857 578.257 665.381 581.051 665.392 583.561C665.481 582.637 665.481 581.705 665.392 580.781C665.358 580.317 665.424 579.851 665.582 579.423C665.741 578.995 665.989 578.618 666.304 578.325C666.729 578.06 667.208 577.93 667.692 577.947C668.091 577.881 668.497 577.912 668.884 578.039C669.271 578.166 669.631 578.385 669.939 578.682C670.627 579.519 670.445 580.929 669.851 581.854C669.182 582.72 668.386 583.444 667.498 583.993C666.832 584.451 666.264 585.073 665.833 585.815C665.785 585.919 665.744 586.027 665.71 586.139H660.669C659.558 585.466 658.531 584.624 657.616 583.635Z" fill="#6C63FF"/>
<path d="M628.171 605.431C627.538 604.84 627.076 604.042 626.848 603.143C626.745 602.692 626.78 602.215 626.949 601.791C627.117 601.366 627.407 601.022 627.771 600.815C628.618 600.444 629.536 601.119 630.212 601.8C630.889 602.482 631.683 603.258 632.565 603.116C632.102 602.636 631.755 602.026 631.56 601.345C631.364 600.665 631.325 599.938 631.448 599.236C631.486 598.947 631.594 598.676 631.759 598.453C632.23 597.873 633.077 598.123 633.642 598.575C635.406 600.019 635.936 602.812 635.941 605.323C636.042 604.4 636.053 603.468 635.977 602.543C635.941 602.079 636.006 601.613 636.163 601.185C636.321 600.757 636.568 600.38 636.883 600.086C637.308 599.823 637.787 599.692 638.271 599.708C638.67 599.643 639.077 599.674 639.465 599.801C639.853 599.928 640.214 600.147 640.523 600.444C641.206 601.281 641.029 602.691 640.435 603.615C639.765 604.48 638.969 605.204 638.082 605.755C637.414 606.209 636.845 606.832 636.418 607.577C636.367 607.679 636.326 607.788 636.294 607.901H631.248C630.129 607.241 629.095 606.41 628.171 605.431Z" fill="#6C63FF"/>
<path d="M544.654 561.374C544.654 561.374 542.76 564.208 545.524 568.493C548.289 572.777 550.571 576.394 549.642 579.066C549.642 579.066 545.471 571.111 542.078 570.969C538.684 570.827 540.919 566.138 544.654 561.374Z" fill="#6C63FF"/>
<path opacity="0.1" d="M544.654 561.374C544.486 561.647 544.356 561.947 544.265 562.264C540.954 566.725 539.189 570.895 542.371 570.996C545.342 571.097 548.9 577.184 549.747 578.716C549.723 578.836 549.689 578.953 549.647 579.066C549.647 579.066 545.477 571.111 542.083 570.969C538.689 570.827 540.918 566.138 544.654 561.374Z" fill="black"/>
<path d="M541.136 564.991C541.136 565.989 541.236 566.799 541.353 566.799C541.471 566.799 541.571 565.989 541.571 564.991C541.571 563.992 541.453 564.464 541.33 564.464C541.206 564.464 541.136 563.992 541.136 564.991Z" fill="#FFD037"/>
<path d="M539.931 566.185C540.695 566.657 541.36 566.948 541.419 566.826C541.478 566.705 540.907 566.219 540.142 565.74C539.378 565.26 539.678 565.611 539.619 565.74C539.56 565.868 539.166 565.706 539.931 566.185Z" fill="#FFD037"/>
<path d="M554.646 561.374C554.646 561.374 556.535 564.208 553.77 568.493C551.006 572.777 548.729 576.394 549.653 579.066C549.653 579.066 553.823 571.111 557.223 570.969C560.623 570.827 558.382 566.138 554.646 561.374Z" fill="#6C63FF"/>
<path opacity="0.1" d="M554.647 561.374C554.81 561.648 554.939 561.948 555.029 562.264C558.346 566.725 560.111 570.895 556.923 570.996C553.982 571.097 550.4 577.184 549.547 578.716C549.547 578.837 549.612 578.952 549.647 579.066C549.647 579.066 553.817 571.111 557.217 570.969C560.617 570.827 558.382 566.138 554.647 561.374Z" fill="black"/>
<path d="M558.158 564.991C558.158 565.989 558.064 566.799 557.941 566.799C557.817 566.799 557.723 565.989 557.723 564.991C557.723 563.992 557.847 564.464 557.964 564.464C558.082 564.464 558.158 563.992 558.158 564.991Z" fill="#FFD037"/>
<path d="M559.37 566.185C558.605 566.657 557.935 566.948 557.882 566.826C557.829 566.705 558.394 566.219 559.158 565.74C559.923 565.26 559.623 565.611 559.682 565.74C559.74 565.868 560.135 565.706 559.37 566.185Z" fill="#FFD037"/>
<path d="M557.559 578.696C557.559 578.696 552.265 578.507 550.677 577.205C549.089 575.903 542.542 574.35 542.148 576.442C541.754 578.534 534.196 586.827 540.172 586.881C546.148 586.935 554.042 585.815 555.636 584.702C557.23 583.588 557.559 578.696 557.559 578.696Z" fill="#A8A8A8"/>
<path opacity="0.2" d="M540.059 586.152C546.035 586.206 553.935 585.086 555.529 583.973C556.735 583.129 557.223 580.093 557.382 578.689H557.558C557.558 578.689 557.223 583.581 555.635 584.695C554.047 585.808 546.141 586.928 540.171 586.874C538.447 586.874 537.848 586.152 537.883 585.113C538.124 585.747 538.777 586.139 540.059 586.152Z" fill="black"/>
<path opacity="0.1" d="M196.4 598.926C207.679 598.926 216.822 597.376 216.822 595.464C216.822 593.552 207.679 592.002 196.4 592.002C185.121 592.002 175.978 593.552 175.978 595.464C175.978 597.376 185.121 598.926 196.4 598.926Z" fill="#6C63FF"/>
<path opacity="0.1" d="M245.849 630C257.128 630 266.271 628.45 266.271 626.538C266.271 624.627 257.128 623.077 245.849 623.077C234.57 623.077 225.427 624.627 225.427 626.538C225.427 628.45 234.57 630 245.849 630Z" fill="#6C63FF"/>
<path opacity="0.1" d="M464.011 547.304C471.48 547.304 477.534 546.528 477.534 545.57C477.534 544.612 471.48 543.836 464.011 543.836C456.543 543.836 450.489 544.612 450.489 545.57C450.489 546.528 456.543 547.304 464.011 547.304Z" fill="#6C63FF"/>
<path opacity="0.1" d="M400.798 597.198C408.266 597.198 414.321 596.422 414.321 595.464C414.321 594.506 408.266 593.73 400.798 593.73C393.33 593.73 387.275 594.506 387.275 595.464C387.275 596.422 393.33 597.198 400.798 597.198Z" fill="#6C63FF"/>
<path opacity="0.1" d="M372.3 628.273C379.768 628.273 385.823 627.496 385.823 626.538C385.823 625.581 379.768 624.804 372.3 624.804C364.832 624.804 358.777 625.581 358.777 626.538C358.777 627.496 364.832 628.273 372.3 628.273Z" fill="#6C63FF"/>
</g>
<defs>
<linearGradient id="paint0_linear" x1="214.41" y1="540.624" x2="214.41" y2="349.9" gradientUnits="userSpaceOnUse">
<stop stop-color="#808080" stop-opacity="0.25"/>
<stop offset="0.54" stop-color="#808080" stop-opacity="0.12"/>
<stop offset="1" stop-color="#808080" stop-opacity="0.1"/>
</linearGradient>
<clipPath id="clip0">
<rect width="559.357" height="422.515" fill="white"/>
</clipPath>
<clipPath id="clip1">
<rect width="559.357" height="422.515" transform="matrix(-1 0 0 1 830.704 0)" fill="white"/>
</clipPath>
<clipPath id="clip2">
<rect x="98" y="119" width="634" height="511" fill="white"/>
</clipPath>
</defs>
</svg>
