<svg width="702" height="464" viewBox="0 0 702 464" fill="none" xmlns="http://www.w3.org/2000/svg">
<rect width="702" height="464" fill="white"/>
<path d="M67.12 116H56.2V144H60.2V135.52H67.12C74.4 135.52 78.8 131.84 78.8 125.76C78.8 119.68 74.4 116 67.12 116ZM67 132.04H60.2V119.48H67C72.12 119.48 74.8 121.76 74.8 125.76C74.8 129.76 72.12 132.04 67 132.04ZM87.445 126.36V122.8H83.765V144H87.605V133.44C87.605 128.8 90.165 126.28 94.285 126.28C94.565 126.28 94.845 126.28 95.165 126.32V122.6C91.445 122.6 88.805 123.88 87.445 126.36ZM108.783 144.24C115.143 144.24 119.783 139.72 119.783 133.4C119.783 127.08 115.143 122.6 108.783 122.6C102.423 122.6 97.7425 127.08 97.7425 133.4C97.7425 139.72 102.423 144.24 108.783 144.24ZM108.783 140.88C104.703 140.88 101.623 137.92 101.623 133.4C101.623 128.88 104.703 125.96 108.783 125.96C112.863 125.96 115.903 128.88 115.903 133.4C115.903 137.92 112.863 140.88 108.783 140.88ZM132.853 117.24C133.973 117.24 135.013 117.64 135.813 118.24L136.973 115.32C135.893 114.48 134.293 114.08 132.653 114.08C128.133 114.08 125.653 116.8 125.653 120.92V122.8H122.053V125.96H125.653V144H129.493V125.96H135.573V122.8H129.413V120.96C129.413 118.52 130.573 117.24 132.853 117.24ZM158.042 133.52C158.042 127 153.682 122.6 147.562 122.6C141.442 122.6 136.922 127.12 136.922 133.4C136.922 139.72 141.482 144.24 148.322 144.24C151.842 144.24 154.762 143.04 156.682 140.8L154.562 138.32C153.002 140.04 150.922 140.88 148.442 140.88C144.242 140.88 141.242 138.4 140.762 134.68H157.962C158.002 134.32 158.042 133.84 158.042 133.52ZM147.562 125.84C151.282 125.84 153.962 128.36 154.362 131.92H140.762C141.162 128.32 143.882 125.84 147.562 125.84ZM169.454 144.24C175.094 144.24 178.614 141.8 178.614 137.96C178.614 129.72 165.174 133.8 165.174 128.8C165.174 127.12 166.814 125.88 170.174 125.88C172.254 125.88 174.374 126.32 176.294 127.56L177.934 124.52C176.094 123.32 172.974 122.6 170.214 122.6C164.774 122.6 161.374 125.16 161.374 128.96C161.374 137.4 174.774 133.28 174.774 138.04C174.774 139.84 173.294 140.92 169.734 140.92C166.974 140.92 164.094 140 162.294 138.72L160.694 141.76C162.454 143.16 165.934 144.24 169.454 144.24ZM189.493 144.24C195.133 144.24 198.653 141.8 198.653 137.96C198.653 129.72 185.213 133.8 185.213 128.8C185.213 127.12 186.853 125.88 190.213 125.88C192.293 125.88 194.413 126.32 196.333 127.56L197.973 124.52C196.133 123.32 193.013 122.6 190.253 122.6C184.813 122.6 181.413 125.16 181.413 128.96C181.413 137.4 194.813 133.28 194.813 138.04C194.813 139.84 193.333 140.92 189.773 140.92C187.013 140.92 184.133 140 182.333 138.72L180.733 141.76C182.493 143.16 185.973 144.24 189.493 144.24ZM205.373 118.72C206.893 118.72 207.973 117.6 207.973 116.16C207.973 114.8 206.853 113.72 205.373 113.72C203.893 113.72 202.773 114.84 202.773 116.24C202.773 117.64 203.893 118.72 205.373 118.72ZM203.453 144H207.293V122.8H203.453V144ZM223.704 144.24C230.064 144.24 234.704 139.72 234.704 133.4C234.704 127.08 230.064 122.6 223.704 122.6C217.344 122.6 212.664 127.08 212.664 133.4C212.664 139.72 217.344 144.24 223.704 144.24ZM223.704 140.88C219.624 140.88 216.544 137.92 216.544 133.4C216.544 128.88 219.624 125.96 223.704 125.96C227.784 125.96 230.824 128.88 230.824 133.4C230.824 137.92 227.784 140.88 223.704 140.88ZM251.335 122.6C247.975 122.6 245.255 123.84 243.695 126V122.8H240.015V144H243.855V133.08C243.855 128.48 246.495 126.04 250.575 126.04C254.215 126.04 256.295 128.08 256.295 132.24V144H260.135V131.8C260.135 125.56 256.495 122.6 251.335 122.6ZM274.962 122.6C271.562 122.6 268.402 123.56 266.202 125.32L267.802 128.2C269.442 126.8 272.002 125.92 274.522 125.92C278.322 125.92 280.202 127.8 280.202 131.04V131.8H274.122C267.802 131.8 265.602 134.6 265.602 138C265.602 141.68 268.642 144.24 273.442 144.24C276.762 144.24 279.122 143.12 280.402 141.2V144H284.042V131.2C284.042 125.4 280.762 122.6 274.962 122.6ZM274.082 141.28C271.162 141.28 269.402 139.96 269.402 137.84C269.402 136.04 270.482 134.56 274.282 134.56H280.202V137.52C279.242 139.96 276.962 141.28 274.082 141.28ZM291.148 144H294.988V114.32H291.148V144ZM334.542 144H338.742L326.022 116H322.062L309.382 144H313.502L316.582 137H331.462L334.542 144ZM317.982 133.8L324.022 120.08L330.062 133.8H317.982ZM346.039 126.36V122.8H342.359V144H346.199V133.44C346.199 128.8 348.759 126.28 352.879 126.28C353.159 126.28 353.439 126.28 353.759 126.32V122.6C350.039 122.6 347.399 123.88 346.039 126.36ZM377.456 133.52C377.456 127 373.096 122.6 366.976 122.6C360.856 122.6 356.336 127.12 356.336 133.4C356.336 139.72 360.896 144.24 367.736 144.24C371.256 144.24 374.176 143.04 376.096 140.8L373.976 138.32C372.416 140.04 370.336 140.88 367.856 140.88C363.656 140.88 360.656 138.4 360.176 134.68H377.376C377.416 134.32 377.456 133.84 377.456 133.52ZM366.976 125.84C370.696 125.84 373.376 128.36 373.776 131.92H360.176C360.576 128.32 363.296 125.84 366.976 125.84ZM389.923 122.6C386.523 122.6 383.363 123.56 381.163 125.32L382.763 128.2C384.403 126.8 386.963 125.92 389.483 125.92C393.283 125.92 395.163 127.8 395.163 131.04V131.8H389.083C382.763 131.8 380.563 134.6 380.563 138C380.563 141.68 383.603 144.24 388.403 144.24C391.723 144.24 394.083 143.12 395.363 141.2V144H399.003V131.2C399.003 125.4 395.723 122.6 389.923 122.6ZM389.043 141.28C386.123 141.28 384.363 139.96 384.363 137.84C384.363 136.04 385.443 134.56 389.243 134.56H395.163V137.52C394.203 139.96 391.923 141.28 389.043 141.28ZM86 193L85.96 165H82.68L71.16 184.68L59.48 165H56.2V193H60.04V172.72L70.16 189.6H72L82.12 172.6L82.16 193H86ZM101.563 171.6C98.1631 171.6 95.0031 172.56 92.8031 174.32L94.4031 177.2C96.0431 175.8 98.6031 174.92 101.123 174.92C104.923 174.92 106.803 176.8 106.803 180.04V180.8H100.723C94.4031 180.8 92.2031 183.6 92.2031 187C92.2031 190.68 95.2431 193.24 100.043 193.24C103.363 193.24 105.723 192.12 107.003 190.2V193H110.643V180.2C110.643 174.4 107.363 171.6 101.563 171.6ZM100.683 190.28C97.7631 190.28 96.0031 188.96 96.0031 186.84C96.0031 185.04 97.0831 183.56 100.883 183.56H106.803V186.52C105.843 188.96 103.563 190.28 100.683 190.28ZM129.069 171.6C125.709 171.6 122.989 172.84 121.429 175V171.8H117.749V193H121.589V182.08C121.589 177.48 124.229 175.04 128.309 175.04C131.949 175.04 134.029 177.08 134.029 181.24V193H137.869V180.8C137.869 174.56 134.229 171.6 129.069 171.6ZM152.696 171.6C149.296 171.6 146.136 172.56 143.936 174.32L145.536 177.2C147.176 175.8 149.736 174.92 152.256 174.92C156.056 174.92 157.936 176.8 157.936 180.04V180.8H151.856C145.536 180.8 143.336 183.6 143.336 187C143.336 190.68 146.376 193.24 151.176 193.24C154.496 193.24 156.856 192.12 158.136 190.2V193H161.776V180.2C161.776 174.4 158.496 171.6 152.696 171.6ZM151.816 190.28C148.896 190.28 147.136 188.96 147.136 186.84C147.136 185.04 148.216 183.56 152.016 183.56H157.936V186.52C156.976 188.96 154.696 190.28 151.816 190.28ZM185.639 171.8V175.08C183.839 172.76 180.959 171.6 177.799 171.6C171.679 171.6 167.039 175.72 167.039 181.84C167.039 187.96 171.679 192.12 177.799 192.12C180.839 192.12 183.599 191.04 185.439 188.84V190.52C185.439 195.32 183.159 197.64 178.159 197.64C175.039 197.64 171.959 196.56 169.999 194.88L168.159 197.84C170.479 199.92 174.399 201 178.279 201C185.479 201 189.279 197.6 189.279 190.12V171.8H185.639ZM178.239 188.76C173.959 188.76 170.919 185.92 170.919 181.84C170.919 177.72 173.959 174.96 178.239 174.96C182.479 174.96 185.519 177.72 185.519 181.84C185.519 185.92 182.479 188.76 178.239 188.76ZM215.777 182.52C215.777 176 211.417 171.6 205.297 171.6C199.177 171.6 194.657 176.12 194.657 182.4C194.657 188.72 199.217 193.24 206.057 193.24C209.577 193.24 212.497 192.04 214.417 189.8L212.297 187.32C210.737 189.04 208.657 189.88 206.177 189.88C201.977 189.88 198.977 187.4 198.497 183.68H215.697C215.737 183.32 215.777 182.84 215.777 182.52ZM205.297 174.84C209.017 174.84 211.697 177.36 212.097 180.92H198.497C198.897 177.32 201.617 174.84 205.297 174.84ZM224.789 175.36V171.8H221.109V193H224.949V182.44C224.949 177.8 227.509 175.28 231.629 175.28C231.909 175.28 232.189 175.28 232.509 175.32V171.6C228.789 171.6 226.149 172.88 224.789 175.36ZM243.478 193.24C249.118 193.24 252.638 190.8 252.638 186.96C252.638 178.72 239.198 182.8 239.198 177.8C239.198 176.12 240.838 174.88 244.198 174.88C246.278 174.88 248.398 175.32 250.318 176.56L251.958 173.52C250.118 172.32 246.998 171.6 244.238 171.6C238.798 171.6 235.398 174.16 235.398 177.96C235.398 186.4 248.798 182.28 248.798 187.04C248.798 188.84 247.318 189.92 243.758 189.92C240.998 189.92 238.118 189 236.318 187.72L234.718 190.76C236.478 192.16 239.958 193.24 243.478 193.24Z" fill="black"/>
<path d="M58.078 241H70.66V239.272H60.076V222.1H58.078V241ZM79.1665 241.135C83.3245 241.135 86.3755 238.111 86.3755 233.899C86.3755 229.687 83.3245 226.69 79.1665 226.69C75.0085 226.69 71.9305 229.687 71.9305 233.899C71.9305 238.111 75.0085 241.135 79.1665 241.135ZM79.1665 239.434C76.1425 239.434 73.8745 237.22 73.8745 233.899C73.8745 230.578 76.1425 228.364 79.1665 228.364C82.1905 228.364 84.4315 230.578 84.4315 233.899C84.4315 237.22 82.1905 239.434 79.1665 239.434ZM92.1252 229.579V226.798H90.2892V241H92.2062V233.764C92.2062 230.416 94.0152 228.526 96.9852 228.526C97.1202 228.526 97.2822 228.553 97.4442 228.553V226.69C94.8252 226.69 93.0162 227.689 92.1252 229.579ZM113.176 233.899C113.176 229.633 110.287 226.69 106.291 226.69C102.295 226.69 99.3524 229.687 99.3524 233.899C99.3524 238.111 102.376 241.135 106.804 241.135C109.045 241.135 111.016 240.325 112.285 238.813L111.205 237.571C110.125 238.813 108.586 239.434 106.858 239.434C103.753 239.434 101.485 237.463 101.269 234.493H113.149C113.149 234.277 113.176 234.061 113.176 233.899ZM106.291 228.337C109.072 228.337 111.097 230.281 111.34 233.062H101.269C101.512 230.281 103.537 228.337 106.291 228.337ZM134.79 226.69C132.225 226.69 130.2 227.851 129.174 229.687C128.31 227.689 126.474 226.69 124.125 226.69C121.749 226.69 119.913 227.689 118.914 229.39V226.798H117.078V241H118.995V233.548C118.995 230.308 120.858 228.418 123.747 228.418C126.339 228.418 127.851 229.957 127.851 232.954V241H129.768V233.548C129.768 230.308 131.604 228.418 134.52 228.418C137.085 228.418 138.597 229.957 138.597 232.954V241H140.514V232.765C140.514 228.688 138.246 226.69 134.79 226.69ZM153.751 223.693C154.561 223.693 155.155 223.072 155.155 222.289C155.155 221.56 154.534 220.966 153.751 220.966C152.968 220.966 152.347 221.587 152.347 222.316C152.347 223.072 152.968 223.693 153.751 223.693ZM152.779 241H154.696V226.798H152.779V241ZM167.347 226.69C164.998 226.69 163.027 227.716 161.866 229.606V226.798H160.03V246.238H161.947V238.327C163.135 240.163 165.079 241.135 167.347 241.135C171.397 241.135 174.421 238.219 174.421 233.899C174.421 229.606 171.397 226.69 167.347 226.69ZM167.212 239.434C164.188 239.434 161.92 237.22 161.92 233.899C161.92 230.605 164.188 228.364 167.212 228.364C170.209 228.364 172.504 230.605 172.504 233.899C172.504 237.22 170.209 239.434 167.212 239.434ZM182.136 241.135C185.835 241.135 187.995 239.542 187.995 237.085C187.995 231.631 178.788 234.52 178.788 230.686C178.788 229.336 179.922 228.337 182.487 228.337C183.945 228.337 185.43 228.688 186.672 229.552L187.509 228.013C186.321 227.203 184.323 226.69 182.487 226.69C178.869 226.69 176.871 228.418 176.871 230.74C176.871 236.356 186.078 233.44 186.078 237.139C186.078 238.543 184.971 239.461 182.271 239.461C180.273 239.461 178.356 238.759 177.222 237.868L176.358 239.38C177.519 240.379 179.787 241.135 182.136 241.135ZM202.42 226.798V234.25C202.42 237.49 200.557 239.407 197.587 239.407C194.887 239.407 193.321 237.868 193.321 234.844V226.798H191.404V235.033C191.404 239.11 193.78 241.135 197.398 241.135C199.666 241.135 201.502 240.136 202.501 238.408V241H204.337V226.798H202.42ZM227.418 226.69C224.853 226.69 222.828 227.851 221.802 229.687C220.938 227.689 219.102 226.69 216.753 226.69C214.377 226.69 212.541 227.689 211.542 229.39V226.798H209.706V241H211.623V233.548C211.623 230.308 213.486 228.418 216.375 228.418C218.967 228.418 220.479 229.957 220.479 232.954V241H222.396V233.548C222.396 230.308 224.232 228.418 227.148 228.418C229.713 228.418 231.225 229.957 231.225 232.954V241H233.142V232.765C233.142 228.688 230.874 226.69 227.418 226.69ZM256.45 220.966V229.498C255.262 227.662 253.318 226.69 251.05 226.69C247 226.69 243.976 229.606 243.976 233.899C243.976 238.192 247 241.135 251.05 241.135C253.399 241.135 255.37 240.109 256.531 238.192V241H258.367V220.966H256.45ZM251.212 239.434C248.188 239.434 245.92 237.22 245.92 233.899C245.92 230.578 248.188 228.364 251.212 228.364C254.209 228.364 256.477 230.578 256.477 233.899C256.477 237.22 254.209 239.434 251.212 239.434ZM269.511 241.135C273.669 241.135 276.72 238.111 276.72 233.899C276.72 229.687 273.669 226.69 269.511 226.69C265.353 226.69 262.275 229.687 262.275 233.899C262.275 238.111 265.353 241.135 269.511 241.135ZM269.511 239.434C266.487 239.434 264.219 237.22 264.219 233.899C264.219 230.578 266.487 228.364 269.511 228.364C272.535 228.364 274.776 230.578 274.776 233.899C274.776 237.22 272.535 239.434 269.511 239.434ZM280.634 241H282.551V220.966H280.634V241ZM293.69 241.135C297.848 241.135 300.899 238.111 300.899 233.899C300.899 229.687 297.848 226.69 293.69 226.69C289.532 226.69 286.454 229.687 286.454 233.899C286.454 238.111 289.532 241.135 293.69 241.135ZM293.69 239.434C290.666 239.434 288.398 237.22 288.398 233.899C288.398 230.578 290.666 228.364 293.69 228.364C296.714 228.364 298.955 230.578 298.955 233.899C298.955 237.22 296.714 239.434 293.69 239.434ZM306.649 229.579V226.798H304.813V241H306.73V233.764C306.73 230.416 308.539 228.526 311.509 228.526C311.644 228.526 311.806 228.553 311.968 228.553V226.69C309.349 226.69 307.54 227.689 306.649 229.579ZM326.523 241.135C330.222 241.135 332.382 239.542 332.382 237.085C332.382 231.631 323.175 234.52 323.175 230.686C323.175 229.336 324.309 228.337 326.874 228.337C328.332 228.337 329.817 228.688 331.059 229.552L331.896 228.013C330.708 227.203 328.71 226.69 326.874 226.69C323.256 226.69 321.258 228.418 321.258 230.74C321.258 236.356 330.465 233.44 330.465 237.139C330.465 238.543 329.358 239.461 326.658 239.461C324.66 239.461 322.743 238.759 321.609 237.868L320.745 239.38C321.906 240.379 324.174 241.135 326.523 241.135ZM336.898 223.693C337.708 223.693 338.302 223.072 338.302 222.289C338.302 221.56 337.681 220.966 336.898 220.966C336.115 220.966 335.494 221.587 335.494 222.316C335.494 223.072 336.115 223.693 336.898 223.693ZM335.926 241H337.843V226.798H335.926V241ZM349.981 238.759C349.441 239.245 348.658 239.488 347.875 239.488C346.282 239.488 345.418 238.57 345.418 236.896V228.418H349.738V226.798H345.418V223.693H343.501V226.798H340.963V228.418H343.501V237.004C343.501 239.623 344.986 241.135 347.659 241.135C348.766 241.135 349.9 240.811 350.656 240.136L349.981 238.759ZM366.18 226.69C363.939 226.69 361.833 227.392 360.402 228.607L361.266 230.038C362.427 229.012 364.155 228.364 365.991 228.364C368.637 228.364 370.014 229.687 370.014 232.117V232.981H365.505C361.428 232.981 360.024 234.817 360.024 237.004C360.024 239.461 361.995 241.135 365.208 241.135C367.557 241.135 369.231 240.244 370.095 238.786V241H371.931V232.198C371.931 228.526 369.852 226.69 366.18 226.69ZM365.505 239.623C363.237 239.623 361.914 238.597 361.914 236.95C361.914 235.492 362.805 234.412 365.559 234.412H370.014V236.734C369.258 238.597 367.665 239.623 365.505 239.623ZM394.85 226.69C392.285 226.69 390.26 227.851 389.234 229.687C388.37 227.689 386.534 226.69 384.185 226.69C381.809 226.69 379.973 227.689 378.974 229.39V226.798H377.138V241H379.055V233.548C379.055 230.308 380.918 228.418 383.807 228.418C386.399 228.418 387.911 229.957 387.911 232.954V241H389.828V233.548C389.828 230.308 391.664 228.418 394.58 228.418C397.145 228.418 398.657 229.957 398.657 232.954V241H400.574V232.765C400.574 228.688 398.306 226.69 394.85 226.69ZM418.218 233.899C418.218 229.633 415.329 226.69 411.333 226.69C407.337 226.69 404.394 229.687 404.394 233.899C404.394 238.111 407.418 241.135 411.846 241.135C414.087 241.135 416.058 240.325 417.327 238.813L416.247 237.571C415.167 238.813 413.628 239.434 411.9 239.434C408.795 239.434 406.527 237.463 406.311 234.493H418.191C418.191 234.277 418.218 234.061 418.218 233.899ZM411.333 228.337C414.114 228.337 416.139 230.281 416.382 233.062H406.311C406.554 230.281 408.579 228.337 411.333 228.337ZM428.924 238.759C428.384 239.245 427.601 239.488 426.818 239.488C425.225 239.488 424.361 238.57 424.361 236.896V228.418H428.681V226.798H424.361V223.693H422.444V226.798H419.906V228.418H422.444V237.004C422.444 239.623 423.929 241.135 426.602 241.135C427.709 241.135 428.843 240.811 429.599 240.136L428.924 238.759ZM433.569 238.192C432.759 238.192 432.138 238.813 432.138 239.65C432.138 240.352 432.543 240.865 433.11 241.027L432.192 244.942H433.488L434.622 241.216C434.892 240.46 435 240.109 435 239.65C435 238.84 434.406 238.192 433.569 238.192ZM452.027 241.135C454.43 241.135 456.455 240.163 457.589 238.327L456.158 237.355C455.186 238.786 453.674 239.434 452.027 239.434C448.922 239.434 446.654 237.247 446.654 233.899C446.654 230.578 448.922 228.364 452.027 228.364C453.674 228.364 455.186 229.039 456.158 230.47L457.589 229.498C456.455 227.635 454.43 226.69 452.027 226.69C447.788 226.69 444.71 229.66 444.71 233.899C444.71 238.138 447.788 241.135 452.027 241.135ZM466.922 241.135C471.08 241.135 474.131 238.111 474.131 233.899C474.131 229.687 471.08 226.69 466.922 226.69C462.764 226.69 459.686 229.687 459.686 233.899C459.686 238.111 462.764 241.135 466.922 241.135ZM466.922 239.434C463.898 239.434 461.63 237.22 461.63 233.899C461.63 230.578 463.898 228.364 466.922 228.364C469.946 228.364 472.187 230.578 472.187 233.899C472.187 237.22 469.946 239.434 466.922 239.434ZM485.281 226.69C482.824 226.69 480.907 227.689 479.881 229.417V226.798H478.045V241H479.962V233.548C479.962 230.308 481.879 228.418 484.93 228.418C487.63 228.418 489.196 229.957 489.196 232.954V241H491.113V232.765C491.113 228.688 488.737 226.69 485.281 226.69ZM500.125 241.135C503.824 241.135 505.984 239.542 505.984 237.085C505.984 231.631 496.777 234.52 496.777 230.686C496.777 229.336 497.911 228.337 500.476 228.337C501.934 228.337 503.419 228.688 504.661 229.552L505.498 228.013C504.31 227.203 502.312 226.69 500.476 226.69C496.858 226.69 494.86 228.418 494.86 230.74C494.86 236.356 504.067 233.44 504.067 237.139C504.067 238.543 502.96 239.461 500.26 239.461C498.262 239.461 496.345 238.759 495.211 237.868L494.347 239.38C495.508 240.379 497.776 241.135 500.125 241.135ZM521.92 233.899C521.92 229.633 519.031 226.69 515.035 226.69C511.039 226.69 508.096 229.687 508.096 233.899C508.096 238.111 511.12 241.135 515.548 241.135C517.789 241.135 519.76 240.325 521.029 238.813L519.949 237.571C518.869 238.813 517.33 239.434 515.602 239.434C512.497 239.434 510.229 237.463 510.013 234.493H521.893C521.893 234.277 521.92 234.061 521.92 233.899ZM515.035 228.337C517.816 228.337 519.841 230.281 520.084 233.062H510.013C510.256 230.281 512.281 228.337 515.035 228.337ZM531.708 241.135C534.111 241.135 536.136 240.163 537.27 238.327L535.839 237.355C534.867 238.786 533.355 239.434 531.708 239.434C528.603 239.434 526.335 237.247 526.335 233.899C526.335 230.578 528.603 228.364 531.708 228.364C533.355 228.364 534.867 229.039 535.839 230.47L537.27 229.498C536.136 227.635 534.111 226.69 531.708 226.69C527.469 226.69 524.391 229.66 524.391 233.899C524.391 238.138 527.469 241.135 531.708 241.135ZM547.998 238.759C547.458 239.245 546.675 239.488 545.892 239.488C544.299 239.488 543.435 238.57 543.435 236.896V228.418H547.755V226.798H543.435V223.693H541.518V226.798H538.98V228.418H541.518V237.004C541.518 239.623 543.003 241.135 545.676 241.135C546.783 241.135 547.917 240.811 548.673 240.136L547.998 238.759ZM564.055 233.899C564.055 229.633 561.166 226.69 557.17 226.69C553.174 226.69 550.231 229.687 550.231 233.899C550.231 238.111 553.255 241.135 557.683 241.135C559.924 241.135 561.895 240.325 563.164 238.813L562.084 237.571C561.004 238.813 559.465 239.434 557.737 239.434C554.632 239.434 552.364 237.463 552.148 234.493H564.028C564.028 234.277 564.055 234.061 564.055 233.899ZM557.17 228.337C559.951 228.337 561.976 230.281 562.219 233.062H552.148C552.391 230.281 554.416 228.337 557.17 228.337ZM574.761 238.759C574.221 239.245 573.438 239.488 572.655 239.488C571.062 239.488 570.198 238.57 570.198 236.896V228.418H574.518V226.798H570.198V223.693H568.281V226.798H565.743V228.418H568.281V237.004C568.281 239.623 569.766 241.135 572.439 241.135C573.546 241.135 574.68 240.811 575.436 240.136L574.761 238.759ZM589.807 226.798V234.25C589.807 237.49 587.944 239.407 584.974 239.407C582.274 239.407 580.708 237.868 580.708 234.844V226.798H578.791V235.033C578.791 239.11 581.167 241.135 584.785 241.135C587.053 241.135 588.889 240.136 589.888 238.408V241H591.724V226.798H589.807ZM598.929 229.579V226.798H597.093V241H599.01V233.764C599.01 230.416 600.819 228.526 603.789 228.526C603.924 228.526 604.086 228.553 604.248 228.553V226.69C601.629 226.69 599.82 227.689 598.929 229.579ZM62.641 259.69C60.4 259.69 58.294 260.392 56.863 261.607L57.727 263.038C58.888 262.012 60.616 261.364 62.452 261.364C65.098 261.364 66.475 262.687 66.475 265.117V265.981H61.966C57.889 265.981 56.485 267.817 56.485 270.004C56.485 272.461 58.456 274.135 61.669 274.135C64.018 274.135 65.692 273.244 66.556 271.786V274H68.392V265.198C68.392 261.526 66.313 259.69 62.641 259.69ZM61.966 272.623C59.698 272.623 58.375 271.597 58.375 269.95C58.375 268.492 59.266 267.412 62.02 267.412H66.475V269.734C65.719 271.597 64.126 272.623 61.966 272.623ZM84.6945 253.966V262.498C83.5065 260.662 81.5625 259.69 79.2945 259.69C75.2445 259.69 72.2205 262.606 72.2205 266.899C72.2205 271.192 75.2445 274.135 79.2945 274.135C81.6435 274.135 83.6145 273.109 84.7755 271.192V274H86.6115V253.966H84.6945ZM79.4565 272.434C76.4325 272.434 74.1645 270.22 74.1645 266.899C74.1645 263.578 76.4325 261.364 79.4565 261.364C82.4535 261.364 84.7215 263.578 84.7215 266.899C84.7215 270.22 82.4535 272.434 79.4565 272.434ZM92.9223 256.693C93.7323 256.693 94.3263 256.072 94.3263 255.289C94.3263 254.56 93.7053 253.966 92.9223 253.966C92.1393 253.966 91.5183 254.587 91.5183 255.316C91.5183 256.072 92.1393 256.693 92.9223 256.693ZM91.9503 274H93.8673V259.798H91.9503V274ZM106.518 259.69C104.169 259.69 102.198 260.716 101.037 262.606V259.798H99.2013V279.238H101.118V271.327C102.306 273.163 104.25 274.135 106.518 274.135C110.568 274.135 113.592 271.219 113.592 266.899C113.592 262.606 110.568 259.69 106.518 259.69ZM106.383 272.434C103.359 272.434 101.091 270.22 101.091 266.899C101.091 263.605 103.359 261.364 106.383 261.364C109.38 261.364 111.675 263.605 111.675 266.899C111.675 270.22 109.38 272.434 106.383 272.434ZM118.472 256.693C119.282 256.693 119.876 256.072 119.876 255.289C119.876 254.56 119.255 253.966 118.472 253.966C117.689 253.966 117.068 254.587 117.068 255.316C117.068 256.072 117.689 256.693 118.472 256.693ZM117.5 274H119.417V259.798H117.5V274ZM128.558 274.135C132.257 274.135 134.417 272.542 134.417 270.085C134.417 264.631 125.21 267.52 125.21 263.686C125.21 262.336 126.344 261.337 128.909 261.337C130.367 261.337 131.852 261.688 133.094 262.552L133.931 261.013C132.743 260.203 130.745 259.69 128.909 259.69C125.291 259.69 123.293 261.418 123.293 263.74C123.293 269.356 132.5 266.44 132.5 270.139C132.5 271.543 131.393 272.461 128.693 272.461C126.695 272.461 124.778 271.759 123.644 270.868L122.78 272.38C123.941 273.379 126.209 274.135 128.558 274.135ZM143.847 274.135C146.25 274.135 148.275 273.163 149.409 271.327L147.978 270.355C147.006 271.786 145.494 272.434 143.847 272.434C140.742 272.434 138.474 270.247 138.474 266.899C138.474 263.578 140.742 261.364 143.847 261.364C145.494 261.364 147.006 262.039 147.978 263.47L149.409 262.498C148.275 260.635 146.25 259.69 143.847 259.69C139.608 259.69 136.53 262.66 136.53 266.899C136.53 271.138 139.608 274.135 143.847 274.135ZM154.147 256.693C154.957 256.693 155.551 256.072 155.551 255.289C155.551 254.56 154.93 253.966 154.147 253.966C153.364 253.966 152.743 254.587 152.743 255.316C152.743 256.072 153.364 256.693 154.147 256.693ZM153.175 274H155.092V259.798H153.175V274ZM167.662 259.69C165.205 259.69 163.288 260.689 162.262 262.417V259.798H160.426V274H162.343V266.548C162.343 263.308 164.26 261.418 167.311 261.418C170.011 261.418 171.577 262.957 171.577 265.954V274H173.494V265.765C173.494 261.688 171.118 259.69 167.662 259.69ZM190.064 259.798V262.525C188.876 260.662 186.824 259.69 184.448 259.69C180.398 259.69 177.32 262.471 177.32 266.548C177.32 270.625 180.398 273.46 184.448 273.46C186.77 273.46 188.795 272.515 189.983 270.706V272.515C189.983 276.025 188.336 277.672 184.745 277.672C182.558 277.672 180.506 276.943 179.156 275.728L178.184 277.186C179.669 278.59 182.207 279.373 184.799 279.373C189.497 279.373 191.9 277.159 191.9 272.272V259.798H190.064ZM184.637 271.759C181.505 271.759 179.264 269.626 179.264 266.548C179.264 263.47 181.505 261.364 184.637 261.364C187.769 261.364 190.037 263.47 190.037 266.548C190.037 269.626 187.769 271.759 184.637 271.759ZM216.72 266.899C216.72 262.633 213.831 259.69 209.835 259.69C205.839 259.69 202.896 262.687 202.896 266.899C202.896 271.111 205.92 274.135 210.348 274.135C212.589 274.135 214.56 273.325 215.829 271.813L214.749 270.571C213.669 271.813 212.13 272.434 210.402 272.434C207.297 272.434 205.029 270.463 204.813 267.493H216.693C216.693 267.277 216.72 267.061 216.72 266.899ZM209.835 261.337C212.616 261.337 214.641 263.281 214.884 266.062H204.813C205.056 263.281 207.081 261.337 209.835 261.337ZM220.622 274H222.539V253.966H220.622V274ZM228.845 256.693C229.655 256.693 230.249 256.072 230.249 255.289C230.249 254.56 229.628 253.966 228.845 253.966C228.062 253.966 227.441 254.587 227.441 255.316C227.441 256.072 228.062 256.693 228.845 256.693ZM227.873 274H229.79V259.798H227.873V274ZM241.928 271.759C241.388 272.245 240.605 272.488 239.822 272.488C238.229 272.488 237.365 271.57 237.365 269.896V261.418H241.685V259.798H237.365V256.693H235.448V259.798H232.91V261.418H235.448V270.004C235.448 272.623 236.933 274.135 239.606 274.135C240.713 274.135 241.847 273.811 242.603 273.136L241.928 271.759ZM246.573 271.192C245.763 271.192 245.142 271.813 245.142 272.65C245.142 273.352 245.547 273.865 246.114 274.027L245.196 277.942H246.492L247.626 274.216C247.896 273.46 248.004 273.109 248.004 272.65C248.004 271.84 247.41 271.192 246.573 271.192ZM262.952 274.135C266.651 274.135 268.811 272.542 268.811 270.085C268.811 264.631 259.604 267.52 259.604 263.686C259.604 262.336 260.738 261.337 263.303 261.337C264.761 261.337 266.246 261.688 267.488 262.552L268.325 261.013C267.137 260.203 265.139 259.69 263.303 259.69C259.685 259.69 257.687 261.418 257.687 263.74C257.687 269.356 266.894 266.44 266.894 270.139C266.894 271.543 265.787 272.461 263.087 272.461C261.089 272.461 259.172 271.759 258.038 270.868L257.174 272.38C258.335 273.379 260.603 274.135 262.952 274.135ZM284.748 266.899C284.748 262.633 281.859 259.69 277.863 259.69C273.867 259.69 270.924 262.687 270.924 266.899C270.924 271.111 273.948 274.135 278.376 274.135C280.617 274.135 282.588 273.325 283.857 271.813L282.777 270.571C281.697 271.813 280.158 272.434 278.43 272.434C275.325 272.434 273.057 270.463 272.841 267.493H284.721C284.721 267.277 284.748 267.061 284.748 266.899ZM277.863 261.337C280.644 261.337 282.669 263.281 282.912 266.062H272.841C273.084 263.281 275.109 261.337 277.863 261.337ZM299.693 253.966V262.498C298.505 260.662 296.561 259.69 294.293 259.69C290.243 259.69 287.219 262.606 287.219 266.899C287.219 271.192 290.243 274.135 294.293 274.135C296.642 274.135 298.613 273.109 299.774 271.192V274H301.61V253.966H299.693ZM294.455 272.434C291.431 272.434 289.163 270.22 289.163 266.899C289.163 263.578 291.431 261.364 294.455 261.364C297.452 261.364 299.72 263.578 299.72 266.899C299.72 270.22 297.452 272.434 294.455 272.434ZM325.058 253.966V262.498C323.87 260.662 321.926 259.69 319.658 259.69C315.608 259.69 312.584 262.606 312.584 266.899C312.584 271.192 315.608 274.135 319.658 274.135C322.007 274.135 323.978 273.109 325.139 271.192V274H326.975V253.966H325.058ZM319.82 272.434C316.796 272.434 314.528 270.22 314.528 266.899C314.528 263.578 316.796 261.364 319.82 261.364C322.817 261.364 325.085 263.578 325.085 266.899C325.085 270.22 322.817 272.434 319.82 272.434ZM338.119 274.135C342.277 274.135 345.328 271.111 345.328 266.899C345.328 262.687 342.277 259.69 338.119 259.69C333.961 259.69 330.883 262.687 330.883 266.899C330.883 271.111 333.961 274.135 338.119 274.135ZM338.119 272.434C335.095 272.434 332.827 270.22 332.827 266.899C332.827 263.578 335.095 261.364 338.119 261.364C341.143 261.364 343.384 263.578 343.384 266.899C343.384 270.22 341.143 272.434 338.119 272.434ZM368.701 266.899C368.701 262.633 365.812 259.69 361.816 259.69C357.82 259.69 354.877 262.687 354.877 266.899C354.877 271.111 357.901 274.135 362.329 274.135C364.57 274.135 366.541 273.325 367.81 271.813L366.73 270.571C365.65 271.813 364.111 272.434 362.383 272.434C359.278 272.434 357.01 270.463 356.794 267.493H368.674C368.674 267.277 368.701 267.061 368.701 266.899ZM361.816 261.337C364.597 261.337 366.622 263.281 366.865 266.062H356.794C357.037 263.281 359.062 261.337 361.816 261.337ZM373.575 256.693C374.385 256.693 374.979 256.072 374.979 255.289C374.979 254.56 374.358 253.966 373.575 253.966C372.792 253.966 372.171 254.587 372.171 255.316C372.171 256.072 372.792 256.693 373.575 256.693ZM372.603 274H374.52V259.798H372.603V274ZM390.735 259.798V267.25C390.735 270.49 388.872 272.407 385.902 272.407C383.202 272.407 381.636 270.868 381.636 267.844V259.798H379.719V268.033C379.719 272.11 382.095 274.135 385.713 274.135C387.981 274.135 389.817 273.136 390.816 271.408V274H392.652V259.798H390.735ZM401.828 274.135C405.527 274.135 407.687 272.542 407.687 270.085C407.687 264.631 398.48 267.52 398.48 263.686C398.48 262.336 399.614 261.337 402.179 261.337C403.637 261.337 405.122 261.688 406.364 262.552L407.201 261.013C406.013 260.203 404.015 259.69 402.179 259.69C398.561 259.69 396.563 261.418 396.563 263.74C396.563 269.356 405.77 266.44 405.77 270.139C405.77 271.543 404.663 272.461 401.963 272.461C399.965 272.461 398.048 271.759 396.914 270.868L396.05 272.38C397.211 273.379 399.479 274.135 401.828 274.135ZM428.943 259.69C426.378 259.69 424.353 260.851 423.327 262.687C422.463 260.689 420.627 259.69 418.278 259.69C415.902 259.69 414.066 260.689 413.067 262.39V259.798H411.231V274H413.148V266.548C413.148 263.308 415.011 261.418 417.9 261.418C420.492 261.418 422.004 262.957 422.004 265.954V274H423.921V266.548C423.921 263.308 425.757 261.418 428.673 261.418C431.238 261.418 432.75 262.957 432.75 265.954V274H434.667V265.765C434.667 261.688 432.399 259.69 428.943 259.69ZM445.723 274.135C449.881 274.135 452.932 271.111 452.932 266.899C452.932 262.687 449.881 259.69 445.723 259.69C441.565 259.69 438.487 262.687 438.487 266.899C438.487 271.111 441.565 274.135 445.723 274.135ZM445.723 272.434C442.699 272.434 440.431 270.22 440.431 266.899C440.431 263.578 442.699 261.364 445.723 261.364C448.747 261.364 450.988 263.578 450.988 266.899C450.988 270.22 448.747 272.434 445.723 272.434ZM467.889 253.966V262.498C466.701 260.662 464.757 259.69 462.489 259.69C458.439 259.69 455.415 262.606 455.415 266.899C455.415 271.192 458.439 274.135 462.489 274.135C464.838 274.135 466.809 273.109 467.97 271.192V274H469.806V253.966H467.889ZM462.651 272.434C459.627 272.434 457.359 270.22 457.359 266.899C457.359 263.578 459.627 261.364 462.651 261.364C465.648 261.364 467.916 263.578 467.916 266.899C467.916 270.22 465.648 272.434 462.651 272.434ZM489.015 271.759C488.475 272.245 487.692 272.488 486.909 272.488C485.316 272.488 484.452 271.57 484.452 269.896V261.418H488.772V259.798H484.452V256.693H482.535V259.798H479.997V261.418H482.535V270.004C482.535 272.623 484.02 274.135 486.693 274.135C487.8 274.135 488.934 273.811 489.69 273.136L489.015 271.759ZM505.072 266.899C505.072 262.633 502.183 259.69 498.187 259.69C494.191 259.69 491.248 262.687 491.248 266.899C491.248 271.111 494.272 274.135 498.7 274.135C500.941 274.135 502.912 273.325 504.181 271.813L503.101 270.571C502.021 271.813 500.482 272.434 498.754 272.434C495.649 272.434 493.381 270.463 493.165 267.493H505.045C505.045 267.277 505.072 267.061 505.072 266.899ZM498.187 261.337C500.968 261.337 502.993 263.281 503.236 266.062H493.165C493.408 263.281 495.433 261.337 498.187 261.337ZM526.686 259.69C524.121 259.69 522.096 260.851 521.07 262.687C520.206 260.689 518.37 259.69 516.021 259.69C513.645 259.69 511.809 260.689 510.81 262.39V259.798H508.974V274H510.891V266.548C510.891 263.308 512.754 261.418 515.643 261.418C518.235 261.418 519.747 262.957 519.747 265.954V274H521.664V266.548C521.664 263.308 523.5 261.418 526.416 261.418C528.981 261.418 530.493 262.957 530.493 265.954V274H532.41V265.765C532.41 261.688 530.142 259.69 526.686 259.69ZM544.926 259.69C542.577 259.69 540.606 260.716 539.445 262.606V259.798H537.609V279.238H539.526V271.327C540.714 273.163 542.658 274.135 544.926 274.135C548.976 274.135 552 271.219 552 266.899C552 262.606 548.976 259.69 544.926 259.69ZM544.791 272.434C541.767 272.434 539.499 270.22 539.499 266.899C539.499 263.605 541.767 261.364 544.791 261.364C547.788 261.364 550.083 263.605 550.083 266.899C550.083 270.22 547.788 272.434 544.791 272.434ZM561.712 274.135C565.87 274.135 568.921 271.111 568.921 266.899C568.921 262.687 565.87 259.69 561.712 259.69C557.554 259.69 554.476 262.687 554.476 266.899C554.476 271.111 557.554 274.135 561.712 274.135ZM561.712 272.434C558.688 272.434 556.42 270.22 556.42 266.899C556.42 263.578 558.688 261.364 561.712 261.364C564.736 261.364 566.977 263.578 566.977 266.899C566.977 270.22 564.736 272.434 561.712 272.434ZM574.671 262.579V259.798H572.835V274H574.752V266.764C574.752 263.416 576.561 261.526 579.531 261.526C579.666 261.526 579.828 261.553 579.99 261.553V259.69C577.371 259.69 575.562 260.689 574.671 262.579ZM58.645 289.693C59.455 289.693 60.049 289.072 60.049 288.289C60.049 287.56 59.428 286.966 58.645 286.966C57.862 286.966 57.241 287.587 57.241 288.316C57.241 289.072 57.862 289.693 58.645 289.693ZM57.673 307H59.59V292.798H57.673V307ZM72.16 292.69C69.703 292.69 67.786 293.689 66.76 295.417V292.798H64.924V307H66.841V299.548C66.841 296.308 68.758 294.418 71.809 294.418C74.509 294.418 76.075 295.957 76.075 298.954V307H77.992V298.765C77.992 294.688 75.616 292.69 72.16 292.69ZM89.1352 307.135C91.5382 307.135 93.5632 306.163 94.6972 304.327L93.2662 303.355C92.2942 304.786 90.7822 305.434 89.1352 305.434C86.0302 305.434 83.7622 303.247 83.7622 299.899C83.7622 296.578 86.0302 294.364 89.1352 294.364C90.7822 294.364 92.2942 295.039 93.2662 296.47L94.6972 295.498C93.5632 293.635 91.5382 292.69 89.1352 292.69C84.8962 292.69 81.8182 295.66 81.8182 299.899C81.8182 304.138 84.8962 307.135 89.1352 307.135ZM99.435 289.693C100.245 289.693 100.839 289.072 100.839 288.289C100.839 287.56 100.218 286.966 99.435 286.966C98.652 286.966 98.031 287.587 98.031 288.316C98.031 289.072 98.652 289.693 99.435 289.693ZM98.463 307H100.38V292.798H98.463V307ZM116.757 286.966V295.498C115.569 293.662 113.625 292.69 111.357 292.69C107.307 292.69 104.283 295.606 104.283 299.899C104.283 304.192 107.307 307.135 111.357 307.135C113.706 307.135 115.677 306.109 116.838 304.192V307H118.674V286.966H116.757ZM111.519 305.434C108.495 305.434 106.227 303.22 106.227 299.899C106.227 296.578 108.495 294.364 111.519 294.364C114.516 294.364 116.784 296.578 116.784 299.899C116.784 303.22 114.516 305.434 111.519 305.434ZM124.985 289.693C125.795 289.693 126.389 289.072 126.389 288.289C126.389 287.56 125.768 286.966 124.985 286.966C124.202 286.966 123.581 287.587 123.581 288.316C123.581 289.072 124.202 289.693 124.985 289.693ZM124.013 307H125.93V292.798H124.013V307ZM142.307 286.966V295.498C141.119 293.662 139.175 292.69 136.907 292.69C132.857 292.69 129.833 295.606 129.833 299.899C129.833 304.192 132.857 307.135 136.907 307.135C139.256 307.135 141.227 306.109 142.388 304.192V307H144.224V286.966H142.307ZM137.069 305.434C134.045 305.434 131.777 303.22 131.777 299.899C131.777 296.578 134.045 294.364 137.069 294.364C140.066 294.364 142.334 296.578 142.334 299.899C142.334 303.22 140.066 305.434 137.069 305.434ZM160.444 292.798V300.25C160.444 303.49 158.581 305.407 155.611 305.407C152.911 305.407 151.345 303.868 151.345 300.844V292.798H149.428V301.033C149.428 305.11 151.804 307.135 155.422 307.135C157.69 307.135 159.526 306.136 160.525 304.408V307H162.361V292.798H160.444ZM174.966 292.69C172.509 292.69 170.592 293.689 169.566 295.417V292.798H167.73V307H169.647V299.548C169.647 296.308 171.564 294.418 174.615 294.418C177.315 294.418 178.881 295.957 178.881 298.954V307H180.798V298.765C180.798 294.688 178.422 292.69 174.966 292.69ZM192.806 304.759C192.266 305.245 191.483 305.488 190.7 305.488C189.107 305.488 188.243 304.57 188.243 302.896V294.418H192.563V292.798H188.243V289.693H186.326V292.798H183.788V294.418H186.326V303.004C186.326 305.623 187.811 307.135 190.484 307.135C191.591 307.135 192.725 306.811 193.481 306.136L192.806 304.759ZM214.918 292.798V300.25C214.918 303.49 213.055 305.407 210.085 305.407C207.385 305.407 205.819 303.868 205.819 300.844V292.798H203.902V301.033C203.902 305.11 206.278 307.135 209.896 307.135C212.164 307.135 214 306.136 214.999 304.408V307H216.835V292.798H214.918ZM229.008 304.759C228.468 305.245 227.685 305.488 226.902 305.488C225.309 305.488 224.445 304.57 224.445 302.896V294.418H228.765V292.798H224.445V289.693H222.528V292.798H219.99V294.418H222.528V303.004C222.528 305.623 224.013 307.135 226.686 307.135C227.793 307.135 228.927 306.811 229.683 306.136L229.008 304.759ZM240.239 307H242.156V286.966H240.239V307ZM252.458 292.69C250.217 292.69 248.111 293.392 246.68 294.607L247.544 296.038C248.705 295.012 250.433 294.364 252.269 294.364C254.915 294.364 256.292 295.687 256.292 298.117V298.981H251.783C247.706 298.981 246.302 300.817 246.302 303.004C246.302 305.461 248.273 307.135 251.486 307.135C253.835 307.135 255.509 306.244 256.373 304.786V307H258.209V298.198C258.209 294.526 256.13 292.69 252.458 292.69ZM251.783 305.623C249.515 305.623 248.192 304.597 248.192 302.95C248.192 301.492 249.083 300.412 251.837 300.412H256.292V302.734C255.536 304.597 253.943 305.623 251.783 305.623ZM270.733 292.69C268.465 292.69 266.521 293.662 265.333 295.498V286.966H263.416V307H265.252V304.192C266.413 306.109 268.384 307.135 270.733 307.135C274.783 307.135 277.807 304.192 277.807 299.899C277.807 295.606 274.783 292.69 270.733 292.69ZM270.598 305.434C267.574 305.434 265.306 303.22 265.306 299.899C265.306 296.578 267.574 294.364 270.598 294.364C273.595 294.364 275.89 296.578 275.89 299.899C275.89 303.22 273.595 305.434 270.598 305.434ZM287.52 307.135C291.678 307.135 294.729 304.111 294.729 299.899C294.729 295.687 291.678 292.69 287.52 292.69C283.362 292.69 280.284 295.687 280.284 299.899C280.284 304.111 283.362 307.135 287.52 307.135ZM287.52 305.434C284.496 305.434 282.228 303.22 282.228 299.899C282.228 296.578 284.496 294.364 287.52 294.364C290.544 294.364 292.785 296.578 292.785 299.899C292.785 303.22 290.544 305.434 287.52 305.434ZM300.479 295.579V292.798H298.643V307H300.56V299.764C300.56 296.416 302.369 294.526 305.339 294.526C305.474 294.526 305.636 294.553 305.798 294.553V292.69C303.179 292.69 301.37 293.689 300.479 295.579ZM321.53 299.899C321.53 295.633 318.641 292.69 314.645 292.69C310.649 292.69 307.706 295.687 307.706 299.899C307.706 304.111 310.73 307.135 315.158 307.135C317.399 307.135 319.37 306.325 320.639 304.813L319.559 303.571C318.479 304.813 316.94 305.434 315.212 305.434C312.107 305.434 309.839 303.463 309.623 300.493H321.503C321.503 300.277 321.53 300.061 321.53 299.899ZM314.645 294.337C317.426 294.337 319.451 296.281 319.694 299.062H309.623C309.866 296.281 311.891 294.337 314.645 294.337ZM344.891 299.899C344.891 295.633 342.002 292.69 338.006 292.69C334.01 292.69 331.067 295.687 331.067 299.899C331.067 304.111 334.091 307.135 338.519 307.135C340.76 307.135 342.731 306.325 344 304.813L342.92 303.571C341.84 304.813 340.301 305.434 338.573 305.434C335.468 305.434 333.2 303.463 332.984 300.493H344.864C344.864 300.277 344.891 300.061 344.891 299.899ZM338.006 294.337C340.787 294.337 342.812 296.281 343.055 299.062H332.984C333.227 296.281 335.252 294.337 338.006 294.337ZM355.597 304.759C355.057 305.245 354.274 305.488 353.491 305.488C351.898 305.488 351.034 304.57 351.034 302.896V294.418H355.354V292.798H351.034V289.693H349.117V292.798H346.579V294.418H349.117V303.004C349.117 305.623 350.602 307.135 353.275 307.135C354.382 307.135 355.516 306.811 356.272 306.136L355.597 304.759ZM377.871 286.966V295.498C376.683 293.662 374.739 292.69 372.471 292.69C368.421 292.69 365.397 295.606 365.397 299.899C365.397 304.192 368.421 307.135 372.471 307.135C374.82 307.135 376.791 306.109 377.952 304.192V307H379.788V286.966H377.871ZM372.633 305.434C369.609 305.434 367.341 303.22 367.341 299.899C367.341 296.578 369.609 294.364 372.633 294.364C375.63 294.364 377.898 296.578 377.898 299.899C377.898 303.22 375.63 305.434 372.633 305.434ZM390.932 307.135C395.09 307.135 398.141 304.111 398.141 299.899C398.141 295.687 395.09 292.69 390.932 292.69C386.774 292.69 383.696 295.687 383.696 299.899C383.696 304.111 386.774 307.135 390.932 307.135ZM390.932 305.434C387.908 305.434 385.64 303.22 385.64 299.899C385.64 296.578 387.908 294.364 390.932 294.364C393.956 294.364 396.197 296.578 396.197 299.899C396.197 303.22 393.956 305.434 390.932 305.434ZM402.055 307H403.972V286.966H402.055V307ZM415.111 307.135C419.269 307.135 422.32 304.111 422.32 299.899C422.32 295.687 419.269 292.69 415.111 292.69C410.953 292.69 407.875 295.687 407.875 299.899C407.875 304.111 410.953 307.135 415.111 307.135ZM415.111 305.434C412.087 305.434 409.819 303.22 409.819 299.899C409.819 296.578 412.087 294.364 415.111 294.364C418.135 294.364 420.376 296.578 420.376 299.899C420.376 303.22 418.135 305.434 415.111 305.434ZM428.07 295.579V292.798H426.234V307H428.151V299.764C428.151 296.416 429.96 294.526 432.93 294.526C433.065 294.526 433.227 294.553 433.389 294.553V292.69C430.77 292.69 428.961 293.689 428.07 295.579ZM449.121 299.899C449.121 295.633 446.232 292.69 442.236 292.69C438.24 292.69 435.297 295.687 435.297 299.899C435.297 304.111 438.321 307.135 442.749 307.135C444.99 307.135 446.961 306.325 448.23 304.813L447.15 303.571C446.07 304.813 444.531 305.434 442.803 305.434C439.698 305.434 437.43 303.463 437.214 300.493H449.094C449.094 300.277 449.121 300.061 449.121 299.899ZM442.236 294.337C445.017 294.337 447.042 296.281 447.285 299.062H437.214C437.457 296.281 439.482 294.337 442.236 294.337ZM477.801 292.69C475.236 292.69 473.211 293.851 472.185 295.687C471.321 293.689 469.485 292.69 467.136 292.69C464.76 292.69 462.924 293.689 461.925 295.39V292.798H460.089V307H462.006V299.548C462.006 296.308 463.869 294.418 466.758 294.418C469.35 294.418 470.862 295.957 470.862 298.954V307H472.779V299.548C472.779 296.308 474.615 294.418 477.531 294.418C480.096 294.418 481.608 295.957 481.608 298.954V307H483.525V298.765C483.525 294.688 481.257 292.69 477.801 292.69ZM493.692 292.69C491.451 292.69 489.345 293.392 487.914 294.607L488.778 296.038C489.939 295.012 491.667 294.364 493.503 294.364C496.149 294.364 497.526 295.687 497.526 298.117V298.981H493.017C488.94 298.981 487.536 300.817 487.536 303.004C487.536 305.461 489.507 307.135 492.72 307.135C495.069 307.135 496.743 306.244 497.607 304.786V307H499.443V298.198C499.443 294.526 497.364 292.69 493.692 292.69ZM493.017 305.623C490.749 305.623 489.426 304.597 489.426 302.95C489.426 301.492 490.317 300.412 493.071 300.412H497.526V302.734C496.77 304.597 495.177 305.623 493.017 305.623ZM516.015 292.798V295.525C514.827 293.662 512.775 292.69 510.399 292.69C506.349 292.69 503.271 295.471 503.271 299.548C503.271 303.625 506.349 306.46 510.399 306.46C512.721 306.46 514.746 305.515 515.934 303.706V305.515C515.934 309.025 514.287 310.672 510.696 310.672C508.509 310.672 506.457 309.943 505.107 308.728L504.135 310.186C505.62 311.59 508.158 312.373 510.75 312.373C515.448 312.373 517.851 310.159 517.851 305.272V292.798H516.015ZM510.588 304.759C507.456 304.759 505.215 302.626 505.215 299.548C505.215 296.47 507.456 294.364 510.588 294.364C513.72 294.364 515.988 296.47 515.988 299.548C515.988 302.626 513.72 304.759 510.588 304.759ZM530.448 292.69C527.991 292.69 526.074 293.689 525.048 295.417V292.798H523.212V307H525.129V299.548C525.129 296.308 527.046 294.418 530.097 294.418C532.797 294.418 534.363 295.957 534.363 298.954V307H536.28V298.765C536.28 294.688 533.904 292.69 530.448 292.69ZM546.453 292.69C544.212 292.69 542.106 293.392 540.675 294.607L541.539 296.038C542.7 295.012 544.428 294.364 546.264 294.364C548.91 294.364 550.287 295.687 550.287 298.117V298.981H545.778C541.701 298.981 540.297 300.817 540.297 303.004C540.297 305.461 542.268 307.135 545.481 307.135C547.83 307.135 549.504 306.244 550.368 304.786V307H552.204V298.198C552.204 294.526 550.125 292.69 546.453 292.69ZM545.778 305.623C543.51 305.623 542.187 304.597 542.187 302.95C542.187 301.492 543.078 300.412 545.832 300.412H550.287V302.734C549.531 304.597 547.938 305.623 545.778 305.623ZM569.445 292.69C567.204 292.69 565.098 293.392 563.667 294.607L564.531 296.038C565.692 295.012 567.42 294.364 569.256 294.364C571.902 294.364 573.279 295.687 573.279 298.117V298.981H568.77C564.693 298.981 563.289 300.817 563.289 303.004C563.289 305.461 565.26 307.135 568.473 307.135C570.822 307.135 572.496 306.244 573.36 304.786V307H575.196V298.198C575.196 294.526 573.117 292.69 569.445 292.69ZM568.77 305.623C566.502 305.623 565.179 304.597 565.179 302.95C565.179 301.492 566.07 300.412 568.824 300.412H573.279V302.734C572.523 304.597 570.93 305.623 568.77 305.623ZM580.402 307H582.319V286.966H580.402V307ZM588.625 289.693C589.435 289.693 590.029 289.072 590.029 288.289C590.029 287.56 589.408 286.966 588.625 286.966C587.842 286.966 587.221 287.587 587.221 288.316C587.221 289.072 587.842 289.693 588.625 289.693ZM587.653 307H589.57V292.798H587.653V307ZM606.028 292.798V295.606C604.867 293.716 602.896 292.69 600.547 292.69C596.497 292.69 593.473 295.606 593.473 299.899C593.473 304.219 596.497 307.135 600.547 307.135C602.815 307.135 604.759 306.163 605.947 304.327V312.238H607.864V292.798H606.028ZM600.709 305.434C597.685 305.434 595.417 303.22 595.417 299.899C595.417 296.605 597.685 294.364 600.709 294.364C603.706 294.364 605.974 296.605 605.974 299.899C605.974 303.22 603.706 305.434 600.709 305.434ZM624.084 292.798V300.25C624.084 303.49 622.221 305.407 619.251 305.407C616.551 305.407 614.985 303.868 614.985 300.844V292.798H613.068V301.033C613.068 305.11 615.444 307.135 619.062 307.135C621.33 307.135 623.166 306.136 624.165 304.408V307H626.001V292.798H624.084ZM636.338 292.69C634.097 292.69 631.991 293.392 630.56 294.607L631.424 296.038C632.585 295.012 634.313 294.364 636.149 294.364C638.795 294.364 640.172 295.687 640.172 298.117V298.981H635.663C631.586 298.981 630.182 300.817 630.182 303.004C630.182 305.461 632.153 307.135 635.366 307.135C637.715 307.135 639.389 306.244 640.253 304.786V307H642.089V298.198C642.089 294.526 640.01 292.69 636.338 292.69ZM635.663 305.623C633.395 305.623 632.072 304.597 632.072 302.95C632.072 301.492 632.963 300.412 635.717 300.412H640.172V302.734C639.416 304.597 637.823 305.623 635.663 305.623ZM647.485 307.135C648.268 307.135 648.943 306.487 648.943 305.65C648.943 304.813 648.268 304.192 647.485 304.192C646.702 304.192 646.054 304.813 646.054 305.65C646.054 306.487 646.702 307.135 647.485 307.135ZM65.692 340.162C70.525 340.162 73.441 337.354 73.441 331.927V321.1H71.497V331.846C71.497 336.328 69.391 338.38 65.692 338.38C62.02 338.38 59.914 336.328 59.914 331.846V321.1H57.916V331.927C57.916 337.354 60.859 340.162 65.692 340.162ZM85.8608 337.759C85.3208 338.245 84.5378 338.488 83.7548 338.488C82.1618 338.488 81.2978 337.57 81.2978 335.896V327.418H85.6178V325.798H81.2978V322.693H79.3808V325.798H76.8428V327.418H79.3808V336.004C79.3808 338.623 80.8658 340.135 83.5388 340.135C84.6458 340.135 85.7798 339.811 86.5358 339.136L85.8608 337.759ZM109.485 332.899C109.485 328.633 106.596 325.69 102.6 325.69C98.6039 325.69 95.6609 328.687 95.6609 332.899C95.6609 337.111 98.6849 340.135 103.113 340.135C105.354 340.135 107.325 339.325 108.594 337.813L107.514 336.571C106.434 337.813 104.895 338.434 103.167 338.434C100.062 338.434 97.7939 336.463 97.5779 333.493H109.458C109.458 333.277 109.485 333.061 109.485 332.899ZM102.6 327.337C105.381 327.337 107.406 329.281 107.649 332.062H97.5779C97.8209 329.281 99.8459 327.337 102.6 327.337ZM120.623 325.69C118.166 325.69 116.249 326.689 115.223 328.417V325.798H113.387V340H115.304V332.548C115.304 329.308 117.221 327.418 120.272 327.418C122.972 327.418 124.538 328.957 124.538 331.954V340H126.455V331.765C126.455 327.688 124.079 325.69 120.623 325.69ZM132.631 322.693C133.441 322.693 134.035 322.072 134.035 321.289C134.035 320.56 133.414 319.966 132.631 319.966C131.848 319.966 131.227 320.587 131.227 321.316C131.227 322.072 131.848 322.693 132.631 322.693ZM131.659 340H133.576V325.798H131.659V340ZM156.622 325.69C154.057 325.69 152.032 326.851 151.006 328.687C150.142 326.689 148.306 325.69 145.957 325.69C143.581 325.69 141.745 326.689 140.746 328.39V325.798H138.91V340H140.827V332.548C140.827 329.308 142.69 327.418 145.579 327.418C148.171 327.418 149.683 328.957 149.683 331.954V340H151.6V332.548C151.6 329.308 153.436 327.418 156.352 327.418C158.917 327.418 160.429 328.957 160.429 331.954V340H162.346V331.765C162.346 327.688 160.078 325.69 156.622 325.69ZM179.579 325.69C177.338 325.69 175.232 326.392 173.801 327.607L174.665 329.038C175.826 328.012 177.554 327.364 179.39 327.364C182.036 327.364 183.413 328.687 183.413 331.117V331.981H178.904C174.827 331.981 173.423 333.817 173.423 336.004C173.423 338.461 175.394 340.135 178.607 340.135C180.956 340.135 182.63 339.244 183.494 337.786V340H185.33V331.198C185.33 327.526 183.251 325.69 179.579 325.69ZM178.904 338.623C176.636 338.623 175.313 337.597 175.313 335.95C175.313 334.492 176.204 333.412 178.958 333.412H183.413V335.734C182.657 337.597 181.064 338.623 178.904 338.623ZM201.633 319.966V328.498C200.445 326.662 198.501 325.69 196.233 325.69C192.183 325.69 189.159 328.606 189.159 332.899C189.159 337.192 192.183 340.135 196.233 340.135C198.582 340.135 200.553 339.109 201.714 337.192V340H203.55V319.966H201.633ZM196.395 338.434C193.371 338.434 191.103 336.22 191.103 332.899C191.103 329.578 193.371 327.364 196.395 327.364C199.392 327.364 201.66 329.578 201.66 332.899C201.66 336.22 199.392 338.434 196.395 338.434ZM233.667 325.69C231.102 325.69 229.077 326.851 228.051 328.687C227.187 326.689 225.351 325.69 223.002 325.69C220.626 325.69 218.79 326.689 217.791 328.39V325.798H215.955V340H217.872V332.548C217.872 329.308 219.735 327.418 222.624 327.418C225.216 327.418 226.728 328.957 226.728 331.954V340H228.645V332.548C228.645 329.308 230.481 327.418 233.397 327.418C235.962 327.418 237.474 328.957 237.474 331.954V340H239.391V331.765C239.391 327.688 237.123 325.69 233.667 325.69ZM245.562 322.693C246.372 322.693 246.966 322.072 246.966 321.289C246.966 320.56 246.345 319.966 245.562 319.966C244.779 319.966 244.158 320.587 244.158 321.316C244.158 322.072 244.779 322.693 245.562 322.693ZM244.59 340H246.507V325.798H244.59V340ZM259.077 325.69C256.62 325.69 254.703 326.689 253.677 328.417V325.798H251.841V340H253.758V332.548C253.758 329.308 255.675 327.418 258.726 327.418C261.426 327.418 262.992 328.957 262.992 331.954V340H264.909V331.765C264.909 327.688 262.533 325.69 259.077 325.69ZM271.085 322.693C271.895 322.693 272.489 322.072 272.489 321.289C272.489 320.56 271.868 319.966 271.085 319.966C270.302 319.966 269.681 320.587 269.681 321.316C269.681 322.072 270.302 322.693 271.085 322.693ZM270.113 340H272.03V325.798H270.113V340ZM295.076 325.69C292.511 325.69 290.486 326.851 289.46 328.687C288.596 326.689 286.76 325.69 284.411 325.69C282.035 325.69 280.199 326.689 279.2 328.39V325.798H277.364V340H279.281V332.548C279.281 329.308 281.144 327.418 284.033 327.418C286.625 327.418 288.137 328.957 288.137 331.954V340H290.054V332.548C290.054 329.308 291.89 327.418 294.806 327.418C297.371 327.418 298.883 328.957 298.883 331.954V340H300.8V331.765C300.8 327.688 298.532 325.69 295.076 325.69ZM323.11 325.798L317.737 337.894L312.418 325.798H310.42L316.711 340H318.682L325 325.798H323.11ZM339.697 332.899C339.697 328.633 336.808 325.69 332.812 325.69C328.816 325.69 325.873 328.687 325.873 332.899C325.873 337.111 328.897 340.135 333.325 340.135C335.566 340.135 337.537 339.325 338.806 337.813L337.726 336.571C336.646 337.813 335.107 338.434 333.379 338.434C330.274 338.434 328.006 336.463 327.79 333.493H339.67C339.67 333.277 339.697 333.061 339.697 332.899ZM332.812 327.337C335.593 327.337 337.618 329.281 337.861 332.062H327.79C328.033 329.281 330.058 327.337 332.812 327.337ZM350.835 325.69C348.378 325.69 346.461 326.689 345.435 328.417V325.798H343.599V340H345.516V332.548C345.516 329.308 347.433 327.418 350.484 327.418C353.184 327.418 354.75 328.957 354.75 331.954V340H356.667V331.765C356.667 327.688 354.291 325.69 350.835 325.69ZM362.843 322.693C363.653 322.693 364.247 322.072 364.247 321.289C364.247 320.56 363.626 319.966 362.843 319.966C362.06 319.966 361.439 320.587 361.439 321.316C361.439 322.072 362.06 322.693 362.843 322.693ZM361.871 340H363.788V325.798H361.871V340ZM374.09 325.69C371.849 325.69 369.743 326.392 368.312 327.607L369.176 329.038C370.337 328.012 372.065 327.364 373.901 327.364C376.547 327.364 377.924 328.687 377.924 331.117V331.981H373.415C369.338 331.981 367.934 333.817 367.934 336.004C367.934 338.461 369.905 340.135 373.118 340.135C375.467 340.135 377.141 339.244 378.005 337.786V340H379.841V331.198C379.841 327.526 377.762 325.69 374.09 325.69ZM373.415 338.623C371.147 338.623 369.824 337.597 369.824 335.95C369.824 334.492 370.715 333.412 373.469 333.412H377.924V335.734C377.168 337.597 375.575 338.623 373.415 338.623ZM402.76 325.69C400.195 325.69 398.17 326.851 397.144 328.687C396.28 326.689 394.444 325.69 392.095 325.69C389.719 325.69 387.883 326.689 386.884 328.39V325.798H385.048V340H386.965V332.548C386.965 329.308 388.828 327.418 391.717 327.418C394.309 327.418 395.821 328.957 395.821 331.954V340H397.738V332.548C397.738 329.308 399.574 327.418 402.49 327.418C405.055 327.418 406.567 328.957 406.567 331.954V340H408.484V331.765C408.484 327.688 406.216 325.69 402.76 325.69ZM413.899 337.192C413.089 337.192 412.468 337.813 412.468 338.65C412.468 339.352 412.873 339.865 413.44 340.027L412.522 343.942H413.818L414.952 340.216C415.222 339.46 415.33 339.109 415.33 338.65C415.33 337.84 414.736 337.192 413.899 337.192ZM437.595 325.798V328.606C436.434 326.716 434.463 325.69 432.114 325.69C428.064 325.69 425.04 328.606 425.04 332.899C425.04 337.219 428.064 340.135 432.114 340.135C434.382 340.135 436.326 339.163 437.514 337.327V345.238H439.431V325.798H437.595ZM432.276 338.434C429.252 338.434 426.984 336.22 426.984 332.899C426.984 329.605 429.252 327.364 432.276 327.364C435.273 327.364 437.541 329.605 437.541 332.899C437.541 336.22 435.273 338.434 432.276 338.434ZM455.651 325.798V333.25C455.651 336.49 453.788 338.407 450.818 338.407C448.118 338.407 446.552 336.868 446.552 333.844V325.798H444.635V334.033C444.635 338.11 447.011 340.135 450.629 340.135C452.897 340.135 454.733 339.136 455.732 337.408V340H457.568V325.798H455.651ZM463.909 322.693C464.719 322.693 465.313 322.072 465.313 321.289C465.313 320.56 464.692 319.966 463.909 319.966C463.126 319.966 462.505 320.587 462.505 321.316C462.505 322.072 463.126 322.693 463.909 322.693ZM462.937 340H464.854V325.798H462.937V340ZM473.995 340.135C477.694 340.135 479.854 338.542 479.854 336.085C479.854 330.631 470.647 333.52 470.647 329.686C470.647 328.336 471.781 327.337 474.346 327.337C475.804 327.337 477.289 327.688 478.531 328.552L479.368 327.013C478.18 326.203 476.182 325.69 474.346 325.69C470.728 325.69 468.73 327.418 468.73 329.74C468.73 335.356 477.937 332.44 477.937 336.139C477.937 337.543 476.83 338.461 474.13 338.461C472.132 338.461 470.215 337.759 469.081 336.868L468.217 338.38C469.378 339.379 471.646 340.135 473.995 340.135ZM497.7 325.69C495.243 325.69 493.326 326.689 492.3 328.417V325.798H490.464V340H492.381V332.548C492.381 329.308 494.298 327.418 497.349 327.418C500.049 327.418 501.615 328.957 501.615 331.954V340H503.532V331.765C503.532 327.688 501.156 325.69 497.7 325.69ZM514.594 340.135C518.752 340.135 521.803 337.111 521.803 332.899C521.803 328.687 518.752 325.69 514.594 325.69C510.436 325.69 507.358 328.687 507.358 332.899C507.358 337.111 510.436 340.135 514.594 340.135ZM514.594 338.434C511.57 338.434 509.302 336.22 509.302 332.899C509.302 329.578 511.57 327.364 514.594 327.364C517.618 327.364 519.859 329.578 519.859 332.899C519.859 336.22 517.618 338.434 514.594 338.434ZM529.524 340.135C533.223 340.135 535.383 338.542 535.383 336.085C535.383 330.631 526.176 333.52 526.176 329.686C526.176 328.336 527.31 327.337 529.875 327.337C531.333 327.337 532.818 327.688 534.06 328.552L534.897 327.013C533.709 326.203 531.711 325.69 529.875 325.69C526.257 325.69 524.259 327.418 524.259 329.74C524.259 335.356 533.466 332.44 533.466 336.139C533.466 337.543 532.359 338.461 529.659 338.461C527.661 338.461 525.744 337.759 524.61 336.868L523.746 338.38C524.907 339.379 527.175 340.135 529.524 340.135ZM545.731 337.759C545.191 338.245 544.408 338.488 543.625 338.488C542.032 338.488 541.168 337.57 541.168 335.896V327.418H545.488V325.798H541.168V322.693H539.251V325.798H536.713V327.418H539.251V336.004C539.251 338.623 540.736 340.135 543.409 340.135C544.516 340.135 545.65 339.811 546.406 339.136L545.731 337.759ZM551.732 328.579V325.798H549.896V340H551.813V332.764C551.813 329.416 553.622 327.526 556.592 327.526C556.727 327.526 556.889 327.553 557.051 327.553V325.69C554.432 325.69 552.623 326.689 551.732 328.579ZM571.614 325.798V333.25C571.614 336.49 569.751 338.407 566.781 338.407C564.081 338.407 562.515 336.868 562.515 333.844V325.798H560.598V334.033C560.598 338.11 562.974 340.135 566.592 340.135C568.86 340.135 570.696 339.136 571.695 337.408V340H573.531V325.798H571.614ZM589.943 319.966V328.498C588.755 326.662 586.811 325.69 584.543 325.69C580.493 325.69 577.469 328.606 577.469 332.899C577.469 337.192 580.493 340.135 584.543 340.135C586.892 340.135 588.863 339.109 590.024 337.192V340H591.86V319.966H589.943ZM584.705 338.434C581.681 338.434 579.413 336.22 579.413 332.899C579.413 329.578 581.681 327.364 584.705 327.364C587.702 327.364 589.97 329.578 589.97 332.899C589.97 336.22 587.702 338.434 584.705 338.434Z" fill="#1E1E1E"/>
</svg>
