<svg width="830" height="620" viewBox="0 0 830 620" fill="none" xmlns="http://www.w3.org/2000/svg">
<g clip-path="url(#clip0)">
<path opacity="0.1" d="M399.59 662.986C588.69 662.986 741.986 652.344 741.986 639.216C741.986 626.088 588.69 615.446 399.59 615.446C210.49 615.446 57.1943 626.088 57.1943 639.216C57.1943 652.344 210.49 662.986 399.59 662.986Z" fill="#032B4D"/>
<path opacity="0.65" d="M27.0752 76.3481C5.73955 101.343 0.342046 133.028 0.047926 163.408C-0.158753 184.831 2.76655 208.068 20.6364 223.867C44.158 244.653 89.3175 248.75 100.971 275.312C111.305 298.915 87.2586 322.66 64.1582 339.318C41.0579 355.976 14.5314 376.373 18.8478 401.177C21.5823 417.015 36.5825 429.449 51.5429 439.886C79.9851 459.774 111.957 477.172 147.998 485.636C213.389 500.973 284.017 485.095 345.29 461.055C383.009 446.258 426.801 428.097 464.257 443.315C474.146 447.332 482.541 453.402 491.658 458.429C518.169 472.963 550.546 478.317 582.057 482.859C628.242 489.542 676.779 495.118 721.279 483.066C765.779 471.014 804.237 435.765 797.424 398.17C791.001 362.754 750.111 339.668 717.527 315.477C706.032 306.941 694.331 295.629 697.193 283.211C699.466 273.363 710.166 266.506 719.705 260.142C769.912 226.46 806.812 179.963 823.776 128.979C831.789 104.923 834.682 77.2073 816.805 56.9219C802.385 40.5583 777.671 32.6987 754.165 26.2313C710.548 14.2271 665.841 4.0844 619.966 1.34786C574.092 -1.38868 526.698 3.82984 485.975 21.148C466.444 29.461 448.741 40.4072 429.019 48.41C373.024 71.1296 307.046 68.0749 244.597 64.4871C222.284 63.2064 198.961 60.9312 179.589 51.1783C162.895 42.7619 153.356 36.7319 132.688 35.7932C92.1792 33.9556 50.271 49.1259 27.0752 76.3481Z" fill="#FDCA05"/>
<path d="M329.463 247.573L328.589 249.379L322.921 261.033L263.469 383.199L162.585 630.569L148.166 630.681L249.104 383.199L317.889 241.837L322.921 244.327L328.589 247.135L329.463 247.573Z" fill="#032B4D"/>
<path d="M506.46 630.681L494.592 630.569L393.7 383.199L335.814 264.239L328.588 249.379L327.706 247.573L328.588 247.135L335.814 243.556L339.288 241.837L407.039 383.199L506.46 630.681Z" fill="#032B4D"/>
<path d="M335.822 208.609H322.92V630.68H335.822V208.609Z" fill="#032B4D"/>
<path d="M327.897 139.074C323.544 139.078 319.372 140.81 316.294 143.89C313.217 146.97 311.486 151.145 311.482 155.501V161.372C311.433 163.56 311.823 165.736 312.626 167.771C313.43 169.807 314.631 171.662 316.161 173.226C317.69 174.791 319.516 176.034 321.532 176.883C323.548 177.731 325.713 178.168 327.901 178.168C330.088 178.168 332.253 177.731 334.269 176.883C336.285 176.034 338.111 174.791 339.64 173.226C341.17 171.662 342.372 169.807 343.175 167.771C343.979 165.736 344.368 163.56 344.32 161.372V155.501C344.313 151.145 342.581 146.969 339.502 143.889C336.423 140.81 332.25 139.078 327.897 139.074ZM340.21 161.348C340.21 164.618 338.912 167.754 336.601 170.067C334.29 172.379 331.156 173.678 327.889 173.678C324.621 173.678 321.487 172.379 319.176 170.067C316.866 167.754 315.567 164.618 315.567 161.348V155.477C315.567 152.207 316.866 149.071 319.176 146.758C321.487 144.446 324.621 143.147 327.889 143.147C331.156 143.147 334.29 144.446 336.601 146.758C338.912 149.071 340.21 152.207 340.21 155.477V161.348Z" fill="#535461"/>
<path opacity="0.1" d="M407.039 383.199H393.7L335.814 264.239V383.199H322.92V261.033L263.468 383.199H249.104L317.888 241.837L322.92 244.327V208.609H335.814V243.555L339.288 241.837L407.039 383.199Z" fill="black"/>
<path opacity="0.1" d="M344.32 156.09V161.372C344.368 163.56 343.979 165.736 343.175 167.772C342.372 169.807 341.17 171.662 339.64 173.226C338.111 174.791 336.285 176.034 334.269 176.883C332.253 177.732 330.088 178.169 327.901 178.169C325.713 178.169 323.548 177.732 321.532 176.883C319.516 176.034 317.69 174.791 316.161 173.226C314.631 171.662 313.43 169.807 312.626 167.772C311.823 165.736 311.433 163.56 311.482 161.372V156.09H315.583V161.372C315.583 164.642 316.881 167.778 319.192 170.091C321.503 172.403 324.637 173.702 327.905 173.702C331.172 173.702 334.306 172.403 336.617 170.091C338.928 167.778 340.226 164.642 340.226 161.372V156.09H344.32Z" fill="black"/>
<path d="M575.951 157.267H79.8496V381.441H575.951V157.267Z" fill="#032B4D"/>
<path d="M565.983 164.307H88.6494V368.529H565.983V164.307Z" fill="white"/>
<g opacity="0.2">
<path opacity="0.2" d="M158.356 186.51H135.789V196.796H158.356V186.51Z" fill="#6C63FF"/>
</g>
<g opacity="0.2">
<path opacity="0.2" d="M158.356 206.405H135.789V216.691H158.356V206.405Z" fill="#6C63FF"/>
</g>
<g opacity="0.2">
<path opacity="0.2" d="M158.356 226.293H135.789V236.579H158.356V226.293Z" fill="#6C63FF"/>
</g>
<g opacity="0.2">
<path opacity="0.2" d="M158.356 246.181H135.789V256.467H158.356V246.181Z" fill="#6C63FF"/>
</g>
<g opacity="0.2">
<path opacity="0.2" d="M158.356 266.076H135.789V276.362H158.356V266.076Z" fill="#6C63FF"/>
</g>
<g opacity="0.2">
<path opacity="0.2" d="M158.356 285.964H135.789V296.25H158.356V285.964Z" fill="#6C63FF"/>
</g>
<g opacity="0.2">
<path opacity="0.2" d="M158.356 305.852H135.789V316.137H158.356V305.852Z" fill="#6C63FF"/>
</g>
<g opacity="0.2">
<path opacity="0.2" d="M158.356 325.739H135.789V336.025H158.356V325.739Z" fill="#6C63FF"/>
</g>
<g opacity="0.2">
<path opacity="0.2" d="M200.844 336.033H178.276V346.319H200.844V336.033Z" fill="#6C63FF"/>
</g>
<g opacity="0.2">
<path opacity="0.2" d="M240.599 336.033H218.031V346.319H240.599V336.033Z" fill="#6C63FF"/>
</g>
<g opacity="0.2">
<path opacity="0.2" d="M280.345 336.033H257.777V346.319H280.345V336.033Z" fill="#6C63FF"/>
</g>
<g opacity="0.2">
<path opacity="0.2" d="M320.099 336.033H297.531V346.319H320.099V336.033Z" fill="#6C63FF"/>
</g>
<g opacity="0.2">
<path opacity="0.2" d="M359.844 336.033H337.276V346.319H359.844V336.033Z" fill="#6C63FF"/>
</g>
<g opacity="0.2">
<path opacity="0.2" d="M399.598 336.033H377.03V346.319H399.598V336.033Z" fill="#6C63FF"/>
</g>
<g opacity="0.2">
<path opacity="0.2" d="M439.345 336.033H416.777V346.319H439.345V336.033Z" fill="#6C63FF"/>
</g>
<g opacity="0.2">
<path opacity="0.2" d="M479.099 336.033H456.531V346.319H479.099V336.033Z" fill="#6C63FF"/>
</g>
<g opacity="0.2">
<path opacity="0.2" d="M518.844 336.033H496.276V346.319H518.844V336.033Z" fill="#6C63FF"/>
</g>
<g opacity="0.2">
<path opacity="0.2" d="M399.598 246.181H377.03V325.739H399.598V246.181Z" fill="#6C63FF"/>
</g>
<g opacity="0.2">
<path opacity="0.2" d="M439.345 246.181H416.777V325.739H439.345V246.181Z" fill="#6C63FF"/>
</g>
<g opacity="0.2">
<path opacity="0.2" d="M479.099 246.181H456.531V325.739H479.099V246.181Z" fill="#6C63FF"/>
</g>
<g opacity="0.2">
<path opacity="0.2" d="M518.844 246.181H496.276V325.739H518.844V246.181Z" fill="#6C63FF"/>
</g>
<path d="M722.479 324.57C722.479 324.57 732.591 307.928 729.904 281.819C727.217 255.711 717.495 213.454 717.495 213.454C717.495 213.454 721.716 189.779 698.822 186.454C698.822 186.454 684.593 183.805 674.418 177.401C670.635 175.015 667.415 172.127 665.674 168.651C665.674 168.651 665.539 169.041 665.277 169.757C665.052 169.399 664.845 169.03 664.657 168.651C664.657 168.651 664.601 168.794 664.514 169.049L660.627 162.987C660.627 162.987 660.094 163.552 659.196 164.482C657.632 162.237 656.301 159.838 655.221 157.323C656.188 157.089 657.136 156.786 658.059 156.416C658.941 156.124 659.737 155.615 660.372 154.936C660.929 154.162 661.289 153.264 661.421 152.319C662.041 149.295 662.218 146.198 661.946 143.123C661.731 140.737 661.247 138.35 661.413 135.924C661.588 133.338 662.503 130.84 662.63 128.247C662.852 123.681 660.587 119.337 657.789 115.718C656.119 113.562 654.243 111.557 652.797 109.25C651.541 107.246 650.626 105.034 649.275 103.085C646.095 98.5509 640.793 95.878 635.356 94.9313C629.919 93.9847 624.322 94.5734 618.877 95.4723C614.108 96.2678 609.338 97.4213 604.569 97.6997C600.403 97.9383 597.009 96.5303 593.193 99.2907C591.93 100.223 590.88 101.415 590.115 102.788C589.35 104.16 588.887 105.68 588.758 107.246C588.696 107.779 588.736 108.319 588.877 108.837C589.102 109.373 589.368 109.892 589.672 110.388C591.365 113.729 588.79 117.699 589.123 121.43C589.327 123.079 590.082 124.612 591.265 125.779C592.448 126.946 593.99 127.678 595.642 127.857C595.491 128.176 595.324 128.486 595.181 128.812C593.069 133.585 592.12 138.792 592.41 144.003C592.7 149.215 594.222 154.284 596.85 158.793C599.478 163.302 603.137 167.123 607.528 169.941C611.918 172.76 616.914 174.496 622.105 175.007L623.583 176.145C626.922 178.73 630.674 181.824 634.291 185.189L634.219 185.245L633.631 184.911C632.53 185.782 631.372 186.58 630.165 187.298C626.819 189.35 621.421 192.015 615.348 192.317C615.348 192.317 604.473 198.085 600.729 217.105C595.356 221.926 583.853 230.629 568.654 232.896C547.295 236.078 520.959 237.12 520.959 237.12C520.959 237.12 520.744 237.502 520.442 238.202L518.01 237.756C518.01 237.756 518.01 238.051 517.907 238.552L516.953 238.122C509.409 234.821 494.337 230.008 492.429 243.269C489.87 261.057 506.817 259.012 506.817 259.012C510.169 257.738 513.603 256.694 517.096 255.886L518.042 255.703C518.202 256.167 518.427 256.606 518.709 257.008H521.015C521.815 258.666 522.782 260.238 523.9 261.701L577.621 260.524C577.621 260.524 586.802 258.519 595.276 259.792C591.58 287.444 587.216 317.768 587.216 317.768C587.216 317.768 578.074 365.793 584.473 370.813C588.187 369.573 591.973 368.558 595.809 367.774C595.867 370.741 596.181 373.698 596.747 376.612L600.841 403.428C600.841 403.428 602.43 430.826 607.748 447.181L612.438 469.535L616.365 486.432L618.575 515.11C621.61 527.258 623.804 539.602 625.141 552.053C627.216 571.32 638.48 602.456 639.982 606.553C636.135 612.002 628.234 621.246 618.321 622.201C604.171 623.569 603.829 632.105 613.718 635.175C623.607 638.246 644.418 635.175 644.418 635.175L673.767 627.912C672.884 633.33 672.423 637.609 673.067 638.071C674.943 639.439 703.425 646.821 704.45 635C704.53 634.024 704.602 633.078 704.665 632.16C705.089 624.588 704.078 617.003 701.684 609.807C701.454 609.099 701.247 608.383 701.064 607.667C701.487 607.194 701.874 606.691 702.225 606.163C702.225 606.163 704.276 574.247 705.81 562.808C705.929 561.893 706.009 560.779 706.048 559.523C706.756 545.808 701.756 509.732 701.756 509.732C701.756 509.732 695.579 486.264 695.81 475.477C695.845 474.581 695.997 473.693 696.263 472.836C696.263 472.836 696.263 472.622 696.183 472.264C696.183 472.112 696.255 471.953 696.303 471.81C696.303 471.81 693.171 450.331 693.608 437.556C693.669 435.65 693.935 433.756 694.403 431.908C694.9 429.481 695.153 427.01 695.158 424.533C695.555 415.783 695.094 400.668 694.458 386.492C694.53 386.254 694.601 386.015 694.657 385.736C694.785 384.608 694.652 383.464 694.268 382.395C694.22 381.48 694.18 380.574 694.132 379.675C694.395 378.776 694.609 377.821 694.8 376.835H695.214V376.89C695.214 376.89 721.939 375.61 728.083 368.442C728.083 368.442 721.875 349.135 718.433 333.44L722.479 324.57ZM607.311 264.517L606.89 264.366C607.566 261.98 608.368 259.203 609.275 256.292C608.504 259.442 607.836 262.306 607.311 264.517ZM634.434 185.372L634.553 185.484L634.426 185.412L634.434 185.372ZM667.821 599.449C666.382 594.493 660.666 574.287 660.849 564.654C660.889 563.816 661.036 562.988 661.286 562.188C661.816 560.442 662.084 558.627 662.081 556.802C662.654 546.747 658.806 528.729 658.806 528.729C658.806 528.729 650.197 504.426 650.857 485.127C650.857 484.642 650.913 484.156 650.944 483.671C651.087 481.841 651.199 479.861 651.278 477.768V477.729C651.604 470.275 651.533 461.301 651.318 452.933L651.27 452.623C650.976 441.541 650.428 431.565 650.197 427.62C650.992 433.324 656.08 468.827 658.274 474.634C658.274 474.634 659.474 491.014 664.927 504.863L670.905 540.868C670.905 540.868 672.439 583.714 674.991 595.829C676.135 601.223 677.105 604.858 677.829 607.229C676.795 612.058 675.126 620.148 674.005 626.846C673.345 622.479 671.024 605.837 667.828 599.449H667.821Z" fill="url(#paint0_linear)"/>
<path d="M642.264 600.554C642.264 600.554 632.287 618.652 618.257 620.004C604.227 621.357 603.893 629.813 613.694 632.86C623.495 635.907 644.124 632.86 644.124 632.86L673.536 625.589C673.536 625.589 669.982 596.489 665.253 594.97C660.523 593.451 642.264 600.554 642.264 600.554Z" fill="#4C4C78"/>
<path d="M678.114 600.888C678.114 600.888 670.674 634.379 672.55 635.739C674.426 637.1 702.638 644.363 703.655 632.693C703.735 631.712 703.806 630.773 703.87 629.877C704.286 622.371 703.283 614.855 700.913 607.722C700.118 605.335 699.561 602.782 699.768 600.888C700.237 596.155 678.114 600.888 678.114 600.888Z" fill="#4C4C78"/>
<path d="M668.886 176.876C668.886 176.876 646.064 232.975 650.126 214.957C652.813 203.025 635.444 187.17 623.432 177.855C617.319 173.082 612.598 170.051 612.598 170.051C612.598 170.051 655.444 120.061 652.407 141.627C651.574 147.534 652.383 153.556 654.744 159.033C659.474 170.282 668.886 176.876 668.886 176.876Z" fill="#FFB9B9"/>
<path d="M523.105 256.57C521.897 256.26 519.925 256.458 517.882 256.896C514.422 257.696 511.02 258.73 507.699 259.99C507.699 259.99 490.903 262.019 493.438 244.391C495.322 231.249 510.259 236.022 517.739 239.283C520.283 240.405 521.968 241.344 521.968 241.344L523.105 256.57Z" fill="#FFB9B9"/>
<path opacity="0.1" d="M523.105 256.57C521.897 256.26 519.926 256.459 517.883 256.896C516.054 252.282 517.445 241.344 517.739 239.284C520.283 240.405 521.968 241.344 521.968 241.344L523.105 256.57Z" fill="black"/>
<path d="M523.177 239.737L518.781 238.941C518.781 238.941 516.531 254.056 519.472 258.034H524.528L523.177 239.737Z" fill="#CBCDDA"/>
<path d="M611.342 267.317C611.342 267.317 597.907 259.275 596.302 269.425C594.696 279.576 592.581 296.918 592.581 296.918L588.861 318.993L584.044 363.223L584.72 370.749C584.72 370.749 599.028 365.928 602.383 367.622C605.737 369.317 608.472 349.015 608.472 349.015L614.036 328.038L614.879 283.553L611.342 267.317Z" fill="#4C4C78"/>
<path opacity="0.1" d="M611.342 267.317C611.342 267.317 597.907 259.275 596.302 269.425C594.696 279.576 592.581 296.918 592.581 296.918L588.861 318.993L584.044 363.223L584.72 370.749C584.72 370.749 599.028 365.928 602.383 367.622C605.737 369.317 608.472 349.015 608.472 349.015L614.036 328.038L614.879 283.553L611.342 267.317Z" fill="black"/>
<path d="M604.1 215.211C604.1 215.211 590.157 230.947 568.988 234.113C547.819 237.279 521.698 238.305 521.698 238.305C521.698 238.305 515.108 250.102 524.616 262.663L577.875 261.486C577.875 261.486 589.664 258.924 598.797 261.486L604.1 215.211Z" fill="#032B4D"/>
<path opacity="0.05" d="M604.1 215.211C604.1 215.211 590.157 230.947 568.988 234.113C547.819 237.279 521.698 238.305 521.698 238.305C521.698 238.305 515.108 250.102 524.616 262.663L577.875 261.486C577.875 261.486 589.664 258.924 598.797 261.486L604.1 215.211Z" fill="#032B4D"/>
<path opacity="0.1" d="M652.487 158.548C647.288 169.685 638.25 177.895 625.141 177.895C624.561 177.895 623.997 177.895 623.432 177.855C617.319 173.082 612.598 170.051 612.598 170.051C612.598 170.051 655.444 120.061 652.407 141.627C651.469 148.23 650.396 153.592 652.487 158.548Z" fill="black"/>
<path d="M657.796 144.189C657.792 150.653 655.872 156.971 652.279 162.343C648.687 167.716 643.584 171.902 637.614 174.372C631.645 176.842 625.078 177.485 618.743 176.221C612.409 174.956 606.591 171.84 602.025 167.267C597.46 162.694 594.352 156.869 593.095 150.528C591.837 144.188 592.487 137.616 594.961 131.645C597.435 125.674 601.623 120.571 606.995 116.981C612.367 113.391 618.681 111.476 625.141 111.478C629.434 111.469 633.687 112.31 637.655 113.951C641.623 115.592 645.227 118.002 648.262 121.042C651.296 124.081 653.701 127.691 655.337 131.663C656.973 135.636 657.809 139.892 657.796 144.189Z" fill="#FFB9B9"/>
<path d="M677.757 343.94C677.757 343.94 604.911 350.376 602.24 341.068C599.569 331.761 609.672 306.559 609.672 306.559L606.381 271.374L606.262 270.03C606.262 270.03 615.388 231.965 615.054 228.926C614.736 226.189 629.744 194.25 632.828 187.719C633.194 186.963 633.385 186.549 633.385 186.549L633.965 186.883L634.219 187.035L637.788 189.119L651.882 185.778L668.87 176.876L670.46 274.254L677.757 343.94Z" fill="#CBCDDA"/>
<path opacity="0.1" d="M639.895 187.727C639.895 187.727 634.91 186.374 632.963 191.362C632.201 193.506 631.298 195.598 630.26 197.623L628.321 209.205L624.767 227.502L622.144 308.445L623.328 322.82L629.839 311.237L631.023 235.576V226.166C631.404 218.029 633.241 210.027 636.445 202.539L637.351 200.415L643.011 193.136L639.895 187.727Z" fill="black"/>
<path d="M638.885 186.709C638.885 186.709 633.893 185.356 631.954 190.344C631.19 192.489 630.284 194.58 629.243 196.605L627.303 208.195L623.75 226.492L621.135 307.435L622.319 321.817L628.83 310.195L630.014 234.582V225.148C630.403 217.012 632.239 209.011 635.435 201.521L636.35 199.397L642.009 192.126L638.885 186.709Z" fill="#FC6681"/>
<path opacity="0.1" d="M660.181 165.819C660.181 165.819 642.94 184.115 636.851 186.287C636.851 186.287 639.895 200.161 642.94 202.866C642.94 202.866 661.032 184.402 664.236 182.906L666.922 176.327L660.181 165.819Z" fill="black"/>
<path d="M660.181 164.776C660.181 164.776 642.94 183.073 636.851 185.245C636.851 185.245 639.895 199.118 642.94 201.823C642.94 201.823 661.032 183.359 664.236 181.864L666.922 175.293L660.181 164.776Z" fill="#CBCDDA"/>
<path opacity="0.1" d="M634.394 186.55L634.219 187.027L628.694 201.847L618.814 229.809C618.814 229.809 618.726 230.096 618.551 230.605C616.914 235.696 608.114 263.324 606.381 271.351L606.262 270.006C606.262 270.006 615.387 231.941 615.054 228.903C614.736 226.166 629.744 194.226 632.828 187.695C633.321 187.361 633.702 187.075 633.965 186.86L634.394 186.55Z" fill="black"/>
<path d="M633.384 186.542L627.677 201.847L617.796 229.809C617.796 229.809 617.709 230.095 617.534 230.605C615.801 236.03 605.92 266.999 605.125 272.663C604.227 278.884 591.802 312.51 591.802 312.51L584.704 370.733C578.344 365.793 587.374 318.23 587.374 318.23C587.374 318.23 597.518 247.692 599.918 224.225C602.319 200.757 615.268 193.9 615.268 193.9C621.246 193.598 626.636 190.957 629.95 188.928C631.147 188.211 632.295 187.413 633.384 186.542Z" fill="#032B4D"/>
<path opacity="0.1" d="M704.967 561.137C703.449 572.473 701.422 604.095 701.422 604.095C694.323 614.747 678.599 608.995 678.599 608.995C678.599 608.995 676.914 605.813 674.378 593.769C671.843 581.725 670.324 539.301 670.324 539.301L664.402 503.662C658.997 489.956 657.812 473.719 657.812 473.719C655.428 467.459 649.696 426.355 649.696 426.355C649.696 426.355 652.081 463.227 650.547 482.685C649.013 502.143 658.313 528.323 658.313 528.323C658.313 528.323 663.56 552.856 660.849 560.469C658.138 568.082 667.614 599.536 667.614 599.536C666.819 608.677 639.903 604.954 639.903 604.954C639.903 604.954 627.24 570.946 625.022 550.478C623.693 538.145 621.518 525.918 618.512 513.884L616.318 485.461L612.422 468.66L607.78 446.505C602.534 430.269 600.936 403.118 600.936 403.118L596.874 376.477C594.219 363.303 597.669 347.839 599.958 339.748C600.952 336.24 601.747 334.1 601.747 334.1C604.076 335.755 617.415 337.696 624.314 339.271C628.091 340.142 631.974 340.453 635.841 340.194C653.285 338.808 670.543 335.641 687.344 330.743C688.48 330.401 689.084 330.202 689.084 330.202L689.442 333.249L690.285 340.504L691.787 353.383C691.787 353.383 696.35 422.059 693.647 431.343C690.945 440.626 695.507 471.914 695.507 471.914C692.972 479.336 700.913 509.501 700.913 509.501C700.913 509.501 706.493 549.801 704.967 561.137Z" fill="black"/>
<path d="M704.967 560.143C703.449 571.479 701.422 603.1 701.422 603.1C694.323 613.76 678.599 608.001 678.599 608.001C678.599 608.001 676.914 604.819 674.378 592.783C671.843 580.747 670.324 538.306 670.324 538.306L664.402 502.62C659.037 488.914 657.812 472.637 657.812 472.637C655.428 466.377 649.696 425.273 649.696 425.273C649.696 425.273 652.081 462.145 650.547 481.603C649.013 501.061 658.313 527.273 658.313 527.273C658.313 527.273 663.56 551.806 660.849 559.419C658.138 567.032 667.614 598.494 667.614 598.494C666.819 607.627 639.903 603.904 639.903 603.904C639.903 603.904 627.24 569.936 625.022 549.459C623.693 537.127 621.518 524.9 618.512 512.866L616.318 484.451L612.422 467.705L607.78 445.551C602.534 429.306 600.936 402.156 600.936 402.156L596.874 375.514C594.219 362.341 597.669 346.876 599.958 338.786C600.952 335.285 601.747 333.146 601.747 333.146C604.076 334.8 617.415 336.733 624.314 338.308C628.09 339.183 631.974 339.494 635.841 339.231C653.285 337.845 670.543 334.678 687.344 329.781L689.084 329.248L689.442 332.286L690.285 339.549L691.787 352.429C691.787 352.429 696.35 421.097 693.647 430.388C690.945 439.68 695.507 470.959 695.507 470.959C692.972 478.373 700.913 508.539 700.913 508.539C700.913 508.539 706.493 548.791 704.967 560.143Z" fill="#032B4D"/>
<path opacity="0.1" d="M657.796 144.189C657.806 149.905 656.315 155.523 653.472 160.481C648.384 161.38 642.971 160.385 639.163 157.02C636.556 154.721 634.871 151.579 632.629 148.914C631.178 147.276 629.619 145.738 627.963 144.308C626.881 143.23 625.64 142.326 624.282 141.627C623.6 141.282 622.847 141.098 622.082 141.09C621.317 141.082 620.561 141.249 619.871 141.579C618.074 142.582 617.486 144.817 616.445 146.599C615.661 148.129 614.321 149.299 612.7 149.869C611.89 150.128 611.018 150.12 610.213 149.847C609.407 149.573 608.71 149.048 608.225 148.349C607.12 146.448 607.931 143.481 606.079 142.319C605.59 142.078 605.086 141.871 604.568 141.699C602.184 140.617 601.905 137.411 601.699 134.786C601.595 133.497 601.317 132.041 600.236 131.349C599.155 130.657 597.732 131.007 596.444 131.031C596.063 131.046 595.682 131.017 595.308 130.944C598.343 124.095 603.638 118.499 610.305 115.09C616.971 111.682 624.606 110.668 631.93 112.22C639.254 113.772 645.823 117.794 650.537 123.614C655.252 129.433 657.826 136.697 657.828 144.189H657.796Z" fill="black"/>
<path d="M593.304 101.677C592.049 102.604 591.007 103.789 590.249 105.153C589.491 106.517 589.033 108.028 588.908 109.584C588.848 110.104 588.889 110.631 589.028 111.136C589.25 111.671 589.515 112.187 589.823 112.679C591.492 115.996 588.94 119.926 589.266 123.625C589.487 125.373 590.334 126.981 591.65 128.151C592.965 129.321 594.66 129.974 596.42 129.989C597.708 129.989 599.123 129.607 600.212 130.307C601.301 131.007 601.572 132.455 601.675 133.744C601.882 136.369 602.144 139.575 604.537 140.657C605.052 140.833 605.557 141.04 606.047 141.277C607.907 142.439 607.096 145.414 608.201 147.307C608.686 148.006 609.383 148.531 610.189 148.805C610.994 149.078 611.866 149.086 612.677 148.827C614.294 148.26 615.632 147.092 616.413 145.565C617.438 143.775 618.05 141.588 619.847 140.545C620.536 140.212 621.292 140.042 622.057 140.049C622.822 140.056 623.576 140.24 624.259 140.585C625.616 141.287 626.858 142.193 627.939 143.274C629.597 144.701 631.156 146.24 632.605 147.88C634.847 150.537 636.532 153.679 639.139 155.978C644.052 160.298 651.572 160.751 657.629 158.261C658.504 157.97 659.293 157.467 659.927 156.798C660.48 156.028 660.837 155.135 660.968 154.196C661.583 151.202 661.76 148.133 661.493 145.088C661.278 142.701 660.793 140.315 660.96 137.928C661.127 135.367 662.041 132.893 662.168 130.331C662.391 125.797 660.141 121.493 657.399 117.905C655.745 115.765 653.885 113.785 652.454 111.494C651.206 109.505 650.3 107.317 648.965 105.392C645.833 100.897 640.554 98.2325 635.165 97.3017C629.775 96.371 624.235 96.9438 618.837 97.8427C614.131 98.6382 609.393 99.7678 604.624 100.046C600.451 100.341 597.088 98.9325 593.304 101.677Z" fill="#472727"/>
<path opacity="0.1" d="M633.385 186.542L627.677 201.847L617.796 229.809C617.796 229.809 617.709 230.095 617.534 230.605V230.644L629.966 188.912C631.157 188.199 632.299 187.407 633.385 186.542Z" fill="black"/>
<path d="M695.086 361.704C695.086 361.704 695.674 380.223 690.69 384.877L677.423 359.842L688.552 354.425L695.086 361.704Z" fill="#FFB9B9"/>
<path opacity="0.1" d="M726.056 368.466C719.967 375.57 693.464 376.842 693.464 376.842L667.232 335.476C667.232 335.476 661.024 331.165 649.362 311.746C637.701 292.328 638.082 277.372 638.734 266.204C639.386 255.035 646.683 222.936 646.683 222.936C647.82 215.713 664.172 170.433 664.172 170.433C665.889 173.861 669.084 176.725 672.82 179.088C682.916 185.452 697.01 188.061 697.01 188.061C719.713 191.362 715.523 214.83 715.523 214.83C715.523 214.83 715.778 306.05 714.379 316.965C712.98 327.879 726.056 368.466 726.056 368.466Z" fill="black"/>
<path d="M695.428 365.252L694.665 372.021L685.452 368.64L678.695 358.402L683.766 354.425L695.428 365.252Z" fill="#CBCDDA"/>
<path opacity="0.1" d="M695.102 339.032L690.285 339.525L643.838 344.171C636.379 344.921 628.85 344.551 621.5 343.073L599.958 338.761C600.952 335.261 601.747 333.121 601.747 333.121C604.076 334.776 617.414 336.709 624.314 338.284C628.09 339.159 631.974 339.47 635.841 339.207C653.285 337.821 670.542 334.654 687.343 329.756L689.442 332.262L695.102 339.032Z" fill="black"/>
<g opacity="0.1">
<path opacity="0.1" d="M602.232 333.376C602.078 333.3 601.93 333.215 601.786 333.121C601.786 333.121 601.786 333.169 601.739 333.24L602.232 333.376Z" fill="black"/>
<path opacity="0.1" d="M700.953 508.53C700.953 508.53 693.003 478.365 695.547 470.951C695.547 470.951 690.984 439.687 693.695 430.38C696.406 421.072 691.827 352.42 691.827 352.42L690.325 339.541L689.482 332.278L689.132 329.239L687.383 329.772L686.302 330.09L686.437 331.268L687.28 338.523L688.782 351.402C688.782 351.402 693.345 420.078 690.651 429.362C687.956 438.645 692.503 469.932 692.503 469.932C689.967 477.354 697.908 507.512 697.908 507.512C697.908 507.512 703.473 547.781 701.97 559.109C700.468 570.437 698.417 602.066 698.417 602.066C693.234 609.854 683.449 608.883 678.544 607.793L678.631 607.984C678.631 607.984 694.355 613.744 701.453 603.084C701.453 603.084 703.481 571.447 705.007 560.127C706.533 548.807 700.953 508.53 700.953 508.53Z" fill="black"/>
<path opacity="0.1" d="M660.897 559.451C663.6 551.838 658.361 527.304 658.361 527.304C658.361 527.304 649.068 501.053 650.587 481.634C651.223 473.528 651.183 462.407 650.913 452.201C648.758 439.035 646.692 424.358 646.692 424.358C646.692 424.358 649.076 461.23 647.55 480.68C646.024 500.13 655.317 526.358 655.317 526.358C655.317 526.358 660.563 550.883 657.852 558.496C655.142 566.109 664.601 597.532 664.601 597.532C663.925 604.85 646.557 603.896 639.665 603.259L639.927 603.959C639.927 603.959 666.803 607.682 667.646 598.55C667.662 598.526 658.194 567.064 660.897 559.451Z" fill="black"/>
</g>
<path d="M727.066 368.466C720.985 375.57 694.474 376.842 694.474 376.842L668.242 335.476C668.242 335.476 662.033 331.165 650.364 311.746C638.695 292.328 639.092 277.372 639.736 266.204C640.38 255.035 647.685 222.936 647.685 222.936C648.822 215.713 665.173 170.433 665.173 170.433C666.882 173.861 670.078 176.725 673.822 179.088C683.918 185.452 698.012 188.061 698.012 188.061C720.707 191.362 716.517 214.83 716.517 214.83C716.517 214.83 716.772 306.05 715.373 316.965C713.974 327.879 727.066 368.466 727.066 368.466Z" fill="#032B4D"/>
<path opacity="0.1" d="M670.03 192.882L664.323 195.006L668.122 197.671L639.744 266.18C640.403 255.043 647.693 222.912 647.693 222.912C648.83 215.689 665.181 170.409 665.181 170.409C666.89 173.837 670.086 176.701 673.83 179.064L670.03 192.882Z" fill="black"/>
<path opacity="0.1" d="M676.875 314.928L705.905 307.442L709.713 319.24L680.046 326.479L676.875 314.928Z" fill="black"/>
<path opacity="0.1" d="M693.48 197.703C693.48 197.703 680.293 210.12 685.269 237.796C690.245 265.472 698.202 295.518 698.202 295.518L676.739 355.022C676.739 355.022 691.7 370.63 699.053 372.523L720.476 324.944C720.476 324.944 730.492 308.453 727.829 282.575C725.166 256.697 715.531 214.822 715.531 214.822C715.531 214.822 715.539 189.334 693.48 197.703Z" fill="black"/>
<path d="M694.49 197.703C694.49 197.703 681.294 210.12 686.254 237.796C691.215 265.472 699.18 295.518 699.18 295.518L677.717 355.022C677.717 355.022 692.677 370.63 700.03 372.523L721.493 324.944C721.493 324.944 731.509 308.453 728.846 282.575C726.183 256.697 716.549 214.822 716.549 214.822C716.549 214.822 716.549 189.334 694.49 197.703Z" fill="#032B4D"/>
<path opacity="0.1" d="M678.433 356.287C678.433 356.287 695.166 379.468 693.902 385.641C692.638 391.814 687.733 388.513 687.733 388.513L681.143 379.468L675.221 362.547C675.221 362.547 675.802 355.245 678.433 356.287Z" fill="black"/>
<path opacity="0.1" d="M676.406 356.287C676.406 356.287 693.099 379.468 691.875 385.641C690.651 391.814 685.706 388.513 685.706 388.513L679.109 379.468L673.194 362.547C673.194 362.547 673.775 355.245 676.406 356.287Z" fill="black"/>
<path d="M677.423 356.287C677.423 356.287 694.116 379.468 692.884 385.641C691.652 391.814 686.715 388.513 686.715 388.513L680.126 379.468L674.211 362.547C674.211 362.547 674.784 355.245 677.423 356.287Z" fill="#474463"/>
</g>
<path d="M244.548 320.262C275.624 320.262 300.817 295.024 300.817 263.89C300.817 232.757 275.624 207.518 244.548 207.518C213.471 207.518 188.278 232.757 188.278 263.89C188.278 295.024 213.471 320.262 244.548 320.262Z" stroke="#FF004D" stroke-width="4" stroke-miterlimit="10" stroke-dasharray="12 12"/>
<path d="M392.95 309.111C424.027 309.111 449.22 283.873 449.22 252.739C449.22 221.606 424.027 196.367 392.95 196.367C361.874 196.367 336.681 221.606 336.681 252.739C336.681 283.873 361.874 309.111 392.95 309.111Z" stroke="#FF005C" stroke-width="4" stroke-miterlimit="10" stroke-dasharray="12 12"/>
<path d="M414.704 274.524C412.28 271.942 410.929 268.531 410.926 264.987C410.94 262.542 411.586 260.142 412.8 258.021C414.015 255.901 415.757 254.131 417.857 252.885C416.918 251.519 416.413 249.899 416.411 248.239C416.411 243.565 420.325 239.777 425.154 239.777C427.019 239.758 428.841 240.34 430.351 241.437C431.861 242.534 432.98 244.088 433.542 245.87C434.734 243.991 436.383 242.446 438.334 241.38C440.285 240.315 442.474 239.763 444.697 239.777C451.891 239.777 457.725 245.424 457.725 252.387C457.726 253.874 457.456 255.349 456.928 256.738C457.19 256.72 457.456 256.698 457.725 256.698C463.501 256.698 468.181 261.23 468.181 266.82C468.181 267.162 468.164 267.503 468.129 267.843C472.748 269.769 475.982 274.214 475.982 279.39C475.982 286.331 470.169 291.959 462.997 291.959C462.243 291.958 461.491 291.893 460.749 291.767C460.786 292.185 460.811 292.609 460.811 293.037C460.811 300.826 454.287 307.142 446.239 307.142C443.285 307.151 440.396 306.276 437.941 304.63C435.955 306.261 433.464 307.15 430.895 307.142C424.882 307.142 420.009 302.425 420.009 296.611C420.009 296.36 420.031 296.112 420.05 295.864H420.009C413.572 295.864 408.354 290.813 408.354 284.581C408.367 282.477 408.969 280.419 410.092 278.641C411.214 276.864 412.812 275.437 414.704 274.524Z" fill="url(#paint1_linear)"/>
<path d="M415.882 274.477C413.563 272.005 412.271 268.741 412.267 265.349C412.28 263.009 412.899 260.712 414.061 258.681C415.224 256.651 416.892 254.958 418.902 253.765C418.001 252.454 417.518 250.9 417.517 249.308C417.517 244.835 421.264 241.208 425.886 241.208C427.672 241.191 429.417 241.747 430.864 242.797C432.311 243.846 433.384 245.332 433.925 247.038C435.065 245.243 436.64 243.768 438.504 242.749C440.368 241.73 442.459 241.201 444.582 241.212C451.47 241.212 457.051 246.616 457.051 253.291C457.052 254.715 456.793 256.127 456.287 257.457C456.541 257.439 456.794 257.42 457.051 257.42C462.579 257.42 467.059 261.756 467.059 267.109C467.058 267.436 467.041 267.762 467.006 268.087C471.427 269.946 474.522 274.186 474.522 279.139C474.522 285.783 468.957 291.169 462.094 291.169C461.368 291.169 460.644 291.108 459.929 290.986C459.966 291.386 459.988 291.792 459.988 292.2C459.988 299.656 453.743 305.699 446.041 305.699C443.214 305.706 440.449 304.869 438.099 303.295C436.205 304.853 433.831 305.705 431.38 305.705C425.627 305.705 420.961 301.189 420.961 295.62C420.961 295.378 420.98 295.143 420.998 294.904H420.961C414.799 294.904 409.803 290.069 409.803 284.104C409.816 282.09 410.393 280.121 411.467 278.419C412.542 276.717 414.071 275.352 415.882 274.477Z" fill="#009688"/>
<path d="M441.492 260.356H437.414V335.384H441.492V260.356Z" fill="url(#paint2_linear)"/>
<path d="M440.65 260.356H438.393V335.384H440.65V260.356Z" fill="#795548"/>
<path d="M427.184 268.371L425.572 269.954L438.946 283.621L440.557 282.038L427.184 268.371Z" fill="#795548"/>
<path d="M452.965 283.894L439.102 293.64L440.399 295.491L454.262 285.744L452.965 283.894Z" fill="#795548"/>
<path d="M441.63 275.84C443.02 274.246 444.053 272.372 444.658 270.345C445.264 268.317 445.428 266.183 445.139 264.087C444.85 261.99 444.116 259.98 442.985 258.192C441.854 256.405 440.354 254.881 438.584 253.724C439.499 252.306 439.985 250.653 439.982 248.964C439.982 244.188 436.204 240.316 431.542 240.316C429.699 240.33 427.911 240.945 426.45 242.068C424.988 243.192 423.932 244.762 423.441 246.542C422.343 244.654 420.772 243.087 418.883 241.995C416.994 240.903 414.853 240.324 412.673 240.316C405.726 240.316 400.093 246.086 400.093 253.204C400.091 254.72 400.351 256.225 400.862 257.652C400.609 257.633 400.352 257.612 400.093 257.612C394.527 257.612 389.995 262.258 389.995 267.957C389.995 268.31 390.014 268.657 390.048 269.001C387.778 270.02 385.853 271.678 384.506 273.773C383.16 275.868 382.45 278.31 382.464 280.802C382.464 287.898 388.078 293.65 395 293.65C395.726 293.648 396.45 293.583 397.165 293.454C397.128 293.882 397.106 294.315 397.106 294.752C397.106 302.712 403.404 309.167 411.176 309.167C414.048 309.168 416.849 308.271 419.187 306.6C421.069 308.253 423.486 309.166 425.989 309.167C431.795 309.167 436.501 304.345 436.501 298.398C436.501 298.141 436.479 297.887 436.464 297.633H436.501C442.718 297.633 447.755 292.469 447.755 286.101C447.764 283.994 447.199 281.924 446.119 280.116C445.04 278.307 443.487 276.828 441.63 275.84Z" fill="url(#paint3_linear)"/>
<path d="M440.004 275.772C441.308 274.276 442.277 272.518 442.844 270.615C443.412 268.713 443.565 266.71 443.294 264.743C443.023 262.776 442.334 260.89 441.273 259.212C440.212 257.535 438.804 256.105 437.144 255.02C438.003 253.688 438.458 252.135 438.455 250.55C438.455 246.065 434.909 242.432 430.531 242.432C428.804 242.447 427.129 243.026 425.76 244.08C424.39 245.134 423.401 246.606 422.941 248.273C421.91 246.501 420.435 245.029 418.662 244.004C416.888 242.979 414.878 242.436 412.831 242.429C406.31 242.429 401.024 247.846 401.024 254.527C401.022 255.95 401.267 257.363 401.747 258.702C401.509 258.684 401.268 258.665 401.024 258.665C395.789 258.665 391.548 263.001 391.548 268.375C391.548 268.707 391.563 269.032 391.597 269.354C389.469 270.313 387.664 271.871 386.402 273.837C385.139 275.804 384.474 278.095 384.486 280.433C384.486 287.093 389.742 292.491 396.256 292.491C396.939 292.491 397.621 292.43 398.294 292.309C398.26 292.711 398.238 293.117 398.238 293.526C398.238 301 404.149 307.055 411.443 307.055C414.138 307.056 416.767 306.214 418.962 304.646C420.728 306.197 422.997 307.054 425.346 307.055C430.794 307.055 435.212 302.53 435.212 296.945C435.212 296.704 435.193 296.465 435.178 296.227H435.212C441.046 296.227 445.776 291.38 445.776 285.402C445.784 283.421 445.25 281.477 444.232 279.779C443.215 278.082 441.752 276.696 440.004 275.772Z" fill="#00897B"/>
<path d="M419.172 260.328H416.105V336.764H419.172V260.328Z" fill="url(#paint4_linear)"/>
<path d="M418.52 261.403H416.977V336.765H418.52V261.403Z" fill="#795548"/>
<path d="M429.494 269.897L416.832 283.597L417.964 284.647L430.626 270.947L429.494 269.897Z" fill="#795548"/>
<path d="M404.737 285.531L403.817 286.771L416.945 296.539L417.865 295.298L404.737 285.531Z" fill="#795548"/>
<path d="M382.535 298.19C380.883 296.428 379.963 294.103 379.963 291.686C379.972 290.02 380.413 288.385 381.241 286.94C382.069 285.495 383.256 284.289 384.687 283.44C384.045 282.507 383.701 281.4 383.701 280.266C383.701 277.082 386.369 274.498 389.658 274.498C390.929 274.485 392.171 274.882 393.2 275.629C394.229 276.376 394.991 277.435 395.375 278.649C396.188 277.369 397.311 276.316 398.641 275.59C399.971 274.864 401.463 274.489 402.977 274.498C407.881 274.498 411.857 278.345 411.857 283.09C411.858 284.105 411.673 285.11 411.313 286.058C411.492 286.058 411.671 286.03 411.857 286.03C415.793 286.03 418.968 289.127 418.968 292.928C418.967 293.16 418.955 293.393 418.931 293.625C420.5 294.259 421.847 295.345 422.799 296.746C423.752 298.147 424.268 299.8 424.283 301.495C424.283 306.225 420.322 310.059 415.434 310.059C414.916 310.06 414.399 310.016 413.888 309.929C413.916 310.214 413.931 310.502 413.931 310.793C413.931 316.102 409.486 320.395 404.001 320.395C401.999 320.404 400.04 319.819 398.371 318.713C397.015 319.82 395.318 320.42 393.569 320.411C389.473 320.411 386.149 317.196 386.149 313.231C386.149 313.057 386.149 312.89 386.177 312.723H386.149C381.762 312.723 378.207 309.282 378.207 305.035C378.217 303.603 378.629 302.203 379.394 300.993C380.159 299.783 381.247 298.812 382.535 298.19Z" fill="url(#paint5_linear)"/>
<path d="M383.336 298.159C381.753 296.476 380.868 294.252 380.863 291.94C380.872 290.345 381.294 288.78 382.087 287.397C382.879 286.014 384.016 284.86 385.386 284.048C384.772 283.154 384.443 282.094 384.443 281.009C384.443 277.961 386.997 275.49 390.144 275.49C391.361 275.477 392.55 275.856 393.535 276.572C394.521 277.287 395.25 278.301 395.617 279.463C396.394 278.238 397.47 277.231 398.742 276.536C400.015 275.841 401.442 275.481 402.892 275.49C407.585 275.49 411.391 279.172 411.391 283.716C411.392 284.687 411.216 285.649 410.871 286.556C411.044 286.556 411.214 286.532 411.391 286.532C415.156 286.532 418.211 289.487 418.211 293.132C418.211 293.355 418.2 293.577 418.177 293.798C419.679 294.405 420.968 295.445 421.88 296.786C422.792 298.126 423.286 299.708 423.3 301.331C423.3 305.859 419.506 309.53 414.829 309.53C414.338 309.529 413.847 309.488 413.363 309.406C413.388 309.678 413.403 309.954 413.403 310.233C413.403 315.312 409.149 319.432 403.899 319.432C401.973 319.437 400.09 318.866 398.489 317.793C397.194 318.857 395.569 319.436 393.895 319.432C389.974 319.432 386.784 316.356 386.784 312.559C386.784 312.395 386.784 312.234 386.808 312.073H386.784C382.585 312.073 379.181 308.777 379.181 304.713C379.192 303.341 379.588 301.999 380.322 300.84C381.057 299.682 382.101 298.753 383.336 298.159Z" fill="#009688"/>
<path d="M400.788 288.536H398.009V339.664H400.788V288.536Z" fill="url(#paint6_linear)"/>
<path d="M400.213 288.536H398.677V339.664H400.213V288.536Z" fill="#795548"/>
<path d="M391.036 293.996L389.939 295.074L399.051 304.386L400.148 303.308L391.036 293.996Z" fill="#795548"/>
<path d="M408.609 304.573L399.162 311.215L400.045 312.475L409.492 305.833L408.609 304.573Z" fill="#795548"/>
<path d="M408.682 299.708C409.617 298.64 410.312 297.382 410.719 296.021C411.127 294.66 411.237 293.227 411.044 291.819C410.85 290.412 410.356 289.062 409.596 287.862C408.836 286.663 407.827 285.641 406.638 284.866C407.248 283.912 407.57 282.802 407.566 281.669C407.599 280.287 407.125 278.94 406.235 277.882C405.345 276.825 404.099 276.131 402.733 275.931C401.367 275.731 399.975 276.039 398.82 276.796C397.665 277.554 396.827 278.709 396.463 280.043C395.727 278.777 394.673 277.726 393.406 276.993C392.139 276.26 390.704 275.871 389.241 275.865C384.579 275.865 380.798 279.736 380.798 284.516C380.796 285.533 380.971 286.544 381.314 287.502C381.144 287.502 380.971 287.474 380.798 287.474C379.897 287.484 379.008 287.671 378.18 288.026C377.353 288.38 376.603 288.895 375.973 289.54C375.344 290.184 374.848 290.947 374.512 291.784C374.177 292.621 374.01 293.516 374.02 294.418C374.02 294.653 374.02 294.889 374.054 295.118C372.531 295.802 371.239 296.916 370.335 298.322C369.432 299.729 368.956 301.368 368.965 303.041C368.965 307.802 372.734 311.664 377.381 311.664C377.869 311.664 378.357 311.62 378.837 311.534C378.813 311.822 378.797 312.11 378.797 312.404C378.797 317.747 383.027 322.081 388.239 322.081C390.167 322.082 392.046 321.479 393.616 320.358C394.879 321.468 396.502 322.08 398.182 322.081C399.119 322.07 400.045 321.875 400.907 321.506C401.769 321.137 402.549 320.601 403.205 319.93C403.86 319.259 404.376 318.465 404.725 317.593C405.074 316.722 405.248 315.79 405.238 314.851C405.238 314.678 405.238 314.508 405.213 314.337H405.238C409.411 314.337 412.794 310.871 412.794 306.594C412.8 305.18 412.42 303.791 411.695 302.577C410.97 301.364 409.928 300.372 408.682 299.708Z" fill="url(#paint7_linear)"/>
<path d="M407.591 299.665C408.468 298.661 409.119 297.48 409.501 296.202C409.882 294.924 409.986 293.579 409.804 292.257C409.622 290.936 409.158 289.669 408.446 288.542C407.733 287.416 406.786 286.455 405.671 285.727C406.247 284.834 406.553 283.792 406.552 282.729C406.583 281.43 406.139 280.166 405.304 279.173C404.468 278.181 403.298 277.529 402.016 277.341C400.734 277.153 399.427 277.442 398.342 278.153C397.258 278.865 396.471 279.949 396.13 281.202C395.438 280.012 394.447 279.025 393.257 278.337C392.067 277.649 390.718 277.285 389.344 277.28C384.966 277.28 381.42 280.917 381.42 285.402C381.418 286.357 381.583 287.305 381.905 288.205C381.744 288.205 381.596 288.18 381.42 288.18C379.716 288.2 378.089 288.895 376.897 290.115C375.705 291.334 375.044 292.978 375.06 294.684C375.06 294.907 375.06 295.127 375.091 295.341C373.661 295.983 372.449 297.028 371.601 298.347C370.753 299.667 370.306 301.205 370.314 302.775C370.314 307.244 373.851 310.868 378.213 310.868C378.672 310.867 379.129 310.826 379.58 310.744C379.555 311.014 379.543 311.286 379.543 311.562C379.543 316.577 383.513 320.643 388.407 320.643C390.217 320.645 391.982 320.079 393.456 319.027C394.641 320.069 396.164 320.644 397.741 320.643C399.517 320.623 401.212 319.897 402.454 318.625C403.695 317.353 404.382 315.639 404.363 313.86C404.363 313.699 404.363 313.55 404.339 313.38H404.363C405.305 313.37 406.236 313.173 407.102 312.802C407.968 312.432 408.753 311.893 409.412 311.219C410.07 310.544 410.59 309.746 410.941 308.87C411.291 307.994 411.466 307.057 411.456 306.114C411.458 304.788 411.1 303.487 410.419 302.351C409.738 301.214 408.76 300.286 407.591 299.665Z" fill="#00897B"/>
<path d="M393.61 289.298H391.551V340.603H393.61V289.298Z" fill="url(#paint8_linear)"/>
<path d="M393.171 290.02H392.135V340.603H393.171V290.02Z" fill="#795548"/>
<path d="M400.534 295.718L392.035 304.913L392.795 305.618L401.294 296.423L400.534 295.718Z" fill="#795548"/>
<path d="M383.917 306.214L383.299 307.047L392.111 313.603L392.728 312.77L383.917 306.214Z" fill="#795548"/>
<path d="M390.342 264.135H303.155V341.879H390.342V264.135Z" fill="url(#paint9_linear)"/>
<path d="M388.177 264.135H245.958V339.401H388.177V264.135Z" fill="white"/>
<path d="M394.982 271.568H255.236V235.02H389.88C391.233 235.02 392.531 235.558 393.488 236.516C394.444 237.475 394.982 238.775 394.982 240.13V271.568Z" fill="url(#paint10_linear)"/>
<path d="M255.233 236.465H388.678C390.031 236.465 391.328 237.004 392.285 237.962C393.242 238.921 393.779 240.221 393.779 241.576V270.626H255.233V236.465Z" fill="#6C63FF"/>
<path opacity="0.7" d="M255.233 236.465H388.678C390.031 236.465 391.328 237.004 392.285 237.962C393.242 238.921 393.779 240.221 393.779 241.576V270.626H255.233V236.465Z" fill="#A6A6A6"/>
<path d="M254.924 195.37L206.693 229.398V258.07V341.876H303.155V258.07V229.398L254.924 195.37Z" fill="url(#paint11_linear)"/>
<path d="M300.992 228.825L255.234 195.37L209.477 228.825V257.008H300.992V228.825Z" fill="#6C63FF"/>
<path opacity="0.5" d="M300.992 228.825L255.234 195.37L209.477 228.825V257.008H300.992V228.825Z" fill="#6D6D6D"/>
<path d="M300.992 257.011H209.477V339.401H300.992V257.011Z" fill="white"/>
<path d="M306.866 245.548L255.234 208.611L202.984 245.548L199.583 232.557L255.234 191.979L310.885 232.557L306.866 245.548Z" fill="url(#paint12_linear)"/>
<path d="M306.392 243.645L255.234 206.344L204.078 243.645L201.892 231.965L255.234 193.075L308.578 231.965L306.392 243.645Z" fill="#032B4D"/>
<path opacity="0.2" d="M306.392 243.645L255.234 206.344L204.078 243.645L201.892 231.965L255.234 193.075L308.578 231.965L306.392 243.645Z" fill="#032B4D"/>
<path d="M281.203 274.976H229.262V339.401H281.203V274.976Z" fill="#F2F2F2"/>
<path d="M281.203 288.527H229.262V299.677H281.203V288.527Z" fill="#FDCA05"/>
<path d="M281.203 294.373H229.262V305.524H281.203V294.373Z" fill="#032B4D"/>
<path d="M281.203 277.373H229.262V288.524H281.203V277.373Z" fill="#FF005C"/>
<path d="M342.217 316.236C342.34 316.236 342.458 316.187 342.545 316.1C342.632 316.013 342.68 315.894 342.68 315.771C342.68 315.648 342.632 315.53 342.545 315.443C342.458 315.356 342.34 315.307 342.217 315.307C342.094 315.307 341.976 315.356 341.889 315.443C341.802 315.53 341.753 315.648 341.753 315.771C341.753 315.894 341.802 316.013 341.889 316.1C341.976 316.187 342.094 316.236 342.217 316.236Z" fill="#00FF00"/>
<path d="M354.787 292.32H329.435V339.4H354.787V292.32Z" fill="#032B4D"/>
<path d="M385.085 282.409H361.279V299.754H385.085V282.409Z" fill="#FDCA05"/>
<path d="M385.085 287.491H361.279V304.836H385.085V287.491Z" fill="#032B4D"/>
<path opacity="0.2" d="M385.085 282.409H361.279V290.153H385.085V282.409Z" fill="#FDCA05"/>
<path opacity="0.8" d="M266.514 237.522H242.708V245.265H266.514V237.522Z" fill="#FDCA05"/>
<path d="M196.627 307.423C195.244 305.959 194.47 304.022 194.463 302.006C194.472 300.618 194.84 299.255 195.53 298.051C196.22 296.846 197.21 295.841 198.402 295.133C197.867 294.355 197.58 293.433 197.579 292.488C197.602 291.191 198.138 289.956 199.069 289.055C200 288.154 201.25 287.659 202.545 287.681C203.606 287.669 204.644 287.999 205.503 288.624C206.363 289.248 206.999 290.132 207.318 291.147C207.996 290.08 208.933 289.202 210.042 288.597C211.15 287.992 212.394 287.679 213.656 287.687C217.744 287.687 221.058 290.896 221.058 294.851C221.059 295.698 220.905 296.538 220.604 297.329C220.755 297.329 220.913 297.307 221.058 297.307C224.338 297.307 226.997 299.881 226.997 303.056C226.997 303.25 226.987 303.443 226.966 303.635C228.275 304.164 229.397 305.069 230.191 306.237C230.985 307.405 231.416 308.783 231.428 310.196C231.428 314.139 228.126 317.335 224.051 317.335C223.623 317.335 223.196 317.298 222.774 317.227C222.796 317.465 222.808 317.704 222.808 317.948C222.808 322.374 219.098 325.961 214.531 325.961C212.853 325.966 211.211 325.469 209.817 324.533C208.688 325.461 207.272 325.965 205.813 325.961C202.412 325.961 199.629 323.282 199.629 319.974C199.629 319.832 199.629 319.689 199.651 319.55H199.629C195.972 319.55 193.007 316.678 193.007 313.141C193.015 311.944 193.358 310.773 193.998 309.762C194.639 308.751 195.55 307.941 196.627 307.423Z" fill="url(#paint13_linear)"/>
<path d="M197.285 307.399C195.968 305.994 195.234 304.141 195.232 302.214C195.24 300.885 195.591 299.58 196.251 298.427C196.912 297.274 197.859 296.312 199.001 295.635C198.489 294.89 198.215 294.006 198.215 293.101C198.226 292.486 198.357 291.879 198.602 291.315C198.847 290.751 199.2 290.241 199.641 289.813C200.083 289.386 200.604 289.05 201.175 288.824C201.747 288.599 202.357 288.488 202.971 288.499C203.984 288.489 204.975 288.805 205.796 289.401C206.617 289.997 207.225 290.841 207.531 291.81C208.179 290.788 209.076 289.949 210.137 289.37C211.198 288.79 212.389 288.491 213.597 288.499C217.508 288.499 220.68 291.568 220.68 295.356C220.681 296.165 220.534 296.967 220.247 297.723C220.389 297.723 220.535 297.701 220.68 297.701C223.821 297.701 226.366 300.179 226.366 303.205C226.366 303.39 226.357 303.575 226.338 303.759C227.589 304.266 228.663 305.134 229.422 306.252C230.182 307.37 230.593 308.689 230.604 310.041C230.604 313.817 227.445 316.877 223.543 316.877C223.128 316.877 222.715 316.842 222.306 316.772C222.328 316.998 222.34 317.23 222.34 317.462C222.34 321.696 218.794 325.131 214.416 325.131C212.815 325.131 211.251 324.655 209.921 323.762C208.841 324.649 207.487 325.132 206.09 325.128C202.822 325.128 200.173 322.564 200.173 319.398C200.173 319.262 200.173 319.126 200.194 318.992H200.173C196.673 318.992 193.834 316.245 193.834 312.856C193.844 311.715 194.172 310.598 194.781 309.634C195.391 308.669 196.258 307.895 197.285 307.399Z" fill="#009688"/>
<path d="M211.834 299.376H209.516V341.999H211.834V299.376Z" fill="url(#paint14_linear)"/>
<path d="M211.352 299.376H210.072V341.999H211.352V299.376Z" fill="#795548"/>
<path d="M203.703 303.927L202.789 304.825L210.385 312.588L211.299 311.691L203.703 303.927Z" fill="#795548"/>
<path d="M218.353 312.746L210.477 318.283L211.212 319.333L219.088 313.796L218.353 312.746Z" fill="#795548"/>
<path d="M181.477 307.423C180.094 305.959 179.32 304.022 179.313 302.006C179.322 300.618 179.69 299.255 180.38 298.051C181.07 296.846 182.059 295.841 183.252 295.133C182.716 294.355 182.43 293.433 182.429 292.488C182.452 291.191 182.988 289.956 183.919 289.055C184.85 288.154 186.1 287.659 187.394 287.681C188.456 287.669 189.493 287.999 190.353 288.624C191.213 289.248 191.849 290.132 192.168 291.147C192.846 290.08 193.783 289.202 194.891 288.597C196 287.992 197.244 287.679 198.506 287.687C202.593 287.687 205.908 290.896 205.908 294.851C205.908 295.698 205.754 296.538 205.453 297.329C205.605 297.329 205.762 297.307 205.908 297.307C209.188 297.307 211.847 299.881 211.847 303.056C211.847 303.25 211.836 303.443 211.816 303.635C213.124 304.164 214.246 305.069 215.041 306.237C215.835 307.405 216.265 308.783 216.277 310.196C216.277 314.139 212.975 317.335 208.9 317.335C208.473 317.335 208.045 317.298 207.624 317.227C207.645 317.465 207.658 317.704 207.658 317.948C207.658 322.374 203.947 325.961 199.381 325.961C197.703 325.966 196.061 325.469 194.666 324.533C193.538 325.461 192.122 325.965 190.662 325.961C187.261 325.961 184.479 323.282 184.479 319.974C184.479 319.832 184.479 319.689 184.501 319.55H184.479C180.821 319.55 177.856 316.678 177.856 313.141C177.864 311.944 178.208 310.773 178.848 309.762C179.488 308.751 180.399 307.941 181.477 307.423Z" fill="url(#paint15_linear)"/>
<path d="M182.136 307.399C180.82 305.994 180.086 304.141 180.083 302.214C180.091 300.885 180.442 299.58 181.103 298.427C181.763 297.274 182.711 296.312 183.852 295.635C183.34 294.89 183.067 294.006 183.067 293.101C183.077 292.486 183.209 291.879 183.453 291.315C183.698 290.751 184.051 290.241 184.493 289.813C184.934 289.386 185.456 289.05 186.027 288.824C186.598 288.599 187.208 288.488 187.822 288.499C188.836 288.489 189.826 288.805 190.647 289.401C191.468 289.997 192.076 290.841 192.382 291.81C193.031 290.788 193.928 289.949 194.989 289.37C196.05 288.79 197.24 288.491 198.448 288.499C202.359 288.499 205.531 291.568 205.531 295.356C205.532 296.165 205.386 296.967 205.099 297.723C205.241 297.723 205.386 297.701 205.531 297.701C208.673 297.701 211.217 300.179 211.217 303.205C211.217 303.39 211.208 303.575 211.189 303.759C212.441 304.266 213.514 305.134 214.274 306.252C215.033 307.37 215.445 308.689 215.456 310.041C215.456 313.817 212.296 316.877 208.394 316.877C207.98 316.877 207.566 316.842 207.158 316.772C207.179 316.998 207.192 317.23 207.192 317.462C207.192 321.696 203.646 325.131 199.268 325.131C197.667 325.131 196.102 324.655 194.772 323.762C193.692 324.649 192.338 325.132 190.942 325.128C187.674 325.128 185.024 322.564 185.024 319.398C185.024 319.262 185.024 319.126 185.046 318.992H185.024C181.524 318.992 178.686 316.245 178.686 312.856C178.695 311.715 179.023 310.598 179.633 309.634C180.243 308.669 181.11 307.895 182.136 307.399Z" fill="#009688"/>
<path d="M196.685 299.376H194.367V341.999H196.685V299.376Z" fill="url(#paint16_linear)"/>
<path d="M196.202 299.376H194.922V341.999H196.202V299.376Z" fill="#795548"/>
<path d="M188.556 303.929L187.642 304.826L195.239 312.59L196.153 311.692L188.556 303.929Z" fill="#795548"/>
<path d="M203.203 312.749L195.328 318.286L196.063 319.335L203.939 313.798L203.203 312.749Z" fill="#795548"/>
<path d="M215.94 307.762C216.721 306.87 217.301 305.82 217.642 304.684C217.982 303.548 218.075 302.352 217.913 301.177C217.751 300.002 217.34 298.876 216.705 297.874C216.071 296.872 215.229 296.019 214.237 295.372C214.749 294.578 215.02 293.653 215.019 292.708C215.047 291.555 214.653 290.431 213.911 289.549C213.169 288.667 212.13 288.088 210.991 287.921C209.851 287.754 208.69 288.011 207.727 288.643C206.764 289.275 206.065 290.239 205.762 291.352C205.148 290.295 204.269 289.418 203.212 288.807C202.155 288.196 200.957 287.872 199.737 287.867C198.801 287.876 197.877 288.071 197.017 288.438C196.157 288.806 195.377 289.34 194.724 290.01C194.07 290.679 193.554 291.472 193.206 292.341C192.858 293.211 192.685 294.141 192.697 295.078C192.697 295.922 192.842 296.761 193.126 297.556C192.984 297.556 192.842 297.534 192.697 297.534C191.943 297.542 191.199 297.699 190.507 297.995C189.814 298.292 189.187 298.724 188.662 299.264C188.136 299.805 187.722 300.444 187.444 301.146C187.166 301.847 187.03 302.596 187.042 303.351C187.042 303.549 187.042 303.744 187.07 303.936C185.8 304.507 184.723 305.435 183.97 306.607C183.217 307.78 182.82 309.146 182.828 310.54C182.811 312.424 183.539 314.238 184.854 315.586C186.168 316.933 187.962 317.704 189.843 317.729C190.25 317.729 190.657 317.693 191.058 317.621C191.036 317.859 191.024 318.101 191.024 318.345C191.024 322.799 194.549 326.398 198.896 326.398C200.503 326.398 202.07 325.896 203.379 324.961C204.431 325.887 205.784 326.397 207.185 326.398C208.761 326.379 210.264 325.733 211.366 324.604C212.467 323.474 213.076 321.953 213.059 320.374C213.059 320.228 213.059 320.089 213.037 319.947H213.059C214.748 319.927 216.36 319.236 217.541 318.027C218.722 316.817 219.375 315.187 219.357 313.495C219.362 312.318 219.046 311.163 218.444 310.152C217.842 309.142 216.976 308.316 215.94 307.762Z" fill="url(#paint17_linear)"/>
<path d="M215.032 307.724C215.762 306.887 216.304 305.903 216.622 304.838C216.94 303.773 217.026 302.652 216.874 301.55C216.723 300.449 216.336 299.394 215.742 298.455C215.148 297.516 214.36 296.716 213.43 296.109C213.91 295.364 214.165 294.496 214.163 293.609C214.192 292.526 213.823 291.469 213.126 290.64C212.43 289.81 211.454 289.266 210.383 289.109C209.313 288.952 208.222 289.194 207.317 289.788C206.413 290.383 205.757 291.29 205.475 292.336C204.898 291.344 204.073 290.521 203.08 289.947C202.088 289.373 200.963 289.069 199.817 289.065C198.048 289.09 196.36 289.816 195.124 291.086C193.889 292.355 193.206 294.063 193.226 295.836C193.225 296.632 193.362 297.422 193.631 298.171C193.498 298.171 193.362 298.15 193.226 298.15C191.804 298.166 190.446 298.748 189.452 299.766C188.458 300.785 187.908 302.158 187.923 303.583C187.923 303.768 187.923 303.951 187.951 304.131C186.76 304.666 185.749 305.536 185.042 306.636C184.336 307.736 183.963 309.018 183.969 310.326C183.95 312.095 184.633 313.799 185.868 315.064C187.103 316.329 188.789 317.051 190.555 317.072C190.937 317.071 191.319 317.037 191.695 316.969C191.677 317.196 191.664 317.422 191.664 317.651C191.664 321.832 194.973 325.221 199.054 325.221C200.562 325.222 202.033 324.751 203.261 323.873C204.249 324.739 205.517 325.217 206.829 325.218C207.563 325.21 208.287 325.057 208.961 324.768C209.636 324.48 210.247 324.061 210.76 323.536C211.272 323.01 211.677 322.389 211.95 321.707C212.223 321.026 212.359 320.296 212.351 319.562C212.351 319.426 212.351 319.292 212.333 319.159H212.351C213.136 319.15 213.912 318.987 214.634 318.677C215.356 318.368 216.01 317.919 216.559 317.357C217.108 316.794 217.541 316.129 217.834 315.398C218.126 314.668 218.272 313.887 218.263 313.101C218.264 311.995 217.964 310.909 217.394 309.962C216.825 309.014 216.008 308.24 215.032 307.724Z" fill="#00897B"/>
<path d="M203.373 299.083H201.657V341.855H203.373V299.083Z" fill="url(#paint18_linear)"/>
<path d="M203.008 299.683H202.145V341.854H203.008V299.683Z" fill="#795548"/>
<path d="M209.156 304.435L202.07 312.1L202.703 312.687L209.789 305.022L209.156 304.435Z" fill="#795548"/>
<path d="M195.295 313.184L194.78 313.877L202.127 319.344L202.642 318.65L195.295 313.184Z" fill="#795548"/>
<path d="M339.244 231.012C335.439 231.012 335.432 236.934 339.244 236.934C343.057 236.934 343.053 231.012 339.244 231.012Z" fill="url(#paint19_linear)"/>
<path d="M365.765 212.037C355.525 211.805 346.204 216.952 341.251 224.736C339.634 227.27 344.225 229.509 345.833 226.988C349.936 220.555 357.733 216.457 366.158 216.683C374.994 216.906 383.036 221.97 387.293 228.998C388.91 231.665 393.139 229.24 391.535 226.588C386.368 218.049 376.345 212.275 365.765 212.037Z" fill="url(#paint20_linear)"/>
<path d="M493.685 246.006L300.44 257.907V261.677L497.803 253.842L493.685 246.006Z" fill="#535461"/>
<defs>
<linearGradient id="paint0_linear" x1="611.238" y1="641.643" x2="611.238" y2="94.4381" gradientUnits="userSpaceOnUse">
<stop stop-color="#808080" stop-opacity="0.25"/>
<stop offset="0.54" stop-color="#808080" stop-opacity="0.12"/>
<stop offset="1" stop-color="#808080" stop-opacity="0.1"/>
</linearGradient>
<linearGradient id="paint1_linear" x1="442.171" y1="307.133" x2="442.171" y2="239.765" gradientUnits="userSpaceOnUse">
<stop stop-color="#808080" stop-opacity="0.25"/>
<stop offset="0.54" stop-color="#808080" stop-opacity="0.12"/>
<stop offset="1" stop-color="#808080" stop-opacity="0.1"/>
</linearGradient>
<linearGradient id="paint2_linear" x1="3887.84" y1="35175.9" x2="3887.84" y2="17001.3" gradientUnits="userSpaceOnUse">
<stop stop-color="#808080" stop-opacity="0.25"/>
<stop offset="0.54" stop-color="#808080" stop-opacity="0.12"/>
<stop offset="1" stop-color="#808080" stop-opacity="0.1"/>
</linearGradient>
<linearGradient id="paint3_linear" x1="60037.8" y1="43629.8" x2="60037.8" y2="28324.1" gradientUnits="userSpaceOnUse">
<stop stop-color="#808080" stop-opacity="0.25"/>
<stop offset="0.54" stop-color="#808080" stop-opacity="0.12"/>
<stop offset="1" stop-color="#808080" stop-opacity="0.1"/>
</linearGradient>
<linearGradient id="paint4_linear" x1="2794.72" y1="36171.9" x2="2794.72" y2="17308.8" gradientUnits="userSpaceOnUse">
<stop stop-color="#808080" stop-opacity="0.25"/>
<stop offset="0.54" stop-color="#808080" stop-opacity="0.12"/>
<stop offset="1" stop-color="#808080" stop-opacity="0.1"/>
</linearGradient>
<linearGradient id="paint5_linear" x1="40411.3" y1="30874.4" x2="40411.3" y2="24069.7" gradientUnits="userSpaceOnUse">
<stop stop-color="#808080" stop-opacity="0.25"/>
<stop offset="0.54" stop-color="#808080" stop-opacity="0.12"/>
<stop offset="1" stop-color="#808080" stop-opacity="0.1"/>
</linearGradient>
<linearGradient id="paint6_linear" x1="2389.66" y1="24788.2" x2="2389.66" y2="16348.4" gradientUnits="userSpaceOnUse">
<stop stop-color="#808080" stop-opacity="0.25"/>
<stop offset="0.54" stop-color="#808080" stop-opacity="0.12"/>
<stop offset="1" stop-color="#808080" stop-opacity="0.1"/>
</linearGradient>
<linearGradient id="paint7_linear" x1="36979.3" y1="31326.9" x2="36979.3" y2="24431" gradientUnits="userSpaceOnUse">
<stop stop-color="#808080" stop-opacity="0.25"/>
<stop offset="0.54" stop-color="#808080" stop-opacity="0.12"/>
<stop offset="1" stop-color="#808080" stop-opacity="0.1"/>
</linearGradient>
<linearGradient id="paint8_linear" x1="1821.59" y1="25029" x2="1821.59" y2="16530.9" gradientUnits="userSpaceOnUse">
<stop stop-color="#808080" stop-opacity="0.25"/>
<stop offset="0.54" stop-color="#808080" stop-opacity="0.12"/>
<stop offset="1" stop-color="#808080" stop-opacity="0.1"/>
</linearGradient>
<linearGradient id="paint9_linear" x1="47929.7" y1="38073.3" x2="47929.7" y2="18559.6" gradientUnits="userSpaceOnUse">
<stop stop-color="#808080" stop-opacity="0.25"/>
<stop offset="0.54" stop-color="#808080" stop-opacity="0.12"/>
<stop offset="1" stop-color="#808080" stop-opacity="0.1"/>
</linearGradient>
<linearGradient id="paint10_linear" x1="87256.8" y1="18830.8" x2="87256.8" y2="14518" gradientUnits="userSpaceOnUse">
<stop stop-color="#808080" stop-opacity="0.25"/>
<stop offset="0.54" stop-color="#808080" stop-opacity="0.12"/>
<stop offset="1" stop-color="#808080" stop-opacity="0.1"/>
</linearGradient>
<linearGradient id="paint11_linear" x1="24250.7" y1="71445.4" x2="24250.7" y2="2148.29" gradientUnits="userSpaceOnUse">
<stop stop-color="#808080" stop-opacity="0.25"/>
<stop offset="0.54" stop-color="#808080" stop-opacity="0.12"/>
<stop offset="1" stop-color="#808080" stop-opacity="0.1"/>
</linearGradient>
<linearGradient id="paint12_linear" x1="28054" y1="9584.23" x2="28054" y2="318.937" gradientUnits="userSpaceOnUse">
<stop stop-color="#808080" stop-opacity="0.25"/>
<stop offset="0.54" stop-color="#808080" stop-opacity="0.12"/>
<stop offset="1" stop-color="#808080" stop-opacity="0.1"/>
</linearGradient>
<linearGradient id="paint13_linear" x1="10083.7" y1="26485.7" x2="10083.7" y2="21755.7" gradientUnits="userSpaceOnUse">
<stop stop-color="#808080" stop-opacity="0.25"/>
<stop offset="0.54" stop-color="#808080" stop-opacity="0.12"/>
<stop offset="1" stop-color="#808080" stop-opacity="0.1"/>
</linearGradient>
<linearGradient id="paint14_linear" x1="455.632" y1="21044.8" x2="455.632" y2="15179.5" gradientUnits="userSpaceOnUse">
<stop stop-color="#808080" stop-opacity="0.25"/>
<stop offset="0.54" stop-color="#808080" stop-opacity="0.12"/>
<stop offset="1" stop-color="#808080" stop-opacity="0.1"/>
</linearGradient>
<linearGradient id="paint15_linear" x1="8185.91" y1="26485.7" x2="8185.91" y2="21755.7" gradientUnits="userSpaceOnUse">
<stop stop-color="#808080" stop-opacity="0.25"/>
<stop offset="0.54" stop-color="#808080" stop-opacity="0.12"/>
<stop offset="1" stop-color="#808080" stop-opacity="0.1"/>
</linearGradient>
<linearGradient id="paint16_linear" x1="326.862" y1="21044.8" x2="326.862" y2="15179.5" gradientUnits="userSpaceOnUse">
<stop stop-color="#808080" stop-opacity="0.25"/>
<stop offset="0.54" stop-color="#808080" stop-opacity="0.12"/>
<stop offset="1" stop-color="#808080" stop-opacity="0.1"/>
</linearGradient>
<linearGradient id="paint17_linear" x1="8273.35" y1="26714.5" x2="8273.35" y2="21921.6" gradientUnits="userSpaceOnUse">
<stop stop-color="#808080" stop-opacity="0.25"/>
<stop offset="0.54" stop-color="#808080" stop-opacity="0.12"/>
<stop offset="1" stop-color="#808080" stop-opacity="0.1"/>
</linearGradient>
<linearGradient id="paint18_linear" x1="338.501" y1="21096.8" x2="338.501" y2="15190.4" gradientUnits="userSpaceOnUse">
<stop stop-color="#808080" stop-opacity="0.25"/>
<stop offset="0.54" stop-color="#808080" stop-opacity="0.12"/>
<stop offset="1" stop-color="#808080" stop-opacity="0.1"/>
</linearGradient>
<linearGradient id="paint19_linear" x1="339.244" y1="236.937" x2="339.244" y2="231.012" gradientUnits="userSpaceOnUse">
<stop stop-opacity="0.12"/>
<stop offset="0.55" stop-opacity="0.09"/>
<stop offset="1" stop-opacity="0.02"/>
</linearGradient>
<linearGradient id="paint20_linear" x1="38888.4" y1="7009.98" x2="38888.4" y2="5949.97" gradientUnits="userSpaceOnUse">
<stop stop-opacity="0.12"/>
<stop offset="0.55" stop-opacity="0.09"/>
<stop offset="1" stop-opacity="0.02"/>
</linearGradient>
<clipPath id="clip0">
<rect y="0.679688" width="830" height="662.306" fill="white"/>
</clipPath>
</defs>
</svg>
