<svg width="601" height="372" viewBox="0 0 601 372" fill="none" xmlns="http://www.w3.org/2000/svg">
<path opacity="0.2" d="M517.474 349.954C482.81 374.948 390.669 363.669 308.96 352.745C227.252 341.82 156.126 331.312 113.383 298.874C70.7743 266.512 56.5263 212.134 77.6701 163.07C98.6569 113.934 155.185 70.0969 232.722 45.2273C310.258 20.281 408.817 14.3065 457.986 43.7671C507.262 73.1177 507.02 137.894 518.294 200.836C529.447 263.769 552.252 324.95 517.474 349.954Z" fill="#032B4D"/>
<path d="M41.8016 240.296C38.4232 240.296 37.6045 236.612 33.3528 236.612C30.7057 236.612 25.166 238.119 25.166 240.7L27.955 260.223H43.3734L46.5827 238.643C46.1897 239.86 44.405 240.296 41.8016 240.296Z" fill="#FDCA05"/>
<g filter="url(#filter0_d)">
<path d="M461.135 362.748C467.782 352.924 470.555 345.114 470.555 342.036C470.555 311.581 367.581 279.068 264.248 273.098C264.231 257.777 190.321 155.808 146.985 155.808C116.159 155.808 95.0156 175.456 95.0156 220.757C95.0156 278.108 117.633 326.601 149.873 362.748H461.135Z" fill="#032B4D"/>
</g>
<g filter="url(#filter1_d)">
<path d="M459.444 249.732C463.636 249.732 465.852 209.568 465.852 205.136C465.852 200.704 456.268 158.744 427.215 158.744C416.261 158.744 408.479 170.173 408.479 184.462C408.479 204.225 435.424 218.906 439.588 223.354C446.765 231.001 450.575 249.732 459.444 249.732Z" fill="#FF4568"/>
</g>
<g filter="url(#filter2_d)">
<path d="M464.711 269.621C462.113 269.621 455.072 250.136 455.072 234.035C455.072 215.271 472.183 192.31 474.475 184.025C478.53 169.332 485.211 140.657 505.585 140.657C517.155 140.657 524 153.363 524 166.56C524 179.266 511.61 190.263 500.465 202.893C489.55 215.271 490.81 225.707 484.736 240.852C478.514 256.325 468.346 269.621 464.711 269.621Z" fill="#FDD835"/>
</g>
<path d="M464.462 265.445C460.69 243.183 484.568 176.575 502.705 157.925" stroke="#FF4568" stroke-width="2.38" stroke-linecap="round" stroke-linejoin="round"/>
<path d="M433.111 174.643C436.763 177.655 458.037 213.115 459.626 230.204" stroke="#FDCA05" stroke-width="2.38" stroke-linecap="round" stroke-linejoin="round"/>
<g filter="url(#filter3_d)">
<path d="M466.069 261.314H495.246L480.658 362.749H466.069H465.67H451.081L436.498 261.314H465.67" fill="#795548"/>
</g>
<path d="M220.092 134.32C220.092 180.647 234.282 180.423 234.282 187.152C234.282 200.377 227.673 198.832 227.673 198.832C227.673 198.832 159.597 192.196 220.092 134.32Z" fill="black"/>
<path d="M67.8203 44.2984V2" stroke="#C4C4C4" stroke-width="2.38" stroke-linecap="round" stroke-linejoin="round"/>
<path d="M342.586 44.2984V2" stroke="#C4C4C4" stroke-width="2.38" stroke-linecap="round" stroke-linejoin="round"/>
<path d="M67.8212 92.5297C72.9757 92.5297 77.1542 88.3512 77.1542 83.1967C77.1542 78.0423 72.9757 73.8638 67.8212 73.8638C62.6668 73.8638 58.4883 78.0423 58.4883 83.1967C58.4883 88.3512 62.6668 92.5297 67.8212 92.5297Z" fill="#FDCA05"/>
<path d="M342.587 93.5297C347.741 93.5297 351.92 89.3512 351.92 84.1967C351.92 79.0423 347.741 74.8638 342.587 74.8638C337.432 74.8638 333.254 79.0423 333.254 84.1967C333.254 89.3512 337.432 93.5297 342.587 93.5297Z" fill="#FDCA05"/>
<g filter="url(#filter4_d)">
<path d="M468.316 315.259C464.762 309.07 336.235 269.473 321.423 268.868C293.587 264.152 275.265 279.352 268.52 292.609C294.439 298.433 325.281 306.952 333.135 310.189H335.056C336.148 310.129 337.387 310.118 338.811 310.156C348.586 310.042 356.74 309.812 361.139 309.55C374.489 314.528 461.444 333.767 463.584 332.604C465.723 331.442 469.893 317.999 468.316 315.259Z" fill="#FDCA05"/>
</g>
<g filter="url(#filter5_d)">
<path d="M235.279 286.797C243.171 287.168 259.037 290.334 275.831 294.28C286.081 284.308 293.804 270.702 293.061 254.437C277.234 217.957 213.922 170.796 187.452 170.817C183.473 174.092 182.6 197.959 179.581 211.861C178.49 216.958 183.713 231.694 191.589 248.39C209.632 262.067 226.939 277.759 235.279 286.797Z" fill="#FF4568"/>
</g>
<path d="M466.514 319.08L477.795 321.978L474.324 333.336L463.141 331.322L466.514 319.08Z" fill="#E49D75"/>
<path d="M204.607 163.853C204.4 166.494 204.536 177.541 205.857 182.89C202.108 182.824 179.73 162.254 204.607 163.853Z" fill="#E49D75"/>
<path d="M199.365 166.609C210.292 166.609 219.15 155.002 219.15 140.684C219.15 126.366 210.292 114.759 199.365 114.759C188.438 114.759 179.58 126.366 179.58 140.684C179.58 155.002 188.438 166.609 199.365 166.609Z" fill="#E49D75"/>
<g filter="url(#filter6_d)">
<path d="M198.137 107.664C172.343 107.664 162.115 145.001 162.115 165.517C162.115 183.905 169.019 188.828 172.169 190.334C175.318 191.841 183.264 192.119 188.335 193.347C194.83 194.924 198.355 200.884 204.359 200.884C209.02 200.884 211.765 196.36 211.765 192.698C211.765 177.858 186.938 165.408 186.938 143.326C191.697 141.688 209.511 128.715 209.511 123.552C209.511 127.056 218.626 136.574 220.165 137.251C220.842 135.019 217.114 107.664 198.137 107.664Z" fill="black"/>
</g>
<path d="M297.273 208.073L268.514 206.419L265.562 257.764L294.321 259.417L297.273 208.073Z" fill="#E0E0E0"/>
<path d="M320.698 242.578L301.012 257.778L303.964 206.43L323.651 191.23L320.698 242.578Z" fill="#C9C9C9"/>
<path d="M270.291 203.171L299.136 207.625" stroke="#D3D3D3" stroke-width="2.38" stroke-linecap="round" stroke-linejoin="round"/>
<path d="M314.511 190.313L300.49 207.625" stroke="#D3D3D3" stroke-width="2.38" stroke-linecap="round" stroke-linejoin="round"/>
<path d="M318.266 191.831L301.631 207.156" stroke="#D3D3D3" stroke-width="2.38" stroke-linecap="round" stroke-linejoin="round"/>
<path d="M407.787 316.656L413.332 324.805L421.213 319.948L416.536 312.066L407.787 316.656Z" fill="#E49D75"/>
<g filter="url(#filter7_d)">
<path d="M67.8205 44.2983C58.3358 44.2998 49.2402 48.0686 42.5341 54.7757C35.8279 61.4829 32.0605 70.5791 32.0605 80.0637H67.8259H103.591C103.591 75.3665 102.666 70.7152 100.868 66.3756C99.0706 62.036 96.4356 58.093 93.1139 54.7718C89.7922 51.4506 85.8488 48.8163 81.509 47.0192C77.1691 45.2222 72.5177 44.2976 67.8205 44.2983Z" fill="#FF4568"/>
</g>
<g filter="url(#filter8_d)">
<path d="M342.586 44.2983C337.89 44.2983 333.239 45.2235 328.9 47.0209C324.561 48.8184 320.619 51.4529 317.298 54.7741C313.977 58.0953 311.343 62.0381 309.547 66.3773C307.75 70.7165 306.825 75.3672 306.826 80.0637H378.324C378.324 70.5829 374.56 61.4899 367.858 54.7834C361.157 48.0769 352.067 44.3056 342.586 44.2983Z" fill="#FF4568"/>
</g>
<g filter="url(#filter9_d)">
<path d="M6 261.314H115.616" stroke="#C4C4C4" stroke-width="2.38" stroke-linecap="round" stroke-linejoin="round"/>
</g>
<g filter="url(#filter10_d)">
<path d="M60.8086 261.314V362.749" stroke="#C4C4C4" stroke-width="2.38" stroke-linecap="round" stroke-linejoin="round"/>
</g>
<path d="M89.6361 246.588H64.6719V260.222H89.6361V246.588Z" stroke="#FD8369" stroke-width="2.38" stroke-linecap="round" stroke-linejoin="round"/>
<path d="M185.301 150.989C188.146 150.989 190.453 148.682 190.453 145.836C190.453 142.991 188.146 140.684 185.301 140.684C182.455 140.684 180.148 142.991 180.148 145.836C180.148 148.682 182.455 150.989 185.301 150.989Z" fill="#E49D75"/>
<path d="M301.013 257.777L294.311 259.431L297.263 208.089L303.966 206.43L301.013 257.777Z" fill="#D3D3D3"/>
<path d="M411.771 324.369L415.843 335.628L449.971 326.967L448.672 320.379L420.957 318.403L411.771 324.369Z" fill="black"/>
<path d="M473.693 332.714L484.505 337.866L502.702 307.717L497.151 303.946L476.04 322.022L473.693 332.714Z" fill="black"/>
<g filter="url(#filter11_d)">
<path d="M355.649 200.885C329.254 206.888 283.643 255.463 261.107 290.983C277.443 294.433 297.129 299.405 312.057 303.591C334.767 285.918 351.353 257.745 353.809 254.383C360.009 267.007 404.065 318.404 407.296 318.404C410.527 318.404 415.783 316.111 417.852 312.209C415.996 301.195 369.643 198.887 355.649 200.885Z" fill="#FDCA05"/>
</g>
<path d="M207.253 260.883C227.704 259.022 267.393 251.73 270.788 251.01C275.056 250.109 278.931 236.787 275.182 228.9C273.888 226.575 272.453 226.515 271.361 226.772C270.27 227.028 267.666 236.628 265.008 237.142C262.35 237.655 213.218 240.591 209.065 240.776C208.519 238.189 203.525 219.447 202.325 217.968C201.124 216.489 175.09 229.582 175.09 229.582C176.288 232.967 177.687 236.277 179.281 239.494C188.685 245.94 198.406 253.504 207.253 260.883Z" fill="#E49D75"/>
<g filter="url(#filter12_d)">
<path d="M171.658 179.276C180.194 176.253 199.401 186.999 205.12 217.454C201.846 222.033 183.835 232.043 173.372 231.896C168.798 227.851 153.5 185.684 171.658 179.276Z" fill="#FF4568"/>
</g>
<path d="M48.1463 228.125L43.3761 260.222H27.9577L23.373 228.125" stroke="#FD8369" stroke-width="2.38" stroke-linecap="round" stroke-linejoin="round"/>
<g filter="url(#filter13_d)">
<path d="M445.616 80.2318C462.525 80.2318 476.232 66.5246 476.232 49.6159C476.232 32.7072 462.525 19 445.616 19C428.707 19 415 32.7072 415 49.6159C415 66.5246 428.707 80.2318 445.616 80.2318Z" fill="#FDCA05"/>
</g>
<path d="M445.615 49.6159V27.7305" stroke="#032B4D" stroke-width="3" stroke-linecap="round" stroke-linejoin="round"/>
<path d="M445.615 49.6162H459.754" stroke="#032B4D" stroke-width="3" stroke-linecap="round" stroke-linejoin="round"/>
<g filter="url(#filter14_d)">
<path d="M253.437 62.8813H144V67.4435H253.437V62.8813Z" fill="#FF4568"/>
</g>
<g filter="url(#filter15_d)">
<path d="M203.51 6H192.564V62.8813H203.51V6Z" fill="#5F5C9C"/>
</g>
<g filter="url(#filter16_d)">
<path d="M192.565 13.0918H183.047V62.8863H192.565V13.0918Z" fill="#FDCA05"/>
</g>
<g filter="url(#filter17_d)">
<path d="M217.321 15.0908L209.326 20.3257L236.713 62.1531L244.708 56.9182L217.321 15.0908Z" fill="#5F5C9C"/>
</g>
<g filter="url(#filter18_d)">
<path d="M209.405 21.5664H203.504V62.8814H209.405V21.5664Z" fill="#032B4D"/>
</g>
<path d="M163.645 67.4434H157.941V73.1472H163.645V67.4434Z" fill="#FF4568"/>
<path d="M239.495 67.4434H233.791V73.1472H239.495V67.4434Z" fill="#FF4568"/>
<path d="M509.19 84.7885C504.982 90.3546 503.698 96.2553 506.469 99.3705L506.424 99.4788L548.202 62.3076" fill="#FF4568"/>
<g filter="url(#filter19_d)">
<path d="M595.949 350.981H530.371V360.686H595.949V350.981Z" fill="#032B4D"/>
</g>
<g filter="url(#filter20_d)">
<path d="M563.162 117.166C555.234 117.14 547.639 113.979 542.033 108.374C536.427 102.768 533.266 95.172 533.24 87.2442V71.6582" stroke="#FDCA05" stroke-width="3" stroke-linecap="round" stroke-linejoin="round"/>
</g>
<g filter="url(#filter21_d)">
<path d="M593.029 45.2554V58.1002C593.003 66.028 589.843 73.6237 584.237 79.2296C578.631 84.8354 571.035 87.9962 563.107 88.0222" stroke="#FDCA05" stroke-width="3" stroke-linecap="round" stroke-linejoin="round"/>
</g>
<g filter="url(#filter22_d)">
<path d="M563.162 355.255V45.2554" stroke="#032B4D" stroke-width="3" stroke-linecap="round" stroke-linejoin="round"/>
</g>
<g filter="url(#filter23_d)">
<path d="M529.338 65.9447C529.338 65.9447 525.638 63.3413 523.167 63.3413C520.697 63.3413 509.279 72.7854 508.354 77.2934C507.428 81.8014 511.592 92.6334 512.783 93.8243L523.177 84.5623L529.338 65.9398" fill="#FF4568"/>
</g>
<g filter="url(#filter24_d)">
<path d="M593.029 45.1714C594.733 45.1714 596.115 43.7899 596.115 42.0857C596.115 40.3815 594.733 39 593.029 39C591.325 39 589.943 40.3815 589.943 42.0857C589.943 43.7899 591.325 45.1714 593.029 45.1714Z" fill="#FFD98E"/>
</g>
<g filter="url(#filter25_d)">
<path d="M521.404 85.9303C517.851 81.9342 520.966 73.3562 528.368 66.7714C535.77 60.1866 544.643 58.095 548.201 62.0862" fill="#FF8097"/>
</g>
<defs>
<filter id="filter0_d" x="91.0156" y="155.808" width="383.539" height="214.94" filterUnits="userSpaceOnUse" color-interpolation-filters="sRGB">
<feFlood flood-opacity="0" result="BackgroundImageFix"/>
<feColorMatrix in="SourceAlpha" type="matrix" values="0 0 0 0 0 0 0 0 0 0 0 0 0 0 0 0 0 0 127 0"/>
<feOffset dy="4"/>
<feGaussianBlur stdDeviation="2"/>
<feColorMatrix type="matrix" values="0 0 0 0 0 0 0 0 0 0 0 0 0 0 0 0 0 0 0.25 0"/>
<feBlend mode="normal" in2="BackgroundImageFix" result="effect1_dropShadow"/>
<feBlend mode="normal" in="SourceGraphic" in2="effect1_dropShadow" result="shape"/>
</filter>
<filter id="filter1_d" x="404.479" y="158.744" width="65.3731" height="98.988" filterUnits="userSpaceOnUse" color-interpolation-filters="sRGB">
<feFlood flood-opacity="0" result="BackgroundImageFix"/>
<feColorMatrix in="SourceAlpha" type="matrix" values="0 0 0 0 0 0 0 0 0 0 0 0 0 0 0 0 0 0 127 0"/>
<feOffset dy="4"/>
<feGaussianBlur stdDeviation="2"/>
<feColorMatrix type="matrix" values="0 0 0 0 0 0 0 0 0 0 0 0 0 0 0 0 0 0 0.25 0"/>
<feBlend mode="normal" in2="BackgroundImageFix" result="effect1_dropShadow"/>
<feBlend mode="normal" in="SourceGraphic" in2="effect1_dropShadow" result="shape"/>
</filter>
<filter id="filter2_d" x="451.072" y="140.657" width="76.9274" height="136.964" filterUnits="userSpaceOnUse" color-interpolation-filters="sRGB">
<feFlood flood-opacity="0" result="BackgroundImageFix"/>
<feColorMatrix in="SourceAlpha" type="matrix" values="0 0 0 0 0 0 0 0 0 0 0 0 0 0 0 0 0 0 127 0"/>
<feOffset dy="4"/>
<feGaussianBlur stdDeviation="2"/>
<feColorMatrix type="matrix" values="0 0 0 0 0 0 0 0 0 0 0 0 0 0 0 0 0 0 0.25 0"/>
<feBlend mode="normal" in2="BackgroundImageFix" result="effect1_dropShadow"/>
<feBlend mode="normal" in="SourceGraphic" in2="effect1_dropShadow" result="shape"/>
</filter>
<filter id="filter3_d" x="432.498" y="261.314" width="66.7484" height="109.434" filterUnits="userSpaceOnUse" color-interpolation-filters="sRGB">
<feFlood flood-opacity="0" result="BackgroundImageFix"/>
<feColorMatrix in="SourceAlpha" type="matrix" values="0 0 0 0 0 0 0 0 0 0 0 0 0 0 0 0 0 0 127 0"/>
<feOffset dy="4"/>
<feGaussianBlur stdDeviation="2"/>
<feColorMatrix type="matrix" values="0 0 0 0 0 0 0 0 0 0 0 0 0 0 0 0 0 0 0.25 0"/>
<feBlend mode="normal" in2="BackgroundImageFix" result="effect1_dropShadow"/>
<feBlend mode="normal" in="SourceGraphic" in2="effect1_dropShadow" result="shape"/>
</filter>
<filter id="filter4_d" x="264.52" y="267.99" width="208.144" height="72.6652" filterUnits="userSpaceOnUse" color-interpolation-filters="sRGB">
<feFlood flood-opacity="0" result="BackgroundImageFix"/>
<feColorMatrix in="SourceAlpha" type="matrix" values="0 0 0 0 0 0 0 0 0 0 0 0 0 0 0 0 0 0 127 0"/>
<feOffset dy="4"/>
<feGaussianBlur stdDeviation="2"/>
<feColorMatrix type="matrix" values="0 0 0 0 0 0 0 0 0 0 0 0 0 0 0 0 0 0 0.25 0"/>
<feBlend mode="normal" in2="BackgroundImageFix" result="effect1_dropShadow"/>
<feBlend mode="normal" in="SourceGraphic" in2="effect1_dropShadow" result="shape"/>
</filter>
<filter id="filter5_d" x="175.438" y="170.817" width="121.673" height="131.462" filterUnits="userSpaceOnUse" color-interpolation-filters="sRGB">
<feFlood flood-opacity="0" result="BackgroundImageFix"/>
<feColorMatrix in="SourceAlpha" type="matrix" values="0 0 0 0 0 0 0 0 0 0 0 0 0 0 0 0 0 0 127 0"/>
<feOffset dy="4"/>
<feGaussianBlur stdDeviation="2"/>
<feColorMatrix type="matrix" values="0 0 0 0 0 0 0 0 0 0 0 0 0 0 0 0 0 0 0.25 0"/>
<feBlend mode="normal" in2="BackgroundImageFix" result="effect1_dropShadow"/>
<feBlend mode="normal" in="SourceGraphic" in2="effect1_dropShadow" result="shape"/>
</filter>
<filter id="filter6_d" x="158.115" y="107.664" width="66.1235" height="101.22" filterUnits="userSpaceOnUse" color-interpolation-filters="sRGB">
<feFlood flood-opacity="0" result="BackgroundImageFix"/>
<feColorMatrix in="SourceAlpha" type="matrix" values="0 0 0 0 0 0 0 0 0 0 0 0 0 0 0 0 0 0 127 0"/>
<feOffset dy="4"/>
<feGaussianBlur stdDeviation="2"/>
<feColorMatrix type="matrix" values="0 0 0 0 0 0 0 0 0 0 0 0 0 0 0 0 0 0 0.25 0"/>
<feBlend mode="normal" in2="BackgroundImageFix" result="effect1_dropShadow"/>
<feBlend mode="normal" in="SourceGraphic" in2="effect1_dropShadow" result="shape"/>
</filter>
<filter id="filter7_d" x="28.0605" y="44.2983" width="79.5308" height="43.7654" filterUnits="userSpaceOnUse" color-interpolation-filters="sRGB">
<feFlood flood-opacity="0" result="BackgroundImageFix"/>
<feColorMatrix in="SourceAlpha" type="matrix" values="0 0 0 0 0 0 0 0 0 0 0 0 0 0 0 0 0 0 127 0"/>
<feOffset dy="4"/>
<feGaussianBlur stdDeviation="2"/>
<feColorMatrix type="matrix" values="0 0 0 0 0 0 0 0 0 0 0 0 0 0 0 0 0 0 0.25 0"/>
<feBlend mode="normal" in2="BackgroundImageFix" result="effect1_dropShadow"/>
<feBlend mode="normal" in="SourceGraphic" in2="effect1_dropShadow" result="shape"/>
</filter>
<filter id="filter8_d" x="302.826" y="44.2983" width="79.498" height="43.7654" filterUnits="userSpaceOnUse" color-interpolation-filters="sRGB">
<feFlood flood-opacity="0" result="BackgroundImageFix"/>
<feColorMatrix in="SourceAlpha" type="matrix" values="0 0 0 0 0 0 0 0 0 0 0 0 0 0 0 0 0 0 127 0"/>
<feOffset dy="4"/>
<feGaussianBlur stdDeviation="2"/>
<feColorMatrix type="matrix" values="0 0 0 0 0 0 0 0 0 0 0 0 0 0 0 0 0 0 0.25 0"/>
<feBlend mode="normal" in2="BackgroundImageFix" result="effect1_dropShadow"/>
<feBlend mode="normal" in="SourceGraphic" in2="effect1_dropShadow" result="shape"/>
</filter>
<filter id="filter9_d" x="0.810547" y="260.125" width="119.996" height="10.38" filterUnits="userSpaceOnUse" color-interpolation-filters="sRGB">
<feFlood flood-opacity="0" result="BackgroundImageFix"/>
<feColorMatrix in="SourceAlpha" type="matrix" values="0 0 0 0 0 0 0 0 0 0 0 0 0 0 0 0 0 0 127 0"/>
<feOffset dy="4"/>
<feGaussianBlur stdDeviation="2"/>
<feColorMatrix type="matrix" values="0 0 0 0 0 0 0 0 0 0 0 0 0 0 0 0 0 0 0.25 0"/>
<feBlend mode="normal" in2="BackgroundImageFix" result="effect1_dropShadow"/>
<feBlend mode="normal" in="SourceGraphic" in2="effect1_dropShadow" result="shape"/>
</filter>
<filter id="filter10_d" x="55.6191" y="260.125" width="10.38" height="111.814" filterUnits="userSpaceOnUse" color-interpolation-filters="sRGB">
<feFlood flood-opacity="0" result="BackgroundImageFix"/>
<feColorMatrix in="SourceAlpha" type="matrix" values="0 0 0 0 0 0 0 0 0 0 0 0 0 0 0 0 0 0 127 0"/>
<feOffset dy="4"/>
<feGaussianBlur stdDeviation="2"/>
<feColorMatrix type="matrix" values="0 0 0 0 0 0 0 0 0 0 0 0 0 0 0 0 0 0 0.25 0"/>
<feBlend mode="normal" in2="BackgroundImageFix" result="effect1_dropShadow"/>
<feBlend mode="normal" in="SourceGraphic" in2="effect1_dropShadow" result="shape"/>
</filter>
<filter id="filter11_d" x="257.107" y="200.856" width="164.744" height="125.548" filterUnits="userSpaceOnUse" color-interpolation-filters="sRGB">
<feFlood flood-opacity="0" result="BackgroundImageFix"/>
<feColorMatrix in="SourceAlpha" type="matrix" values="0 0 0 0 0 0 0 0 0 0 0 0 0 0 0 0 0 0 127 0"/>
<feOffset dy="4"/>
<feGaussianBlur stdDeviation="2"/>
<feColorMatrix type="matrix" values="0 0 0 0 0 0 0 0 0 0 0 0 0 0 0 0 0 0 0.25 0"/>
<feBlend mode="normal" in2="BackgroundImageFix" result="effect1_dropShadow"/>
<feBlend mode="normal" in="SourceGraphic" in2="effect1_dropShadow" result="shape"/>
</filter>
<filter id="filter12_d" x="158.992" y="178.786" width="50.1283" height="61.1112" filterUnits="userSpaceOnUse" color-interpolation-filters="sRGB">
<feFlood flood-opacity="0" result="BackgroundImageFix"/>
<feColorMatrix in="SourceAlpha" type="matrix" values="0 0 0 0 0 0 0 0 0 0 0 0 0 0 0 0 0 0 127 0"/>
<feOffset dy="4"/>
<feGaussianBlur stdDeviation="2"/>
<feColorMatrix type="matrix" values="0 0 0 0 0 0 0 0 0 0 0 0 0 0 0 0 0 0 0.25 0"/>
<feBlend mode="normal" in2="BackgroundImageFix" result="effect1_dropShadow"/>
<feBlend mode="normal" in="SourceGraphic" in2="effect1_dropShadow" result="shape"/>
</filter>
<filter id="filter13_d" x="411" y="19" width="69.2318" height="69.2318" filterUnits="userSpaceOnUse" color-interpolation-filters="sRGB">
<feFlood flood-opacity="0" result="BackgroundImageFix"/>
<feColorMatrix in="SourceAlpha" type="matrix" values="0 0 0 0 0 0 0 0 0 0 0 0 0 0 0 0 0 0 127 0"/>
<feOffset dy="4"/>
<feGaussianBlur stdDeviation="2"/>
<feColorMatrix type="matrix" values="0 0 0 0 0 0 0 0 0 0 0 0 0 0 0 0 0 0 0.25 0"/>
<feBlend mode="normal" in2="BackgroundImageFix" result="effect1_dropShadow"/>
<feBlend mode="normal" in="SourceGraphic" in2="effect1_dropShadow" result="shape"/>
</filter>
<filter id="filter14_d" x="140" y="62.8813" width="117.437" height="12.5621" filterUnits="userSpaceOnUse" color-interpolation-filters="sRGB">
<feFlood flood-opacity="0" result="BackgroundImageFix"/>
<feColorMatrix in="SourceAlpha" type="matrix" values="0 0 0 0 0 0 0 0 0 0 0 0 0 0 0 0 0 0 127 0"/>
<feOffset dy="4"/>
<feGaussianBlur stdDeviation="2"/>
<feColorMatrix type="matrix" values="0 0 0 0 0 0 0 0 0 0 0 0 0 0 0 0 0 0 0.25 0"/>
<feBlend mode="normal" in2="BackgroundImageFix" result="effect1_dropShadow"/>
<feBlend mode="normal" in="SourceGraphic" in2="effect1_dropShadow" result="shape"/>
</filter>
<filter id="filter15_d" x="188.564" y="6" width="18.9452" height="64.8813" filterUnits="userSpaceOnUse" color-interpolation-filters="sRGB">
<feFlood flood-opacity="0" result="BackgroundImageFix"/>
<feColorMatrix in="SourceAlpha" type="matrix" values="0 0 0 0 0 0 0 0 0 0 0 0 0 0 0 0 0 0 127 0"/>
<feOffset dy="4"/>
<feGaussianBlur stdDeviation="2"/>
<feColorMatrix type="matrix" values="0 0 0 0 0 0 0 0 0 0 0 0 0 0 0 0 0 0 0.25 0"/>
<feBlend mode="normal" in2="BackgroundImageFix" result="effect1_dropShadow"/>
<feBlend mode="normal" in="SourceGraphic" in2="effect1_dropShadow" result="shape"/>
</filter>
<filter id="filter16_d" x="179.047" y="13.0918" width="17.518" height="57.7945" filterUnits="userSpaceOnUse" color-interpolation-filters="sRGB">
<feFlood flood-opacity="0" result="BackgroundImageFix"/>
<feColorMatrix in="SourceAlpha" type="matrix" values="0 0 0 0 0 0 0 0 0 0 0 0 0 0 0 0 0 0 127 0"/>
<feOffset dy="4"/>
<feGaussianBlur stdDeviation="2"/>
<feColorMatrix type="matrix" values="0 0 0 0 0 0 0 0 0 0 0 0 0 0 0 0 0 0 0.25 0"/>
<feBlend mode="normal" in2="BackgroundImageFix" result="effect1_dropShadow"/>
<feBlend mode="normal" in="SourceGraphic" in2="effect1_dropShadow" result="shape"/>
</filter>
<filter id="filter17_d" x="205.326" y="15.0908" width="43.3821" height="55.0623" filterUnits="userSpaceOnUse" color-interpolation-filters="sRGB">
<feFlood flood-opacity="0" result="BackgroundImageFix"/>
<feColorMatrix in="SourceAlpha" type="matrix" values="0 0 0 0 0 0 0 0 0 0 0 0 0 0 0 0 0 0 127 0"/>
<feOffset dy="4"/>
<feGaussianBlur stdDeviation="2"/>
<feColorMatrix type="matrix" values="0 0 0 0 0 0 0 0 0 0 0 0 0 0 0 0 0 0 0.25 0"/>
<feBlend mode="normal" in2="BackgroundImageFix" result="effect1_dropShadow"/>
<feBlend mode="normal" in="SourceGraphic" in2="effect1_dropShadow" result="shape"/>
</filter>
<filter id="filter18_d" x="199.504" y="21.5664" width="13.9007" height="49.315" filterUnits="userSpaceOnUse" color-interpolation-filters="sRGB">
<feFlood flood-opacity="0" result="BackgroundImageFix"/>
<feColorMatrix in="SourceAlpha" type="matrix" values="0 0 0 0 0 0 0 0 0 0 0 0 0 0 0 0 0 0 127 0"/>
<feOffset dy="4"/>
<feGaussianBlur stdDeviation="2"/>
<feColorMatrix type="matrix" values="0 0 0 0 0 0 0 0 0 0 0 0 0 0 0 0 0 0 0.25 0"/>
<feBlend mode="normal" in2="BackgroundImageFix" result="effect1_dropShadow"/>
<feBlend mode="normal" in="SourceGraphic" in2="effect1_dropShadow" result="shape"/>
</filter>
<filter id="filter19_d" x="526.371" y="350.981" width="73.5774" height="17.7049" filterUnits="userSpaceOnUse" color-interpolation-filters="sRGB">
<feFlood flood-opacity="0" result="BackgroundImageFix"/>
<feColorMatrix in="SourceAlpha" type="matrix" values="0 0 0 0 0 0 0 0 0 0 0 0 0 0 0 0 0 0 127 0"/>
<feOffset dy="4"/>
<feGaussianBlur stdDeviation="2"/>
<feColorMatrix type="matrix" values="0 0 0 0 0 0 0 0 0 0 0 0 0 0 0 0 0 0 0.25 0"/>
<feBlend mode="normal" in2="BackgroundImageFix" result="effect1_dropShadow"/>
<feBlend mode="normal" in="SourceGraphic" in2="effect1_dropShadow" result="shape"/>
</filter>
<filter id="filter20_d" x="527.74" y="70.1582" width="40.922" height="56.508" filterUnits="userSpaceOnUse" color-interpolation-filters="sRGB">
<feFlood flood-opacity="0" result="BackgroundImageFix"/>
<feColorMatrix in="SourceAlpha" type="matrix" values="0 0 0 0 0 0 0 0 0 0 0 0 0 0 0 0 0 0 127 0"/>
<feOffset dy="4"/>
<feGaussianBlur stdDeviation="2"/>
<feColorMatrix type="matrix" values="0 0 0 0 0 0 0 0 0 0 0 0 0 0 0 0 0 0 0.25 0"/>
<feBlend mode="normal" in2="BackgroundImageFix" result="effect1_dropShadow"/>
<feBlend mode="normal" in="SourceGraphic" in2="effect1_dropShadow" result="shape"/>
</filter>
<filter id="filter21_d" x="557.607" y="43.7554" width="40.922" height="53.7668" filterUnits="userSpaceOnUse" color-interpolation-filters="sRGB">
<feFlood flood-opacity="0" result="BackgroundImageFix"/>
<feColorMatrix in="SourceAlpha" type="matrix" values="0 0 0 0 0 0 0 0 0 0 0 0 0 0 0 0 0 0 127 0"/>
<feOffset dy="4"/>
<feGaussianBlur stdDeviation="2"/>
<feColorMatrix type="matrix" values="0 0 0 0 0 0 0 0 0 0 0 0 0 0 0 0 0 0 0.25 0"/>
<feBlend mode="normal" in2="BackgroundImageFix" result="effect1_dropShadow"/>
<feBlend mode="normal" in="SourceGraphic" in2="effect1_dropShadow" result="shape"/>
</filter>
<filter id="filter22_d" x="557.662" y="43.7554" width="11" height="321" filterUnits="userSpaceOnUse" color-interpolation-filters="sRGB">
<feFlood flood-opacity="0" result="BackgroundImageFix"/>
<feColorMatrix in="SourceAlpha" type="matrix" values="0 0 0 0 0 0 0 0 0 0 0 0 0 0 0 0 0 0 127 0"/>
<feOffset dy="4"/>
<feGaussianBlur stdDeviation="2"/>
<feColorMatrix type="matrix" values="0 0 0 0 0 0 0 0 0 0 0 0 0 0 0 0 0 0 0.25 0"/>
<feBlend mode="normal" in2="BackgroundImageFix" result="effect1_dropShadow"/>
<feBlend mode="normal" in="SourceGraphic" in2="effect1_dropShadow" result="shape"/>
</filter>
<filter id="filter23_d" x="504.221" y="63.3413" width="29.1178" height="38.483" filterUnits="userSpaceOnUse" color-interpolation-filters="sRGB">
<feFlood flood-opacity="0" result="BackgroundImageFix"/>
<feColorMatrix in="SourceAlpha" type="matrix" values="0 0 0 0 0 0 0 0 0 0 0 0 0 0 0 0 0 0 127 0"/>
<feOffset dy="4"/>
<feGaussianBlur stdDeviation="2"/>
<feColorMatrix type="matrix" values="0 0 0 0 0 0 0 0 0 0 0 0 0 0 0 0 0 0 0.25 0"/>
<feBlend mode="normal" in2="BackgroundImageFix" result="effect1_dropShadow"/>
<feBlend mode="normal" in="SourceGraphic" in2="effect1_dropShadow" result="shape"/>
</filter>
<filter id="filter24_d" x="585.943" y="39" width="14.1714" height="14.1714" filterUnits="userSpaceOnUse" color-interpolation-filters="sRGB">
<feFlood flood-opacity="0" result="BackgroundImageFix"/>
<feColorMatrix in="SourceAlpha" type="matrix" values="0 0 0 0 0 0 0 0 0 0 0 0 0 0 0 0 0 0 127 0"/>
<feOffset dy="4"/>
<feGaussianBlur stdDeviation="2"/>
<feColorMatrix type="matrix" values="0 0 0 0 0 0 0 0 0 0 0 0 0 0 0 0 0 0 0.25 0"/>
<feBlend mode="normal" in2="BackgroundImageFix" result="effect1_dropShadow"/>
<feBlend mode="normal" in="SourceGraphic" in2="effect1_dropShadow" result="shape"/>
</filter>
<filter id="filter25_d" x="515.936" y="60.062" width="36.2655" height="33.8683" filterUnits="userSpaceOnUse" color-interpolation-filters="sRGB">
<feFlood flood-opacity="0" result="BackgroundImageFix"/>
<feColorMatrix in="SourceAlpha" type="matrix" values="0 0 0 0 0 0 0 0 0 0 0 0 0 0 0 0 0 0 127 0"/>
<feOffset dy="4"/>
<feGaussianBlur stdDeviation="2"/>
<feColorMatrix type="matrix" values="0 0 0 0 0 0 0 0 0 0 0 0 0 0 0 0 0 0 0.25 0"/>
<feBlend mode="normal" in2="BackgroundImageFix" result="effect1_dropShadow"/>
<feBlend mode="normal" in="SourceGraphic" in2="effect1_dropShadow" result="shape"/>
</filter>
</defs>
</svg>
