<svg width="387" height="312" viewBox="0 0 387 312" fill="none" xmlns="http://www.w3.org/2000/svg">
<path d="M373 0H136V269H373V0Z" fill="#FF4568" fill-opacity="0.4"/>
<path d="M373 0H136V21.0156H373V0Z" fill="#FF6783"/>
<path d="M387 35.7266H184V89.3164H387V35.7266Z" fill="#032B4D"/>
<path d="M377 49.3867H196V54.6406H377V49.3867Z" fill="#F9F9F9"/>
<path d="M377 60.9453H196V66.1992H377V60.9453Z" fill="#FDCA05"/>
<path d="M377 72.5039H196V77.7578H377V72.5039Z" fill="#F9F9F9"/>
<path d="M387 99.8242H184V153.414H387V99.8242Z" fill="#032B4D"/>
<path d="M213.5 145.008C223.165 145.008 231 136.775 231 126.619C231 116.463 223.165 108.23 213.5 108.23C203.835 108.23 196 116.463 196 126.619C196 136.775 203.835 145.008 213.5 145.008Z" fill="#FDCA05"/>
<path d="M373 113.484H241V129.246H373V113.484Z" fill="#F9F9F9"/>
<path d="M373 134.5H241V139.754H373V134.5Z" fill="#F9F9F9"/>
<path d="M355 167.074H158V253.238H355V167.074Z" fill="#FF4568" fill-opacity="0.4"/>
<path d="M41 264H0V312H41V264Z" fill="#032B4D"/>
<path d="M93 227H53V312H93V227Z" fill="#032B4D"/>
<path d="M145 186H104V312H145V186Z" fill="#032B4D"/>
<path d="M72 232H67V235H72V232Z" fill="#DE8E68"/>
<path d="M123 187H119V190H123V187Z" fill="#DE8E68"/>
<path d="M99.6199 134C102.443 134 125.091 137.197 135 142.285C133.637 148.919 124.727 188 124.727 188H119.18C119.18 188 117.091 155.099 116.64 155.373C113.639 156.917 101.729 160.811 89 161" fill="#E0B200"/>
<path d="M99 134L71.8827 232H67V134" fill="#FDCA05"/>
<path d="M103.398 92.429C104.782 93.0129 109.522 96.857 110.369 98.2408C118.111 88.8893 130.879 79.452 131.923 78.3616C132.967 77.2712 133.292 71.1965 133.292 69.8681C133.292 68.5397 135.18 65 137 65V80.9271C137 80.9271 115.635 110 112.118 110C109.836 110 98.566 105.196 97 103.743" fill="#DE8E68"/>
<path d="M86.4946 87.3993C89.3709 83.1553 106 89.7282 106 91.7573C106 93.7865 99.834 103.131 97.0712 102.999C94.8703 102.903 83.5164 91.8051 86.4946 87.3993Z" fill="#FF4568"/>
<path d="M83.2278 81C103.534 81 102.398 131.231 99.1918 133.689C95.9856 136.146 69.6699 137.338 67.2639 133.689C64.8578 130.039 63.9261 81 83.2278 81Z" fill="#FF4568"/>
<path d="M60.9384 96C57.3168 97.1433 48 114.793 48 117.486C48 123.132 66.9707 148 69.3842 148C70.3901 146.247 72 142.611 72 142.611C72 142.611 60.6041 121.258 58.5137 118.497C60.3231 116.803 66.8921 107.922 67.9654 105.161C69.0386 102.4 68.6369 96.4714 68.6369 96.4714L60.9384 96Z" fill="#DE8E68"/>
<path d="M74.2765 86.3804C78.9915 88.8517 72.7726 104.866 70.584 104.998C68.3955 105.129 58 99.8051 58 97.1965C58 95.0986 69.3723 83.802 74.2765 86.3804Z" fill="#FF4568"/>
<path d="M67 234V238H80V236.549L72.1067 234H67Z" fill="black"/>
<path d="M118 190V194H131V192.551L123.108 190H118Z" fill="black"/>
<path d="M88 71H80V81.9444C80 84.6624 88 84.708 88 81.9444V71Z" fill="#D37C59"/>
<path d="M94.5644 65.2743C93.125 59.2742 88.548 55.1873 84.3408 56.1371C80.7367 56.9677 78.5776 61.2096 78.936 66.1852C78.3161 66.3596 77.7816 66.7457 77.4307 67.2729C77.0799 67.8 76.9362 68.4327 77.0262 69.0547C77.1161 69.6766 77.4336 70.2461 77.9204 70.6585C78.4071 71.0708 79.0303 71.2984 79.6756 71.2993C79.8398 71.2978 80.0036 71.282 80.1649 71.2523C82.1163 75.8264 85.9708 78.6756 89.5522 77.8615C93.7594 76.9118 96.0038 71.2716 94.5644 65.2743Z" fill="#DE8E68"/>
<path d="M80.7349 68.5625C81.7524 68.5625 81.93 67.1083 81.93 65.8184C81.93 64.0911 83.5155 62.531 84.4926 62.2357C86.2611 61.7064 87.1629 61.5838 88.2342 60.9821C89.3055 60.3803 90.5814 59.4749 90.5814 59.4749C91.0555 60.066 91.4865 60.6927 91.8708 61.3498C92.8533 61.0712 98 59.8009 98 55.9842C98 53.4769 95.965 53.1482 95.039 52.3626C94.0538 51.5268 94.4764 49 91.8089 49C89.4186 49 88.2423 51.5992 86.7133 52.5994C84.8641 53.8112 81.2355 52.8362 78.8452 55.3852C77.6851 56.6222 77.4132 59.6672 76.6918 60.7815C75.7066 62.2915 74 62.7316 74 65.0356C74 66.7266 75.3863 69.5821 77.0552 70C77.0552 68.3285 77.6447 66.7294 78.8398 66.7294C80.14 66.7294 79.2409 68.5625 80.7349 68.5625Z" fill="#2C0E08"/>
</svg>
