<svg width="473" height="383" viewBox="0 0 473 383" fill="none" xmlns="http://www.w3.org/2000/svg">
<path d="M357.22 0.00585938H35.5762V317.052H357.22V0.00585938Z" fill="#FF4568" fill-opacity="0.4"/>
<path d="M357.22 0.00585938H35.5762V24.1391H357.22V0.00585938Z" fill="#FF6783"/>
<path d="M52.5492 16.183C54.6486 16.183 56.3504 14.4811 56.3504 12.3818C56.3504 10.2824 54.6486 8.58057 52.5492 8.58057C50.4499 8.58057 48.748 10.2824 48.748 12.3818C48.748 14.4811 50.4499 16.183 52.5492 16.183Z" fill="#FD8369"/>
<path d="M64.7914 16.183C66.8908 16.183 68.5926 14.4811 68.5926 12.3818C68.5926 10.2824 66.8908 8.58057 64.7914 8.58057C62.6921 8.58057 60.9902 10.2824 60.9902 12.3818C60.9902 14.4811 62.6921 16.183 64.7914 16.183Z" fill="#FD8369"/>
<path d="M77.0356 16.183C79.1349 16.183 80.8368 14.4811 80.8368 12.3818C80.8368 10.2824 79.1349 8.58057 77.0356 8.58057C74.9362 8.58057 73.2344 10.2824 73.2344 12.3818C73.2344 14.4811 74.9362 16.183 77.0356 16.183Z" fill="#FD8369"/>
<path d="M179.89 41.7305H51.3125V111.39H179.89V41.7305Z" fill="white"/>
<path d="M179.89 127.921H51.3125V197.58H179.89V127.921Z" fill="white"/>
<path d="M339.759 127.921H211.182V278.157H339.759V127.921Z" fill="white"/>
<path d="M378.746 46.7695H202.211V53.4879H378.746V46.7695Z" fill="#032B4D"/>
<path d="M378.746 65.731H202.211V72.4494H378.746V65.731Z" fill="#032B4D"/>
<path d="M378.746 84.6929H202.211V91.4113H378.746V84.6929Z" fill="#032B4D"/>
<path d="M378.746 103.655H202.211V110.373H378.746V103.655Z" fill="#032B4D"/>
<path d="M368.698 315.24H361.936V325.495H368.698V315.24Z" fill="#DE8E68"/>
<path d="M448.391 358.557H441.629V368.811H448.391V358.557Z" fill="#DE8E68"/>
<path d="M411.573 220.343C403.396 220.343 366.887 256.631 363.704 262.731C360.522 268.831 361.45 316.611 361.45 316.611L369.318 318.114L382.092 273.604C387.661 272.941 411.087 267.902 423.198 258.134C435.308 248.322 422.048 226.443 422.048 226.443L411.573 220.343Z" fill="#E0B200"/>
<path d="M397.915 171.06C393.893 174.64 385.849 183.613 385.186 184.762C383.153 183.79 361.981 172.651 360.39 171.944C358.798 171.237 355.439 165.624 354.29 165.624C353.627 165.624 353.008 166.905 353.008 167.789C353.008 169.292 353.715 170.441 354.157 170.928C352.655 170.707 339.395 169.69 339.395 170.574C339.395 172.872 354.246 175.922 355.395 176.541C356.544 177.16 380.722 199.525 389.12 199.525C392.39 199.525 406.844 189.713 406.844 188.652C408.214 187.724 410.336 186.353 410.336 186.353V178.574L405.297 174.906C405.297 174.861 398.711 170.353 397.915 171.06Z" fill="#DE8E68"/>
<path d="M397.384 168.496C398.268 161.336 414.754 145.07 422.312 152.319C428.898 158.64 416.964 181.226 413.914 182.11C410.467 182.463 397.163 173.358 397.384 168.496Z" fill="#D12E4D"/>
<path d="M447.685 153.601C456.083 150.065 467.84 169.513 466.514 176.585C466.514 179.679 449.276 186.309 446.624 184.541C443.972 182.773 439.287 157.137 447.685 153.601Z" fill="#FED892"/>
<path d="M413.826 223.481L441.584 358.512H448.7L451.219 238.067C451.219 235.99 451.043 222.907 451.043 221.227C442.998 223.57 425.849 225.426 413.826 223.481Z" fill="#FDCA05"/>
<path d="M441.628 368.811H448.391V376.148H429.738L441.628 368.811Z" fill="black"/>
<path d="M361.935 325.495H368.697V332.832H350.045L361.935 325.495Z" fill="black"/>
<path d="M401.805 332.832H321.316V379.949H401.805V332.832Z" fill="#032B4D"/>
<path d="M49.1899 382.513L18.1173 382.159L7.24414 342.247H59.3559L49.1899 382.513Z" fill="#032B4D"/>
<path d="M429.296 143.214C450.07 143.214 457.319 160.496 457.319 166.109C457.319 171.723 450.821 205.978 451.086 221.227C451.131 223.746 413.826 226 408.743 222.332C406.356 220.608 401.229 143.214 429.296 143.214Z" fill="#FF4568"/>
<path d="M466.513 176.585C472.392 185.602 472.038 206.376 472.038 209.514C472.038 212.652 450.115 240.852 448.214 240.852C447.065 239.703 443.883 236.211 443.883 235.15C444.899 233.294 457.938 204.785 460.281 202.751C459.22 201.47 449.894 186.839 449.496 184.408C457.673 183.038 465.585 179.591 466.513 176.585Z" fill="#DE8E68"/>
<path d="M466.513 176.585C467.839 169.513 457.098 149.004 447.684 153.601C439.507 157.623 443.971 182.773 446.623 184.541C449.805 185.911 465.275 181.27 466.513 176.585Z" fill="#FF4568"/>
<path d="M423.993 138.971C423.551 140.341 423.33 144.584 423.816 146.485C423.86 146.573 432.656 147.236 433.629 145.689C433.673 144.407 435.794 133.004 438.667 129.468C438.933 129.07 438.358 127.965 438.358 127.965L428.148 132.208L423.993 138.971Z" fill="#D38466"/>
<path d="M437.208 128.937C437.871 129.821 438.711 130.219 439.462 130.219C441.142 130.219 445.031 128.672 445.031 123.147C445.031 119.169 441.142 117.136 441.142 115.235C441.142 113.423 441.628 113.379 441.628 111.876C441.628 111.125 440.877 108.65 438.534 108.65C437.208 108.65 436.722 109.755 435.396 109.755C433.937 109.755 432.611 106.926 430.401 106.926C428.898 106.926 427.484 108.34 425.893 108.34C424.081 108.34 422.843 105.644 420.324 105.644C417.716 105.644 416.788 107.987 415.771 107.987C414.489 107.987 414.268 107.633 412.986 107.633C412.191 107.633 409.76 109.047 409.76 111.611C409.76 113.423 410.511 116.385 414.268 116.385C416.478 116.385 417.716 119.876 419.661 119.876C420.412 119.876 421.075 119.258 421.252 119.567C422.003 120.893 423.55 124.517 423.55 124.517L430.578 128.451L437.208 128.937Z" fill="black"/>
<path d="M435.66 127.125C435.66 127.744 435.439 127.877 434.511 127.877C434.069 127.877 433.45 127.302 433.45 126.683C433.45 125.225 434.511 124.915 434.511 123.015C434.511 119.788 426.069 118.108 423.107 116.429C422.047 117.49 421.295 118.86 420.986 120.407L419.085 130.175C418.245 134.418 421.03 138.529 425.229 139.369C429.428 140.208 433.583 137.424 434.423 133.225L434.732 131.545C434.909 131.589 435.086 131.634 435.218 131.634C436.323 131.634 437.163 130.617 437.163 129.379C437.251 128.23 435.66 126.197 435.66 127.125Z" fill="#DE8E68"/>
<path d="M37.7413 326.6C28.7687 266.532 6.80129 235.018 4.01669 236.211C0.0828928 237.935 -1.06631 271.659 5.96149 306.489C6.13829 306.489 6.27089 306.445 6.44769 306.445C8.48089 306.445 10.1163 308.08 10.1163 310.113C10.1163 310.732 9.98369 311.307 9.71849 311.793C10.9119 312.412 11.7517 313.649 11.7517 315.064C11.7517 316.832 10.4699 318.334 8.79029 318.688C10.8677 326.732 13.4755 334.688 16.5695 342.07C18.1607 342.07 36.0175 342.07 36.0175 342.07C36.0175 342.07 39.0673 335.351 37.7413 326.6Z" fill="#00897B"/>
<path d="M89.6759 262.908C84.2393 262.908 78.4049 278.555 71.9517 278.555C70.5373 278.555 69.6091 277.008 69.6091 275.549C69.6091 274.135 74.0733 258.576 74.0733 251.018C74.0733 250.355 74.0291 249.648 73.9407 248.941C73.2335 249.383 72.3495 249.648 71.4655 249.648C68.8135 249.648 66.6477 247.482 66.6477 244.83C66.6477 242.487 68.2831 240.587 70.4931 240.101C68.2389 237.228 64.9239 235.194 60.4155 235.194C54.7137 235.194 46.6693 240.277 46.6693 248.145C46.6693 250.355 47.3323 255.968 47.3323 261.051C47.3323 289.87 24.7461 294.201 24.7461 326.114C24.7461 332.832 28.4589 340.214 29.5639 342.026C29.5639 342.026 48.4815 342.247 50.2937 342.247C52.1059 342.247 66.8245 317.672 68.5041 315.064C74.9131 305.163 96.2175 294.29 96.2175 270.643C96.2175 267.328 95.0241 262.908 89.6759 262.908Z" fill="#33A881"/>
</svg>
