<svg id="Layer_1" data-name="Layer 1" xmlns="http://www.w3.org/2000/svg" viewBox="0 0 499 467"><defs><style>.cls-1{fill:#fc869c;}.cls-2{fill:#0e3944;}.cls-3{fill:#ef6e4b;}.cls-4{fill:#ff8b66;}.cls-5{fill:#164353;}.cls-6{fill:#cfd8dc;}.cls-7{fill:#db614d;}.cls-8{fill:#1a4850;}.cls-9{fill:#6097b2;}.cls-10{fill:#205260;}.cls-11{fill:#8b383e;}.cls-12{fill:#662c33;}.cls-13{fill:#ce364c;}.cls-14{fill:#f24052;}.cls-15{fill:#a02e44;}.cls-16{fill:#ffb878;}.cls-17{fill:#adbec4;}.cls-18{fill:#0c476b;}.cls-19{fill:#105e99;}.cls-20{fill:#225866;}.cls-21{fill:#8bbddb;}.cls-22{fill:#3e6575;}</style></defs><title>vectorss</title><path class="cls-1" d="M431.89,169.94c4.66.66,9.47.89,14-.39s8.76-4.25,10.63-8.57,1.11-9.5-1.15-13.66-5.87-7.42-9.72-10.16C431.5,127.1,410,121.77,393.2,127.93c-6.74,2.47-10.85,8.32-8.26,15.46C387.69,151,396.39,156.14,403,160A80.37,80.37,0,0,0,431.89,169.94Z"/><path class="cls-1" d="M350.82,175.39l-2,0a91.6,91.6,0,0,1-62.72-22.64,90,90,0,0,0-138.65,24.55,34.46,34.46,0,0,0-1.79,3.91c-9.45,24.16-27.93,43.87-52,53.59-.69.27-1.32.56-1.9.85a82.38,82.38,0,0,0,53,154.45,134,134,0,0,1,66.39,3.49A90.3,90.3,0,0,0,280,387.46c21.23-11.17,45-16.27,69-15.82h1.84A98.13,98.13,0,0,0,449,272.89C448.66,219.15,404.57,175.36,350.82,175.39Z"/><path class="cls-1" d="M40.89,222.51c-.21,5.25,2.53,10.71,7.27,13,4.5,2.15,10.05,1.13,14.25-1.58s7.21-6.9,9.66-11.26a28.77,28.77,0,0,0,3.8-10.09c1.3-9.8-7.42-17.24-16.08-11.72C51.48,206.13,41.34,211.25,40.89,222.51Z"/><path class="cls-1" d="M277.89,133.51c-.21,5.25,2.53,10.71,7.27,13,4.5,2.15,10,1.13,14.25-1.58s7.21-6.9,9.66-11.26a28.77,28.77,0,0,0,3.8-10.09c1.3-9.8-7.42-17.24-16.08-11.72C288.48,117.13,278.34,122.25,277.89,133.51Z"/><path class="cls-2" d="M130,132s-5.82-4-14.33-.91-10.42,14.51-8.33,23.81-9.62,41.07-9.62,41.07,6.09,8.56,27.38,5.29c0,0,15.87-28.85,14.69-49.56S130,132,130,132Z"/><path class="cls-3" d="M136.7,167.74c8-2.56,12.9,4.1,17.48,16.5s6.13,13.64,6.13,13.64L178,209.25l-1.47,6.63s-16.84-6.6-20.91-10.79-15.78-25.44-15.78-25.44Z"/><path class="cls-4" d="M97.71,247.84s-3.47,17.57-2.9,44c0,0-13.68,20.17-2.39,77.71h5.92s4.84-49,8.54-62.23S124.25,290,125,249.69Z"/><path class="cls-4" d="M70.65,299.53c-3.44-11.34-12.29-30.33-35-56.08a3.39,3.39,0,0,0-3.18.42c-1.93,1.18-1.93,2.57-1.93,2.57s11.37,24.79,18.63,42.95a16.08,16.08,0,0,0,14.93,10.14Z"/><path class="cls-5" d="M112,321.45s.08,8.46-5.47,8.61c-7.84.21-8.13-8.33-17-8.05s-27.2,2.49-33-11.38c-3-7.18,1.11-16.38-8.61-23.32s-5-14.71,0-18.87-2.15-8.71,3.06-10.83a5.11,5.11,0,0,1,3.59-.07,8.62,8.62,0,0,1,1.89,1,18.33,18.33,0,0,1,4.69,5c14.71-40.29,40.9-45.61,40.9-45.61l25.9,8.94C128.48,289.53,112,321.45,112,321.45Z"/><path class="cls-6" d="M136.7,167.74a33.87,33.87,0,0,1-14.64.73c-8.59-1.3-11.39-6.7-17.43-3.22-9.07,5.21-4.82,23.16-2.55,32.49.85,3.48,1.93,12.62-.12,20.17,0,0,12.08,9.4,25.9,8.93l7.54-16.4S151.81,190.81,136.7,167.74Z"/><path class="cls-3" d="M121.35,152.68a37.05,37.05,0,0,1-2.13,16.22s4.48,6.62,8.76,2.26a42.7,42.7,0,0,1,5.2-16.58C136.4,148.68,121.35,152.68,121.35,152.68Z"/><path class="cls-4" d="M114.48,153s-3.78-2.39-3.36,1.3c.5,4.28,4.67,5.11,5.12,3.62S114.48,153,114.48,153Z"/><path class="cls-4" d="M136.18,148.34s2.41-3.78,3.59-.25c1.38,4.08-2,6.61-3.08,5.45S136.18,148.34,136.18,148.34Z"/><path class="cls-4" d="M128.37,165.76c-6.86,1.54-11.74-2.08-14.75-15.52-1.55-6.93,1-12,8.71-13.7s11.88,1.81,13.43,8.74C139,159.73,135.46,164.17,128.37,165.76Z"/><path class="cls-7" d="M134.56,150.59a1.48,1.48,0,0,1-1,1.82,1.33,1.33,0,1,1,1-1.82Z"/><path class="cls-7" d="M120.53,154.12a1.67,1.67,0,1,1-1.8-1A1.5,1.5,0,0,1,120.53,154.12Z"/><path class="cls-2" d="M129.78,144.32a.35.35,0,0,1-.19-.06,4.06,4.06,0,0,0-2.85-.36.34.34,0,0,1-.43-.25.35.35,0,0,1,.25-.43,4.69,4.69,0,0,1,3.42.46.36.36,0,0,1,.1.49A.36.36,0,0,1,129.78,144.32Z"/><path class="cls-2" d="M116.86,147.22a.41.41,0,0,1-.18-.05.37.37,0,0,1-.12-.49,4.75,4.75,0,0,1,2.9-1.87.36.36,0,0,1,.41.28.35.35,0,0,1-.28.41,4,4,0,0,0-2.42,1.55A.37.37,0,0,1,116.86,147.22Z"/><path class="cls-8" d="M130.08,148.09c.19.85,0,1.63-.51,1.73s-1-.5-1.2-1.35,0-1.63.51-1.73S129.89,147.24,130.08,148.09Z"/><path class="cls-8" d="M120.55,150.14c.19.85,0,1.63-.51,1.73s-1-.49-1.2-1.35,0-1.63.51-1.73S120.36,149.29,120.55,150.14Z"/><path class="cls-8" d="M123.63,158.21s4.41-.36,6.35-2c0,0-.53,3.44-2.93,3.68A3.51,3.51,0,0,1,123.63,158.21Z"/><path class="cls-8" d="M127.68,148.18s.16-2.24,1-2.27,1.88,1.62,1.88,1.62l1.07-.92-1.18.44s-1.05-1.74-1.87-1.56C127.44,145.75,127.68,148.18,127.68,148.18Z"/><path class="cls-8" d="M121.08,149.93s-1.1-2-1.89-1.62-1,2.27-1,2.27l-1.36-.37,1.25-.12s.21-2,1-2.2C120.26,147.62,121.08,149.93,121.08,149.93Z"/><path class="cls-7" d="M125.86,154.23l-.36-.67a.87.87,0,0,0,.56-1,.93.93,0,0,0-.65-.75c-.14,0-.26.11-.35.36l-.71-.27a1.09,1.09,0,0,1,1.12-.84,1.67,1.67,0,0,1,1.34,1.35A1.63,1.63,0,0,1,125.86,154.23Z"/><path class="cls-2" d="M115,155.39s-2.11-7.78-.86-13.29c0,0,6-8.31,17.49-4.2a46.34,46.34,0,0,1,5.11,13.2s.43-2.77-.71-8.93-6.61-10-14.11-8.75S106.43,142.11,115,155.39Z"/><path class="cls-2" d="M127.1,136.17s.46,2-1.52,7.27a2.15,2.15,0,0,0-3.08,0c-1.67,1.48-5,1-6.2,1.79a3.55,3.55,0,0,0-1.16,2.64,7.29,7.29,0,0,1,0-5,10.07,10.07,0,0,0-2,6.38s-3-.49-2.91-5.52,7.29-13.16,15.3-12.63,9.93,13.22,9.93,13.22a2.37,2.37,0,0,0-1.88-.32,16.42,16.42,0,0,0-2-6.07,8.9,8.9,0,0,1,0,5.08,7.29,7.29,0,0,0-4-.81S128.75,140.05,127.1,136.17Z"/><path class="cls-4" d="M102.6,166.85c3.9-3.08,6.94.84,7.68,6.25S104,210.43,98.53,209.25c-2.1-.45-3-8.81-3-8.81A192.24,192.24,0,0,0,99.08,178C99.71,171.74,100.56,168.45,102.6,166.85Z"/><path class="cls-4" d="M91.25,204.74c-5.26-5-14.67-21.61-17.07-30.07l4-1.6s12,17.17,17.47,21.49,7.4,9.16,5,13.29S92.35,205.79,91.25,204.74Z"/><path class="cls-4" d="M75.82,163.59C75.55,169,80,170.31,78,174.48A2.83,2.83,0,0,1,76.35,176a3.37,3.37,0,0,1-3.48-.89,38,38,0,0,0-7.09-5.37c-2-1.13-.85-1.44-.85-1.44-.19-.09-.37-.17-.56-.24-1.4-.59-2.53-.81-1.51-1.44s5.21.77,5.21.77c-5.29-3.52-6.72-2.66-5.76-3.41,1.32-1,6.35,1.33,6.5,1.41-2.8-2.65-4.82-3.24-3.71-3.64s6.65,3.6,8.66,5.1l.74.55C74.43,163,75.82,163.59,75.82,163.59Z"/><path class="cls-3" d="M73.76,166.87l.74.55a3.68,3.68,0,0,0,.28,3.66A3.3,3.3,0,0,1,73.76,166.87Z"/><path class="cls-3" d="M69.13,170c-.47-.26-3.14-1.76-4.2-1.67-.19-.09-.37-.17-.56-.24C65.08,167.14,68.6,169.6,69.13,170Z"/><path class="cls-9" d="M90.09,250.56a1.07,1.07,0,1,1-2.13,0,1.07,1.07,0,0,1,2.13,0Z"/><path class="cls-9" d="M109.13,257.91a1.07,1.07,0,1,1-1.07-1.07A1.07,1.07,0,0,1,109.13,257.91Z"/><path class="cls-9" d="M125.36,261.85a1.07,1.07,0,1,1-1.07-1.07A1.06,1.06,0,0,1,125.36,261.85Z"/><path class="cls-9" d="M100.43,236.63a1.07,1.07,0,1,1-1.07-1.07A1.06,1.06,0,0,1,100.43,236.63Z"/><circle class="cls-9" cx="102.95" cy="246.77" r="1.07"/><path class="cls-9" d="M120.9,252.55a1.07,1.07,0,1,1-1.06-1.07A1.06,1.06,0,0,1,120.9,252.55Z"/><path class="cls-9" d="M123.22,235.05a1.07,1.07,0,1,1-2.13,0,1.07,1.07,0,0,1,2.13,0Z"/><circle class="cls-9" cx="111.09" cy="231.41" r="1.07"/><path class="cls-9" d="M80.65,271.38a1.07,1.07,0,1,1-1.07-1.07A1.07,1.07,0,0,1,80.65,271.38Z"/><path class="cls-9" d="M65.44,266.84a1.07,1.07,0,1,1-1.07-1.06A1.07,1.07,0,0,1,65.44,266.84Z"/><path class="cls-9" d="M56.37,258.5a1.07,1.07,0,0,1-2-.59.94.94,0,0,1,.07-.37A8.62,8.62,0,0,1,56.37,258.5Z"/><circle class="cls-9" cx="85.03" cy="285.3" r="1.07"/><path class="cls-9" d="M58.8,300.43a1.07,1.07,0,1,1-1.07-1.07A1.07,1.07,0,0,1,58.8,300.43Z"/><circle class="cls-9" cx="68.88" cy="291.26" r="1.07"/><circle class="cls-9" cx="52.27" cy="283.15" r="1.07"/><path class="cls-9" d="M66.75,315.09A1.07,1.07,0,1,1,65.68,314,1.07,1.07,0,0,1,66.75,315.09Z"/><path class="cls-9" d="M76.91,259a1.07,1.07,0,1,1-1.07-1.07A1.07,1.07,0,0,1,76.91,259Z"/><path class="cls-9" d="M87.16,241a1.07,1.07,0,1,1-1.06-1.07A1.06,1.06,0,0,1,87.16,241Z"/><path class="cls-9" d="M98.77,226A1.07,1.07,0,1,1,97.7,225,1.07,1.07,0,0,1,98.77,226Z"/><path class="cls-9" d="M75.25,247.84a1.07,1.07,0,1,1-1.07-1.07A1.07,1.07,0,0,1,75.25,247.84Z"/><path class="cls-9" d="M88.23,230.35a1.07,1.07,0,1,1-1.07-1.07A1.06,1.06,0,0,1,88.23,230.35Z"/><path class="cls-9" d="M67.82,278.4a1.07,1.07,0,1,1-1.07-1.06A1.07,1.07,0,0,1,67.82,278.4Z"/><path class="cls-9" d="M54.41,269a1.07,1.07,0,1,1-1.07-1.07A1.07,1.07,0,0,1,54.41,269Z"/><circle class="cls-9" cx="92.23" cy="265.78" r="1.07"/><circle class="cls-9" cx="114.29" cy="271.38" r="1.07"/><path class="cls-9" d="M114.29,241a1.07,1.07,0,1,1-1.06-1.07A1.06,1.06,0,0,1,114.29,241Z"/><path class="cls-9" d="M127.12,243.24a1.07,1.07,0,1,1-1.06-1.07A1.07,1.07,0,0,1,127.12,243.24Z"/><path class="cls-9" d="M101.49,279.47a1.07,1.07,0,1,1-1.06-1.07A1.06,1.06,0,0,1,101.49,279.47Z"/><circle class="cls-9" cx="91.16" cy="298.46" r="1.07"/><circle class="cls-9" cx="74.78" cy="301.5" r="1.07"/><circle class="cls-9" cx="119.84" cy="285.3" r="1.07"/><path class="cls-9" d="M106.16,293.39a1.07,1.07,0,1,1-1.07-1.06A1.07,1.07,0,0,1,106.16,293.39Z"/><path class="cls-9" d="M84,317.23a1.07,1.07,0,0,1-2.13,0,1.07,1.07,0,1,1,2.13,0Z"/><circle class="cls-9" cx="99.36" cy="311.67" r="1.07"/><circle class="cls-9" cx="115.22" cy="305.38" r="1.07"/><path class="cls-9" d="M109.13,323.74a1.07,1.07,0,1,1-2.13,0,1.07,1.07,0,0,1,2.13,0Z"/><path class="cls-5" d="M108,380H90.43c-1.14-3.26,1-6.54.61-9.41-.61-4.87,2.22-2.18,2.22-2.18.5-5.23,7.85-6.22,7.78-3.89-.13,3.43.54,5.55,1.52,7,2,2.85,5.22,2.83,5.77,4.87a4.73,4.73,0,0,1,.13.58C109,379.45,108,380,108,380Z"/><path class="cls-10" d="M108.46,376.9c-3.63.84-12-.26-12.33-2.37s4.18-3,6.43-3.08c2,2.85,5.22,2.83,5.77,4.87A4.73,4.73,0,0,1,108.46,376.9Z"/><path class="cls-5" d="M35.9,244.15c-1.87-1.69-4.9,1.12-4.9,1.12s1.63,2.42.58,3.39-2.28-1.25-4.35-.28a3.7,3.7,0,0,0-.51.29c-1.63,1-3.31,3-4.68,4.54-.28.32-.54.6-.79.86-1.58,1.66-5.68,2.64-6.45-1.8s4.23-9.65,9.72-14.43,9-2,9-2a8.6,8.6,0,0,1,1.25,3.27c0,1.24,1.11,1.86,1.73,3.05A1.5,1.5,0,0,1,35.9,244.15Z"/><path class="cls-10" d="M26.72,248.67c-1.63,1-3.31,3-4.68,4.54-2.05.49-3.9.35-4.18-1.58-.7-4.67,8.6-10.59,7.86-7.32A5.77,5.77,0,0,0,26.72,248.67Z"/><path class="cls-6" d="M351.35,372.37a6.75,6.75,0,0,1-2.38-2.71,27.08,27.08,0,0,1,0-7.66c.62-3.92-1.09-7.12-6.64-8.33-5.4-1.17-8.6,1.44-7.35,12.28h0c-.82,4.51-1,9.65.88,14h16.61S355.09,374.33,351.35,372.37Z"/><path class="cls-4" d="M365.92,313.89a50.38,50.38,0,0,1-6.11,21.93c-6.21,11.3-13.9,26.82-13.9,26.82s-5.12,5-8.38-3.28c0,0,2.3-28.82,7.57-39.36S365.92,313.89,365.92,313.89Z"/><path class="cls-4" d="M445.58,278.64s9.9,41.61,16.19,52.59c0,0-1.45,4.59-8.26,6,0,0-21.53-31.65-22.92-45S445.58,278.64,445.58,278.64Z"/><path class="cls-11" d="M450.37,288.42c-2.63,6.34-23,6.68-23,6.68l-1.56-2.28-.41-.6-3.17-4.69s-33.69-33-40.25-30.26h0a3.5,3.5,0,0,0-.56.32c-4.5,3.22-4.93,20.86-10.26,50.47a52.42,52.42,0,0,1-2.49,8.35l-.28.7c-.49,1.25-.83,2.05-.83,2.05C347,327.49,340.24,311,340.24,311s.25-.48.6-1.25l.26-.55c1.07-2.38,2.79-6.5,2.77-8.67q0-3.58-.05-6.9a5.52,5.52,0,0,0,0-.58c0-7.11,0-13.3,0-18.67v-.57q0-3.51.1-6.57v-.58c.17-9.36.47-15.61.8-19.77,0-.19,0-.39,0-.57.57-7,1.17-7.69,1.17-7.69L341.82,210h44.94s6.75,6.76,15.51,15.68c.19.18.37.36.54.55,3.18,3.23,6.61,6.74,10.05,10.3l.4.41,4.05,4.19c.17.16.33.34.49.51,4.51,4.67,8.89,9.28,12.63,13.31.13.13.25.27.37.4,5.12,5.54,9,10,10.36,12,3.57,5.45,6.34,12.54,7.87,16.93h0l.22.56C450,287.07,450.37,288.42,450.37,288.42Z"/><path class="cls-12" d="M352.66,243a12.17,12.17,0,0,1-7.93,4c0-.19,0-.39,0-.57a11.5,11.5,0,0,0,7.47-3.77,12.55,12.55,0,0,0,2.58-8.61l.55-.06A12.89,12.89,0,0,1,352.66,243Z"/><path class="cls-12" d="M402.81,226.27l-.52,0c-5,0-10.21-5.46-10.48-5.74l.4-.39c.07.08,5.26,5.52,10.06,5.56C402.46,225.9,402.64,226.08,402.81,226.27Z"/><path class="cls-12" d="M368.7,316.41l-.28.7a26.5,26.5,0,0,1-9.17,1.72c-8.88,0-15-5.14-18.41-9l.26-.55C345.41,314.3,354.64,321.77,368.7,316.41Z"/><path class="cls-12" d="M380.77,247A46.82,46.82,0,0,1,382,257.27a3.5,3.5,0,0,0-.56.32c0-16.77-9.72-29.84-9.83-30l.44-.33a57.67,57.67,0,0,1,8.56,19.11,5.11,5.11,0,0,0,2.22-3.19c1.4-5.89-5-15.5-5-15.6l.46-.31c.26.41,6.55,9.91,5.11,16A5.65,5.65,0,0,1,380.77,247Z"/><path class="cls-12" d="M430.8,255.39c-1.65,1.8-3.2,3.33-3.35,3.46l-.3.3-.14-.4c-2.18-5.69-16.17-18-16.31-18.16l-.17-.15,2.33-3.87.4.41-1.95,3.24a13.63,13.63,0,0,0,6,.95c.17.16.33.34.49.51a8.34,8.34,0,0,1-1.45.12,15,15,0,0,1-4.3-.74c3.18,2.86,13.05,12,15.31,17.11.88-.87,2-2,3.07-3.18C430.56,255.12,430.68,255.26,430.8,255.39Z"/><path class="cls-12" d="M354,293.57l-.22.05a29.19,29.19,0,0,1-5.63.57,16.4,16.4,0,0,1-4.37-.52,5.52,5.52,0,0,0,0-.58c3.67,1.06,8.56.25,9.67,0L352.54,270a7.5,7.5,0,0,1-3.48,4,6.87,6.87,0,0,1-3.09.68,9.61,9.61,0,0,1-2.14-.24v-.57a7.17,7.17,0,0,0,5-.37,7.62,7.62,0,0,0,3.58-4.66c-1.86.28-5.6-.66-8.45-1.54v-.58c3.07.94,7.24,2,8.73,1.49l.36-.12Z"/><path class="cls-12" d="M449.25,284.93a28.18,28.18,0,0,1-20,8.07,33,33,0,0,1-3.37-.18l-.41-.6c12.38,1.42,20.14-4.39,23.59-7.85Z"/><path class="cls-13" d="M395.07,88.3s-1.24-2.84-6.46-2.85c-4,0-5.56,2.23-5.56,2.23-2.4,7-5,33.95-5.91,34.91-.47.48-30.3,20.57-30.3,20.57,16.19.31,26.28,20.26,26.28,20.26.53-6.56,18.81-32.54,19-34.86C392.49,124.19,400.23,104.68,395.07,88.3Z"/><path class="cls-13" d="M343.29,229.07s-.15,5.62,1.66,6a51.11,51.11,0,0,0,33.65-3c17-7.74,20-13.48,15-17.73S343.29,229.07,343.29,229.07Z"/><path class="cls-14" d="M336.46,147.05s-15.48-1.84-24.37,2c0,0-2.47,11,9.73,35.59s9.37,40.09,23.13,45.92c12.2,5.17,48.17-10.21,49.3-15.32,2.85-12.84-19.15-35.39-20.54-48.45S359.56,134.09,336.46,147.05Z"/><path class="cls-13" d="M312.09,149.06c-10.82,3.84-23,16-23,21.86S299.23,179,299.23,179l16.68-8.11s4.77-3.34,1.73-13S312.09,149.06,312.09,149.06Z"/><path class="cls-6" d="M356.57,159.89a18.37,18.37,0,0,1-9.74-2.94,5.23,5.23,0,0,1-2.37-3.19c-.61-3.85,3.14-5.8,3.3-5.89l.5,1c-.13.07-3.18,1.68-2.7,4.72a4.2,4.2,0,0,0,1.92,2.47,16.53,16.53,0,0,0,10.76,2.6,3.64,3.64,0,0,0,2.75-1.52,2.44,2.44,0,0,0,.07-2l1-.44a3.58,3.58,0,0,1-.11,2.93,4.64,4.64,0,0,1-3.54,2.09A10.87,10.87,0,0,1,356.57,159.89Z"/><path class="cls-6" d="M342.84,171.61c-2.39,0-6.37-1-6.93-4.94a19.71,19.71,0,0,1,.06-5.14c.24-2.17.43-3.88-.83-5.93-2.09-3.39-4.93-3.62-5.05-3.62l.07-1.11c.14,0,3.52.25,5.92,4.15,1.46,2.37,1.24,4.44,1,6.63a18.6,18.6,0,0,0-.07,4.87c.61,4.24,6,4,6.24,4l.07,1.11Z"/><path class="cls-13" d="M346.21,151.68s8.19-5.58,6.25-11.61-28.31-5.63-35.11,1.59,14.71,12,14.71,12C333.72,150.31,344.36,149.94,346.21,151.68Z"/><path class="cls-15" d="M331.49,150.73c-3.88-1.31-6.19-4.12-5.35-7.36s17.53-3.32,20.7-.73S345.55,155.51,331.49,150.73Z"/><path class="cls-3" d="M329.64,141.63s3.44,5.88,1.85,9.1c0,0,11.8,4.08,11.8-2.52,0,0-2.23-5-1.39-8.14Z"/><path class="cls-16" d="M325.71,136.5s-5.79-9.27-5.26-18.14c.27-4.43,2.55-6.17,2.55-6.17s-1.84-2.55.13-6.46c0,0,2.73,3.15,12.31,2.16,9.24-1,10.16,5.62,10.16,5.62,6.6,1,2.15,21-2.46,23Z"/><path class="cls-4" d="M323.25,127.94s-3.33-3.33-3.74.56c-.47,4.5,3.62,6.31,4.41,4.88S323.25,127.94,323.25,127.94Z"/><path class="cls-4" d="M346.57,128.17s3.33-3.32,3.74.56c.48,4.5-3.61,6.32-4.41,4.88S346.57,128.17,346.57,128.17Z"/><path class="cls-4" d="M334.56,144.24c-7.39,0-11.56-4.83-11.56-19.3,0-7.47,3.8-12,12.08-12s11.76,4.58,11.76,12C346.84,140.49,342.2,144.24,334.56,144.24Z"/><path class="cls-7" d="M344.39,130.1a1.75,1.75,0,1,1-1.91-1A1.57,1.57,0,0,1,344.39,130.1Z"/><path class="cls-7" d="M329.19,130.5a1.75,1.75,0,1,1-1.61-1.47A1.56,1.56,0,0,1,329.19,130.5Z"/><path class="cls-16" d="M341.14,122.34a.4.4,0,0,1-.28-.07,4.16,4.16,0,0,0-3-.58.38.38,0,0,1-.43-.3.36.36,0,0,1,.29-.43,5,5,0,0,1,3.56.72.38.38,0,0,1,.07.52A.4.4,0,0,1,341.14,122.34Z"/><path class="cls-16" d="M327,122.39a.38.38,0,0,1-.24-.13.37.37,0,0,1,.05-.52,4.89,4.89,0,0,1,3.53-.83.37.37,0,0,1,.31.42.39.39,0,0,1-.43.31,4.22,4.22,0,0,0-2.94.67A.38.38,0,0,1,327,122.39Z"/><path class="cls-8" d="M340.38,126.51c0,.92-.42,1.66-.93,1.66s-.92-.74-.92-1.66.41-1.66.92-1.66S340.38,125.59,340.38,126.51Z"/><path class="cls-8" d="M330.51,126.51c0,.92-.42,1.66-.93,1.66s-.92-.74-.92-1.66.41-1.66.92-1.66S330.51,125.59,330.51,126.51Z"/><path class="cls-16" d="M325.27,114.49a50.24,50.24,0,0,0,19.16,2.08s2.41,3,2.12,13.58c0,0,6.61-19.07-12.69-19.07s-10.6,18.65-10.6,18.65S321.68,118.07,325.27,114.49Z"/><path class="cls-7" d="M335,131.44l-.55-.55,1.46-1.46c-1.42-2-1.41-6.64-1.41-6.84h.78s0,5,1.44,6.61l.26.28Z"/><path class="cls-8" d="M330.13,133.86s7.27.31,10.94-.66a4.87,4.87,0,0,1-5,5.55C330.13,139,330.13,133.86,330.13,133.86Z"/><path class="cls-6" d="M361.2,153.85c1.39-.25,1.25,3.38,0,2.33S359.81,154.11,361.2,153.85Z"/><path class="cls-6" d="M344.47,171.45c-.22,1.4-3.6.08-2.2-.76S344.68,170.06,344.47,171.45Z"/><path class="cls-3" d="M329.57,179s-2.2,5.65-2.08,8.85,1.17,2.77,1.17,2.77a3.46,3.46,0,0,0-2,2.5c-.31,1.84,4.33,3.19,4.65,3.19s3.6-1.25,3.6-1.25l.69-10.44-2.9-1.82Z"/><path class="cls-4" d="M331.32,178.3a46.56,46.56,0,0,1,5.57,4c1.55,1.53.66,13.33,0,13.88s-5.78,1.7-6.76,1.06.38-4.11.38-4.11,2.57-.56,2.2.42a2.54,2.54,0,0,0,0,1.8l1.05-.42a12.19,12.19,0,0,1,0-4.58c.52-1.94-3.62-4-4.12-7.54S331.32,178.3,331.32,178.3Z"/><path class="cls-13" d="M289.74,172.55C288.45,167,294,165,301.62,166c8.88,1.1,27.12,3.42,31.09,13,0,0,1.29,3.8-2.06,5.62C321.28,189.75,292.15,183,289.74,172.55Z"/><path class="cls-15" d="M317.52,168.88s-10.58-4.4-15.86-4.85S309,168.2,317.52,168.88Z"/><path class="cls-4" d="M396.87,73.58A24.44,24.44,0,0,0,394.75,78c-.55,3-.87,4.62-1.92,6s-.48,3.78-.48,3.78-4.05,2.07-7.44-.49c0,0,.35-2.39,0-3.07-.7-1.35-3-2.07-3.71-4.8a21.42,21.42,0,0,0-3.07-5.8s.66-1.42,1.86-.55,2,3.06,2.63,3.28a1.44,1.44,0,0,0,.4.09h0a1.6,1.6,0,0,0,1.32-.34.18.18,0,0,0,.08-.07c1.1-1.28,1.36-5,1.31-6.7-.07-2.34,0-5.56,1.44-5s.13,1.84,1.23,7l.53.07c.1.36,1.08-3.12,1.31-6.4.17-2.25,1.64-1.42,2-.71s-.16,3-.26,4.59c-.08,1.07-.17,2.2-.22,2.86l.62.35c2.24-3.91,1.47-5.53,2.78-5.61s.84,3.22.14,4.47a12.34,12.34,0,0,0-.82,2.79c2.29-2.65,2-4,3.09-3.87S397.67,72.66,396.87,73.58Z"/><path class="cls-3" d="M387,79.69c-.78-2.14-3.55-3.12-3.9-3.23a1.6,1.6,0,0,0,1.32-.34A3.9,3.9,0,0,1,387,79.69Z"/><path class="cls-6" d="M338.72,363.67s-1.54-3.14-.17-4.49,3,1.15,5.32.6,2.89-2.22,3.49.05S347.23,369.22,338.72,363.67Z"/><path class="cls-17" d="M347.53,363.53s-6.29,2.22-9.55,0l.83,2.72s6.83.72,7.77-1Z"/><path class="cls-17" d="M347.44,366.91s-5.75-.8-8.53.63v1.35s7.5-1.76,9.93,0Z"/><path class="cls-17" d="M338.64,371.69a5.24,5.24,0,0,1,4.61-2.92,9.17,9.17,0,0,1,5.86,1.73S343.56,368.22,338.64,371.69Z"/><path class="cls-6" d="M486.73,333.91a46.69,46.69,0,0,1-26.08,17.57c-4.37-3.48-4.48-7.61-4.48-7.61s-4.2-3.76-4.76-5.55,3.61-7.22,6.11-6.67a5,5,0,0,1,3.17,2.57c-2.06-4.65-.41-6.27,2.52-5.87s.17,1.13,2.36,3.58a2.86,2.86,0,0,0,.52.46,3.74,3.74,0,0,0,1.42.56,6.61,6.61,0,0,0,1.56.08,6.88,6.88,0,0,0,.89-.09,12,12,0,0,0,1.75-.42,16.1,16.1,0,0,0,2.81-1.21c3.81-2.09,5.42-2.8,8.33-2.05s2.86,2.93,2.86,2.93Z"/><path class="cls-17" d="M486.73,333.91a46.69,46.69,0,0,1-26.08,17.57c7.67-3.29,14.72-7.61,19.54-12.93S486.73,333.91,486.73,333.91Z"/><path class="cls-17" d="M466.09,332.39a3.74,3.74,0,0,0,1.42.56,3.74,3.74,0,0,0-3.13,3.2l-1.25-.4C463.4,332.62,465.88,332.4,466.09,332.39Z"/><path class="cls-17" d="M468.05,336.46l-1.3.05a3.46,3.46,0,0,1,.76-3.56,6.61,6.61,0,0,0,1.56.08A3.71,3.71,0,0,0,468.05,336.46Z"/><path class="cls-17" d="M471.26,335.75l-1.29.17a3.61,3.61,0,0,1,0-3,12,12,0,0,0,1.75-.42A3.77,3.77,0,0,0,471.26,335.75Z"/><path class="cls-13" d="M347.64,198.84s2.85,15.39-2.91,21.52-2,1.09-.24-6.81S344.9,197.31,347.64,198.84Z"/><path class="cls-13" d="M374.25,192s9.09,3,13.84,11.38C388.09,203.35,381.74,189.69,374.25,192Z"/><path class="cls-4" d="M138.2,77.66a23.88,23.88,0,0,1,4.72,1.42c2.58,1.58,4,2.45,5.73,2.59s2.4,3.08,2.4,3.08,6.73,1.48,7.11-2.76c0,0-3.76-5.33-4-6-.53-1.43.44-3.58-1.07-6a21.41,21.41,0,0,1-2.24-6.16s-1.49-.47-1.65,1,.94,3.52.67,4.16a1.71,1.71,0,0,1-.21.35.08.08,0,0,1,0,0,1.61,1.61,0,0,1-1.14.75l-.1,0c-1.69-.05-4.64-2.38-5.85-3.54-1.69-1.61-4.13-3.71-4.68-2.29s1.28,1.33,4.35,5.6l-.31.44c.21.32-3-1.3-5.62-3.33-1.78-1.39-2.15.27-1.84,1s2.3,1.86,3.58,2.88c.85.67,1.74,1.36,2.27,1.76l-.17.69c-4.4-1-5.08-2.61-6-1.69s1.83,2.77,3.23,3.1A12.42,12.42,0,0,1,139.93,76c-3.51-.08-4.36-1.2-5-.31S137,77.64,138.2,77.66Z"/><path class="cls-3" d="M149.4,74.41c-1.07-2,.07-4.73.22-5.06a1.61,1.61,0,0,1-1.14.75A3.9,3.9,0,0,0,149.4,74.41Z"/><path class="cls-4" d="M336.05,77.66a23.88,23.88,0,0,0-4.72,1.42c-2.58,1.58-4,2.45-5.72,2.59s-2.41,3.08-2.41,3.08-6.72,1.48-7.1-2.76c0,0,3.76-5.33,4-6,.53-1.43-.44-3.58,1.07-6a21.41,21.41,0,0,0,2.24-6.16s1.5-.47,1.66,1-.95,3.52-.67,4.16a1.68,1.68,0,0,0,.2.35l0,0a1.59,1.59,0,0,0,1.14.75l.1,0c1.68-.05,4.64-2.38,5.85-3.54,1.68-1.61,4.13-3.71,4.68-2.29s-1.28,1.33-4.36,5.6l.31.44c-.2.32,3-1.3,5.62-3.33,1.78-1.39,2.16.27,1.85,1s-2.3,1.86-3.58,2.88c-.85.67-1.74,1.36-2.27,1.76l.16.69c4.4-1,5.09-2.61,6-1.69s-1.83,2.77-3.23,3.1A12.22,12.22,0,0,0,334.32,76c3.51-.08,4.37-1.2,4.95-.31S337.27,77.64,336.05,77.66Z"/><path class="cls-3" d="M324.86,74.41c1.06-2-.08-4.73-.22-5.06a1.59,1.59,0,0,0,1.14.75A3.9,3.9,0,0,1,324.86,74.41Z"/><path class="cls-2" d="M277,281.51l-12.92-80-25.87,2.89-25.87-2.89-12.92,80-6.2,77.58s2,6.43,14.87,2c0,0,9.58-72,11.06-73.55S235.79,239,235.79,239h4.76s15.2,47,16.68,48.58,11,73.55,11,73.55c12.91,4.44,14.88-2,14.88-2Z"/><path class="cls-18" d="M230,124.05c1.63,1.59,9.67,4.46,13.92,0l2.88,2.83s-3.29,7.72-9,8-9.93-6.87-9.93-6.87Z"/><path class="cls-18" d="M252.79,123.18C262.41,119,293.5,108,293.5,108S314.39,81.85,318.66,78c0,0,4.62.83,6,6.59,0,0-13.46,28.82-20.78,37.07s-44.36,26.09-44.36,26.09Z"/><path class="cls-16" d="M219.11,122.59c2.86-1.81,17.23,7.8,17.23,7.8s18.69-9.92,23.07-8c0,0,3.95,5.29,5.54,18.88s1.69,69.54,1.69,69.54a97.61,97.61,0,0,1-29.55,4.44c-19.37,0-29.79-5.55-29.79-5.55S203.84,132.24,219.11,122.59Z"/><path class="cls-3" d="M230.78,121.14s2.07,6.5,0,9c0,0,2.15,4.51,6,4.71,4.46.23,6-4.71,6-4.71s-2.36-6.28,0-8.49Z"/><path class="cls-11" d="M225.62,114.73s-4.35-8.38-3.49-17.34,14.36-11,23.45-6.61c0,0-2.7-2.64-1.64-3.38s2.88,4,2.88,4,2.87-.88,3.31,0-2.94,1.36-2.94,1.36,5.87,3.25.38,20.58Z"/><path class="cls-4" d="M225,109.42s-3.25-3.24-3.65.55c-.46,4.39,3.52,6.15,4.3,4.76S225,109.42,225,109.42Z"/><path class="cls-4" d="M247.7,109.65s3.25-3.24,3.65.55c.46,4.39-3.52,6.15-4.3,4.76S247.7,109.65,247.7,109.65Z"/><path class="cls-4" d="M236,125.32c-7.2,0-11.27-4.71-11.27-18.82,0-7.29,3.71-11.75,11.78-11.75S248,99.21,248,106.5C248,121.66,243.44,125.32,236,125.32Z"/><path class="cls-7" d="M245.58,111.53a1.71,1.71,0,1,1-1.87-1A1.53,1.53,0,0,1,245.58,111.53Z"/><path class="cls-7" d="M230.76,111.92a1.71,1.71,0,1,1-1.58-1.43A1.52,1.52,0,0,1,230.76,111.92Z"/><path class="cls-11" d="M242.28,104.21a.35.35,0,0,1-.26-.12,4.14,4.14,0,0,0-2.77-1,.37.37,0,0,1-.37-.35.36.36,0,0,1,.35-.37,4.83,4.83,0,0,1,3.31,1.23.35.35,0,0,1,0,.51A.39.39,0,0,1,242.28,104.21Z"/><path class="cls-11" d="M228.72,104.21a.39.39,0,0,1-.25-.1.35.35,0,0,1,0-.51,4.81,4.81,0,0,1,3.31-1.23.36.36,0,0,1,.35.37.36.36,0,0,1-.37.35,4.22,4.22,0,0,0-2.77,1A.35.35,0,0,1,228.72,104.21Z"/><path class="cls-8" d="M241.66,108c0,.89-.4,1.62-.9,1.62s-.9-.73-.9-1.62.4-1.62.9-1.62S241.66,107.13,241.66,108Z"/><path class="cls-8" d="M232,108c0,.89-.4,1.62-.9,1.62s-.9-.73-.9-1.62.4-1.62.9-1.62S232,107.13,232,108Z"/><path class="cls-8" d="M232,117.6s6.35.82,9.62-.75c0,0-1.85,4.33-5.32,3.94A4.93,4.93,0,0,1,232,117.6Z"/><path class="cls-11" d="M247.21,111.25s-.22-7.84-3.27-13.86c0,0-5.38,2.48-6.56,1.9s1.13-1.9,1.13-1.9-8.88,2.92-9.41,2.34S232,97.39,232,97.39l-5.53,1.9s-1.7,7-1,12c0,0-2.37-4.1-2.67-6.93s.95-10.9,9.28-11.49,13,1.31,15.07,5.13S249,106.48,247.21,111.25Z"/><path class="cls-7" d="M237.25,115.34a6.71,6.71,0,0,1-1.63-.24l.21-.74c.75.21,1.94.33,2.2,0,.09-.11.05-.35-.1-.68-1-2.21-1.26-7.82-1.27-8.06l.77,0c0,.05.22,5.68,1.19,7.76a1.32,1.32,0,0,1,0,1.49A1.74,1.74,0,0,1,237.25,115.34Z"/><path class="cls-19" d="M245.22,126.12s13,40.48,14.28,73.41c0,0,4.71,1.3,10-5.92s2.14-64.38-8-73.89C261.5,119.72,256.9,118.67,245.22,126.12Z"/><path class="cls-18" d="M247.35,133.2s2.33-5.43,1.29-9.15-4.7,0-4.7,0S245.42,130.14,247.35,133.2Z"/><path class="cls-18" d="M221.17,123.18C211.55,119,180.46,108,180.46,108s-21-26.95-25.21-30.83a12,12,0,0,0-5.63,9.16s13.16,27,20.47,35.26,44.37,26.09,44.37,26.09Z"/><path class="cls-19" d="M228.74,126.12s-13,40.48-14.28,73.41c0,0-4.71,1.3-10-5.92s-2.15-64.38,8-73.89C212.46,119.72,217.06,118.67,228.74,126.12Z"/><path class="cls-18" d="M226.61,133.2s-2.33-5.43-1.29-9.15,4.7,0,4.7,0S228.54,130.14,226.61,133.2Z"/><path class="cls-12" d="M294.66,380H268.77c-1.81-10.29,1.08-20.59,1.08-20.59l11.84-2c1.07,6.51,2.37,9.07,4.17,10.4h0c1.31.95,2.88,1.26,4.83,1.94a6.23,6.23,0,0,1,4,3.72A11,11,0,0,1,294.66,380Z"/><path class="cls-11" d="M294.7,373.38c-6.39.8-20.41,2.16-19.55-1.53.71-3.09,6.62-3.92,10.71-4.13h0c1.31.95,2.88,1.26,4.83,1.94A6.23,6.23,0,0,1,294.7,373.38Z"/><path class="cls-12" d="M208,380H182.06a12,12,0,0,1-.44-5,6.27,6.27,0,0,1,4.41-5.31c2.24-.78,4-1.07,5.37-2.39s2.68-4.11,3.64-9.95l11.84,2S209.75,369.66,208,380Z"/><path class="cls-11" d="M181.62,375a6.27,6.27,0,0,1,4.41-5.31c2.24-.78,4-1.07,5.37-2.39,3.28,1,7.86,2.87,9.28,5.67C202.66,376.8,187.53,376.19,181.62,375Z"/><path class="cls-5" d="M393.83,378.1a14.48,14.48,0,0,1-.11,1.85H362.27c0-.62,0-1.24,0-1.85a57.85,57.85,0,0,1,3-15.37l7.86-3.37a12.57,12.57,0,0,0,4.6,8.32,11.7,11.7,0,0,0,1.8,1.16c.29.15.58.3.88.43a14.69,14.69,0,0,0,2,.74,48.18,48.18,0,0,0,7.55,1.32C393.32,371.86,393.83,375.73,393.83,378.1Z"/><path class="cls-20" d="M393.83,378.1a14.48,14.48,0,0,1-.11,1.85H362.27c0-.62,0-1.24,0-1.85Z"/><path class="cls-20" d="M379.53,368.84l-4.36,1.4-.92-1.6,3.48-1A11.7,11.7,0,0,0,379.53,368.84Z"/><path class="cls-20" d="M382.42,370l-2.94,2-1.81-.71,2.74-2A14.69,14.69,0,0,0,382.42,370Z"/><path class="cls-5" d="M273.66,378.1a7.9,7.9,0,0,1-.36,1.85h-21a10.46,10.46,0,0,1-.59-1.85c-2.06-10,11.86-22.3,11.86-22.3l4.42,5.9s-.51,9.43,3.23,11.4A4.81,4.81,0,0,1,273.66,378.1Z"/><path class="cls-20" d="M251.76,378.1h21.9a7.9,7.9,0,0,1-.36,1.85h-21A10.46,10.46,0,0,1,251.76,378.1Z"/><path class="cls-20" d="M270.31,372.35s-8.82-2-12.85.59v-1.46S264.89,367.88,270.31,372.35Z"/><path class="cls-20" d="M268.57,370.11s-5.64-2.58-11.11,0l.63-1.47S264.62,366.17,268.57,370.11Z"/><path class="cls-21" d="M384.34,289c0,8.43-7.47,77.13-7.47,77.13a43.56,43.56,0,0,1-13.48-.75c-2.05-34.82-2.25-64.76-2.25-64.76L325.27,273.7l-.08-.07s-.14.61-.38,1.7c-1.78,7.88-9.29,40.9-12.43,48.46-3.56,8.62-42.53,44.85-42.53,44.85-7.24-1-13.38-6.24-13.38-6.24,14-23.21,33.07-46.48,33.07-46.48,1.48-8.36,2.55-27,3.18-40.86,0-.21,0-.43,0-.64.42-9.41.63-16.52.63-16.52l-6.57-13.48,41.75-15.34,9.36,12s2.14,2,5.52,5.16l.47.43C356.45,258.48,384.34,285.19,384.34,289Z"/><path class="cls-9" d="M292.72,275.06c0-.21,0-.43,0-.64,8.79-4.77,7.31-12.39,7.29-12.47l.54-.11C300.62,261.92,302.19,270.1,292.72,275.06Z"/><path class="cls-9" d="M324.63,268.31a47.16,47.16,0,0,1,.64,5.39l-.08-.07s-.14.61-.38,1.7c-.39-13.06-5.78-20.77-5.84-20.86l.45-.32c.06.06,3.46,5,5.1,13.53,6.35-5.64.13-17.2.07-17.31l.48-.26C325.14,250.23,331.73,262.46,324.63,268.31Z"/><path class="cls-9" d="M343.92,246.65s0,0-.05,0a2.35,2.35,0,0,1-.86.14c-3.08,0-8.24-4.31-8.49-4.52l.37-.42c1.68,1.42,6.35,4.83,8.56,4.34Z"/><path class="cls-17" d="M289.74,172.55s12.7-2,19.06,2,14.73,14.64,14.73,14.64-9.93,1.31-11,8C312.48,197.26,305.27,180.1,289.74,172.55Z"/><path class="cls-6" d="M270.63,179.18c-5.37,2.9-14.35,13.81-14.76,20.51s4.45,12.56,7.72,17.68c10.19,15.95,20.92,30.06,25.48,48.77,0,.12,23.32,9.36,50.65-23.49,0,0-15.45-20.77-20.78-38.46-2.17-7.2-4.38-14.85-8.55-21.2a22.72,22.72,0,0,0-20.65-10.44C282.81,173.11,275.92,176.32,270.63,179.18Z"/><path class="cls-3" d="M268.38,172.48s3.43,5.88,1.85,9.1c0,0,11.79,4.08,11.79-2.52,0,0-2.22-4.95-1.39-8.14Z"/><path class="cls-3" d="M294.58,212.69s-6.56,1.87-8.21,4.19-3.13,7.53-3.13,7.53h11.34l2.13-3.93,2.5-5.23Z"/><path class="cls-5" d="M283.74,165.94s4.6-1.94,1.62-15.79c-2-9.18-4.82-10.54-6.65-10.62,0,0-2.25-3.39-10-1.77a14.46,14.46,0,0,0-11.47,10.35c-2,6.27,1.95,19.7,7.11,21Z"/><path class="cls-4" d="M284.83,156.58s2.9-4,4-.06c1.27,4.61-2.68,7.21-3.76,5.85S284.83,156.58,284.83,156.58Z"/><path class="cls-4" d="M260.54,160.83s-4-2.89-3.8,1.23c.28,4.78,4.85,6,5.44,4.34S260.54,160.83,260.54,160.83Z"/><path class="cls-4" d="M275.84,175.53c7.7-1.27,11.22-7,8.73-22.13-1.28-7.79-6-11.91-14.67-10.49s-11.48,6.81-10.19,14.6C262.38,173.73,267.87,176.84,275.84,175.53Z"/><path class="cls-7" d="M263.15,162.47a1.85,1.85,0,0,0,3.61,0A1.67,1.67,0,0,0,265,161,1.65,1.65,0,0,0,263.15,162.47Z"/><path class="cls-7" d="M279.07,160.28a1.85,1.85,0,1,0,1.43-1.82A1.65,1.65,0,0,0,279.07,160.28Z"/><path class="cls-8" d="M265.32,154.06a.34.34,0,0,1-.22-.07.39.39,0,0,1-.11-.54,5.23,5.23,0,0,1,3.34-1.9.38.38,0,0,1,.43.34.39.39,0,0,1-.33.44,4.48,4.48,0,0,0-2.79,1.56A.4.4,0,0,1,265.32,154.06Z"/><path class="cls-8" d="M279.83,151.66a.42.42,0,0,1-.24-.07,4.47,4.47,0,0,0-3.14-.59.39.39,0,0,1-.46-.3.39.39,0,0,1,.31-.46,5.19,5.19,0,0,1,3.76.72.39.39,0,0,1-.23.7Z"/><path class="cls-8" d="M266.72,158c.16,1,.72,1.67,1.25,1.58s.83-.94.68-1.9-.72-1.66-1.25-1.57S266.56,157.08,266.72,158Z"/><path class="cls-8" d="M277,156.33c.16,1,.72,1.67,1.25,1.58s.84-.94.68-1.89-.72-1.67-1.25-1.58S276.86,155.38,277,156.33Z"/><path class="cls-8" d="M279.9,165s-6.68,1.79-10.39,1.08c0,0,2.56,3.23,6.22,2.29S279.9,165,279.9,165Z"/><path class="cls-2" d="M280.22,146.4s-8.7,6.29-19.62,6.77l.31,9.73s-10.18-18.76,9.95-22.08,14.27,17.63,14.27,17.63S284.51,149.41,280.22,146.4Z"/><path class="cls-7" d="M273.1,162.41l-.05-.84s1.17-.09,1.47-.81c.13-.29-.37-1.24-.8-2.07A16.08,16.08,0,0,1,272,154.5l.83-.17a15.39,15.39,0,0,0,1.6,4c.65,1.24,1.12,2.13.84,2.79A2.68,2.68,0,0,1,273.1,162.41Z"/><path class="cls-13" d="M284.94,146.42c-14.63-6.35-28.45,6.82-28.45,6.82s-1.61-10.67,1.21-13.17a17,17,0,0,1,2.35-1.74c6.46-4.08,15.05-4,19-2.6a4.74,4.74,0,0,1,1.79,1C283.16,139.15,284.94,146.42,284.94,146.42Z"/><path class="cls-6" d="M283.16,144a34.63,34.63,0,0,0-23.75,5.15s-.73-6.88.64-10.86c6.46-4.08,15.05-4,19-2.6C281.34,138.35,283.16,144,283.16,144Z"/><path class="cls-15" d="M257.7,152s1.95-8.27,4.58-10.6c4.36-3.88,16.63-5.21,23.08-2.88s0,9.37,0,9.37S275.08,140.51,257.7,152Z"/><path class="cls-4" d="M276.68,207a41.06,41.06,0,0,0,13.58,12.36s10.7-9.29,24.58-8.46c0,0-11.5,20.75-21.38,23-5.19,1.21-23.95-11.22-23.95-11.22S273.25,209.5,276.68,207Z"/><path class="cls-17" d="M258.18,192.86c4.6-7.48,15.21,3.58,18.81,11.48s6.25,9.58,6.25,9.58-10.6,4.43-10.52,12.37C272.72,226.29,248.15,209.19,258.18,192.86Z"/><path class="cls-3" d="M290.26,215.91s6.45-6.33,27.68-14.6l-2.75-8.62c2.44-3.2,6.92-3.2,6.92-3.2s10.87,15.35,9,19.94C329.94,212.29,307.26,215.3,290.26,215.91Z"/><path class="cls-4" d="M313.5,203.38a5.67,5.67,0,0,1,.95-2c.79-1.11.57-3.13.86-3.75s1.95-3.18,3.05-3.67,2.57-1.31,2.87.09-2,1-3,3a8.85,8.85,0,0,1,4-.3c1.79.42,2.3,2.06.09,2a10,10,0,0,0-4,1.21s2.29.35,1.92,1.41C319.73,202.85,316.93,202,313.5,203.38Z"/><path class="cls-22" d="M156.55,232.29c1.89,4.85,9.66,13.18,9.66,13.18s19-11.38,27.75-6.59,15.71,7.71,21.39,5.62-18.67-46.38-18.67-46.38L165.1,186.07s-.69,8-4.3,9.41-7.45,14.6-7.2,17.1S156.55,232.29,156.55,232.29Z"/><path class="cls-3" d="M192.08,245.76s-8.15,16-25,36.4c0,0-1.72,24.31-46.18,62.56l-4.65-3.66s26.47-41.47,31.77-54.19-2.93-24.36,21.43-56.52Z"/><path class="cls-12" d="M166.16,217.51c-7,13.43-9.36,30.6-9.36,30.6l-3.2,8.05a89.83,89.83,0,0,0,24.4,8.33l5.24-13.88Z"/><path class="cls-4" d="M202.72,244.5s3.47,17.58,2.9,44c0,0,13.67,20.17,2.39,77.72h-5.92s-4.84-49-8.54-62.23-17.37-17.34-18.11-57.68Z"/><path class="cls-11" d="M206.19,263.37s-11.14,2-30.76,1.08l-.31-2.21-.07-.57-2-14.3a39.23,39.23,0,0,1-3.83-6.12c-.23-.45-.45-.9-.67-1.38-2.65-5.63-5-13.81-2.36-22.35l4.14.19.58,0,13.86.63.59,0,4.55.21.71,0,2.95.14s15,13.51,12.34,38.49l.19,3.47,0,.57Z"/><path class="cls-12" d="M170.87,217.74c-.39,1.15-3,9.63-1.69,23.51-.23-.45-.45-.9-.67-1.38-1-12.69,1.28-20.61,1.78-22.16.07-.19.1-.28.1-.29l.53.19A.85.85,0,0,0,170.87,217.74Z"/><path class="cls-12" d="M206.08,261.32c-3.94,1-10.63,1.29-17,1.29-5.69,0-11.1-.24-14-.37l-.07-.57c5,.25,18.1.76,26.56-.16l-.54-8.94A56.39,56.39,0,0,0,195,227.09c-7.71-1.4-9.83-7.11-10.28-8.72a4,4,0,0,1-.1-.42l.54-.09s.05.21.15.55a11.84,11.84,0,0,0,9.37,8.05,55.89,55.89,0,0,0-4.82-7.84l-.41-.53.42-.36s.28.33.7.92c2.57,3.5,11.27,16.66,11,33.9l.54,8.89a29.38,29.38,0,0,0,3.89-.69Z"/><path class="cls-21" d="M177.71,157.28c-4.42-2.43-36.26,10.05-36.26,10.05s-4.71,8.41-1.78,11.7,13.36,1.84,16.55,0,11.65-3.23,11.65-3.23Z"/><path class="cls-14" d="M205.87,130.77a16.63,16.63,0,0,1,9,10.12c2.41,7.58-4.78,26.76-2.3,35.58s2.1,25.47-5.66,29-23.69-2.78-27.11-12.4-1.94-46.07,4.63-58.47S204.29,128.43,205.87,130.77Z"/><path class="cls-21" d="M198.31,163.47c1.74,1.87,6.2-1.47,6.2-1.47s-.1,16.54-4.9,17.81-17.06-13-16.55-16.91S194.46,159.32,198.31,163.47Z"/><path class="cls-2" d="M179.78,159.33a33.86,33.86,0,0,0,13.33,6.09c8.47,2,13.06-2,17.4,3.44,6.5,8.2-4.08,23.31-9.65,31.14-2.07,2.92-6.45,11-7.33,18.79,0,0-14.7,4.27-27.37-1.28l-.95-18S157.22,175.19,179.78,159.33Z"/><path class="cls-21" d="M195,176.87s6.71-16,8.66-17,6.87,1.43,7.86,3.62,0,7,0,7S206.21,164.39,195,176.87Z"/><path class="cls-9" d="M227.14,244.5c-3,6.25-10.55,8.05-10.55,8.05s-.56-.87-1.52-2.42l-.31-.51c-5.9-9.56-23.92-40.15-23.56-56.06A41.49,41.49,0,0,1,204,164.12c6.3,1.5,8.28,3.22,8.28,3.22a77.42,77.42,0,0,1,.18,23.82c-1.94,13-5.47,16.45-3.69,17.42s0,2.91,0,2.91,10.44,14.56,12.4,19.09c1.26,2.95,3.42,8,4.76,11.1.09.22.18.44.27.64Z"/><path class="cls-4" d="M209,167.33s-7.48,5.55-3.12,14l20.73,21.47c-11.38,12.12-12.5,17.1-20.73,22.69l3.12,4.84s28.81-22.15,28.85-27.53C237.86,200.51,220.25,172.6,209,167.33Z"/><path class="cls-4" d="M205.41,225.51a62.61,62.61,0,0,0-6.44,1.06c-2.48.63-5.8,1.25-5.91,1.77s5.5,0,5.5,0-4.56,1.87-4.67,2.59,5.81-.52,5.81-.52-3.73,2.28-3.53,2.9,4.81-.93,4.81-.93a14.17,14.17,0,0,1-1.74,3.21s.89.49,2.7-1.51,4.69-1.37,7-3.15S207.5,225.24,205.41,225.51Z"/><path class="cls-9" d="M184.23,162s-5.69,3.68-9.29,12.56-14.93,25.6-17.59,29.92-.8,27.82-.8,27.82-3.34-14.25-4.82-19.8,4.78-19.27,5.72-20,5.76.6,4.83-5,12-29.56,15.43-30.24C177.71,157.28,183.23,158.32,184.23,162Z"/><path class="cls-9" d="M166.63,163.19a4.65,4.65,0,0,1-.34.56,14.51,14.51,0,0,1-3.69,3.33s-4.34,6.09-4.39,6.78-7.53,6-10.87,5.93h0a1.68,1.68,0,0,1-1.1-.37c-2-1.87,6.73-17.52,8.65-20.9l.29-.5.08-.14s-1.53-5.71,4.86-4.64c5.32.87,6.38,5.1,6.93,7.93A3,3,0,0,1,166.63,163.19Z"/><path class="cls-4" d="M144.3,169.11c4.39-5.77,19.85-17,28-20.29l2,3.78s-15.73,13.84-19.43,19.75-8.28,8.37-12.65,6.4S143.38,170.33,144.3,169.11Z"/><path class="cls-21" d="M165.1,162l-.83,1-.43.49L162.47,165s-3.47,4.19-3.33,5.88c.1,1.21-6.58,6.63-11.8,8.88-2.12.92-4,1.32-5.1.69-3.78-2.17-2.93-8.71-.79-13.14,1.86-3.87,10.11-8.85,12.23-10.07a5.57,5.57,0,0,1,.49-.29h0l.79-3.07s2.88-1.73,5.14-.66c0,0-5,.21-4.17,2.15S163.71,161.94,165.1,162Z"/><path class="cls-4" d="M183.24,146c-5,2.06-4.31,6.61-8.92,6.61-2.85,0-3.23-3.26-3.23-3.26a35.22,35.22,0,0,0,2.29-9.8c.19-2.27.94-1.39.94-1.39,0-.21,0-.41,0-.61-.06-1.52-.34-2.63.66-2s1.52,5,1.52,5c.93-6.28-.46-7.22.63-6.66,1.49.75,1.5,6.31,1.5,6.47,1.2-3.65.88-5.74,1.71-4.9s-.42,7.54-.92,10c-.11.55-.19.9-.19.9C183.2,144.46,183.24,146,183.24,146Z"/><path class="cls-3" d="M179.4,145.52c-.11.55-.19.9-.19.9a3.68,3.68,0,0,0-3.19,1.81A3.29,3.29,0,0,1,179.4,145.52Z"/><path class="cls-3" d="M174.6,142.66c0-.54.26-3.59-.28-4.51,0-.21,0-.41,0-.61C175.46,137.78,174.72,142,174.6,142.66Z"/><path class="cls-21" d="M177.72,169.14s3.4-9.21,4.48-11.27,6.72-1.7,11-.9,5.13,6.5,5.13,6.5S185.34,157.35,177.72,169.14Z"/><path class="cls-3" d="M199.61,151a37.14,37.14,0,0,0-4,15.86s-6.61,4.49-9-1.14a42.8,42.8,0,0,0,1.3-17.33C187.11,141.73,199.61,151,199.61,151Z"/><path class="cls-4" d="M186.62,140.58s-1.21-4.31-3.36-1.28c-2.5,3.51,0,6.92,1.38,6.11S186.62,140.58,186.62,140.58Z"/><path class="cls-4" d="M205.85,151.66s4.31-1.2,2.83,2.21c-1.7,4-5.94,3.55-5.93,2S205.85,151.66,205.85,151.66Z"/><path class="cls-4" d="M188.39,159.38c-6.13-3.45-7.34-9.4-.58-21.4,3.49-6.2,8.78-8.22,15.64-4.36s7.61,9.29,4.13,15.49C200.32,162,194.71,162.94,188.39,159.38Z"/><path class="cls-7" d="M203.14,152.24a1.66,1.66,0,0,1-3.06-1.08,1.66,1.66,0,0,1,3.06,1.08Z"/><path class="cls-7" d="M190.35,145.48a1.66,1.66,0,1,1-.65-2A1.49,1.49,0,0,1,190.35,145.48Z"/><path class="cls-8" d="M204,144.48a.35.35,0,0,1-.35-.26A4,4,0,0,0,201.8,142a.36.36,0,0,1-.15-.48.35.35,0,0,1,.47-.14,4.66,4.66,0,0,1,2.24,2.63.36.36,0,0,1-.26.42Z"/><path class="cls-8" d="M195.6,138.5a.41.41,0,0,1-.18-.05,4,4,0,0,0-2.84-.48.35.35,0,1,1-.2-.67,4.66,4.66,0,0,1,3.4.55.34.34,0,0,1,.12.48A.34.34,0,0,1,195.6,138.5Z"/><path class="cls-8" d="M201.48,147.39c-.43.76-1.12,1.19-1.54,1s-.42-1.05,0-1.81,1.12-1.19,1.54-.95S201.91,146.63,201.48,147.39Z"/><path class="cls-8" d="M192.89,142.78c-.43.76-1.12,1.19-1.54.95s-.42-1,0-1.81,1.12-1.18,1.54-.94S193.32,142,192.89,142.78Z"/><path class="cls-8" d="M189.92,150.6s3.51,2.68,6.05,2.76c0,0-2.7,2.2-4.64.77A3.49,3.49,0,0,1,189.92,150.6Z"/><path class="cls-8" d="M199.64,145.85s1.61-1.56,2.27-1,.31,2.47.31,2.47l1.42,0-1.17-.47s.38-2-.35-2.41C201.09,143.88,199.64,145.85,199.64,145.85Z"/><path class="cls-8" d="M193.56,142.73s.5-2.19-.32-2.47-2.27,1-2.27,1l-.76-1.19,1,.75s1.51-1.35,2.24-1C194.49,140.47,193.56,142.73,193.56,142.73Z"/><path class="cls-14" d="M205.08,136.19a3.51,3.51,0,0,0-5.23-.63c-3,2.42-9.87,6.3-13.23,5S194,125,203.29,129.17s8.47,17.85,4.6,22.2-2,.29-2,.29a48.17,48.17,0,0,1,1.55-10.24C208.69,137.33,205.08,136.19,205.08,136.19Z"/><path class="cls-7" d="M194.76,149.2a2,2,0,0,1-.53-.07l.18-.74a.89.89,0,0,0,1.09-.36.94.94,0,0,0,0-1c-.1-.1-.26-.09-.49,0l-.36-.67a1.07,1.07,0,0,1,1.4.12,1.64,1.64,0,0,1,.09,1.89A1.56,1.56,0,0,1,194.76,149.2Z"/><path class="cls-21" d="M239.63,202c-.37,5.38-13.69,22.91-15.91,23.53a5.9,5.9,0,0,0-1.72.86c-.23.16-.47.34-.69.52a16.35,16.35,0,0,0-2.22,2.2c-3.89-.26-14.8-5.31-11.29-6.42a2.82,2.82,0,0,0,.7-.37,4.26,4.26,0,0,0,.45-.35c4.13-3.47,12.17-17.52,12.23-18.59s1.43-1.38,1.43-1.38-7.58-11.14-12-12.48-6.62-6.67-6.62-6.67c-4.34-18.37,8.28-15.48,8.28-15.48C221.6,172.88,240,196.57,239.63,202Z"/><path class="cls-22" d="M222,226.36c-.23.16-.47.34-.69.52a27.68,27.68,0,0,1-12.81-4.59,4.26,4.26,0,0,0,.45-.35A27,27,0,0,0,222,226.36Z"/><path class="cls-22" d="M166.63,163.19a4.65,4.65,0,0,1-.34.56,13.68,13.68,0,0,1-2.45-.3,18.38,18.38,0,0,1-9-4.93c-.45-.44-.85-.87-1.2-1.25a5.57,5.57,0,0,1,.49-.29c.29.32.62.67,1,1a17.67,17.67,0,0,0,9.1,4.94A12.85,12.85,0,0,0,166.63,163.19Z"/><path class="cls-22" d="M226.21,242.32a15.68,15.68,0,0,1-11.14,7.81l-.31-.51a15.23,15.23,0,0,0,11.18-7.94C226,241.9,226.12,242.12,226.21,242.32Z"/><path class="cls-6" d="M125.16,343.35a19.23,19.23,0,0,0-2.83,3.87c-1.44,2.51.15,4.82-6.84,10.64,0,0-14.09-8.25-20.45-18.86a4.1,4.1,0,0,1,3.19-3.74c1.65-.38,6.2,1.76,10.58,2.58a17.09,17.09,0,0,0,1.85.25,10.47,10.47,0,0,0,2.24,0,6.53,6.53,0,0,0,1.89-.45h0a5.61,5.61,0,0,0,3.28-3.94s3.74,2.13,1.24,5.74C119.32,339.43,123.76,337.48,125.16,343.35Z"/><path class="cls-17" d="M115.49,357.86S101.4,349.61,95,339c0,0,2.37-.5,4.32,3S116.64,353.52,115.49,357.86Z"/><path class="cls-17" d="M115.55,341.18c-1.15,1.81-1.12-1.53-2.65-3.1a6.53,6.53,0,0,0,1.89-.45h0C115.48,338.36,116.45,339.77,115.55,341.18Z"/><path class="cls-17" d="M111.12,341.28c-1.21,1.14-1.6-1.84-2.31-3.44a17.09,17.09,0,0,0,1.85.25C111.37,339.06,112,340.4,111.12,341.28Z"/><path class="cls-6" d="M211.84,380H191.91a11.76,11.76,0,0,1,0-5.83c.36-1.32,2.42-2.55,4.34-4.27a14.86,14.86,0,0,0,1.52-1.55,8.73,8.73,0,0,0,1-1.45,6.9,6.9,0,0,0,.82-2.08,9.07,9.07,0,0,0-.66-5.41s6.78-1.43,9.2,2.27c0,0,.24-1.71,2.39-.57a31.78,31.78,0,0,0,.11,6.31C211.06,370.24,213.74,371.07,211.84,380Z"/><path class="cls-17" d="M206.65,368a.87.87,0,0,1-.66.3,1,1,0,0,1-.59-.2,7.28,7.28,0,0,0-6.62-1.2,6.9,6.9,0,0,0,.82-2.08c1.34-.49,3.85-.77,6.94,1.87A.91.91,0,0,1,206.65,368Z"/><path class="cls-17" d="M205,371.26l-.11.16a.9.9,0,0,1-1.22.3c-1.36-.8-4.4-2.31-7.4-1.87a14.86,14.86,0,0,0,1.52-1.55,7.94,7.94,0,0,1,7,1.75A.94.94,0,0,1,205,371.26Z"/></svg>