<svg id="Layer_1" data-name="Layer 1" xmlns="http://www.w3.org/2000/svg" viewBox="0 0 499 467"><defs><style>.cls-1{fill:#fc869c;}.cls-2{fill:#77871a;}.cls-3{fill:#12101c;}.cls-4{fill:#eadc8c;}.cls-5{fill:#9378ba;}.cls-6{fill:#6c5584;}.cls-7{fill:#47385b;}.cls-8{fill:#484063;}.cls-9{fill:#2ec1cc;}.cls-10{fill:#18a4b7;}.cls-11{fill:#262816;}.cls-12{fill:#ffefee;}.cls-13{fill:#453b4c;}.cls-14{fill:#dd642f;}.cls-15{fill:#f2e4a0;}.cls-16{fill:#fcf5d6;}.cls-17{fill:#93aa31;}.cls-18{fill:#3a1a08;}</style></defs><title>vectorss</title><path class="cls-1" d="M370,141.23l-2.16,0A98,98,0,0,1,300.74,117a96.25,96.25,0,0,0-148.29,26.25,38.5,38.5,0,0,0-1.91,4.18c-10.11,25.84-29.87,46.92-55.59,57.32-.74.29-1.42.6-2,.91a88.11,88.11,0,0,0,56.66,165.19,143.27,143.27,0,0,1,71,3.73A96.54,96.54,0,0,0,294.25,368c22.7-12,48.18-17.39,73.83-16.92l2,0A105,105,0,0,0,475,245.51C474.64,188,427.48,141.2,370,141.23Z"/><path class="cls-2" d="M438.52,329.89a19.69,19.69,0,0,0,.43-4c0-8.18-4.92-14.94-11.34-16.12-1.42-9.6-7.75-16.83-15.34-16.83s-13.85,7.15-15.32,16.66c-.19,0-.37,0-.56,0-6.34,0-11.48,6.88-11.48,15.36a19.81,19.81,0,0,0,.64,5Z"/><rect class="cls-3" x="97.43" y="216.47" width="45.77" height="8.78"/><polygon class="cls-4" points="290.86 231.63 142.2 231.63 142.2 149.29 290.86 190.46 290.86 231.63"/><polygon class="cls-5" points="399.08 328.15 108.34 328.15 108.34 321.41 115.23 321.41 111.42 242.03 108.34 242.03 108.34 223.94 428.05 172.99 399.08 328.15"/><polygon class="cls-6" points="301.87 194.17 301.87 328.15 400.54 328.15 428.05 172.99 301.87 194.17"/><polygon class="cls-7" points="422.82 202.45 422.33 205.23 301.87 205.23 301.87 202.45 422.82 202.45"/><polygon class="cls-7" points="420.1 217.82 419.61 220.6 301.87 220.6 301.87 217.82 420.1 217.82"/><polygon class="cls-7" points="417.38 233.19 416.88 235.96 301.87 235.96 301.87 233.19 417.38 233.19"/><polygon class="cls-7" points="414.65 248.55 414.16 251.33 301.87 251.33 301.87 248.55 414.65 248.55"/><polygon class="cls-7" points="411.93 263.92 411.44 266.69 301.87 266.69 301.87 263.92 411.93 263.92"/><polygon class="cls-7" points="409.21 279.27 408.71 282.05 301.87 282.05 301.87 279.27 409.21 279.27"/><polygon class="cls-7" points="406.48 294.64 405.98 297.42 301.87 297.42 301.87 294.64 406.48 294.64"/><polygon class="cls-7" points="403.75 310.01 403.26 312.78 301.87 312.78 301.87 310.01 403.75 310.01"/><polygon class="cls-7" points="401.03 325.37 400.54 328.15 301.87 328.15 301.87 325.37 401.03 325.37"/><polygon class="cls-7" points="425.2 189.06 424.71 191.84 315.78 191.84 332.29 189.06 425.2 189.06"/><polygon class="cls-7" points="427.58 175.61 427.09 178.39 395.88 178.39 412.44 175.61 427.58 175.61"/><rect class="cls-8" x="93.48" y="194.68" width="355.13" height="11.38" transform="translate(-29.84 48.45) rotate(-9.68)"/><polygon class="cls-8" points="300.21 197.16 129.5 149.91 131.77 141.68 305.44 189.74 300.21 197.16"/><path class="cls-3" d="M142.2,201.8H93.81a1.43,1.43,0,0,1-1.42-1.43h0A1.43,1.43,0,0,1,93.81,199H142.2Z"/><rect class="cls-3" x="98.14" y="200.37" width="1.9" height="17.17"/><rect class="cls-3" x="105.14" y="200.37" width="1.9" height="17.17"/><rect class="cls-3" x="112.25" y="200.37" width="1.9" height="17.17"/><rect class="cls-3" x="119.69" y="200.37" width="1.9" height="17.17"/><rect class="cls-3" x="127.55" y="200.37" width="1.9" height="17.17"/><rect class="cls-3" x="134.4" y="200.37" width="1.9" height="17.17"/><rect class="cls-9" x="337.96" y="208.43" width="35.16" height="83.01"/><polygon class="cls-10" points="350.44 214.44 373.12 214.44 373.12 208.43 337.96 208.43 337.96 291.44 350.44 291.44 350.44 214.44"/><path class="cls-11" d="M336.37,207.13v85.62h38.34V207.13Zm35.17,24.7H356.62V209.74h14.92Zm-14.92,1h14.92v21.67H356.62Zm-1.27-23.14v22.09h-15.8V209.74Zm0,44.81h-15.8V232.88h15.8Zm-15.8,35.59V255.59h15.8v34.55Zm17.07,0V255.59h14.92v34.55Z"/><polygon class="cls-11" points="229.3 321.41 110.95 321.41 108.34 242.03 229.3 242.03 229.3 321.41"/><polygon class="cls-9" points="225.03 244.03 225.03 319.4 110.88 319.4 108.41 244.03 225.03 244.03"/><polygon class="cls-10" points="108.41 244.03 108.83 256.85 212.39 257.15 212.39 319.4 225.03 319.4 225.03 244.03 108.41 244.03"/><polygon class="cls-11" points="108.83 256.79 125.42 256.79 125.42 243.66 127.55 243.66 127.55 256.79 147.82 256.79 147.82 243.66 149.95 243.66 149.95 256.79 167.75 256.79 167.75 243.66 169.89 243.66 169.89 256.79 187.08 256.79 187.08 243.75 189.22 243.75 189.22 256.51 205.82 256.79 205.82 243.66 207.95 243.66 207.95 256.79 225.03 256.79 226.34 256.79 226.34 258.21 225.03 258.21 207.95 258.21 207.95 319.59 205.82 319.63 205.82 258.21 189.22 258.21 189.22 319.59 187.08 319.62 187.08 258.21 169.89 258.21 169.89 319.8 167.75 319.79 167.75 258.21 149.95 258.21 149.95 319.95 147.82 319.95 147.82 258.21 127.55 258.21 127.55 319.76 125.42 319.76 125.42 258.21 108.87 258.21 108.83 256.79"/><rect class="cls-9" x="145.83" y="171.67" width="53.13" height="15.37"/><polygon class="cls-10" points="150.09 175.97 198.96 175.97 198.96 171.67 145.83 171.67 145.83 187.04 150.09 187.04 150.09 175.97"/><path class="cls-12" d="M145.23,171.07v16.57h54.33V171.07Zm17.63,15.37H146.43V172.27h16.43Zm19.24,0h-18V172.27h18Zm16.27,0h-15V172.27h15Z"/><rect class="cls-11" x="259.97" y="254.29" width="30.89" height="73.86"/><rect class="cls-13" x="259.97" y="254.29" width="26.25" height="73.86"/><path class="cls-14" d="M266.24,292.92a1.72,1.72,0,1,1-1.72-1.71A1.72,1.72,0,0,1,266.24,292.92Z"/><path class="cls-14" d="M281.87,243.77a6.46,6.46,0,1,1-6.45-6.46A6.46,6.46,0,0,1,281.87,243.77Z"/><path class="cls-15" d="M281.48,243.77a6.07,6.07,0,1,1-6.06-6.06A6.06,6.06,0,0,1,281.48,243.77Z"/><path class="cls-16" d="M270.68,244.88a6.06,6.06,0,0,1,9.24-5.16,6.06,6.06,0,1,0-7.68,9.21A6,6,0,0,1,270.68,244.88Z"/><path class="cls-17" d="M113,328.45a6.83,6.83,0,0,0,.3-2c0-4-3.45-7.3-8-7.88a11.17,11.17,0,0,0-21.53-.08l-.39,0A7.8,7.8,0,0,0,75.37,326a7.14,7.14,0,0,0,.44,2.45Z"/><rect class="cls-18" x="52.21" y="328.15" width="406.79" height="6.91"/></svg>