<svg id="Layer_1" data-name="Layer 1" xmlns="http://www.w3.org/2000/svg" xmlns:xlink="http://www.w3.org/1999/xlink" viewBox="0 0 499 467"><defs><style>.cls-1{fill:none;}.cls-2{fill:#294999;opacity:0.39;}.cls-3{clip-path:url(#clip-path);}.cls-4{fill:#ed975d;}.cls-5{fill:#ed7d2b;}.cls-6{fill:#6bb7bf;}.cls-7{fill:#599dad;}.cls-8{fill:#f99746;}.cls-9{fill:#fc869c;}.cls-10{fill:#ce4a67;}.cls-11{fill:#ffb27d;}.cls-12{fill:#ddebfd;}.cls-13{fill:#739af0;}.cls-14{fill:#a8c3f7;}.cls-15{fill:#a8d29f;}.cls-16,.cls-17{fill:#82b378;}.cls-17{opacity:0.5;}.cls-18{fill:#ffb93e;}.cls-19{fill:#ffa412;}.cls-20{fill:#e2810e;}</style><clipPath id="clip-path"><path class="cls-1" d="M396,376.08C337,430.39,263.48,430.29,188.75,400.17h0C145,382.56,98.75,352,73.6,312.6c-34-52.55-22.14-97.76,4.08-154.3C112.49,83.2,168.83,38.68,251.76,47.87c106.4,11.78,173.58,89.16,192,192C453,291.6,433.45,341.66,396,376.08Z"/></clipPath></defs><title>vectorss</title><path class="cls-2" d="M396,376.08C337,430.39,263.48,430.29,188.75,400.17h0C145,382.56,98.75,352,73.6,312.6c-34-52.55-22.14-97.76,4.08-154.3C112.49,83.2,168.83,38.68,251.76,47.87c106.4,11.78,173.58,89.16,192,192C453,291.6,433.45,341.66,396,376.08Z"/><g class="cls-3"><path class="cls-4" d="M287.17,272.44s-27.61-5.56-32.22-5.12-20.6,7.62-20.78,8.94.62,2.36,3.41,2.47,12-1.3,11.4-.17-26.88,7-27,12.36,14.61,14.85,26.88,15.2,36-14.53,38.06-14.76C304.35,289.37,287.17,272.44,287.17,272.44Z"/><path class="cls-5" d="M438,211.08c-10.78,13.43-19.78,23.84-24.51,27.63a107.34,107.34,0,0,1-14,9.17c-39.36,22.22-115.08,44.76-115.08,44.76l-.15-.11a33.18,33.18,0,0,1-9.45-11.36c-2.88-5.84-2.29-9.45-1.43-11.35a5,5,0,0,1,1.14-1.67s90.73-58,98-64c4.12-3.42,19-38.12,31.16-67.53q2.53,3.69,4.93,7.5A256.59,256.59,0,0,1,438,211.08Z"/><path class="cls-6" d="M438.6,313.76q-.86,2.43-1.8,4.83a150.35,150.35,0,0,1-10.6,21.72h0q-3.65,6.19-7.89,12.06a160.9,160.9,0,0,1-21.65,24.34c0-.6.09-1.21.14-1.81.06-.94.13-1.87.19-2.79q.22-3.06.43-6c.06-.76.11-1.52.16-2.27.35-4.87.68-9.49,1-13.82.09-1.25.17-2.47.26-3.67,0-.35.05-.71.07-1.06.06-.7.1-1.4.15-2.09s.09-1.24.13-1.85c0-.07,0-.13,0-.19,0-.62.08-1.23.13-1.84.07-1,.14-2,.21-3,0-.61.09-1.21.13-1.8.06-.93.13-1.83.19-2.71,0-.21,0-.42.05-.63,0-.42.06-.84.08-1.24,0-.21,0-.41.05-.61v-.08c.06-.79.11-1.55.17-2.3v-.11c0-.55.08-1.08.12-1.6l0-.51c0-.3.05-.59.06-.88s0-.47.05-.7c.12-1.62.22-3.11.32-4.43,0-.19,0-.38,0-.57s0-.37,0-.55c0-.35.05-.69.07-1,.17-2.34.28-4.05.35-5.06l0-.29v-.08c0-.09,0-.18,0-.25l0-.43Z"/><path class="cls-7" d="M438.6,313.76q-.86,2.43-1.8,4.83a150.35,150.35,0,0,1-10.6,21.72h0q-3.65,6.19-7.89,12.06a160.9,160.9,0,0,1-21.65,24.34c0-.6.09-1.21.14-1.81.06-.94.13-1.87.19-2.79q.22-3.06.43-6c.06-.76.11-1.52.16-2.27.35-4.87.68-9.49,1-13.82.09-1.25.17-2.47.26-3.67,0-.35.05-.71.07-1.06.06-.7.1-1.4.15-2.09s.09-1.24.13-1.85c0-.07,0-.13,0-.19,0-.62.08-1.23.13-1.84.07-1,.14-2,.21-3,0-.61.09-1.21.13-1.8.06-.93.13-1.83.19-2.71,0-.21,0-.42.05-.63,0-.42.06-.84.08-1.24,0-.21,0-.41.05-.61v-.08c.06-.79.11-1.55.17-2.3v-.11c0-.55.08-1.08.12-1.6l0-.51c0-.3.05-.59.06-.88s0-.47.05-.7c.12-1.62.22-3.11.32-4.43,0-.19,0-.38,0-.57s0-.37,0-.55c0-.35.05-.69.07-1,.17-2.34.28-4.05.35-5.06l0-.29v-.08c0-.09,0-.18,0-.25l0-.43Z"/><path class="cls-8" d="M444.59,239.85a144.45,144.45,0,0,1-6,73.91q-.86,2.43-1.8,4.83a150.35,150.35,0,0,1-10.6,21.72h0q-3.65,6.19-7.89,12.06c-8.09-1.17-14.67-2.13-18.73-2.23a4.73,4.73,0,0,1-1-.14,5.32,5.32,0,0,1-2.41-1.3c-.8-.7,0-38.07,2.42-85.14.08-1.82.15-3.81.38-5.62l0-.66c.15-3.11.32-6.25.49-9.41.1-1.83.21-3.66.32-5.5.76-12.55,1.7-25.39,2.73-38.2.1-1.23.19-2.46.29-3.68,1.62-19.71,3.52-39.08,5.76-56.41a256.59,256.59,0,0,1,29.41,67C440.63,220.44,442.84,230.05,444.59,239.85Z"/><path class="cls-9" d="M105.81,309.39c-.45-13.17-1.12-28.87-2-45.82-.07-1.82-.15-3.81-.38-5.62l0-.66c-.07-1.5-.14-3-.22-4.53,0-.86-.09-1.72-.14-2.58q-.2-3.87-.44-7.8c-.76-12.55-1.71-25.39-2.72-38.2-.11-1.23-.21-2.46-.31-3.68-1.49-18.26-3.23-36.23-5.27-52.55h0l0-.27c-.26-2-.52-4.09-.79-6.09-.53-4-1.08-7.93-1.66-11.7-.78,1.29-1.56,2.59-2.32,3.89Q82.75,145.32,76.91,158a387.22,387.22,0,0,0-20.34,55.22c0,.12-.07.24-.1.37a119.67,119.67,0,0,0-3.86,18.88h0c-.11.88-.2,1.77-.29,2.65h0c-2.71,28.09,5.29,54.38,20.49,77.87.52.81,1.06,1.61,1.6,2.42,1.07,1.59,2.18,3.18,3.32,4.75.81,1.11,1.63,2.21,2.47,3.31l.53.69a193.28,193.28,0,0,0,19.49,21.52c1.16,1.11,2.33,2.2,3.52,3.29l.89.81a5.86,5.86,0,0,0,1.6-1C106.74,348.26,106.62,332.8,105.81,309.39Z"/><path class="cls-10" d="M105.81,309.39C84.65,287.21,67,260,52.61,232.44h0a119.67,119.67,0,0,1,3.86-18.88c0-.13.07-.25.1-.37A387.22,387.22,0,0,1,76.91,158c13,18.57,22.1,35.66,22.66,42.54.1,1.22.2,2.45.31,3.68,1,12.81,2,25.65,2.72,38.2q.24,3.93.44,7.8c0,.86.1,1.72.14,2.58.08,1.52.15,3,.22,4.53l0,.66c.23,1.81.31,3.8.38,5.62C104.69,280.52,105.36,296.22,105.81,309.39Z"/><path class="cls-11" d="M201.93,274.1s28.16,0,32.6,1.37S253.2,287,253.12,288.35s-1.07,2.19-3.84,1.75-11.46-3.65-11.14-2.44,25,12.22,24.06,17.48-17.27,11.66-29.37,9.57-32.39-21.37-34.36-22C181.73,287.28,201.93,274.1,201.93,274.1Z"/><path class="cls-9" d="M207,283.71a33.15,33.15,0,0,1-8.14,9.21,22.25,22.25,0,0,1-2.23,1.57s-54.2-20.29-93.48-41.73c-13-7.09-24.34-14.3-31.57-20.95-3.27-3-8.57-9.71-15-18.63A387.22,387.22,0,0,1,76.91,158q5.85-12.63,12.59-24.19c1.57,4.67,3.18,9.44,4.8,14.17h0c8.61,25.1,17.43,49.17,20.57,52.17,6.82,6.53,93.35,70.62,93.35,70.62a6.06,6.06,0,0,1,1.42,3.42C209.92,276.27,209.53,279.42,207,283.71Z"/><rect class="cls-12" x="165.84" y="84.57" width="147.77" height="134.03"/><rect class="cls-13" x="165.84" y="76.53" width="147.77" height="8.04"/><path class="cls-12" d="M170.8,78.94a1.61,1.61,0,1,0,1.61,1.61A1.61,1.61,0,0,0,170.8,78.94Z"/><path class="cls-12" d="M177.09,78.94a1.61,1.61,0,1,0,1.61,1.61A1.61,1.61,0,0,0,177.09,78.94Z"/><path class="cls-12" d="M183.44,78.94a1.61,1.61,0,1,0,1.61,1.61A1.61,1.61,0,0,0,183.44,78.94Z"/><path class="cls-14" d="M210.22,102h56.45a2.69,2.69,0,0,0,2.68-2.68h0a2.69,2.69,0,0,0-2.68-2.68H210.22a2.69,2.69,0,0,0-2.68,2.68h0A2.69,2.69,0,0,0,210.22,102Z"/><path class="cls-14" d="M197.35,111.23h82.18a2.68,2.68,0,1,0,0-5.36H197.35a2.68,2.68,0,0,0,0,5.36Z"/><path class="cls-14" d="M190.41,135.44h99a2,2,0,1,0,0-3.93h-99a2,2,0,1,0,0,3.93Z"/><path class="cls-14" d="M190.41,140.57h99a2,2,0,0,1,2,2v0a2,2,0,0,1-2,2h-99a2,2,0,0,1-2-2v0a2,2,0,0,1,2-2Z"/><path class="cls-14" d="M289.45,149.64h-99a2,2,0,1,0,0,3.93h99a2,2,0,1,0,0-3.93Z"/><path class="cls-14" d="M200.35,182.6h-9.94a2,2,0,1,0,0,3.93h9.94a2,2,0,1,0,0-3.93Z"/><path class="cls-14" d="M217,182.6H207a2,2,0,0,0,0,3.93H217a2,2,0,0,0,0-3.93Z"/><path class="cls-14" d="M272.84,182.6h-9.95a2,2,0,0,0,0,3.93h9.95a2,2,0,0,0,0-3.93Z"/><path class="cls-14" d="M289.45,182.6h-9.94a2,2,0,1,0,0,3.93h9.94a2,2,0,1,0,0-3.93Z"/><path class="cls-14" d="M203.11,188.92a10.48,10.48,0,1,0,10.47,10.48A10.49,10.49,0,0,0,203.11,188.92Zm0,20.42a9.95,9.95,0,1,1,9.94-9.94A10,10,0,0,1,203.11,209.34Z"/><path class="cls-14" d="M203.11,191a8.44,8.44,0,1,0,8.44,8.44A8.45,8.45,0,0,0,203.11,191Zm0,16.35A7.92,7.92,0,1,1,211,199.4,7.92,7.92,0,0,1,203.11,207.31Z"/><path class="cls-14" d="M200.24,202.85c-1.13-.09-1.71-.62-1.73-1.57a2.43,2.43,0,0,1,.79-1.89,2.86,2.86,0,0,0,1.43,2.22.88.88,0,0,0,1-.35,6.39,6.39,0,0,0,.76-1.24.67.67,0,0,0,.42.18c.39,0,.78-.29,1.12-.9a4,4,0,0,0,.25-.51.47.47,0,0,0,.09.06.33.33,0,0,0,.38,0,3.41,3.41,0,0,0,.65-1,.44.44,0,0,0,.18.2.39.39,0,0,0,.48-.1.24.24,0,0,0,.06-.31c-.06-.11-.24-.18-.51-.23h0a3.06,3.06,0,0,0,.38-1.63.24.24,0,0,0-.26-.16c-.19,0-.33.21-.41.59a3.58,3.58,0,0,0-.05,1.15h0c-.19,0-.42,0-.66,0a.68.68,0,0,0-.1-.4.24.24,0,0,0-.26-.14c-.15,0-.2.21-.23.37s0,.12,0,.2a12.14,12.14,0,0,0-2.14.37,7,7,0,0,0-2.28,1c0-.33,0-.74.24-.89s.77,0,.94.14l.16-.28s-.77-.45-1.27-.14c-.31.2-.45.61-.4,1.23,0,.06,0,.12,0,.18a2.83,2.83,0,0,0-1.06,2.29c0,1.11.75,1.78,2,1.89a8.27,8.27,0,0,0,3-.47c2.43-.79,4.7-2.48,5.15-4C207.72,200.62,203,203.08,200.24,202.85Zm5.43-6.79a2,2,0,0,1-.08.34A1.71,1.71,0,0,1,205.67,196.06Zm-1.1,1.61h.52a3,3,0,0,1-.58.89s0,0-.1-.18A4,4,0,0,0,204.57,197.67Zm-1.77.19a10.86,10.86,0,0,1,1.17-.16,2.85,2.85,0,0,0,.1.67,4.75,4.75,0,0,1-.34.77c-.28.48-.57.74-.82.73a.36.36,0,0,1-.29-.2A2.5,2.5,0,0,0,202.8,197.86Zm-.32.1a1.67,1.67,0,0,1,0,1.23A2.35,2.35,0,0,1,202.48,198Zm-1.92.58a8.73,8.73,0,0,1,1.56-.54,3,3,0,0,0,0,1.27,2.08,2.08,0,0,0,.13.42,5.56,5.56,0,0,1-.79,1.36.57.57,0,0,1-.63.24,2.69,2.69,0,0,1-1.24-2.16A5.54,5.54,0,0,1,200.56,198.54Z"/><path class="cls-14" d="M208.37,198.7a1.33,1.33,0,0,0,0-.19A1.33,1.33,0,0,1,208.37,198.7Z"/><path class="cls-14" d="M275.89,189.2a10.73,10.73,0,1,0,10.73,10.73A10.74,10.74,0,0,0,275.89,189.2Zm0,20.92a10.19,10.19,0,1,1,10.19-10.19A10.2,10.2,0,0,1,275.89,210.12Z"/><path class="cls-14" d="M275.89,191.28a8.65,8.65,0,1,0,8.64,8.65A8.66,8.66,0,0,0,275.89,191.28Zm0,16.75a8.1,8.1,0,1,1,8.1-8.1A8.11,8.11,0,0,1,275.89,208Z"/><path class="cls-14" d="M281.28,199.22a1.52,1.52,0,0,0,.06-.2Z"/><path class="cls-14" d="M273,203.47c-1.15-.1-1.75-.64-1.77-1.61a2.53,2.53,0,0,1,.81-1.94,2.91,2.91,0,0,0,1.47,2.27.91.91,0,0,0,1-.35,6.47,6.47,0,0,0,.77-1.28.61.61,0,0,0,.43.19c.4,0,.8-.3,1.15-.92a5.23,5.23,0,0,0,.26-.53.27.27,0,0,0,.08.07.33.33,0,0,0,.39-.06,3.46,3.46,0,0,0,.67-1,.44.44,0,0,0,.18.2.4.4,0,0,0,.49-.1.25.25,0,0,0,.07-.32c-.06-.11-.25-.19-.53-.23h0a3.1,3.1,0,0,0,.39-1.66.25.25,0,0,0-.26-.17c-.2,0-.34.22-.42.61a3.67,3.67,0,0,0-.06,1.17v0c-.2,0-.43,0-.67,0a.8.8,0,0,0-.11-.41.26.26,0,0,0-.27-.14c-.15,0-.21.22-.23.38a1.25,1.25,0,0,0,0,.21,11.9,11.9,0,0,0-2.2.37,7.15,7.15,0,0,0-2.34,1.05c0-.34,0-.76.25-.91s.79,0,1,.14l.17-.29s-.79-.46-1.3-.14c-.32.2-.46.62-.41,1.26,0,.06,0,.13,0,.19a2.92,2.92,0,0,0-1.09,2.34c0,1.14.77,1.82,2.08,1.93a8,8,0,0,0,3.08-.48c2.5-.81,4.82-2.53,5.28-4.1C280.62,201.18,275.76,203.7,273,203.47Zm5.57-7c0,.09,0,.21-.08.35A2,2,0,0,1,278.52,196.51Zm-1.13,1.65h.54a3.38,3.38,0,0,1-.6.91s-.05,0-.1-.19A5.35,5.35,0,0,0,277.39,198.16Zm-1.81.19c.42-.07.83-.12,1.2-.15a3.84,3.84,0,0,0,.09.68,4.48,4.48,0,0,1-.34.79c-.28.49-.59.76-.85.75a.39.39,0,0,1-.29-.2A2.56,2.56,0,0,0,275.58,198.35Zm-.33.1a1.69,1.69,0,0,1-.05,1.27A2.6,2.6,0,0,1,275.25,198.45Zm-2,.61a8.56,8.56,0,0,1,1.59-.56,3,3,0,0,0,0,1.3,1.89,1.89,0,0,0,.14.44,6,6,0,0,1-.82,1.38.56.56,0,0,1-.64.25,2.75,2.75,0,0,1-1.27-2.21A5,5,0,0,1,273.29,199.06Z"/><path class="cls-15" d="M326.6,323.31l-12.86,17.35-1.26,1.71-.62.82-1.58,2.14-.86,1.16-1.59,2.14-1.67,2.25L304.6,353l0,0h0l-1.47,2v0l-.22.29,0,0h0l-.28.37h0l-1.58,2v.17l-1.48,2h0l-1.91,2.58h0l-1.45,1.94h0l-1.58,2.13h0l-2.65,3.57h0l-.26.35-.9,1.21h0l-2.08,2.8L285.92,378v.17l-1.43,1.93-.15.2h0l-2,2.69h0l-1.85,2.5,0,0h0l-4.59,6.2h0L269,401l-11.46,15.45-1.42,1.92-.84,1.13,1.31.19h0c1.52.2,3,.39,4.55.55l1.28.14.8.08,1.93.17.81.07.37,0,1.28.09.25,0c.93.07,1.87.13,2.8.18l1.28.07,1,.05h.19l1.65.07,1.28,0,1.45,0,1.28,0h6.35l.51,0c3.31-.09,6.59-.26,9.85-.54h0q5.63-.46,11.14-1.28,6-.89,11.78-2.17l.19,0a.09.09,0,0,1,0,.05l3.64-.9,1.52-.37q7.19-1.83,14.09-4.23l2.31-.82.57-.21c1.43-.52,2.85-1.06,4.26-1.63l1.15-.45h0l.23-.09h0l1.34-.55,1-.43,1.17-.5.75-.33h0l1.31-.58h0q6.42-2.88,12.51-6.26l1.28-.72h0L388.19,369Z"/><path class="cls-16" d="M292.76,385.53v1.79l1.3-1.76,0,0h-1.32Zm-2.45,2.36a9.15,9.15,0,0,0-1.33.65l-2.86,3.85-2.19,2.95v3.88l2.59-3.49,6.23-8.41A7.44,7.44,0,0,0,290.31,387.89ZM279.75,401l-.32.44-1.25,1.68-5.63,7.6v3.87l4-5.36,3.18-4.3,1.67-2.25,1.24-1.67h-2.87Zm47.59-64.2L314,354.85l-.12.16L313,356.1l-1,1.4-.55.72v0L309,361.59l-1,1.22V363l-.67.91-.91,1.22-3.7,5h0l-.08.11-.18.25h0l-1.18,1.59v.16l-3.51,4.57-1.36,1.84-.23.3L292.33,384l-1.12,1.52,0,0-2.21,3-2.86,3.85-2.19,2.95-1.58,2.14-2.6,3.5-.32.44-1.25,1.68-5.63,7.6L271,412.83l-2.68,3.6-3.09,4.18.81.07.37,0,1.28.09.25,0,3.25-4.39h0l1.38-1.87,4-5.36,3.18-4.3,1.67-2.25,1.24-1.67h0l1.3-1.76,2.59-3.49,6.23-8.41h0l1.3-1.76,0,0h0l2-2.56v-.17l1.58-2.13L299,379l2.25-3,1.58-2.13,1.79-2.41.68-.92.26-.35h0l.82-1.11,1.59-2.13,1.67-2.26,1.68-2.26.16-.22h0L313,360l1.21-1.64.57-.75v0l1.46-2,.12-.16.32-.43,6.1-8.24A8.43,8.43,0,0,1,334.59,345l31.18,23.11a9.28,9.28,0,0,1,1.93,13l-18.82,25.38-1.1,1.5,1-.43,1.17-.5.75-.33h0l1.31-.58h0l24.44-33ZM279.75,401l-.32.44-1.25,1.68-5.63,7.6v3.87l4-5.36,3.18-4.3,1.67-2.25,1.24-1.67h-2.87Zm10.56-13.09a9.15,9.15,0,0,0-1.33.65l-2.86,3.85-2.19,2.95v3.88l2.59-3.49,6.23-8.41A7.44,7.44,0,0,0,290.31,387.89Zm2.45-2.36v1.79l1.3-1.76,0,0h-1.32Z"/><path class="cls-16" d="M318.67,417.25a.09.09,0,0,0,0-.05l-.19,0q-5.82,1.29-11.78,2.17-5.52.81-11.14,1.28h0c-3.26.28-6.54.45-9.85.54l-.51,0h-.54c0-.48,0-1,0-1.44a19.27,19.27,0,0,1,.35-3.37,18.9,18.9,0,0,1,3.39-7.71l0-.06a20.23,20.23,0,0,1,2.81-3,18,18,0,0,1,1.58-1.22,19.11,19.11,0,0,1,4.84-2.43c.52-.17,1.05-.32,1.58-.45a18.49,18.49,0,0,1,3.77-.51c.53,0,1.06,0,1.58,0a19.12,19.12,0,0,1,3.52.49c.53.13,1.05.28,1.58.45s1.2.44,1.78.7,1.06.51,1.58.8a17.22,17.22,0,0,1,1.66,1.06l.3.22c.42.31.83.63,1.21,1h0s.05,0,.08.06c.3.26.58.53.86.81a20.5,20.5,0,0,1,1.58,1.78v0c.22.27.42.55.61.83v0A18,18,0,0,1,320.9,412v0c.21.44.39.89.57,1.35h0a18.35,18.35,0,0,1,.84,3Z"/><path class="cls-17" d="M302.57,355.72h0l-1.58,2v.15l-1.48,2-1.91,2.58h0l-1.45,1.94h0l-1.58,2.13h0l-2.65,3.57h0l-.26.35-.9,1.21h0l-2.08,2.8-2.76,3.58v.15l-1.43,1.93-.15.2h0l-2,2.69-1.85,2.5,0,0h0l-4.59,6.2h0L269,401l-11.46,15.45-1.42,1.92-.84,1.13,1.31.19h0c1.52.2,3,.39,4.55.55l1.28.14.8.08,1.93.17.81.07.37,0,1.28.09.25,0c.93.07,1.87.13,2.8.18l1.28.07,1,.05h.19c.33-1.55.7-3.11,1.13-4.69.64-2.39,1.38-4.81,2.21-7.23q.95-2.81,2-5.59c.28-.73.57-1.47.87-2.2.06-.15.12-.29.17-.44h0c.87-2.16,1.79-4.31,2.74-6.43v-.14c.52-1.16,1-2.17,1.59-3.31q1.32-2.84,2.67-5.55l0,0c1.22-2.46,2.44-4.84,3.65-7.12.16-.3.32-.49.48-.75v-.14c.53-1,1.06-2,1.58-2.95.77-1.43,1.53-2.8,2.26-4.12l.2-.35c.46-.83.91-1.5,1.35-2.27v-.15l2.92-5.16q.8-1.39,1.44-2.58l.48-.87c.7-1.27,1.24-2.3,1.58-3.06.12-.25.21-.47.28-.66Z"/><path class="cls-18" d="M321.48,404.37v8.74c0,.09,0,.17,0,.26h0a3.32,3.32,0,0,1-.57,1.61,3.27,3.27,0,0,1-1.58,1.26,2.33,2.33,0,0,1-.47.14l-.15,0-.29,0H238.57c-1.78-.38-3.57-.79-5.36-1.21l-1.28-.32c-1.19-.28-2.38-.58-3.58-.88l-1.57-.41c-.91-.23-1.81-.47-2.71-.72l-2.94-.81-1.28-.36c-2.42-.69-4.85-1.42-7.27-2.18h0l-.28-.08-2.19-.7-1.28-.41c-6.83-2.23-13.63-4.7-20.35-7.41h1.94l36.36,0h91.49l.45.05a3.28,3.28,0,0,1,.61.18,3.35,3.35,0,0,1,2.15,3.13Z"/><path class="cls-19" d="M253.18,416.42H238.57c-1.78-.38-3.57-.79-5.36-1.21l-1.28-.32c-1.19-.28-2.38-.58-3.58-.88l-1.57-.41c-.91-.23-1.81-.47-2.71-.72l-2.94-.81-1.28-.36c-2.42-.69-4.85-1.42-7.27-2.18h0l-.28-.08-2.19-.7-1.28-.41c-6.83-2.23-13.63-4.7-20.35-7.41h1.94l36.36,0h17.27a31.39,31.39,0,0,0,2.67,7.4,25.29,25.29,0,0,0,5.46,7.2l.45.4.1.08Z"/><rect class="cls-19" x="302.98" y="401" width="1.58" height="15.46"/><rect class="cls-19" x="297.63" y="401" width="1.58" height="15.46"/><rect class="cls-19" x="291.21" y="400.99" width="1.58" height="15.46" transform="translate(0.42 -0.3) rotate(0.06)"/><rect class="cls-19" x="281.38" y="400.98" width="1.58" height="15.46"/><rect class="cls-19" x="270.98" y="400.98" width="1.58" height="15.46"/><rect class="cls-19" x="255.03" y="400.97" width="1.58" height="15.46"/><rect class="cls-19" x="240.11" y="400.96" width="1.58" height="15.46"/><path class="cls-19" d="M228.37,401l0,13.05-1.57-.41V401Z"/><rect class="cls-19" x="308.07" y="401" width="1.58" height="15.46"/><rect class="cls-19" x="311.43" y="401.01" width="1.58" height="15.46"/><rect class="cls-19" x="314.68" y="401.01" width="1.58" height="15.46" transform="translate(0.42 -0.33) rotate(0.06)"/><path class="cls-19" d="M318.71,401.06v15.36a3.81,3.81,0,0,1-.59.05h-1V401h1A3.81,3.81,0,0,1,318.71,401.06Z"/><path class="cls-19" d="M320.91,402.5V415a3.38,3.38,0,0,1-1.58,1.26v-15A3.43,3.43,0,0,1,320.91,402.5Z"/><path class="cls-18" d="M332.86,388.92v8.73a3.29,3.29,0,0,1-.58,1.88,3.33,3.33,0,0,1-1.58,1.26,2.51,2.51,0,0,1-.61.17,3,3,0,0,1-.59.06l-139.07-.1a3.37,3.37,0,0,1-3.36-3.19c0-.06,0-.12,0-.18v-8.9a3.4,3.4,0,0,1,3-3.17l.4,0,139.07.1a2.88,2.88,0,0,1,.59.05,3.91,3.91,0,0,1,.61.17,3.39,3.39,0,0,1,1.58,1.26A3.32,3.32,0,0,1,332.86,388.92Z"/><path class="cls-19" d="M264.56,401l-74.5-.05a3.19,3.19,0,0,1-3-3.19c0-.06,0-.12,0-.18v-8.9a3.27,3.27,0,0,1,2.65-3.17l.36,0,65.35.05v0A27.66,27.66,0,0,0,264.56,401Z"/><rect class="cls-19" x="314.35" y="385.55" width="1.58" height="15.46"/><rect class="cls-19" x="309" y="385.54" width="1.58" height="15.46"/><rect class="cls-19" x="302.59" y="385.54" width="1.58" height="15.46"/><rect class="cls-19" x="292.75" y="385.53" width="1.58" height="15.46"/><rect class="cls-19" x="282.35" y="385.52" width="1.58" height="15.46"/><rect class="cls-19" x="266.41" y="385.51" width="1.58" height="15.46"/><rect class="cls-19" x="251.48" y="385.5" width="1.58" height="15.46"/><rect class="cls-19" x="238.15" y="385.49" width="1.58" height="15.46"/><rect class="cls-19" x="319.45" y="385.55" width="1.58" height="15.46"/><rect class="cls-19" x="322.81" y="385.55" width="1.58" height="15.46"/><rect class="cls-19" x="326.06" y="385.55" width="1.58" height="15.46"/><path class="cls-19" d="M330.09,385.61V401a2.88,2.88,0,0,1-.59.06h-1V385.56h1A2.88,2.88,0,0,1,330.09,385.61Z"/><path class="cls-19" d="M332.28,387v12.49a3.4,3.4,0,0,1-1.59,1.26l0-15A3.42,3.42,0,0,1,332.28,387Z"/><path class="cls-18" d="M314.61,373.47v8.74a3.33,3.33,0,0,1-.57,1.87,3.43,3.43,0,0,1-1.58,1.26,2.72,2.72,0,0,1-.62.17.63.63,0,0,1-.19,0l-.16,0h-.24l-139.07-.1a3.38,3.38,0,0,1-3.36-3.19v-8.91c0-.05,0-.11,0-.17a3.38,3.38,0,0,1,3.36-3.19l139.07.1h.18l.41.05a3.38,3.38,0,0,1,.62.18,1.51,1.51,0,0,1,.29.13l.17.09h0l.17.11h0l.15.11a2.35,2.35,0,0,1,.33.3.47.47,0,0,1,.1.1h0a.2.2,0,0,1,.06.07h0l.1.12.14.19A3.33,3.33,0,0,1,314.61,373.47Z"/><path class="cls-19" d="M246.31,385.52l-74.5,0a3.19,3.19,0,0,1-3-3.19v-8.91c0-.05,0-.11,0-.17a3.19,3.19,0,0,1,3-3.19l65.35.05.09.35a27.59,27.59,0,0,0,9,15.09Z"/><rect class="cls-19" x="296.11" y="370.1" width="1.58" height="15.46"/><rect class="cls-19" x="290.76" y="370.09" width="1.58" height="15.46"/><rect class="cls-19" x="284.34" y="370.09" width="1.58" height="15.46"/><rect class="cls-19" x="274.5" y="370.08" width="1.58" height="15.46"/><rect class="cls-19" x="264.11" y="370.08" width="1.58" height="15.46"/><rect class="cls-19" x="248.16" y="370.07" width="1.58" height="15.46"/><rect class="cls-19" x="233.24" y="370.06" width="1.58" height="15.46"/><rect class="cls-19" x="219.91" y="370.05" width="1.58" height="15.46" transform="translate(0.39 -0.23) rotate(0.06)"/><rect class="cls-19" x="301.2" y="370.1" width="1.58" height="15.46"/><rect class="cls-19" x="304.56" y="370.1" width="1.58" height="15.46"/><rect class="cls-19" x="307.81" y="370.11" width="1.58" height="15.46"/><path class="cls-19" d="M311.84,370.16v15.35a2.88,2.88,0,0,1-.59.06h-1V370.11h1A3.81,3.81,0,0,1,311.84,370.16Z"/><path class="cls-19" d="M314,371.6v12.48a3.43,3.43,0,0,1-1.58,1.26v-15A3.37,3.37,0,0,1,314,371.6Z"/><path class="cls-18" d="M324.85,358.38v8.73a3.32,3.32,0,0,1-.58,1.88,3.39,3.39,0,0,1-1.58,1.26,4.24,4.24,0,0,1-.61.17,3.94,3.94,0,0,1-.6.05l-139.07-.09a3.32,3.32,0,0,1-1.5-.36,3.39,3.39,0,0,1-1.85-2.7v-.14a1,1,0,0,1,0-.17v-8.9a3.39,3.39,0,0,1,3-3.17,2.55,2.55,0,0,1,.39,0l139.07.09a3,3,0,0,1,.6.06,2.51,2.51,0,0,1,.61.17,3.33,3.33,0,0,1,1.58,1.26A3.37,3.37,0,0,1,324.85,358.38Z"/><path class="cls-19" d="M256.55,370.43,182,370.38a2.72,2.72,0,0,1-1.34-.36,3.42,3.42,0,0,1-1.65-2.7v-.14a1,1,0,0,1,0-.17v-8.9a3.25,3.25,0,0,1,2.65-3.17,2,2,0,0,1,.35,0l65.36,0v0a27.84,27.84,0,0,0,8.71,15.09Z"/><rect class="cls-19" x="306.34" y="355" width="1.58" height="15.46"/><rect class="cls-19" x="300.99" y="355" width="1.58" height="15.46"/><rect class="cls-19" x="294.57" y="354.99" width="1.58" height="15.46"/><rect class="cls-19" x="284.74" y="354.99" width="1.58" height="15.46"/><rect class="cls-19" x="274.34" y="354.98" width="1.58" height="15.46"/><rect class="cls-19" x="258.4" y="354.97" width="1.58" height="15.46"/><rect class="cls-19" x="243.47" y="354.96" width="1.58" height="15.46"/><rect class="cls-19" x="230.14" y="354.95" width="1.58" height="15.46"/><rect class="cls-19" x="311.43" y="355" width="1.58" height="15.46"/><rect class="cls-19" x="314.8" y="355.01" width="1.58" height="15.46"/><rect class="cls-19" x="318.05" y="355.01" width="1.58" height="15.46"/><path class="cls-19" d="M322.08,355.06v15.36a3.94,3.94,0,0,1-.6.05h-1V355h1A3.94,3.94,0,0,1,322.08,355.06Z"/><path class="cls-19" d="M324.27,356.5V369a3.31,3.31,0,0,1-1.58,1.25v-15A3.33,3.33,0,0,1,324.27,356.5Z"/><path class="cls-18" d="M314.63,342.94v8.73a3.34,3.34,0,0,1-.58,1.87,3.43,3.43,0,0,1-1.58,1.26,2.72,2.72,0,0,1-.62.17.63.63,0,0,1-.19,0l-.11,0h-.29l-139.07-.1a3.38,3.38,0,0,1-3.36-3.19v-8.9c0-.06,0-.12,0-.18a3.38,3.38,0,0,1,3.36-3.19l139.07.1a3.81,3.81,0,0,1,.59.05,3.38,3.38,0,0,1,.62.18,3.43,3.43,0,0,1,1.58,1.26A3.34,3.34,0,0,1,314.63,342.94Z"/><path class="cls-19" d="M246.33,355l-74.5-.05a3.19,3.19,0,0,1-3-3.19v-8.9c0-.06,0-.12,0-.18a3.19,3.19,0,0,1,3-3.19l65.35,0A27.73,27.73,0,0,0,246.3,355Z"/><rect class="cls-19" x="296.13" y="339.56" width="1.58" height="15.46" transform="translate(0.36 -0.31) rotate(0.06)"/><rect class="cls-19" x="290.78" y="339.55" width="1.58" height="15.46"/><rect class="cls-19" x="284.36" y="339.55" width="1.58" height="15.46"/><rect class="cls-19" x="274.53" y="339.54" width="1.58" height="15.46"/><rect class="cls-19" x="264.13" y="339.54" width="1.58" height="15.46"/><rect class="cls-19" x="248.18" y="339.53" width="1.58" height="15.46"/><rect class="cls-19" x="233.26" y="339.52" width="1.58" height="15.46"/><rect class="cls-19" x="219.93" y="339.51" width="1.58" height="15.46"/><rect class="cls-19" x="301.22" y="339.56" width="1.58" height="15.46"/><rect class="cls-19" x="304.58" y="339.56" width="1.58" height="15.46"/><rect class="cls-19" x="307.83" y="339.57" width="1.58" height="15.46"/><path class="cls-19" d="M311.86,339.62V355a2.88,2.88,0,0,1-.59.06h-1V339.57h1A3.81,3.81,0,0,1,311.86,339.62Z"/><path class="cls-19" d="M314.06,341.06v12.48a3.43,3.43,0,0,1-1.58,1.26v-15A3.43,3.43,0,0,1,314.06,341.06Z"/><path class="cls-20" d="M333.43,413.24q-4.74,1.51-9.6,2.74l-1.52.37c-1.2.3-2.41.58-3.63.85l-.19,0q-5.82,1.29-11.78,2.17-5.52.81-11.14,1.28h0c-3.26.28-6.54.45-9.85.54l-.51,0h-6.35l-1.28,0-1.45,0-1.28,0-1.65-.07H273l-1-.05-1.28-.07c-.93-.05-1.87-.11-2.8-.18l-.25,0-1.28-.09-.37,0-.81-.07-1.93-.17-.8-.08-1.28-.14c-1.51-.16-3-.35-4.55-.55h0l-1.31-.19-.44-.06-.36-.05-.9-.13-.25,0h-.13c-1.13-.17-2.27-.36-3.41-.55l-1.19-.21-1.19-.22-1.34-.25-1.28-.24c-2.08-.41-4.17-.84-6.25-1.29h0c-1.78-.38-3.57-.79-5.36-1.21l-1.28-.32-.61-.15a49.38,49.38,0,0,1,25.38-47.49c.63-.34,1.27-.68,1.91-1s1.23-.74,1.86-1.09a49.38,49.38,0,0,1,73,48.08Z"/><path class="cls-20" d="M343,378.31a49.16,49.16,0,0,0-18.1-18.69l-.58-.33c-.52-.3-1-.59-1.58-.87l-.62-.32c-.52-.26-1-.52-1.58-.76-.28-.14-.57-.27-.86-.39-.52-.24-1.05-.46-1.58-.67s-1.11-.43-1.67-.63l-.12,0-1.46-.49-.33-.1h-.15a1.86,1.86,0,0,0-.37-.16l-1-.29-.5-.14-.62-.16c-.52-.13-1.05-.26-1.58-.37-.29-.06-.57-.13-.86-.18-.53-.11-1.05-.21-1.58-.29s-1.11-.18-1.67-.26L304.6,353h0c-.6-.06-1.19-.1-1.78-.14s-1.06-.06-1.59-.08c-1.16,0-2.34,0-3.51,0l-1.58.08c-1.26.09-2.51.23-3.77.43-.53.07-1.05.16-1.58.26a45.7,45.7,0,0,0-4.83,1.14c-.33.1-.65.19-1,.3h0l-.08,0-.15.05a49.58,49.58,0,0,0-8.82,3.79l0,0-1.55.89-.27.17a49,49,0,0,0-11.94,10.14q-.17.18-.3.36a49.18,49.18,0,0,0-8.62,15.07,0,0,0,0,0,0,0l-.13.36a48.08,48.08,0,0,0-1.58,5.6v.15a47,47,0,0,0-1.15,9.32h0a48.54,48.54,0,0,0,1.84,14.6c.08.29.17.57.25.86.29.93.6,1.86.94,2.78l.25,0,.9.13.36.05.44.06,1.31.19h0c1.52.2,3,.39,4.55.55l1.28.14.8.08,1.93.17.81.07.37,0,1.28.09.25,0c.93.07,1.87.13,2.8.18l1.28.07,1,.05h.19l1.65.07,1.28,0,1.45,0,1.28,0h6.35l.51,0c3.31-.09,6.59-.26,9.85-.54h0q5.63-.46,11.14-1.28,6-.89,11.78-2.17l.19,0a.09.09,0,0,1,0,.05l3.64-.9,1.52-.37q7.19-1.83,14.09-4.23l2.31-.82.57-.21c1.43-.52,2.85-1.06,4.26-1.63l1.15-.45h0l.23-.09h0l1.34-.55,1-.43c0-.35.08-.71.1-1.07A49.11,49.11,0,0,0,343,378.31Z"/><path class="cls-18" d="M339.18,380.38a49.27,49.27,0,0,0-14.34-16.22l-.57-.41c-.52-.36-1-.71-1.58-1.06l-.62-.39c-.52-.32-1.05-.64-1.58-.94l-.86-.48c-.52-.29-1.05-.56-1.58-.83s-1.11-.54-1.67-.79-1.05-.47-1.58-.69l-.57-.23c-.4-.16-.81-.32-1.21-.46l-1-.38-.54-.18q-1.74-.57-3.51-1l-1.59-.36c-1.14-.25-2.3-.46-3.46-.63l-.31,0-1.57-.19-.63-.06h-.15l-.12,0h-.31c-.67-.07-1.44-.12-2.09-.15s-1.05,0-1.58,0c-1.25,0-2.51,0-3.77.12l-.59.05h-.21l-.08,0h-.19a46.17,46.17,0,0,0-4.95.74c-.53.11-1.06.22-1.59.35a48.4,48.4,0,0,0-8.82,3c-.53.23-1.05.48-1.58.73l-.27.14c-.66.32-1.31.66-2,1a49.44,49.44,0,0,0-11.88,9.12l-.26.27-.08.09h0a49.28,49.28,0,0,0-9.66,15.07v0A49.55,49.55,0,0,0,246.66,401a48.13,48.13,0,0,0,.06,7.4,49.53,49.53,0,0,0,1.36,8.06c.17.67.36,1.34.56,2l1.19.21c1.14.19,2.28.38,3.41.55h.13l.25,0,.9.13.36.05.44.06,1.31.19h0c1.52.2,3,.39,4.55.55l1.28.14.8.08,1.93.17.81.07.37,0,1.28.09.25,0c.93.07,1.87.13,2.8.18l1.28.07,1,.05h.19l1.65.07,1.28,0,1.45,0,1.28,0h6.35l.51,0c3.31-.09,6.59-.26,9.85-.54h0q5.63-.46,11.14-1.28,6-.89,11.78-2.17l.19,0a.09.09,0,0,1,0,.05l3.64-.9,1.52-.37q7.19-1.83,14.09-4.23l2.31-.82.57-.21c1.43-.52,2.85-1.06,4.26-1.63A49.13,49.13,0,0,0,339.18,380.38Z"/><path class="cls-19" d="M335.61,383A44.46,44.46,0,0,0,324,369.33c-.43-.34-.86-.67-1.31-1l-.61-.43c-.52-.37-1.05-.73-1.58-1.06-.29-.19-.57-.37-.86-.54-.53-.32-1.05-.63-1.59-.92s-1.1-.6-1.66-.88-1.05-.51-1.59-.75-1.18-.52-1.78-.76-1.05-.41-1.58-.6l-.16-.06c-.77-.27-1.54-.52-2.32-.75l-1-.29c-.52-.15-1.05-.28-1.58-.4-1.24-.29-2.5-.53-3.77-.71-.52-.08-1.05-.14-1.58-.2l-.48-.05-1-.08h0c-1.11-.09-2.23-.13-3.35-.13l-1.59,0a43.86,43.86,0,0,0-8.25,1.06c-.53.12-1.06.24-1.58.39a44.86,44.86,0,0,0-8.82,3.35l-1.41.74-.17.1a44,44,0,0,0-6.85,4.68c-.15.11-.29.23-.43.35-.47.39-.92.8-1.37,1.21s-1.07,1-1.58,1.53a44.35,44.35,0,0,0-8.59,12.33,0,0,0,0,0,0,0,.54.54,0,0,0,0,.11,44.23,44.23,0,0,0-2.39,6.34v.09a.42.42,0,0,0-.07.12,41.6,41.6,0,0,0-1.52,7.32h0c0,.37-.08.75-.11,1.12-.11,1.28-.17,2.55-.17,3.81A44.48,44.48,0,0,0,252.63,416c0,.16.09.31.13.46.25.95.54,1.89.86,2.82l.9.13.36.05.44.06,1.31.19c-.16-.44-.32-.88-.47-1.32-.22-.63-.43-1.28-.61-1.92s-.36-1.13-.52-1.78v-.17a42.06,42.06,0,0,1-1-13.52,43.1,43.1,0,0,1,1.52-8c.32-1.11.68-2.2,1.09-3.26h0a40.41,40.41,0,0,1,1.82-4.15l0,0a41.12,41.12,0,0,1,5.6-8.38c.5-.59,1-1.17,1.58-1.73a40.39,40.39,0,0,1,5.71-5h0l.51-.36h0c.79-.55,1.56-1.08,2.39-1.57.49-.3,1-.58,1.47-.86l.12-.06a42.27,42.27,0,0,1,8.82-3.6c.52-.15,1.05-.29,1.58-.42a42.29,42.29,0,0,1,8.25-1.12c.53,0,1.05,0,1.57,0h0l1.44,0h0c.49,0,1,0,1.47.08s1.29.1,1.92.17,1.06.13,1.58.22c1.26.19,2.53.44,3.77.75l.91.23.67.19c.56.16,1.12.34,1.67.52s1.23.43,1.84.66,1.06.42,1.58.64,1.2.54,1.78.82,1.06.54,1.59.82,1.11.62,1.66.95,1.06.65,1.58,1c.29.19.58.38.86.58s.38.26.56.4h0a42.31,42.31,0,0,1,16.88,41.28l2.31-.82.57-.21A44.63,44.63,0,0,0,335.61,383Z"/><path class="cls-19" d="M294.92,420.11a11,11,0,0,1-2.2-3.57l-8.1,3.28c0,.48,0,1,0,1.44h.54l.51,0c3.31-.09,6.59-.26,9.85-.54A8.6,8.6,0,0,1,294.92,420.11Zm0,0a11,11,0,0,1-2.2-3.57l-8.1,3.28c0,.48,0,1,0,1.44h.54l.51,0c3.31-.09,6.59-.26,9.85-.54A8.6,8.6,0,0,1,294.92,420.11Zm0,0a11,11,0,0,1-2.2-3.57l-8.1,3.28c0,.48,0,1,0,1.44h.54l.51,0c3.31-.09,6.59-.26,9.85-.54A8.6,8.6,0,0,1,294.92,420.11Zm0,0a11,11,0,0,1-2.2-3.57l-8.1,3.28c0,.48,0,1,0,1.44h.54l.51,0c3.31-.09,6.59-.26,9.85-.54A8.6,8.6,0,0,1,294.92,420.11Zm0,0a11,11,0,0,1-2.2-3.57l-8.1,3.28c0,.48,0,1,0,1.44h.54l.51,0c3.31-.09,6.59-.26,9.85-.54A8.6,8.6,0,0,1,294.92,420.11Zm0,0a11,11,0,0,1-2.2-3.57l-8.1,3.28c0,.48,0,1,0,1.44h.54l.51,0c3.31-.09,6.59-.26,9.85-.54A8.6,8.6,0,0,1,294.92,420.11Zm23.79-8.77A16.92,16.92,0,0,0,318,409a18.17,18.17,0,0,0-.84-1.77,15.61,15.61,0,0,0-.86-1.39l-.08-.09h0a10.35,10.35,0,0,0-1.51-1.7v0a14.64,14.64,0,0,0-1.65-1.29,14.22,14.22,0,0,0-1.58-.88,14.08,14.08,0,0,0-1.49-.61l-.29-.1-.48-.15h0L309,401a23,23,0,0,0-4.84-.81l-.2,0-1.38-.07c-1.81-.07-3.75-.08-5.81,0-.89,0-1.7,0-2.44,0-.57,0-1.1-.05-1.58-.09h-.09a10.07,10.07,0,0,1-2.89-.63,5.2,5.2,0,0,1-1.93-1.31,7.17,7.17,0,0,1-1.23-2l-.09-.25a7.54,7.54,0,0,1-.46-2.13,4.89,4.89,0,0,1,.06-1.21,5.16,5.16,0,0,1,.29-1,5.47,5.47,0,0,1,1.38-1.95,6.56,6.56,0,0,1,1.19-.88,9.15,9.15,0,0,1,1.33-.65,7.44,7.44,0,0,1,2.44-.57h0a6.05,6.05,0,0,1,2.94.62q2.51,1.23,4.08,5.11l2.81-1.14,1.58-.64,4.84-2,.82-.33c-.25-.63-.53-1.24-.82-1.82V387c-.29-.54-.59-.92-.91-1.42,0,0,0,0,0,0l-.27-.42a18.84,18.84,0,0,0-1.26-1.62l-.41-.43h0a16.43,16.43,0,0,0-1.58-1.44,12.84,12.84,0,0,0-1.78-1.19,7.73,7.73,0,0,0-.69-.37c-.29-.14-.59-.28-.89-.4A15.85,15.85,0,0,0,299,379c-.42-.09-.84-.16-1.27-.22s-.66-.08-1-.1l-.36,0h-.23a17.27,17.27,0,0,0-3.76.27c-.53.09-1,.2-1.59.34l-.13,0-.34-.84-1.6-3.94-.91-2.23-1.85.75-1.58.64-2.14.87,2.14,5.26.15.37.52,1.29a7.12,7.12,0,0,0-.67.36,20.37,20.37,0,0,0-2,1.24h0a18.9,18.9,0,0,0-2.44,2l-.46.47,0,0a15.28,15.28,0,0,0-2.74,4,12.16,12.16,0,0,0-.79,2.21h0a12.48,12.48,0,0,0-.4,2.86,13.71,13.71,0,0,0,1.06,5.41c.14.33.28.65.43,1h0a14.32,14.32,0,0,0,1.21,2.12c.12.18.25.36.38.52a11,11,0,0,0,1.15,1.29l.14.13a12.62,12.62,0,0,0,1.53,1.2,14.42,14.42,0,0,0,1.58.91,13.37,13.37,0,0,0,1.6.65,20.35,20.35,0,0,0,3.84.88c.7.1,1.41.17,2.16.21l.65,0,1.58.05c1.53,0,3.14,0,4.83-.08h.15l1.44-.06c.91,0,1.74,0,2.48.08a9.58,9.58,0,0,1,1.28.19,8.74,8.74,0,0,1,1.59.45h0a5.65,5.65,0,0,1,2,1.37,7.58,7.58,0,0,1,1.35,2.24,1.73,1.73,0,0,0,.14.2v.16a6,6,0,0,1,.34,2,5.62,5.62,0,0,1-.08.92,5.13,5.13,0,0,1-.46,1.35,5.77,5.77,0,0,1-1.16,1.6q6-.89,11.78-2.17l.19,0a7.45,7.45,0,0,0,.17-.82,11.27,11.27,0,0,0,.19-1.86A12.47,12.47,0,0,0,318.71,411.34Zm-23.79,8.77a11,11,0,0,1-2.2-3.57l-8.1,3.28c0,.48,0,1,0,1.44h.54l.51,0c3.31-.09,6.59-.26,9.85-.54A8.6,8.6,0,0,1,294.92,420.11Zm0,0a11,11,0,0,1-2.2-3.57l-8.1,3.28c0,.48,0,1,0,1.44h.54l.51,0c3.31-.09,6.59-.26,9.85-.54A8.6,8.6,0,0,1,294.92,420.11Zm0,0a11,11,0,0,1-2.2-3.57l-8.1,3.28c0,.48,0,1,0,1.44h.54l.51,0c3.31-.09,6.59-.26,9.85-.54A8.6,8.6,0,0,1,294.92,420.11Zm0,0a11,11,0,0,1-2.2-3.57l-8.1,3.28c0,.48,0,1,0,1.44h.54l.51,0c3.31-.09,6.59-.26,9.85-.54A8.6,8.6,0,0,1,294.92,420.11Zm0,0a11,11,0,0,1-2.2-3.57l-8.1,3.28c0,.48,0,1,0,1.44h.54l.51,0c3.31-.09,6.59-.26,9.85-.54A8.6,8.6,0,0,1,294.92,420.11Zm0,0a11,11,0,0,1-2.2-3.57l-8.1,3.28c0,.48,0,1,0,1.44h.54l.51,0c3.31-.09,6.59-.26,9.85-.54A8.6,8.6,0,0,1,294.92,420.11Zm0,0a11,11,0,0,1-2.2-3.57l-8.1,3.28-2,.8c.1.22.19.45.29.67h2.25l.51,0c3.31-.09,6.59-.26,9.85-.54A8.6,8.6,0,0,1,294.92,420.11Z"/></g></svg>