<svg xmlns="http://www.w3.org/2000/svg" viewBox="0 0 499 467"><defs><style>.cls-1{isolation:isolate;}.cls-2{fill:#fc869c;}.cls-3{fill:#edecec;}.cls-4{fill:#ffa100;}.cls-5{fill:#ffc816;}.cls-15,.cls-16,.cls-6,.cls-7,.cls-8,.cls-9{fill:none;stroke:#ffc816;stroke-miterlimit:10;}.cls-6{stroke-width:1.25px;}.cls-7{stroke-width:0.45px;}.cls-8{stroke-width:0.87px;}.cls-9{stroke-width:0.31px;}.cls-10{fill:#1a5b7d;opacity:0.33;}.cls-10,.cls-11{mix-blend-mode:multiply;}.cls-11{fill:#dededf;}.cls-12{fill:#4e5759;}.cls-13{fill:#a7acac;}.cls-14{fill:#818787;}.cls-15{stroke-width:1.65px;}.cls-16{stroke-width:0.62px;}</style></defs><title>vectorss</title><g class="cls-1"><g id="Layer_1" data-name="Layer 1"><path class="cls-2" d="M410.1,370.85c-14.87,41.59-75,54.6-85.58,56.89-1.09.23-2.39.53-4.17.86-29.26,5.41-53.18-3.35-61.62-6.26-60-20.68-82-1.4-114.74-26.71-33.29-25.7-18.15-51.37-59.36-84.08C63.49,294.76,50.51,294.39,40.85,277c-14.94-26.9-2.9-60.11.67-69.76,26.6-71.94,129.71-129,196.37-102.73,56.84,22.44,51.57,91.48,111.53,105.39,40.55,9.41,75.22-21.89,95.16-2.46,13.58,13.25,9.38,38.34,8.75,42.13-5.1,30.43-29.43,33.11-40.17,65.35C404.24,341.66,418.16,348.31,410.1,370.85Z"/><path class="cls-3" d="M178,128s6.43-4.81,23.83.8,28.15,4,28.15,4,13.11-5.86,22.6.22,23.09.81,23.09.81-6.59,14.18-50,12.22S178,128,178,128Z"/><circle class="cls-4" cx="231.93" cy="123.5" r="25.29" transform="translate(-29.61 98.16) rotate(-22.5)"/><circle class="cls-4" cx="231.93" cy="123.5" r="21.83" transform="translate(72.87 332.66) rotate(-80.78)"/><path class="cls-5" d="M231.93,98.21a25.29,25.29,0,1,0,25.29,25.29A25.29,25.29,0,0,0,231.93,98.21Zm0,47.12a21.83,21.83,0,1,1,21.83-21.83A21.83,21.83,0,0,1,231.93,145.33Z"/><circle class="cls-6" cx="231.93" cy="123.5" r="18.75" transform="translate(72.87 332.66) rotate(-80.78)"/><circle class="cls-7" cx="231.93" cy="123.5" r="16.77" transform="translate(-29.61 98.16) rotate(-22.5)"/><path class="cls-5" d="M240,113.06H225.1l-1.18,1.87h5.48A3.11,3.11,0,0,1,232,117.5h-7.28l-1.18,2.33,9.29,0s-1.25,4.85-8.6,4l.07,2.22,8.53,10h4l-8.6-10.54s7.18.27,7.81-5.63h3.1l1.23-2.21h-4.3s-.28-2.43-1.53-3h4.37Z"/><path class="cls-4" d="M255.07,126.82h0l-.14-.11s0,0,0,.05l-.11-.13a.1.1,0,0,1,0,.05l-.07-.17a.17.17,0,0,1,0,.07l0-.18v0a.58.58,0,0,0,.06.26.52.52,0,0,0,.14.22.64.64,0,0,0,.22.14.58.58,0,0,0,.26.06l.18,0a.64.64,0,0,0,.3-.17l.11-.14a.69.69,0,0,0,.09-.34v0a1.52,1.52,0,0,0,0-.21v0l0-.09a.36.36,0,0,1,0-.09l0,0-.12-.16s0,0,0,0a1.09,1.09,0,0,0-.17-.13.53.53,0,0,0-.25-.08.62.62,0,0,0-.27,0,.58.58,0,0,0-.23.13.47.47,0,0,0-.18.19l-.07.16a.73.73,0,0,0,0,.36l.07.16a.6.6,0,0,0,.25.25Z"/><path class="cls-4" d="M254.18,131.62a.68.68,0,0,0,0-1.36.68.68,0,0,0,0,1.36Z"/><path class="cls-4" d="M252.44,136.22a.68.68,0,0,0,0-1.36.68.68,0,0,0,0,1.36Z"/><path class="cls-4" d="M250.06,139.81l.1-.11a.4.4,0,0,0,.14-.22.39.39,0,0,0,.06-.26.4.4,0,0,0-.06-.26.44.44,0,0,0-.14-.22l-.13-.11a.73.73,0,0,0-.35-.09l-.18,0a.75.75,0,0,0-.3.17l-.1.1a.44.44,0,0,0-.14.22.4.4,0,0,0-.06.26.42.42,0,0,0,.06.27.48.48,0,0,0,.14.22l.14.1a.67.67,0,0,0,.34.1l.18,0a.64.64,0,0,0,.3-.17Z"/><path class="cls-4" d="M245.9,143.48a.68.68,0,0,0,0-1.36.68.68,0,0,0,0,1.36Z"/><path class="cls-4" d="M240.88,146.25a.69.69,0,0,0,0-1.37.69.69,0,0,0,0,1.37Z"/><path class="cls-4" d="M235.46,147.68a.68.68,0,0,0,0-1.36.68.68,0,0,0,0,1.36Z"/><path class="cls-4" d="M229.6,147.58l.1-.1a.44.44,0,0,0,.14-.22.4.4,0,0,0,.06-.26.43.43,0,0,0-.06-.27.41.41,0,0,0-.14-.21l-.13-.11a.7.7,0,0,0-.35-.09l-.18,0a.67.67,0,0,0-.3.18l-.1.1a.4.4,0,0,0-.14.22.59.59,0,0,0,0,.52.4.4,0,0,0,.14.22l.14.11a.67.67,0,0,0,.34.09l.18,0a.65.65,0,0,0,.3-.18Z"/><path class="cls-4" d="M224.31,146.35a.68.68,0,0,0,0-1.36.68.68,0,0,0,0,1.36Z"/><path class="cls-4" d="M220,144.51a.69.69,0,0,0,0-1.37.69.69,0,0,0,0,1.37Z"/><path class="cls-4" d="M216.23,141.74a.68.68,0,0,0,0-1.36.68.68,0,0,0,0,1.36Z"/><path class="cls-4" d="M212.65,138.16a.68.68,0,0,0,0-1.36.68.68,0,0,0,0,1.36Z"/><path class="cls-4" d="M210.78,132.91l-.1-.1a.48.48,0,0,0-.22-.14.42.42,0,0,0-.27-.06.4.4,0,0,0-.26.06.48.48,0,0,0-.22.14l-.1.14a.67.67,0,0,0-.1.34l0,.18a.64.64,0,0,0,.17.3l.11.1a.41.41,0,0,0,.21.14.43.43,0,0,0,.27.06.4.4,0,0,0,.26-.06.44.44,0,0,0,.22-.14l.11-.13a.73.73,0,0,0,.09-.35l0-.18a.69.69,0,0,0-.17-.3Z"/><path class="cls-4" d="M208.87,129.26a.68.68,0,0,0,0-1.36.68.68,0,0,0,0,1.36Z"/><path class="cls-4" d="M208.35,124.05a.68.68,0,0,0,0-1.36.68.68,0,0,0,0,1.36Z"/><path class="cls-4" d="M208.76,119.34h.11a.4.4,0,0,0,.26-.06.48.48,0,0,0,.22-.14.55.55,0,0,0,.14-.22.58.58,0,0,0,.06-.26l0-.18a.64.64,0,0,0-.17-.3l-.14-.11a.69.69,0,0,0-.34-.09h-.11a.58.58,0,0,0-.26.06.52.52,0,0,0-.22.14.46.46,0,0,0-.14.22.58.58,0,0,0-.06.26l0,.18a.64.64,0,0,0,.17.3l.14.11a.69.69,0,0,0,.34.09Z"/><path class="cls-4" d="M210.57,114.33l.11-.1a.55.55,0,0,0,.14-.22.59.59,0,0,0,0-.52.55.55,0,0,0-.14-.22l-.14-.11a.7.7,0,0,0-.35-.09l-.18,0a.78.78,0,0,0-.3.18l-.1.1a.52.52,0,0,0-.14.22.58.58,0,0,0-.06.26.63.63,0,0,0,.06.27.49.49,0,0,0,.14.21l.14.11a.69.69,0,0,0,.34.09l.18,0a.58.58,0,0,0,.3-.18Z"/><path class="cls-4" d="M213,110a.68.68,0,0,0,0-1.36.68.68,0,0,0,0,1.36Z"/><path class="cls-4" d="M216.33,106.25a.68.68,0,0,0,0-1.36.68.68,0,0,0,0,1.36Z"/><path class="cls-4" d="M220.32,103.69a.68.68,0,0,0,0-1.36.68.68,0,0,0,0,1.36Z"/><path class="cls-4" d="M225.44,101.54a.68.68,0,0,0,0-1.36.68.68,0,0,0,0,1.36Z"/><path class="cls-4" d="M230.25,100.83a.69.69,0,0,0,0-1.37.69.69,0,0,0,0,1.37Z"/><path class="cls-4" d="M235.46,101a.68.68,0,0,0,0-1.36.68.68,0,0,0,0,1.36Z"/><path class="cls-4" d="M240.78,102.56a.68.68,0,0,0,0-1.36.68.68,0,0,0,0,1.36Z"/><path class="cls-4" d="M245.9,105.33h.1a.58.58,0,0,0,.26-.06.55.55,0,0,0,.22-.14.52.52,0,0,0,.14-.22.58.58,0,0,0,.06-.26l0-.19a.92.92,0,0,0-.18-.3l-.14-.1a.79.79,0,0,0-.34-.1h-.1a.63.63,0,0,0-.27.06.6.6,0,0,0-.21.14.62.62,0,0,0-.15.22.49.49,0,0,0-.05.27l0,.18a.67.67,0,0,0,.18.3l.13.1a.62.62,0,0,0,.35.1Z"/><path class="cls-4" d="M249.51,108.53v.11a.58.58,0,0,0,.06.26.6.6,0,0,0,.36.36.58.58,0,0,0,.26.06l.18,0a.64.64,0,0,0,.3-.17l.11-.14a.69.69,0,0,0,.09-.34v-.11a.47.47,0,0,0-.05-.26.54.54,0,0,0-.15-.22.6.6,0,0,0-.21-.14.63.63,0,0,0-.27-.06l-.18,0a.75.75,0,0,0-.3.17l-.1.14a.61.61,0,0,0-.1.34Z"/><path class="cls-4" d="M253.16,113.82a.68.68,0,0,0,0-1.36.68.68,0,0,0,0,1.36Z"/><path class="cls-4" d="M254.8,119.85a.68.68,0,0,0,0-1.36.68.68,0,0,0,0,1.36Z"/><circle class="cls-4" cx="268.28" cy="90.96" r="17.55" transform="translate(-14.39 109.59) rotate(-22.5)"/><circle class="cls-4" cx="268.28" cy="90.96" r="15.14"/><path class="cls-5" d="M268.28,73.41A17.55,17.55,0,1,0,285.82,91,17.55,17.55,0,0,0,268.28,73.41Zm0,32.69A15.14,15.14,0,1,1,283.42,91,15.14,15.14,0,0,1,268.28,106.1Z"/><circle class="cls-8" cx="268.28" cy="90.96" r="13.01"/><circle class="cls-9" cx="268.28" cy="90.96" r="11.63" transform="translate(135.52 341.2) rotate(-80.78)"/><path class="cls-5" d="M273.88,83.72H263.54l-.82,1.3h3.8a2.15,2.15,0,0,1,1.78,1.78h-5.05l-.82,1.61,6.45,0s-.87,3.37-6,2.75l0,1.54,5.92,6.92h2.79l-6-7.31s5,.19,5.42-3.9h2.15l.85-1.53h-3s-.19-1.68-1.06-2.07h3Z"/><path class="cls-4" d="M284.33,93.26h0l-.1-.07,0,0-.08-.09,0,0-.05-.11s0,0,0,0l0-.12v0a.41.41,0,0,0,0,.18.29.29,0,0,0,.09.15.44.44,0,0,0,.15.1.41.41,0,0,0,.19,0l.12,0a.45.45,0,0,0,.21-.12l.07-.1a.39.39,0,0,0,.07-.23.88.88,0,0,0,0-.17v0a.5.5,0,0,0-.05-.13v0l-.09-.11v0l-.12-.08a.27.27,0,0,0-.17-.06.41.41,0,0,0-.19,0,.35.35,0,0,0-.16.08.41.41,0,0,0-.12.14l-.05.11a.53.53,0,0,0,0,.25l.05.11a.46.46,0,0,0,.17.17Z"/><path class="cls-4" d="M283.71,96.59a.47.47,0,0,0,0-.94.47.47,0,0,0,0,.94Z"/><path class="cls-4" d="M282.51,99.78a.47.47,0,0,0,0-.94.47.47,0,0,0,0,.94Z"/><path class="cls-4" d="M280.85,102.27l.08-.07a.38.38,0,0,0,.09-.15.3.3,0,0,0,0-.18.27.27,0,0,0,0-.18.51.51,0,0,0-.09-.16l-.1-.07a.61.61,0,0,0-.24-.07l-.12,0a.45.45,0,0,0-.21.12l-.07.07a.39.39,0,0,0-.1.16.34.34,0,0,0,0,.18.39.39,0,0,0,0,.18.31.31,0,0,0,.1.15l.09.08a.53.53,0,0,0,.24.06l.13,0a.37.37,0,0,0,.2-.12Z"/><path class="cls-4" d="M278,104.82a.47.47,0,0,0,0-.94.47.47,0,0,0,0,.94Z"/><path class="cls-4" d="M274.49,106.74a.47.47,0,0,0,0-.94.47.47,0,0,0,0,.94Z"/><path class="cls-4" d="M270.73,107.73a.47.47,0,0,0,0-.94.47.47,0,0,0,0,.94Z"/><path class="cls-4" d="M266.66,107.67l.07-.07a.39.39,0,0,0,.1-.16.34.34,0,0,0,0-.18.39.39,0,0,0,0-.18.31.31,0,0,0-.1-.15l-.09-.08a.53.53,0,0,0-.24-.06l-.13,0a.45.45,0,0,0-.21.12L266,107a.5.5,0,0,0-.14.33.34.34,0,0,0,0,.18.54.54,0,0,0,.1.16l.1.07a.48.48,0,0,0,.24.06h.12a.55.55,0,0,0,.21-.12Z"/><path class="cls-4" d="M263,106.81a.47.47,0,0,0,0-.94.47.47,0,0,0,0,.94Z"/><path class="cls-4" d="M260,105.53a.47.47,0,0,0,0-.94.47.47,0,0,0,0,.94Z"/><path class="cls-4" d="M257.38,103.62a.48.48,0,0,0,0-1,.48.48,0,0,0,0,1Z"/><path class="cls-4" d="M254.9,101.13a.47.47,0,0,0,0-.94.47.47,0,0,0,0,.94Z"/><path class="cls-4" d="M253.6,97.49l-.07-.07a.31.31,0,0,0-.15-.1.39.39,0,0,0-.18,0,.41.41,0,0,0-.19,0,.36.36,0,0,0-.15.1l-.07.09a.55.55,0,0,0-.07.24l0,.13a.37.37,0,0,0,.12.2l.07.08a.51.51,0,0,0,.16.09.27.27,0,0,0,.18,0,.3.3,0,0,0,.18,0,.38.38,0,0,0,.15-.09l.07-.1a.4.4,0,0,0,.07-.24l0-.12a.45.45,0,0,0-.12-.21Z"/><path class="cls-4" d="M252.27,95a.48.48,0,0,0,0-.95.48.48,0,0,0,0,.95Z"/><path class="cls-4" d="M251.92,91.34a.48.48,0,0,0,0-1,.48.48,0,0,0,0,1Z"/><path class="cls-4" d="M252.2,88.07h.07a.31.31,0,0,0,.19,0,.6.6,0,0,0,.15-.09.54.54,0,0,0,.1-.16.48.48,0,0,0,0-.18l0-.12a.45.45,0,0,0-.12-.21l-.1-.08a.48.48,0,0,0-.24-.06h-.07a.39.39,0,0,0-.18,0,.46.46,0,0,0-.25.25.39.39,0,0,0,0,.18l0,.13a.45.45,0,0,0,.12.21L252,88a.53.53,0,0,0,.24.06Z"/><path class="cls-4" d="M253.46,84.6l.07-.07a.31.31,0,0,0,.1-.15.39.39,0,0,0,0-.18.41.41,0,0,0,0-.19.31.31,0,0,0-.1-.15l-.1-.07a.39.39,0,0,0-.23-.07l-.13,0a.45.45,0,0,0-.21.12l-.07.07a.36.36,0,0,0-.1.15.41.41,0,0,0,0,.19.39.39,0,0,0,0,.18.31.31,0,0,0,.1.15l.1.07a.4.4,0,0,0,.24.07l.12,0a.45.45,0,0,0,.21-.12Z"/><path class="cls-4" d="M255.11,81.62a.48.48,0,0,0,0-1,.48.48,0,0,0,0,1Z"/><path class="cls-4" d="M257.45,79a.48.48,0,0,0,0-.95.48.48,0,0,0,0,.95Z"/><path class="cls-4" d="M260.22,77.22a.48.48,0,0,0,0-1,.48.48,0,0,0,0,1Z"/><path class="cls-4" d="M263.77,75.73a.48.48,0,0,0,0-1,.48.48,0,0,0,0,1Z"/><path class="cls-4" d="M267.11,75.23a.48.48,0,0,0,0-1,.48.48,0,0,0,0,1Z"/><path class="cls-4" d="M270.73,75.37a.47.47,0,0,0,0-.94.47.47,0,0,0,0,.94Z"/><path class="cls-4" d="M274.42,76.43a.47.47,0,0,0,0-.94.47.47,0,0,0,0,.94Z"/><path class="cls-4" d="M278,78.35H278a.39.39,0,0,0,.18,0,.46.46,0,0,0,.25-.25.39.39,0,0,0,0-.18l0-.13a.45.45,0,0,0-.12-.21l-.1-.07a.46.46,0,0,0-.23-.06H278a.31.31,0,0,0-.19,0,.38.38,0,0,0-.15.09.54.54,0,0,0-.1.16.34.34,0,0,0,0,.18l0,.12a.45.45,0,0,0,.12.21l.1.08a.48.48,0,0,0,.24.06Z"/><path class="cls-4" d="M280.47,80.58v.07a.5.5,0,0,0,.14.33.36.36,0,0,0,.15.1.41.41,0,0,0,.19,0l.12,0a.45.45,0,0,0,.21-.12l.07-.1a.39.39,0,0,0,.07-.23v-.07a.41.41,0,0,0,0-.19.31.31,0,0,0-.1-.15.5.5,0,0,0-.33-.14l-.13,0a.45.45,0,0,0-.21.12l-.07.1a.48.48,0,0,0-.07.24Z"/><path class="cls-4" d="M283,84.24a.47.47,0,0,0,0-.94.47.47,0,0,0,0,.94Z"/><path class="cls-4" d="M284.14,88.43a.48.48,0,0,0,0-1,.48.48,0,0,0,0,1Z"/><circle class="cls-4" cx="208.76" cy="76.74" r="17.55" transform="translate(86.11 262.29) rotate(-76.72)"/><circle class="cls-4" cx="208.76" cy="76.74" r="15.14"/><path class="cls-5" d="M208.76,59.2a17.55,17.55,0,1,0,17.55,17.54A17.54,17.54,0,0,0,208.76,59.2Zm0,32.69a15.15,15.15,0,1,1,15.15-15.15A15.14,15.14,0,0,1,208.76,91.89Z"/><circle class="cls-8" cx="208.76" cy="76.74" r="13.01"/><circle class="cls-9" cx="208.76" cy="76.74" r="11.63" transform="translate(86.11 262.29) rotate(-76.72)"/><path class="cls-5" d="M214.37,69.5H204l-.81,1.3H207a2.16,2.16,0,0,1,1.78,1.78h-5.06l-.81,1.62,6.44,0s-.86,3.36-6,2.74l0,1.54,5.91,6.93h2.8l-6-7.32s5,.19,5.41-3.9h2.16l.85-1.53h-3s-.2-1.69-1.06-2.07h3Z"/><path class="cls-4" d="M224.81,79h0l-.09-.08,0,0-.07-.1s0,0,0,0l0-.12a.09.09,0,0,1,0,0v-.1a.39.39,0,0,0,0,.18.46.46,0,0,0,.25.25.39.39,0,0,0,.18,0l.13,0a.45.45,0,0,0,.21-.12l.07-.09a.53.53,0,0,0,.06-.24.5.5,0,0,0,0-.17v0l-.06-.13v0a.76.76,0,0,0-.08-.11h0a.48.48,0,0,0-.11-.09.35.35,0,0,0-.18-.06.37.37,0,0,0-.18,0,.35.35,0,0,0-.17.09.3.3,0,0,0-.12.13l0,.11a.36.36,0,0,0,0,.25l0,.11a.4.4,0,0,0,.17.17Z"/><path class="cls-4" d="M224.2,82.37a.47.47,0,0,0,0-.94.47.47,0,0,0,0,.94Z"/><path class="cls-4" d="M223,85.57a.48.48,0,0,0,0-.95.48.48,0,0,0,0,.95Z"/><path class="cls-4" d="M221.34,88.06l.07-.08a.31.31,0,0,0,.1-.15.42.42,0,0,0,0-.36.31.31,0,0,0-.1-.15l-.1-.08a.46.46,0,0,0-.23-.06H221a.57.57,0,0,0-.21.13l-.07.07a.5.5,0,0,0-.14.33.34.34,0,0,0,0,.18.54.54,0,0,0,.1.16l.1.07a.48.48,0,0,0,.24.06h.12a.72.72,0,0,0,.21-.12Z"/><path class="cls-4" d="M218.45,90.61a.48.48,0,0,0,0-1,.48.48,0,0,0,0,1Z"/><path class="cls-4" d="M215,92.52a.47.47,0,0,0,0-.94.47.47,0,0,0,0,.94Z"/><path class="cls-4" d="M211.21,93.52a.48.48,0,0,0,0-1,.48.48,0,0,0,0,1Z"/><path class="cls-4" d="M207.15,93.45l.07-.07a.46.46,0,0,0,.09-.15.31.31,0,0,0,0-.19.3.3,0,0,0,0-.18.38.38,0,0,0-.09-.15l-.1-.07a.4.4,0,0,0-.24-.07l-.12,0a.45.45,0,0,0-.21.12l-.07.07a.31.31,0,0,0-.1.15.39.39,0,0,0,0,.18.41.41,0,0,0,0,.19.31.31,0,0,0,.1.15l.09.07a.44.44,0,0,0,.24.07l.13,0a.45.45,0,0,0,.21-.12Z"/><path class="cls-4" d="M203.48,92.59a.47.47,0,0,0,0-.94.47.47,0,0,0,0,.94Z"/><path class="cls-4" d="M200.49,91.32a.48.48,0,0,0,0-.95.48.48,0,0,0,0,.95Z"/><path class="cls-4" d="M197.87,89.4a.47.47,0,0,0,0-.94.47.47,0,0,0,0,.94Z"/><path class="cls-4" d="M195.38,86.92a.48.48,0,0,0,0-1,.48.48,0,0,0,0,1Z"/><path class="cls-4" d="M194.09,83.27,194,83.2a.39.39,0,0,0-.16-.1.34.34,0,0,0-.18,0,.39.39,0,0,0-.18,0,.31.31,0,0,0-.15.1l-.08.1a.46.46,0,0,0-.06.23l0,.13a.45.45,0,0,0,.12.21l.07.07a.5.5,0,0,0,.33.14.34.34,0,0,0,.18,0,.54.54,0,0,0,.16-.1l.07-.1a.48.48,0,0,0,.06-.24v-.12a.55.55,0,0,0-.12-.21Z"/><path class="cls-4" d="M192.76,80.74a.47.47,0,0,0,0-.94.47.47,0,0,0,0,.94Z"/><path class="cls-4" d="M192.4,77.12a.47.47,0,0,0,0-.94.47.47,0,0,0,0,.94Z"/><path class="cls-4" d="M192.69,73.86h.07a.5.5,0,0,0,.33-.14.31.31,0,0,0,.1-.15.41.41,0,0,0,0-.19l0-.12a.45.45,0,0,0-.12-.21L193,73a.44.44,0,0,0-.24-.07h-.07a.34.34,0,0,0-.18,0,.39.39,0,0,0-.16.1.29.29,0,0,0-.09.15.41.41,0,0,0,0,.18l0,.13a.45.45,0,0,0,.12.21l.1.07a.4.4,0,0,0,.24.07Z"/><path class="cls-4" d="M193.94,70.38l.08-.07a.38.38,0,0,0,.09-.15.3.3,0,0,0,0-.18.27.27,0,0,0,0-.18.51.51,0,0,0-.09-.16l-.1-.07a.48.48,0,0,0-.24-.06h-.12a.55.55,0,0,0-.21.12l-.07.07a.39.39,0,0,0-.1.16.34.34,0,0,0,0,.18.39.39,0,0,0,0,.18.31.31,0,0,0,.1.15l.09.08a.5.5,0,0,0,.24.06l.13,0a.37.37,0,0,0,.2-.12Z"/><path class="cls-4" d="M195.6,67.4a.48.48,0,0,0,0-1,.48.48,0,0,0,0,1Z"/><path class="cls-4" d="M197.94,64.77a.47.47,0,0,0,0-.94.47.47,0,0,0,0,.94Z"/><path class="cls-4" d="M200.71,63a.48.48,0,0,0,0-1,.48.48,0,0,0,0,1Z"/><path class="cls-4" d="M204.26,61.51a.48.48,0,0,0,0-.95.48.48,0,0,0,0,.95Z"/><path class="cls-4" d="M207.59,61a.47.47,0,0,0,0-.94.47.47,0,0,0,0,.94Z"/><path class="cls-4" d="M211.21,61.15a.47.47,0,0,0,0-.94.47.47,0,0,0,0,.94Z"/><path class="cls-4" d="M214.9,62.22a.48.48,0,0,0,0-.95.48.48,0,0,0,0,.95Z"/><path class="cls-4" d="M218.45,64.13h.07a.27.27,0,0,0,.18,0,.34.34,0,0,0,.25-.25.27.27,0,0,0,0-.18v-.12a.72.72,0,0,0-.12-.21l-.1-.08a.48.48,0,0,0-.24-.06h-.07a.37.37,0,0,0-.18,0,.46.46,0,0,0-.25.25.39.39,0,0,0,0,.18v.13a.57.57,0,0,0,.13.21l.09.07a.53.53,0,0,0,.24.06Z"/><path class="cls-4" d="M221,66.36v.07a.37.37,0,0,0,0,.18.46.46,0,0,0,.25.25.39.39,0,0,0,.18,0l.13,0a.45.45,0,0,0,.21-.12l.07-.09a.53.53,0,0,0,.06-.24v-.07a.27.27,0,0,0,0-.18.34.34,0,0,0-.25-.25.27.27,0,0,0-.18,0h-.12a.72.72,0,0,0-.21.12l-.08.1a.48.48,0,0,0-.06.24Z"/><path class="cls-4" d="M223.49,70a.47.47,0,0,0,0-.94.47.47,0,0,0,0,.94Z"/><path class="cls-4" d="M224.63,74.21a.47.47,0,0,0,0-.94.47.47,0,0,0,0,.94Z"/><ellipse class="cls-10" cx="249.93" cy="385.51" rx="116.65" ry="11.58"/><path class="cls-3" d="M257.49,185.74c28.38,14.17,46.43,42,59.37,70.21,8.55,18.66,15.84,38.17,17.62,58.51.67,7.66.53,15.49-1.71,22.87-4,13.16-14.34,23.7-25.75,31.86a94.4,94.4,0,0,1-24.71,13c-9.66,3.22-19.93,4.11-30.11,4.89-87.73,6.75-100.76-25.78-105.16-37.84s-4.93-28.93-3.64-41.51c3.1-30.21,11.7-60.19,27.84-86.24A169.8,169.8,0,0,1,201,185.69s6.44-4.09,3.94-10.43c-3-7.74-10-14.2-15.11-20.8-4.56-5.9-9.16-11.85-12.38-18.52-1.27-2.63-2-6.4.57-7.9,1.43-.83,3.27-.49,4.83.08,4.52,1.65,8.22,5,12.75,6.61,8.85,3.16,18.62-.76,26.91-5.12,4.24-2.22,9.65-4.55,13.53-1.78,1.48,1.06,2.39,2.68,3.47,4.12a21,21,0,0,0,19.31,7.85c7.42-1.07,13.79-6,21.22-7,3.43-.43,7.07,2.66,6.41,6s-3.48,5.7-6.17,7.81c-10.22,8-21.33,16.3-25.75,28.29a10.75,10.75,0,0,0-.8,5.9A6.36,6.36,0,0,0,257.49,185.74Z"/><path class="cls-11" d="M223.86,387.94a278.49,278.49,0,0,0,28.34-.84c10.18-.78,20.45-1.67,30.11-4.89a94.4,94.4,0,0,0,24.71-13c11.41-8.16,21.75-18.7,25.75-31.86,2.24-7.38,2.38-15.21,1.71-22.87-1.78-20.34-9.07-39.85-17.62-58.51-12.94-28.23-31-56-59.37-70.21a6.36,6.36,0,0,1-3.79-5,10.75,10.75,0,0,1,.8-5.9c4.42-12,15.53-20.26,25.75-28.29,2.69-2.11,5.52-4.52,6.17-7.81s-3-6.38-6.41-6c-7.43.94-13.8,5.91-21.22,7A21,21,0,0,1,239.48,132c-1.08-1.44-2-3.06-3.47-4.12-3.88-2.77-9.29-.44-13.53,1.78-8.29,4.36-18.06,8.28-26.91,5.12-4.53-1.63-8.23-5-12.75-6.61-1.56-.57-3.4-.91-4.83-.08-2.57,1.5-1.84,5.27-.57,7.9,3.22,6.67,7.82,12.62,12.38,18.52,5.11,6.6,12.49,12.9,15.11,20.8,1.68,5.1-.71,7.13-.71,7.13a10.56,10.56,0,0,1-3.23,3.3s25.22-5.48,53.53,22.15C284.34,237,288.7,277,288.7,277s15.11,87.56-64.84,110.94"/><path class="cls-12" d="M212.57,184.34s-.3.42-.84,1.12c-.29.35-.6.77-.94,1.23s-.74,1-1.18,1.57-.88,1.23-1.37,1.89-.94,1.41-1.47,2.13-1,1.52-1.48,2.32-1,1.62-1.47,2.44-.94,1.65-1.37,2.48L201.17,202c-.37.81-.78,1.58-1.12,2.33l-1,2.11c-.58,1.32-1.06,2.44-1.4,3.22s-.54,1.24-.54,1.24l0,.08a1.81,1.81,0,0,1-3.44-.89s0-.52.13-1.44c.05-.46.12-1,.24-1.65s.24-1.34.44-2.11.41-1.6.7-2.46.6-1.77,1-2.69.77-1.86,1.26-2.79,1-1.85,1.5-2.77,1.13-1.8,1.73-2.64,1.25-1.65,1.85-2.43,1.27-1.48,1.9-2.13a25.07,25.07,0,0,1,1.83-1.78c.57-.55,1.14-1,1.65-1.42s1-.75,1.32-1c.73-.5,1.17-.77,1.17-.77a1.66,1.66,0,0,1,2.23,2.37Z"/><path class="cls-12" d="M216.51,183.65s-.12.48-.36,1.32c-.14.42-.26.92-.41,1.46s-.31,1.16-.49,1.85-.36,1.43-.56,2.21-.34,1.62-.56,2.47-.35,1.74-.5,2.65-.3,1.82-.44,2.74-.25,1.84-.34,2.75-.18,1.81-.27,2.68-.13,1.72-.16,2.52-.07,1.57-.1,2.27c0,1.41-.07,2.6-.09,3.44s0,1.32,0,1.32v.09a1.81,1.81,0,0,1-3.52.48s-.17-.49-.42-1.36c-.13-.44-.27-1-.4-1.58s-.28-1.32-.38-2.09-.22-1.6-.29-2.49-.1-1.83-.11-2.8,0-2,.11-3,.22-2.05.36-3.08.36-2,.6-3,.54-2,.81-2.89.61-1.8,1-2.63a24.58,24.58,0,0,1,1-2.28c.32-.7.68-1.33,1-1.89a15.77,15.77,0,0,1,.84-1.38c.49-.73.79-1.13.79-1.13a1.66,1.66,0,0,1,2.95,1.39Z"/><path class="cls-13" d="M159.42,283s-.36,1.05-1,2.88c-.37.92-.58,2-1,3.31s-.63,2.76-1,4.35-.57,3.39-.89,5.24-.48,3.85-.64,5.91c-.08,1-.17,2.07-.25,3.13s-.09,2.13-.14,3.21c-.13,2.17-.07,4.37-.08,6.57s.07,4.4.23,6.56c.07,1.08.15,2.15.22,3.21s.22,2.09.33,3.12c.19,2.05.55,4,.8,5.88s.67,3.61,1,5.2c.21.8.4,1.56.59,2.28a19.23,19.23,0,0,0,.57,2c.43,1.26.72,2.39,1.1,3.26.72,1.76,1.14,2.77,1.14,2.77l0,.07a.8.8,0,0,1-1.46.66l-1.37-2.81c-.45-.89-.81-2-1.32-3.32s-.89-2.79-1.38-4.42-.83-3.42-1.23-5.31-.75-3.91-.95-6c-.11-1-.26-2.11-.36-3.19s-.17-2.17-.26-3.27S152,322.11,152,321s-.11-2.24-.1-3.36c0-2.25,0-4.49.16-6.7.06-1.1.09-2.2.18-3.28s.2-2.14.29-3.19.23-2.08.38-3.08.3-2,.44-2.94c.39-1.9.66-3.7,1.1-5.34s.75-3.14,1.24-4.46.77-2.49,1.17-3.37l1.21-2.81a.73.73,0,0,1,1.36.54Z"/><path class="cls-13" d="M163.35,297.75s-.12.63-.31,1.75c-.11.55-.19,1.21-.31,2s-.2,1.65-.34,2.59-.22,2-.33,3.07-.18,2.25-.27,3.44-.15,2.43-.2,3.68-.09,2.53-.13,3.81,0,2.55,0,3.8.05,2.48.12,3.67.17,2.33.23,3.42.23,2.1.37,3,.27,1.79.46,2.53.29,1.4.46,1.91c.31,1,.5,1.64.5,1.64l0,.08a.8.8,0,0,1-1.5.55s-.26-.62-.73-1.69c-.23-.55-.41-1.23-.67-2a25.05,25.05,0,0,1-.67-2.63c-.2-1-.38-2-.56-3.15s-.32-2.3-.38-3.53-.18-2.49-.2-3.78,0-2.59,0-3.9.07-2.61.17-3.89.19-2.54.32-3.76.3-2.39.44-3.5.34-2.15.52-3.12.35-1.84.56-2.62.34-1.47.5-2c.32-1.09.51-1.7.51-1.7a.73.73,0,0,1,.91-.5A.75.75,0,0,1,163.35,297.75Z"/><path class="cls-13" d="M308.23,333.08s-.09.41-.27,1.13-.46,1.77-.89,3-.95,2.61-1.6,4.09-1.44,3-2.29,4.48-1.8,2.92-2.75,4.22a42.88,42.88,0,0,1-2.76,3.42c-.84,1-1.62,1.71-2.15,2.24s-.86.8-.86.8a.79.79,0,0,1-1.13-.07.8.8,0,0,1-.06-1l0,0s.24-.34.69-.91S295.24,353,296,352c1.47-2,3.32-4.73,5-7.56.83-1.42,1.62-2.87,2.34-4.24.33-.7.7-1.35,1-2s.6-1.24.85-1.81c.52-1.14.94-2.05,1.22-2.75s.47-1.06.47-1.06a.74.74,0,0,1,1.39.47Z"/><path class="cls-13" d="M219.93,178.78s0,.06,0,0a.71.71,0,0,0-.36-.58.65.65,0,0,0-.42-.06.62.62,0,0,0-.27.15.55.55,0,0,0-.14.21l0,.06,0,.08h0a1,1,0,0,0,0,.39s0,0-.14-.07l-.57-.45a30.91,30.91,0,0,1-2.86-2.58A31.5,31.5,0,0,1,212.6,173a16.36,16.36,0,0,1-1-1.46.82.82,0,0,1,.3-1.13.83.83,0,0,1,.85,0,15.35,15.35,0,0,1,1.43,1.05,33.88,33.88,0,0,1,5.33,5.55l.43.58c.05.08.15.19.26.37a1.33,1.33,0,0,1,.18.86.32.32,0,0,1,0,.06l0,.09,0,.1a1.06,1.06,0,0,1-.2.29,1.09,1.09,0,0,1-.43.25,1,1,0,0,1-.71-.07.85.85,0,0,1-.48-.72c0-.11,0-.06,0-.08a.73.73,0,1,1,1.46,0Z"/><path class="cls-13" d="M224.49,177.92a12.12,12.12,0,0,1-.68-1.79,16.92,16.92,0,0,1-.48-1.9A22,22,0,0,1,223,172c-.05-.76-.08-1.53-.06-2.25a17.7,17.7,0,0,1,.17-2,12.21,12.21,0,0,1,.4-1.88h0a.82.82,0,0,1,1.59.15s.11.74.19,1.82.17,2.51.26,3.94.19,2.88.27,3.95.08,1.85.08,1.85a.76.76,0,0,1-.74.76.75.75,0,0,1-.68-.41Z"/><path class="cls-13" d="M230.91,176.54a13.61,13.61,0,0,1-.26-1.51,25.58,25.58,0,0,1-.14-3.31,22,22,0,0,1,.29-3.3,10.74,10.74,0,0,1,.33-1.49.83.83,0,0,1,1.6,0,10.46,10.46,0,0,1,.25,1.51,23,23,0,0,1,.09,3.31,24,24,0,0,1-.34,3.29,13,13,0,0,1-.35,1.5.77.77,0,0,1-1.47-.05Z"/><path class="cls-13" d="M237.14,176.52s0-.13-.09-.37a8.35,8.35,0,0,1-.11-1,9.92,9.92,0,0,1,0-1.43,12,12,0,0,1,.25-1.62,11.86,11.86,0,0,1,.49-1.56,9.17,9.17,0,0,1,.62-1.29,6.54,6.54,0,0,1,.82-1.15.85.85,0,0,1,1.19,0,.89.89,0,0,1,.26.72s-.07.53-.24,1.27-.4,1.7-.65,2.65-.5,1.92-.7,2.65-.39,1.25-.39,1.25a.77.77,0,0,1-1,.46.74.74,0,0,1-.48-.51Z"/><path class="cls-13" d="M239.65,200.18l-.46-.57c-.3-.35-.73-.89-1.22-1.54a21.67,21.67,0,0,1-3.06-5.27,34.88,34.88,0,0,1-1.52-5.83c-.29-1.59-.48-2.65-.48-2.65a.8.8,0,0,1,1.57-.28h0s.18,1,.46,2.63a33.1,33.1,0,0,0,1.4,5.57,19.83,19.83,0,0,0,2.82,4.92c.93,1.25,1.63,2.09,1.63,2.09a.73.73,0,1,1-1.12.94h0Z"/><path class="cls-13" d="M226.38,185.19l-.73,3.53c-.43,2.11-1,4.92-1.4,7.75s-.78,5.66-1,7.79c-.12,1.07-.23,2-.28,2.6s-.12,1-.12,1v0a.8.8,0,0,1-.91.68.81.81,0,0,1-.69-.7s0-.37-.09-1-.1-1.57-.1-2.68,0-2.4.14-3.78.29-2.85.52-4.31.54-2.9.87-4.25.7-2.58,1.06-3.63.7-1.92.93-2.51.4-.92.4-.92v0a.74.74,0,0,1,1.4.46Z"/><path class="cls-13" d="M315.09,326.58s-.07.7-.18,1.92c-.05.61-.16,1.36-.3,2.22s-.28,1.84-.52,2.88-.5,2.17-.82,3.35-.71,2.42-1.13,3.69-.92,2.56-1.5,3.84-1.2,2.57-1.81,3.86-1.36,2.51-2.12,3.7-1.52,2.34-2.27,3.44-1.56,2.13-2.36,3-1.54,1.83-2.28,2.6l-1.05,1.12-1,.95q-.93.92-1.65,1.53L294.61,366a.8.8,0,0,1-1.13-.09.81.81,0,0,1,0-1.07l0,0,1.31-1.37c.43-.43.92-1,1.48-1.61s1.18-1.33,1.84-2.13,1.36-1.66,2.07-2.61,1.41-2,2.17-3,1.44-2.19,2.12-3.35,1.35-2.37,2-3.57,1.25-2.44,1.78-3.69,1.06-2.46,1.55-3.65.9-2.37,1.25-3.5.7-2.19.95-3.2.52-1.91.7-2.72.37-1.52.47-2.13c.25-1.2.39-1.89.39-1.89a.73.73,0,0,1,.86-.58A.75.75,0,0,1,315.09,326.58Z"/><path class="cls-12" d="M205.41,179.49l2.18.24q2.1.26,5.61.59c1.16.13,2.42.22,3.75.34s2.73.17,4.18.3,2.94.16,4.46.21,3.07.09,4.62.13,3.09,0,4.61,0l4.47-.09c1.44-.08,2.85-.1,4.18-.19l3.75-.22,7.78-.57h0a1.79,1.79,0,0,1,.66,3.5s-.77.24-2.13.61c-.68.2-1.51.41-2.47.62s-2,.46-3.24.67-2.49.43-3.87.61-2.84.34-4.35.48-3.08.24-4.67.26-3.22.05-4.84,0-3.23-.12-4.82-.24-3.15-.3-4.66-.46-3-.41-4.32-.66-2.65-.5-3.84-.77-2.26-.54-3.22-.8-1.78-.49-2.44-.71c-1.32-.42-2.08-.68-2.08-.68a1.65,1.65,0,0,1,.69-3.2Z"/><path class="cls-12" d="M254.81,176.47s-.74.24-2.05.63-3.2.91-5.48,1.44c-1.14.27-2.38.54-3.7.81s-2.71.54-4.16.76-2.94.48-4.47.68-3.09.38-4.64.54-3.12.27-4.65.38-3,.17-4.51.23-2.87.09-4.21.09-2.61,0-3.78,0-2.22,0-3.19-.09a10.55,10.55,0,0,1-4.58-1l-.55-.25a1.79,1.79,0,0,1,1.12-3.38l.07,0,.51.11c.33.06.81.14,1.33.19a9.55,9.55,0,0,0,2-.09c.92-.1,2-.22,3.13-.33,2.3-.24,5-.47,7.84-.72l9-.78c1.52-.13,3-.27,4.54-.43l4.39-.43,7.81-.8,5.55-.55c1.36-.12,2.13-.17,2.13-.17a1.64,1.64,0,0,1,.62,3.2Z"/><path class="cls-13" d="M184.47,137.25l.24,0c.16,0,.32,0,.54.07.44.07,1,.18,1.52.32a12.25,12.25,0,0,1,1.47.46,4.33,4.33,0,0,1,.69.33l0,0a.9.9,0,0,1-.05,1.58,2.82,2.82,0,0,1-.88.25,4,4,0,0,1-.93,0,5.57,5.57,0,0,1-1-.19,5,5,0,0,1-1.73-.93,2.92,2.92,0,0,1-.47-.48l-.14-.2a.84.84,0,0,1,.28-1.15A.93.93,0,0,1,184.47,137.25Z"/><path class="cls-13" d="M186.37,143a4.43,4.43,0,0,1,.78-.07,7.66,7.66,0,0,1,1.57.17,7.27,7.27,0,0,1,1.49.47,3.62,3.62,0,0,1,.67.39h0a.92.92,0,0,1,.17,1.29.94.94,0,0,1-.37.29,2.89,2.89,0,0,1-.81.18,3.67,3.67,0,0,1-.82,0,6.07,6.07,0,0,1-.92-.15,5.31,5.31,0,0,1-1.61-.69,2.9,2.9,0,0,1-.64-.52l0,0a.83.83,0,0,1,.11-1.18A.74.74,0,0,1,186.37,143Z"/><path class="cls-13" d="M190.11,148.55a6.9,6.9,0,0,1,.82,0,9.76,9.76,0,0,1,1.65.22,7.93,7.93,0,0,1,1.58.51,3.64,3.64,0,0,1,.71.39h0a.92.92,0,0,1,.2,1.27.88.88,0,0,1-.41.31,3.09,3.09,0,0,1-.86.18,5.12,5.12,0,0,1-.87,0,5.82,5.82,0,0,1-1-.17,5.55,5.55,0,0,1-1.7-.74,2.77,2.77,0,0,1-.67-.56l0,0a.82.82,0,0,1,.11-1.16A.85.85,0,0,1,190.11,148.55Z"/><path class="cls-13" d="M193.59,153.64a3.33,3.33,0,0,1,.76-.17,6.09,6.09,0,0,1,1.58,0,5.27,5.27,0,0,1,1.51.47,3.32,3.32,0,0,1,.65.42.93.93,0,0,1,.08,1.32.84.84,0,0,1-.37.25,3.05,3.05,0,0,1-.75.16,5.47,5.47,0,0,1-1.58-.09,5.73,5.73,0,0,1-1.5-.53,3.43,3.43,0,0,1-.64-.42.86.86,0,0,1-.07-1.22A.94.94,0,0,1,193.59,153.64Z"/><path class="cls-13" d="M197.72,158.61a2.78,2.78,0,0,1,.66-.28,4.43,4.43,0,0,1,1.42-.2,4.25,4.25,0,0,1,1.41.23,2.87,2.87,0,0,1,.64.31,1,1,0,0,1,.21,1.35.84.84,0,0,1-.27.26,2.82,2.82,0,0,1-.65.27,4.51,4.51,0,0,1-1.42.14,4.75,4.75,0,0,1-1.41-.29,2.89,2.89,0,0,1-.63-.32.89.89,0,0,1-.2-1.24A.87.87,0,0,1,197.72,158.61Z"/><path class="cls-13" d="M257.12,190.17a2.3,2.3,0,0,1-.23.57,3.21,3.21,0,0,1-.76.93,3.12,3.12,0,0,1-1,.59,2.1,2.1,0,0,1-.6.11,1,1,0,0,1-1-1,1.49,1.49,0,0,1,0-.21,2.17,2.17,0,0,1,.23-.56,3.14,3.14,0,0,1,.8-.89,3.18,3.18,0,0,1,1.07-.54,1.88,1.88,0,0,1,.6-.1.94.94,0,0,1,.95.95A1.23,1.23,0,0,1,257.12,190.17Z"/><path class="cls-13" d="M261.42,192.41a3.55,3.55,0,0,1-.46.69,7,7,0,0,1-1.24,1.15,6.57,6.57,0,0,1-1.49.79,3.42,3.42,0,0,1-.79.19.93.93,0,0,1-1-.84,1,1,0,0,1,.09-.48,3.34,3.34,0,0,1,.46-.68,6.53,6.53,0,0,1,1.28-1.1,6.21,6.21,0,0,1,1.52-.74,3.56,3.56,0,0,1,.8-.19.84.84,0,0,1,.91.78A.71.71,0,0,1,261.42,192.41Z"/><path class="cls-13" d="M265.17,194.91a5.3,5.3,0,0,1-.39.59,8,8,0,0,1-1,1,6.67,6.67,0,0,1-1.13.79,3.57,3.57,0,0,1-.64.28h0a.94.94,0,0,1-1.16-.65.91.91,0,0,1,0-.4,2.67,2.67,0,0,1,.28-.74,3,3,0,0,1,.44-.65,5.29,5.29,0,0,1,.63-.62,4.48,4.48,0,0,1,1.48-.77,2.23,2.23,0,0,1,.78-.11h.06a.85.85,0,0,1,.78.92A.89.89,0,0,1,265.17,194.91Z"/><path class="cls-13" d="M268.75,198.3a2.74,2.74,0,0,1-.28.62,4.27,4.27,0,0,1-.86,1.05,4.13,4.13,0,0,1-1.15.71,2.48,2.48,0,0,1-.66.16,1,1,0,0,1-1.05-.91.85.85,0,0,1,0-.32,2.17,2.17,0,0,1,.28-.61,3.94,3.94,0,0,1,.9-1,4.11,4.11,0,0,1,1.19-.67,3.06,3.06,0,0,1,.66-.16.9.9,0,0,1,1,.84A.93.93,0,0,1,268.75,198.3Z"/><path class="cls-13" d="M272.53,201.15a4,4,0,0,1-.42.68A6.38,6.38,0,0,1,271,203a6.05,6.05,0,0,1-1.43.82,3.69,3.69,0,0,1-.77.2.93.93,0,0,1-.95-1.29,3.7,3.7,0,0,1,.42-.67,6.26,6.26,0,0,1,1.2-1.13,6.47,6.47,0,0,1,1.46-.77,3.29,3.29,0,0,1,.78-.19.85.85,0,0,1,.93.75A.88.88,0,0,1,272.53,201.15Z"/><path class="cls-13" d="M169.39,357.92a3.56,3.56,0,0,1-.41.58,5.21,5.21,0,0,1-1.06.94,4.73,4.73,0,0,1-1.25.63,3,3,0,0,1-.69.15h0a1,1,0,0,1-1-.89A1.16,1.16,0,0,1,165,359a2.66,2.66,0,0,1,.37-.65,4.39,4.39,0,0,1,1.14-1,4.73,4.73,0,0,1,1.42-.58,2.53,2.53,0,0,1,.74-.07h0a.87.87,0,0,1,.79.95A.76.76,0,0,1,169.39,357.92Z"/><path class="cls-13" d="M173.36,360.71a1.35,1.35,0,0,1,0,.2,2.25,2.25,0,0,1-.15.54,3.73,3.73,0,0,1-.92,1.32,4.72,4.72,0,0,1-.69.51,3.36,3.36,0,0,1-.7.29,2.2,2.2,0,0,1-.76.1,1,1,0,0,1-.86-1,.9.9,0,0,1,.09-.33l0-.07a4.28,4.28,0,0,1,.34-.53,5.72,5.72,0,0,1,.85-.86,6.52,6.52,0,0,1,1-.7c.16-.1.28-.13.4-.2a.9.9,0,0,1,.19-.08.88.88,0,0,1,1.14.52A.87.87,0,0,1,173.36,360.71Z"/><path class="cls-13" d="M178.05,363.76a1.51,1.51,0,0,1-.09.65,2.9,2.9,0,0,1-.68,1.17,3.83,3.83,0,0,1-.55.46,2.55,2.55,0,0,1-.58.28,1.75,1.75,0,0,1-.65.11,1,1,0,0,1-.95-1.05l0-.2,0-.08a2.49,2.49,0,0,1,.22-.51,3.56,3.56,0,0,1,.63-.81,3.75,3.75,0,0,1,.85-.61c.26-.13.53-.23.53-.23a.92.92,0,0,1,1.16.56,1.09,1.09,0,0,1,0,.17Z"/><path class="cls-13" d="M184.22,367s0,.09,0,.23a2.62,2.62,0,0,1-.24.6,4.35,4.35,0,0,1-1.22,1.45,5.34,5.34,0,0,1-.88.52,4.13,4.13,0,0,1-.85.27,2.61,2.61,0,0,1-.89,0,.91.91,0,0,1-.55-1.47l0-.05a4.38,4.38,0,0,1,.5-.51c.31-.27.7-.57,1.11-.86s.83-.55,1.19-.76c.18-.11.31-.15.45-.23l.21-.1a.85.85,0,0,1,1.11.45A.81.81,0,0,1,184.22,367Z"/><circle class="cls-14" cx="234.49" cy="288.16" r="42.64"/><path class="cls-3" d="M256.48,263.59h-36l-2.85,4.52h13.23s5.53.84,6.2,6.2H219.45l-2.85,5.63,22.45.06s-3,11.73-20.77,9.55l.17,5.37L239.05,319h9.72L228,293.57s17.34.65,18.85-13.59h7.5l3-5.33H246.93s-.67-5.86-3.69-7.2H253.8Z"/><ellipse class="cls-4" cx="323.26" cy="354.45" rx="36.17" ry="32.06" transform="translate(-41.81 665.68) rotate(-88.08)"/><ellipse class="cls-4" cx="327.43" cy="354.32" rx="36.17" ry="27.9" transform="translate(-37.65 669.7) rotate(-88.08)"/><ellipse class="cls-15" cx="327.43" cy="354.32" rx="27.03" ry="20.85" transform="translate(-37.64 669.71) rotate(-88.08)"/><ellipse class="cls-16" cx="327.43" cy="354.32" rx="23.6" ry="18.2" transform="translate(-37.65 669.7) rotate(-88.08)"/><path class="cls-5" d="M328.64,318.17c-15.4-.52-28.42,15.25-29.09,35.21s11.27,36.57,26.67,37.08,28.42-15.25,29.09-35.21S344,318.68,328.64,318.17Zm23.06,37c-.58,17.38-11.92,31.1-25.32,30.65s-23.8-14.9-23.22-32.28,11.92-31.1,25.32-30.65S352.28,337.75,351.7,355.13Z"/><path class="cls-5" d="M337.61,340.17H320.84l-1.33,2.46h6.17a3.72,3.72,0,0,1,2.88,3.37h-8.19L319,349.06l10.46,0s-1.41,6.37-9.68,5.19l.08,2.91,9.6,13.12H334l-9.67-13.85s8.08.36,8.78-7.38h3.49l1.38-2.9h-4.83s-.32-3.18-1.72-3.91h4.91Z"/><path class="cls-4" d="M334.7,322.39a.62.62,0,0,0,0-1.24.62.62,0,0,0,0,1.24Z"/><path class="cls-4" d="M340.42,325.14h.11a.59.59,0,0,0,.23-.05.46.46,0,0,0,.2-.13.49.49,0,0,0,.13-.2.53.53,0,0,0,.06-.24l0-.17a.63.63,0,0,0-.16-.27l-.12-.1a.68.68,0,0,0-.31-.08h-.11a.47.47,0,0,0-.24.05.57.57,0,0,0-.33.33.47.47,0,0,0-.05.24l0,.16a.61.61,0,0,0,.16.28l.13.09a.56.56,0,0,0,.31.09Z"/><path class="cls-4" d="M344.12,328.63h.11a.39.39,0,0,0,.24-.05.57.57,0,0,0,.33-.33.47.47,0,0,0,.05-.24l0-.16a.61.61,0,0,0-.16-.28l-.13-.09a.56.56,0,0,0-.31-.09h-.11a.46.46,0,0,0-.23.06.37.37,0,0,0-.2.12.49.49,0,0,0-.13.2.53.53,0,0,0-.06.24l0,.17a.63.63,0,0,0,.16.27l.12.1a.68.68,0,0,0,.31.08Z"/><path class="cls-4" d="M347.21,332.14v.11a.52.52,0,0,0,.05.24.63.63,0,0,0,.13.2.41.41,0,0,0,.2.12.48.48,0,0,0,.24.06l.16,0a.59.59,0,0,0,.28-.15l.1-.13a.68.68,0,0,0,.08-.31v-.11a.52.52,0,0,0-.05-.24.63.63,0,0,0-.13-.2.53.53,0,0,0-.2-.13.64.64,0,0,0-.24-.05l-.16,0a.71.71,0,0,0-.28.16l-.1.13a.65.65,0,0,0-.08.31Z"/><path class="cls-4" d="M349.84,337.21a.62.62,0,0,0,0-1.24.62.62,0,0,0,0,1.24Z"/><path class="cls-4" d="M351.31,342.11l.1.1a.49.49,0,0,0,.2.13.42.42,0,0,0,.24.05.39.39,0,0,0,.24-.05.44.44,0,0,0,.2-.13l.1-.12a.69.69,0,0,0,.08-.32l0-.16a.53.53,0,0,0-.16-.27l-.1-.11a.63.63,0,0,0-.2-.13.52.52,0,0,0-.24-.05.47.47,0,0,0-.24.05.46.46,0,0,0-.2.13l-.1.13a.65.65,0,0,0-.08.31l0,.16a.61.61,0,0,0,.16.28Z"/><path class="cls-4" d="M352.91,348.43a.62.62,0,0,0,0-1.24.62.62,0,0,0,0,1.24Z"/><path class="cls-4" d="M353.65,355.42a.62.62,0,0,0,0-1.24.62.62,0,0,0,0,1.24Z"/><path class="cls-4" d="M352.59,362.72a.62.62,0,0,0,0-1.24.62.62,0,0,0,0,1.24Z"/><path class="cls-4" d="M351.17,368h-.05l-.18,0h0a.63.63,0,0,0-.19,0h0l-.16.07h0l-.13.1h0l-.1.12h0v0l-.06.16s0,0,0,0a.42.42,0,0,0,0,.25.39.39,0,0,0,.07.23.44.44,0,0,0,.16.17.53.53,0,0,0,.21.11l.16,0a.69.69,0,0,0,.32-.08l.12-.1a.63.63,0,0,0,.16-.27s0,0,0-.05l-.06.15,0,0-.1.12,0,0-.12.1h0l-.15.06h0l-.16,0H351l-.16,0,0,0a.7.7,0,0,0,.25,0,.49.49,0,0,0,.23-.08.44.44,0,0,0,.17-.16.43.43,0,0,0,.11-.21l0-.16a.62.62,0,0,0-.09-.32l-.1-.12a.53.53,0,0,0-.27-.16Z"/><path class="cls-4" d="M347.32,374.8v.11a.42.42,0,0,0,.05.24.49.49,0,0,0,.13.2.46.46,0,0,0,.2.13.6.6,0,0,0,.24,0l.16,0a.61.61,0,0,0,.27-.16l.1-.13a.56.56,0,0,0,.09-.31v-.11a.53.53,0,0,0-.06-.24.49.49,0,0,0-.13-.2.37.37,0,0,0-.2-.12.46.46,0,0,0-.23-.06l-.17,0a.56.56,0,0,0-.27.15l-.1.13a.58.58,0,0,0-.08.31Z"/><path class="cls-4" d="M343.28,381.77a.62.62,0,0,0,0-1.23.62.62,0,0,0,0,1.23Z"/><path class="cls-4" d="M336.82,386.33a.62.62,0,0,0,0-1.24.62.62,0,0,0,0,1.24Z"/><path class="cls-4" d="M329.73,388.44a.62.62,0,0,0,0-1.24.62.62,0,0,0,0,1.24Z"/><path class="cls-4" d="M322.11,388h.1a.47.47,0,0,0,.24,0,.57.57,0,0,0,.33-.33.47.47,0,0,0,.05-.24l0-.16a.61.61,0,0,0-.16-.28l-.13-.09a.56.56,0,0,0-.31-.09h-.1a.6.6,0,0,0-.24.05.46.46,0,0,0-.2.13.49.49,0,0,0-.13.2.42.42,0,0,0-.05.24l0,.17a.63.63,0,0,0,.16.27l.12.1a.69.69,0,0,0,.32.08Z"/><path class="cls-4" d="M316.28,386a.62.62,0,0,0,0-1.24.62.62,0,0,0,0,1.24Z"/><path class="cls-4" d="M310.67,381.35a.62.62,0,0,0,0-1.24.62.62,0,0,0,0,1.24Z"/><path class="cls-4" d="M306.23,375.42a.62.62,0,0,0,0-1.24.62.62,0,0,0,0,1.24Z"/><path class="cls-4" d="M303.05,368.75a.62.62,0,0,0,0-1.24.62.62,0,0,0,0,1.24Z"/><path class="cls-4" d="M301.57,361.45a.62.62,0,0,0,0-1.24.62.62,0,0,0,0,1.24Z"/><path class="cls-4" d="M301.25,353.51a.62.62,0,0,0,0-1.24.62.62,0,0,0,0,1.24Z"/><path class="cls-4" d="M302.52,345.15a.62.62,0,0,0,0-1.24.62.62,0,0,0,0,1.24Z"/><path class="cls-4" d="M304.64,338.9a.62.62,0,0,0,0-1.24.62.62,0,0,0,0,1.24Z"/><path class="cls-4" d="M307.81,332.76a.62.62,0,0,0,0-1.24.62.62,0,0,0,0,1.24Z"/><path class="cls-4" d="M312.26,327.89a.62.62,0,0,0,0-1.24.62.62,0,0,0,0,1.24Z"/><path class="cls-4" d="M317.24,324.19a.62.62,0,0,0,0-1.24.62.62,0,0,0,0,1.24Z"/><path class="cls-4" d="M322.85,322.17a.62.62,0,0,0,0-1.24.62.62,0,0,0,0,1.24Z"/><path class="cls-4" d="M328.67,321.54a.62.62,0,0,0,0-1.24.62.62,0,0,0,0,1.24Z"/><path class="cls-13" d="M327.65,311.07a3.51,3.51,0,0,1-.8.4,5.45,5.45,0,0,1-1.76.34,5,5,0,0,1-1.76-.24,3.5,3.5,0,0,1-.8-.38,1.33,1.33,0,0,1-.31-1.84,1.42,1.42,0,0,1,.3-.3,3.28,3.28,0,0,1,.8-.39,4.91,4.91,0,0,1,1.75-.27,5.53,5.53,0,0,1,1.77.32,3.51,3.51,0,0,1,.8.4,1.21,1.21,0,0,1,.28,1.69A1.72,1.72,0,0,1,327.65,311.07Z"/><path class="cls-13" d="M327.31,305.52a2,2,0,0,1-.57.53,3.47,3.47,0,0,1-1.46.54,3.27,3.27,0,0,1-1.53-.18,2.32,2.32,0,0,1-.67-.4,1.41,1.41,0,0,1-.06-2l.07-.08.07-.06a2.36,2.36,0,0,1,.58-.37,3.09,3.09,0,0,1,1.22-.32,3.73,3.73,0,0,1,1.27.15,3.8,3.8,0,0,1,.65.28,1.29,1.29,0,0,1,.53,1.75l-.05.08Z"/><path class="cls-13" d="M326.7,300.85a1.22,1.22,0,0,1-.18.16,2.9,2.9,0,0,1-.55.31,4.1,4.1,0,0,1-3.47-.07,2.7,2.7,0,0,1-.7-.52,1.34,1.34,0,0,1,.12-1.89,1.24,1.24,0,0,1,.23-.17l.07,0a3,3,0,0,1,.72-.26,4.14,4.14,0,0,1,1.43-.12,5.17,5.17,0,0,1,1.43.31,4.85,4.85,0,0,1,.7.35,1.21,1.21,0,0,1,.42,1.67,1.12,1.12,0,0,1-.19.24Z"/><path class="cls-13" d="M326,294.78l-.17.18a2.75,2.75,0,0,1-.54.37,4.33,4.33,0,0,1-1.8.51,4.17,4.17,0,0,1-1.83-.31,2.55,2.55,0,0,1-.76-.48,1.32,1.32,0,0,1,0-1.87,1.12,1.12,0,0,1,.24-.19l.08-.05a3.31,3.31,0,0,1,.72-.31,4.9,4.9,0,0,1,1.44-.21,5.58,5.58,0,0,1,1.47.18c.22,0,.37.13.52.17l.23.1a1.23,1.23,0,0,1,.58,1.65A1.67,1.67,0,0,1,326,294.78Z"/></g></g></svg>