<svg id="Layer_1" data-name="Layer 1" xmlns="http://www.w3.org/2000/svg" viewBox="0 0 499 467"><defs><style>.cls-1{fill:#fc869c;}.cls-2{fill:#c0d8fb;}.cls-3{fill:#2e3552;}.cls-4{fill:#dceaff;}.cls-5{fill:#ffa412;}.cls-6{fill:#ffb93e;}.cls-7,.cls-8{fill:#e2810e;}.cls-8{opacity:0.5;}.cls-9{fill:#ffeddc;}.cls-10{fill:#db6a1d;}.cls-11{fill:#e5c1a1;}.cls-12{fill:#f9ddbf;}.cls-13{fill:#233862;}.cls-14{fill:#ed7d2b;}.cls-15{fill:#ffb27d;}.cls-16{fill:#f99746;}.cls-17{fill:#ed975d;}.cls-18{fill:#2b478b;}.cls-19{fill:#fff;}.cls-20{fill:#ebf3fa;}</style></defs><title>vectorss</title><path class="cls-1" d="M60.53,383.94s-37.23-71.6,2-133.48C232.28-16.94,481.69,157.09,407,271.85c-30.79,47.32,66.09,57.57,37,112.21Z"/><polygon class="cls-2" points="404.58 235.01 361.99 249.09 370.54 256.22 370.54 256.22 333.68 294.8 301.38 267.06 172.44 372.72 173.57 372.73 205.69 372.73 301.06 294.59 335.12 323.83 386.77 269.75 386.77 269.75 396 277.44 404.58 235.01"/><rect class="cls-3" x="23.49" y="383.25" width="440.85" height="1.17" rx="0.58"/><polygon class="cls-4" points="198.08 317.35 188.06 383.93 99.3 370.57 99.3 370.57 61.9 364.95 71.92 298.37 141.75 308.88 198.08 317.35"/><path class="cls-2" d="M189.74,323.71,182,375.4,68.58,358.34l7.77-51.69Zm-8.39,45.11,5.86-39a4.84,4.84,0,0,0-4.07-5.51L82.57,309.2A4.91,4.91,0,0,0,77,313.34l-5.85,38.82a4.9,4.9,0,0,0,4.11,5.57l100.64,15.14A4.84,4.84,0,0,0,181.35,368.82Z"/><path class="cls-2" d="M127.07,354.93a14.06,14.06,0,1,1,16-11.81A14.07,14.07,0,0,1,127.07,354.93Z"/><polygon class="cls-4" points="206.25 317.66 153.44 359.43 97.76 289.04 97.76 289.04 74.3 259.38 127.1 217.61 170.91 272.99 206.25 317.66"/><path class="cls-2" d="M195.82,316.61l-41,32.43L83.68,259.11l41-32.43Zm-37,27.2,30.92-24.45a4.85,4.85,0,0,0,.79-6.81l-63.09-79.77a4.94,4.94,0,0,0-6.93-.8L89.76,256.33a4.89,4.89,0,0,0-.8,6.87L152.09,343A4.82,4.82,0,0,0,158.86,343.81Z"/><circle class="cls-2" cx="139.75" cy="287.86" r="14.06" transform="translate(-121.36 102.89) rotate(-28.79)"/><path class="cls-5" d="M320.39,243.5a2,2,0,0,1,.2-.32h0a1.19,1.19,0,0,1,.19-.2l.29-.3.08.06c1.5-.74,4.6,0,7.74,2.09,3.79,2.48,6.22,5.88,5.52,7.69l.11.08-.43.42-.06.07h0a1.6,1.6,0,0,1-.37.25h0c-1.48.78-4.62,0-7.79-2.06C322,248.77,319.56,245.28,320.39,243.5Z"/><path class="cls-6" d="M329.35,244.38c-3.86-2.52-7.67-3.12-8.5-1.34s1.61,5.28,5.47,7.8,7.67,3.12,8.51,1.33S333.21,246.9,329.35,244.38Z"/><path class="cls-5" d="M326.54,250.33a15.09,15.09,0,0,1-3.92-3.59c-.94-1.29-1.26-2.41-.91-3.17a1.48,1.48,0,0,1,1-.8c1.43-.41,3.95.38,6.43,2h0a15.34,15.34,0,0,1,3.93,3.6c.93,1.28,1.25,2.41.9,3.17a1.45,1.45,0,0,1-1,.79,3.18,3.18,0,0,1-.85.11A11.34,11.34,0,0,1,326.54,250.33Zm-3.76-7.28a1.19,1.19,0,0,0-.81.63c-.3.66,0,1.71.88,2.89a15,15,0,0,0,3.84,3.53,11.27,11.27,0,0,0,5.44,2.06,2.91,2.91,0,0,0,.76-.1,1.21,1.21,0,0,0,.82-.64c.3-.65,0-1.7-.88-2.89A15,15,0,0,0,329,245a11.27,11.27,0,0,0-5.44-2.06A2.54,2.54,0,0,0,322.78,243.05Z"/><path class="cls-5" d="M343.72,152.9a.74.74,0,0,1,.14-.22h0a.93.93,0,0,1,.14-.14l.2-.21.06,0c1.06-.52,3.27,0,5.49,1.48,2.69,1.76,4.42,4.18,3.92,5.46l.08.06-.3.3-.05,0h0a1,1,0,0,1-.26.18h0c-1.05.55-3.27,0-5.52-1.46C344.86,156.65,343.12,154.17,343.72,152.9Z"/><path class="cls-6" d="M350.07,153.53c-2.74-1.79-5.44-2.21-6-.95s1.14,3.75,3.89,5.54,5.44,2.21,6,.94S352.81,155.32,350.07,153.53Z"/><path class="cls-5" d="M348.08,157.76a10.86,10.86,0,0,1-2.79-2.55c-.66-.92-.89-1.72-.64-2.26a1.06,1.06,0,0,1,.7-.56c1-.29,2.81.27,4.57,1.42h0a10.64,10.64,0,0,1,2.78,2.55c.67.92.9,1.72.65,2.26a1.06,1.06,0,0,1-.71.56,2.2,2.2,0,0,1-.6.07A8,8,0,0,1,348.08,157.76Zm-2.67-5.17a.85.85,0,0,0-.58.45c-.21.46,0,1.21.63,2.05a10.58,10.58,0,0,0,2.73,2.5,7.91,7.91,0,0,0,3.86,1.46,1.81,1.81,0,0,0,.54-.07.85.85,0,0,0,.58-.45c.21-.46,0-1.21-.63-2.05a10.58,10.58,0,0,0-2.73-2.5,7.91,7.91,0,0,0-3.86-1.46A1.81,1.81,0,0,0,345.41,152.59Z"/><path class="cls-5" d="M353.56,224.72a1,1,0,0,0-.15-.24h0l-.14-.14-.22-.22-.05,0c-1.1-.53-3.37,0-5.66,1.53-2.77,1.81-4.54,4.3-4,5.62l-.08.06.31.31,0,0h0a1,1,0,0,0,.27.19h0c1.09.57,3.38,0,5.69-1.51C352.37,228.57,354.17,226,353.56,224.72Z"/><path class="cls-6" d="M347,225.36c2.82-1.84,5.61-2.28,6.22-1s-1.19,3.85-4,5.69-5.6,2.28-6.21,1S344.19,227.21,347,225.36Z"/><path class="cls-5" d="M345,231.25a2,2,0,0,1-.62-.08,1.06,1.06,0,0,1-.73-.57c-.25-.56,0-1.38.66-2.32a11.15,11.15,0,0,1,2.87-2.63h0c1.81-1.19,3.66-1.76,4.7-1.46a1.09,1.09,0,0,1,.73.58c.25.55,0,1.38-.67,2.32a11.07,11.07,0,0,1-2.86,2.62A8.3,8.3,0,0,1,345,231.25Zm6.27-6.93a8.25,8.25,0,0,0-4,1.5,10.88,10.88,0,0,0-2.81,2.58c-.63.86-.86,1.63-.64,2.11a.9.9,0,0,0,.59.47,2.4,2.4,0,0,0,.56.06,8.12,8.12,0,0,0,4-1.5,10.85,10.85,0,0,0,2.81-2.57c.63-.87.87-1.64.65-2.12a.9.9,0,0,0-.6-.46A1.88,1.88,0,0,0,351.26,224.32Z"/><path class="cls-5" d="M321.59,174.13l.09-.14h0l.09-.09.13-.13,0,0c.67-.33,2.05,0,3.44.93,1.69,1.1,2.77,2.61,2.46,3.42l0,0-.18.19,0,0h0a.91.91,0,0,1-.16.11h0c-.66.35-2.05,0-3.46-.91C322.31,176.48,321.22,174.92,321.59,174.13Z"/><path class="cls-6" d="M325.57,174.53c-1.71-1.12-3.41-1.39-3.78-.6s.72,2.35,2.44,3.47,3.41,1.38,3.78.59S327.29,175.65,325.57,174.53Z"/><path class="cls-5" d="M324.32,177.17a6.78,6.78,0,0,1-1.74-1.6c-.42-.57-.56-1.07-.4-1.41a.64.64,0,0,1,.44-.35,4.18,4.18,0,0,1,2.86.89h0a6.78,6.78,0,0,1,1.74,1.6c.41.57.56,1.07.4,1.41a.64.64,0,0,1-.44.35,1.46,1.46,0,0,1-.38.05A5,5,0,0,1,324.32,177.17Zm-1.67-3.24a.54.54,0,0,0-.36.29c-.13.29,0,.75.39,1.28a6.89,6.89,0,0,0,1.71,1.57,5,5,0,0,0,2.42.91,1.22,1.22,0,0,0,.34,0,.55.55,0,0,0,.36-.28c.13-.29,0-.76-.39-1.29a6.68,6.68,0,0,0-1.71-1.56,5,5,0,0,0-2.42-.92A1.22,1.22,0,0,0,322.65,173.93Z"/><path class="cls-5" d="M193.27,228.24a1.78,1.78,0,0,0-.17-.27h0a1.29,1.29,0,0,0-.17-.16l-.24-.25-.07,0c-1.26-.61-3.86,0-6.5,1.76-3.19,2.08-5.23,4.94-4.64,6.47l-.09.06.35.36.06.05h0a1.41,1.41,0,0,0,.31.21h0c1.24.66,3.88,0,6.54-1.73C191.91,232.67,194,229.74,193.27,228.24Z"/><path class="cls-6" d="M185.74,229c3.25-2.12,6.45-2.62,7.15-1.12s-1.36,4.43-4.61,6.55-6.44,2.62-7.14,1.12S182.5,231.1,185.74,229Z"/><path class="cls-5" d="M183.41,235.76a2.6,2.6,0,0,1-.71-.09,1.24,1.24,0,0,1-.84-.67c-.29-.64,0-1.59.77-2.67a12.76,12.76,0,0,1,3.29-3h0c2.09-1.36,4.21-2,5.41-1.68a1.24,1.24,0,0,1,.83.67c.29.64,0,1.58-.76,2.67a12.77,12.77,0,0,1-3.3,3A9.52,9.52,0,0,1,183.41,235.76Zm7.21-8a9.38,9.38,0,0,0-4.57,1.73,12.79,12.79,0,0,0-3.23,3c-.72,1-1,1.88-.74,2.43a1,1,0,0,0,.68.54,2.55,2.55,0,0,0,.64.08,9.48,9.48,0,0,0,4.57-1.73,12.62,12.62,0,0,0,3.23-3c.73-1,1-1.88.74-2.43a1,1,0,0,0-.68-.54A2.49,2.49,0,0,0,190.62,227.78Z"/><path class="cls-5" d="M158.88,187.57a.86.86,0,0,0-.1-.16h0l-.1-.1-.14-.14,0,0c-.73-.36-2.25,0-3.79,1-1.85,1.21-3,2.88-2.7,3.77l0,0,.21.21,0,0h0a1.88,1.88,0,0,0,.18.12h0c.73.38,2.26,0,3.81-1C158.08,190.15,159.28,188.44,158.88,187.57Z"/><path class="cls-6" d="M154.49,188c1.89-1.23,3.76-1.53,4.16-.65s-.79,2.58-2.68,3.81-3.75,1.53-4.16.65S152.6,189.23,154.49,188Z"/><path class="cls-5" d="M153.14,191.94a1.34,1.34,0,0,1-.42-.05.71.71,0,0,1-.48-.39c-.18-.37,0-.92.44-1.55a7.67,7.67,0,0,1,1.92-1.76h0a4.58,4.58,0,0,1,3.15-1,.74.74,0,0,1,.48.39c.17.37,0,.92-.44,1.55a7.49,7.49,0,0,1-1.92,1.76A5.52,5.52,0,0,1,153.14,191.94Zm4.19-4.64a5.45,5.45,0,0,0-2.66,1,7.52,7.52,0,0,0-1.88,1.72c-.42.58-.58,1.1-.43,1.42a.59.59,0,0,0,.4.31,1.38,1.38,0,0,0,.37.05,5.52,5.52,0,0,0,2.66-1,7,7,0,0,0,1.88-1.73c.43-.58.58-1.09.44-1.41a.59.59,0,0,0-.4-.31A1.46,1.46,0,0,0,157.33,187.3Z"/><path class="cls-5" d="M189.92,199.36a.76.76,0,0,1,.12-.19h0l.12-.13.19-.18.05,0c.93-.46,2.87,0,4.83,1.31,2.37,1.55,3.89,3.68,3.45,4.81l.07.05-.26.26,0,0h0a1.34,1.34,0,0,1-.23.16h0c-.93.48-2.89,0-4.87-1.29C190.93,202.66,189.4,200.48,189.92,199.36Z"/><path class="cls-6" d="M195.51,199.92c-2.41-1.58-4.79-1.95-5.31-.84s1,3.3,3.42,4.87,4.8,2,5.32.84S197.93,201.49,195.51,199.92Z"/><path class="cls-5" d="M193.76,203.64a9.42,9.42,0,0,1-2.45-2.25c-.59-.8-.79-1.51-.57-2a.94.94,0,0,1,.62-.5c.89-.25,2.47.24,4,1.25h0a9.6,9.6,0,0,1,2.45,2.25c.58.8.79,1.51.57,2a.91.91,0,0,1-.62.5,2.19,2.19,0,0,1-.53.07A7.06,7.06,0,0,1,193.76,203.64Zm-2.35-4.56a.79.79,0,0,0-.51.4c-.19.41,0,1.07.55,1.81a9.26,9.26,0,0,0,2.41,2.2,7,7,0,0,0,3.39,1.29,1.75,1.75,0,0,0,.48-.06.76.76,0,0,0,.51-.4c.18-.41,0-1.07-.55-1.81a9.26,9.26,0,0,0-2.41-2.2,7,7,0,0,0-3.39-1.29A1.75,1.75,0,0,0,191.41,199.08Z"/><path class="cls-6" d="M282.51,379.51v2.92a1,1,0,0,1-.23.63,1.43,1.43,0,0,1-.63.42l-.25,0a.86.86,0,0,1-.23,0h-55.4a1.26,1.26,0,0,1-1.34-1.07v-3a1.27,1.27,0,0,1,1.34-1.07h55.4l.23,0a1,1,0,0,1,.25.06,1.28,1.28,0,0,1,.63.42A1,1,0,0,1,282.51,379.51Z"/><path class="cls-5" d="M255.3,383.55H225.62a1.17,1.17,0,0,1-1.19-1.07v-3a1.17,1.17,0,0,1,1.19-1.07h26A9,9,0,0,0,255.3,383.55Z"/><rect class="cls-5" x="275.14" y="378.38" width="0.63" height="5.17"/><rect class="cls-5" x="273.01" y="378.38" width="0.63" height="5.17"/><rect class="cls-5" x="270.45" y="378.38" width="0.63" height="5.17"/><rect class="cls-5" x="266.53" y="378.38" width="0.63" height="5.17"/><rect class="cls-5" x="262.39" y="378.38" width="0.63" height="5.17"/><rect class="cls-5" x="256.04" y="378.38" width="0.63" height="5.17"/><rect class="cls-5" x="250.09" y="378.38" width="0.63" height="5.17"/><rect class="cls-5" x="244.78" y="378.38" width="0.63" height="5.17"/><rect class="cls-5" x="277.17" y="378.38" width="0.63" height="5.17"/><rect class="cls-5" x="278.51" y="378.38" width="0.63" height="5.17"/><rect class="cls-5" x="279.8" y="378.38" width="0.63" height="5.17"/><path class="cls-5" d="M281.4,378.4v5.13a.86.86,0,0,1-.23,0h-.4v-5.17h.4Z"/><path class="cls-5" d="M282.28,378.88v4.18a1.43,1.43,0,0,1-.63.42v-5A1.28,1.28,0,0,1,282.28,378.88Z"/><path class="cls-6" d="M276.58,374.33v2.93a1,1,0,0,1-.23.62,1.3,1.3,0,0,1-.62.42,1,1,0,0,1-.25.06l-.24,0h-55.4a1.25,1.25,0,0,1-1.33-1.07.43.43,0,0,0,0-.05v-2.93a.43.43,0,0,0,0-.05,1.25,1.25,0,0,1,1.33-1.07h55.64l.25,0,0,0h0l.07,0h0l0,0,.07,0,.07.05.05,0h0l0,0,.09.09,0,0,0,0,0,.06A1,1,0,0,1,276.58,374.33Z"/><path class="cls-5" d="M249.38,378.38H219.7a1.16,1.16,0,0,1-1.19-1.07.43.43,0,0,0,0-.05v-2.93a.43.43,0,0,0,0-.05,1.16,1.16,0,0,1,1.19-1.07h26l0,.13A9.06,9.06,0,0,0,249.38,378.38Z"/><rect class="cls-5" x="269.21" y="373.21" width="0.63" height="5.17"/><rect class="cls-5" x="267.08" y="373.21" width="0.63" height="5.17"/><rect class="cls-5" x="264.53" y="373.21" width="0.63" height="5.17"/><rect class="cls-5" x="260.61" y="373.21" width="0.63" height="5.17"/><rect class="cls-5" x="256.47" y="373.21" width="0.63" height="5.17"/><rect class="cls-5" x="250.12" y="373.21" width="0.63" height="5.17"/><rect class="cls-5" x="244.17" y="373.21" width="0.63" height="5.17"/><rect class="cls-5" x="238.86" y="373.21" width="0.63" height="5.17"/><rect class="cls-5" x="271.24" y="373.21" width="0.63" height="5.17"/><rect class="cls-5" x="272.58" y="373.21" width="0.63" height="5.17"/><rect class="cls-5" x="273.88" y="373.21" width="0.63" height="5.17"/><path class="cls-5" d="M275.48,373.23v5.13l-.24,0h-.39v-5.17h.39A1,1,0,0,1,275.48,373.23Z"/><path class="cls-5" d="M276.35,373.71v4.17a1.3,1.3,0,0,1-.62.42v-5A1.39,1.39,0,0,1,276.35,373.71Z"/><path class="cls-6" d="M279.45,369.29v2.92a1,1,0,0,1-.23.63,1.33,1.33,0,0,1-.63.42,1,1,0,0,1-.25.06l-.23,0h-55.4a1.52,1.52,0,0,1-.62-.13,1.16,1.16,0,0,1-.72-.89v-3.09a1.26,1.26,0,0,1,1.34-1.07h55.4l.23,0a1.83,1.83,0,0,1,.25.06,1.33,1.33,0,0,1,.63.42A1,1,0,0,1,279.45,369.29Z"/><path class="cls-5" d="M252.24,373.34H222.56a1.27,1.27,0,0,1-.55-.13,1.13,1.13,0,0,1-.64-.89v-3.09a1.17,1.17,0,0,1,1.19-1.07h26a9,9,0,0,0,3.46,5Z"/><rect class="cls-5" x="272.08" y="368.16" width="0.63" height="5.17"/><rect class="cls-5" x="269.94" y="368.16" width="0.63" height="5.17"/><rect class="cls-5" x="267.39" y="368.16" width="0.63" height="5.17"/><rect class="cls-5" x="263.47" y="368.16" width="0.63" height="5.17"/><rect class="cls-5" x="259.33" y="368.16" width="0.63" height="5.17"/><rect class="cls-5" x="252.98" y="368.16" width="0.63" height="5.17"/><rect class="cls-5" x="247.03" y="368.16" width="0.63" height="5.17"/><rect class="cls-5" x="241.72" y="368.16" width="0.63" height="5.17"/><rect class="cls-5" x="274.1" y="368.16" width="0.63" height="5.17"/><rect class="cls-5" x="275.45" y="368.16" width="0.63" height="5.17"/><rect class="cls-5" x="276.74" y="368.16" width="0.63" height="5.17"/><path class="cls-5" d="M278.34,368.18v5.14l-.23,0h-.4v-5.18h.4Z"/><path class="cls-5" d="M279.22,368.66v4.18a1.33,1.33,0,0,1-.63.42v-5A1.33,1.33,0,0,1,279.22,368.66Z"/><path class="cls-6" d="M280.77,364.12V367a1,1,0,0,1-.23.63,1.3,1.3,0,0,1-.62.42l-.25.06H224a1.25,1.25,0,0,1-1.33-1.06.13.13,0,0,1,0-.06v-2.92a.13.13,0,0,1,0-.06,1.22,1.22,0,0,1,1.18-1.06h55.55l.24,0a1.14,1.14,0,0,1,.25.06,1.3,1.3,0,0,1,.62.42A1,1,0,0,1,280.77,364.12Z"/><path class="cls-5" d="M253.57,368.16H223.89a1.16,1.16,0,0,1-1.19-1.06.13.13,0,0,1,0-.06v-2.92a.13.13,0,0,1,0-.06,1.15,1.15,0,0,1,1.05-1.06h26.18A9,9,0,0,0,253.57,368.16Z"/><rect class="cls-5" x="273.4" y="362.99" width="0.63" height="5.17"/><rect class="cls-5" x="271.27" y="362.99" width="0.63" height="5.17"/><rect class="cls-5" x="268.72" y="362.99" width="0.63" height="5.17"/><rect class="cls-5" x="264.8" y="362.99" width="0.63" height="5.17"/><rect class="cls-5" x="260.66" y="362.99" width="0.63" height="5.17"/><rect class="cls-5" x="254.3" y="362.99" width="0.63" height="5.17"/><rect class="cls-5" x="248.36" y="362.99" width="0.63" height="5.17"/><rect class="cls-5" x="243.05" y="362.99" width="0.63" height="5.17"/><rect class="cls-5" x="275.43" y="362.99" width="0.63" height="5.17"/><rect class="cls-5" x="276.77" y="362.99" width="0.63" height="5.17"/><rect class="cls-5" x="278.07" y="362.99" width="0.63" height="5.17"/><path class="cls-5" d="M279.67,363v5.14H279V363h.39Z"/><path class="cls-5" d="M280.54,363.49v4.18a1.37,1.37,0,0,1-.62.42v-5A1.3,1.3,0,0,1,280.54,363.49Z"/><path class="cls-6" d="M276.7,359v2.93a1,1,0,0,1-.23.62,1.28,1.28,0,0,1-.63.42l-.24.06H220a1.27,1.27,0,0,1-1.34-1.07v-3a.07.07,0,0,1,0,0,1.21,1.21,0,0,1,1-1h0a1.36,1.36,0,0,1,.29,0H275.6l.24,0a1.37,1.37,0,0,1,.63.43A1,1,0,0,1,276.7,359Z"/><path class="cls-5" d="M249.5,363H219.82a1.17,1.17,0,0,1-1.2-1.07v-3a.07.07,0,0,1,0,0,1.13,1.13,0,0,1,.92-1h.06l.21,0h26v0a9.05,9.05,0,0,0,3.63,5.12Z"/><rect class="cls-5" x="269.33" y="357.83" width="0.63" height="5.17"/><rect class="cls-5" x="267.2" y="357.83" width="0.63" height="5.17"/><rect class="cls-5" x="264.64" y="357.83" width="0.63" height="5.17"/><rect class="cls-5" x="260.73" y="357.83" width="0.63" height="5.17"/><rect class="cls-5" x="256.58" y="357.83" width="0.63" height="5.17"/><rect class="cls-5" x="250.23" y="357.83" width="0.63" height="5.17"/><rect class="cls-5" x="244.29" y="357.83" width="0.63" height="5.17"/><rect class="cls-5" x="238.98" y="357.83" width="0.63" height="5.17"/><rect class="cls-5" x="271.36" y="357.83" width="0.63" height="5.17"/><rect class="cls-5" x="272.7" y="357.83" width="0.63" height="5.17"/><rect class="cls-5" x="273.99" y="357.83" width="0.63" height="5.17"/><path class="cls-5" d="M275.6,357.85V363l-.24,0H275v-5.17h.39A1,1,0,0,1,275.6,357.85Z"/><path class="cls-5" d="M276.47,358.33v4.17a1.28,1.28,0,0,1-.63.42v-5A1.37,1.37,0,0,1,276.47,358.33Z"/><path class="cls-6" d="M276.58,353.82v2.92a1,1,0,0,1-.23.63,1.3,1.3,0,0,1-.62.42l-.2,0h0l-.24,0H219.61a1.21,1.21,0,0,1-1.1-1.05s0,0,0-.06v-2.92s0,0,0-.06a1.26,1.26,0,0,1,1.33-1.07h55.64a1,1,0,0,1,.25.06h.06l.07,0,.07,0,.07,0,.07,0,.05,0h0l0,0,.09.08,0,0,0,0,0,.06A1,1,0,0,1,276.58,353.82Z"/><path class="cls-5" d="M249.38,357.87H219.55a1.16,1.16,0,0,1-1-1.06s0,0,0-.06v-2.92s0,0,0-.06a1.17,1.17,0,0,1,1.19-1.07h26l0,.13a9.07,9.07,0,0,0,3.56,5Z"/><rect class="cls-5" x="269.21" y="352.69" width="0.63" height="5.17"/><rect class="cls-5" x="267.08" y="352.69" width="0.63" height="5.17"/><rect class="cls-5" x="264.53" y="352.69" width="0.63" height="5.17"/><rect class="cls-5" x="260.61" y="352.69" width="0.63" height="5.17"/><rect class="cls-5" x="256.47" y="352.69" width="0.63" height="5.17"/><rect class="cls-5" x="250.12" y="352.69" width="0.63" height="5.17"/><rect class="cls-5" x="244.17" y="352.69" width="0.63" height="5.17"/><rect class="cls-5" x="238.86" y="352.69" width="0.63" height="5.17"/><rect class="cls-5" x="271.24" y="352.69" width="0.63" height="5.17"/><rect class="cls-5" x="272.58" y="352.69" width="0.63" height="5.17"/><rect class="cls-5" x="273.88" y="352.69" width="0.63" height="5.17"/><path class="cls-5" d="M275.48,352.71v5.14l-.24,0h-.39v-5.18h.39Z"/><path class="cls-5" d="M276.35,353.19v4.18a1.3,1.3,0,0,1-.62.42v-5A1.3,1.3,0,0,1,276.35,353.19Z"/><path class="cls-6" d="M279.45,348.78v2.92a1,1,0,0,1-.23.62,1.42,1.42,0,0,1-.63.43l-.25.05a.86.86,0,0,1-.23,0h-55.4a1.38,1.38,0,0,1-.62-.13,1.16,1.16,0,0,1-.72-.89v-3.08a1.25,1.25,0,0,1,1.34-1.07h55.4l.23,0a1,1,0,0,1,.25.06,1.33,1.33,0,0,1,.63.42A1,1,0,0,1,279.45,348.78Z"/><path class="cls-5" d="M252.24,352.82H222.56a1.14,1.14,0,0,1-.55-.13,1.13,1.13,0,0,1-.64-.89v-3.08a1.17,1.17,0,0,1,1.19-1.07h26a9,9,0,0,0,3.46,5Z"/><rect class="cls-5" x="272.08" y="347.65" width="0.63" height="5.17"/><rect class="cls-5" x="269.94" y="347.65" width="0.63" height="5.17"/><rect class="cls-5" x="267.39" y="347.65" width="0.63" height="5.17"/><rect class="cls-5" x="263.47" y="347.65" width="0.63" height="5.17"/><rect class="cls-5" x="259.33" y="347.65" width="0.63" height="5.17"/><rect class="cls-5" x="252.98" y="347.65" width="0.63" height="5.17"/><rect class="cls-5" x="247.03" y="347.65" width="0.63" height="5.17"/><rect class="cls-5" x="241.72" y="347.65" width="0.63" height="5.17"/><rect class="cls-5" x="274.1" y="347.65" width="0.63" height="5.17"/><rect class="cls-5" x="275.45" y="347.65" width="0.63" height="5.17"/><rect class="cls-5" x="276.74" y="347.65" width="0.63" height="5.17"/><path class="cls-5" d="M278.34,347.67v5.13a.86.86,0,0,1-.23,0h-.4v-5.17h.4Z"/><path class="cls-5" d="M279.22,348.15v4.17a1.42,1.42,0,0,1-.63.43v-5A1.33,1.33,0,0,1,279.22,348.15Z"/><path class="cls-6" d="M284,343.6v2.92a1,1,0,0,1-.23.63,1.3,1.3,0,0,1-.62.42,1.14,1.14,0,0,1-.25.06l-.24,0h-55.4a1.26,1.26,0,0,1-1.33-1.07.13.13,0,0,1,0-.06V343.6a.07.07,0,0,1,0-.05,1.22,1.22,0,0,1,1.18-1.06h55.55a1,1,0,0,1,.24,0l.25.05a1.45,1.45,0,0,1,.62.42A1,1,0,0,1,284,343.6Z"/><path class="cls-5" d="M256.77,347.65H227.09a1.17,1.17,0,0,1-1.19-1.07.13.13,0,0,1,0-.06V343.6a.07.07,0,0,1,0-.05,1.15,1.15,0,0,1,1-1.06h26.18A9,9,0,0,0,256.77,347.65Z"/><rect class="cls-5" x="276.6" y="342.48" width="0.63" height="5.17"/><rect class="cls-5" x="274.47" y="342.48" width="0.63" height="5.17"/><rect class="cls-5" x="271.92" y="342.48" width="0.63" height="5.17"/><rect class="cls-5" x="268" y="342.48" width="0.63" height="5.17"/><rect class="cls-5" x="263.86" y="342.48" width="0.63" height="5.17"/><rect class="cls-5" x="257.51" y="342.48" width="0.63" height="5.17"/><rect class="cls-5" x="251.56" y="342.48" width="0.63" height="5.17"/><rect class="cls-5" x="246.25" y="342.48" width="0.63" height="5.17"/><rect class="cls-5" x="278.63" y="342.48" width="0.63" height="5.17"/><rect class="cls-5" x="279.97" y="342.48" width="0.63" height="5.17"/><rect class="cls-5" x="281.27" y="342.48" width="0.63" height="5.17"/><path class="cls-5" d="M282.87,342.5v5.13l-.24,0h-.39v-5.17h.39A1,1,0,0,1,282.87,342.5Z"/><path class="cls-5" d="M283.74,343v4.18a1.3,1.3,0,0,1-.62.42v-5A1.45,1.45,0,0,1,283.74,343Z"/><path class="cls-6" d="M276.7,338.44v2.92a1,1,0,0,1-.23.63,1.28,1.28,0,0,1-.63.42l-.24.06H220a1.28,1.28,0,0,1-1.34-1.07v-3a1.28,1.28,0,0,1,1.34-1.07H275.6l.24.06.12,0,.07,0h0l.07,0h0l.06,0,.14.09,0,0h0l0,0h0l0,0,.05.06A1,1,0,0,1,276.7,338.44Z"/><path class="cls-5" d="M249.5,342.49H219.82a1.18,1.18,0,0,1-1.2-1.07v-3a1.18,1.18,0,0,1,1.2-1.07h26a.56.56,0,0,0,0,.12,9,9,0,0,0,3.6,5.05Z"/><rect class="cls-5" x="269.33" y="337.31" width="0.63" height="5.17"/><rect class="cls-5" x="267.2" y="337.31" width="0.63" height="5.17"/><rect class="cls-5" x="264.64" y="337.31" width="0.63" height="5.17"/><rect class="cls-5" x="260.73" y="337.31" width="0.63" height="5.17"/><rect class="cls-5" x="256.58" y="337.31" width="0.63" height="5.17"/><rect class="cls-5" x="250.23" y="337.31" width="0.63" height="5.17"/><rect class="cls-5" x="244.29" y="337.31" width="0.63" height="5.17"/><rect class="cls-5" x="238.98" y="337.31" width="0.63" height="5.17"/><rect class="cls-5" x="271.36" y="337.31" width="0.63" height="5.17"/><rect class="cls-5" x="272.7" y="337.31" width="0.63" height="5.17"/><rect class="cls-5" x="273.99" y="337.31" width="0.63" height="5.17"/><path class="cls-5" d="M275.6,337.33v5.14l-.24,0H275v-5.18h.39Z"/><path class="cls-5" d="M276.47,337.81V342a1.28,1.28,0,0,1-.63.42v-5A1.28,1.28,0,0,1,276.47,337.81Z"/><path class="cls-6" d="M280.77,333.39v2.92a1,1,0,0,1-.23.63,1.37,1.37,0,0,1-.62.42l-.25.06H224a1.45,1.45,0,0,1-.59-.12,1.13,1.13,0,0,1-.74-.9v0a.13.13,0,0,1,0-.06v-2.92a.13.13,0,0,1,0-.06,1.22,1.22,0,0,1,1.18-1.06h55.55l.24,0a1.14,1.14,0,0,1,.25.06,1.3,1.3,0,0,1,.62.42A1,1,0,0,1,280.77,333.39Z"/><path class="cls-5" d="M253.57,337.43H223.89a1.18,1.18,0,0,1-.53-.12,1.13,1.13,0,0,1-.66-.9v0a.13.13,0,0,1,0-.06v-2.92a.13.13,0,0,1,0-.06,1.15,1.15,0,0,1,1.05-1.06h26.18a9,9,0,0,0,3.47,5Z"/><rect class="cls-5" x="273.4" y="332.26" width="0.63" height="5.17"/><rect class="cls-5" x="271.27" y="332.26" width="0.63" height="5.17"/><rect class="cls-5" x="268.72" y="332.26" width="0.63" height="5.17"/><rect class="cls-5" x="264.8" y="332.26" width="0.63" height="5.17"/><rect class="cls-5" x="260.66" y="332.26" width="0.63" height="5.17"/><rect class="cls-5" x="254.3" y="332.26" width="0.63" height="5.17"/><rect class="cls-5" x="248.36" y="332.26" width="0.63" height="5.17"/><rect class="cls-5" x="243.05" y="332.26" width="0.63" height="5.17"/><rect class="cls-5" x="275.43" y="332.26" width="0.63" height="5.17"/><rect class="cls-5" x="276.77" y="332.26" width="0.63" height="5.17"/><rect class="cls-5" x="278.07" y="332.26" width="0.63" height="5.17"/><path class="cls-5" d="M279.67,332.28v5.14H279v-5.17h.39Z"/><path class="cls-5" d="M280.54,332.76v4.18a1.37,1.37,0,0,1-.62.42v-5A1.3,1.3,0,0,1,280.54,332.76Z"/><path class="cls-6" d="M282.51,328.22v2.92a1,1,0,0,1-.23.63,1.28,1.28,0,0,1-.63.42,1,1,0,0,1-.25.06H225.77a1.27,1.27,0,0,1-1.34-1.07v-3a1.26,1.26,0,0,1,1.34-1.07h55.4a.86.86,0,0,1,.23,0l.25.05a1.43,1.43,0,0,1,.63.42A1,1,0,0,1,282.51,328.22Z"/><path class="cls-5" d="M255.3,332.27H225.62a1.17,1.17,0,0,1-1.19-1.07v-3a1.17,1.17,0,0,1,1.19-1.07h26a9,9,0,0,0,3.63,5.16Z"/><rect class="cls-5" x="275.14" y="327.1" width="0.63" height="5.17"/><rect class="cls-5" x="273.01" y="327.1" width="0.63" height="5.17"/><rect class="cls-5" x="270.45" y="327.1" width="0.63" height="5.17"/><rect class="cls-5" x="266.53" y="327.1" width="0.63" height="5.17"/><rect class="cls-5" x="262.39" y="327.1" width="0.63" height="5.17"/><rect class="cls-5" x="256.04" y="327.1" width="0.63" height="5.17"/><rect class="cls-5" x="250.09" y="327.1" width="0.63" height="5.17"/><rect class="cls-5" x="244.78" y="327.1" width="0.63" height="5.17"/><rect class="cls-5" x="277.17" y="327.1" width="0.63" height="5.17"/><rect class="cls-5" x="278.51" y="327.1" width="0.63" height="5.17"/><rect class="cls-5" x="279.8" y="327.1" width="0.63" height="5.17"/><path class="cls-5" d="M281.4,327.12v5.13l-.23,0h-.4V327.1h.4A.86.86,0,0,1,281.4,327.12Z"/><path class="cls-5" d="M282.28,327.59v4.18a1.28,1.28,0,0,1-.63.42v-5A1.43,1.43,0,0,1,282.28,327.59Z"/><path class="cls-6" d="M279.63,323v2.92a1,1,0,0,1-.23.63,1.33,1.33,0,0,1-.63.42,1,1,0,0,1-.25.06l-.23,0h-55.4a1.26,1.26,0,0,1-1.34-1.07v-3a1.25,1.25,0,0,1,1.34-1.06h55.4a.86.86,0,0,1,.23,0l.25.05a1.49,1.49,0,0,1,.63.42A1,1,0,0,1,279.63,323Z"/><path class="cls-5" d="M252.42,327H222.74a1.17,1.17,0,0,1-1.19-1.07v-3a1.17,1.17,0,0,1,1.19-1.06h26A9,9,0,0,0,252.42,327Z"/><rect class="cls-5" x="272.26" y="321.84" width="0.63" height="5.17"/><rect class="cls-5" x="270.12" y="321.84" width="0.63" height="5.17"/><rect class="cls-5" x="267.57" y="321.84" width="0.63" height="5.17"/><rect class="cls-5" x="263.65" y="321.84" width="0.63" height="5.17"/><rect class="cls-5" x="259.51" y="321.84" width="0.63" height="5.17"/><rect class="cls-5" x="253.16" y="321.84" width="0.63" height="5.17"/><rect class="cls-5" x="247.21" y="321.84" width="0.63" height="5.17"/><rect class="cls-5" x="241.9" y="321.84" width="0.63" height="5.17"/><rect class="cls-5" x="274.28" y="321.84" width="0.63" height="5.17"/><rect class="cls-5" x="275.63" y="321.84" width="0.63" height="5.17"/><rect class="cls-5" x="276.92" y="321.84" width="0.63" height="5.17"/><path class="cls-5" d="M278.52,321.86V327l-.23,0h-.4v-5.17h.4A.86.86,0,0,1,278.52,321.86Z"/><path class="cls-5" d="M279.4,322.33v4.18a1.33,1.33,0,0,1-.63.42v-5A1.49,1.49,0,0,1,279.4,322.33Z"/><path class="cls-6" d="M273.7,317.79v2.92a1,1,0,0,1-.23.63,1.28,1.28,0,0,1-.63.42.94.94,0,0,1-.24.06l-.24,0H217a1.28,1.28,0,0,1-1.34-1.07v-3a1.27,1.27,0,0,1,1.34-1.06H272.6l.24.06h0l0,0,.07,0,0,0,0,0,.07,0,.07,0a.1.1,0,0,0,.05,0h0l0,0a.39.39,0,0,1,.1.08l0,0,0,0,.05.05A1,1,0,0,1,273.7,317.79Z"/><path class="cls-5" d="M246.5,321.84H216.82a1.18,1.18,0,0,1-1.2-1.07v-3a1.17,1.17,0,0,1,1.2-1.06h26a.56.56,0,0,1,0,.12A9.08,9.08,0,0,0,246.5,321.84Z"/><rect class="cls-5" x="266.33" y="316.67" width="0.63" height="5.17"/><rect class="cls-5" x="264.2" y="316.67" width="0.63" height="5.17"/><rect class="cls-5" x="261.65" y="316.67" width="0.63" height="5.17"/><rect class="cls-5" x="257.73" y="316.67" width="0.63" height="5.17"/><rect class="cls-5" x="253.59" y="316.67" width="0.63" height="5.17"/><rect class="cls-5" x="247.23" y="316.67" width="0.63" height="5.17"/><rect class="cls-5" x="241.29" y="316.67" width="0.63" height="5.17"/><rect class="cls-5" x="235.98" y="316.67" width="0.63" height="5.17"/><rect class="cls-5" x="268.36" y="316.67" width="0.63" height="5.17"/><rect class="cls-5" x="269.7" y="316.67" width="0.63" height="5.17"/><rect class="cls-5" x="271" y="316.67" width="0.63" height="5.17"/><path class="cls-5" d="M272.6,316.68v5.14l-.24,0H272v-5.17h.63Z"/><path class="cls-5" d="M273.47,317.16v4.18a1.28,1.28,0,0,1-.63.42v-5A1.28,1.28,0,0,1,273.47,317.16Z"/><path class="cls-6" d="M276.57,312.75v2.92a1,1,0,0,1-.23.63,1.55,1.55,0,0,1-.63.42l-.25,0a.9.9,0,0,1-.23,0h-55.4a1.52,1.52,0,0,1-.62-.12,1.19,1.19,0,0,1-.72-.89v-3.09a1.26,1.26,0,0,1,1.34-1.07h55.4l.23,0a1,1,0,0,1,.25.06,1.38,1.38,0,0,1,.63.42A1,1,0,0,1,276.57,312.75Z"/><path class="cls-5" d="M249.36,316.79H219.68a1.26,1.26,0,0,1-.55-.12,1.16,1.16,0,0,1-.64-.89v-3.09a1.17,1.17,0,0,1,1.19-1.07h26a9.09,9.09,0,0,0,3.46,5.05Z"/><rect class="cls-5" x="269.2" y="311.62" width="0.63" height="5.17"/><rect class="cls-5" x="267.06" y="311.62" width="0.63" height="5.17"/><rect class="cls-5" x="264.51" y="311.62" width="0.63" height="5.17"/><rect class="cls-5" x="260.59" y="311.62" width="0.63" height="5.17"/><rect class="cls-5" x="256.45" y="311.62" width="0.63" height="5.17"/><rect class="cls-5" x="250.1" y="311.62" width="0.63" height="5.17"/><rect class="cls-5" x="244.15" y="311.62" width="0.63" height="5.17"/><rect class="cls-5" x="238.84" y="311.62" width="0.63" height="5.17"/><rect class="cls-5" x="271.22" y="311.62" width="0.63" height="5.17"/><rect class="cls-5" x="272.56" y="311.62" width="0.63" height="5.17"/><rect class="cls-5" x="273.86" y="311.62" width="0.63" height="5.17"/><path class="cls-5" d="M275.46,311.64v5.13a.9.9,0,0,1-.23,0h-.4v-5.17h.4Z"/><path class="cls-5" d="M276.34,312.12v4.18a1.55,1.55,0,0,1-.63.42v-5A1.38,1.38,0,0,1,276.34,312.12Z"/><path class="cls-6" d="M277.89,307.57v2.93a1,1,0,0,1-.23.62,1.37,1.37,0,0,1-.63.43l-.24.05-.24,0h-55.4a1.27,1.27,0,0,1-1.34-1.07v-3a1.24,1.24,0,0,1,1.18-1.06h55.56l.24,0,.24,0a1.37,1.37,0,0,1,.63.43A1,1,0,0,1,277.89,307.57Z"/><path class="cls-5" d="M250.69,311.62H221a1.18,1.18,0,0,1-1.2-1.07v-3a1.16,1.16,0,0,1,1.06-1.06h26.18A9,9,0,0,0,250.69,311.62Z"/><rect class="cls-5" x="270.52" y="306.45" width="0.63" height="5.17"/><rect class="cls-5" x="268.39" y="306.45" width="0.63" height="5.17"/><rect class="cls-5" x="265.83" y="306.45" width="0.63" height="5.17"/><rect class="cls-5" x="261.92" y="306.45" width="0.63" height="5.17"/><rect class="cls-5" x="257.77" y="306.45" width="0.63" height="5.17"/><rect class="cls-5" x="251.42" y="306.45" width="0.63" height="5.17"/><rect class="cls-5" x="245.48" y="306.45" width="0.63" height="5.17"/><rect class="cls-5" x="240.17" y="306.45" width="0.63" height="5.17"/><rect class="cls-5" x="272.55" y="306.45" width="0.63" height="5.17"/><rect class="cls-5" x="273.89" y="306.45" width="0.63" height="5.17"/><rect class="cls-5" x="275.19" y="306.45" width="0.63" height="5.17"/><path class="cls-5" d="M276.79,306.47v5.13l-.24,0h-.39v-5.17h.39A1,1,0,0,1,276.79,306.47Z"/><path class="cls-5" d="M277.66,307v4.17a1.28,1.28,0,0,1-.63.42v-5A1.37,1.37,0,0,1,277.66,307Z"/><path class="cls-6" d="M273.82,302.41v2.92a1,1,0,0,1-.23.63,1.28,1.28,0,0,1-.63.42,1.05,1.05,0,0,1-.24.06H217.08a1.28,1.28,0,0,1-1.34-1.07v-3a.06.06,0,0,1,0,0,1.21,1.21,0,0,1,1-1h0a1.37,1.37,0,0,1,.29,0h55.64a2.1,2.1,0,0,1,.24.06,1.28,1.28,0,0,1,.63.42A1,1,0,0,1,273.82,302.41Z"/><path class="cls-5" d="M246.62,306.46H216.94a1.18,1.18,0,0,1-1.2-1.07v-3a.06.06,0,0,1,0,0,1.16,1.16,0,0,1,.92-1H243v0a9.06,9.06,0,0,0,3.62,5.13Z"/><rect class="cls-5" x="266.45" y="301.29" width="0.63" height="5.17"/><rect class="cls-5" x="264.32" y="301.29" width="0.63" height="5.17"/><rect class="cls-5" x="261.76" y="301.29" width="0.63" height="5.17"/><rect class="cls-5" x="257.84" y="301.29" width="0.63" height="5.17"/><rect class="cls-5" x="253.7" y="301.29" width="0.63" height="5.17"/><rect class="cls-5" x="247.35" y="301.29" width="0.63" height="5.17"/><rect class="cls-5" x="241.4" y="301.29" width="0.63" height="5.17"/><rect class="cls-5" x="236.09" y="301.29" width="0.63" height="5.17"/><rect class="cls-5" x="268.48" y="301.29" width="0.63" height="5.17"/><rect class="cls-5" x="269.82" y="301.29" width="0.63" height="5.17"/><rect class="cls-5" x="271.11" y="301.29" width="0.63" height="5.17"/><path class="cls-5" d="M272.72,301.3v5.14l-.24,0h-.39v-5.18h.39Z"/><path class="cls-5" d="M273.59,301.78V306a1.28,1.28,0,0,1-.63.42v-5A1.28,1.28,0,0,1,273.59,301.78Z"/><path class="cls-6" d="M273.7,297.28v2.92a.93.93,0,0,1-.23.62,1.37,1.37,0,0,1-.63.43l-.19,0h0a1,1,0,0,1-.24,0H216.72a1.22,1.22,0,0,1-1.1-1.05v-3a1.28,1.28,0,0,1,1.34-1.07H272.6a.94.94,0,0,1,.24.06h.07l.07,0,.07,0,.07,0,.07,0,.05,0h0l0,0,.1.09,0,0,0,0,.05.06A1,1,0,0,1,273.7,297.28Z"/><path class="cls-5" d="M246.5,301.32H216.67a1.15,1.15,0,0,1-1-1.06v-3a1.18,1.18,0,0,1,1.2-1.07h26a.5.5,0,0,1,0,.13,9.07,9.07,0,0,0,3.56,5Z"/><rect class="cls-5" x="266.33" y="296.15" width="0.63" height="5.17"/><rect class="cls-5" x="264.2" y="296.15" width="0.63" height="5.17"/><rect class="cls-5" x="261.65" y="296.15" width="0.63" height="5.17"/><rect class="cls-5" x="257.73" y="296.15" width="0.63" height="5.17"/><rect class="cls-5" x="253.59" y="296.15" width="0.63" height="5.17"/><rect class="cls-5" x="247.23" y="296.15" width="0.63" height="5.17"/><rect class="cls-5" x="241.29" y="296.15" width="0.63" height="5.17"/><rect class="cls-5" x="235.98" y="296.15" width="0.63" height="5.17"/><rect class="cls-5" x="268.36" y="296.15" width="0.63" height="5.17"/><rect class="cls-5" x="269.7" y="296.15" width="0.63" height="5.17"/><rect class="cls-5" x="271" y="296.15" width="0.63" height="5.17"/><path class="cls-5" d="M272.6,296.17v5.13a1,1,0,0,1-.24,0H272v-5.17h.39Z"/><path class="cls-5" d="M273.47,296.65v4.17a1.37,1.37,0,0,1-.63.43v-5A1.28,1.28,0,0,1,273.47,296.65Z"/><path class="cls-6" d="M276.57,292.23v2.92a1,1,0,0,1-.23.63,1.38,1.38,0,0,1-.63.42,1,1,0,0,1-.25.06l-.23,0h-55.4a1.52,1.52,0,0,1-.62-.13,1.16,1.16,0,0,1-.72-.89v-3.09a1.25,1.25,0,0,1,1.34-1.06h55.63l.25.06a1.38,1.38,0,0,1,.63.42A1,1,0,0,1,276.57,292.23Z"/><path class="cls-5" d="M249.36,296.28H219.68a1.27,1.27,0,0,1-.55-.13,1.13,1.13,0,0,1-.64-.89v-3.09a1.17,1.17,0,0,1,1.19-1.06h26a9,9,0,0,0,3.46,5Z"/><rect class="cls-5" x="269.2" y="291.11" width="0.63" height="5.17"/><rect class="cls-5" x="267.06" y="291.11" width="0.63" height="5.17"/><rect class="cls-5" x="264.51" y="291.11" width="0.63" height="5.17"/><rect class="cls-5" x="260.59" y="291.11" width="0.63" height="5.17"/><rect class="cls-5" x="256.45" y="291.11" width="0.63" height="5.17"/><rect class="cls-5" x="250.1" y="291.11" width="0.63" height="5.17"/><rect class="cls-5" x="244.15" y="291.11" width="0.63" height="5.17"/><rect class="cls-5" x="238.84" y="291.11" width="0.63" height="5.17"/><rect class="cls-5" x="271.22" y="291.11" width="0.63" height="5.17"/><rect class="cls-5" x="272.56" y="291.11" width="0.63" height="5.17"/><rect class="cls-5" x="273.86" y="291.11" width="0.63" height="5.17"/><path class="cls-5" d="M275.46,291.12v5.14l-.23,0h-.4v-5.17h.63Z"/><path class="cls-5" d="M276.34,291.6v4.18a1.38,1.38,0,0,1-.63.42v-5A1.46,1.46,0,0,1,276.34,291.6Z"/><path class="cls-6" d="M281.09,287.06V290a1,1,0,0,1-.23.63,1.28,1.28,0,0,1-.63.42.94.94,0,0,1-.24.06l-.24,0h-55.4A1.28,1.28,0,0,1,223,290v-3a1.25,1.25,0,0,1,1.18-1.06h55.56l.24,0a.94.94,0,0,1,.24.06,1.28,1.28,0,0,1,.63.42A1,1,0,0,1,281.09,287.06Z"/><path class="cls-5" d="M253.89,291.11H224.21A1.18,1.18,0,0,1,223,290v-3a1.17,1.17,0,0,1,1.06-1.06h26.18A9.05,9.05,0,0,0,253.89,291.11Z"/><rect class="cls-5" x="273.72" y="285.93" width="0.63" height="5.17"/><rect class="cls-5" x="271.59" y="285.93" width="0.63" height="5.17"/><rect class="cls-5" x="269.04" y="285.93" width="0.63" height="5.17"/><rect class="cls-5" x="265.12" y="285.93" width="0.63" height="5.17"/><rect class="cls-5" x="260.98" y="285.93" width="0.63" height="5.17"/><rect class="cls-5" x="254.62" y="285.93" width="0.63" height="5.17"/><rect class="cls-5" x="248.68" y="285.93" width="0.63" height="5.17"/><rect class="cls-5" x="243.37" y="285.93" width="0.63" height="5.17"/><rect class="cls-5" x="275.75" y="285.93" width="0.63" height="5.17"/><rect class="cls-5" x="277.09" y="285.93" width="0.63" height="5.17"/><rect class="cls-5" x="278.39" y="285.93" width="0.63" height="5.17"/><path class="cls-5" d="M280,286v5.14l-.24,0h-.39v-5.18h.39Z"/><path class="cls-5" d="M280.86,286.43v4.18a1.28,1.28,0,0,1-.63.42v-5A1.28,1.28,0,0,1,280.86,286.43Z"/><path class="cls-6" d="M376.41,379.35v2.92a1,1,0,0,1-.23.63,1.28,1.28,0,0,1-.63.42.94.94,0,0,1-.24.06l-.24,0h-55.4a1.28,1.28,0,0,1-1.32-1,.43.43,0,0,1,0-.11v-3a.52.52,0,0,1,0-.11,1.28,1.28,0,0,1,1.32-.95h55.64l.24.06a1.28,1.28,0,0,1,.63.42A1,1,0,0,1,376.41,379.35Z"/><path class="cls-5" d="M349.21,383.4H319.53a1.18,1.18,0,0,1-1.15-.84.27.27,0,0,1,0-.12.43.43,0,0,1,0-.11v-3a.52.52,0,0,1,0-.11.27.27,0,0,1,0-.12,1.17,1.17,0,0,1,1.15-.83h26A9.12,9.12,0,0,0,349.21,383.4Z"/><rect class="cls-5" x="369.04" y="378.23" width="0.63" height="5.17"/><rect class="cls-5" x="366.91" y="378.23" width="0.63" height="5.17"/><rect class="cls-5" x="364.35" y="378.23" width="0.63" height="5.17"/><rect class="cls-5" x="360.44" y="378.23" width="0.63" height="5.17"/><rect class="cls-5" x="356.29" y="378.23" width="0.63" height="5.17"/><rect class="cls-5" x="349.94" y="378.23" width="0.63" height="5.17"/><rect class="cls-5" x="344" y="378.23" width="0.63" height="5.17"/><rect class="cls-5" x="338.69" y="378.23" width="0.63" height="5.17"/><rect class="cls-5" x="371.07" y="378.23" width="0.63" height="5.17"/><rect class="cls-5" x="372.41" y="378.23" width="0.63" height="5.17"/><rect class="cls-5" x="373.71" y="378.23" width="0.63" height="5.17"/><path class="cls-5" d="M375.31,378.24v5.14l-.24,0h-.39v-5.17h.63Z"/><path class="cls-5" d="M376.18,378.72v4.18a1.28,1.28,0,0,1-.63.42v-5A1.28,1.28,0,0,1,376.18,378.72Z"/><path class="cls-6" d="M370.49,374.18v2.92a1,1,0,0,1-.23.63,1.28,1.28,0,0,1-.63.42,1,1,0,0,1-.25.06H313.75a1.3,1.3,0,0,1-1.33-1s0-.08,0-.11v-3s0-.07,0-.11a1.3,1.3,0,0,1,1.33-1h55.63a1,1,0,0,1,.25.06h.1l0,0,0,0h0l0,0,.06,0a.91.91,0,0,1,.16.11l.07.05a.86.86,0,0,1,.13.14A1,1,0,0,1,370.49,374.18Z"/><path class="cls-5" d="M343.29,378.23H313.61a1.2,1.2,0,0,1-1.16-.84l0-.12s0-.08,0-.11v-3s0-.07,0-.11l0-.12a1.2,1.2,0,0,1,1.16-.84h26a.5.5,0,0,0,0,.13,9.35,9.35,0,0,0,1.2,2.62A8.94,8.94,0,0,0,343.29,378.23Z"/><rect class="cls-5" x="363.12" y="373.05" width="0.63" height="5.17"/><rect class="cls-5" x="360.99" y="373.05" width="0.63" height="5.17"/><rect class="cls-5" x="358.43" y="373.05" width="0.63" height="5.17"/><rect class="cls-5" x="354.51" y="373.05" width="0.63" height="5.17"/><rect class="cls-5" x="350.37" y="373.05" width="0.63" height="5.17"/><rect class="cls-5" x="344.02" y="373.05" width="0.63" height="5.17"/><rect class="cls-5" x="338.07" y="373.05" width="0.63" height="5.17"/><rect class="cls-5" x="332.76" y="373.05" width="0.63" height="5.17"/><rect class="cls-5" x="365.15" y="373.05" width="0.63" height="5.17"/><rect class="cls-5" x="366.49" y="373.05" width="0.63" height="5.17"/><rect class="cls-5" x="367.78" y="373.05" width="0.63" height="5.17"/><path class="cls-5" d="M369.39,373.07v5.14l-.24,0h-.39v-5.18h.39Z"/><path class="cls-5" d="M370.26,373.55v4.18a1.28,1.28,0,0,1-.63.42v-5A1.28,1.28,0,0,1,370.26,373.55Z"/><path class="cls-6" d="M373.35,369.13v2.92a1,1,0,0,1-.23.63,1.28,1.28,0,0,1-.63.42l-.24.06a1,1,0,0,1-.24,0h-55.4a1.44,1.44,0,0,1-.62-.13,1.13,1.13,0,0,1-.71-.89.07.07,0,0,1,0-.05v-3a.36.36,0,0,1,0-.11,1.28,1.28,0,0,1,1.32-1H372l.24,0,.24.05a1.37,1.37,0,0,1,.63.43A1,1,0,0,1,373.35,369.13Z"/><path class="cls-5" d="M346.15,373.18H316.47a1.19,1.19,0,0,1-1.19-1,.07.07,0,0,1,0-.05v-3a.36.36,0,0,1,0-.11.31.31,0,0,1,0-.13,1.19,1.19,0,0,1,1.15-.83h26a9.88,9.88,0,0,0,.81,2,8.78,8.78,0,0,0,2.65,3Z"/><rect class="cls-5" x="365.98" y="368.01" width="0.63" height="5.17"/><rect class="cls-5" x="363.85" y="368.01" width="0.63" height="5.17"/><rect class="cls-5" x="361.29" y="368.01" width="0.63" height="5.17"/><rect class="cls-5" x="357.38" y="368.01" width="0.63" height="5.17"/><rect class="cls-5" x="353.23" y="368.01" width="0.63" height="5.17"/><rect class="cls-5" x="346.88" y="368.01" width="0.63" height="5.17"/><rect class="cls-5" x="340.94" y="368.01" width="0.63" height="5.17"/><rect class="cls-5" x="335.63" y="368.01" width="0.63" height="5.17"/><rect class="cls-5" x="368.01" y="368.01" width="0.63" height="5.17"/><rect class="cls-5" x="369.35" y="368.01" width="0.63" height="5.17"/><rect class="cls-5" x="370.64" y="368.01" width="0.63" height="5.17"/><path class="cls-5" d="M372.25,368v5.13l-.24,0h-.39V368H372Z"/><path class="cls-5" d="M373.12,368.51v4.17a1.37,1.37,0,0,1-.63.43v-5A1.37,1.37,0,0,1,373.12,368.51Z"/><path class="cls-6" d="M374.68,364v2.92a1,1,0,0,1-.23.63l-.13.14a1.44,1.44,0,0,1-.5.28,1,1,0,0,1-.25.06H317.94a1.3,1.3,0,0,1-1.33-1s0-.07,0-.11v-3s0-.07,0-.11a1.28,1.28,0,0,1,1.17-1h55.56a.86.86,0,0,1,.23,0l.25.05a1.43,1.43,0,0,1,.63.42A1,1,0,0,1,374.68,364Z"/><path class="cls-5" d="M347.47,368H317.79a1.19,1.19,0,0,1-1.15-.84l0-.12s0-.07,0-.11v-3s0-.07,0-.11a1.19,1.19,0,0,1,1-1h26.18a9.44,9.44,0,0,0,.66,1.73A8.89,8.89,0,0,0,347.47,368Z"/><rect class="cls-5" x="367.31" y="362.84" width="0.63" height="5.17"/><rect class="cls-5" x="365.18" y="362.84" width="0.63" height="5.17"/><rect class="cls-5" x="362.62" y="362.84" width="0.63" height="5.17"/><rect class="cls-5" x="358.7" y="362.84" width="0.63" height="5.17"/><rect class="cls-5" x="354.56" y="362.84" width="0.63" height="5.17"/><rect class="cls-5" x="348.21" y="362.84" width="0.63" height="5.17"/><rect class="cls-5" x="342.26" y="362.84" width="0.63" height="5.17"/><rect class="cls-5" x="336.95" y="362.84" width="0.63" height="5.17"/><rect class="cls-5" x="369.34" y="362.84" width="0.63" height="5.17"/><rect class="cls-5" x="370.68" y="362.84" width="0.63" height="5.17"/><rect class="cls-5" x="371.97" y="362.84" width="0.63" height="5.17"/><path class="cls-5" d="M373.57,362.86V368l-.23,0h-.4v-5.17h.4A.86.86,0,0,1,373.57,362.86Z"/><path class="cls-5" d="M374.45,363.33v4.18a1.28,1.28,0,0,1-.63.42v-5A1.43,1.43,0,0,1,374.45,363.33Z"/><path class="cls-6" d="M370.61,358.8v2.92a1,1,0,0,1-.23.63,1.38,1.38,0,0,1-.63.42,1.83,1.83,0,0,1-.25.06H313.87a1.3,1.3,0,0,1-1.33-.95.45.45,0,0,1,0-.11v-3.09a1.21,1.21,0,0,1,1-1h0a1.36,1.36,0,0,1,.29,0H369.5a1,1,0,0,1,.25.06,1.38,1.38,0,0,1,.63.42A1,1,0,0,1,370.61,358.8Z"/><path class="cls-5" d="M343.4,362.84H313.72a1.18,1.18,0,0,1-1.15-.83l0-.12a.45.45,0,0,1,0-.11v-3.09a1.17,1.17,0,0,1,.93-1h.05l.21,0h26v0a9.06,9.06,0,0,0,3.62,5.13Z"/><rect class="cls-5" x="363.24" y="357.67" width="0.63" height="5.17"/><rect class="cls-5" x="361.1" y="357.67" width="0.63" height="5.17"/><rect class="cls-5" x="358.55" y="357.67" width="0.63" height="5.17"/><rect class="cls-5" x="354.63" y="357.67" width="0.63" height="5.17"/><rect class="cls-5" x="350.49" y="357.67" width="0.63" height="5.17"/><rect class="cls-5" x="344.14" y="357.67" width="0.63" height="5.17"/><rect class="cls-5" x="338.19" y="357.67" width="0.63" height="5.17"/><rect class="cls-5" x="332.88" y="357.67" width="0.63" height="5.17"/><rect class="cls-5" x="365.26" y="357.67" width="0.63" height="5.17"/><rect class="cls-5" x="366.6" y="357.67" width="0.63" height="5.17"/><rect class="cls-5" x="367.9" y="357.67" width="0.63" height="5.17"/><path class="cls-5" d="M369.5,357.69v5.14l-.23,0h-.4v-5.18h.4Z"/><path class="cls-5" d="M370.38,358.17v4.18a1.38,1.38,0,0,1-.63.42v-5A1.38,1.38,0,0,1,370.38,358.17Z"/><path class="cls-6" d="M370.49,353.66v2.92a1,1,0,0,1-.23.63,1.28,1.28,0,0,1-.63.42l-.19.05h-.06l-.23,0H313.51a1.24,1.24,0,0,1-1.09-.95s0-.06,0-.1v-3s0-.08,0-.11a1.3,1.3,0,0,1,1.33-1h55.63l.25.05,0,0h.06l0,0h0a1.64,1.64,0,0,1,.26.16l.07.06.05.05,0,0,.05.06A.93.93,0,0,1,370.49,353.66Z"/><path class="cls-5" d="M343.29,357.71H313.46a1.16,1.16,0,0,1-1-1s0-.06,0-.1v-3s0-.08,0-.11l0-.13a1.2,1.2,0,0,1,1.16-.83h26a.93.93,0,0,0,0,.13,9,9,0,0,0,3.55,5Z"/><rect class="cls-5" x="363.12" y="352.54" width="0.63" height="5.17"/><rect class="cls-5" x="360.99" y="352.54" width="0.63" height="5.17"/><rect class="cls-5" x="358.43" y="352.54" width="0.63" height="5.17"/><rect class="cls-5" x="354.51" y="352.54" width="0.63" height="5.17"/><rect class="cls-5" x="350.37" y="352.54" width="0.63" height="5.17"/><rect class="cls-5" x="344.02" y="352.54" width="0.63" height="5.17"/><rect class="cls-5" x="338.07" y="352.54" width="0.63" height="5.17"/><rect class="cls-5" x="332.76" y="352.54" width="0.63" height="5.17"/><rect class="cls-5" x="365.15" y="352.54" width="0.63" height="5.17"/><rect class="cls-5" x="366.49" y="352.54" width="0.63" height="5.17"/><rect class="cls-5" x="367.78" y="352.54" width="0.63" height="5.17"/><path class="cls-5" d="M369.39,352.56v5.13l-.24,0h-.39v-5.17h.39A1,1,0,0,1,369.39,352.56Z"/><path class="cls-5" d="M370.26,353v4.17a1.28,1.28,0,0,1-.63.42v-5A1.37,1.37,0,0,1,370.26,353Z"/><path class="cls-6" d="M373.35,348.62v2.92a1,1,0,0,1-.23.63,1.28,1.28,0,0,1-.63.42,1.05,1.05,0,0,1-.24.06H316.61a1.6,1.6,0,0,1-.62-.13,1.14,1.14,0,0,1-.71-.89.09.09,0,0,1,0,0v-3a.52.52,0,0,1,0-.11,1.28,1.28,0,0,1,1.32-1H372l.24,0,.24.06a1.28,1.28,0,0,1,.63.42A1,1,0,0,1,373.35,348.62Z"/><path class="cls-5" d="M346.15,352.67H316.47a1.24,1.24,0,0,1-.55-.13,1.14,1.14,0,0,1-.64-.89.09.09,0,0,1,0,0v-3a.52.52,0,0,1,0-.11.27.27,0,0,1,0-.12,1.18,1.18,0,0,1,1.15-.84h26a9.08,9.08,0,0,0,3.46,5.05Z"/><rect class="cls-5" x="365.98" y="347.49" width="0.63" height="5.17"/><rect class="cls-5" x="363.85" y="347.49" width="0.63" height="5.17"/><rect class="cls-5" x="361.29" y="347.49" width="0.63" height="5.17"/><rect class="cls-5" x="357.38" y="347.49" width="0.63" height="5.17"/><rect class="cls-5" x="353.23" y="347.49" width="0.63" height="5.17"/><rect class="cls-5" x="346.88" y="347.49" width="0.63" height="5.17"/><rect class="cls-5" x="340.94" y="347.49" width="0.63" height="5.17"/><rect class="cls-5" x="335.63" y="347.49" width="0.63" height="5.17"/><rect class="cls-5" x="368.01" y="347.49" width="0.63" height="5.17"/><rect class="cls-5" x="369.35" y="347.49" width="0.63" height="5.17"/><rect class="cls-5" x="370.64" y="347.49" width="0.63" height="5.17"/><path class="cls-5" d="M372.25,347.51v5.14l-.24,0h-.39v-5.18H372Z"/><path class="cls-5" d="M373.12,348v4.18a1.28,1.28,0,0,1-.63.42v-5A1.28,1.28,0,0,1,373.12,348Z"/><path class="cls-6" d="M377.88,343.45v2.92a1,1,0,0,1-.23.63l-.06.06a1.3,1.3,0,0,1-.57.36l-.24.06H321.14a1.3,1.3,0,0,1-1.33-.95s0-.08,0-.11v-3a1.23,1.23,0,0,1,1.18-1.06h55.56l.24,0,.24.06a1.28,1.28,0,0,1,.57.35l.06.07A1,1,0,0,1,377.88,343.45Z"/><path class="cls-5" d="M350.67,347.49H321a1.18,1.18,0,0,1-1.15-.83l0-.12s0-.08,0-.11v-3a.77.77,0,0,1,0-.15,1.18,1.18,0,0,1,1-.91H347A9.1,9.1,0,0,0,350.67,347.49Z"/><rect class="cls-5" x="370.51" y="342.32" width="0.63" height="5.17"/><rect class="cls-5" x="368.38" y="342.32" width="0.63" height="5.17"/><rect class="cls-5" x="365.82" y="342.32" width="0.63" height="5.17"/><rect class="cls-5" x="361.9" y="342.32" width="0.63" height="5.17"/><rect class="cls-5" x="357.76" y="342.32" width="0.63" height="5.17"/><rect class="cls-5" x="351.41" y="342.32" width="0.63" height="5.17"/><rect class="cls-5" x="345.46" y="342.32" width="0.63" height="5.17"/><rect class="cls-5" x="340.15" y="342.32" width="0.63" height="5.17"/><rect class="cls-5" x="372.54" y="342.32" width="0.63" height="5.17"/><rect class="cls-5" x="373.88" y="342.32" width="0.63" height="5.17"/><rect class="cls-5" x="375.17" y="342.32" width="0.63" height="5.17"/><path class="cls-5" d="M376.78,342.34v5.14h-.63v-5.17h.39Z"/><path class="cls-5" d="M377.65,342.82V347a1.35,1.35,0,0,1-.63.42v-5A1.28,1.28,0,0,1,377.65,342.82Z"/><path class="cls-6" d="M370.61,338.28v2.93a1,1,0,0,1-.23.62,1.48,1.48,0,0,1-.63.43l-.25.05H313.87a1.3,1.3,0,0,1-1.33-1,.37.37,0,0,1,0-.11v-3a.37.37,0,0,1,0-.11,1.3,1.3,0,0,1,1.33-1H369.5a1,1,0,0,1,.25.06l.09,0h0a1.35,1.35,0,0,1,.52.38A1,1,0,0,1,370.61,338.28Z"/><path class="cls-5" d="M343.4,342.33H313.72a1.19,1.19,0,0,1-1.15-.84l0-.12a.37.37,0,0,1,0-.11v-3a.37.37,0,0,1,0-.11l0-.13a1.18,1.18,0,0,1,1.15-.83h26l0,.12a9,9,0,0,0,3.6,5Z"/><rect class="cls-5" x="363.24" y="337.16" width="0.63" height="5.17"/><rect class="cls-5" x="361.1" y="337.16" width="0.63" height="5.17"/><rect class="cls-5" x="358.55" y="337.16" width="0.63" height="5.17"/><rect class="cls-5" x="354.63" y="337.16" width="0.63" height="5.17"/><rect class="cls-5" x="350.49" y="337.16" width="0.63" height="5.17"/><rect class="cls-5" x="344.14" y="337.16" width="0.63" height="5.17"/><rect class="cls-5" x="338.19" y="337.16" width="0.63" height="5.17"/><rect class="cls-5" x="332.88" y="337.16" width="0.63" height="5.17"/><rect class="cls-5" x="365.26" y="337.16" width="0.63" height="5.17"/><rect class="cls-5" x="366.6" y="337.16" width="0.63" height="5.17"/><rect class="cls-5" x="367.9" y="337.16" width="0.63" height="5.17"/><path class="cls-5" d="M369.5,337.18v5.13l-.23,0h-.4v-5.17h.4A.9.9,0,0,1,369.5,337.18Z"/><path class="cls-5" d="M370.38,337.66v4.17a1.38,1.38,0,0,1-.63.42v-5A1.48,1.48,0,0,1,370.38,337.66Z"/><path class="cls-6" d="M374.68,333.23v2.92a1,1,0,0,1-.23.63,1.28,1.28,0,0,1-.63.42,1,1,0,0,1-.25.06l-.23,0h-55.4a1.46,1.46,0,0,1-.6-.12,1.18,1.18,0,0,1-.73-.83.15.15,0,0,0,0-.07v-3.09s0-.06,0-.1a1.28,1.28,0,0,1,1.17-1h55.79l.25.06a1.35,1.35,0,0,1,.63.42A1,1,0,0,1,374.68,333.23Z"/><path class="cls-5" d="M347.47,337.28H317.79a1.18,1.18,0,0,1-.53-.12,1.17,1.17,0,0,1-.65-.83.15.15,0,0,0,0-.07v-3.09s0-.06,0-.1a1.19,1.19,0,0,1,1-1h26.18a9.1,9.1,0,0,0,3.47,5.05Z"/><rect class="cls-5" x="367.31" y="332.11" width="0.63" height="5.17"/><rect class="cls-5" x="365.18" y="332.11" width="0.63" height="5.17"/><rect class="cls-5" x="362.62" y="332.11" width="0.63" height="5.17"/><rect class="cls-5" x="358.7" y="332.11" width="0.63" height="5.17"/><rect class="cls-5" x="354.56" y="332.11" width="0.63" height="5.17"/><rect class="cls-5" x="348.21" y="332.11" width="0.63" height="5.17"/><rect class="cls-5" x="342.26" y="332.11" width="0.63" height="5.17"/><rect class="cls-5" x="336.95" y="332.11" width="0.63" height="5.17"/><rect class="cls-5" x="369.34" y="332.11" width="0.63" height="5.17"/><rect class="cls-5" x="370.68" y="332.11" width="0.63" height="5.17"/><rect class="cls-5" x="371.97" y="332.11" width="0.63" height="5.17"/><path class="cls-5" d="M373.57,332.12v5.14l-.23,0h-.4v-5.17h.63Z"/><path class="cls-5" d="M374.45,332.6v4.18a1.28,1.28,0,0,1-.63.42v-5A1.35,1.35,0,0,1,374.45,332.6Z"/><path class="cls-6" d="M376.41,328.07V331a1,1,0,0,1-.23.63l-.12.13a1.28,1.28,0,0,1-.51.29l-.24.06H319.53a1.26,1.26,0,0,1-1.18-1,.36.36,0,0,1,0-.1v-3a.43.43,0,0,1,0-.11,1.28,1.28,0,0,1,1.32-1h55.4l.24,0a.94.94,0,0,1,.24.06,1.28,1.28,0,0,1,.63.42A1,1,0,0,1,376.41,328.07Z"/><path class="cls-5" d="M349.21,332.11H319.4a1.17,1.17,0,0,1-1-1,.36.36,0,0,1,0-.1v-3a.43.43,0,0,1,0-.11.27.27,0,0,1,0-.12,1.18,1.18,0,0,1,1.15-.84h26a9.15,9.15,0,0,0,3.64,5.17Z"/><rect class="cls-5" x="369.04" y="326.94" width="0.63" height="5.17"/><rect class="cls-5" x="366.91" y="326.94" width="0.63" height="5.17"/><rect class="cls-5" x="364.35" y="326.94" width="0.63" height="5.17"/><rect class="cls-5" x="360.44" y="326.94" width="0.63" height="5.17"/><rect class="cls-5" x="356.29" y="326.94" width="0.63" height="5.17"/><rect class="cls-5" x="349.94" y="326.94" width="0.63" height="5.17"/><rect class="cls-5" x="344" y="326.94" width="0.63" height="5.17"/><rect class="cls-5" x="338.69" y="326.94" width="0.63" height="5.17"/><rect class="cls-5" x="371.07" y="326.94" width="0.63" height="5.17"/><rect class="cls-5" x="372.41" y="326.94" width="0.63" height="5.17"/><rect class="cls-5" x="373.71" y="326.94" width="0.63" height="5.17"/><path class="cls-5" d="M375.31,327v5.14h-.63v-5.17h.39Z"/><path class="cls-5" d="M376.18,327.44v4.18a1.35,1.35,0,0,1-.63.42v-5A1.28,1.28,0,0,1,376.18,327.44Z"/><path class="cls-6" d="M201.76,379.35v2.92a1,1,0,0,1-.23.63,1.28,1.28,0,0,1-.63.42.94.94,0,0,1-.24.06l-.24,0H145a1.28,1.28,0,0,1-1.34-1.07v-3a1.27,1.27,0,0,1,1.34-1.06h55.64l.24.06a1.28,1.28,0,0,1,.63.42A1,1,0,0,1,201.76,379.35Z"/><path class="cls-5" d="M174.56,383.4H144.88a1.18,1.18,0,0,1-1.2-1.07v-3a1.17,1.17,0,0,1,1.2-1.06h26A9.12,9.12,0,0,0,174.56,383.4Z"/><rect class="cls-5" x="194.39" y="378.23" width="0.63" height="5.17"/><rect class="cls-5" x="192.26" y="378.23" width="0.63" height="5.17"/><rect class="cls-5" x="189.71" y="378.23" width="0.63" height="5.17"/><rect class="cls-5" x="185.79" y="378.23" width="0.63" height="5.17"/><rect class="cls-5" x="181.65" y="378.23" width="0.63" height="5.17"/><rect class="cls-5" x="175.29" y="378.23" width="0.63" height="5.17"/><rect class="cls-5" x="169.35" y="378.23" width="0.63" height="5.17"/><rect class="cls-5" x="164.04" y="378.23" width="0.63" height="5.17"/><rect class="cls-5" x="196.42" y="378.23" width="0.63" height="5.17"/><rect class="cls-5" x="197.76" y="378.23" width="0.63" height="5.17"/><rect class="cls-5" x="199.06" y="378.23" width="0.63" height="5.17"/><path class="cls-5" d="M200.66,378.24v5.14l-.24,0H200v-5.17h.63Z"/><path class="cls-5" d="M201.53,378.72v4.18a1.28,1.28,0,0,1-.63.42v-5A1.28,1.28,0,0,1,201.53,378.72Z"/><path class="cls-6" d="M195.84,374.18v2.92a1,1,0,0,1-.23.63,1.28,1.28,0,0,1-.63.42,2.1,2.1,0,0,1-.24.06l-.24,0H139.1a1.28,1.28,0,0,1-1.34-1.07v-3a1.28,1.28,0,0,1,1.34-1.07h55.64l.24.06h.07l.07,0,0,0,0,0,.06,0,.07,0,.05,0h0l0,0a.39.39,0,0,1,.1.08l0,0,0,0,.05.06A1,1,0,0,1,195.84,374.18Z"/><path class="cls-5" d="M168.64,378.23H139a1.18,1.18,0,0,1-1.2-1.07v-3a1.18,1.18,0,0,1,1.2-1.07h26a.5.5,0,0,0,0,.13A9.06,9.06,0,0,0,168.64,378.23Z"/><rect class="cls-5" x="188.47" y="373.05" width="0.63" height="5.17"/><rect class="cls-5" x="186.34" y="373.05" width="0.63" height="5.17"/><rect class="cls-5" x="183.78" y="373.05" width="0.63" height="5.17"/><rect class="cls-5" x="179.86" y="373.05" width="0.63" height="5.17"/><rect class="cls-5" x="175.72" y="373.05" width="0.63" height="5.17"/><rect class="cls-5" x="169.37" y="373.05" width="0.63" height="5.17"/><rect class="cls-5" x="163.42" y="373.05" width="0.63" height="5.17"/><rect class="cls-5" x="158.11" y="373.05" width="0.63" height="5.17"/><rect class="cls-5" x="190.5" y="373.05" width="0.63" height="5.17"/><rect class="cls-5" x="191.84" y="373.05" width="0.63" height="5.17"/><rect class="cls-5" x="193.13" y="373.05" width="0.63" height="5.17"/><path class="cls-5" d="M194.74,373.07v5.14l-.24,0h-.39v-5.18h.39Z"/><path class="cls-5" d="M195.61,373.55v4.18a1.28,1.28,0,0,1-.63.42v-5A1.28,1.28,0,0,1,195.61,373.55Z"/><path class="cls-6" d="M198.7,369.13v2.93a1,1,0,0,1-.23.62,1.37,1.37,0,0,1-.63.43l-.24.05-.24,0H142a1.44,1.44,0,0,1-.62-.13,1.13,1.13,0,0,1-.71-.89.43.43,0,0,1,0-.05v-3A1.27,1.27,0,0,1,142,368h55.4l.24,0a.94.94,0,0,1,.24.06,1.28,1.28,0,0,1,.63.42A1,1,0,0,1,198.7,369.13Z"/><path class="cls-5" d="M171.5,373.18H141.82a1.19,1.19,0,0,1-1.19-1,.43.43,0,0,1,0-.05v-3a1.18,1.18,0,0,1,1.2-1.07h26a9.12,9.12,0,0,0,3.47,5Z"/><rect class="cls-5" x="191.33" y="368.01" width="0.63" height="5.17"/><rect class="cls-5" x="189.2" y="368.01" width="0.63" height="5.17"/><rect class="cls-5" x="186.64" y="368.01" width="0.63" height="5.17"/><rect class="cls-5" x="182.73" y="368.01" width="0.63" height="5.17"/><rect class="cls-5" x="178.58" y="368.01" width="0.63" height="5.17"/><rect class="cls-5" x="172.23" y="368.01" width="0.63" height="5.17"/><rect class="cls-5" x="166.29" y="368.01" width="0.63" height="5.17"/><rect class="cls-5" x="160.98" y="368.01" width="0.63" height="5.17"/><rect class="cls-5" x="193.36" y="368.01" width="0.63" height="5.17"/><rect class="cls-5" x="194.7" y="368.01" width="0.63" height="5.17"/><rect class="cls-5" x="196" y="368.01" width="0.63" height="5.17"/><path class="cls-5" d="M197.6,368v5.13l-.24,0H197V368h.39Z"/><path class="cls-5" d="M198.47,368.51v4.17a1.37,1.37,0,0,1-.63.43v-5A1.37,1.37,0,0,1,198.47,368.51Z"/><path class="cls-6" d="M200,364v2.92a1,1,0,0,1-.23.63,1.28,1.28,0,0,1-.63.42l-.24.06-.24,0h-55.4a1.28,1.28,0,0,1-1.34-1.07v-3a1.23,1.23,0,0,1,1.18-1.06h55.56a1,1,0,0,1,.24,0l.24.05a1.43,1.43,0,0,1,.63.42A1,1,0,0,1,200,364Z"/><path class="cls-5" d="M172.83,368H143.15a1.18,1.18,0,0,1-1.2-1.07v-3a1.15,1.15,0,0,1,1.05-1.06h26.18A9.08,9.08,0,0,0,172.83,368Z"/><rect class="cls-5" x="192.66" y="362.84" width="0.63" height="5.17"/><rect class="cls-5" x="190.53" y="362.84" width="0.63" height="5.17"/><rect class="cls-5" x="187.97" y="362.84" width="0.63" height="5.17"/><rect class="cls-5" x="184.05" y="362.84" width="0.63" height="5.17"/><rect class="cls-5" x="179.91" y="362.84" width="0.63" height="5.17"/><rect class="cls-5" x="173.56" y="362.84" width="0.63" height="5.17"/><rect class="cls-5" x="167.61" y="362.84" width="0.63" height="5.17"/><rect class="cls-5" x="162.3" y="362.84" width="0.63" height="5.17"/><rect class="cls-5" x="194.69" y="362.84" width="0.63" height="5.17"/><rect class="cls-5" x="196.03" y="362.84" width="0.63" height="5.17"/><rect class="cls-5" x="197.32" y="362.84" width="0.63" height="5.17"/><path class="cls-5" d="M198.93,362.86V368l-.24,0h-.39v-5.17h.39A1,1,0,0,1,198.93,362.86Z"/><path class="cls-5" d="M199.8,363.33v4.18a1.28,1.28,0,0,1-.63.42v-5A1.43,1.43,0,0,1,199.8,363.33Z"/><path class="cls-6" d="M196,358.8v2.92a1,1,0,0,1-.23.63,1.38,1.38,0,0,1-.63.42,1.83,1.83,0,0,1-.25.06H139.22a1.26,1.26,0,0,1-1.34-1.07v-3.09a1.21,1.21,0,0,1,1-1h0a1.36,1.36,0,0,1,.29,0h55.63a1,1,0,0,1,.25.06,1.38,1.38,0,0,1,.63.42A1,1,0,0,1,196,358.8Z"/><path class="cls-5" d="M168.75,362.85H139.07a1.17,1.17,0,0,1-1.19-1.07v-3.09a1.17,1.17,0,0,1,.93-1h.05l.21,0h26v0a9.06,9.06,0,0,0,3.62,5.13Z"/><rect class="cls-5" x="188.59" y="357.67" width="0.63" height="5.17"/><rect class="cls-5" x="186.45" y="357.67" width="0.63" height="5.17"/><rect class="cls-5" x="183.9" y="357.67" width="0.63" height="5.17"/><rect class="cls-5" x="179.98" y="357.67" width="0.63" height="5.17"/><rect class="cls-5" x="175.84" y="357.67" width="0.63" height="5.17"/><rect class="cls-5" x="169.49" y="357.67" width="0.63" height="5.17"/><rect class="cls-5" x="163.54" y="357.67" width="0.63" height="5.17"/><rect class="cls-5" x="158.23" y="357.67" width="0.63" height="5.17"/><rect class="cls-5" x="190.61" y="357.67" width="0.63" height="5.17"/><rect class="cls-5" x="191.95" y="357.67" width="0.63" height="5.17"/><rect class="cls-5" x="193.25" y="357.67" width="0.63" height="5.17"/><path class="cls-5" d="M194.85,357.69v5.14l-.23,0h-.4v-5.18h.4Z"/><path class="cls-5" d="M195.73,358.17v4.18a1.38,1.38,0,0,1-.63.42v-5A1.38,1.38,0,0,1,195.73,358.17Z"/><path class="cls-6" d="M195.84,353.66v2.92a1,1,0,0,1-.23.63,1.28,1.28,0,0,1-.63.42l-.19.05h0l-.24,0H138.86a1.21,1.21,0,0,1-1.1-1.05v-3a1.27,1.27,0,0,1,1.34-1.07h55.64l.24.05,0,0h0l.07,0,.07,0,.06,0,.07,0,.05,0h0l0,0,.1.08,0,0,0,0,.05.06A1,1,0,0,1,195.84,353.66Z"/><path class="cls-5" d="M168.64,357.71H138.81a1.15,1.15,0,0,1-1.05-1.06v-3a1.17,1.17,0,0,1,1.2-1.07h26a.93.93,0,0,0,0,.13,9,9,0,0,0,3.55,5Z"/><rect class="cls-5" x="188.47" y="352.54" width="0.63" height="5.17"/><rect class="cls-5" x="186.34" y="352.54" width="0.63" height="5.17"/><rect class="cls-5" x="183.78" y="352.54" width="0.63" height="5.17"/><rect class="cls-5" x="179.86" y="352.54" width="0.63" height="5.17"/><rect class="cls-5" x="175.72" y="352.54" width="0.63" height="5.17"/><rect class="cls-5" x="169.37" y="352.54" width="0.63" height="5.17"/><rect class="cls-5" x="163.42" y="352.54" width="0.63" height="5.17"/><rect class="cls-5" x="158.11" y="352.54" width="0.63" height="5.17"/><rect class="cls-5" x="190.5" y="352.54" width="0.63" height="5.17"/><rect class="cls-5" x="191.84" y="352.54" width="0.63" height="5.17"/><rect class="cls-5" x="193.13" y="352.54" width="0.63" height="5.17"/><path class="cls-5" d="M194.74,352.56v5.13l-.24,0h-.39v-5.17h.39A1,1,0,0,1,194.74,352.56Z"/><path class="cls-5" d="M195.61,353v4.17a1.28,1.28,0,0,1-.63.42v-5A1.37,1.37,0,0,1,195.61,353Z"/><path class="cls-6" d="M198.7,348.62v2.92a1,1,0,0,1-.23.63,1.28,1.28,0,0,1-.63.42.94.94,0,0,1-.24.06l-.24,0H142a1.6,1.6,0,0,1-.62-.13,1.14,1.14,0,0,1-.71-.89s0,0,0,0v-3a1.28,1.28,0,0,1,1.34-1.07h55.4l.24,0a.94.94,0,0,1,.24.06,1.28,1.28,0,0,1,.63.42A1,1,0,0,1,198.7,348.62Z"/><path class="cls-5" d="M171.5,352.67H141.82a1.24,1.24,0,0,1-.55-.13,1.14,1.14,0,0,1-.64-.89s0,0,0,0v-3a1.18,1.18,0,0,1,1.2-1.07h26a9.14,9.14,0,0,0,3.47,5.05Z"/><rect class="cls-5" x="191.33" y="347.49" width="0.63" height="5.17"/><rect class="cls-5" x="189.2" y="347.49" width="0.63" height="5.17"/><rect class="cls-5" x="186.64" y="347.49" width="0.63" height="5.17"/><rect class="cls-5" x="182.73" y="347.49" width="0.63" height="5.17"/><rect class="cls-5" x="178.58" y="347.49" width="0.63" height="5.17"/><rect class="cls-5" x="172.23" y="347.49" width="0.63" height="5.17"/><rect class="cls-5" x="166.29" y="347.49" width="0.63" height="5.17"/><rect class="cls-5" x="160.98" y="347.49" width="0.63" height="5.17"/><rect class="cls-5" x="193.36" y="347.49" width="0.63" height="5.17"/><rect class="cls-5" x="194.7" y="347.49" width="0.63" height="5.17"/><rect class="cls-5" x="196" y="347.49" width="0.63" height="5.17"/><path class="cls-5" d="M197.6,347.51v5.14l-.24,0H197v-5.18h.39Z"/><path class="cls-5" d="M198.47,348v4.18a1.28,1.28,0,0,1-.63.42v-5A1.28,1.28,0,0,1,198.47,348Z"/><path class="cls-6" d="M203.23,343.45v2.92a1,1,0,0,1-.23.63,1.35,1.35,0,0,1-.63.42l-.24.06H146.49a1.27,1.27,0,0,1-1.34-1.06v-3a1.23,1.23,0,0,1,1.18-1.06h55.56l.24,0,.24.06a1.28,1.28,0,0,1,.63.42A1,1,0,0,1,203.23,343.45Z"/><path class="cls-5" d="M176,347.49H146.35a1.17,1.17,0,0,1-1.2-1.06v-3a1.15,1.15,0,0,1,1-1.06h26.18A9.08,9.08,0,0,0,176,347.49Z"/><rect class="cls-5" x="195.86" y="342.32" width="0.63" height="5.17"/><rect class="cls-5" x="193.73" y="342.32" width="0.63" height="5.17"/><rect class="cls-5" x="191.17" y="342.32" width="0.63" height="5.17"/><rect class="cls-5" x="187.25" y="342.32" width="0.63" height="5.17"/><rect class="cls-5" x="183.11" y="342.32" width="0.63" height="5.17"/><rect class="cls-5" x="176.76" y="342.32" width="0.63" height="5.17"/><rect class="cls-5" x="170.81" y="342.32" width="0.63" height="5.17"/><rect class="cls-5" x="165.5" y="342.32" width="0.63" height="5.17"/><rect class="cls-5" x="197.89" y="342.32" width="0.63" height="5.17"/><rect class="cls-5" x="199.23" y="342.32" width="0.63" height="5.17"/><rect class="cls-5" x="200.52" y="342.32" width="0.63" height="5.17"/><path class="cls-5" d="M202.13,342.34v5.14h-.63v-5.17h.39Z"/><path class="cls-5" d="M203,342.82V347a1.35,1.35,0,0,1-.63.42v-5A1.28,1.28,0,0,1,203,342.82Z"/><path class="cls-6" d="M196,338.28v2.92a1,1,0,0,1-.23.63,1.38,1.38,0,0,1-.63.42,1,1,0,0,1-.25.06H139.22a1.26,1.26,0,0,1-1.34-1.07v-3a1.25,1.25,0,0,1,1.34-1.07h55.47l.16,0,.25.05.11,0,.07,0h0l.07,0h0l.06,0,.13.1,0,0h0l0,0h0l0,0,.06.07A1,1,0,0,1,196,338.28Z"/><path class="cls-5" d="M168.75,342.33H139.07a1.17,1.17,0,0,1-1.19-1.07v-3a1.17,1.17,0,0,1,1.19-1.07h26l0,.12a9,9,0,0,0,3.6,5Z"/><rect class="cls-5" x="188.59" y="337.16" width="0.63" height="5.17"/><rect class="cls-5" x="186.45" y="337.16" width="0.63" height="5.17"/><rect class="cls-5" x="183.9" y="337.16" width="0.63" height="5.17"/><rect class="cls-5" x="179.98" y="337.16" width="0.63" height="5.17"/><rect class="cls-5" x="175.84" y="337.16" width="0.63" height="5.17"/><rect class="cls-5" x="169.49" y="337.16" width="0.63" height="5.17"/><rect class="cls-5" x="163.54" y="337.16" width="0.63" height="5.17"/><rect class="cls-5" x="158.23" y="337.16" width="0.63" height="5.17"/><rect class="cls-5" x="190.61" y="337.16" width="0.63" height="5.17"/><rect class="cls-5" x="191.95" y="337.16" width="0.63" height="5.17"/><rect class="cls-5" x="193.25" y="337.16" width="0.63" height="5.17"/><path class="cls-5" d="M194.85,337.18v5.13l-.23,0h-.4v-5.17h.4A.86.86,0,0,1,194.85,337.18Z"/><path class="cls-5" d="M195.73,337.66v4.17a1.38,1.38,0,0,1-.63.42v-5A1.48,1.48,0,0,1,195.73,337.66Z"/><path class="cls-6" d="M200,333.23v2.92a1,1,0,0,1-.23.63,1.28,1.28,0,0,1-.63.42,1.05,1.05,0,0,1-.24.06l-.24,0h-55.4a1.64,1.64,0,0,1-.6-.12,1.18,1.18,0,0,1-.74-.9v-3.09a1.25,1.25,0,0,1,1.18-1.06h55.8l.24.06a1.35,1.35,0,0,1,.63.42A1,1,0,0,1,200,333.23Z"/><path class="cls-5" d="M172.83,337.28H143.15a1.34,1.34,0,0,1-.54-.12,1.14,1.14,0,0,1-.66-.9v-3.09a1.17,1.17,0,0,1,1.05-1.06h26.18a9.08,9.08,0,0,0,3.48,5.05Z"/><rect class="cls-5" x="192.66" y="332.11" width="0.63" height="5.17"/><rect class="cls-5" x="190.53" y="332.11" width="0.63" height="5.17"/><rect class="cls-5" x="187.97" y="332.11" width="0.63" height="5.17"/><rect class="cls-5" x="184.05" y="332.11" width="0.63" height="5.17"/><rect class="cls-5" x="179.91" y="332.11" width="0.63" height="5.17"/><rect class="cls-5" x="173.56" y="332.11" width="0.63" height="5.17"/><rect class="cls-5" x="167.61" y="332.11" width="0.63" height="5.17"/><rect class="cls-5" x="162.3" y="332.11" width="0.63" height="5.17"/><rect class="cls-5" x="194.69" y="332.11" width="0.63" height="5.17"/><rect class="cls-5" x="196.03" y="332.11" width="0.63" height="5.17"/><rect class="cls-5" x="197.32" y="332.11" width="0.63" height="5.17"/><path class="cls-5" d="M198.93,332.12v5.14l-.24,0h-.39v-5.17h.63Z"/><path class="cls-5" d="M199.8,332.6v4.18a1.28,1.28,0,0,1-.63.42v-5A1.35,1.35,0,0,1,199.8,332.6Z"/><path class="cls-6" d="M201.76,328.07V331a1,1,0,0,1-.23.63,1.35,1.35,0,0,1-.63.42l-.24.06H145a1.27,1.27,0,0,1-1.34-1.06v-3a1.28,1.28,0,0,1,1.34-1.07h55.4l.24,0a.94.94,0,0,1,.24.06,1.28,1.28,0,0,1,.63.42A1,1,0,0,1,201.76,328.07Z"/><path class="cls-5" d="M174.56,332.11H144.88a1.17,1.17,0,0,1-1.2-1.06v-3a1.18,1.18,0,0,1,1.2-1.07h26a9.15,9.15,0,0,0,3.64,5.17Z"/><rect class="cls-5" x="194.39" y="326.94" width="0.63" height="5.17"/><rect class="cls-5" x="192.26" y="326.94" width="0.63" height="5.17"/><rect class="cls-5" x="189.71" y="326.94" width="0.63" height="5.17"/><rect class="cls-5" x="185.79" y="326.94" width="0.63" height="5.17"/><rect class="cls-5" x="181.65" y="326.94" width="0.63" height="5.17"/><rect class="cls-5" x="175.29" y="326.94" width="0.63" height="5.17"/><rect class="cls-5" x="169.35" y="326.94" width="0.63" height="5.17"/><rect class="cls-5" x="164.04" y="326.94" width="0.63" height="5.17"/><rect class="cls-5" x="196.42" y="326.94" width="0.63" height="5.17"/><rect class="cls-5" x="197.76" y="326.94" width="0.63" height="5.17"/><rect class="cls-5" x="199.06" y="326.94" width="0.63" height="5.17"/><path class="cls-5" d="M200.66,327v5.14H200v-5.17h.39Z"/><path class="cls-5" d="M201.53,327.44v4.18a1.35,1.35,0,0,1-.63.42v-5A1.28,1.28,0,0,1,201.53,327.44Z"/><circle class="cls-7" cx="312.36" cy="355.93" r="27.63"/><path class="cls-8" d="M344.77,360.26c0,.87,0,1.73-.1,2.58h0c-.05.59-.11,1.16-.18,1.73a32.11,32.11,0,0,1-.63,3.44c-.16.68-.35,1.35-.55,2a31.08,31.08,0,0,1-1.11,3,.5.5,0,0,1-.05.13c-.38.9-.81,1.77-1.27,2.62s-.94,1.64-1.46,2.43l-.1.15-.63.89A30,30,0,0,1,335,383.4H319.53a1.18,1.18,0,0,1-1.15-.84.27.27,0,0,1,0-.12.43.43,0,0,1,0-.11v-3a.52.52,0,0,1,0-.11.27.27,0,0,1,0-.12,1.17,1.17,0,0,1,1.15-.83h-5.92a1.2,1.2,0,0,1-1.16-.84l0-.12s0-.08,0-.11v-3s0-.07,0-.11l0-.12a1.2,1.2,0,0,1,1.16-.84h2.31a1.13,1.13,0,0,1-.64-.89.07.07,0,0,1,0-.05v-3a.36.36,0,0,1,0-.11.31.31,0,0,1,0-.13,1.19,1.19,0,0,1,1.15-.83h1.32a1.19,1.19,0,0,1-1.15-.84l0-.12s0-.07,0-.11v-3s0-.07,0-.11a1.19,1.19,0,0,1,1-1h-3.93a1.18,1.18,0,0,1-1.15-.83l0-.12a.45.45,0,0,1,0-.11v-3.09a1,1,0,1,0-.11-1.95s0-.06,0-.1v-3s0-.08,0-.11l0-.13a1.2,1.2,0,0,1,1.16-.83h2.31a1.14,1.14,0,0,1-.64-.89.09.09,0,0,1,0,0v-3a.52.52,0,0,1,0-.11.27.27,0,0,1,0-.12,1.18,1.18,0,0,1,1.15-.84H321a1.18,1.18,0,0,1-1.15-.83l0-.12s0-.08,0-.11v-3a.77.77,0,0,1,0-.15,1.18,1.18,0,0,1,1-.91h-7.13a1.19,1.19,0,0,1-1.15-.84l0-.12a.37.37,0,0,1,0-.11v-3a.37.37,0,0,1,0-.11l0-.13a1.18,1.18,0,0,1,1.15-.83h3.54a1.17,1.17,0,0,1-.65-.83.15.15,0,0,0,0-.07v-3.09s0-.06,0-.1a1.19,1.19,0,0,1,1-1h1.75a1.17,1.17,0,0,1-1-1,.36.36,0,0,1,0-.1v-1.14a25.29,25.29,0,0,1,9.2,2.2h0a27.33,27.33,0,0,1,7.53,5.05l.13.12a28.46,28.46,0,0,1,3,3.31c.22.27.42.56.63.84s.42.59.62.89h0c.25.37.48.74.71,1.12s.43.72.63,1.09a30.94,30.94,0,0,1,1.44,2.95,32.43,32.43,0,0,1,1.65,5.05l0,.13.12.55a32.55,32.55,0,0,1,.63,4.24c0,.07,0,.14,0,.21v0C344.73,358.55,344.77,359.4,344.77,360.26Z"/><circle class="cls-6" cx="309.95" cy="355.93" r="27.63"/><path class="cls-5" d="M310,381.44a25.18,25.18,0,1,1,17.81-7.38A25,25,0,0,1,310,381.44Zm0-48.86a23.68,23.68,0,1,0,23.68,23.68A23.7,23.7,0,0,0,310,332.58Z"/><path class="cls-5" d="M313.42,363.57a4.41,4.41,0,0,0-.06-1.47,3,3,0,0,0-.62-1.21,5.81,5.81,0,0,0-1.23-1.09,14.84,14.84,0,0,0-1.92-1.07,38,38,0,0,1-3.54-2,12.29,12.29,0,0,1-2.64-2.15,7.39,7.39,0,0,1-1.56-2.62,8.34,8.34,0,0,1,.67-6.3,6.94,6.94,0,0,1,2-2.16,8.59,8.59,0,0,1,2.79-1.33,11.74,11.74,0,0,1,3.49-.41l.49-4.15,3.34.4-.5,4.21a10.4,10.4,0,0,1,3.15,1.34,8.15,8.15,0,0,1,2.26,2.15,8.28,8.28,0,0,1,1.26,2.89,10.51,10.51,0,0,1,.13,3.57l-6-.72a5.12,5.12,0,0,0-.62-3.6,3.56,3.56,0,0,0-2.63-1.48,4.42,4.42,0,0,0-1.65.07,3.05,3.05,0,0,0-1.2.58,2.8,2.8,0,0,0-.77,1,4,4,0,0,0-.37,1.32,3.84,3.84,0,0,0,.05,1.32,3,3,0,0,0,.59,1.16A5.75,5.75,0,0,0,309.5,353a19.06,19.06,0,0,0,2,1.15c1.29.67,2.46,1.33,3.5,2a12.92,12.92,0,0,1,2.64,2.17,7.14,7.14,0,0,1,1.83,6,7.79,7.79,0,0,1-1,3,7,7,0,0,1-2,2.14,8.32,8.32,0,0,1-2.81,1.28,12.26,12.26,0,0,1-3.5.37l-.46,3.86-3.32-.39.45-3.84a13.92,13.92,0,0,1-3.26-1.16,8.86,8.86,0,0,1-2.67-2,7.85,7.85,0,0,1-1.67-3,9.67,9.67,0,0,1-.28-4.09l6,.72a5.85,5.85,0,0,0,.12,2.34A3.67,3.67,0,0,0,307.4,366a6.86,6.86,0,0,0,1.66.42,5.29,5.29,0,0,0,1.75-.05,3.58,3.58,0,0,0,1.32-.55,2.82,2.82,0,0,0,.88-1A3.43,3.43,0,0,0,313.42,363.57Z"/><circle class="cls-7" cx="174.27" cy="295.71" r="31.23" transform="translate(-124.29 126.37) rotate(-29.93)"/><circle class="cls-6" cx="171.54" cy="295.71" r="31.23" transform="translate(-170.21 304.46) rotate(-61.35)"/><path class="cls-5" d="M171.54,324.54a28.47,28.47,0,1,1,20.12-8.34A28.24,28.24,0,0,1,171.54,324.54Zm0-55.22a26.76,26.76,0,1,0,26.76,26.76A26.8,26.8,0,0,0,171.54,269.32Z"/><path class="cls-5" d="M175.46,304.34a4.66,4.66,0,0,0-.07-1.65,3.48,3.48,0,0,0-.7-1.38,6.86,6.86,0,0,0-1.39-1.23,18,18,0,0,0-2.17-1.21,44.13,44.13,0,0,1-4-2.2,14.25,14.25,0,0,1-3-2.43,8.33,8.33,0,0,1-1.76-3,9.33,9.33,0,0,1,.76-7.11,7.93,7.93,0,0,1,2.2-2.45,9.94,9.94,0,0,1,3.16-1.5,13,13,0,0,1,3.94-.45l.56-4.69,3.77.44-.56,4.76a11.71,11.71,0,0,1,3.55,1.51,8.94,8.94,0,0,1,4,5.71,11.63,11.63,0,0,1,.15,4l-6.81-.81a5.82,5.82,0,0,0-.71-4.08,4,4,0,0,0-3-1.67,4.9,4.9,0,0,0-1.86.08,3.39,3.39,0,0,0-1.36.66,3.15,3.15,0,0,0-.87,1.13,4.45,4.45,0,0,0-.42,1.48,4.63,4.63,0,0,0,.06,1.5,3.27,3.27,0,0,0,.67,1.31,6.55,6.55,0,0,0,1.41,1.24,25,25,0,0,0,2.25,1.3q2.19,1.13,4,2.24a14.2,14.2,0,0,1,3,2.46,8.69,8.69,0,0,1,1.77,3,9.52,9.52,0,0,1-.78,7.16,7.68,7.68,0,0,1-2.22,2.42,9.51,9.51,0,0,1-3.17,1.45,14.29,14.29,0,0,1-4,.42l-.52,4.36-3.75-.45.51-4.34a15.79,15.79,0,0,1-3.68-1.3,10,10,0,0,1-3-2.28,8.92,8.92,0,0,1-1.89-3.39,10.94,10.94,0,0,1-.32-4.62l6.82.81a6.82,6.82,0,0,0,.13,2.65,4.43,4.43,0,0,0,1,1.81,4.31,4.31,0,0,0,1.56,1.07,7.45,7.45,0,0,0,1.87.48,6.11,6.11,0,0,0,2-.06,4.06,4.06,0,0,0,1.5-.62,3.44,3.44,0,0,0,1-1.09A4.15,4.15,0,0,0,175.46,304.34Z"/><path class="cls-9" d="M362.12,297.14s-2.94,4.13-5.63,4.19-6.78-1.92-6.78-1.92-2.47-5.5-.8-7.66a3.62,3.62,0,0,1,3.44.57,5.22,5.22,0,0,1,.91.87,3,3,0,0,0,1.41,1c1.92.58,4.2-.79,5.06.53a9.06,9.06,0,0,0,1.48,1.76A7,7,0,0,0,362.12,297.14Z"/><path class="cls-9" d="M323.85,327s10.38-25.14,29-25.62c0,0,17.24,1.92,18.2,25.62Z"/><path class="cls-10" d="M347.79,302.1s7.48,1.66,9.79.68c0,0,.35-3.13-2.8-2.69a6.61,6.61,0,0,1-4.39-1.15C349.22,298.34,347.47,300.79,347.79,302.1Z"/><path class="cls-11" d="M354.3,297.38c-.48.36-1.95-5.06-1.95-5.06a5.22,5.22,0,0,1,.91.87,3,3,0,0,0,1.41,1C354.68,294.31,354.76,297,354.3,297.38Z"/><path class="cls-11" d="M361.21,296.44a30.77,30.77,0,0,1-4,2.14c-.48,0,2.56-3.9,2.56-3.9A9.06,9.06,0,0,0,361.21,296.44Z"/><path class="cls-12" d="M334,319.93c-.2-.17,7.34-11.1,9.41-11.18s6.74,2.4,10.12,2.72,6.64-.64,7.28,1.35,2.4,9.07,1.32,10.2S338.13,323.47,334,319.93Z"/><path class="cls-9" d="M260.43,262.27s-2.32,3.27-4.45,3.32-5.36-1.52-5.36-1.52-2-4.35-.63-6.06a2.85,2.85,0,0,1,2.72.45,4.18,4.18,0,0,1,.72.69,2.23,2.23,0,0,0,1.12.76c1.51.46,3.32-.63,4,.42a7,7,0,0,0,1.17,1.39A5.52,5.52,0,0,0,260.43,262.27Z"/><path class="cls-9" d="M230.17,285.85s8.21-19.88,23-20.26c0,0,13.64,1.51,14.39,20.26Z"/><path class="cls-10" d="M249.1,266.19s5.92,1.32,7.74.55c0,0,.28-2.48-2.21-2.13a5.16,5.16,0,0,1-3.47-.92C250.23,263.22,248.85,265.16,249.1,266.19Z"/><path class="cls-11" d="M254.25,262.46c-.38.29-1.54-4-1.54-4a4.18,4.18,0,0,1,.72.69,2.23,2.23,0,0,0,1.12.76C254.55,260,254.62,262.19,254.25,262.46Z"/><path class="cls-11" d="M259.71,261.72a24.12,24.12,0,0,1-3.19,1.69c-.38,0,2-3.08,2-3.08A7,7,0,0,0,259.71,261.72Z"/><path class="cls-12" d="M238.19,280.29c-.15-.13,5.8-8.77,7.44-8.83s5.33,1.89,8,2.14,5.26-.5,5.76,1.08,1.9,7.17,1,8.06S241.46,283.09,238.19,280.29Z"/><path class="cls-9" d="M209.2,325.45s5.71,8,11,8.15,13.2-3.72,13.2-3.72,4.8-10.71,1.54-14.91a7,7,0,0,0-6.69,1.1,10.69,10.69,0,0,0-1.77,1.7,5.57,5.57,0,0,1-2.74,1.86c-3.74,1.14-8.17-1.54-9.83,1a17.39,17.39,0,0,1-2.89,3.42A12.15,12.15,0,0,1,209.2,325.45Z"/><path class="cls-9" d="M283.64,383.44s-20.18-48.91-56.51-49.84c0,0-33.53,3.73-35.39,49.84Z"/><path class="cls-10" d="M237.08,335.1s-14.56,3.23-19.05,1.33c0,0-.68-6.09,5.45-5.23,4.2.58,6.94-1.44,8.54-2.25C234.3,327.79,237.69,332.55,237.08,335.1Z"/><path class="cls-11" d="M224.41,325.92c.93.7,3.79-9.85,3.79-9.85a10.69,10.69,0,0,0-1.77,1.7,5.57,5.57,0,0,1-2.74,1.86C223.68,319.94,223.51,325.24,224.41,325.92Z"/><path class="cls-11" d="M211,324.09c.21.12,6.94,4.16,7.85,4.16s-5-7.58-5-7.58A17.39,17.39,0,0,1,211,324.09Z"/><path class="cls-12" d="M263.93,369.77c.37-.31-14.29-21.57-18.32-21.73s-13.11,4.66-19.67,5.28S213,352.08,211.76,356s-4.65,17.64-2.56,19.84S255.87,376.66,263.93,369.77Z"/><g id="man"><path class="cls-13" d="M206.86,263.6s-.46-2.27,4.76-9.26c1.13-1.51,4.57-7.19,4.57-7.19,1.36-.33,5.6,1.92,6.71,2.61.23.13.36.22.36.22s1.81,7.85-2,7l-.36-.07c-3.72-.58-7.32,3.12-9,5.46C210.85,263.86,207.56,263.66,206.86,263.6Z"/><path class="cls-13" d="M234.45,248.33s-.46-2.27,4.77-9.26c1.13-1.51,4.57-7.19,4.57-7.19,1.36-.33,5.6,1.92,6.71,2.61l.36.22s1.81,7.86-2,7l-.36-.07c-3.72-.58-7.32,3.11-9,5.46C238.44,248.59,235.16,248.39,234.45,248.33Z"/><path class="cls-14" d="M293.36,209.45c-1.07-4.6-13-18.93-19.05-15.61s-2.94,21.34,3.41,42.6l.3,1a274.5,274.5,0,0,0-28-2.73l-1.61,7.4c11.54,3.18,33.94,14.26,43.34,19,3.59,1.63,7.81,1.63,8.67-1.53C303.27,249,293.36,209.45,293.36,209.45Z"/><path class="cls-15" d="M270.65,275.66s-27.22-12.29-43.82-17.25c-2.06-.61-4-1.11-5.61-1.47l1.75-7.12s1.62,0,4.26,0c10.34,0,36.22.61,40.85,5.68C273.88,261.85,270.65,275.66,270.65,275.66Z"/><path class="cls-15" d="M291.22,107.26c.9,2.06,1.61,4.76,1,6.19a5.47,5.47,0,0,0-.5,2.78l-1.46.36-1.75.42s-.1-.15-.24-.4-.32-.62-.51-1a1.51,1.51,0,0,0-.83-1.13,3.24,3.24,0,0,1-1.67-2.12c-.14-.87-1-2.49-.78-2.66.62-.41,1.54,2.11,2.08,2.22a.54.54,0,0,0,.67-.31h0c.85-2.06-.72-7.27.52-7.56C288.23,103.9,290.84,106.39,291.22,107.26Z"/><path class="cls-15" d="M197,148.81c1.52,1.65,3.71,3.4,5.25,3.42a5.58,5.58,0,0,1,2.75.67l.92-1.19,1.09-1.43-.27-.38c-.18-.23-1.42-1.27-1.44-2.1a3.2,3.2,0,0,0-1.27-2.38c-.73-.48-1.86-1.95-2.11-1.79-.63.39,1.31,2.25,1.19,2.79a.54.54,0,0,1-.56.49h0c-2.23-.06-6.36-3.6-7.12-2.58C195.14,144.71,196.36,148.11,197,148.81Z"/><path class="cls-16" d="M262.88,212.88c-6.72,1.74-5,9.81-4,32,.12,2.51.35,4.93.68,7.24-9.84-2-25-2.27-32.3-2.29a13.85,13.85,0,0,0-1.16,4.87,14.05,14.05,0,0,0,2.46,7.65c16.6,5,42.12,13.34,42.12,13.34v0c1.71.44,3.31-.41,4.58-2.85,5.08-9.72,13.76-74.41,13.76-74.41C289.07,193.66,269.59,211.13,262.88,212.88Z"/><path class="cls-15" d="M251.92,163.21s2.36-6-2.23-14.52l6.53,1.45,4.43,1a42.62,42.62,0,0,1,1.69,4.32c.25.74,1.19,3.71,1.47,4.63,1.56.06-.69,2.42-3.89,2.89A46.5,46.5,0,0,1,251.92,163.21Z"/><path class="cls-17" d="M260.65,151.12a42.62,42.62,0,0,1,1.69,4.32c-3.81,1.14-10.6-2.56-10.6-2.56a12.46,12.46,0,0,1,4.48-2.74Z"/><path class="cls-15" d="M263.58,148.89s-7.56,8.36-12.7,3.57-9.57-6.93-5-12.47,7.53-4.74,9.63-3.56S265.41,146.59,263.58,148.89Z"/><path class="cls-18" d="M250.46,152s.78-.86-.35-2-2.39-2.73-1.15-3.22,1.92.27,2-.53-1.52-2.77,1.35-5.27,4.9-2.43,5.81-4.14-.69-3.86-.69-3.86a3,3,0,0,1-.21,1.77s-.2-5-4.59-5-6,3.54-7.48,4.87c-3.24,2.91-5.28,4.87-4.62,8S246.56,151.53,250.46,152Z"/><path class="cls-19" d="M258.86,147.15l2.8-2.64s1.14,1.75.34,2.51S258.86,147.15,258.86,147.15Z"/><path class="cls-18" d="M296.52,131.33a75,75,0,0,0-4.82-15.58l-3.93-.18s.44,10.05.34,17.09a14.91,14.91,0,0,1-1.92,7c-1.22,1.63-19.21,18.94-19.81,19.49l0,0h0c-1.92.33-1.7,3.47-3.67,4-3.28.88-8.72-.72-11.64.36h0s-23.35,0-26.9-1.68-17.41-11.92-17.41-11.92l-2.57,3s9.51,18.31,17,21.61c4.11,1.79,13.12,3.95,20.48,5.54a8.24,8.24,0,0,1,6.13,5.64,94.7,94.7,0,0,1,3.44,41.17,43.3,43.3,0,0,0,14.91-1.55,79.85,79.85,0,0,0,18.59-7.82c3-3.67,1.24-17.13,1.24-17.13a13,13,0,0,1,2.79,6c.51,2.71.78,4.22.95,5.17a1.23,1.23,0,0,0,1.94.78c1.55-1.15,3.76-2.94,4.46-4.26,2.42-4.59-3-23.29-10.39-36.34a7.28,7.28,0,0,1,.13-7.47c4.58-7.34,11.6-19,11.69-21.3A94.71,94.71,0,0,0,296.52,131.33Z"/><path class="cls-16" d="M262.19,164.82s6.27,8.9,1.67,17.5-22.66,7.41-26,18.15l2,6.68,7.55-4.09s.63-5.8,8.06-8.33c14.51-4.92,18-13.43,15-21a25.41,25.41,0,0,0-6.3-9.53Z"/><path class="cls-16" d="M252.5,159.93l7.27,2.4.36,1.38-9.07-.21A13.08,13.08,0,0,1,252.5,159.93Z"/><path class="cls-16" d="M263.14,157.93l.24,3.76s.95.78.94.68,2.05-3.23,2.05-3.23A20.93,20.93,0,0,0,263.14,157.93Z"/><path class="cls-14" d="M259.77,162.33l3.71-1.25a.56.56,0,0,1,.74.47l.31,2.49a.56.56,0,0,1-.38.6l-1.64.56a.58.58,0,0,1-.52-.09l-2.38-1.79A.57.57,0,0,1,259.77,162.33Z"/><path class="cls-13" d="M287.59,115l-.33,3.13s3.94.06,3.94,0,.12-1.55.12-1.55l.66,1.73,1.46-.48L291.77,115A6.11,6.11,0,0,1,287.59,115Z"/><polygon class="cls-13" points="206.75 149.9 204.18 152.89 204.93 155.81 205.98 155.09 205.46 152.9 207.26 154.38 209.59 151.3 206.75 149.9"/><path class="cls-20" d="M206.19,152.64a.23.23,0,0,1,.23-.23.24.24,0,1,1-.23.23Z"/><path class="cls-20" d="M290.47,117a.2.2,0,0,1,.19-.19.19.19,0,0,1,.19.19.18.18,0,0,1-.19.19A.19.19,0,0,1,290.47,117Z"/><path class="cls-20" d="M284.28,189.69a.5.5,0,0,1,.5-.51.51.51,0,0,1,0,1A.5.5,0,0,1,284.28,189.69Z"/><path class="cls-20" d="M280.25,181.29a.5.5,0,0,1,.5-.5.5.5,0,0,1,.51.5.51.51,0,0,1-.51.51A.5.5,0,0,1,280.25,181.29Z"/><path class="cls-20" d="M274.69,174.94a.51.51,0,1,1,.51.51A.51.51,0,0,1,274.69,174.94Z"/></g></svg>