<svg id="Layer_1" data-name="Layer 1" xmlns="http://www.w3.org/2000/svg" viewBox="0 0 499 467"><defs><style>.cls-1{fill:#fc869c;}.cls-2{fill:#233549;}.cls-2,.cls-8{opacity:0.1;}.cls-3{fill:#2f4dab;}.cls-13,.cls-4,.cls-8{fill:#0a1119;}.cls-10,.cls-4{opacity:0.2;}.cls-5,.cls-9{fill:#ffd3b6;}.cls-10,.cls-12,.cls-6{fill:#e29971;}.cls-6{opacity:0.5;}.cls-7{fill:#fce38a;}.cls-9{opacity:0.9;}.cls-11{fill:#2d4059;}.cls-14{fill:#fff;}.cls-15{fill:#95e1d3;}.cls-16{fill:#aeede1;}.cls-17{fill:#243f84;}</style></defs><title>vectorss</title><path class="cls-1" d="M369.68,157.63l-2.32,0a104.81,104.81,0,0,1-71.76-25.9A103,103,0,0,0,137,159.84a39.39,39.39,0,0,0-2,4.47c-10.82,27.63-32,50.18-59.47,61.3-.79.32-1.51.64-2.18,1a94.19,94.19,0,0,0-52,86.4c1.11,50.6,42.58,91.57,93.19,92.09a94.53,94.53,0,0,0,19.46-1.8,153.28,153.28,0,0,1,75.95,4,103.36,103.36,0,0,0,78.81-7c24.29-12.78,51.53-18.61,79-18.1h2.11A112.25,112.25,0,0,0,482,269.18C481.61,207.69,431.17,157.6,369.68,157.63Z"/><ellipse class="cls-2" cx="244.12" cy="368.18" rx="160.6" ry="15"/><path class="cls-3" d="M128.14,147.31S81,135.83,75.87,207.86,26.16,374.86,190,371.67s172.74-58,154.25-107.08C329.52,225.56,219.93,166.43,128.14,147.31Z"/><path class="cls-4" d="M225.66,368.49C95.24,371,72.55,306.69,71.35,244.1,61.79,308,52.65,374.35,190,371.67a534.84,534.84,0,0,0,59.43-4.13Q238.24,368.23,225.66,368.49Z"/><path class="cls-4" d="M344.22,264.59c-14.7-39-124.29-98.16-216.08-117.28,0,0-38.85-9.45-49.84,42.66,14.1-15.25,23.71-9.52,23.71-9.52,15.75,3.13,23.31,17.62,37,27.41,39.3,28.18,85.8,61.88,114.09,84.14,14.15,11.13,38.9,3.83,52.27,9.56,13.15,5.63,23.58,37-3.72,53.91C356.67,335,357,298.42,344.22,264.59Z"/><path class="cls-5" d="M140.46,206.16s-49.61-68.8-23.79-94.51,47.17,56.23,47.17,56.23S158.84,195.42,140.46,206.16Z"/><path class="cls-6" d="M163.84,167.88s-14-53.84-33.1-60.54c-14.25,23.31,13.61,69.39,23.65,84.6A77.35,77.35,0,0,0,163.84,167.88Z"/><path class="cls-5" d="M199.24,130.83s46.65-11,64.79-2.92c13,5.79,14.9,11.67,9.72,24s-25.59,37.58-44.06,47.3-30.12-25.27-30.12-25.27S230,152.21,239.41,148c0,0-19.11,2.91-46.32-3.57S199.24,130.83,199.24,130.83Z"/><path class="cls-6" d="M214.78,127.8c-9.06,1.5-15.54,3-15.54,3s-33.36,7.13-6.15,13.6a154,154,0,0,0,26.72,4A174.39,174.39,0,0,0,214.78,127.8Z"/><path class="cls-6" d="M258.65,170.73c-9.66-6.42-20.32-13.14-31.89-15.29C214,163.43,196,176.6,196,176.6s11.84,35.7,30.58,25.78c11.9-6.29,25-19.43,33.93-30.47C260,171.57,259.17,171.08,258.65,170.73Z"/><path class="cls-7" d="M231.31,200.8s17.49-11.34,24.3-18.79c0,0-7-17.49-32.4-26.24L195.68,171Z"/><path class="cls-8" d="M250.26,173.72c-8.41,6.24-25.56,14.06-25.56,14.06l-19.57-22L195.68,171l35.63,29.8s17.49-11.34,24.3-18.79A35.34,35.34,0,0,0,250.26,173.72Z"/><path class="cls-7" d="M220.25,175.67c-20.67-16.38-52.7-6.36-57.83-4.6l-5.28-11-28.36,32.5c3.37,6.45,12.65,17.31,13.34,18.12,1.32,7.38,44,63.47,82.91,74.09l49.71-49.5S242.77,193.52,220.25,175.67Z"/><path class="cls-8" d="M213.23,172.49a10.34,10.34,0,0,1,.67-.89c-20.33-10.43-46.85-2.12-51.48-.53l-5.28-11-13.88,15.88C156.06,192.32,193.48,205.63,213.23,172.49Z"/><path class="cls-9" d="M145.59,120.41s25.71-20.19,38.88-9.14,26,50.09,26,50.09S190,172.67,167.9,176.5C167.9,176.5,149,151,145.59,120.41Z"/><path class="cls-10" d="M175.31,161.79a96.9,96.9,0,0,1-9.9-18.93A63.91,63.91,0,0,1,160.34,118a.87.87,0,0,1,.25-.63c-.91-1.54-1.91-3-3-4.45a80.68,80.68,0,0,0-12,7.54C149,151,167.9,176.5,167.9,176.5a127.87,127.87,0,0,0,20.79-5.61l-.21,0C182.76,169.7,178.63,166.55,175.31,161.79Z"/><path class="cls-11" d="M204.66,145.69s4.88,10.62,3.61,12.75-2.76-12.75-11.48-8.71-21.19,2.6-20.76,12,2.28,11-2,10.78-12.32-4.46-20.18-37.18c0,0,4.67-2.55,0-14.45,0,0,19.76,7.65,32.72-3.82l-11.69-1.91s11.05,1.7,20.4-3l-8.5-2.12s10.2-.85,11.47-10.84a68.21,68.21,0,0,1-21.46-3.4c-.53-.17-1.09-.32-1.66-.47l.33,0c1.43.21,2.79.49,4,.76s2.44.53,3.5.74a20.4,20.4,0,0,0,2.8.4,5.4,5.4,0,0,0,1.06,0l.42,0,.35-.06.63-.13-.63-.09-.33,0-.4-.11a8.87,8.87,0,0,1-.95-.29c-.71-.25-1.54-.63-2.5-1s-2.06-1-3.29-1.46c-.61-.26-1.26-.51-1.94-.76s-1.39-.49-2.14-.7-1.52-.44-2.32-.6l-1.22-.25-1.26-.18a24.55,24.55,0,0,0-2.61-.25,26.52,26.52,0,0,0-2.68,0l-.68,0-.69.06-1.4.13-.69.08-.64.11-1.29.22a20.77,20.77,0,0,0-5.4,1.73,18.68,18.68,0,0,0-4.54,3.1,19.51,19.51,0,0,0-3.25,3.91,22,22,0,0,0-2,4,23.79,23.79,0,0,0-1.34,5.88,1,1,0,0,1-.05.16s-8.07.43-11.47,10.63c-4.53,13.59,11.68,28.26,11.68,28.26s3.83-4.89,7.44,3.18,6.75,28.15,22,31.13,38.57-2.28,40.48-14.82S204.66,145.69,204.66,145.69Z"/><path class="cls-4" d="M200.71,175.75c-6.2,1.39-14,2.77-19.79-.57a17.69,17.69,0,0,1-4.31-3.45c-.31.65-1,.81-2.55.73-4.25-.21-12.32-4.46-20.18-37.18,0,0,4.67-2.55,0-14.45a40.82,40.82,0,0,0,7.1,1.85,24.13,24.13,0,0,1-6-10.85c-1.37-6.23-.46-12.46,1-18.57l-.7.31a18.68,18.68,0,0,0-4.54,3.1,19.51,19.51,0,0,0-3.25,3.91,22,22,0,0,0-2,4,23.79,23.79,0,0,0-1.34,5.88,1,1,0,0,1-.05.16s-8.07.43-11.47,10.63c-4.53,13.59,11.68,28.26,11.68,28.26s3.83-4.89,7.44,3.18,6.75,28.15,22,31.13c15,2.92,37.71-2.1,40.34-14.15A33.24,33.24,0,0,1,200.71,175.75Z"/><path class="cls-5" d="M152,151.43s-4.25-7.65-7.22-7.44-7.86,2.34-5.52,8.5,10.09,11.26,15.61,9.35C154.83,161.84,156,157.59,152,151.43Z"/><path class="cls-10" d="M152,151.43s-4.25-7.65-7.22-7.44-7.86,2.34-5.52,8.5,10.09,11.26,15.61,9.35C154.83,161.84,156,157.59,152,151.43Z"/><path class="cls-12" d="M189.57,152c2.8-2.18,5.69-4.23,8.6-6.23l-.12.88q-1.91-2-3.74-4c-1.23-1.35-2.42-2.73-3.61-4.12a109.54,109.54,0,0,1-6.71-8.68,107.22,107.22,0,0,1,7.79,7.73c1.23,1.35,2.46,2.7,3.65,4.09s2.36,2.78,3.51,4.2l.44.55-.57.34C195.78,148.54,192.71,150.31,189.57,152Z"/><path class="cls-13" d="M187,129.33a12.55,12.55,0,0,0,2.73,3.36,4,4,0,0,0,3.56.88,2.07,2.07,0,0,0,2-2.34A13.29,13.29,0,0,0,194,127.1a7.71,7.71,0,0,1,2.43,4,3.23,3.23,0,0,1-.5,2.65,3.49,3.49,0,0,1-1.09.91,5.89,5.89,0,0,1-1.24.43,4.77,4.77,0,0,1-4.69-1.51A7.6,7.6,0,0,1,187,129.33Z"/><path class="cls-13" d="M165.35,138.1a12.47,12.47,0,0,0,2.73,3.35,4,4,0,0,0,3.56.89,2.06,2.06,0,0,0,2-2.35,13.07,13.07,0,0,0-1.25-4.13,7.8,7.8,0,0,1,2.43,4,3.22,3.22,0,0,1-.5,2.65,3.52,3.52,0,0,1-1.1.91,5.62,5.62,0,0,1-1.23.43,4.71,4.71,0,0,1-4.69-1.5A7.63,7.63,0,0,1,165.35,138.1Z"/><path class="cls-13" d="M160.25,135.23a7.08,7.08,0,0,1,1.1-4.27,8.93,8.93,0,0,1,3.23-3.11A8.37,8.37,0,0,1,169,126.7a7,7,0,0,1,4.2,1.36c-1.4.68-2.59,1.06-3.67,1.58a26.57,26.57,0,0,0-3,1.51c-1,.54-1.92,1.13-2.91,1.82Z"/><path class="cls-13" d="M182.85,126.93a6.24,6.24,0,0,1,.63-3.5,7.66,7.66,0,0,1,2.28-2.8,6.43,6.43,0,0,1,3.6-1.26,4.61,4.61,0,0,1,3.41,1.37,20.18,20.18,0,0,0-2.91,1.11,18.63,18.63,0,0,0-2.18,1.37c-.7.52-1.41,1.11-2.19,1.73S183.89,126.24,182.85,126.93Z"/><path class="cls-14" d="M180.65,160.09s13.7-2.87,22.47-7.17C203.12,152.92,198.33,166.14,180.65,160.09Z"/><path class="cls-12" d="M152.12,159.45a5.44,5.44,0,0,1-2.13,0,3,3,0,0,1-1.09-.44,2,2,0,0,1-.75-1.09,2.64,2.64,0,0,1,0-1.31,2.58,2.58,0,0,1,.69-1.13,4.3,4.3,0,0,1,2.21-1.08l-.57,1.05c-.47-.91-1-1.82-1.56-2.71s-1.12-1.76-1.74-2.59a10.8,10.8,0,0,0-2.07-2.19,2.9,2.9,0,0,0-1.3-.56,2.14,2.14,0,0,0-1.44.4,2.14,2.14,0,0,1,1.42-.9,3.14,3.14,0,0,1,1.74.32,8.57,8.57,0,0,1,2.66,2.09,19.4,19.4,0,0,1,2,2.63,26.53,26.53,0,0,1,1.6,2.86l.46.93-1,.12a3.08,3.08,0,0,0-1.52.59,1.53,1.53,0,0,0-.45.56,1.86,1.86,0,0,0-.14.73,1.09,1.09,0,0,0,.29.64,2.76,2.76,0,0,0,.74.51A7.8,7.8,0,0,0,152.12,159.45Z"/><path class="cls-5" d="M338.13,339.85s-4.39,21.26-1.64,24.77,72.48,20.13,15.58-4.92c0,0,8.85-39.34,11.15-50.86S338.13,339.85,338.13,339.85Z"/><path class="cls-6" d="M336.08,352.54a108,108,0,0,0,17.54.23c2.65-11.82,7.9-35.43,9.6-43.93,2.3-11.53-25.09,31-25.09,31S336.82,346.21,336.08,352.54Z"/><path class="cls-14" d="M358.54,360l-6.31,7.1-19.14-4.43L333,366s43.55,12.83,43.08,6.72S358.54,360,358.54,360Z"/><path class="cls-15" d="M274.58,240.4s83.84-10.73,97.05,3.79S367.49,338.78,358.24,350c0,0-14.36,3.51-22.94-5.73l6.37-70.76s-79,36.88-95.48,17.07S274.58,240.4,274.58,240.4Z"/><path class="cls-4" d="M274.58,240.4s83.84-10.73,97.05,3.79S367.49,338.78,358.24,350c0,0-14.36,3.51-22.94-5.73l6.37-70.76s-79,36.88-95.48,17.07S274.58,240.4,274.58,240.4Z"/><path class="cls-16" d="M334.09,339.7l.81,8.21s15.25,7.14,26.15,1.81l.72-3.18S343,343.15,334.09,339.7Z"/><path class="cls-4" d="M334.09,339.7l.81,8.21s15.25,7.14,26.15,1.81l.72-3.18S343,343.15,334.09,339.7Z"/><path class="cls-5" d="M402.22,278.61s14,16.58,18.49,16.58,60.55-44.62,5.74-15.3c0,0-25.5-31.24-33.15-40.16S402.22,278.61,402.22,278.61Z"/><path class="cls-6" d="M411,288.06a108.76,108.76,0,0,0,11-13.67c-7.67-9.38-23-28.08-28.65-34.66-7.65-8.92,8.92,38.88,8.92,38.88S406.42,283.57,411,288.06Z"/><path class="cls-15" d="M223.75,288.26s36.61,18.66,59.58,6.46,69.61-59.6,69.61-59.6,37.67,38.46,53.46,49.95c0,0,14.61-8.76,14.61-15.94s-57.32-79.49-68.09-80.93S284.05,212.89,223.75,288.26Z"/><path class="cls-16" d="M399.61,281.94l6.58,4.18s14.19-7.17,16.59-18.38l-1.95-2.39S407.38,277.31,399.61,281.94Z"/><path class="cls-14" d="M430.7,275l1.7,9.35-15.3,12.32,2.55,2.13s37-26.35,31.87-29.75S430.7,275,430.7,275Z"/><path class="cls-8" d="M239,247.7c-33.48-29.15-78.91-40.23-102.76-44.24,2.91,3.75,5.52,6.8,5.87,7.22,1.32,7.38,44,63.47,82.91,74.09l9.28-9.24q-5.25,6.12-10.56,12.73s36.61,18.66,59.58,6.46l1.14-.62C274.65,282,260,266,239,247.7Z"/><path class="cls-17" d="M112.84,200.85s89.24,7,168.92,111.55C342.12,391.6,112.84,267.14,112.84,200.85Z"/></svg>