<svg id="Layer_1" data-name="Layer 1" xmlns="http://www.w3.org/2000/svg" viewBox="0 0 499 467"><defs><style>.cls-1{fill:#fc869c;}.cls-2{fill:#49ba99;}.cls-3{fill:#ffaa27;}.cls-4{fill:#fb806d;}.cls-5{fill:#2f4dab;}.cls-6{fill:#f0ebeb;}.cls-7{fill:#3f69d1;}.cls-20,.cls-24,.cls-28,.cls-8,.cls-9{fill:#34336c;}.cls-9{font-size:6.03px;}.cls-17,.cls-20,.cls-24,.cls-28,.cls-9{font-family:Montserrat-Regular, Montserrat;}.cls-10{letter-spacing:-0.01em;}.cls-11{letter-spacing:-0.01em;}.cls-12{letter-spacing:-0.02em;}.cls-13{letter-spacing:0em;}.cls-14{letter-spacing:-0.01em;}.cls-15{letter-spacing:-0.01em;}.cls-16{fill:#bc3d61;}.cls-17{font-size:4.49px;fill:#f2f3e8;}.cls-18{letter-spacing:-0.02em;}.cls-19{opacity:0.57;}.cls-20,.cls-24,.cls-28{font-size:4.1px;}.cls-21{letter-spacing:-0.01em;}.cls-22{letter-spacing:0em;}.cls-23{letter-spacing:-0.01em;}.cls-24,.cls-36{letter-spacing:-0.02em;}.cls-25{letter-spacing:0em;}.cls-26,.cls-38{fill:none;stroke-miterlimit:10;stroke-width:0.5px;}.cls-26{stroke:#34336c;}.cls-27{opacity:0.52;}.cls-28{letter-spacing:-0.02em;}.cls-29{letter-spacing:0.02em;}.cls-30{letter-spacing:-0.06em;}.cls-31{letter-spacing:-0.02em;}.cls-32{letter-spacing:-0.02em;}.cls-33{letter-spacing:-0.01em;}.cls-34{letter-spacing:-0.01em;}.cls-35{letter-spacing:-0.01em;}.cls-37{letter-spacing:0em;}.cls-38{stroke:#00c3e3;}.cls-39{fill:#6d55b0;opacity:0.25;}.cls-40{fill:#ffba99;}.cls-41{fill:#5f4456;}.cls-42{fill:#cf6940;}</style></defs><title>vectorss</title><path class="cls-1" d="M60.53,411.88s-37.23-71.6,2-133.48C232.28,11,481.69,185,407,299.79c-30.79,47.32,66.09,57.57,37,112.21Z"/><path class="cls-2" d="M310.13,339.68c-1.73-3.35,2.3-6.94,6-7.61s7.91-.15,10.87-2.49c3.94-3.13,3.74-9.94,8.11-12.44,3.51-2,8.16-.09,11.87-1.67,4.62-2,5.92-8.4,10.45-10.56,3.61-1.72,8.34.22,10.18,3.77s1,8.15-1.56,11.22c-2,2.41-5,4.1-6.2,7-1.95,4.5,1.12,9.95-.67,14.51-3.3,8.43-18.92,5.89-21.63,14.52-.6,1.93-.35,4-.51,6-.47,6-4.68,11.19-9.88,14.17s-11.29,4-17.27,4.42c-2.44.17-5,.22-7.19-.9a11.72,11.72,0,0,1-4.59-5c-7.18-13-10.14-30,12-34.89"/><path class="cls-3" d="M195,317.76c3.86-2.55,1.72-8.82-1.85-11.76s-8.38-4.94-10.13-9.22c-2.34-5.72,2-12.89-1.19-18.19-2.55-4.25-8.67-5-11.69-8.94-3.75-4.88-1.27-12.55-4.82-17.59-2.82-4-9.05-4.78-13.16-2.09s-6,8.11-5.08,12.94c.68,3.78,2.83,7.37,2.43,11.19-.63,6-7.19,10-8,15.92-1.54,11,16.69,17.69,14.39,28.56-.51,2.42-2,4.48-3.07,6.73-3.1,6.67-1.74,14.79,2,21.11s9.66,11.08,15.81,15.13c2.51,1.65,5.23,3.26,8.23,3.37,2.83.11,5.54-1.13,7.94-2.62,15.53-9.61,28.92-26,8.18-44.54"/><path class="cls-4" d="M296.26,346.55c5.4-2.32,10.26-6.63,14.29-10.79,10.87-11.23,17.62-25.88,21.16-41,3.21-13.65,3.92-27.77,3.25-41.74,0-1.19-1.9-1.19-1.84,0,1.5,31.39-4.73,69.91-32.82,89a30.08,30.08,0,0,1-5,2.89c-1.09.47-.15,2.06.93,1.59Z"/><path class="cls-4" d="M332,289.51s1.78-10.17,15.26-11.78C347.22,277.73,342.3,289.76,332,289.51Z"/><path class="cls-4" d="M327.55,304.54s4.1-9.47,17.58-7.89C345.13,296.65,337.54,307.2,327.55,304.54Z"/><path class="cls-4" d="M321.82,317.79s6.13-8.32,18.91-3.76C340.73,314,331,322.62,321.82,317.79Z"/><path class="cls-4" d="M334,273.72s1.75-10,15-11.58C349,262.14,344.2,274,334,273.72Z"/><path class="cls-4" d="M334.21,256.34s-7.54-6.79-1.84-18.85C332.37,237.49,339.82,247.87,334.21,256.34Z"/><path class="cls-4" d="M334.26,266.65s-10-1.84-11.44-15.1C322.82,251.55,334.61,256.49,334.26,266.65Z"/><path class="cls-4" d="M333.26,281.88s-10-1.84-11.44-15.1C321.82,266.78,333.61,271.72,333.26,281.88Z"/><path class="cls-4" d="M330.67,296.14s-9.82-2.53-10.35-15.86C320.32,280.28,331.73,286,330.67,296.14Z"/><path class="cls-4" d="M326.14,310.4s-9.82-2.54-10.35-15.87C315.79,294.53,327.2,300.28,326.14,310.4Z"/><rect class="cls-5" x="175.7" y="86.11" width="143.42" height="281.22" rx="21.15"/><rect class="cls-6" x="182.32" y="94.38" width="130.18" height="263.01" rx="14.81"/><path class="cls-7" d="M286.36,94.38H277.9a4.71,4.71,0,0,0-4.71,4.71v3.36a4.7,4.7,0,0,1-4.7,4.7H230.74a4.71,4.71,0,0,1-4.71-4.7V99.09a4.7,4.7,0,0,0-4.7-4.71h-24V92h89.07Z"/><path class="cls-8" d="M251,134.92a1.75,1.75,0,1,0-1.64,0,2.74,2.74,0,0,0-1.92,2.6v1.38h5.47v-1.38A2.75,2.75,0,0,0,251,134.92Z"/><text class="cls-9" transform="translate(226.88 148.59)">C<tspan class="cls-10" x="4.33" y="0">r</tspan><tspan class="cls-11" x="6.67" y="0">e</tspan><tspan x="10.22" y="0">a</tspan><tspan class="cls-12" x="13.78" y="0">t</tspan><tspan class="cls-13" x="16.11" y="0">e </tspan><tspan class="cls-14" x="21.33" y="0">A</tspan><tspan class="cls-15" x="25.62" y="0">cc</tspan><tspan class="cls-13" x="32.3" y="0">ount</tspan></text><rect class="cls-16" x="219.65" y="306.66" width="54.17" height="12.16" rx="0.98"/><text class="cls-17" transform="translate(237.39 314.06)">Regis<tspan class="cls-18" x="12.44" y="0">t</tspan><tspan x="14.18" y="0">er</tspan></text><g class="cls-19"><text class="cls-20" transform="translate(200.67 164.93)">Email <tspan class="cls-21" x="12.8" y="0">A</tspan><tspan class="cls-22" x="15.72" y="0">dd</tspan><tspan class="cls-23" x="21.28" y="0">r</tspan><tspan class="cls-22" x="22.87" y="0">ess</tspan></text></g><text class="cls-24" transform="translate(205.28 178.32)">y<tspan class="cls-25" x="2.16" y="0">ou</tspan><tspan class="cls-23" x="7.49" y="0">r</tspan><tspan class="cls-22" x="9.08" y="0">email@gmail</tspan><tspan x="36.57" y="0">.</tspan><tspan class="cls-25" x="37.38" y="0">c</tspan></text><rect class="cls-26" x="200.67" y="169.39" width="99.08" height="14.93" rx="2.76"/><g class="cls-27"><text class="cls-28" transform="translate(200.67 198.17)">C<tspan class="cls-25" x="2.85" y="0">ount</tspan><tspan class="cls-29" x="12.63" y="0">r</tspan><tspan class="cls-25" x="14.33" y="0">y</tspan></text></g><text class="cls-20" transform="translate(205.28 211.42)"><tspan class="cls-30">Y</tspan><tspan x="2.36" y="0">our </tspan><tspan class="cls-31" x="10.41" y="0">t</tspan><tspan class="cls-32" x="12" y="0">e</tspan><tspan x="14.41" y="0">xt</tspan></text><rect class="cls-26" x="200.67" y="202.75" width="99.08" height="14.93" rx="2.76"/><g class="cls-27"><text class="cls-20" transform="translate(200.67 233.25)">Ci<tspan class="cls-33" x="4.05" y="0">t</tspan><tspan x="5.68" y="0">y</tspan></text></g><text class="cls-20" transform="translate(205.28 246.51)"><tspan class="cls-30">Y</tspan><tspan x="2.36" y="0">our Ci</tspan><tspan class="cls-34" x="14.46" y="0">t</tspan><tspan x="16.09" y="0">y</tspan></text><rect class="cls-26" x="200.67" y="237.84" width="99.08" height="14.93" rx="2.76"/><g class="cls-27"><text class="cls-20" transform="translate(200.67 268.51)"><tspan class="cls-35">P</tspan><tspan class="cls-22" x="2.88" y="0">as</tspan><tspan class="cls-34" x="7.31" y="0">s</tspan><tspan class="cls-36" x="9.27" y="0">w</tspan><tspan x="12.82" y="0">o</tspan><tspan class="cls-23" x="15.39" y="0">r</tspan><tspan class="cls-22" x="16.98" y="0">d</tspan></text></g><text class="cls-20" transform="translate(205.28 281.77)">Ent<tspan class="cls-29" x="7.19" y="0">r</tspan><tspan class="cls-25" x="8.89" y="0">y </tspan><tspan class="cls-37" x="12.19" y="0">p</tspan><tspan x="14.96" y="0">as</tspan><tspan class="cls-34" x="19.38" y="0">s</tspan><tspan class="cls-36" x="21.35" y="0">w</tspan><tspan x="24.89" y="0">o</tspan><tspan class="cls-23" x="27.46" y="0">r</tspan><tspan class="cls-22" x="29.05" y="0">d</tspan></text><rect class="cls-26" x="200.67" y="273.1" width="99.08" height="14.93" rx="2.76"/><line class="cls-38" x1="245.87" y1="173.42" x2="245.87" y2="178.69"/><path class="cls-39" d="M297,409.92c0-1.17-28.53-2.11-63.73-2.11s-63.74.94-63.74,2.11,28.53,2.1,63.74,2.1S297,411.08,297,409.92Z"/><path class="cls-40" d="M240,275.06s6.33,9.78,7.76,5.54l2.32-6.83s-1.8-2.95-2.76-2-2.28-.77-2.28-.77Z"/><path class="cls-40" d="M271.34,224.48l2.62-15.2c1.72-.56,3.48-1.88,2.88-3.94a3,3,0,0,0-2-1.92c-.36-.14-2.19-.66-2.32,0,0,0,1-5.48,1-5.48l-17.82-8.6-1.65,11c0-.17-1.73-.57-2-.54a3,3,0,0,0-2.12,1.71,3.54,3.54,0,0,0,3.11,4.72s.31,4.9,1.44,6.63,6.38,2.94,6.38,2.94l-.58,6.61Z"/><path class="cls-3" d="M277.36,225.72c-8.05-2.26-19.36-4.25-19.36-4.25l-7.51,53.44,31.62-1Z"/><path class="cls-3" d="M277.36,225.72a208.69,208.69,0,0,0,31.71,6c-2.4-11-3.72-19.33-6.87-28.64l11.87-3s10,34.69,6.94,39.32c-5.15,7.87-30.76,2.68-30.76,2.68l-12.12-2.15Z"/><path class="cls-3" d="M223.22,237.49s33.93-16.6,35.49-16,2.89,8.3,2.89,8.3a297.73,297.73,0,0,1-31.33,16.67L247.58,270,239,276.21S215.2,249.5,216.1,244C216.8,239.73,223.22,237.49,223.22,237.49Z"/><path class="cls-40" d="M313.56,200.15s-1.4-9.81-1.57-10.09-.17-2-2.69-1.6c0,0-.17-3.11-1.62-3.16a13.22,13.22,0,0,0-3.09.33s-1.64-8-2.7-9.36-2.79,2.47-.26,12.19c0,0,1.39,6.61,1,6.86-1.13.65-2.68.54-4.83-3.13-2.28-3.9-5.12-2.58-3.72.44s3.39,6.94,4.68,8,4,.9,4,.9l.4,1.27Z"/><path class="cls-41" d="M282.11,273.94c-3.81,57.83-16.74,129.2-16.74,129.2L278,408.5h-27l17.68-126.21H262.7L218,408.58H191L206.35,403l44.72-132.18Z"/><path class="cls-42" d="M275.62,203.82c1.51-3,3.27-10.33-1.3-12.36a47.05,47.05,0,0,1-6.66-3.79,11.57,11.57,0,0,0-9.49-1.71,8.71,8.71,0,0,0-1.5.56c-3.19,1.57-5.35,10-5.35,10l3.14.79s3.5,15.57,9.26,18.77l5.75,1.21,3.4.77Z"/><path class="cls-42" d="M271.45,190.38a21.7,21.7,0,0,0-.11-2.79c0-.37-.63-.38-.59,0a21.69,21.69,0,0,1,.1,2.79c0,.38.59.38.6,0Z"/><path class="cls-42" d="M271.45,190.5a2.76,2.76,0,0,0,.76-1.13,11.64,11.64,0,0,1,.92-1.4c.23-.3-.28-.6-.51-.3a12.09,12.09,0,0,0-.76,1.11c-.19.33-.38,1-.71,1.2s0,.72.3.52Z"/></svg>