<svg id="Layer_1" data-name="Layer 1" xmlns="http://www.w3.org/2000/svg" viewBox="0 0 499 467"><defs><style>.cls-1{fill:#fc869c;}.cls-2{fill:#ececec;}.cls-3{fill:#e1e1e1;}.cls-4{fill:#f5f5f5;}.cls-5{fill:#fafafa;}.cls-6{fill:#1a2e35;}.cls-7{fill:#ff4f5b;}.cls-8{opacity:0.2;}.cls-9{opacity:0.3;}.cls-10{fill:#fff;}.cls-11{fill:#ffbf9d;}.cls-12{fill:#ff9a6c;}.cls-13{fill:#375a64;}</style></defs><title>vectorss</title><path class="cls-1" d="M372.24,164.47l-2.36,0A104.73,104.73,0,0,1,296.56,137,102.57,102.57,0,0,0,227,109.69c-39.93,0-74.66,23.1-92.47,57.12a43,43,0,0,0-2.08,4.74c-11.06,29.32-32.65,53.24-60.76,65-.81.34-1.55.68-2.23,1-32.15,16.72-54,51.58-53.18,91.65,1.13,53.67,43.51,97.13,95.21,97.69a94,94,0,0,0,19.89-1.91,151,151,0,0,1,77.6,4.24,102,102,0,0,0,80.52-7.47c24.81-13.56,52.64-19.74,80.68-19.2l2.15,0c63.59,0,115.09-53.73,114.7-119.85C486.61,217.57,435.07,164.44,372.24,164.47Z"/><path class="cls-2" d="M416.43,266.53s-8.05-2.64-11.91,15.94-4.44,28.85-4.44,28.85-1.26,4-4.22,2.42-7.91-7.05-11.58-4.82-3.92,7.3-1.28,13.88,7.91,21.18,8.38,22.5.23,3.46-2,2.7-16-9.68-19.85-2.86,6.54,23.91,7.63,25.8.94,2.87.11,3.64-5.2-2.67-9.23-5-9.14-4.42-11-.3,1,18.27,20.44,37.26l9.57,8.21,12-4c25.19-10.15,33.28-22.13,33.11-26.65s-5.67-4.58-10.3-3.93-10,2.17-10.46,1.14-.25-2,1.49-3.32,17.84-13.18,16.89-20.94-17.13-4.8-19.44-4.93-1.7-2.22-.78-3.24,11.38-12.54,16.33-17.61,6.75-9.72,4.11-13.31-9.2-.31-12.54,0-3-3.85-3-3.85,3.38-9.71,6.9-28.36-5.15-19.25-5.15-19.25"/><path class="cls-3" d="M387,412.05c2.64-13.68,6.44-32.56,10.71-53.4s8.12-39.69,10.83-53.36c1.34-6.82,2.44-12.35,3.19-16.19.38-1.9.68-3.38.88-4.4q.15-.74.24-1.14c0-.26.09-.39.09-.39s0,.13-.05.39-.11.66-.2,1.15c-.18,1-.45,2.52-.79,4.42-.7,3.84-1.74,9.38-3.06,16.22-2.64,13.69-6.44,32.56-10.71,53.39s-8.12,39.7-10.83,53.37"/><path class="cls-3" d="M390.89,316.84a3.87,3.87,0,0,1,.54.73c.32.49.77,1.21,1.31,2.11,1.09,1.79,2.52,4.3,4.05,7.11s2.84,5.26,3.88,7.2l1.19,2.17a3.86,3.86,0,0,1,.4.82,3.4,3.4,0,0,1-.54-.73c-.33-.49-.78-1.21-1.31-2.11-1.07-1.81-2.47-4.34-4-7.14s-2.87-5.25-3.93-7.17l-1.2-2.17A3.45,3.45,0,0,1,390.89,316.84Z"/><path class="cls-3" d="M403.44,336.89c-.07-.1,5-3.29,11.28-7.11s11.45-6.86,11.51-6.75-5,3.28-11.28,7.11S403.5,337,403.44,336.89Z"/><path class="cls-3" d="M395.44,368.59a3.82,3.82,0,0,1,.88-.29l2.44-.67c2.07-.56,4.91-1.34,8-2.32s5.9-1.95,7.91-2.67l2.38-.85a4.62,4.62,0,0,1,.89-.27,3.17,3.17,0,0,1-.83.42c-.54.25-1.34.59-2.33,1-2,.8-4.77,1.82-7.89,2.8s-6,1.72-8.06,2.21c-1,.24-1.89.42-2.48.53A3.87,3.87,0,0,1,395.44,368.59Z"/><path class="cls-3" d="M380.09,353a3.25,3.25,0,0,1,.67.54c.41.37,1,.92,1.71,1.6,1.43,1.37,3.38,3.27,5.52,5.4s4.05,4.06,5.43,5.48l1.61,1.7a3.81,3.81,0,0,1,.55.66s-.26-.17-.67-.54-1-.92-1.71-1.6c-1.43-1.36-3.38-3.27-5.52-5.4s-4.05-4.06-5.43-5.48l-1.61-1.7A3.81,3.81,0,0,1,380.09,353Z"/><path class="cls-3" d="M369.48,380a4.79,4.79,0,0,1,.84.7l2.2,2.05c1.84,1.74,4.36,4.16,7.12,6.86s5.26,5.15,7,7l2.1,2.14a4.81,4.81,0,0,1,.73.83,6.44,6.44,0,0,1-.85-.71l-2.19-2.05c-1.84-1.73-4.36-4.16-7.13-6.86s-5.25-5.15-7-6.95c-.84-.85-1.54-1.57-2.09-2.14A5.62,5.62,0,0,1,369.48,380Z"/><path class="cls-3" d="M389.16,399a6,6,0,0,1,1.11-.4c.81-.24,1.83-.56,3.07-.95,2.59-.8,6.16-1.93,10.07-3.27s7.41-2.65,9.95-3.62l3-1.13a5.47,5.47,0,0,1,1.12-.37,5.83,5.83,0,0,1-1.06.52c-.69.32-1.7.75-2.95,1.27-2.51,1-6,2.39-9.92,3.73s-7.51,2.43-10.12,3.17c-1.31.36-2.37.64-3.11.82A5.62,5.62,0,0,1,389.16,399Z"/><path class="cls-2" d="M207.75,110.49l-33.46-16a4.64,4.64,0,0,1-2.19-6.18L194.21,42a4.65,4.65,0,0,1,6.19-2.19L221.61,50,230,74.74l-16,33.57A4.63,4.63,0,0,1,207.75,110.49Z"/><path class="cls-4" d="M221.61,50l-6.22,13a4.31,4.31,0,0,0,2,5.75l12.53,6Z"/><path class="cls-3" d="M215,64.23a4.79,4.79,0,0,0,1.42,5.84l.37.29c1.5,1.07,11.35,8.13,11.47,7.88s1.67-3.5,1.67-3.5l-12.53-6S214.35,67.16,215,64.23Z"/><path class="cls-5" d="M212.84,61.13c-.08.17-3.61-1.35-7.88-3.39s-7.68-3.83-7.6-4,3.61,1.35,7.89,3.39S212.92,61,212.84,61.13Z"/><path class="cls-5" d="M219.32,73.27c-.08.17-5.85-2.41-12.88-5.77s-12.68-6.22-12.6-6.39,5.85,2.42,12.89,5.78S219.4,73.11,219.32,73.27Z"/><path class="cls-5" d="M218.67,80.52c-.08.17-6.36-2.66-14-6.32s-13.82-6.77-13.74-6.93,6.36,2.66,14,6.32S218.75,80.36,218.67,80.52Z"/><path class="cls-5" d="M215.9,86.33c-.08.17-6.36-2.67-14-6.33s-13.82-6.76-13.74-6.93,6.36,2.67,14,6.33S216,86.16,215.9,86.33Z"/><path class="cls-5" d="M213.13,92.13c-.08.17-6.36-2.66-14-6.32S185.28,79,185.36,78.88s6.36,2.66,14,6.32S213.21,92,213.13,92.13Z"/><path class="cls-5" d="M210.36,97.94c-.08.17-6.36-2.67-14-6.33s-13.82-6.76-13.74-6.93,6.36,2.67,14,6.33S210.44,97.77,210.36,97.94Z"/><path class="cls-5" d="M395.64,345.06H328.16s-.79-15.87,13.24-16.93c0,0,2.32-13.43,18-13.5,18.79-.08,19,16.27,19,16.27s15.38-1.45,17.23,14.16"/><polygon class="cls-2" points="74.85 321.14 74.85 321.14 74.85 321.14 74.85 321.14 61.88 332.89 69.71 332.89 69.71 349.52 74.56 349.52 75.14 349.52 79.99 349.52 79.99 332.89 87.82 332.89 74.85 321.14"/><polygon class="cls-2" points="409 93.6 409 93.6 409 93.6 409 93.6 393.15 107.97 402.73 107.97 402.73 128.29 408.65 128.29 409.37 128.29 415.29 128.29 415.29 107.97 424.86 107.97 409 93.6"/><rect class="cls-2" x="63.87" y="91.42" width="47.89" height="59.9" transform="translate(-49.79 180.58) rotate(-77.39)"/><rect class="cls-4" x="66.85" y="93.52" width="41.86" height="55.69" transform="translate(-49.82 180.53) rotate(-77.39)"/><polygon class="cls-3" points="56.04 135.71 80.7 114.56 88.9 133.08 98.78 126.37 110.38 147.86 56.04 135.71"/><path class="cls-3" d="M98.14,115.2A4.38,4.38,0,1,1,94.82,110,4.38,4.38,0,0,1,98.14,115.2Z"/><path class="cls-6" d="M448,414.39c0,.13-93.59.23-209,.23s-209-.1-209-.23,93.57-.23,209-.23S448,414.26,448,414.39Z"/><path class="cls-7" d="M387.21,381.47c-1.53,2.18-4.5,1.46-5.88.13a11.22,11.22,0,0,1-2.48-5.11c-1.21-4.21-2.44-8.62-1.54-12.9a7.19,7.19,0,0,1,1.65-3.51,3.74,3.74,0,0,1,3.55-1.18c1.5.39,2.43,1.86,3.1,3.26a30.61,30.61,0,0,1,3,13.2,10.66,10.66,0,0,1-1.44,6.11"/><g class="cls-8"><path d="M387.21,381.47c-1.53,2.18-4.5,1.46-5.88.13a11.22,11.22,0,0,1-2.48-5.11c-1.21-4.21-2.44-8.62-1.54-12.9a7.19,7.19,0,0,1,1.65-3.51,3.74,3.74,0,0,1,3.55-1.18c1.5.39,2.43,1.86,3.1,3.26a30.61,30.61,0,0,1,3,13.2,10.66,10.66,0,0,1-1.44,6.11"/></g><path class="cls-7" d="M381.48,392.52a13.21,13.21,0,0,0-8.21-1,6.84,6.84,0,0,0-4.06,1.81c-1,1.12-1.21,3.09,0,4.06a3.84,3.84,0,0,0,2.56.64c2.17,0,4.58-.4,6.31.9,1,.75,1.65,2,2.84,2.36a2.81,2.81,0,0,0,3.07-1.37,4.74,4.74,0,0,0,.35-3.53A5.39,5.39,0,0,0,381.48,392.52Z"/><path class="cls-7" d="M391.41,384.6a7.94,7.94,0,0,1-1.24-7.31A14.14,14.14,0,0,1,394.5,371a23.19,23.19,0,0,1,7.75-4.57,8.21,8.21,0,0,1,3.49-.59,3.63,3.63,0,0,1,2.92,1.77c.82,1.55,0,3.44-.81,5a59.48,59.48,0,0,1-5.09,7.75c-1.53,2-3.28,3.91-5.6,4.8s-4.74.78-6-.83"/><path class="cls-6" d="M387.31,414.39a5.15,5.15,0,0,1-.14-1c-.07-.72-.15-1.63-.26-2.71a36.68,36.68,0,0,0-.61-4,30.21,30.21,0,0,0-1.44-4.68,17.56,17.56,0,0,0-2.39-4.24,8.87,8.87,0,0,0-3-2.52,8.41,8.41,0,0,0-2.55-.79,6.38,6.38,0,0,1-1-.14,4.06,4.06,0,0,1,1,0,7.76,7.76,0,0,1,2.66.69,9,9,0,0,1,3.19,2.54,17,17,0,0,1,2.48,4.32,29,29,0,0,1,1.43,4.77,33.61,33.61,0,0,1,.53,4c.09,1.15.12,2.08.13,2.72A4.11,4.11,0,0,1,387.31,414.39Z"/><path class="cls-6" d="M387.13,412.31a1.38,1.38,0,0,1,0-.46v-1.32c0-1.14,0-2.79-.06-4.83-.1-4.08-.45-9.72-1.13-15.91S384.32,378,383.5,374c-.2-1-.39-1.9-.58-2.69s-.33-1.47-.47-2-.23-.94-.31-1.28a1.89,1.89,0,0,1-.08-.45,2.4,2.4,0,0,1,.16.43c.1.33.23.75.38,1.26s.35,1.23.54,2,.43,1.68.64,2.68a148.83,148.83,0,0,1,2.54,15.78c.68,6.21,1,11.86,1,15.95,0,2.05,0,3.7-.07,4.85,0,.53-.06,1-.08,1.31A2.43,2.43,0,0,1,387.13,412.31Z"/><path class="cls-6" d="M387.1,401.41a9,9,0,0,1,0-1.37,37.25,37.25,0,0,1,.42-3.73A51.32,51.32,0,0,1,391,384.46a34.26,34.26,0,0,1,6.66-10.37,19.89,19.89,0,0,1,1.57-1.46c.24-.2.45-.41.67-.57l.61-.41a8.23,8.23,0,0,1,1.16-.75,41.66,41.66,0,0,0-3.8,3.39,35.88,35.88,0,0,0-6.49,10.34A50.9,50.9,0,0,0,389.1,391a54,54,0,0,0-1.28,5.37c-.29,1.55-.45,2.81-.55,3.69A8.33,8.33,0,0,1,387.1,401.41Z"/><rect class="cls-2" x="272.98" y="36.93" width="57.19" height="71.53" transform="translate(177.49 357) rotate(-79.98)"/><path class="cls-6" d="M341.76,50.76l-.34,0-1-.16-3.83-.66-14.43-2.5-50.88-8.9.22-.15c-3,16.76-6.35,36-9.93,56.31h0l-.17-.24,70.43,12.48-.2.14c3-17,5.55-31,7.31-40.82.89-4.91,1.58-8.77,2.06-11.41.24-1.31.42-2.31.55-3l.2-1s0,.34-.16,1-.28,1.69-.5,3c-.46,2.63-1.12,6.48-2,11.38-1.72,9.86-4.18,24-7.15,41l0,.17-.17,0L261.34,94.83l-.21,0,0-.2h0c3.6-20.33,7-39.54,10-56.3l0-.18.18,0,51,9.1,14.37,2.59,3.79.69,1,.18Z"/><rect class="cls-7" x="276.53" y="39.43" width="49.99" height="66.5" transform="translate(177.46 356.95) rotate(-79.98)"/><polygon class="cls-7" points="264.43 91.51 292.71 64.95 303.49 86.6 314.91 78.07 329.92 103.08 264.43 91.51"/><path class="cls-7" d="M313.56,64.77a5.24,5.24,0,1,1-4.25-6.06A5.25,5.25,0,0,1,313.56,64.77Z"/><g class="cls-8"><polygon points="264.43 91.51 292.71 64.95 303.49 86.6 314.91 78.07 329.92 103.08 264.43 91.51"/></g><g class="cls-8"><path d="M313.56,64.77a5.24,5.24,0,1,1-4.25-6.06A5.25,5.25,0,0,1,313.56,64.77Z"/></g><path class="cls-7" d="M400.33,242l-40.72-12a5.31,5.31,0,0,1-3.6-6.59l16.54-56.36a5.32,5.32,0,0,1,6.59-3.6L405,171.1l13.94,26.47-12,40.86A5.3,5.3,0,0,1,400.33,242Z"/><path class="cls-5" d="M398.05,211.92s.34.09,1,.14a4.94,4.94,0,0,0,2.76-.65,4.82,4.82,0,0,0,1.52-1.39,5.05,5.05,0,0,0,.56-1c.14-.38.25-.8.38-1.23.5-1.74,1.06-3.71,1.69-5.88l1-3.42c.18-.59.35-1.2.53-1.81a8.78,8.78,0,0,0,.41-1.88,5.46,5.46,0,0,0-1.17-3.72,5.38,5.38,0,0,0-1.57-1.35,8.43,8.43,0,0,0-2-.75l-18.69-5.44a5.21,5.21,0,0,0-4.54,1.32,5,5,0,0,0-1.33,2c-.26.75-.47,1.57-.71,2.34-.92,3.13-1.81,6.15-2.66,9-.19.71-.45,1.44-.59,2.11a5.09,5.09,0,0,0,.07,2.06,4.93,4.93,0,0,0,2.34,3.08,8.64,8.64,0,0,0,1.8.67l1.81.54,3.41,1,10.28,3.09,2.79.87.72.23.24.09a.6.6,0,0,1-.25,0l-.74-.19-2.81-.78-10.32-3-3.42-1-1.81-.53a8.23,8.23,0,0,1-1.88-.69,5.3,5.3,0,0,1-2.54-3.3,5.39,5.39,0,0,1-.09-2.23c.16-.75.4-1.42.6-2.16.84-2.87,1.72-5.89,2.63-9,.24-.79.44-1.56.72-2.38a5.46,5.46,0,0,1,1.43-2.15,5.67,5.67,0,0,1,4.93-1.43c6.69,1.91,13,3.8,18.73,5.48a9,9,0,0,1,2.11.8,5.85,5.85,0,0,1,2.91,5.45,9.38,9.38,0,0,1-.43,1.95c-.19.61-.37,1.22-.54,1.81-.36,1.18-.7,2.32-1,3.41-.65,2.17-1.24,4.13-1.75,5.86-.13.43-.25.84-.4,1.25a5.05,5.05,0,0,1-.61,1.07,5.1,5.1,0,0,1-1.6,1.41,5,5,0,0,1-2.85.59A3.71,3.71,0,0,1,398.05,211.92Z"/><path class="cls-5" d="M403.4,210.6a1.91,1.91,0,0,1-.2-.39c-.14-.31-.31-.69-.51-1.16-.44-1.07-1.05-2.52-1.78-4.28l-1.21-3-.67-1.66c-.12-.28-.23-.56-.35-.85a1.5,1.5,0,0,0-.54-.63,1.48,1.48,0,0,0-1.64,0l-1.68,1.21-3.54,2.54-1.59,1.14-.2.15-.12-.22-2-3.5c-.16-.28-.32-.56-.47-.84a2.57,2.57,0,0,0-.5-.7,1.62,1.62,0,0,0-1.51-.35,3.35,3.35,0,0,0-.74.36l-.74.42-1.41.8-2.53,1.42-3.66,2-1,.52a1.36,1.36,0,0,1-.36.16,1.36,1.36,0,0,1,.32-.23l1-.6,3.59-2.14,2.5-1.46,1.4-.82.74-.43a3.69,3.69,0,0,1,.82-.41,2,2,0,0,1,1.89.42,2.62,2.62,0,0,1,.59.81l.48.84,2,3.49-.32-.07,1.59-1.14,3.54-2.54,1.7-1.2a1.91,1.91,0,0,1,2.11,0,2,2,0,0,1,.68.81c.12.3.23.59.35.88l.65,1.66c.41,1.07.8,2.07,1.16,3,.67,1.79,1.23,3.25,1.64,4.34.18.47.32.87.43,1.19S403.42,210.6,403.4,210.6Z"/><path class="cls-5" d="M390.75,194.94a6.66,6.66,0,0,1,.67,0,2.77,2.77,0,0,0,1.65-.57,2.61,2.61,0,0,0,1-2.26,2.56,2.56,0,0,0-4.6-1.35,2.6,2.6,0,0,0-.37,2.44,2.76,2.76,0,0,0,1.07,1.37c.36.24.59.31.58.35a1.21,1.21,0,0,1-.67-.2,2.68,2.68,0,0,1-1.28-1.41,2.87,2.87,0,0,1,.34-2.79,3,3,0,0,1,5.35,1.57,2.92,2.92,0,0,1-1.23,2.53,2.8,2.8,0,0,1-1.84.5C391,195.09,390.74,195,390.75,194.94Z"/><g class="cls-8"><path d="M356.41,215.43h53.06a0,0,0,0,1,0,0v14.68a6.36,6.36,0,0,1-6.36,6.36H362.77a6.36,6.36,0,0,1-6.36-6.36V215.43A0,0,0,0,1,356.41,215.43Z" transform="translate(79.13 -98.69) rotate(16.36)"/></g><path class="cls-7" d="M405,171.1,400.31,187a4.94,4.94,0,0,0,3.35,6.13l15.25,4.47Z"/><g class="cls-8"><path d="M400.11,188.42a5.49,5.49,0,0,0,2.68,6.34l.47.26c1.89.94,14.31,7.12,14.4,6.82s1.25-4.27,1.25-4.27l-15.25-4.47S399.89,191.85,400.11,188.42Z"/></g><path class="cls-5" d="M378.59,223.89l1.67.49-.94,3.21a5.69,5.69,0,0,1-3.49.07,4.27,4.27,0,1,1,2.43-8.18,4.42,4.42,0,0,1,2.92,2.34l-1.5.74a2.77,2.77,0,0,0-1.79-1.49,2.64,2.64,0,1,0-1.5,5.06,3,3,0,0,0,1.52.08Z"/><path class="cls-5" d="M383.08,221l1.83.54-2.32,7.92-1.83-.54Z"/><path class="cls-5" d="M388.19,224.14l-.61,2.09,3.66,1.08-.43,1.47-3.67-1.08-.84,2.89-1.83-.54,2.32-7.92,6,1.76-.43,1.47Z"/><path class="cls-7" d="M134.27,231.57,97.42,240a4.73,4.73,0,0,1-5.66-3.56l-11.71-51a4.73,4.73,0,0,1,3.55-5.67L107,174.44l22.37,14.49,8.48,37A4.72,4.72,0,0,1,134.27,231.57Z"/><path class="cls-7" d="M107,174.44l3.29,14.36a4.41,4.41,0,0,0,5.27,3.3l13.81-3.17Z"/><g class="cls-8"><path d="M110.74,190a4.89,4.89,0,0,0,4.84,3.76h.48c1.88-.09,14.22-.71,14.16-1l-.88-3.86-13.8,3.17S112.06,192.78,110.74,190Z"/></g><g class="cls-9"><path class="cls-10" d="M107,174.44l3.29,14.36a4.41,4.41,0,0,0,5.27,3.3l13.81-3.17Z"/></g><path class="cls-5" d="M107,188.92c0,.18-3.74,1.21-8.45,2.29S90,193,90,192.83s3.74-1.21,8.45-2.29S107,188.74,107,188.92Z"/><path class="cls-5" d="M119.91,194.51c0,.18-6.2,1.77-14,3.55S91.9,201.13,91.86,201s6.2-1.78,14-3.56S119.87,194.32,119.91,194.51Z"/><path class="cls-5" d="M124,200.7c.05.19-6.77,1.91-15.21,3.85s-15.33,3.36-15.37,3.18,6.77-1.91,15.22-3.85S124,200.52,124,200.7Z"/><path class="cls-5" d="M125.46,207.1c0,.18-6.77,1.9-15.21,3.84s-15.33,3.36-15.37,3.18,6.77-1.91,15.21-3.85S125.42,206.91,125.46,207.1Z"/><path class="cls-5" d="M126.93,213.49c0,.19-6.77,1.91-15.21,3.85s-15.33,3.36-15.37,3.17,6.77-1.9,15.21-3.84S126.89,213.31,126.93,213.49Z"/><path class="cls-5" d="M128.4,219.89c0,.18-6.77,1.9-15.22,3.84s-15.32,3.36-15.37,3.18,6.77-1.91,15.22-3.85S128.35,219.7,128.4,219.89Z"/><rect class="cls-4" x="132.87" y="90.08" width="243.74" height="214.65"/><path class="cls-6" d="M376.61,304.73c0-1.66-.08-85.47-.2-214.65l.2.2-243.72,0h0l.23-.23c0,78,0,151.48,0,214.65l-.2-.2,243.74.2-243.74.21h-.21v-.21c0-63.17,0-136.63,0-214.65v-.23h.26l243.72,0h.2v.2C376.69,219.26,376.61,303.08,376.61,304.73Z"/><path class="cls-7" d="M171.8,171.46H158a1.73,1.73,0,0,1-1.73-1.73V150.59a1.72,1.72,0,0,1,1.73-1.73h8.77l6.79,7v13.87A1.74,1.74,0,0,1,171.8,171.46Z"/><path class="cls-7" d="M166.74,148.86v5.39a1.61,1.61,0,0,0,1.61,1.6h5.18Z"/><g class="cls-8"><path d="M166.81,154.72a1.78,1.78,0,0,0,1.42,1.73l.17,0c.67.12,5.13.92,5.13.81v-1.44h-5.18S167.05,155.81,166.81,154.72Z"/></g><g class="cls-9"><path class="cls-10" d="M166.74,148.86v5.39a1.61,1.61,0,0,0,1.61,1.6h5.18Z"/></g><path class="cls-5" d="M165.58,154a42.73,42.73,0,0,1-6.4,0,39.45,39.45,0,0,1,6.4,0Z"/><path class="cls-5" d="M169.71,157.07c0,.07-2.36.13-5.27.13s-5.26-.06-5.26-.13,2.36-.12,5.26-.12S169.71,157,169.71,157.07Z"/><path class="cls-5" d="M170.66,159.61c0,.07-2.57.13-5.74.13s-5.74-.06-5.74-.13,2.57-.12,5.74-.12S170.66,159.55,170.66,159.61Z"/><path class="cls-5" d="M170.66,162c0,.07-2.57.13-5.74.13s-5.74-.06-5.74-.13,2.57-.12,5.74-.12S170.66,161.94,170.66,162Z"/><path class="cls-5" d="M170.66,164.41c0,.07-2.57.13-5.74.13s-5.74-.06-5.74-.13,2.57-.12,5.74-.12S170.66,164.34,170.66,164.41Z"/><path class="cls-5" d="M170.66,166.81c0,.07-2.57.13-5.74.13s-5.74-.06-5.74-.13,2.57-.12,5.74-.12S170.66,166.74,170.66,166.81Z"/><path class="cls-6" d="M185.28,151.26a1.42,1.42,0,0,1,.77.19l-.24.65a.82.82,0,0,0-.47-.15c-.35,0-.54.19-.54.58v.22h1v.68h-1v2.94H184v-2.94h-.6v-.68h.6v-.23A1.17,1.17,0,0,1,185.28,151.26Zm1.53.35a.51.51,0,0,1,.54-.51.51.51,0,0,1,.55.49.53.53,0,0,1-.55.53A.51.51,0,0,1,186.81,151.61Zm.11,1.11h.86v3.65h-.86Z"/><path class="cls-6" d="M188.9,151.3h.85v5.07h-.85Z"/><path class="cls-6" d="M194.28,154.82h-2.86a1.11,1.11,0,0,0,1.18.87,1.3,1.3,0,0,0,1-.4l.46.53a2,2,0,0,1-3.48-1.28,1.81,1.81,0,0,1,1.88-1.86,1.78,1.78,0,0,1,1.85,1.88A2.46,2.46,0,0,1,194.28,154.82Zm-2.86-.57h2.06a1,1,0,0,0-1-.89A1,1,0,0,0,191.42,154.25Z"/><path class="cls-6" d="M198.71,154.28v2.09h-.86v-2c0-.65-.32-1-.86-1a1,1,0,0,0-1,1.09v1.85h-.85v-3.65h.81v.47a1.59,1.59,0,0,1,1.25-.51A1.43,1.43,0,0,1,198.71,154.28Z"/><path class="cls-6" d="M202.84,154.23v2.14H202v-.45a1.28,1.28,0,0,1-1.15.49c-.83,0-1.36-.45-1.36-1.09s.41-1.08,1.52-1.08H202v-.06c0-.5-.3-.79-.91-.79a1.81,1.81,0,0,0-1.1.36l-.34-.62a2.58,2.58,0,0,1,1.55-.45C202.24,152.68,202.84,153.18,202.84,154.23Zm-.85,1v-.43h-.88c-.58,0-.74.22-.74.49s.26.5.7.5A.92.92,0,0,0,202,155.23Z"/><path class="cls-6" d="M210,154.28v2.09h-.85v-2c0-.65-.3-1-.82-1s-1,.36-1,1.09v1.85h-.85v-2c0-.65-.3-1-.82-1s-1,.36-1,1.09v1.85h-.85v-3.65h.81v.47a1.49,1.49,0,0,1,1.19-.51,1.37,1.37,0,0,1,1.23.61,1.67,1.67,0,0,1,1.36-.61A1.41,1.41,0,0,1,210,154.28Z"/><path class="cls-6" d="M214.57,154.82h-2.86a1.1,1.1,0,0,0,1.18.87,1.3,1.3,0,0,0,1-.4l.46.53a2,2,0,0,1-3.48-1.28,1.81,1.81,0,0,1,1.88-1.86,1.77,1.77,0,0,1,1.84,1.88A2.35,2.35,0,0,1,214.57,154.82Zm-2.87-.57h2.07a1,1,0,0,0-1-.89A1,1,0,0,0,211.7,154.25Z"/><path class="cls-6" d="M215.12,155.85a.56.56,0,1,1,.56.56A.55.55,0,0,1,215.12,155.85Z"/><path class="cls-6" d="M220.57,151.3v5.07h-.82v-.48a1.49,1.49,0,0,1-1.21.52,1.87,1.87,0,0,1,0-3.73,1.51,1.51,0,0,1,1.18.49V151.3Zm-.84,3.24a1.09,1.09,0,1,0-1.08,1.14A1.06,1.06,0,0,0,219.73,154.54Z"/><path class="cls-6" d="M221.39,154.54a1.94,1.94,0,1,1,1.94,1.87A1.83,1.83,0,0,1,221.39,154.54Zm3,0a1.08,1.08,0,1,0-1.08,1.14A1.05,1.05,0,0,0,224.41,154.54Z"/><path class="cls-6" d="M225.8,154.54a1.84,1.84,0,0,1,2-1.86,1.62,1.62,0,0,1,1.55.85l-.65.38a1,1,0,0,0-.91-.5,1.14,1.14,0,0,0,0,2.27,1,1,0,0,0,.91-.5l.65.38a1.64,1.64,0,0,1-1.55.85A1.84,1.84,0,0,1,225.8,154.54Z"/><path class="cls-3" d="M183.57,162a1.84,1.84,0,0,1,1.92-1.86,1.77,1.77,0,0,1,1.33.53l-.25.25a1.43,1.43,0,0,0-1.07-.43,1.51,1.51,0,1,0,0,3,1.4,1.4,0,0,0,1.07-.44l.25.25a1.78,1.78,0,0,1-1.34.53A1.83,1.83,0,0,1,183.57,162Z"/><path class="cls-3" d="M187.16,162.44a1.4,1.4,0,1,1,1.4,1.4A1.35,1.35,0,0,1,187.16,162.44Zm2.42,0a1,1,0,1,0-1,1.07A1,1,0,0,0,189.58,162.44Z"/><path class="cls-3" d="M195.23,162.22v1.59h-.37v-1.55c0-.58-.29-.88-.79-.88a.89.89,0,0,0-.92,1v1.44h-.37v-1.55c0-.58-.29-.88-.79-.88a.89.89,0,0,0-.92,1v1.44h-.37v-2.74h.36v.5a1.1,1.1,0,0,1,1-.52,1,1,0,0,1,1,.58,1.19,1.19,0,0,1,1.08-.58A1,1,0,0,1,195.23,162.22Z"/><path class="cls-3" d="M199,162.44a1.34,1.34,0,0,1-1.37,1.4,1.2,1.2,0,0,1-1-.54v1.52h-.37v-3.75h.35v.54a1.22,1.22,0,0,1,1.06-.56A1.33,1.33,0,0,1,199,162.44Zm-.37,0a1,1,0,1,0-2,0,1,1,0,1,0,2,0Z"/><path class="cls-3" d="M199.76,159.94h.37v3.87h-.37Z"/><path class="cls-3" d="M203.54,162.56h-2.29a1,1,0,0,0,1.08.95,1.09,1.09,0,0,0,.84-.36l.21.24a1.45,1.45,0,0,1-2.5-.95,1.32,1.32,0,0,1,1.34-1.39,1.31,1.31,0,0,1,1.33,1.39S203.54,162.51,203.54,162.56Zm-2.29-.28h1.95a1,1,0,0,0-1.95,0Z"/><path class="cls-3" d="M205.75,163.65a.9.9,0,0,1-.58.19.73.73,0,0,1-.81-.8v-1.66h-.49v-.31h.49v-.6h.37v.6h.84v.31h-.84V163a.44.44,0,0,0,.48.5.61.61,0,0,0,.4-.14Z"/><path class="cls-3" d="M208.7,162.56h-2.29a1,1,0,0,0,1.08.95,1.09,1.09,0,0,0,.84-.36l.21.24a1.45,1.45,0,0,1-2.5-.95,1.32,1.32,0,0,1,1.34-1.39,1.31,1.31,0,0,1,1.33,1.39S208.7,162.51,208.7,162.56Zm-2.29-.28h1.94a.94.94,0,0,0-1-.91A1,1,0,0,0,206.41,162.28Z"/><rect class="cls-7" x="181.97" y="166.79" width="162.02" height="2.97" rx="1.49"/><path class="cls-6" d="M352.22,165.62a23.18,23.18,0,0,1-4.64,4.64,23.18,23.18,0,0,1,4.64-4.64Z"/><path class="cls-6" d="M352.12,170.26a11.54,11.54,0,0,1-2.49-2.16,12,12,0,0,1-2.16-2.48,11.65,11.65,0,0,1,2.49,2.15A12.18,12.18,0,0,1,352.12,170.26Z"/><path class="cls-3" d="M329.44,162.77c0,.6-.45,1.07-1.33,1.07a1.88,1.88,0,0,1-1.31-.47l.18-.29a1.64,1.64,0,0,0,1.13.42c.61,0,.94-.28.94-.73s-.31-.73-1-.73h-.26v-.28l1-1.26H327v-.34h2.35v.27l-1,1.3C329.05,161.77,329.44,162.18,329.44,162.77Z"/><path class="cls-3" d="M335.44,160.16v3.65h-.37v-2.92l-1.44,2.46h-.18L332,160.91v2.9h-.37v-3.65H332l1.58,2.71,1.57-2.71Z"/><path class="cls-3" d="M339.67,162.84c0,.62-.46,1-1.37,1h-1.68v-3.65h1.57c.82,0,1.28.35,1.28.94a.84.84,0,0,1-.55.83A.87.87,0,0,1,339.67,162.84ZM337,160.48v1.33h1.17c.58,0,.92-.23.92-.67s-.34-.66-.92-.66Zm2.28,2.33c0-.48-.35-.69-1-.69H337v1.37h1.29C338.93,163.49,339.28,163.29,339.28,162.81Z"/><path class="cls-7" d="M171.8,207.53H158a1.73,1.73,0,0,1-1.73-1.73V186.66a1.72,1.72,0,0,1,1.73-1.73h8.77l6.79,7V205.8A1.74,1.74,0,0,1,171.8,207.53Z"/><path class="cls-7" d="M166.74,184.93v5.38a1.61,1.61,0,0,0,1.61,1.61h5.18Z"/><g class="cls-8"><path d="M166.81,190.79a1.78,1.78,0,0,0,1.42,1.73l.17,0c.67.12,5.13.91,5.13.81v-1.45h-5.18S167.05,191.88,166.81,190.79Z"/></g><g class="cls-9"><path class="cls-10" d="M166.74,184.93v5.38a1.61,1.61,0,0,0,1.61,1.61h5.18Z"/></g><path class="cls-5" d="M165.58,190.09a39.45,39.45,0,0,1-6.4,0,42.73,42.73,0,0,1,6.4,0Z"/><path class="cls-5" d="M169.71,193.14c0,.07-2.36.13-5.27.13s-5.26-.06-5.26-.13,2.36-.13,5.26-.13S169.71,193.07,169.71,193.14Z"/><path class="cls-5" d="M170.66,195.68c0,.07-2.57.13-5.74.13s-5.74-.06-5.74-.13,2.57-.12,5.74-.12S170.66,195.61,170.66,195.68Z"/><path class="cls-5" d="M170.66,198.08c0,.07-2.57.13-5.74.13s-5.74-.06-5.74-.13,2.57-.12,5.74-.12S170.66,198,170.66,198.08Z"/><path class="cls-5" d="M170.66,200.48c0,.07-2.57.13-5.74.13s-5.74-.06-5.74-.13,2.57-.12,5.74-.12S170.66,200.41,170.66,200.48Z"/><path class="cls-5" d="M170.66,202.88c0,.07-2.57.13-5.74.13s-5.74-.06-5.74-.13,2.57-.12,5.74-.12S170.66,202.81,170.66,202.88Z"/><path class="cls-6" d="M185.28,187.33a1.42,1.42,0,0,1,.77.19l-.24.64a.9.9,0,0,0-.47-.15c-.35,0-.54.2-.54.59v.22h1v.68h-1v2.93H184V189.5h-.6v-.68h.6v-.23A1.17,1.17,0,0,1,185.28,187.33Zm1.53.35a.51.51,0,0,1,.54-.51.51.51,0,0,1,.55.49.53.53,0,0,1-.55.53A.51.51,0,0,1,186.81,187.68Zm.11,1.11h.86v3.64h-.86Z"/><path class="cls-6" d="M188.9,187.37h.85v5.06h-.85Z"/><path class="cls-6" d="M194.28,190.89h-2.86a1.11,1.11,0,0,0,1.18.87,1.3,1.3,0,0,0,1-.4l.46.53a2,2,0,0,1-3.48-1.28,1.81,1.81,0,0,1,1.88-1.86,1.78,1.78,0,0,1,1.85,1.88C194.3,190.7,194.29,190.8,194.28,190.89Zm-2.86-.57h2.06a1,1,0,0,0-1-.89A1,1,0,0,0,191.42,190.32Z"/><path class="cls-6" d="M198.71,190.35v2.08h-.86v-2c0-.65-.32-1-.86-1a1,1,0,0,0-1,1.1v1.84h-.85v-3.64h.81v.47a1.59,1.59,0,0,1,1.25-.51A1.43,1.43,0,0,1,198.71,190.35Z"/><path class="cls-6" d="M202.84,190.3v2.13H202V192a1.31,1.31,0,0,1-1.15.49c-.83,0-1.36-.45-1.36-1.09s.41-1.08,1.52-1.08H202v-.06c0-.5-.3-.79-.91-.79a1.81,1.81,0,0,0-1.1.36l-.34-.62a2.58,2.58,0,0,1,1.55-.45C202.24,188.75,202.84,189.25,202.84,190.3Zm-.85,1v-.43h-.88c-.58,0-.74.22-.74.49s.26.5.7.5A.92.92,0,0,0,202,191.3Z"/><path class="cls-6" d="M210,190.35v2.08h-.85v-2c0-.65-.3-1-.82-1s-1,.37-1,1.1v1.84h-.85v-2c0-.65-.3-1-.82-1s-1,.37-1,1.1v1.84h-.85v-3.64h.81v.47a1.49,1.49,0,0,1,1.19-.51,1.37,1.37,0,0,1,1.23.61,1.67,1.67,0,0,1,1.36-.61A1.41,1.41,0,0,1,210,190.35Z"/><path class="cls-6" d="M214.57,190.89h-2.86a1.1,1.1,0,0,0,1.18.87,1.3,1.3,0,0,0,1-.4l.46.53a2,2,0,0,1-3.48-1.28,1.81,1.81,0,0,1,1.88-1.86,1.77,1.77,0,0,1,1.84,1.88A2.44,2.44,0,0,1,214.57,190.89Zm-2.87-.57h2.07a1,1,0,0,0-1-.89A1,1,0,0,0,211.7,190.32Z"/><path class="cls-6" d="M215.12,191.92a.56.56,0,1,1,1.12,0,.56.56,0,1,1-1.12,0Z"/><path class="cls-6" d="M216,193.59l.24-.63a.82.82,0,0,0,.5.14c.31,0,.49-.19.49-.58v-3.73H218v3.71a1.18,1.18,0,0,1-1.27,1.31A1.36,1.36,0,0,1,216,193.59Zm1.11-5.91a.51.51,0,0,1,.54-.51.51.51,0,0,1,.55.49.53.53,0,0,1-.55.53A.51.51,0,0,1,217.06,187.68Z"/><path class="cls-6" d="M223,190.61a1.77,1.77,0,0,1-1.85,1.87A1.46,1.46,0,0,1,220,192v1.77h-.86v-5H220v.48a1.5,1.5,0,0,1,1.21-.52A1.77,1.77,0,0,1,223,190.61Zm-.87,0a1.08,1.08,0,1,0-1.07,1.14A1.06,1.06,0,0,0,222.15,190.61Z"/><path class="cls-6" d="M227.45,188.79v3.09a1.72,1.72,0,0,1-2,1.93,2.91,2.91,0,0,1-1.78-.52l.39-.64a2.21,2.21,0,0,0,1.34.43c.8,0,1.16-.37,1.16-1.1v-.19a1.63,1.63,0,0,1-1.22.48,1.76,1.76,0,1,1,0-3.52,1.55,1.55,0,0,1,1.26.53v-.49Zm-.84,1.71a1,1,0,0,0-1.1-1,1,1,0,1,0,1.1,1Z"/><path class="cls-3" d="M183.9,196.23h.38v3.32h2v.33H183.9Z"/><path class="cls-3" d="M186.57,198.51a1.39,1.39,0,1,1,1.39,1.4A1.34,1.34,0,0,1,186.57,198.51Zm2.41,0a1,1,0,1,0-1,1.07A1,1,0,0,0,189,198.51Z"/><path class="cls-3" d="M192.16,198.18v1.7h-.36v-.43a1,1,0,0,1-.94.46c-.62,0-1-.33-1-.8s.27-.78,1.06-.78h.87v-.16a.68.68,0,0,0-.78-.73,1.43,1.43,0,0,0-.91.32l-.17-.27a1.74,1.74,0,0,1,1.12-.37A1,1,0,0,1,192.16,198.18Zm-.37.88v-.45h-.86c-.53,0-.7.21-.7.49s.25.52.69.52A.88.88,0,0,0,191.79,199.06Z"/><path class="cls-3" d="M195.67,196v3.87h-.35v-.54a1.19,1.19,0,0,1-1.06.57,1.4,1.4,0,0,1,0-2.79,1.2,1.2,0,0,1,1,.54V196Zm-.36,2.5a1,1,0,1,0-1,1.07A1,1,0,0,0,195.31,198.51Z"/><path class="cls-3" d="M196.62,196.27a.27.27,0,0,1,.54,0,.26.26,0,0,1-.27.27A.27.27,0,0,1,196.62,196.27Zm.08.87h.37v2.74h-.37Z"/><path class="cls-3" d="M200.62,198.29v1.59h-.37v-1.55a.77.77,0,0,0-.82-.88.9.9,0,0,0-1,1v1.44h-.37v-2.74h.36v.51a1.12,1.12,0,0,1,1-.53A1,1,0,0,1,200.62,198.29Z"/><path class="cls-3" d="M204.17,197.14v2.41a1.2,1.2,0,0,1-1.37,1.37,1.89,1.89,0,0,1-1.27-.42l.18-.29a1.63,1.63,0,0,0,1.08.38c.7,0,1-.32,1-1v-.34a1.24,1.24,0,0,1-1.06.53,1.33,1.33,0,1,1,0-2.66,1.24,1.24,0,0,1,1.08.55v-.53Zm-.36,1.3a1,1,0,1,0-1,1A1,1,0,0,0,203.81,198.44Z"/><path class="cls-3" d="M206.33,199.62a.28.28,0,0,1,.56,0,.28.28,0,1,1-.56,0Z"/><path class="cls-3" d="M207.43,199.62a.28.28,0,0,1,.56,0,.28.28,0,1,1-.56,0Z"/><path class="cls-3" d="M208.54,199.62a.27.27,0,0,1,.27-.28.28.28,0,0,1,.29.28.29.29,0,0,1-.29.29A.28.28,0,0,1,208.54,199.62Z"/><path class="cls-3" d="M342.51,205.83h-159a1.49,1.49,0,0,1-1.49-1.48h0a1.49,1.49,0,0,1,1.49-1.49h159a1.49,1.49,0,0,1,1.48,1.49h0A1.48,1.48,0,0,1,342.51,205.83Z"/><path class="cls-7" d="M276.39,205.83H183.46a1.49,1.49,0,0,1-1.49-1.48h0a1.49,1.49,0,0,1,1.49-1.49h92.93a1.49,1.49,0,0,1,1.49,1.49h0A1.48,1.48,0,0,1,276.39,205.83Z"/><path class="cls-6" d="M352.22,201.69a23.18,23.18,0,0,1-4.64,4.64,11.81,11.81,0,0,1,2.16-2.49A11.4,11.4,0,0,1,352.22,201.69Z"/><path class="cls-6" d="M352.12,206.33a11.54,11.54,0,0,1-2.49-2.16,12,12,0,0,1-2.16-2.48,11.31,11.31,0,0,1,2.49,2.15A12.18,12.18,0,0,1,352.12,206.33Z"/><path class="cls-3" d="M329.52,199.55v.33H327v-.26l1.51-1.49c.41-.41.49-.65.49-.9,0-.42-.29-.68-.85-.68a1.26,1.26,0,0,0-1,.4l-.26-.23a1.64,1.64,0,0,1,1.29-.52c.74,0,1.21.38,1.21,1a1.5,1.5,0,0,1-.6,1.14l-1.24,1.22Z"/><path class="cls-3" d="M330,198.06c0-1.17.61-1.86,1.46-1.86s1.45.69,1.45,1.86-.61,1.85-1.45,1.85S330,199.22,330,198.06Zm2.53,0c0-1-.44-1.51-1.07-1.51s-1.08.53-1.08,1.51.44,1.51,1.08,1.51S332.49,199,332.49,198.06Z"/><path class="cls-3" d="M336,198.5l-.64.6v.78H335V196h.37v2.63l1.63-1.5h.46l-1.17,1.12,1.28,1.62h-.45Z"/><path class="cls-3" d="M340.92,198.51a1.33,1.33,0,0,1-1.36,1.4,1.18,1.18,0,0,1-1.06-.57v.54h-.36V196h.37v1.65a1.22,1.22,0,0,1,1.05-.54A1.32,1.32,0,0,1,340.92,198.51Zm-.37,0a1,1,0,1,0-1,1.07A1,1,0,0,0,340.55,198.51Z"/><path class="cls-7" d="M171.8,244.09H158a1.72,1.72,0,0,1-1.73-1.73V223.22a1.72,1.72,0,0,1,1.73-1.73h8.77l6.79,7v13.87A1.73,1.73,0,0,1,171.8,244.09Z"/><path class="cls-7" d="M166.74,221.49v5.39a1.62,1.62,0,0,0,1.61,1.61h5.18Z"/><g class="cls-8"><path d="M166.81,227.35a1.78,1.78,0,0,0,1.42,1.73l.17,0c.67.12,5.13.92,5.13.81v-1.44h-5.18S167.05,228.44,166.81,227.35Z"/></g><g class="cls-9"><path class="cls-10" d="M166.74,221.49v5.39a1.62,1.62,0,0,0,1.61,1.61h5.18Z"/></g><path class="cls-5" d="M165.58,226.66a20.93,20.93,0,0,1-3.2.12,20.83,20.83,0,0,1-3.2-.12,39.45,39.45,0,0,1,6.4,0Z"/><path class="cls-5" d="M169.71,229.7c0,.07-2.36.13-5.27.13s-5.26-.06-5.26-.13,2.36-.12,5.26-.12S169.71,229.63,169.71,229.7Z"/><path class="cls-5" d="M170.66,232.24c0,.07-2.57.13-5.74.13s-5.74-.06-5.74-.13,2.57-.12,5.74-.12S170.66,232.18,170.66,232.24Z"/><path class="cls-5" d="M170.66,234.64c0,.07-2.57.13-5.74.13s-5.74-.06-5.74-.13,2.57-.12,5.74-.12S170.66,234.58,170.66,234.64Z"/><path class="cls-5" d="M170.66,237c0,.07-2.57.13-5.74.13s-5.74-.06-5.74-.13,2.57-.12,5.74-.12S170.66,237,170.66,237Z"/><path class="cls-5" d="M170.66,239.44c0,.07-2.57.13-5.74.13s-5.74-.06-5.74-.13,2.57-.12,5.74-.12S170.66,239.37,170.66,239.44Z"/><path class="cls-6" d="M185.28,223.89a1.34,1.34,0,0,1,.77.2l-.24.64a.82.82,0,0,0-.47-.15c-.35,0-.54.19-.54.58v.22h1v.68h-1V229H184v-2.94h-.6v-.68h.6v-.23A1.17,1.17,0,0,1,185.28,223.89Zm1.53.35a.52.52,0,0,1,.54-.51.51.51,0,0,1,.55.49.53.53,0,0,1-.55.53A.51.51,0,0,1,186.81,224.24Zm.11,1.11h.86V229h-.86Z"/><path class="cls-6" d="M188.9,223.94h.85V229h-.85Z"/><path class="cls-6" d="M194.28,227.45h-2.86a1.11,1.11,0,0,0,1.18.87,1.33,1.33,0,0,0,1-.39l.46.52a2,2,0,0,1-3.48-1.27,1.82,1.82,0,0,1,1.88-1.87,1.79,1.79,0,0,1,1.85,1.89A2.5,2.5,0,0,1,194.28,227.45Zm-2.86-.57h2.06a1,1,0,0,0-1-.89A1,1,0,0,0,191.42,226.88Z"/><path class="cls-6" d="M198.71,226.91V229h-.86v-2c0-.65-.32-1-.86-1a1,1,0,0,0-1,1.1V229h-.85v-3.65h.81v.47a1.59,1.59,0,0,1,1.25-.51A1.43,1.43,0,0,1,198.71,226.91Z"/><path class="cls-6" d="M202.84,226.86V229H202v-.45a1.28,1.28,0,0,1-1.15.49c-.83,0-1.36-.45-1.36-1.09s.41-1.08,1.52-1.08H202v-.06c0-.49-.3-.79-.91-.79a1.81,1.81,0,0,0-1.1.36l-.34-.62a2.58,2.58,0,0,1,1.55-.45C202.24,225.31,202.84,225.81,202.84,226.86Zm-.85,1v-.43h-.88c-.58,0-.74.22-.74.49s.26.5.7.5A.92.92,0,0,0,202,227.86Z"/><path class="cls-6" d="M210,226.91V229h-.85v-2c0-.65-.3-1-.82-1s-1,.37-1,1.09V229h-.85v-2c0-.65-.3-1-.82-1s-1,.37-1,1.09V229h-.85v-3.65h.81v.47a1.49,1.49,0,0,1,1.19-.51,1.37,1.37,0,0,1,1.23.61,1.7,1.7,0,0,1,1.36-.61A1.41,1.41,0,0,1,210,226.91Z"/><path class="cls-6" d="M214.57,227.45h-2.86a1.1,1.1,0,0,0,1.18.87,1.33,1.33,0,0,0,1-.39l.46.52a2,2,0,0,1-3.48-1.27,1.82,1.82,0,0,1,1.88-1.87,1.78,1.78,0,0,1,1.84,1.89A2.26,2.26,0,0,1,214.57,227.45Zm-2.87-.57h2.07a1,1,0,0,0-1-.89A1,1,0,0,0,211.7,226.88Z"/><path class="cls-6" d="M215.12,228.48a.56.56,0,1,1,.56.56A.55.55,0,0,1,215.12,228.48Z"/><path class="cls-6" d="M220.94,227.18a1.77,1.77,0,0,1-1.85,1.86,1.5,1.5,0,0,1-1.17-.49v1.77h-.85v-5h.81v.48a1.5,1.5,0,0,1,1.21-.52A1.78,1.78,0,0,1,220.94,227.18Zm-.87,0a1.08,1.08,0,1,0-1.08,1.13A1.06,1.06,0,0,0,220.07,227.18Z"/><path class="cls-6" d="M225.34,226.91V229h-.85v-2c0-.65-.32-1-.87-1a1,1,0,0,0-1,1.1V229h-.86v-3.65h.82v.47a1.59,1.59,0,0,1,1.25-.51A1.43,1.43,0,0,1,225.34,226.91Z"/><path class="cls-6" d="M230.08,225.35v3.09a1.72,1.72,0,0,1-2,1.93,2.9,2.9,0,0,1-1.77-.52l.38-.64a2.24,2.24,0,0,0,1.35.43c.8,0,1.16-.36,1.16-1.1v-.19a1.59,1.59,0,0,1-1.22.48,1.76,1.76,0,1,1,0-3.52,1.58,1.58,0,0,1,1.26.53v-.49Zm-.84,1.72a1,1,0,0,0-1.1-1,1,1,0,1,0,1.1,1Z"/><path class="cls-3" d="M183.9,232.79h.38v3.32h2v.33H183.9Z"/><path class="cls-3" d="M186.57,235.07a1.39,1.39,0,1,1,1.39,1.4A1.34,1.34,0,0,1,186.57,235.07Zm2.41,0a1,1,0,1,0-1,1.07A1,1,0,0,0,189,235.07Z"/><path class="cls-3" d="M192.16,234.74v1.7h-.36V236a1,1,0,0,1-.94.45c-.62,0-1-.32-1-.8s.27-.78,1.06-.78h.87v-.16A.68.68,0,0,0,191,234a1.39,1.39,0,0,0-.91.33l-.17-.28a1.79,1.79,0,0,1,1.12-.37A1,1,0,0,1,192.16,234.74Zm-.37.88v-.45h-.86c-.53,0-.7.21-.7.49s.25.52.69.52A.88.88,0,0,0,191.79,235.62Z"/><path class="cls-3" d="M195.67,232.58v3.86h-.35v-.54a1.19,1.19,0,0,1-1.06.57,1.4,1.4,0,0,1,0-2.79,1.2,1.2,0,0,1,1,.54v-1.64Zm-.36,2.49a1,1,0,1,0-1,1.07A1,1,0,0,0,195.31,235.07Z"/><path class="cls-3" d="M196.62,232.84a.27.27,0,0,1,.27-.26.26.26,0,0,1,.27.25.26.26,0,0,1-.27.27A.27.27,0,0,1,196.62,232.84Zm.08.86h.37v2.74h-.37Z"/><path class="cls-3" d="M200.62,234.85v1.59h-.37v-1.55a.77.77,0,0,0-.82-.88.9.9,0,0,0-1,1v1.44h-.37V233.7h.36v.51a1.12,1.12,0,0,1,1-.53A1,1,0,0,1,200.62,234.85Z"/><path class="cls-3" d="M204.17,233.7v2.41a1.2,1.2,0,0,1-1.37,1.37,1.89,1.89,0,0,1-1.27-.42l.18-.28a1.68,1.68,0,0,0,1.08.37c.7,0,1-.32,1-1v-.35a1.21,1.21,0,0,1-1.06.53,1.33,1.33,0,1,1,0-2.66,1.24,1.24,0,0,1,1.08.55v-.53Zm-.36,1.3a1,1,0,1,0-1,1A1,1,0,0,0,203.81,235Z"/><path class="cls-3" d="M206.33,236.18a.28.28,0,0,1,.56,0,.28.28,0,1,1-.56,0Z"/><path class="cls-3" d="M207.43,236.18a.28.28,0,0,1,.56,0,.28.28,0,1,1-.56,0Z"/><path class="cls-3" d="M208.54,236.18a.27.27,0,0,1,.27-.28.28.28,0,0,1,.29.28.29.29,0,0,1-.29.29A.28.28,0,0,1,208.54,236.18Z"/><path class="cls-3" d="M342.51,242.39h-159a1.49,1.49,0,0,1-1.49-1.48h0a1.49,1.49,0,0,1,1.49-1.49h159a1.49,1.49,0,0,1,1.48,1.49h0A1.48,1.48,0,0,1,342.51,242.39Z"/><path class="cls-7" d="M218.73,242.39H183.46a1.49,1.49,0,0,1-1.49-1.48h0a1.49,1.49,0,0,1,1.49-1.49h35.27a1.49,1.49,0,0,1,1.49,1.49h0A1.49,1.49,0,0,1,218.73,242.39Z"/><path class="cls-6" d="M352.22,238.25a23.18,23.18,0,0,1-4.64,4.64,23.18,23.18,0,0,1,4.64-4.64Z"/><path class="cls-6" d="M352.12,242.89a11.54,11.54,0,0,1-2.49-2.16,12,12,0,0,1-2.16-2.48A11.65,11.65,0,0,1,350,240.4,12.18,12.18,0,0,1,352.12,242.89Z"/><path class="cls-3" d="M329.44,235.39c0,.62-.45,1.08-1.33,1.08a1.92,1.92,0,0,1-1.31-.46l.18-.3a1.64,1.64,0,0,0,1.13.42c.61,0,.94-.28.94-.74s-.31-.72-1-.72h-.26v-.28l1-1.26H327v-.34h2.35v.27l-1,1.3C329.05,234.4,329.44,234.81,329.44,235.39Z"/><path class="cls-3" d="M332.43,236.11v.33h-2.56v-.26l1.51-1.49c.41-.4.49-.65.49-.9,0-.42-.29-.68-.85-.68a1.26,1.26,0,0,0-1,.4l-.26-.23a1.64,1.64,0,0,1,1.29-.52c.74,0,1.21.38,1.21,1a1.5,1.5,0,0,1-.6,1.14l-1.24,1.22Z"/><path class="cls-3" d="M338.37,232.79v3.65H338v-2.92L336.56,236h-.18L335,233.54v2.9h-.37v-3.65h.32l1.58,2.71,1.57-2.71Z"/><path class="cls-3" d="M342.6,235.47c0,.62-.46,1-1.37,1h-1.68v-3.65h1.57c.82,0,1.29.35,1.29.94a.85.85,0,0,1-.56.83A.87.87,0,0,1,342.6,235.47Zm-2.66-2.36v1.33h1.16c.58,0,.92-.23.92-.67s-.34-.66-.92-.66Zm2.27,2.33c0-.48-.35-.69-1-.69h-1.28v1.37h1.28C341.86,236.12,342.21,235.92,342.21,235.44Z"/><path class="cls-7" d="M171.8,280.65H158a1.72,1.72,0,0,1-1.73-1.73V259.78a1.72,1.72,0,0,1,1.73-1.73h8.77l6.79,7v13.87A1.73,1.73,0,0,1,171.8,280.65Z"/><path class="cls-7" d="M166.74,258.05v5.39a1.61,1.61,0,0,0,1.61,1.61h5.18Z"/><g class="cls-8"><path d="M166.81,263.91a1.79,1.79,0,0,0,1.42,1.74l.17,0c.67.13,5.13.92,5.13.81v-1.44h-5.18S167.05,265,166.81,263.91Z"/></g><g class="cls-9"><path class="cls-10" d="M166.74,258.05v5.39a1.61,1.61,0,0,0,1.61,1.61h5.18Z"/></g><path class="cls-5" d="M165.58,263.22a20.93,20.93,0,0,1-3.2.12,20.83,20.83,0,0,1-3.2-.12,39.45,39.45,0,0,1,6.4,0Z"/><path class="cls-5" d="M169.71,266.26c0,.07-2.36.13-5.27.13s-5.26-.06-5.26-.13,2.36-.12,5.26-.12S169.71,266.19,169.71,266.26Z"/><path class="cls-5" d="M170.66,268.81c0,.07-2.57.12-5.74.12s-5.74-.05-5.74-.12,2.57-.13,5.74-.13S170.66,268.74,170.66,268.81Z"/><path class="cls-5" d="M170.66,271.21c0,.07-2.57.12-5.74.12s-5.74-.05-5.74-.12,2.57-.13,5.74-.13S170.66,271.14,170.66,271.21Z"/><path class="cls-5" d="M170.66,273.61c0,.06-2.57.12-5.74.12s-5.74-.06-5.74-.12,2.57-.13,5.74-.13S170.66,273.54,170.66,273.61Z"/><path class="cls-5" d="M170.66,276c0,.07-2.57.13-5.74.13s-5.74-.06-5.74-.13,2.57-.12,5.74-.12S170.66,275.94,170.66,276Z"/><path class="cls-6" d="M185.28,260.45a1.34,1.34,0,0,1,.77.2l-.24.64a.82.82,0,0,0-.47-.15c-.35,0-.54.2-.54.58v.22h1v.69h-1v2.93H184v-2.93h-.6v-.69h.6v-.23A1.17,1.17,0,0,1,185.28,260.45Zm1.53.35a.52.52,0,0,1,.54-.51.51.51,0,0,1,.55.49.53.53,0,0,1-.55.54A.52.52,0,0,1,186.81,260.8Zm.11,1.12h.86v3.64h-.86Z"/><path class="cls-6" d="M188.9,260.5h.85v5.06h-.85Z"/><path class="cls-6" d="M194.28,264h-2.86a1.11,1.11,0,0,0,1.18.87,1.33,1.33,0,0,0,1-.39l.46.52a2,2,0,0,1-3.48-1.27,1.82,1.82,0,0,1,1.88-1.87,1.79,1.79,0,0,1,1.85,1.89A2.29,2.29,0,0,1,194.28,264Zm-2.86-.57h2.06a1,1,0,0,0-1-.88A1,1,0,0,0,191.42,263.44Z"/><path class="cls-6" d="M198.71,263.47v2.09h-.86v-2c0-.65-.32-1-.86-1a1,1,0,0,0-1,1.1v1.84h-.85v-3.64h.81v.47a1.56,1.56,0,0,1,1.25-.52A1.43,1.43,0,0,1,198.71,263.47Z"/><path class="cls-6" d="M202.84,263.42v2.14H202v-.45a1.29,1.29,0,0,1-1.15.5c-.83,0-1.36-.46-1.36-1.1s.41-1.08,1.52-1.08H202v-.06c0-.49-.3-.79-.91-.79a1.76,1.76,0,0,0-1.1.37l-.34-.63a2.58,2.58,0,0,1,1.55-.45C202.24,261.87,202.84,262.37,202.84,263.42Zm-.85,1V264h-.88c-.58,0-.74.21-.74.48s.26.51.7.51A.93.93,0,0,0,202,264.42Z"/><path class="cls-6" d="M210,263.47v2.09h-.85v-2c0-.65-.3-1-.82-1s-1,.37-1,1.09v1.85h-.85v-2c0-.65-.3-1-.82-1s-1,.37-1,1.09v1.85h-.85v-3.64h.81v.46a1.49,1.49,0,0,1,1.19-.51,1.37,1.37,0,0,1,1.23.61,1.7,1.7,0,0,1,1.36-.61A1.41,1.41,0,0,1,210,263.47Z"/><path class="cls-6" d="M214.57,264h-2.86a1.1,1.1,0,0,0,1.18.87,1.33,1.33,0,0,0,1-.39l.46.52a2,2,0,0,1-3.48-1.27,1.82,1.82,0,0,1,1.88-1.87,1.78,1.78,0,0,1,1.84,1.89A2.18,2.18,0,0,1,214.57,264Zm-2.87-.57h2.07a1,1,0,0,0-1-.88A1,1,0,0,0,211.7,263.44Z"/><path class="cls-6" d="M215.12,265a.56.56,0,1,1,1.12,0,.56.56,0,1,1-1.12,0Z"/><path class="cls-6" d="M220.94,263.74a1.78,1.78,0,0,1-1.85,1.87,1.51,1.51,0,0,1-1.17-.5v1.77h-.85v-5h.81v.47a1.54,1.54,0,0,1,1.21-.52A1.78,1.78,0,0,1,220.94,263.74Zm-.87,0a1.08,1.08,0,1,0-2.16,0,1.08,1.08,0,1,0,2.16,0Z"/><path class="cls-6" d="M225.32,260.5v5.06h-.82v-.47a1.51,1.51,0,0,1-1.2.52,1.87,1.87,0,0,1,0-3.74,1.48,1.48,0,0,1,1.17.5V260.5Zm-.84,3.24a1.09,1.09,0,1,0-1.08,1.14A1.06,1.06,0,0,0,224.48,263.74Z"/><path class="cls-6" d="M227.38,261.72v.22h1v.69h-1v2.93h-.85v-2.93H226v-.69h.6v-.23a1.18,1.18,0,0,1,1.3-1.26,1.32,1.32,0,0,1,.77.2l-.24.64a.82.82,0,0,0-.47-.15C227.57,261.14,227.38,261.34,227.38,261.72Z"/><path class="cls-3" d="M183.9,269.36h.38v3.31h2V273H183.9Z"/><path class="cls-3" d="M186.57,271.63A1.39,1.39,0,1,1,188,273,1.34,1.34,0,0,1,186.57,271.63Zm2.41,0a1,1,0,1,0-2,0,1,1,0,1,0,2,0Z"/><path class="cls-3" d="M192.16,271.3V273h-.36v-.42a1,1,0,0,1-.94.45c-.62,0-1-.32-1-.8s.27-.77,1.06-.77h.87v-.17c0-.47-.27-.72-.78-.72a1.38,1.38,0,0,0-.91.32l-.17-.28a1.79,1.79,0,0,1,1.12-.37A1,1,0,0,1,192.16,271.3Zm-.37.88v-.45h-.86c-.53,0-.7.21-.7.49s.25.52.69.52A.88.88,0,0,0,191.79,272.18Z"/><path class="cls-3" d="M195.67,269.14V273h-.35v-.54a1.19,1.19,0,0,1-1.06.57,1.4,1.4,0,0,1,0-2.79,1.2,1.2,0,0,1,1,.54v-1.64Zm-.36,2.49a1,1,0,1,0-1,1.07A1,1,0,0,0,195.31,271.63Z"/><path class="cls-3" d="M196.62,269.4a.27.27,0,0,1,.27-.26.26.26,0,0,1,.27.25.26.26,0,0,1-.27.27A.27.27,0,0,1,196.62,269.4Zm.08.86h.37V273h-.37Z"/><path class="cls-3" d="M200.62,271.41V273h-.37v-1.55a.76.76,0,0,0-.82-.87.9.9,0,0,0-1,1V273h-.37v-2.74h.36v.51a1.12,1.12,0,0,1,1-.53A1,1,0,0,1,200.62,271.41Z"/><path class="cls-3" d="M204.17,270.26v2.41A1.2,1.2,0,0,1,202.8,274a1.89,1.89,0,0,1-1.27-.42l.18-.28a1.68,1.68,0,0,0,1.08.37c.7,0,1-.31,1-1v-.35a1.21,1.21,0,0,1-1.06.53,1.33,1.33,0,1,1,0-2.66,1.24,1.24,0,0,1,1.08.55v-.53Zm-.36,1.31a1,1,0,1,0-1,1A1,1,0,0,0,203.81,271.57Z"/><path class="cls-3" d="M206.33,272.74a.28.28,0,1,1,.28.29A.28.28,0,0,1,206.33,272.74Z"/><path class="cls-3" d="M207.43,272.74a.28.28,0,1,1,.28.29A.28.28,0,0,1,207.43,272.74Z"/><path class="cls-3" d="M208.54,272.74a.27.27,0,0,1,.27-.28.29.29,0,1,1,0,.57A.27.27,0,0,1,208.54,272.74Z"/><path class="cls-3" d="M342.51,279h-159a1.49,1.49,0,0,1-1.49-1.48h0a1.49,1.49,0,0,1,1.49-1.49h159a1.49,1.49,0,0,1,1.48,1.49h0A1.48,1.48,0,0,1,342.51,279Z"/><path class="cls-7" d="M319.91,279H183.46a1.49,1.49,0,0,1-1.49-1.48h0a1.49,1.49,0,0,1,1.49-1.49H319.91a1.49,1.49,0,0,1,1.48,1.49h0A1.48,1.48,0,0,1,319.91,279Z"/><path class="cls-6" d="M352.22,274.81a23.18,23.18,0,0,1-4.64,4.64,23.9,23.9,0,0,1,4.64-4.64Z"/><path class="cls-6" d="M352.12,279.45a11.65,11.65,0,0,1-2.49-2.15,12.18,12.18,0,0,1-2.16-2.49A11.54,11.54,0,0,1,350,277,12,12,0,0,1,352.12,279.45Z"/><path class="cls-3" d="M328,269.36V273h-.38v-3.31h-.86v-.33Z"/><path class="cls-3" d="M331.38,271.93c0,.62-.43,1.11-1.33,1.11a1.9,1.9,0,0,1-1.3-.47l.18-.3a1.59,1.59,0,0,0,1.12.42c.62,0,.95-.3.95-.74s-.29-.76-1.22-.76H329l.19-1.83h2v.33h-1.67l-.13,1.16h.47C331,270.85,331.38,271.28,331.38,271.93Z"/><path class="cls-3" d="M337.33,269.36V273H337v-2.91l-1.44,2.45h-.18l-1.43-2.44V273h-.37v-3.64h.32l1.58,2.7,1.57-2.7Z"/><path class="cls-3" d="M341.56,272c0,.62-.46,1-1.37,1h-1.68v-3.64h1.57c.82,0,1.28.34,1.28.93a.84.84,0,0,1-.55.83A.87.87,0,0,1,341.56,272Zm-2.67-2.36V271h1.17c.58,0,.92-.23.92-.66s-.34-.67-.92-.67Zm2.28,2.33c0-.48-.35-.68-1-.68h-1.29v1.37h1.29C340.82,272.69,341.17,272.48,341.17,272Z"/><path class="cls-6" d="M149.62,110.26v-3h.75v3c0,1.17.53,1.69,1.48,1.69s1.49-.52,1.49-1.69v-3h.73v3a2.23,2.23,0,1,1-4.45,0Z"/><path class="cls-6" d="M159.63,110.54a1.93,1.93,0,0,1-2,2,1.72,1.72,0,0,1-1.4-.65V114h-.72v-5.44h.69v.63a1.73,1.73,0,0,1,1.43-.67A1.93,1.93,0,0,1,159.63,110.54Zm-.73,0a1.34,1.34,0,1,0-1.34,1.41A1.32,1.32,0,0,0,158.9,110.54Z"/><path class="cls-6" d="M160.63,107h.72v5.57h-.72Z"/><path class="cls-6" d="M162.36,110.54a2.07,2.07,0,1,1,2.08,2A2,2,0,0,1,162.36,110.54Zm3.41,0a1.34,1.34,0,1,0-2.68,0,1.34,1.34,0,1,0,2.68,0Z"/><path class="cls-6" d="M170.62,110.13v2.4h-.68V112a1.48,1.48,0,0,1-1.31.57c-.9,0-1.47-.48-1.47-1.17s.41-1.17,1.6-1.17h1.14v-.14c0-.61-.35-1-1.06-1a2,2,0,0,0-1.27.42l-.3-.54a2.66,2.66,0,0,1,1.65-.51A1.48,1.48,0,0,1,170.62,110.13Zm-.72,1.19v-.56h-1.11c-.71,0-.92.28-.92.62s.33.64.88.64A1.16,1.16,0,0,0,169.9,111.32Z"/><path class="cls-6" d="M175.74,107v5.57h-.69v-.63a1.68,1.68,0,0,1-1.42.68,2,2,0,0,1,0-4.07,1.68,1.68,0,0,1,1.39.64V107Zm-.71,3.58a1.34,1.34,0,1,0-1.34,1.41A1.31,1.31,0,0,0,175,110.54Z"/><path class="cls-6" d="M180.56,106.91a1.38,1.38,0,0,1,.81.23l-.22.55a.94.94,0,0,0-.55-.19c-.43,0-.65.24-.65.7v.35h1.16v.59H180v3.39h-.72v-3.39h-.67v-.59h.67v-.35A1.2,1.2,0,0,1,180.56,106.91Zm1.7.41a.49.49,0,0,1,1,0,.49.49,0,0,1-1,0Zm.13,1.23h.72v4h-.72Z"/><path class="cls-6" d="M184.49,107h.72v5.57h-.72Z"/><path class="cls-6" d="M190.17,110.78h-3.23a1.36,1.36,0,0,0,1.45,1.17,1.52,1.52,0,0,0,1.15-.48l.39.46a2.17,2.17,0,0,1-3.71-1.39,2,2,0,0,1,2-2,1.92,1.92,0,0,1,2,2A1.8,1.8,0,0,1,190.17,110.78Zm-3.23-.52h2.56a1.29,1.29,0,0,0-2.56,0Z"/><path class="cls-6" d="M190.69,112.11l.3-.57a2.57,2.57,0,0,0,1.4.41c.67,0,.94-.2.94-.54,0-.89-2.51-.12-2.51-1.7,0-.72.63-1.2,1.66-1.2a3,3,0,0,1,1.45.36l-.31.57a2.1,2.1,0,0,0-1.15-.31c-.63,0-.94.23-.94.55,0,.94,2.53.17,2.53,1.72,0,.72-.67,1.18-1.73,1.18A2.88,2.88,0,0,1,190.69,112.11Z"/><path class="cls-6" d="M376.61,124.19c0,.13-54.61.23-122,.23s-122-.1-122-.23,54.59-.23,122-.23S376.61,124.06,376.61,124.19Z"/><path class="cls-4" d="M258,414.24H44.63S42.12,364,86.48,360.68c0,0,7.35-42.46,56.9-42.68,59.42-.27,60.16,51.45,60.16,51.45s48.64-4.59,54.49,44.79"/><path class="cls-6" d="M258,414.24l-.06-.36c-.05-.25-.1-.6-.18-1.07s-.17-1.05-.28-1.74a24.42,24.42,0,0,0-.45-2.4c-.2-.9-.42-1.9-.67-3s-.66-2.27-1-3.55-.94-2.6-1.48-4l-1-2.16-.52-1.12-.61-1.11c-.43-.74-.81-1.54-1.31-2.3s-1-1.53-1.52-2.32l-1.78-2.31c-.62-.77-1.32-1.5-2-2.28a42.58,42.58,0,0,0-10.57-8.14,52.19,52.19,0,0,0-14.23-5.3,62.32,62.32,0,0,0-8.16-1.25,55,55,0,0,0-8.63-.14l-.21,0v-.21a51.45,51.45,0,0,0-1.24-8.91,60.67,60.67,0,0,0-2.74-9,51.72,51.72,0,0,0-10.45-16.67,49.74,49.74,0,0,0-7.85-6.7c-.72-.5-1.48-.93-2.22-1.4l-1.13-.7-1.17-.61c-.79-.4-1.56-.84-2.37-1.22l-2.45-1.07c-.81-.38-1.67-.64-2.52-.95s-1.68-.64-2.56-.88c-1.74-.46-3.47-1-5.28-1.36l-2.69-.56-2.73-.39c-1.82-.31-3.67-.44-5.53-.58a98.2,98.2,0,0,0-11.5-.12l-2.83.25-1.41.12-1.4.2-2.78.41-2.74.57a57.69,57.69,0,0,0-10.48,3.35,53.56,53.56,0,0,0-9.35,5.23,51.88,51.88,0,0,0-14,14.79,57.59,57.59,0,0,0-4.47,8.59,48.79,48.79,0,0,0-2.8,8.83l0,.15-.15,0a47.17,47.17,0,0,0-15.75,3.81,37.42,37.42,0,0,0-12,8.33,44.56,44.56,0,0,0-7.41,10.5,56.16,56.16,0,0,0-4,10.19,73.58,73.58,0,0,0-2.6,15.1c-.12,1.77-.15,3.13-.16,4s0,1.39,0,1.39,0-.47-.05-1.39,0-2.27.1-4a71.28,71.28,0,0,1,2.5-15.16,55.66,55.66,0,0,1,3.94-10.25,44.55,44.55,0,0,1,7.43-10.6,37.66,37.66,0,0,1,12-8.44,47.54,47.54,0,0,1,15.87-3.88l-.18.16a49.75,49.75,0,0,1,2.81-8.92,57.48,57.48,0,0,1,4.49-8.66,52.35,52.35,0,0,1,14.09-14.93,53,53,0,0,1,9.42-5.27,57.07,57.07,0,0,1,10.56-3.39l2.76-.58,2.8-.41,1.4-.2,1.42-.13,2.85-.24a97.22,97.22,0,0,1,11.57.11c1.86.15,3.72.28,5.56.58l2.74.4,2.71.57c1.82.32,3.56.9,5.32,1.37.88.24,1.72.59,2.58.88s1.72.58,2.54,1l2.47,1.08c.81.37,1.59.82,2.39,1.22l1.18.63,1.13.7c.75.47,1.52.91,2.24,1.42a50.18,50.18,0,0,1,7.93,6.76,52.24,52.24,0,0,1,10.51,16.82,60,60,0,0,1,2.75,9,52.08,52.08,0,0,1,1.24,9l-.22-.19a55.89,55.89,0,0,1,8.7.14,65,65,0,0,1,8.2,1.28,52.82,52.82,0,0,1,14.31,5.37,42.69,42.69,0,0,1,10.61,8.23c.69.79,1.39,1.53,2,2.31l1.77,2.33,1.52,2.35c.5.75.88,1.56,1.31,2.31.2.38.41.75.61,1.12l.51,1.13c.34.74.66,1.47,1,2.17.53,1.44,1.05,2.78,1.46,4.06s.71,2.47,1,3.57.45,2.11.64,3a23.54,23.54,0,0,1,.42,2.4c.1.69.18,1.28.25,1.76s.11.81.15,1.06A3.33,3.33,0,0,1,258,414.24Z"/><polygon class="cls-7" points="140.79 269.7 140.79 269.7 140.78 269.7 140.78 269.7 100.87 305.87 124.97 305.87 124.97 357.06 139.88 357.06 141.69 357.06 156.6 357.06 156.6 305.87 180.71 305.87 140.79 269.7"/><path class="cls-4" d="M112.46,339.58c14-3.53,23.15.43,29.62,9.51,5.55-9.56,18.36-12.18,28.61-8.06l6.45,24.43-39.27,5.14-32.82-6Z"/><path class="cls-6" d="M167.58,340.25c0,.05-.78-.27-2.19-.65a19.08,19.08,0,0,0-6.19-.55,22.53,22.53,0,0,0-4.24.72,22.24,22.24,0,0,0-4.57,1.89,19.24,19.24,0,0,0-7.88,8l-.19.37-.23-.36-.82-1.34a21.11,21.11,0,0,0-4.11-4.59,23.22,23.22,0,0,0-4.87-3.08,23.63,23.63,0,0,0-9.44-2.28,22,22,0,0,0-6.54.78c-1.49.45-2.3.79-2.32.74a3.2,3.2,0,0,1,.57-.27,16.57,16.57,0,0,1,1.7-.64,20.77,20.77,0,0,1,6.6-.94,23.57,23.57,0,0,1,9.62,2.22,23.24,23.24,0,0,1,5,3.12,21.52,21.52,0,0,1,4.21,4.68c.29.47.58.94.84,1.38h-.41a19.52,19.52,0,0,1,8.09-8.16,22.34,22.34,0,0,1,4.68-1.88,21.62,21.62,0,0,1,4.33-.68,18.1,18.1,0,0,1,6.24.7A13,13,0,0,1,167,340,2.4,2.4,0,0,1,167.58,340.25Z"/><path class="cls-6" d="M217.69,259.8c-1.85-5.91-1.08-15.83,3-20.71s11.12-7.72,17.44-8.5a5.34,5.34,0,0,1,3.12.32,2.1,2.1,0,0,1,1,2.67,13.27,13.27,0,0,1,4.12-1.54,4.51,4.51,0,0,1,4,1.28,2.76,2.76,0,0,1-.25,3.91,4.77,4.77,0,0,1,5.42,6.87,15,15,0,0,1-3.87,4.3,4.29,4.29,0,0,0-1.68,4.06"/><path class="cls-11" d="M220.11,249.49l-4.78,34.73A10.43,10.43,0,0,0,224.76,296h0a10.43,10.43,0,0,0,11.24-9c.36-2.62.66-4.8.72-5.06,0,0,8.95.38,10.8-8.28.89-4.19,2-13,2.95-20.91a16.49,16.49,0,0,0-13.16-18.09l-.84-.17C227.33,233.26,221.14,240.31,220.11,249.49Z"/><path class="cls-12" d="M236.76,281.86a20.63,20.63,0,0,1-10.69-5.48s1.43,6.79,10.26,7.74Z"/><path class="cls-6" d="M246.78,258.11a1.27,1.27,0,0,1-1.45,1,1.2,1.2,0,0,1-1.05-1.37,1.25,1.25,0,0,1,1.44-1A1.21,1.21,0,0,1,246.78,258.11Z"/><path class="cls-6" d="M247.75,256.69c-.18.13-1-.75-2.32-1s-2.45.21-2.56,0,.16-.35.65-.57a3.43,3.43,0,0,1,2.09-.22,3.29,3.29,0,0,1,1.8,1C247.76,256.31,247.84,256.63,247.75,256.69Z"/><path class="cls-6" d="M233.6,256a1.27,1.27,0,0,1-1.45,1,1.21,1.21,0,0,1-1.06-1.37,1.28,1.28,0,0,1,1.45-1A1.22,1.22,0,0,1,233.6,256Z"/><path class="cls-6" d="M234.58,254.32c-.18.13-1-.76-2.32-1s-2.45.21-2.56,0,.16-.35.65-.58a3.52,3.52,0,0,1,2.09-.21,3.29,3.29,0,0,1,1.8,1C234.59,253.94,234.67,254.26,234.58,254.32Z"/><path class="cls-6" d="M237.45,265.18a9.8,9.8,0,0,1,2.24,0c.35,0,.69,0,.79-.19a1.79,1.79,0,0,0,0-1c-.16-.89-.32-1.82-.49-2.8a45.93,45.93,0,0,1-.91-7.24,45.27,45.27,0,0,1,1.49,7.15c.15,1,.3,1.91.44,2.8a2,2,0,0,1-.09,1.38.86.86,0,0,1-.66.38,2.19,2.19,0,0,1-.59,0A8.69,8.69,0,0,1,237.45,265.18Z"/><path class="cls-6" d="M233.34,265.32c.22,0-.07,1.48,1,2.76s2.61,1.42,2.58,1.63-.4.21-1,.1a3.68,3.68,0,0,1-2.17-1.28,3.2,3.2,0,0,1-.72-2.29C233,265.62,233.24,265.29,233.34,265.32Z"/><path class="cls-6" d="M236,249.15c-.2.34-1.5-.1-3.1-.22s-3,0-3.1-.32c-.06-.17.22-.47.81-.72a5.2,5.2,0,0,1,2.41-.34,5.28,5.28,0,0,1,2.31.75C235.83,248.65,236.06,249,236,249.15Z"/><path class="cls-6" d="M248,252.73c-.29.25-1.15-.24-2.25-.48s-2.08-.2-2.24-.57c-.06-.17.15-.44.62-.65a3.33,3.33,0,0,1,3.61.84C248.1,252.26,248.17,252.6,248,252.73Z"/><path class="cls-11" d="M219.54,256.06c-.14-.1-5.62-3-6.62,3s5.21,5.74,5.25,5.57S219.54,256.06,219.54,256.06Z"/><path class="cls-12" d="M216.72,262.08s-.11.06-.3.11a1.09,1.09,0,0,1-.78-.11,2.62,2.62,0,0,1-.81-2.51,3.65,3.65,0,0,1,.54-1.45,1.22,1.22,0,0,1,.92-.66.51.51,0,0,1,.56.38c.06.18,0,.3,0,.31s.14-.08.14-.33a.69.69,0,0,0-.18-.42.76.76,0,0,0-.55-.24,1.48,1.48,0,0,0-1.24.74,3.69,3.69,0,0,0-.64,1.61,2.74,2.74,0,0,0,1.09,2.83,1.13,1.13,0,0,0,1,0C216.69,262.23,216.74,262.1,216.72,262.08Z"/><path class="cls-6" d="M256.17,242.16c-.6,7.86-10.68,9.5-14.14,4.47-1.6-2.33-2.87-5.12-5.36-6.46a7.15,7.15,0,0,0-5.54-.34h-.06c-2.67.87-4.6,3.48-5.44,6.16-1.18,3.74-1.13,7.22-2.72,10.57a2.39,2.39,0,0,1-1,1.24c-.81.4-1.78-.24-2.26-1a7.43,7.43,0,0,1-.84-4.19,24.93,24.93,0,0,1,2-9.62,17,17,0,0,1,6.25-7.49,16.09,16.09,0,0,1,11.88-2,19.68,19.68,0,0,1,10.42,6.25,11.56,11.56,0,0,1,2.81,4.93"/><path class="cls-13" d="M250.56,236.84a1.78,1.78,0,0,1,.82.17,4.17,4.17,0,0,1,1.79,1.43,5.17,5.17,0,0,1,1,3.26,5.85,5.85,0,0,1-1.8,3.75,7.59,7.59,0,0,1-3.66,2,10.26,10.26,0,0,1-3.38.18,12.61,12.61,0,0,1-2.23-.44,2.3,2.3,0,0,1-.77-.3c0-.08,1.15.28,3,.41a10.5,10.5,0,0,0,3.25-.26,7.45,7.45,0,0,0,3.43-1.9,5.49,5.49,0,0,0,1.7-3.44,4.94,4.94,0,0,0-.82-3,4.3,4.3,0,0,0-1.59-1.45C250.84,236.94,250.55,236.88,250.56,236.84Z"/><path class="cls-13" d="M247,233.43s.23,0,.55.2a1.9,1.9,0,0,1,.72,1.43,3.56,3.56,0,0,1-.84,2.21,9.87,9.87,0,0,1-2,2,10.3,10.3,0,0,1-4.73,2,5.08,5.08,0,0,1-2.12,0c0-.08.81-.05,2.07-.33a11.42,11.42,0,0,0,4.5-2,11.1,11.1,0,0,0,2-1.9,3.34,3.34,0,0,0,.85-1.94,1.83,1.83,0,0,0-.5-1.3C247.21,233.53,247,233.47,247,233.43Z"/><path class="cls-7" d="M287.35,342.93a13.71,13.71,0,0,1-20.44,0l-15.81-17.7-.19,25.22,5.58,16.17-55.42,9.62-2.35-43.73-4-33.59a9.13,9.13,0,0,1,5.71-9.56l15.25-6,21.48,3.94,8.65,3.28a23.72,23.72,0,0,1,9.41,6.55l24.24,27.72"/><path class="cls-6" d="M251.42,349.36c.13,0,.16-8.74.08-19.51s-.27-19.51-.4-19.51-.16,8.74-.07,19.51S251.29,349.36,251.42,349.36Z"/><path class="cls-7" d="M249.39,355.77,215.9,342.29a7.66,7.66,0,0,1-4.77-6.52l-2.45-32.11s.29-13.65-8.24-14.32l-4.85,1.92c-6.27,3.33-7.83,12.46-7,19.5,1.21,10,1.72,24.2,3.07,32.89,1.11,7.11,5.19,13.36,12.15,15.2l41.24,8.93Z"/><path class="cls-6" d="M209.16,308.56a4.36,4.36,0,0,1,.11.74c0,.52.12,1.23.21,2.11.17,1.88.41,4.53.71,7.79s.62,7.21,1,11.55c.09,1.09.19,2.2.28,3.34a24.93,24.93,0,0,0,.43,3.43,5.74,5.74,0,0,0,1.66,3,11.35,11.35,0,0,0,3.09,1.93c9.24,4,17.75,7.29,23.93,9.6l7.33,2.71,2,.73a3.24,3.24,0,0,1,.69.29,7,7,0,0,1-.71-.2l-2-.66c-1.75-.58-4.28-1.45-7.38-2.57-6.22-2.24-14.74-5.49-24-9.5a11.61,11.61,0,0,1-3.21-2,6.16,6.16,0,0,1-1.79-3.24,23.87,23.87,0,0,1-.42-3.49c-.09-1.14-.18-2.26-.27-3.34-.34-4.35-.64-8.26-.9-11.57s-.43-5.91-.56-7.79c-.06-.89-.1-1.6-.13-2.13A3.77,3.77,0,0,1,209.16,308.56Z"/><path class="cls-6" d="M190,326s0,.14.07.43.07.74.11,1.24c.1,1.14.23,2.68.4,4.55s.41,4.21.75,6.74a64,64,0,0,0,1.51,8.13,12.26,12.26,0,0,0,1.63,3.88,22,22,0,0,0,2.51,3.07,21.49,21.49,0,0,0,5.35,4,20.32,20.32,0,0,0,5.89,1.93,2.09,2.09,0,0,1-.44,0,9.07,9.07,0,0,1-1.24-.16,16.32,16.32,0,0,1-4.35-1.48,21,21,0,0,1-5.51-4,21.8,21.8,0,0,1-2.57-3.12,12.43,12.43,0,0,1-1.7-4,60.33,60.33,0,0,1-1.49-8.2c-.31-2.54-.51-4.83-.66-6.76s-.21-3.49-.25-4.57l0-1.25A2.06,2.06,0,0,1,190,326Z"/><path class="cls-6" d="M204.29,348.48a5.11,5.11,0,0,1,.61-1.78,11.51,11.51,0,0,1,6.8-5.81,5.08,5.08,0,0,1,1.86-.32,16.21,16.21,0,0,1-1.76.62,13.57,13.57,0,0,0-3.79,2.26,13.36,13.36,0,0,0-2.83,3.4A17,17,0,0,1,204.29,348.48Z"/><g class="cls-9"><path d="M239.77,351.94c-3.58-2-7.09-3.58-10.83-5.28s-7.41-3.88-9.86-7.19c-4.62-6.23-4.1-15.22-8.83-21.36l.93,12.4c.28,3.79-.3,7.53,2.14,10.11,2.06,2.16,6.06,3.83,8.9,4.76,5.7,1.89,11.84,4.68,17.55,6.56"/></g><path class="cls-7" d="M214.38,284.86l1.64-6.14,20.81,4.89a2.1,2.1,0,0,1,1.52,2.63l-1.59,5.42-7.51,9.64-8.53-1.53-6.34-4.87Z"/><path class="cls-6" d="M237.22,287.65a2.56,2.56,0,0,1-.74.17,20.23,20.23,0,0,1-2,.2,24.7,24.7,0,0,1-6.73-.66,24.13,24.13,0,0,1-6.29-2.47,16,16,0,0,1-1.73-1.1,2.72,2.72,0,0,1-.58-.48c0-.07.94.52,2.46,1.29a28.65,28.65,0,0,0,6.25,2.31,29.41,29.41,0,0,0,6.61.78C236.15,287.69,237.21,287.57,237.22,287.65Z"/><path class="cls-4" d="M221.72,284.88s-.29-.17-.5-.63a3.06,3.06,0,0,1-.16-1.95,3.11,3.11,0,0,1,1-1.67c.4-.32.71-.39.73-.34s-.2.23-.5.58a3.76,3.76,0,0,0-.78,1.54,3.68,3.68,0,0,0,0,1.73C221.64,284.58,221.78,284.84,221.72,284.88Z"/><path class="cls-4" d="M230.67,287.92a13.21,13.21,0,0,0,.23-3A13,13,0,0,0,230,282s.32.2.63.69a5.27,5.27,0,0,1,.48,4.38C230.94,287.66,230.72,288,230.67,287.92Z"/><path class="cls-4" d="M231.39,348.42a4.81,4.81,0,0,1,0-.62c0-.41.12-1,.15-1.79a49.31,49.31,0,0,0,0-6.59,93.76,93.76,0,0,0-1.24-9.7c-.63-3.63-1.44-7.6-2.11-11.82a127.78,127.78,0,0,1-1.5-21.76c.06-2.8.19-5.05.31-6.61.06-.78.13-1.38.17-1.79a2.56,2.56,0,0,1,.09-.62,2.53,2.53,0,0,1,0,.63c0,.45,0,1.05-.08,1.79-.07,1.56-.15,3.81-.16,6.6a139.08,139.08,0,0,0,1.63,21.69c.66,4.2,1.47,8.18,2.07,11.82a87.42,87.42,0,0,1,1.15,9.75,42.65,42.65,0,0,1-.14,6.62c-.06.78-.18,1.38-.24,1.79A2.45,2.45,0,0,1,231.39,348.42Z"/><path class="cls-4" d="M241.63,288.86s0,.05.06.16a4.89,4.89,0,0,1,.13.48,10.73,10.73,0,0,1,.25,1.91c.1,1.67-.13,4.07-.26,7s-.3,6.49-.18,10.4a59.63,59.63,0,0,0,1.6,12.59,111.55,111.55,0,0,1,2.69,12.49,61.66,61.66,0,0,1,.35,10.44c-.15,3-.42,5.36-.63,7-.11.82-.21,1.46-.28,1.89a3.17,3.17,0,0,1-.13.65,3.28,3.28,0,0,1,0-.66c0-.48.11-1.12.19-1.91.16-1.65.37-4,.48-7A63.84,63.84,0,0,0,245.5,334a121.9,121.9,0,0,0-2.72-12.45,58.44,58.44,0,0,1-1.58-12.68c-.09-3.93.09-7.47.28-10.43s.46-5.36.41-7a14.18,14.18,0,0,0-.16-1.89C241.67,289.09,241.61,288.87,241.63,288.86Z"/><path class="cls-4" d="M260.71,324.63a7.66,7.66,0,0,1-1.63-1.29,39.44,39.44,0,0,1-3.47-3.63,40.08,40.08,0,0,1-3-4,8,8,0,0,1-1-1.82c.12-.08,1.83,2.58,4.35,5.55S260.8,324.53,260.71,324.63Z"/><path class="cls-4" d="M272.16,321.91a7.57,7.57,0,0,1-1-1c-.61-.64-1.47-1.59-2.51-2.78-2.08-2.38-4.89-5.73-7.84-9.55s-5.47-7.39-7.24-10c-.89-1.31-1.59-2.38-2.06-3.13a8.44,8.44,0,0,1-.69-1.19,7.5,7.5,0,0,1,.84,1.09l2.18,3.05c1.83,2.57,4.4,6.09,7.34,9.91s5.7,7.2,7.72,9.63l2.39,2.87A6.7,6.7,0,0,1,272.16,321.91Z"/><path class="cls-4" d="M215.5,342.48a2.92,2.92,0,0,1-.34-.5,9.37,9.37,0,0,1-.75-1.57,15.43,15.43,0,0,1-.79-6.34c.12-2.72.91-5.86,1.34-9.37a62.68,62.68,0,0,0,.13-11.52c-.26-4.1-.67-8-.82-11.56a56.82,56.82,0,0,1,.28-9.48,31.47,31.47,0,0,1,1.36-6.24c.24-.72.45-1.27.61-1.63a2.6,2.6,0,0,1,.26-.55c.05,0-.28.79-.7,2.23a35.62,35.62,0,0,0-1.2,6.23,59.38,59.38,0,0,0-.18,9.42c.17,3.55.59,7.44.86,11.55a60.86,60.86,0,0,1-.17,11.6c-.47,3.56-1.28,6.66-1.44,9.34a15.9,15.9,0,0,0,.63,6.26A22.86,22.86,0,0,0,215.5,342.48Z"/><path class="cls-4" d="M205.68,345.53a7.56,7.56,0,0,1-2.2-1.27,12.42,12.42,0,0,1-3.81-5.72,17.21,17.21,0,0,1-.9-4.71,29.72,29.72,0,0,1,.28-5.49c.51-3.83,1.53-7.94,1.86-12.36a65.25,65.25,0,0,0-.11-12.47c-.19-1.91-.38-3.74-.38-5.47a15.8,15.8,0,0,1,.62-4.75,9.67,9.67,0,0,1,4.07-5.5,7.06,7.06,0,0,1,1.75-.71,5.32,5.32,0,0,1,.65-.09,8.86,8.86,0,0,0-2.31,1,9.6,9.6,0,0,0-3.84,5.43,15.57,15.57,0,0,0-.55,4.66c0,1.7.22,3.51.42,5.43a64.32,64.32,0,0,1,.15,12.55c-.34,4.45-1.38,8.59-1.91,12.38a29.93,29.93,0,0,0-.31,5.41,17.12,17.12,0,0,0,.82,4.63,12.7,12.7,0,0,0,3.62,5.68A15.2,15.2,0,0,0,205.68,345.53Z"/><path class="cls-4" d="M244,359a10.1,10.1,0,0,1-1.48-.59l-4-1.74c-3.37-1.44-8.05-3.36-13.31-5.24s-10.1-3.39-13.62-4.41l-4.17-1.19a10.94,10.94,0,0,1-1.52-.48,10.41,10.41,0,0,1,1.57.31c1,.22,2.44.58,4.21,1.05,3.55.94,8.41,2.39,13.69,4.28s9.94,3.86,13.28,5.38c1.67.77,3,1.41,3.92,1.87A9.18,9.18,0,0,1,244,359Z"/><path class="cls-4" d="M200.8,357.21s-.05,0-.15-.07-.24-.13-.42-.25a11.36,11.36,0,0,1-1.44-1.19,17.56,17.56,0,0,1-3.88-5.67,7.53,7.53,0,0,1-.5-2.25c-.09-.79-.18-1.61-.27-2.45-.19-1.69-.38-3.5-.59-5.4a118,118,0,0,0-1.94-12.27,68.34,68.34,0,0,1-1.34-12.41c-.09-3.83.07-7.28.24-10.17s.39-5.23.55-6.84c.07-.77.14-1.39.19-1.86a3.7,3.7,0,0,1,.09-.64,2.71,2.71,0,0,1,0,.65c0,.47-.06,1.09-.1,1.86-.1,1.62-.26,4-.4,6.84s-.25,6.34-.14,10.15a69.08,69.08,0,0,0,1.37,12.32,111.5,111.5,0,0,1,1.9,12.32c.2,1.9.38,3.71.55,5.41.09.84.17,1.66.25,2.45a7.4,7.4,0,0,0,.45,2.17,18,18,0,0,0,3.7,5.66,12.42,12.42,0,0,0,1.37,1.24A3.93,3.93,0,0,1,200.8,357.21Z"/><path class="cls-7" d="M298,399.13s28,7.75,29.14,8.15c1.69.59,1.4,6.78-1.22,6.68-1.25,0-21.52.76-24.09.6s-10.29-3.21-10.29-3.21Z"/><path class="cls-6" d="M309.63,409.82a27,27,0,0,1,1.23-3,28.06,28.06,0,0,1,2-2.58,5,5,0,0,0-2.38,2.35A4.93,4.93,0,0,0,309.63,409.82Z"/><path class="cls-6" d="M306.71,408.5c.13,0,.42-1.31,1.16-2.77s1.63-2.49,1.53-2.58a5.18,5.18,0,0,0-1.94,2.37A5.25,5.25,0,0,0,306.71,408.5Z"/><path class="cls-6" d="M304,407.76a18.64,18.64,0,0,1,.65-3,19.61,19.61,0,0,1,1.53-2.62,5.23,5.23,0,0,0-2.18,5.58Z"/><path class="cls-6" d="M304.46,404.14a4.93,4.93,0,0,0,.3-2.08,9.56,9.56,0,0,0-.28-2.29,8.9,8.9,0,0,0-.42-1.3,1.47,1.47,0,0,0-.45-.68.74.74,0,0,0-1,0,1.26,1.26,0,0,0-.37.79,6.39,6.39,0,0,0,0,.75,6,6,0,0,0,.18,1.37,8.22,8.22,0,0,0,.86,2.14,5.59,5.59,0,0,0,1.26,1.69c.06-.05-.41-.7-1-1.84a9.59,9.59,0,0,1-.73-2.09,5.84,5.84,0,0,1-.14-1.28c0-.43,0-1,.26-1.17a.27.27,0,0,1,.37,0,1.17,1.17,0,0,1,.31.48,11.34,11.34,0,0,1,.42,1.24,11.12,11.12,0,0,1,.37,2.19C304.52,403.34,304.39,404.13,304.46,404.14Z"/><path class="cls-6" d="M304.43,403.86a3.84,3.84,0,0,0-1.81-.29,7.51,7.51,0,0,0-2,.24,4.42,4.42,0,0,0-1.14.42,1.17,1.17,0,0,0-.63,1.28,1.39,1.39,0,0,0,1,1,2.56,2.56,0,0,0,1.26,0,4.84,4.84,0,0,0,1.82-.9,4.65,4.65,0,0,0,1.3-1.28,12.88,12.88,0,0,0-1.49,1,5.14,5.14,0,0,1-1.72.75,2.28,2.28,0,0,1-1,0,.94.94,0,0,1-.68-.67.73.73,0,0,1,.42-.78,4.4,4.4,0,0,1,1-.39,9.41,9.41,0,0,1,1.89-.33C303.73,403.82,304.42,403.93,304.43,403.86Z"/><path class="cls-6" d="M313.93,410.12a14.68,14.68,0,0,1,.56-2.53,15.15,15.15,0,0,1,1.37-2.19,4,4,0,0,0-1.93,4.72Z"/><path class="cls-6" d="M294.38,411.41a6.17,6.17,0,0,0,1.09.51,22.28,22.28,0,0,0,3.11,1,44,44,0,0,0,10.7,1c4.2,0,8-.23,10.73-.34l3.25-.18a6.19,6.19,0,0,0,1.18-.12,5.3,5.3,0,0,0-1.19-.06l-3.25,0-10.72.21a50.08,50.08,0,0,1-10.62-.86C296,412,294.41,411.33,294.38,411.41Z"/><path class="cls-6" d="M293.55,412.05a20.67,20.67,0,0,0,2.1-.95,9.73,9.73,0,0,1,5.31-.88,8.37,8.37,0,0,1,4.58,2.73,18.77,18.77,0,0,0,1.61,1.65,8.1,8.1,0,0,0-1.37-1.88,11,11,0,0,0-1.86-1.74,6.58,6.58,0,0,0-2.89-1.22,9.29,9.29,0,0,0-5.52,1A8.1,8.1,0,0,0,293.55,412.05Z"/><path class="cls-7" d="M268.21,391.39s-26.51,17.36-27.46,18.08c-1.43,1.08.21,6.22,2.68,5.33,1.17-.42,23.42-6.61,25.81-7.54s8.84-6.18,8.84-6.18Z"/><path class="cls-6" d="M260.34,405.12a6.22,6.22,0,0,0-4.76-4.34,26.13,26.13,0,0,1,2.67,1.85A28.79,28.79,0,0,1,260.34,405.12Z"/><path class="cls-6" d="M262.72,403a7.06,7.06,0,0,0-4.19-4.27c-.07.12,1.1.82,2.24,2S262.6,403,262.72,403Z"/><path class="cls-6" d="M265.11,401.44a5.27,5.27,0,0,0-3.77-4.65,20.44,20.44,0,0,1,2.25,2A20.06,20.06,0,0,1,265.11,401.44Z"/><path class="cls-6" d="M263.54,398.15c.07,0-.3-.75-.6-2a11.57,11.57,0,0,1-.32-2.2c0-.41,0-.85,0-1.3a1.24,1.24,0,0,1,.15-.56.27.27,0,0,1,.36-.09c.3.13.46.64.6,1.05a5.77,5.77,0,0,1,.26,1.26,9.3,9.3,0,0,1-.06,2.21c-.19,1.25-.44,2-.36,2a5.76,5.76,0,0,0,.68-2,7.81,7.81,0,0,0,.17-2.3,6.11,6.11,0,0,0-.25-1.36,4.85,4.85,0,0,0-.26-.69,1.27,1.27,0,0,0-.59-.65.77.77,0,0,0-.94.25,1.56,1.56,0,0,0-.21.79,9,9,0,0,0,0,1.37,9.56,9.56,0,0,0,.43,2.26A5,5,0,0,0,263.54,398.15Z"/><path class="cls-6" d="M263.48,397.86c0,.07.66-.24,1.73-.5a9,9,0,0,1,1.9-.26,3.91,3.91,0,0,1,1.08.07.72.72,0,0,1,.64.61,1,1,0,0,1-.45.85,2.42,2.42,0,0,1-1,.33,5,5,0,0,1-1.86-.19,13,13,0,0,0-1.73-.51,4.85,4.85,0,0,0,1.63.83,5,5,0,0,0,2,.3,2.67,2.67,0,0,0,1.2-.38,1.44,1.44,0,0,0,.66-1.26,1.19,1.19,0,0,0-1-1,4.25,4.25,0,0,0-1.22-.05,7.51,7.51,0,0,0-2,.37A4.08,4.08,0,0,0,263.48,397.86Z"/><path class="cls-6" d="M246.81,413.83s.45-.27.65-1a3.93,3.93,0,0,0-.5-2.88,9.79,9.79,0,0,0-.89-1.32,4.93,4.93,0,0,0-.9-1,1.55,1.55,0,0,0-.84-.36c-.22,0-.34.05-.33.07s.47,0,1,.54a5.2,5.2,0,0,1,.76,1,13.05,13.05,0,0,1,.83,1.29,4,4,0,0,1,.58,2.59A10.5,10.5,0,0,1,246.81,413.83Z"/><path class="cls-6" d="M256.33,406.72a4,4,0,0,0-3.27-3.92,15.07,15.07,0,0,1,2,1.68A14.91,14.91,0,0,1,256.33,406.72Z"/><path class="cls-6" d="M275.35,402a9.22,9.22,0,0,0-1.17.8,31.7,31.7,0,0,1-3.26,2,42.3,42.3,0,0,1-5.2,2.32c-2,.75-4.26,1.45-6.64,2.14-4.77,1.37-9.09,2.63-12.2,3.57L243.19,414a7.42,7.42,0,0,0-1.33.48,8.16,8.16,0,0,0,1.38-.31l3.73-1c3.14-.86,7.47-2.06,12.24-3.44,2.39-.69,4.65-1.41,6.67-2.19a39.58,39.58,0,0,0,5.2-2.42,26.06,26.06,0,0,0,3.21-2.15A7.4,7.4,0,0,0,275.35,402Z"/><path class="cls-6" d="M276.33,402.37a7.48,7.48,0,0,0-2.24-.6,9.34,9.34,0,0,0-5.58.68,6.59,6.59,0,0,0-2.38,2.05,10.58,10.58,0,0,0-1.24,2.22,8.82,8.82,0,0,0-.74,2.2,16.32,16.32,0,0,0,1-2.06,8.42,8.42,0,0,1,3.53-4,9.8,9.8,0,0,1,5.32-.77C275.45,402.25,276.32,402.44,276.33,402.37Z"/><path class="cls-6" d="M323.31,349.05a12.69,12.69,0,0,1,8,11.76c.07,17.09-34.52,35.92-34.52,35.92l-46-30.49-2.88-1.17S310,341.73,323.31,349.05Z"/><path class="cls-13" d="M274.07,381.64a9.27,9.27,0,0,0,1.2-.82c.76-.54,1.83-1.35,3.15-2.37,2.64-2,6.22-4.93,10.08-8.24s7.25-6.42,9.66-8.71c1.21-1.15,2.17-2.09,2.83-2.75a8.78,8.78,0,0,0,1-1.07,9,9,0,0,0-1.11.93l-2.92,2.64c-2.47,2.24-5.9,5.3-9.75,8.61s-7.4,6.23-10,8.33l-3,2.49A7.9,7.9,0,0,0,274.07,381.64Z"/><path class="cls-13" d="M310.32,355.44a9,9,0,0,0-4.43.4,9.25,9.25,0,0,0-3.95,2.07c.08.12,1.76-.94,4.08-1.62S310.32,355.58,310.32,355.44Z"/><path class="cls-13" d="M306.36,352.75a7,7,0,0,0-4.16,5.15c.13.05.64-1.39,1.79-2.81S306.43,352.87,306.36,352.75Z"/><path class="cls-6" d="M325.85,406.84s-.55-.16-1.19.36a4.27,4.27,0,0,0-1.33,2.67,5.3,5.3,0,0,0,.42,2.95c.32.7.68,1,.72,1s-.19-.43-.41-1.12a5.83,5.83,0,0,1-.27-2.75,4.65,4.65,0,0,1,1.09-2.49C325.37,406.94,325.86,406.92,325.85,406.84Z"/><polygon class="cls-13" points="312.73 321.14 296.34 362.69 225.76 363.84 224.46 360.03 249.19 359.13 261.08 322.27 312.73 321.14"/><path class="cls-2" d="M279.77,339.13a3.14,3.14,0,0,1,3.39.36,2.75,2.75,0,0,1,.67,3,3,3,0,0,1-2.55,1.78,2.69,2.69,0,0,1-2.7-1.78,3,3,0,0,1,1.19-3.37"/><path class="cls-6" d="M301.14,398.8s-65-42.65-67.68-43.53-9.1-5.11-15.54-3.33-12.2,7.54-15.08,16c-1.65,4.82-2.43,13-2.8,19.2a28.52,28.52,0,0,0,6.67,20.31,18.21,18.21,0,0,0,8.11,5.76c.67.21,1.38.39,2.1.55a30.59,30.59,0,0,0,31.83-13.37l1.52-2.31s42.54,15.63,43.2,15.4Z"/><path class="cls-13" d="M220.7,387.06a2.08,2.08,0,0,0,.35.16l1.07.43,4.12,1.58L241.56,395c6.51,2.43,14.3,5.32,23.05,8.5s18.44,6.67,28.79,10.17l.19.07.09-.18,5.08-9.7c.89-1.69,1.77-3.38,2.59-4.95l.1-.19-.18-.11-49.6-31.49-14.9-9.4-4.05-2.52-1.05-.65c-.24-.14-.37-.2-.37-.2s.11.09.34.24l1,.69,4,2.59c3.5,2.26,8.55,5.5,14.82,9.52L301,399l-.08-.3-2.59,4.94-5.07,9.71.28-.12c-10.35-3.49-20.05-7-28.8-10.12l-23.08-8.4-15.37-5.64-4.15-1.51-1.08-.38Z"/></svg>