<svg width="1090" height="610" viewBox="0 0 1090 610" fill="none" xmlns="http://www.w3.org/2000/svg">
<path d="M592.375 484.193C895.786 484.193 1141.75 470.047 1141.75 452.597C1141.75 435.146 895.786 421 592.375 421C288.964 421 43 435.146 43 452.597C43 470.047 288.964 484.193 592.375 484.193Z" fill="#FF4568" fill-opacity="0.4"/>
<path d="M925.998 433.641H695.527V442.934H925.998V433.641Z" fill="#032B4D"/>
<path d="M925.998 454.085H695.527V463.379H925.998V454.085Z" fill="#032B4D"/>
<path d="M773.59 474.531H695.527V483.824H773.59V474.531Z" fill="#032B4D"/>
<path d="M843.59 523.014H765.527V540.824H843.59V523.014Z" fill="white"/>
<path d="M80.9228 109.361L103.148 110.223L104.257 81.6474L82.0309 80.7855L80.9228 109.361Z" fill="#6C63FF"/>
<path d="M182.29 180.864C182.29 180.864 213.068 166.158 212.576 178.859C212.083 191.559 181.551 199.915 181.551 199.915L182.29 180.864Z" fill="#FFB9B9"/>
<path d="M165.402 288.325C165.402 288.325 179.923 323.866 185.288 349.513C190.653 375.16 198.824 410.456 188.314 435.487C177.803 460.518 147.922 534.086 147.614 542.024C147.306 549.962 150.173 558.023 143.823 557.776C137.473 557.53 102.916 546.65 101.514 541.826C100.111 537.002 113.304 524.794 113.304 524.794L145.881 422.712L111.891 356.207L87.3749 455.422L82.573 579.25C82.573 579.25 59.0061 571.977 55.5848 578.204C55.5848 578.204 45.0261 563.485 43.6848 557.073C42.3435 550.661 48.6713 428.482 48.6713 428.482C48.6713 428.482 27.0389 289.319 44.5019 289.996C61.9649 290.673 130.365 248.808 165.402 288.325Z" fill="#032B4D"/>
<path d="M144.07 551.426C144.07 551.426 160.179 587.029 161.705 588.678C163.231 590.327 173.728 606.634 165.79 606.326C157.853 606.018 139.11 597.342 125.315 584.087C111.519 570.833 93.3305 547.869 94.9796 546.343C96.6287 544.817 107.926 540.485 107.926 540.485L144.07 551.426Z" fill="#2F2E41"/>
<path d="M79.7071 571.189C79.7071 571.189 80.679 587.126 83.6079 593.599C86.5367 600.073 86.1674 609.598 78.2296 609.29C70.2919 608.982 49.777 605.007 49.777 605.007C49.777 605.007 48.5588 595.42 50.2079 593.894C51.857 592.368 58.8844 575.151 55.894 570.265C52.9036 565.38 79.7071 571.189 79.7071 571.189Z" fill="#2F2E41"/>
<path d="M67.9638 54.0063C67.9638 54.0063 51.0418 80.379 44.4454 86.4829C37.849 92.5868 56.407 106.026 56.407 106.026L89.6223 110.494C89.6223 110.494 89.2044 80.2689 90.9151 77.1554C92.6258 74.0418 67.9638 54.0063 67.9638 54.0063Z" fill="#FFB9B9"/>
<path d="M44.468 89.661C45.1298 90.091 45.8261 90.5194 46.5431 90.9429C50.1382 93.0665 54.7566 95.3606 59.4358 97.4666C64.1302 99.5795 69.0011 101.555 73.1406 103.029C75.2075 103.764 77.1399 104.392 78.8046 104.851C80.3589 105.279 82.0396 105.664 83.449 105.718C86.6754 105.844 89.417 104.37 91.3529 102.941C93.3604 101.459 95.114 99.5708 96.5012 97.8634C96.5838 97.7617 96.6656 97.66 96.7466 97.5585L110.089 118.106L117.69 161.775L126.832 241.697L114.185 250.438L37.4921 115.471C37.7479 114.43 38.098 113.016 38.5155 111.358C39.4212 107.76 40.6397 103.027 41.8984 98.4551C42.7827 95.2434 43.6687 92.1779 44.468 89.661Z" fill="#FDCA05" stroke="black" stroke-width="10"/>
<path d="M40.0788 215.098C43.2848 221.804 45.2871 228.798 45.0095 235.958C44.9972 236.276 44.9848 236.593 44.9566 236.91C44.1961 251.603 38.7832 268.596 36.8413 280.954C35.4322 289.819 35.8332 296.29 41.021 297.811C53.5982 301.478 39.1872 304.099 87.847 320.296C136.507 336.492 144.999 322.512 145.122 319.337C145.245 316.162 138.231 292.041 139.88 290.515C141.529 288.989 162.954 310.489 169.427 307.56C175.901 304.631 170.166 288.509 170.166 288.509C170.166 288.509 155.583 254.555 155.891 246.618C156.199 238.68 133.802 201.243 133.802 201.243L118.568 102.076C118.568 102.076 112.71 89.1298 104.834 87.2344C96.9582 85.3391 90.4233 89.8554 90.4233 89.8554L103.603 118.985L117.509 170.402L115.182 189.391C115.182 189.391 99.0121 155.376 88.3918 142.244C77.7715 129.113 55.128 98.0264 55.128 98.0264C55.128 98.0264 49.8416 80.189 53.8323 74.8584C57.8237 69.5121 37.1856 68.7118 28.386 90.6296C23.7222 102.246 16.1502 119.569 11.4068 135.698C7.17999 149.986 5.18338 163.344 9.37093 170.979C15.7712 182.643 31.871 197.974 40.0788 215.098Z" fill="#FF4568"/>
<path opacity="0.1" d="M9.37093 170.979C15.7712 182.643 31.871 197.974 40.0788 215.098C42.2226 207.374 44.8379 199.383 44.8379 199.383C44.8379 199.383 54.8687 145.714 25.1979 131.844C20.2816 131.369 15.3646 132.743 11.4068 135.698C7.17999 149.986 5.18338 163.344 9.37093 170.979Z" fill="black"/>
<path d="M127.158 167.597L152.313 174.932L187.239 176.286L190.832 206.634L133.434 210.768C133.434 210.768 119.098 170.464 127.158 167.597Z" fill="#FF4568"/>
<path d="M86.1381 269.636C86.1381 269.636 119.79 275.219 112.109 285.346C104.429 295.473 74.6172 284.826 74.6172 284.826L86.1381 269.636Z" fill="#FFB9B9"/>
<path opacity="0.1" d="M44.9552 236.91C44.1946 251.603 38.7818 268.596 36.8398 280.954C47.56 291.1 57.7542 300.049 61.5961 300.198C69.5338 300.506 82.2957 299.411 86.9968 301.183C91.6978 302.956 94.4551 272.854 94.4551 272.854C94.4551 272.854 91.6493 263.205 79.1337 257.95C70.6859 254.395 54.4927 244.752 44.9552 236.91Z" fill="black"/>
<path d="M25.5682 122.319C25.5682 122.319 -1.29694 118.097 0.154413 162.672C1.60576 207.246 -2.67744 235.699 8.12756 244.067C18.9326 252.436 54.0301 290.365 61.9679 290.673C69.9056 290.981 82.6675 289.886 87.3686 291.658C92.0697 293.431 94.8269 263.329 94.8269 263.329C94.8269 263.329 92.0211 253.68 79.5055 248.425C66.9898 243.17 37.5037 224.537 37.7499 218.187C37.9961 211.837 45.2082 189.858 45.2082 189.858C45.2082 189.858 55.239 136.189 25.5682 122.319Z" fill="#FF4568"/>
<path d="M91.6553 93.0568C110.959 93.0568 126.608 77.4081 126.608 58.1046C126.608 38.801 110.959 23.1523 91.6553 23.1523C72.3518 23.1523 56.7031 38.801 56.7031 58.1046C56.7031 77.4081 72.3518 93.0568 91.6553 93.0568Z" fill="#FFB9B9"/>
<path d="M115.189 8.00811C116.032 8.73446 117.042 9.24109 118.128 9.48289C118.674 9.5801 119.235 9.45763 119.69 9.14223C120.146 8.82683 120.458 8.3441 120.559 7.79943C121.358 9.45784 122.26 11.2254 123.893 12.0763C125.526 12.9273 128.05 12.2137 128.286 10.3877C128.524 11.7742 129.138 13.0689 130.059 14.1316C131.072 15.0974 132.909 15.3412 133.794 14.2564C133.079 18.1639 133.52 22.1823 133.296 26.1483C133.071 30.1142 132.014 34.3188 129.017 36.9267C124.647 40.73 118.076 39.7913 112.328 39.0708C111.459 38.8883 110.557 38.9377 109.712 39.2138C107.56 40.1308 107.658 43.1269 107.629 45.4663C107.453 49.5709 105.829 53.4804 103.044 56.5007C100.259 59.521 96.4935 61.4566 92.4165 61.9638C90.135 62.3159 87.8069 61.7477 85.9441 60.3841C84.312 59.0008 83.4784 56.7461 81.6083 55.7069C78.5662 54.0165 74.8767 56.4817 72.6526 59.1585C70.4284 61.8352 68.2364 65.1278 64.7909 65.6178C60.234 66.2658 56.7632 61.6218 55.0604 57.3456C52.7111 51.3522 51.5855 44.9491 51.7501 38.5138C51.9147 32.0785 53.3661 25.7413 56.0188 19.8758C65.5337 -0.86524 98.037 -4.14585 115.189 8.00811Z" fill="#2F2E41"/>
<path d="M410.845 387.94C489.524 387.94 553.309 324.013 553.309 245.15C553.309 166.291 489.524 102.36 410.845 102.36C332.163 102.36 268.379 166.291 268.379 245.15C268.379 324.013 332.163 387.94 410.845 387.94Z" stroke="#FF004D" stroke-width="4" stroke-miterlimit="10" stroke-dasharray="12 12"/>
<path d="M786.577 359.695C865.259 359.695 929.043 295.767 929.043 216.905C929.043 138.045 865.259 74.1152 786.577 74.1152C707.898 74.1152 644.113 138.045 644.113 216.905C644.113 295.767 707.898 359.695 786.577 359.695Z" stroke="#FF005C" stroke-width="4" stroke-miterlimit="10" stroke-dasharray="12 12"/>
<path d="M841.655 272.086C835.518 265.546 832.098 256.906 832.09 247.929C832.125 241.736 833.761 235.656 836.835 230.284C839.911 224.914 844.321 220.431 849.638 217.274C847.261 213.814 845.982 209.711 845.977 205.506C845.977 193.667 855.887 184.072 868.113 184.072C872.835 184.024 877.448 185.498 881.271 188.277C885.094 191.055 887.927 194.992 889.35 199.506C892.368 194.746 896.543 190.833 901.483 188.132C906.422 185.435 911.964 184.036 917.593 184.072C935.807 184.072 950.577 198.376 950.577 216.013C950.58 219.78 949.896 223.516 948.56 227.034C949.223 226.989 949.896 226.933 950.577 226.933C965.201 226.933 977.05 238.412 977.05 252.572C977.05 253.438 977.007 254.302 976.919 255.163C988.613 260.042 996.801 271.301 996.801 284.412C996.801 301.993 982.084 316.249 963.925 316.249C962.016 316.246 960.112 316.082 958.234 315.762C958.327 316.821 958.391 317.895 958.391 318.979C958.391 338.709 941.873 354.707 921.497 354.707C914.018 354.73 906.703 352.514 900.488 348.344C895.459 352.476 889.152 354.728 882.648 354.707C867.424 354.707 855.087 342.759 855.087 328.032C855.087 327.397 855.142 326.768 855.19 326.14H855.087C838.789 326.14 825.578 313.346 825.578 297.56C825.611 292.231 827.135 287.018 829.978 282.514C832.819 278.013 836.865 274.399 841.655 272.086Z" fill="url(#paint0_linear)"/>
<path d="M844.645 271.968C838.774 265.706 835.502 257.439 835.492 248.847C835.525 242.92 837.092 237.101 840.034 231.957C842.979 226.815 847.202 222.526 852.291 219.505C850.01 216.184 848.787 212.248 848.784 208.215C848.784 196.885 858.271 187.698 869.973 187.698C874.495 187.655 878.913 189.063 882.577 191.723C886.24 194.38 888.957 198.144 890.327 202.465C893.213 197.918 897.201 194.182 901.92 191.601C906.639 189.02 911.934 187.68 917.309 187.708C934.748 187.708 948.878 201.396 948.878 218.304C948.881 221.911 948.225 225.488 946.944 228.856C947.587 228.811 948.227 228.763 948.878 228.763C962.874 228.763 974.217 239.746 974.217 253.305C974.214 254.133 974.171 254.959 974.083 255.782C985.276 260.491 993.112 271.231 993.112 283.777C993.112 300.606 979.022 314.249 961.646 314.249C959.808 314.249 957.975 314.094 956.165 313.785C956.258 314.798 956.314 315.827 956.314 316.86C956.314 335.746 940.503 351.053 921.003 351.053C913.845 351.071 906.845 348.951 900.895 344.964C896.099 348.91 890.089 351.068 883.883 351.068C869.318 351.068 857.504 339.629 857.504 325.523C857.504 324.91 857.552 324.315 857.598 323.709H857.504C841.903 323.709 829.254 311.462 829.254 296.353C829.287 291.252 830.748 286.264 833.467 281.953C836.189 277.642 840.06 274.184 844.645 271.968Z" fill="#009688"/>
<path d="M909.493 236.198H899.168V426.243H909.493V236.198Z" fill="url(#paint1_linear)"/>
<path d="M907.355 236.198H901.641V426.243H907.355V236.198Z" fill="#795548"/>
<path d="M873.261 256.5L869.18 260.51L903.041 295.129L907.119 291.119L873.261 256.5Z" fill="#795548"/>
<path d="M938.525 295.821L903.426 320.507L906.71 325.196L941.808 300.507L938.525 295.821Z" fill="#795548"/>
<path d="M909.834 275.421C913.353 271.383 915.969 266.636 917.5 261.502C919.035 256.365 919.45 250.96 918.718 245.65C917.987 240.339 916.128 235.247 913.265 230.718C910.401 226.192 906.603 222.332 902.122 219.401C904.439 215.809 905.669 211.622 905.662 207.344C905.662 195.246 896.096 185.438 884.293 185.438C879.627 185.474 875.1 187.032 871.401 189.876C867.699 192.723 865.026 196.7 863.783 201.209C861.003 196.427 857.025 192.457 852.242 189.691C847.46 186.925 842.039 185.459 836.52 185.438C818.931 185.438 804.669 200.054 804.669 218.084C804.664 221.924 805.323 225.736 806.616 229.351C805.976 229.302 805.325 229.249 804.669 229.249C790.577 229.249 779.103 241.018 779.103 255.453C779.103 256.347 779.151 257.226 779.237 258.098C773.49 260.679 768.616 264.878 765.206 270.185C761.798 275.492 760 281.677 760.036 287.989C760.036 305.964 774.249 320.533 791.775 320.533C793.613 320.528 795.446 320.364 797.256 320.037C797.163 321.121 797.107 322.218 797.107 323.325C797.107 343.487 813.052 359.838 832.73 359.838C840.001 359.84 847.093 357.568 853.012 353.336C857.777 357.523 863.897 359.835 870.234 359.838C884.934 359.838 896.848 347.624 896.848 332.56C896.848 331.909 896.793 331.266 896.755 330.622H896.848C912.589 330.622 925.342 317.542 925.342 301.412C925.364 296.075 923.934 290.831 921.199 286.252C918.468 281.67 914.536 277.923 909.834 275.421Z" fill="url(#paint2_linear)"/>
<path d="M905.707 275.247C909.009 271.458 911.462 267.005 912.898 262.185C914.336 257.367 914.723 252.293 914.037 247.311C913.351 242.328 911.606 237.551 908.92 233.301C906.234 229.053 902.669 225.431 898.466 222.682C900.641 219.309 901.793 215.375 901.785 211.36C901.785 200 892.808 190.797 881.723 190.797C877.351 190.835 873.11 192.302 869.644 194.972C866.175 197.641 863.671 201.37 862.507 205.592C859.896 201.104 856.162 197.375 851.673 194.779C847.181 192.183 842.092 190.807 836.91 190.79C820.4 190.79 807.016 204.511 807.016 221.434C807.011 225.038 807.632 228.617 808.847 232.009C808.244 231.963 807.634 231.915 807.016 231.915C793.762 231.915 783.025 242.898 783.025 256.511C783.025 257.352 783.063 258.175 783.149 258.99C777.761 261.42 773.191 265.366 769.996 270.346C766.798 275.328 765.115 281.131 765.145 287.054C765.145 303.923 778.452 317.596 794.945 317.596C796.674 317.596 798.401 317.442 800.105 317.135C800.018 318.154 799.963 319.182 799.963 320.218C799.963 339.15 814.928 354.487 833.396 354.487C840.219 354.489 846.875 352.357 852.432 348.385C856.904 352.314 862.648 354.484 868.596 354.487C882.389 354.487 893.575 343.025 893.575 328.878C893.575 328.268 893.527 327.662 893.489 327.06H893.575C908.345 327.06 920.321 314.782 920.321 299.64C920.341 294.622 918.989 289.698 916.412 285.397C913.837 281.098 910.133 277.588 905.707 275.247Z" fill="#00897B"/>
<path d="M852.976 236.127H845.211V429.739H852.976V236.127Z" fill="url(#paint3_linear)"/>
<path d="M851.321 238.851H847.414V429.743H851.321V238.851Z" fill="#795548"/>
<path d="M879.105 260.366L847.047 295.068L849.913 297.728L881.971 263.026L879.105 260.366Z" fill="#795548"/>
<path d="M816.419 299.967L814.09 303.108L847.328 327.85L849.657 324.707L816.419 299.967Z" fill="#795548"/>
<path d="M760.216 332.033C756.033 327.569 753.704 321.68 753.704 315.558C753.727 311.338 754.843 307.197 756.939 303.536C759.036 299.876 762.041 296.821 765.664 294.671C764.039 292.308 763.168 289.504 763.168 286.631C763.168 278.566 769.923 272.021 778.25 272.021C781.468 271.988 784.612 272.994 787.218 274.886C789.823 276.778 791.752 279.46 792.724 282.535C794.783 279.293 797.626 276.626 800.993 274.787C804.361 272.948 808.138 271.998 811.971 272.021C824.387 272.021 834.454 281.765 834.454 293.784C834.457 296.355 833.988 298.901 833.077 301.302C833.53 301.302 833.983 301.231 834.454 301.231C844.419 301.231 852.458 309.076 852.458 318.704C852.455 319.292 852.425 319.882 852.364 320.469C856.337 322.075 859.747 324.826 862.157 328.375C864.57 331.924 865.877 336.111 865.915 340.404C865.915 352.385 855.886 362.097 843.51 362.097C842.199 362.099 840.89 361.988 839.596 361.767C839.667 362.489 839.705 363.219 839.705 363.956C839.705 377.404 828.451 388.278 814.564 388.278C809.495 388.3 804.535 386.819 800.31 384.017C796.877 386.821 792.58 388.341 788.152 388.318C777.781 388.318 769.366 380.175 769.366 370.131C769.366 369.691 769.366 369.268 769.437 368.845H769.366C758.258 368.845 749.258 360.129 749.258 349.371C749.283 345.744 750.326 342.197 752.263 339.133C754.2 336.068 756.955 333.608 760.216 332.033Z" fill="url(#paint4_linear)"/>
<path d="M762.246 331.954C758.238 327.691 755.998 322.057 755.985 316.201C756.008 312.161 757.076 308.197 759.084 304.693C761.089 301.19 763.968 298.267 767.437 296.21C765.882 293.946 765.049 291.261 765.049 288.513C765.049 280.792 771.515 274.533 779.483 274.533C782.564 274.5 785.575 275.46 788.068 277.274C790.565 279.085 792.411 281.653 793.34 284.597C795.307 281.494 798.031 278.943 801.252 277.183C804.475 275.422 808.088 274.51 811.759 274.533C823.641 274.533 833.277 283.86 833.277 295.37C833.279 297.829 832.834 300.266 831.96 302.563C832.398 302.563 832.829 302.502 833.277 302.502C842.809 302.502 850.544 309.987 850.544 319.22C850.544 319.785 850.516 320.347 850.458 320.907C854.261 322.445 857.524 325.079 859.833 328.476C862.142 331.87 863.393 335.877 863.428 339.988C863.428 351.458 853.823 360.756 841.981 360.756C840.738 360.754 839.495 360.65 838.27 360.442C838.333 361.131 838.371 361.83 838.371 362.537C838.371 375.402 827.6 385.838 814.308 385.838C809.432 385.851 804.665 384.404 800.611 381.686C797.332 384.382 793.218 385.848 788.98 385.838C779.053 385.838 770.976 378.047 770.976 368.429C770.976 368.013 770.976 367.606 771.037 367.198H770.976C760.345 367.198 751.727 358.849 751.727 348.555C751.754 345.08 752.757 341.68 754.615 338.745C756.476 335.811 759.12 333.458 762.246 331.954Z" fill="#009688"/>
<path d="M806.423 307.579H799.387V437.086H806.423V307.579Z" fill="url(#paint5_linear)"/>
<path d="M804.967 307.579H801.078V437.086H804.967V307.579Z" fill="#795548"/>
<path d="M781.731 321.409L778.953 324.139L802.023 347.726L804.801 344.996L781.731 321.409Z" fill="#795548"/>
<path d="M826.227 348.201L802.309 365.025L804.544 368.216L828.463 351.392L826.227 348.201Z" fill="#795548"/>
<path d="M826.409 335.876C828.776 333.17 830.536 329.984 831.566 326.537C832.599 323.089 832.878 319.459 832.389 315.893C831.898 312.329 830.647 308.909 828.723 305.87C826.799 302.833 824.244 300.244 821.234 298.281C822.778 295.864 823.593 293.053 823.583 290.183C823.667 286.682 822.467 283.27 820.213 280.59C817.96 277.913 814.805 276.155 811.347 275.649C807.888 275.142 804.364 275.922 801.44 277.84C798.516 279.76 796.394 282.685 795.472 286.064C793.609 282.858 790.94 280.195 787.732 278.339C784.525 276.482 780.891 275.497 777.187 275.481C765.384 275.481 755.811 285.287 755.811 297.394C755.806 299.97 756.249 302.531 757.117 304.958C756.687 304.958 756.249 304.887 755.811 304.887C753.53 304.912 751.279 305.386 749.183 306.285C747.089 307.182 745.19 308.486 743.595 310.12C742.002 311.751 740.747 313.684 739.896 315.804C739.048 317.924 738.625 320.191 738.65 322.476C738.65 323.071 738.65 323.669 738.736 324.249C734.88 325.982 731.609 328.804 729.32 332.365C727.034 335.929 725.829 340.08 725.852 344.318C725.852 356.378 735.394 366.16 747.16 366.16C748.395 366.16 749.631 366.049 750.846 365.831C750.785 366.56 750.745 367.29 750.745 368.035C750.745 381.568 761.455 392.546 774.65 392.546C779.532 392.549 784.289 391.022 788.264 388.182C791.462 390.994 795.571 392.544 799.824 392.546C802.197 392.519 804.541 392.025 806.724 391.09C808.906 390.155 810.881 388.798 812.542 387.098C814.2 385.398 815.507 383.387 816.39 381.178C817.274 378.972 817.714 376.611 817.689 374.233C817.689 373.795 817.689 373.364 817.626 372.931H817.689C828.254 372.931 836.82 364.152 836.82 353.318C836.835 349.736 835.873 346.218 834.037 343.143C832.202 340.07 829.563 337.558 826.409 335.876Z" fill="url(#paint6_linear)"/>
<path d="M823.641 335.769C825.862 333.225 827.51 330.234 828.477 326.997C829.442 323.76 829.705 320.353 829.244 317.004C828.783 313.658 827.609 310.449 825.806 307.594C824.001 304.742 821.603 302.308 818.78 300.464C820.238 298.202 821.013 295.562 821.011 292.87C821.089 289.579 819.965 286.378 817.851 283.862C815.734 281.35 812.772 279.698 809.526 279.222C806.28 278.746 802.971 279.478 800.224 281.279C797.48 283.082 795.487 285.828 794.624 289.002C792.872 285.988 790.363 283.487 787.35 281.745C784.337 280.002 780.922 279.08 777.443 279.067C766.358 279.067 757.381 288.28 757.381 299.64C757.376 302.059 757.793 304.461 758.609 306.74C758.201 306.74 757.826 306.677 757.381 306.677C753.066 306.728 748.947 308.488 745.929 311.578C742.911 314.666 741.238 318.83 741.278 323.152C741.278 323.716 741.278 324.274 741.357 324.816C737.736 326.442 734.668 329.089 732.521 332.43C730.374 335.774 729.242 339.669 729.262 343.646C729.262 354.966 738.217 364.146 749.261 364.146C750.423 364.143 751.58 364.039 752.722 363.832C752.659 364.515 752.628 365.204 752.628 365.904C752.628 378.607 762.68 388.906 775.071 388.906C779.653 388.911 784.122 387.477 787.854 384.812C790.854 387.452 794.71 388.908 798.703 388.906C803.199 388.855 807.491 387.016 810.635 383.794C813.777 380.572 815.517 376.231 815.469 371.724C815.469 371.317 815.468 370.939 815.408 370.509H815.469C817.854 370.483 820.211 369.984 822.403 369.044C824.596 368.107 826.583 366.742 828.252 365.035C829.918 363.325 831.234 361.304 832.123 359.085C833.009 356.866 833.452 354.492 833.427 352.104C833.432 348.745 832.526 345.45 830.801 342.572C829.077 339.692 826.601 337.342 823.641 335.769Z" fill="#00897B"/>
<path d="M788.252 309.509H783.039V439.464H788.252V309.509Z" fill="url(#paint7_linear)"/>
<path d="M787.139 311.336H784.516V439.462H787.139V311.336Z" fill="#795548"/>
<path d="M805.78 325.771L784.262 349.062L786.186 350.848L807.704 327.557L805.78 325.771Z" fill="#795548"/>
<path d="M763.721 352.357L762.156 354.467L784.467 371.073L786.029 368.963L763.721 352.357Z" fill="#795548"/>
<path d="M779.993 245.771H559.25V442.697H779.993V245.771Z" fill="url(#paint8_linear)"/>
<path d="M774.497 245.771H414.422V436.42H774.497V245.771Z" fill="white"/>
<path d="M791.724 264.598H437.91V172.022H778.806C782.232 172.022 785.518 173.385 787.941 175.811C790.361 178.24 791.724 181.533 791.724 184.966V264.598Z" fill="url(#paint9_linear)"/>
<path d="M437.906 175.683H775.767C779.192 175.683 782.476 177.048 784.899 179.475C787.322 181.904 788.681 185.197 788.681 188.629V262.212H437.906V175.683Z" fill="#6C63FF"/>
<path opacity="0.7" d="M437.906 175.683H775.767C779.192 175.683 782.476 177.048 784.899 179.475C787.322 181.904 788.681 185.197 788.681 188.629V262.212H437.906V175.683Z" fill="#A6A6A6"/>
<path d="M437.113 71.5908L315 157.784V230.41V442.69H559.226V230.41V157.784L437.113 71.5908Z" fill="url(#paint10_linear)"/>
<path d="M553.755 156.332L437.904 71.5908L322.055 156.332V227.72H553.755V156.332Z" fill="#6C63FF"/>
<path opacity="0.5" d="M553.755 156.332L437.904 71.5908L322.055 156.332V227.72H553.755V156.332Z" fill="#6D6D6D"/>
<path d="M553.755 227.727H322.055V436.42H553.755V227.727Z" fill="white"/>
<path d="M568.63 198.69L437.907 105.129L305.619 198.69L297.008 165.784L437.907 63L578.806 165.784L568.63 198.69Z" fill="url(#paint11_linear)"/>
<path d="M567.424 193.869L437.901 99.3852L308.382 193.869L302.848 164.283L437.901 65.7749L572.959 164.283L567.424 193.869Z" fill="#032B4D"/>
<path opacity="0.2" d="M567.424 193.869L437.901 99.3852L308.382 193.869L302.848 164.283L437.901 65.7749L572.959 164.283L567.424 193.869Z" fill="#032B4D"/>
<path d="M503.666 273.23H372.16V436.418H503.666V273.23Z" fill="#F2F2F2"/>
<path d="M503.666 307.557H372.16V335.8H503.666V307.557Z" fill="#FDCA05"/>
<path d="M503.666 322.364H372.16V350.61H503.666V322.364Z" fill="#032B4D"/>
<path d="M503.666 279.303H372.16V307.548H503.666V279.303Z" fill="#FF005C"/>
<path d="M658.14 377.743C658.451 377.743 658.75 377.619 658.97 377.398C659.19 377.178 659.312 376.877 659.312 376.565C659.312 376.253 659.19 375.954 658.97 375.734C658.75 375.514 658.451 375.39 658.14 375.39C657.828 375.39 657.529 375.514 657.309 375.734C657.089 375.954 656.965 376.253 656.965 376.565C656.965 376.877 657.089 377.178 657.309 377.398C657.529 377.619 657.828 377.743 658.14 377.743Z" fill="#00FF00"/>
<path d="M689.949 317.164H625.762V436.417H689.949V317.164Z" fill="#032B4D"/>
<path d="M766.655 292.058H706.383V335.993H766.655V292.058Z" fill="#FDCA05"/>
<path d="M766.655 304.932H706.383V348.866H766.655V304.932Z" fill="#032B4D"/>
<path opacity="0.2" d="M766.655 292.058H706.383V311.674H766.655V292.058Z" fill="#FDCA05"/>
<path opacity="0.8" d="M466.472 178.359H406.199V197.972H466.472V178.359Z" fill="#FDCA05"/>
<path d="M289.521 355.42C286.019 351.712 284.06 346.805 284.042 341.699C284.065 338.183 284.996 334.73 286.743 331.681C288.49 328.628 290.997 326.083 294.015 324.289C292.66 322.319 291.934 319.983 291.931 317.59C291.989 314.304 293.346 311.176 295.703 308.894C298.061 306.611 301.225 305.358 304.504 305.413C307.19 305.383 309.818 306.219 311.993 307.802C314.171 309.383 315.781 311.622 316.589 314.193C318.305 311.49 320.677 309.266 323.485 307.734C326.291 306.201 329.44 305.408 332.635 305.429C342.985 305.429 351.376 313.557 351.376 323.575C351.378 325.72 350.989 327.848 350.227 329.852C350.609 329.852 351.009 329.796 351.376 329.796C359.68 329.796 366.413 336.316 366.413 344.358C366.413 344.85 366.387 345.338 366.334 345.825C369.648 347.165 372.489 349.457 374.499 352.416C376.509 355.374 377.601 358.865 377.631 362.444C377.631 372.431 369.271 380.527 358.954 380.527C357.87 380.527 356.789 380.433 355.721 380.253C355.776 380.856 355.807 381.462 355.807 382.08C355.807 393.291 346.414 402.376 334.851 402.376C330.602 402.389 326.445 401.13 322.916 398.759C320.057 401.11 316.472 402.387 312.778 402.376C304.167 402.376 297.121 395.591 297.121 387.211C297.121 386.852 297.121 386.489 297.177 386.137H297.121C287.862 386.137 280.355 378.863 280.355 369.903C280.376 366.871 281.244 363.905 282.865 361.344C284.487 358.784 286.794 356.732 289.521 355.42Z" fill="url(#paint12_linear)"/>
<path d="M291.194 355.36C287.86 351.801 286.002 347.107 285.997 342.226C286.017 338.86 286.905 335.554 288.576 332.634C290.25 329.713 292.648 327.277 295.539 325.562C294.243 323.675 293.549 321.436 293.549 319.143C293.577 317.585 293.909 316.048 294.529 314.619C295.149 313.191 296.043 311.899 297.159 310.815C298.278 309.733 299.598 308.882 301.043 308.31C302.491 307.74 304.036 307.458 305.59 307.486C308.155 307.461 310.664 308.261 312.743 309.771C314.821 311.281 316.361 313.419 317.136 315.873C318.776 313.284 321.047 311.159 323.733 309.693C326.42 308.223 329.435 307.466 332.494 307.486C342.396 307.486 350.427 315.26 350.427 324.855C350.429 326.904 350.057 328.936 349.33 330.851C349.69 330.851 350.059 330.795 350.427 330.795C358.379 330.795 364.823 337.072 364.823 344.737C364.823 345.205 364.8 345.674 364.752 346.14C367.919 347.424 370.638 349.623 372.56 352.455C374.484 355.287 375.525 358.627 375.552 362.052C375.552 371.617 367.554 379.368 357.675 379.368C356.624 379.368 355.579 379.279 354.543 379.102C354.599 379.674 354.629 380.262 354.629 380.85C354.629 391.574 345.652 400.275 334.567 400.275C330.514 400.275 326.554 399.069 323.187 396.807C320.452 399.054 317.024 400.278 313.487 400.267C305.213 400.267 298.506 393.773 298.506 385.753C298.506 385.409 298.506 385.064 298.559 384.725H298.506C289.645 384.725 282.457 377.767 282.457 369.182C282.482 366.292 283.313 363.463 284.855 361.021C286.399 358.577 288.594 356.616 291.194 355.36Z" fill="#009688"/>
<path d="M328.033 335.036H322.164V443H328.033V335.036Z" fill="url(#paint13_linear)"/>
<path d="M326.803 335.036H323.562V443H326.803V335.036Z" fill="#795548"/>
<path d="M307.443 346.565L305.129 348.84L324.361 368.503L326.675 366.231L307.443 346.565Z" fill="#795548"/>
<path d="M344.519 368.903L324.578 382.929L326.439 385.588L346.38 371.563L344.519 368.903Z" fill="#795548"/>
<path d="M251.168 355.42C247.666 351.712 245.707 346.805 245.689 341.699C245.712 338.183 246.643 334.73 248.39 331.681C250.137 328.628 252.641 326.083 255.662 324.289C254.305 322.319 253.581 319.983 253.578 317.59C253.636 314.304 254.993 311.176 257.351 308.894C259.708 306.611 262.872 305.358 266.149 305.413C268.837 305.383 271.463 306.219 273.64 307.802C275.818 309.383 277.428 311.622 278.236 314.193C279.952 311.49 282.325 309.266 285.13 307.734C287.938 306.201 291.087 305.408 294.282 305.429C304.63 305.429 313.023 313.557 313.023 323.575C313.023 325.72 312.633 327.848 311.871 329.852C312.256 329.852 312.653 329.796 313.023 329.796C321.327 329.796 328.06 336.316 328.06 344.358C328.06 344.85 328.032 345.338 327.981 345.825C331.293 347.165 334.133 349.457 336.146 352.416C338.156 355.374 339.245 358.865 339.276 362.444C339.276 372.431 330.915 380.527 320.598 380.527C319.517 380.527 318.433 380.433 317.368 380.253C317.421 380.856 317.454 381.462 317.454 382.08C317.454 393.291 308.058 402.376 296.498 402.376C292.249 402.389 288.092 401.13 284.56 398.759C281.704 401.11 278.119 402.387 274.423 402.376C265.812 402.376 258.768 395.591 258.768 387.211C258.768 386.852 258.768 386.489 258.824 386.137H258.768C249.507 386.137 242 378.863 242 369.903C242.02 366.871 242.891 363.905 244.512 361.344C246.132 358.784 248.438 356.732 251.168 355.42Z" fill="url(#paint14_linear)"/>
<path d="M252.836 355.36C249.504 351.801 247.646 347.107 247.639 342.226C247.659 338.86 248.547 335.554 250.221 332.634C251.892 329.713 254.292 327.277 257.181 325.562C255.885 323.675 255.194 321.436 255.194 319.143C255.219 317.585 255.553 316.048 256.171 314.619C256.791 313.191 257.685 311.899 258.804 310.815C259.92 309.733 261.242 308.882 262.688 308.31C264.133 307.74 265.678 307.458 267.232 307.486C269.8 307.461 272.306 308.261 274.385 309.771C276.463 311.281 278.003 313.419 278.778 315.873C280.421 313.284 282.692 311.159 285.378 309.693C288.064 308.223 291.077 307.466 294.136 307.486C304.038 307.486 312.069 315.26 312.069 324.855C312.071 326.904 311.701 328.936 310.975 330.851C311.334 330.851 311.701 330.795 312.069 330.795C320.024 330.795 326.465 337.072 326.465 344.737C326.465 345.205 326.442 345.674 326.394 346.14C329.564 347.424 332.28 349.623 334.204 352.455C336.126 355.287 337.169 358.627 337.197 362.052C337.197 371.617 329.196 379.368 319.317 379.368C318.269 379.368 317.221 379.279 316.188 379.102C316.241 379.674 316.274 380.262 316.274 380.85C316.274 391.574 307.296 400.275 296.212 400.275C292.158 400.275 288.196 399.069 284.829 396.807C282.094 399.054 278.666 400.278 275.132 400.267C266.858 400.267 260.148 393.773 260.148 385.753C260.148 385.409 260.148 385.064 260.204 384.725H260.148C251.287 384.725 244.102 377.767 244.102 369.182C244.124 366.292 244.955 363.463 246.499 361.021C248.044 358.577 250.239 356.616 252.836 355.36Z" fill="#009688"/>
<path d="M289.67 335.036H283.801V443H289.67V335.036Z" fill="url(#paint15_linear)"/>
<path d="M288.448 335.036H285.207V443H288.448V335.036Z" fill="#795548"/>
<path d="M269.088 346.567L266.773 348.839L286.008 368.506L288.322 366.231L269.088 346.567Z" fill="#795548"/>
<path d="M306.165 368.91L286.227 382.935L288.087 385.592L308.028 371.567L306.165 368.91Z" fill="#795548"/>
<path d="M338.421 356.278C340.398 354.019 341.866 351.359 342.73 348.482C343.591 345.604 343.826 342.575 343.416 339.598C343.006 336.622 341.965 333.77 340.358 331.232C338.752 328.694 336.621 326.533 334.109 324.894C335.405 322.883 336.091 320.54 336.089 318.146C336.16 315.226 335.162 312.379 333.284 310.145C331.405 307.911 328.774 306.444 325.891 306.021C323.004 305.598 320.065 306.249 317.627 307.85C315.189 309.451 313.419 311.892 312.652 314.712C311.097 312.034 308.872 309.813 306.196 308.265C303.519 306.718 300.486 305.897 297.397 305.884C295.028 305.907 292.688 306.401 290.511 307.331C288.333 308.263 286.359 309.615 284.705 311.312C283.05 313.007 281.743 315.016 280.862 317.217C279.981 319.421 279.543 321.776 279.573 324.15C279.573 326.288 279.94 328.413 280.659 330.426C280.3 330.426 279.94 330.371 279.573 330.371C277.664 330.391 275.781 330.789 274.029 331.538C272.274 332.291 270.687 333.385 269.357 334.753C268.026 336.123 266.977 337.742 266.274 339.52C265.57 341.295 265.225 343.193 265.256 345.105C265.256 345.607 265.256 346.101 265.327 346.587C262.111 348.033 259.384 350.384 257.478 353.353C255.572 356.324 254.566 359.784 254.587 363.315C254.544 368.087 256.387 372.682 259.716 376.096C263.043 379.508 267.585 381.461 272.347 381.524C273.378 381.524 274.408 381.433 275.424 381.251C275.368 381.854 275.338 382.467 275.338 383.085C275.338 394.367 284.262 403.483 295.268 403.483C299.337 403.483 303.304 402.211 306.618 399.843C309.282 402.189 312.707 403.48 316.254 403.483C320.245 403.435 324.05 401.799 326.84 398.939C329.628 396.076 331.17 392.224 331.126 388.224C331.126 387.854 331.126 387.502 331.071 387.143H331.126C335.403 387.092 339.484 385.342 342.474 382.279C345.464 379.214 347.118 375.086 347.072 370.8C347.085 367.818 346.285 364.893 344.76 362.332C343.236 359.774 341.044 357.681 338.421 356.278Z" fill="url(#paint16_linear)"/>
<path d="M336.132 356.182C337.98 354.061 339.352 351.569 340.157 348.871C340.962 346.174 341.18 343.334 340.795 340.543C340.413 337.754 339.433 335.082 337.929 332.703C336.425 330.325 334.43 328.298 332.076 326.761C333.291 324.874 333.937 322.675 333.932 320.428C334.005 317.685 333.071 315.008 331.306 312.908C329.544 310.806 327.073 309.428 324.361 309.03C321.652 308.632 318.89 309.245 316.599 310.75C314.31 312.257 312.649 314.554 311.935 317.204C310.474 314.691 308.385 312.606 305.871 311.153C303.36 309.699 300.511 308.929 297.61 308.918C293.131 308.982 288.857 310.821 285.728 314.038C282.601 317.252 280.872 321.578 280.923 326.069C280.92 328.086 281.267 330.087 281.948 331.984C281.611 331.984 281.267 331.931 280.923 331.931C277.322 331.971 273.884 333.445 271.367 336.024C268.851 338.605 267.458 342.083 267.496 345.692C267.496 346.161 267.496 346.625 267.567 347.081C264.552 348.436 261.992 350.639 260.202 353.426C258.415 356.212 257.47 359.459 257.485 362.772C257.437 367.253 259.166 371.57 262.293 374.774C265.42 377.978 269.689 379.807 274.16 379.86C275.127 379.858 276.094 379.771 277.046 379.599C277.001 380.174 276.968 380.747 276.968 381.327C276.968 391.917 285.346 400.501 295.678 400.501C299.496 400.504 303.22 399.311 306.33 397.087C308.831 399.281 312.041 400.491 315.363 400.494C317.221 400.474 319.054 400.086 320.761 399.354C322.47 398.625 324.017 397.563 325.316 396.233C326.612 394.901 327.637 393.328 328.329 391.601C329.02 389.876 329.364 388.026 329.344 386.167C329.344 385.823 329.344 385.483 329.298 385.146H329.344C331.331 385.124 333.296 384.711 335.124 383.926C336.952 383.143 338.608 382.005 339.998 380.582C341.388 379.156 342.484 377.471 343.226 375.62C343.965 373.771 344.335 371.793 344.312 369.802C344.315 367 343.555 364.249 342.112 361.85C340.671 359.449 338.603 357.489 336.132 356.182Z" fill="#00897B"/>
<path d="M306.61 334.294H302.266V442.635H306.61V334.294Z" fill="url(#paint17_linear)"/>
<path d="M305.677 335.814H303.492V442.633H305.677V335.814Z" fill="#795548"/>
<path d="M321.238 347.85L303.297 367.265L304.9 368.752L322.84 349.336L321.238 347.85Z" fill="#795548"/>
<path d="M286.159 370.011L284.855 371.767L303.457 385.614L304.761 383.857L286.159 370.011Z" fill="#795548"/>
<path d="M650.607 161.869C640.973 161.869 640.956 176.87 650.607 176.87C660.261 176.87 660.251 161.869 650.607 161.869Z" fill="url(#paint18_linear)"/>
<path d="M717.75 113.807C691.824 113.219 668.225 126.256 655.685 145.973C651.591 152.392 663.214 158.063 667.286 151.678C677.674 135.383 697.414 125.003 718.745 125.575C741.116 126.14 761.477 138.967 772.255 156.769C776.349 163.524 787.056 157.382 782.995 150.664C769.913 129.035 744.537 114.41 717.75 113.807Z" fill="url(#paint19_linear)"/>
<defs>
<linearGradient id="paint0_linear" x1="911.197" y1="354.685" x2="911.197" y2="184.042" gradientUnits="userSpaceOnUse">
<stop stop-color="#808080" stop-opacity="0.25"/>
<stop offset="0.54" stop-color="#808080" stop-opacity="0.12"/>
<stop offset="1" stop-color="#808080" stop-opacity="0.1"/>
</linearGradient>
<linearGradient id="paint1_linear" x1="9635.21" y1="88677.1" x2="9635.21" y2="42640.9" gradientUnits="userSpaceOnUse">
<stop stop-color="#808080" stop-opacity="0.25"/>
<stop offset="0.54" stop-color="#808080" stop-opacity="0.12"/>
<stop offset="1" stop-color="#808080" stop-opacity="0.1"/>
</linearGradient>
<linearGradient id="paint2_linear" x1="151797" y1="110091" x2="151797" y2="71321.6" gradientUnits="userSpaceOnUse">
<stop stop-color="#808080" stop-opacity="0.25"/>
<stop offset="0.54" stop-color="#808080" stop-opacity="0.12"/>
<stop offset="1" stop-color="#808080" stop-opacity="0.1"/>
</linearGradient>
<linearGradient id="paint3_linear" x1="6867.29" y1="91200" x2="6867.29" y2="43419.8" gradientUnits="userSpaceOnUse">
<stop stop-color="#808080" stop-opacity="0.25"/>
<stop offset="0.54" stop-color="#808080" stop-opacity="0.12"/>
<stop offset="1" stop-color="#808080" stop-opacity="0.1"/>
</linearGradient>
<linearGradient id="paint4_linear" x1="102106" y1="77781.4" x2="102106" y2="60545.2" gradientUnits="userSpaceOnUse">
<stop stop-color="#808080" stop-opacity="0.25"/>
<stop offset="0.54" stop-color="#808080" stop-opacity="0.12"/>
<stop offset="1" stop-color="#808080" stop-opacity="0.1"/>
</linearGradient>
<linearGradient id="paint5_linear" x1="5841.91" y1="62365.1" x2="5841.91" y2="40987.1" gradientUnits="userSpaceOnUse">
<stop stop-color="#808080" stop-opacity="0.25"/>
<stop offset="0.54" stop-color="#808080" stop-opacity="0.12"/>
<stop offset="1" stop-color="#808080" stop-opacity="0.1"/>
</linearGradient>
<linearGradient id="paint6_linear" x1="93417.1" y1="78927.6" x2="93417.1" y2="61460.3" gradientUnits="userSpaceOnUse">
<stop stop-color="#808080" stop-opacity="0.25"/>
<stop offset="0.54" stop-color="#808080" stop-opacity="0.12"/>
<stop offset="1" stop-color="#808080" stop-opacity="0.1"/>
</linearGradient>
<linearGradient id="paint7_linear" x1="4403.66" y1="62975.1" x2="4403.66" y2="41449.4" gradientUnits="userSpaceOnUse">
<stop stop-color="#808080" stop-opacity="0.25"/>
<stop offset="0.54" stop-color="#808080" stop-opacity="0.12"/>
<stop offset="1" stop-color="#808080" stop-opacity="0.1"/>
</linearGradient>
<linearGradient id="paint8_linear" x1="121142" y1="96016.2" x2="121142" y2="46588.1" gradientUnits="userSpaceOnUse">
<stop stop-color="#808080" stop-opacity="0.25"/>
<stop offset="0.54" stop-color="#808080" stop-opacity="0.12"/>
<stop offset="1" stop-color="#808080" stop-opacity="0.1"/>
</linearGradient>
<linearGradient id="paint9_linear" x1="220711" y1="47275" x2="220711" y2="36350.7" gradientUnits="userSpaceOnUse">
<stop stop-color="#808080" stop-opacity="0.25"/>
<stop offset="0.54" stop-color="#808080" stop-opacity="0.12"/>
<stop offset="1" stop-color="#808080" stop-opacity="0.1"/>
</linearGradient>
<linearGradient id="paint10_linear" x1="61190.4" y1="180548" x2="61190.4" y2="5018.32" gradientUnits="userSpaceOnUse">
<stop stop-color="#808080" stop-opacity="0.25"/>
<stop offset="0.54" stop-color="#808080" stop-opacity="0.12"/>
<stop offset="1" stop-color="#808080" stop-opacity="0.1"/>
</linearGradient>
<linearGradient id="paint11_linear" x1="70819.7" y1="23853.5" x2="70819.7" y2="384.583" gradientUnits="userSpaceOnUse">
<stop stop-color="#808080" stop-opacity="0.25"/>
<stop offset="0.54" stop-color="#808080" stop-opacity="0.12"/>
<stop offset="1" stop-color="#808080" stop-opacity="0.1"/>
</linearGradient>
<linearGradient id="paint12_linear" x1="25321.9" y1="66664.9" x2="25321.9" y2="54683.8" gradientUnits="userSpaceOnUse">
<stop stop-color="#808080" stop-opacity="0.25"/>
<stop offset="0.54" stop-color="#808080" stop-opacity="0.12"/>
<stop offset="1" stop-color="#808080" stop-opacity="0.1"/>
</linearGradient>
<linearGradient id="paint13_linear" x1="945.281" y1="52883.1" x2="945.281" y2="38026.3" gradientUnits="userSpaceOnUse">
<stop stop-color="#808080" stop-opacity="0.25"/>
<stop offset="0.54" stop-color="#808080" stop-opacity="0.12"/>
<stop offset="1" stop-color="#808080" stop-opacity="0.1"/>
</linearGradient>
<linearGradient id="paint14_linear" x1="20517" y1="66664.9" x2="20517" y2="54683.8" gradientUnits="userSpaceOnUse">
<stop stop-color="#808080" stop-opacity="0.25"/>
<stop offset="0.54" stop-color="#808080" stop-opacity="0.12"/>
<stop offset="1" stop-color="#808080" stop-opacity="0.1"/>
</linearGradient>
<linearGradient id="paint15_linear" x1="619.252" y1="52883.1" x2="619.252" y2="38026.3" gradientUnits="userSpaceOnUse">
<stop stop-color="#808080" stop-opacity="0.25"/>
<stop offset="0.54" stop-color="#808080" stop-opacity="0.12"/>
<stop offset="1" stop-color="#808080" stop-opacity="0.1"/>
</linearGradient>
<linearGradient id="paint16_linear" x1="20738.4" y1="67244.3" x2="20738.4" y2="55104" gradientUnits="userSpaceOnUse">
<stop stop-color="#808080" stop-opacity="0.25"/>
<stop offset="0.54" stop-color="#808080" stop-opacity="0.12"/>
<stop offset="1" stop-color="#808080" stop-opacity="0.1"/>
</linearGradient>
<linearGradient id="paint17_linear" x1="648.734" y1="53014.8" x2="648.734" y2="38053.9" gradientUnits="userSpaceOnUse">
<stop stop-color="#808080" stop-opacity="0.25"/>
<stop offset="0.54" stop-color="#808080" stop-opacity="0.12"/>
<stop offset="1" stop-color="#808080" stop-opacity="0.1"/>
</linearGradient>
<linearGradient id="paint18_linear" x1="650.607" y1="176.877" x2="650.607" y2="161.869" gradientUnits="userSpaceOnUse">
<stop stop-opacity="0.12"/>
<stop offset="0.55" stop-opacity="0.09"/>
<stop offset="1" stop-opacity="0.02"/>
</linearGradient>
<linearGradient id="paint19_linear" x1="98250.6" y1="17333" x2="98250.6" y2="14648" gradientUnits="userSpaceOnUse">
<stop stop-opacity="0.12"/>
<stop offset="0.55" stop-opacity="0.09"/>
<stop offset="1" stop-opacity="0.02"/>
</linearGradient>
</defs>
</svg>
