<svg width="887" height="671" viewBox="0 0 887 671" fill="none" xmlns="http://www.w3.org/2000/svg">
<g clip-path="url(#clip0)">
<path d="M675.169 646.553C675.049 646.357 672.217 641.629 671.236 631.811C670.335 622.803 670.914 607.62 678.788 586.441C693.706 546.319 675.351 513.947 675.163 513.625L676.069 513.099C679.603 519.862 682.156 527.094 683.65 534.578C687.347 552.002 686.001 570.119 679.77 586.806C664.878 626.86 675.949 645.821 676.063 646.008L675.169 646.553Z" fill="#E6E6E6"/>
<path d="M669.338 511.269C673.095 511.269 676.141 508.223 676.141 504.466C676.141 500.709 673.095 497.663 669.338 497.663C665.581 497.663 662.535 500.709 662.535 504.466C662.535 508.223 665.581 511.269 669.338 511.269Z" fill="#3F3D56"/>
<path d="M690.791 536.387C694.548 536.387 697.594 533.341 697.594 529.584C697.594 525.827 694.548 522.781 690.791 522.781C687.034 522.781 683.988 525.827 683.988 529.584C683.988 533.341 687.034 536.387 690.791 536.387Z" fill="#3F3D56"/>
<path d="M676.139 553.133C679.896 553.133 682.942 550.087 682.942 546.33C682.942 542.573 679.896 539.527 676.139 539.527C672.382 539.527 669.336 542.573 669.336 546.33C669.336 550.087 672.382 553.133 676.139 553.133Z" fill="#E6E6E6"/>
<path d="M693.932 567.262C697.689 567.262 700.735 564.216 700.735 560.459C700.735 556.702 697.689 553.656 693.932 553.656C690.175 553.656 687.129 556.702 687.129 560.459C687.129 564.216 690.175 567.262 693.932 567.262Z" fill="#E6E6E6"/>
<path d="M670.908 589.241C674.666 589.241 677.711 586.195 677.711 582.438C677.711 578.681 674.666 575.635 670.908 575.635C667.151 575.635 664.105 578.681 664.105 582.438C664.105 586.195 667.151 589.241 670.908 589.241Z" fill="#3F3D56"/>
<path d="M679.28 646.804C679.28 646.804 672.477 630.058 692.886 617.499L679.28 646.804Z" fill="#E6E6E6"/>
<path d="M670.915 646.5C670.915 646.5 667.819 628.692 643.855 628.845L670.915 646.5Z" fill="#E6E6E6"/>
<path d="M717.921 670.667C810.497 670.667 885.545 663.109 885.545 653.786C885.545 644.462 810.497 636.904 717.921 636.904C625.345 636.904 550.297 644.462 550.297 653.786C550.297 663.109 625.345 670.667 717.921 670.667Z" fill="#FF4568"/>
<path d="M703.576 0H0V450.601H703.576V0Z" fill="#032B4D"/>
<path d="M21.9111 20.4227C24.9707 20.4227 27.451 17.9424 27.451 14.8827C27.451 11.8231 24.9707 9.34277 21.9111 9.34277C18.8514 9.34277 16.3711 11.8231 16.3711 14.8827C16.3711 17.9424 18.8514 20.4227 21.9111 20.4227Z" fill="#FDCA05"/>
<path d="M42.9384 20.4227C45.998 20.4227 48.4784 17.9424 48.4784 14.8827C48.4784 11.8231 45.998 9.34277 42.9384 9.34277C39.8788 9.34277 37.3984 11.8231 37.3984 14.8827C37.3984 17.9424 39.8788 20.4227 42.9384 20.4227Z" fill="#FDCA05"/>
<path d="M63.9697 20.4227C67.0293 20.4227 69.5096 17.9424 69.5096 14.8827C69.5096 11.8231 67.0293 9.34277 63.9697 9.34277C60.91 9.34277 58.4297 11.8231 58.4297 14.8827C58.4297 17.9424 60.91 20.4227 63.9697 20.4227Z" fill="#FDCA05"/>
<path d="M544.717 184.813H424.215V191.731H544.717V184.813Z" fill="#E6E6E6"/>
<path d="M610.296 210.046H424.215V216.963H610.296V210.046Z" fill="#6C63FF"/>
<path d="M575.867 233.818H424.215V240.736H575.867V233.818Z" fill="#E6E6E6"/>
<path d="M512.747 257.501H424.215V264.418H512.747V257.501Z" fill="#E6E6E6"/>
<path d="M557.833 281.184H424.215V288.101H557.833V281.184Z" fill="#E6E6E6"/>
<path d="M384.048 182.354H369.293V197.11H384.048V182.354Z" fill="#E6E6E6"/>
<path d="M384.048 206.127H369.293V220.882H384.048V206.127Z" fill="#6C63FF"/>
<path d="M384.048 229.899H369.293V244.655H384.048V229.899Z" fill="#E6E6E6"/>
<path d="M384.048 253.672H369.293V268.427H384.048V253.672Z" fill="#E6E6E6"/>
<path d="M384.048 277.444H369.293V292.2H384.048V277.444Z" fill="#E6E6E6"/>
<path d="M562.37 277.089H529.068C526.795 263.951 526.795 250.52 529.068 237.382H562.37C558.618 250.352 558.618 264.119 562.37 277.089V277.089Z" fill="#FDCA05"/>
<path d="M184.056 309.704C233.469 309.704 273.526 269.647 273.526 220.234C273.526 170.821 233.469 130.764 184.056 130.764C134.643 130.764 94.5859 170.821 94.5859 220.234C94.5859 269.647 134.643 309.704 184.056 309.704Z" fill="#FF4568"/>
<path d="M189.059 135.812H179.059V125.812H189.059V135.812ZM181.059 133.812H187.059V127.812H181.059V133.812Z" fill="white"/>
<path d="M240.293 129.812H187.293V131.812H240.293V129.812Z" fill="white"/>
<path d="M240.294 132.895C241.444 132.895 242.376 131.963 242.376 130.813C242.376 129.662 241.444 128.73 240.294 128.73C239.143 128.73 238.211 129.662 238.211 130.813C238.211 131.963 239.143 132.895 240.294 132.895Z" fill="white"/>
<path d="M180.293 129.812H128.293V131.812H180.293V129.812Z" fill="white"/>
<path d="M128.294 132.895C129.444 132.895 130.376 131.963 130.376 130.813C130.376 129.662 129.444 128.73 128.294 128.73C127.143 128.73 126.211 129.662 126.211 130.813C126.211 131.963 127.143 132.895 128.294 132.895Z" fill="white"/>
<path d="M278.293 224.998H268.293V214.998H278.293V224.998ZM270.293 222.998H276.293V216.998H270.293V222.998Z" fill="white"/>
<path d="M274.293 224.233H272.293V276.233H274.293V224.233Z" fill="white"/>
<path d="M273.294 278.316C274.444 278.316 275.376 277.384 275.376 276.234C275.376 275.083 274.444 274.151 273.294 274.151C272.143 274.151 271.211 275.083 271.211 276.234C271.211 277.384 272.143 278.316 273.294 278.316Z" fill="white"/>
<path d="M274.293 164.233H272.293V216.233H274.293V164.233Z" fill="white"/>
<path d="M273.294 166.316C274.444 166.316 275.376 165.384 275.376 164.234C275.376 163.083 274.444 162.151 273.294 162.151C272.143 162.151 271.211 163.083 271.211 164.234C271.211 165.384 272.143 166.316 273.294 166.316Z" fill="white"/>
<path d="M99.293 224.998H89.293V214.998H99.293V224.998ZM91.293 222.998H97.293V216.998H91.293V222.998Z" fill="white"/>
<path d="M95.293 224.233H93.293V276.233H95.293V224.233Z" fill="white"/>
<path d="M94.2937 278.316C95.444 278.316 96.3764 277.384 96.3764 276.234C96.3764 275.083 95.444 274.151 94.2937 274.151C93.1434 274.151 92.2109 275.083 92.2109 276.234C92.2109 277.384 93.1434 278.316 94.2937 278.316Z" fill="white"/>
<path d="M95.293 162.233H93.293V216.233H95.293V162.233Z" fill="white"/>
<path d="M94.2937 166.316C95.444 166.316 96.3764 165.384 96.3764 164.234C96.3764 163.083 95.444 162.151 94.2937 162.151C93.1434 162.151 92.2109 163.083 92.2109 164.234C92.2109 165.384 93.1434 166.316 94.2937 166.316Z" fill="white"/>
<path d="M189.059 314.812H179.059V304.812H189.059V314.812ZM181.059 312.812H187.059V306.812H181.059V312.812Z" fill="white"/>
<path d="M241.293 308.812H188.293V310.812H241.293V308.812Z" fill="white"/>
<path d="M240.294 311.895C241.444 311.895 242.376 310.963 242.376 309.813C242.376 308.662 241.444 307.73 240.294 307.73C239.143 307.73 238.211 308.662 238.211 309.813C238.211 310.963 239.143 311.895 240.294 311.895Z" fill="white"/>
<path d="M180.293 308.812H128.293V310.812H180.293V308.812Z" fill="white"/>
<path d="M128.294 311.895C129.444 311.895 130.376 310.963 130.376 309.813C130.376 308.662 129.444 307.73 128.294 307.73C127.143 307.73 126.211 308.662 126.211 309.813C126.211 310.963 127.143 311.895 128.294 311.895Z" fill="white"/>
<path d="M233.761 355.659H194.992C192.346 340.364 192.346 324.729 194.992 309.435H233.761C229.393 324.533 229.393 340.56 233.761 355.659V355.659Z" fill="#E6E6E6"/>
<path d="M746.89 346.116L737.812 379.833C737.812 379.833 733.273 407.066 741.054 407.715C748.835 408.363 746.89 380.482 746.89 380.482L761.803 357.139L746.89 346.116Z" fill="#FBBEBE"/>
<path d="M814.32 363.748V353.184L752.733 349.034L742.996 411.283C742.996 411.283 741.699 473.342 746.238 505.032C750.777 536.722 759.854 610.665 759.854 610.665H801.352L790.978 456.837L837.663 610.665L886.293 604.724L829.882 423.166C829.882 423.166 830.53 389.496 814.32 363.748Z" fill="#032B4D"/>
<path d="M765.043 603.533L762.449 623.633L758.559 637.898C758.559 637.898 740.404 641.789 751.427 648.273C762.449 654.757 772.824 648.273 772.824 648.273L781.253 636.601V656.702H794.221V628.172L784.495 606.775L765.043 603.533Z" fill="#2F2E41"/>
<path d="M845.445 603.533L842.852 623.633L838.961 637.898C838.961 637.898 820.806 641.789 831.829 648.273C842.852 654.757 853.226 648.273 853.226 648.273L861.656 636.601V656.702H874.624V628.172L864.898 606.775L845.445 603.533Z" fill="#2F2E41"/>
<path d="M788.71 240.751C800.885 240.751 810.756 230.88 810.756 218.705C810.756 206.529 800.885 196.659 788.71 196.659C776.534 196.659 766.664 206.529 766.664 218.705C766.664 230.88 776.534 240.751 788.71 240.751Z" fill="#FBBEBE"/>
<path d="M803.3 228.107L821.456 250.152L799.41 258.582L789.035 237.833L803.3 228.107Z" fill="#FBBEBE"/>
<path d="M792.275 251.449L795.41 250.587C795.41 250.587 811.727 240.426 816.266 241.075C820.805 241.723 835.07 255.988 832.476 275.44C829.883 294.892 835.07 367.514 824.695 364.92C814.321 362.326 811.079 360.381 811.079 360.381L798.759 354.545L787.088 357.787C787.088 357.787 779.955 353.249 774.12 354.545C768.284 355.842 749.48 349.358 749.48 349.358L792.275 251.449Z" fill="#FDCA05"/>
<path d="M796.88 253.528C796.88 253.528 782.224 246.586 775.74 256.961C769.256 267.335 751.101 322.45 751.101 322.45L742.672 347.737L763.421 360.057L804.27 284.842C804.27 284.842 810.24 262.416 796.88 253.528Z" fill="#FDCA05"/>
<path d="M786.407 222.143C785.021 220.01 785.722 217.11 784.75 214.76C783.224 211.069 778.481 210.204 774.502 209.867C771.865 209.529 769.196 209.536 766.562 209.889C765.397 210.082 764.294 210.544 763.338 211.237C762.382 211.929 761.601 212.835 761.055 213.881C760.466 215.062 760.614 211.362 760.992 206.613C761.374 201.766 763.284 197.166 766.448 193.475C769.612 189.784 773.867 187.193 778.598 186.075C778.654 186.061 778.71 186.048 778.765 186.036C783.61 184.918 788.607 184.095 793.545 184.676C798.484 185.256 803.406 187.388 806.488 191.29C807.897 193.073 808.893 195.176 810.466 196.817C813.229 199.7 817.324 200.749 821.087 202.087C825.4 203.478 829.37 205.768 832.733 208.806C836.107 211.889 838.129 216.178 838.362 220.743C838.442 226.01 835.091 231.446 829.692 232.484C828.753 232.648 827.866 233.031 827.103 233.601C821.948 237.599 827.829 241.783 827.788 246.283C827.754 250.038 823.574 252.485 819.823 252.66C816.316 252.723 812.897 251.564 810.151 249.383C807.404 247.201 805.502 244.132 804.771 240.702C804.205 237.621 804.642 234.456 805.01 231.344C805.431 227.783 797.761 219.397 802.828 225.544C803.817 226.712 804.484 228.118 804.765 229.622C805.608 234.533 801.139 236.184 798.322 238.905C796.774 240.444 795.689 242.386 795.19 244.51C794.69 246.635 794.796 248.856 795.495 250.924C793.171 248.819 791.655 245.968 791.209 242.865C790.762 239.762 791.413 236.6 793.049 233.925C793.956 232.533 795.126 231.321 795.987 229.9C797.33 227.682 797.7 222.857 793.941 222.989C791.257 223.084 788.47 225.318 786.407 222.143Z" fill="#2F2E41"/>
<path opacity="0.2" d="M796.491 306.888L766.664 354.088L794.894 302.109L796.491 306.888Z" fill="black"/>
<path d="M601.748 603.889H552.738V652.899H601.748V603.889Z" fill="#6C63FF"/>
<path d="M610.052 631.888H585.594V656.346H610.052V631.888Z" fill="#E6E6E6"/>
<path d="M682.789 426.801H20.7891V31.8008H682.789V426.801ZM22.7891 424.801H680.789V33.8008H22.7891V424.801Z" fill="#E6E6E6"/>
</g>
<defs>
<clipPath id="clip0">
<rect width="886.295" height="670.668" fill="white"/>
</clipPath>
</defs>
</svg>
