<svg width="1021" height="745" viewBox="0 0 1021 745" fill="none" xmlns="http://www.w3.org/2000/svg">
<path d="M505.5 745C711.226 745 878 578.226 878 372.5C878 166.774 711.226 0 505.5 0C299.774 0 133 166.774 133 372.5C133 578.226 299.774 745 505.5 745Z" fill="#FF4568" fill-opacity="0.4"/>
<path d="M525.5 745C731.226 745 898 578.226 898 372.5C898 166.774 731.226 0 525.5 0C319.774 0 153 166.774 153 372.5C153 578.226 319.774 745 525.5 745Z" fill="#FF4568" fill-opacity="0.4"/>
<path d="M257.758 734.197L231.266 660.018C231.266 660.018 260.407 674.589 261.732 693.134C261.732 693.134 255.109 600.411 241.862 580.542C241.862 580.542 263.056 583.191 286.899 686.511C286.899 686.511 290.873 567.295 255.109 532.855C255.109 532.855 304.119 572.594 308.093 658.694V734.197H257.758Z" fill="#009688"/>
<path d="M257.758 734.197L231.266 660.018C231.266 660.018 260.407 674.589 261.732 693.134C261.732 693.134 255.109 600.411 241.862 580.542C241.862 580.542 263.056 583.191 286.899 686.511C286.899 686.511 290.873 567.295 255.109 532.855C255.109 532.855 304.119 572.594 308.093 658.694V734.197H257.758Z" fill="#009688"/>
<path d="M297.758 734.197L271.266 660.018C271.266 660.018 300.407 674.589 301.732 693.134C301.732 693.134 295.109 600.411 281.862 580.542C281.862 580.542 303.056 583.191 326.899 686.511C326.899 686.511 330.873 567.295 295.109 532.855C295.109 532.855 344.119 572.594 348.093 658.694V734.197H297.758Z" fill="#009688"/>
<path d="M297.758 734.197L271.266 660.018C271.266 660.018 300.407 674.589 301.732 693.134C301.732 693.134 295.109 600.411 281.862 580.542C281.862 580.542 303.056 583.191 326.899 686.511C326.899 686.511 330.873 567.295 295.109 532.855C295.109 532.855 344.119 572.594 348.093 658.694V734.197H297.758Z" fill="#009688"/>
<path d="M776.589 734.197L770.219 716.361C770.219 716.361 777.226 719.865 777.544 724.323C777.544 724.323 775.952 702.029 772.767 697.252C772.767 697.252 777.863 697.889 783.595 722.731C783.595 722.731 784.551 694.067 775.952 685.786C775.952 685.786 787.736 695.341 788.691 716.043V734.197L776.589 734.197Z" fill="#F2F2F2"/>
<path d="M274.677 131.834H0V284.433H274.677V131.834Z" fill="#032B4D" fill-opacity="0.68"/>
<path d="M647.337 131.834H372.66V284.433H647.337V131.834Z" fill="#032B4D" fill-opacity="0.65"/>
<path d="M1020 131.834H745.324V284.433H1020V131.834Z" fill="#032B4D" fill-opacity="0.61"/>
<path d="M706.087 734.616C705.903 734.315 701.557 727.058 700.05 711.99C698.668 698.165 699.557 674.863 711.642 642.358C734.536 580.78 706.366 531.095 706.078 530.6L707.468 529.794C707.541 529.919 714.81 542.587 719.104 562.758C724.778 589.501 722.712 617.307 713.148 642.918C690.293 704.391 707.284 733.492 707.458 733.779L706.087 734.616Z" fill="#3F3D56"/>
<path d="M697.132 526.984C702.899 526.984 707.573 522.31 707.573 516.543C707.573 510.777 702.899 506.103 697.132 506.103C691.366 506.103 686.691 510.777 686.691 516.543C686.691 522.31 691.366 526.984 697.132 526.984Z" fill="#FDCA05"/>
<path d="M730.062 565.535C735.828 565.535 740.503 560.861 740.503 555.094C740.503 549.328 735.828 544.653 730.062 544.653C724.296 544.653 719.621 549.328 719.621 555.094C719.621 560.861 724.296 565.535 730.062 565.535Z" fill="#032B4D"/>
<path d="M707.574 591.236C713.34 591.236 718.015 586.562 718.015 580.795C718.015 575.029 713.34 570.354 707.574 570.354C701.807 570.354 697.133 575.029 697.133 580.795C697.133 586.562 701.807 591.236 707.574 591.236Z" fill="#FDCA05"/>
<path d="M734.882 612.921C740.649 612.921 745.323 608.247 745.323 602.48C745.323 596.714 740.649 592.04 734.882 592.04C729.116 592.04 724.441 596.714 724.441 602.48C724.441 608.247 729.116 612.921 734.882 612.921Z" fill="#FDCA05"/>
<path d="M699.543 646.653C705.309 646.653 709.983 641.979 709.983 636.212C709.983 630.446 705.309 625.771 699.543 625.771C693.776 625.771 689.102 630.446 689.102 636.212C689.102 641.979 693.776 646.653 699.543 646.653Z" fill="#032B4D"/>
<path d="M712.393 735C712.393 735 701.952 709.299 733.275 690.023L712.393 735Z" fill="#3F3D56"/>
<path d="M699.553 734.534C699.553 734.534 694.801 707.203 658.023 707.438L699.553 734.534Z" fill="#3F3D56"/>
<path d="M274.276 123H0.402344V136.654H274.276V123Z" fill="#FDCA05"/>
<path d="M647.74 123H373.062V136.654H647.74V123Z" fill="#FDCA05"/>
<path d="M1019.6 123H745.723V136.654H1019.6V123Z" fill="#FDCA05"/>
<path d="M70.6781 157.937H20.8828V193.276H70.6781V157.937Z" fill="white"/>
<path d="M253.796 157.937H116.457V161.953H253.796V157.937Z" fill="white"/>
<path d="M253.796 174H116.457V178.016H253.796V174Z" fill="white"/>
<path d="M253.796 190.063H116.457V194.079H253.796V190.063Z" fill="white"/>
<path d="M443.338 157.937H393.543V193.276H443.338V157.937Z" fill="#FF4568"/>
<path d="M626.456 157.937H489.117V161.953H626.456V157.937Z" fill="white"/>
<path d="M626.456 174H489.117V178.016H626.456V174Z" fill="white"/>
<path d="M626.456 190.063H489.117V194.079H626.456V190.063Z" fill="white"/>
<path d="M815.998 157.937H766.203V193.276H815.998V157.937Z" fill="white"/>
<path d="M999.12 157.937H861.781V161.953H999.12V157.937Z" fill="white"/>
<path d="M999.12 174H861.781V178.016H999.12V174Z" fill="white"/>
<path d="M999.12 190.063H861.781V194.079H999.12V190.063Z" fill="white"/>
<path d="M45.7778 192.071C54.6492 192.071 61.8408 184.879 61.8408 176.008C61.8408 167.136 54.6492 159.945 45.7778 159.945C36.9065 159.945 29.7148 167.136 29.7148 176.008C29.7148 184.879 36.9065 192.071 45.7778 192.071Z" fill="#FF4568"/>
<path d="M791.102 192.071C799.973 192.071 807.165 184.879 807.165 176.008C807.165 167.136 799.973 159.945 791.102 159.945C782.231 159.945 775.039 167.136 775.039 176.008C775.039 184.879 782.231 192.071 791.102 192.071Z" fill="#FF4568"/>
<path d="M128.321 284.433H126.715V289.252H128.321V284.433Z" fill="#3F3D56"/>
<path d="M128.321 482.008H126.715V472.37H128.321V482.008ZM128.321 462.732H126.715V453.094H128.321V462.732ZM128.321 443.457H126.715V433.819H128.321V443.457ZM128.321 424.181H126.715V414.543H128.321V424.181ZM128.321 404.905H126.715V395.268H128.321V404.905ZM128.321 385.63H126.715V375.992H128.321V385.63ZM128.321 366.354H126.715V356.716H128.321V366.354ZM128.321 347.079H126.715V337.441H128.321V347.079ZM128.321 327.803H126.715V318.165H128.321V327.803ZM128.321 308.527H126.715V298.89H128.321V308.527Z" fill="#3F3D56"/>
<path d="M132.337 497.268H126.715V491.646H128.321V495.661H132.337V497.268Z" fill="#3F3D56"/>
<path d="M868.162 497.268H858.48V495.662H868.162V497.268ZM848.799 497.268H839.117V495.662H848.799V497.268ZM829.435 497.268H819.753V495.662H829.435V497.268ZM810.071 497.268H800.389V495.662H810.071V497.268ZM790.708 497.268H781.025V495.662H790.708V497.268ZM771.343 497.268H761.662V495.662H771.343V497.268ZM751.98 497.268H742.297V495.662H751.98V497.268ZM732.616 497.268H722.934V495.662H732.616V497.268ZM713.252 497.268H703.57V495.662H713.252V497.268ZM693.888 497.268H684.206V495.662H693.888L693.888 497.268ZM674.525 497.268H664.842V495.662H674.525V497.268ZM655.16 497.268H645.479V495.662H655.16V497.268ZM635.797 497.268H626.114V495.662H635.797V497.268ZM616.433 497.268H606.751V495.662H616.433V497.268ZM597.069 497.268H587.387V495.662H597.069V497.268ZM577.705 497.268H568.023V495.662H577.705V497.268ZM558.342 497.268H548.659V495.662H558.342V497.268ZM538.977 497.268H529.296V495.662H538.977V497.268ZM519.614 497.268H509.932V495.662H519.614V497.268ZM500.25 497.268H490.568V495.662H500.25V497.268ZM480.886 497.268H471.204V495.662H480.886V497.268ZM461.523 497.268H451.84V495.662H461.523V497.268ZM442.159 497.268H432.477V495.662H442.159V497.268ZM422.795 497.268H413.113V495.662H422.795V497.268ZM403.431 497.268H393.749V495.662H403.431V497.268ZM384.067 497.268H374.385V495.662H384.067V497.268ZM364.703 497.268H355.021V495.662H364.703V497.268ZM345.34 497.268H335.657V495.662H345.34V497.268ZM325.976 497.268H316.294V495.662H325.976V497.268ZM306.612 497.268H296.93V495.662H306.612V497.268ZM287.248 497.268H277.566V495.662H287.248V497.268ZM267.884 497.268H258.203V495.662H267.884V497.268ZM248.52 497.268H238.839V495.662H248.52V497.268ZM229.157 497.268H219.475V495.662H229.157V497.268ZM209.793 497.268H200.111V495.662H209.793V497.268ZM190.429 497.268H180.747V495.662H190.429V497.268ZM171.065 497.268H161.383V495.662H171.065V497.268ZM151.701 497.268H142.02V495.662H151.701L151.701 497.268Z" fill="#3F3D56"/>
<path d="M883.466 497.268H877.844V495.661H881.859V491.646H883.466V497.268Z" fill="#3F3D56"/>
<path d="M883.466 482.008H881.859V472.37H883.466V482.008ZM883.466 462.732H881.859V453.094H883.466V462.732ZM883.466 443.457H881.859V433.819H883.466V443.457ZM883.466 424.181H881.859V414.543H883.466V424.181ZM883.466 404.905H881.859V395.268H883.466V404.905ZM883.466 385.63H881.859V375.992H883.466V385.63ZM883.466 366.354H881.859V356.716H883.466V366.354ZM883.466 347.079H881.859V337.441H883.466V347.079ZM883.466 327.803H881.859V318.165H883.466V327.803ZM883.466 308.527H881.859V298.89H883.466V308.527Z" fill="#3F3D56"/>
<path d="M883.466 284.433H881.859V289.252H883.466V284.433Z" fill="#3F3D56"/>
<path d="M647.337 448.275H372.66V734.197H647.337V448.275Z" fill="#032B4D"/>
<path d="M443.338 485.622H393.543V520.961H443.338V485.622Z" fill="white"/>
<path d="M626.456 485.622H489.117V489.638H626.456V485.622Z" fill="white"/>
<path d="M626.456 501.685H489.117V505.701H626.456V501.685Z" fill="white"/>
<path d="M626.456 517.748H489.117V521.764H626.456V517.748Z" fill="white"/>
<path d="M443.338 612.921H393.543V648.26H443.338V612.921Z" fill="white"/>
<path d="M626.456 612.921H489.117V616.937H626.456V612.921Z" fill="white"/>
<path d="M626.456 628.984H489.117V633H626.456V628.984Z" fill="white"/>
<path d="M626.456 645.047H489.117V649.063H626.456V645.047Z" fill="white"/>
<path d="M418.65 512.229L401.605 489.503L405.643 486.475L419.528 504.989L454.921 476.324L458.117 480.23L418.65 512.229Z" fill="#FDCA05"/>
<path d="M418.65 638.324L401.605 615.598L405.643 612.57L419.528 631.083L454.921 602.418L458.117 606.325L418.65 638.324Z" fill="#FDCA05"/>
<path d="M544.574 293.268C544.574 293.268 571.078 281.719 583.527 293.918C595.976 306.118 550.196 302.102 544.574 293.268Z" fill="#3F3D56"/>
<path d="M590.338 238.497C581.431 223.447 563.81 222.746 563.81 222.746C563.81 222.746 546.639 220.55 535.624 243.471C525.357 264.835 511.187 285.463 533.343 290.464L537.344 278.008L539.823 291.391C542.977 291.618 546.142 291.672 549.302 291.553C573.029 290.787 595.625 291.777 594.898 283.263C593.93 271.945 598.908 252.978 590.338 238.497Z" fill="#2F2E41"/>
<path d="M602.802 511.323C602.802 511.323 591.558 532.205 584.33 532.205C577.102 532.205 577.905 545.858 579.511 549.071C581.117 552.283 585.133 559.512 578.708 569.953C576.464 573.6 576.865 577.737 578.338 581.576C582.464 592.335 598.516 589.075 598.004 577.564C597.998 577.437 597.992 577.31 597.983 577.181C597.18 564.331 603.606 544.252 610.031 539.433C616.456 534.614 622.078 521.764 622.078 521.764L602.802 511.323Z" fill="#FFB8B8"/>
<path d="M525.701 506.504C525.701 506.504 536.945 527.386 544.174 527.386C551.402 527.386 550.599 541.039 548.993 544.252C547.386 547.464 543.371 554.693 549.796 565.134C552.04 568.781 551.639 572.918 550.166 576.758C546.039 587.516 529.988 584.256 530.5 572.745C530.505 572.618 530.512 572.491 530.52 572.362C531.323 559.512 524.898 539.433 518.473 534.614C512.048 529.795 506.426 516.945 506.426 516.945L525.701 506.504Z" fill="#FFB8B8"/>
<path d="M534.535 403.701L529.716 414.142C529.716 414.142 459.039 437.433 465.464 464.74C471.889 492.047 503.212 534.614 508.031 533.008C512.85 531.402 538.55 526.583 539.353 512.929C540.157 499.276 520.881 475.181 520.881 475.181L547.385 451.087L585.953 450.284L618.865 475.181C618.865 475.181 584.33 505.701 599.59 517.748C614.85 529.795 637.338 537.827 640.55 533.008C643.763 528.189 679.905 456.709 674.283 450.284C668.661 443.858 611.637 419.764 611.637 419.764L596.377 398.079L536.944 394.866L534.535 403.701Z" fill="#2F2E41"/>
<path d="M548.991 271.181C548.991 271.181 553.007 297.685 544.975 300.898C536.944 304.11 561.038 317.764 561.038 317.764H574.692L583.526 299.291C583.526 299.291 575.495 284.835 580.314 271.181C585.132 257.527 548.991 271.181 548.991 271.181Z" fill="#FFB8B8"/>
<path opacity="0.1" d="M548.991 271.181C548.991 271.181 553.007 297.685 544.975 300.898C536.944 304.11 561.038 317.764 561.038 317.764H574.692L583.526 299.291C583.526 299.291 575.495 284.835 580.314 271.181C585.132 257.527 548.991 271.181 548.991 271.181Z" fill="black"/>
<path d="M544.203 395.899L540.434 302.42L542.845 300.49C543.313 300.998 543.808 301.535 544.312 302.081C546.677 304.643 549.379 307.555 550.273 308.449C550.319 308.495 550.381 308.561 550.46 308.644C551.385 309.623 554.54 312.963 559.731 314.028C565.642 315.241 572.776 313.358 581.124 306.329C584.627 303.378 586.763 302.561 587.785 302.393C588.412 302.291 588.525 302.418 588.585 302.484C588.591 302.491 588.597 302.498 588.602 302.503C588.886 302.775 589.237 303.368 589.512 304.238C589.634 304.623 589.711 304.968 589.756 305.207C589.761 305.231 589.765 305.255 589.769 305.276V394.597C589.145 394.469 588.49 394.349 587.807 394.243C582.762 393.458 575.683 393.348 569.107 396.889C567.458 397.777 565.02 398.314 561.892 398.415C558.827 398.514 555.484 398.184 552.309 397.663C549.155 397.145 546.288 396.459 544.203 395.899Z" fill="#FDCA05" stroke="black" stroke-width="10"/>
<path d="M549.268 293.669C549.268 293.669 541.762 290.456 535.337 293.669C528.912 296.882 506.424 312.945 508.03 320.173C509.636 327.401 530.518 378 516.061 402.094C501.605 426.189 499.195 432.614 499.195 432.614L534.534 414.141C534.534 414.141 561.841 397.275 559.432 386.834C557.022 376.393 549.268 293.669 549.268 293.669Z" fill="black"/>
<path d="M581.128 293.669C581.128 293.669 597.985 295.276 598.788 296.882C599.591 298.488 624.087 305.315 622.481 312.543C620.875 319.772 598.788 384.425 608.426 396.473C618.064 408.52 634.127 425.386 628.504 426.992C622.882 428.599 613.245 424.583 603.607 426.992C593.969 429.402 571.481 409.323 573.89 387.638C576.3 365.953 573.909 299.291 581.128 293.669Z" fill="black"/>
<path d="M540.961 447.071V455.102C540.961 455.102 536.945 473.575 549.796 472.772C562.646 471.969 554.615 450.284 554.615 450.284L553.812 443.055L540.961 447.071Z" fill="#FFB8B8"/>
<path d="M577.102 447.874C577.102 447.874 568.268 466.346 577.102 467.953C585.937 469.559 592.362 457.512 592.362 454.299C592.362 451.087 577.102 447.874 577.102 447.874Z" fill="#FFB8B8"/>
<path d="M588.747 263.551C589.634 263.551 590.353 262.113 590.353 260.339C590.353 258.564 589.634 257.126 588.747 257.126C587.86 257.126 587.141 258.564 587.141 260.339C587.141 262.113 587.86 263.551 588.747 263.551Z" fill="#FFB8B8"/>
<path d="M541.36 263.551C542.247 263.551 542.967 262.113 542.967 260.339C542.967 258.564 542.247 257.126 541.36 257.126C540.473 257.126 539.754 258.564 539.754 260.339C539.754 262.113 540.473 263.551 541.36 263.551Z" fill="#FFB8B8"/>
<path d="M602.804 304.11C602.804 304.11 622.883 304.11 622.08 312.142C621.276 320.173 594.772 458.315 594.772 458.315C594.772 458.315 583.528 447.874 573.891 450.284L602.804 304.11Z" fill="black"/>
<path d="M524.895 306.52C524.895 306.52 504.816 310.535 504.816 322.583C504.816 334.63 533.73 450.283 537.746 450.283C541.761 450.283 557.021 447.874 557.021 443.858C557.021 439.842 524.895 306.52 524.895 306.52Z" fill="black"/>
<path opacity="0.2" d="M529.312 330.212L547.383 400.882C547.383 400.882 538.95 339.047 529.312 330.212Z" fill="black"/>
<path opacity="0.2" d="M599.604 320.283L581.328 412.68C581.328 412.68 587.169 325.613 599.604 320.283Z" fill="black"/>
<path d="M565.053 284.031C577.917 284.031 588.344 273.604 588.344 260.74C588.344 247.877 577.917 237.449 565.053 237.449C552.19 237.449 541.762 247.877 541.762 260.74C541.762 273.604 552.19 284.031 565.053 284.031Z" fill="#FFB8B8"/>
<path d="M586.401 237.046L568.992 227.927L544.951 231.657L539.977 253.626L552.359 253.15L555.818 245.079V253.017L561.531 252.797L564.847 239.947L566.92 253.626L587.23 253.212L586.401 237.046Z" fill="#2F2E41"/>
</svg>
