<svg width="1092" height="829" viewBox="0 0 1092 829" fill="none" xmlns="http://www.w3.org/2000/svg">
<g clip-path="url(#clip0)">
<path opacity="0.4" d="M1077.89 239.01C1077.7 239.9 1077.52 240.79 1077.31 241.67C1070.75 271.92 1060.03 301.07 1044.09 327.84C1043.56 328.73 1043.03 329.62 1042.49 330.51C1031.98 347.734 1019.4 363.608 1005.04 377.78C997.099 385.62 988.439 393.07 978.139 398.44C963.709 405.98 946.839 409.04 930.259 411.54C913.039 414.15 895.579 416.33 878.169 418.68C871.982 419.5 865.832 420.37 859.719 421.29C842.899 423.78 826.199 426.66 809.899 430.48C789.749 435.19 770.219 441.36 751.769 450.04C750.295 450.707 748.839 451.413 747.399 452.16C745.959 452.88 744.509 453.61 743.089 454.35C741.669 455.09 740.269 455.83 738.879 456.59C738.159 456.98 737.439 457.37 736.729 457.78C736.019 458.19 735.319 458.55 734.629 458.95C732.549 460.11 730.509 461.3 728.469 462.5L728.389 462.55C727.039 463.34 725.709 464.15 724.389 464.96C716.849 469.54 709.469 474.32 702.089 479.13L697.449 482.13L690.259 486.78C688.859 487.69 687.429 488.6 686.019 489.5C685.019 490.16 684.019 490.82 682.929 491.5C677.689 494.8 672.379 498.04 666.929 501.13C665.639 501.87 664.339 502.61 663.029 503.33C652.018 509.473 640.502 514.665 628.609 518.85L628.449 518.91C622.465 520.997 616.36 522.72 610.169 524.07C606.599 524.85 603.019 525.49 599.399 525.98C589.722 527.352 579.91 527.49 570.199 526.39C551.129 524.18 533.259 516.86 514.199 514.39C474.959 509.39 436.849 525.5 399.949 538.12C390.875 541.22 381.735 544.123 372.529 546.83C366.409 548.64 360.269 550.35 354.079 552C316.154 562.02 277.449 568.807 238.379 572.29C222.046 573.89 205.616 574.255 189.229 573.38C182.999 573 176.839 572.38 170.789 571.38C150.089 568.18 130.789 561.47 115.209 549.18C102.449 539.09 93.3185 525.94 86.3685 512.18C79.2541 498.139 74.231 483.134 71.4585 467.64C71.0785 465.53 70.7385 463.41 70.4585 461.29C69.9585 457.663 69.5852 454.017 69.3385 450.35C67.993 430.806 70.3267 411.183 76.2185 392.5C82.8185 371.58 93.8185 351.5 98.6585 330.42C98.8585 329.527 99.0485 328.637 99.2285 327.75C99.8896 324.548 100.38 321.314 100.699 318.06C103.169 292.16 93.6985 266.91 86.2685 241.58C86.0085 240.7 85.7485 239.81 85.4985 238.92C84.6985 236.107 83.9319 233.297 83.1985 230.49C76.3185 203.71 74.4085 175.04 80.5385 148.31C80.7285 147.42 80.9585 146.53 81.1785 145.65C85.2824 128.754 92.9995 112.947 103.799 99.3199C115.279 84.9199 130.349 72.9299 146.449 62.3999C154.295 57.2666 162.409 52.4699 170.789 48.0099C176.789 44.8099 182.935 41.7799 189.229 38.9199C239.679 15.9199 297.229 4.68994 354.139 7.16994C357.139 7.29994 360.139 7.45993 363.139 7.67993C366.139 7.89993 369.419 8.15993 372.559 8.44993C409.219 12.0099 444.889 20.5999 480.309 29.9899C492.179 33.1399 504.029 36.3699 515.869 39.5399C521.139 40.9399 526.399 42.3399 531.669 43.6999C557.479 50.3699 583.669 56.4099 610.189 60.9199C616.329 61.9799 622.475 62.9466 628.629 63.8199C649.993 66.9598 671.53 68.7866 693.119 69.2899C701.512 69.4566 709.909 69.3833 718.309 69.0699C722.549 68.9166 726.792 68.6866 731.039 68.3799C774.889 65.2899 817.269 54.9499 859.719 45.2899C865.859 43.8899 872.009 42.5099 878.169 41.1499C886.249 39.3699 894.329 37.6499 902.449 36.0599C952.979 26.1299 998.019 31.8399 1045 52.3299C1055.68 56.9799 1066.35 62.5999 1072.89 71.3299C1079.43 80.0599 1081.07 90.7799 1082.29 101.13C1084.02 115.87 1085.15 130.8 1085.58 145.81C1085.58 146.69 1085.58 147.58 1085.64 148.47C1086.32 178.79 1084.06 209.4 1077.89 239.01Z" fill="#FF4568"/>
<path opacity="0.5" d="M742.709 327.84H739.409V329.02V330.51H743.149L742.709 327.84ZM705.279 327.84C705.274 327.863 705.274 327.887 705.279 327.91C705.189 328.64 705.089 329.37 704.989 330.11V330.31V330.51H733.589V330.35L735.589 327.84H705.279ZM628.629 327.84V241.67H661.529C661.179 241.44 660.819 241.2 660.449 240.98L659.969 240.67L659.349 240.29C658.989 240.08 658.629 239.87 658.249 239.67C657.869 239.47 657.639 239.33 657.319 239.16L657.099 239.04H657.049H628.629V234.29L627.859 234.59L627.049 234.97H626.989L626.819 235.06L626.309 235.33L625.799 235.6C625.299 235.87 624.799 236.17 624.299 236.48L623.819 236.8L622.819 237.44C621.529 238.3 620.259 239.2 618.949 240.04C618.619 240.25 618.289 240.46 617.949 240.65C617.239 241.07 616.509 241.47 615.759 241.83C615.439 241.99 615.129 242.13 614.759 242.26L614.219 242.47L613.719 242.64C612.546 243.048 611.342 243.362 610.119 243.58V327.82H560.789C560.789 327.92 560.859 328 560.889 328.1C561.159 328.9 561.429 329.69 561.689 330.49H610.189V422.85C610.442 422.85 610.692 422.85 610.939 422.85L611.809 422.9L613.379 422.99L615.889 423.29L617.039 423.4L618.289 423.53H618.479L620.689 423.8L621.159 423.86L622.229 424.01L623.759 424.23L627.429 424.07L627.929 424.16C628.129 424.16 628.339 424.22 628.549 424.26V330.51H704.889V330.31V330.11C704.989 329.37 705.089 328.64 705.179 327.91C705.174 327.887 705.174 327.863 705.179 327.84H628.629ZM742.709 327.84H739.409V329.02V330.51H743.149L742.709 327.84ZM703.219 327.84C703.099 328.73 702.989 329.62 702.869 330.51H734.759L736.929 327.84H703.219ZM628.629 327.84V241.67H661.529C661.179 241.44 660.819 241.2 660.449 240.98L659.969 240.67L659.349 240.29C658.989 240.08 658.629 239.87 658.249 239.67C657.869 239.47 657.639 239.33 657.319 239.16L657.099 239.04H657.029H628.629V234.29L627.859 234.59L627.049 234.97H626.989L626.819 235.06L626.309 235.33L625.799 235.6C625.299 235.87 624.799 236.17 624.299 236.48L623.819 236.8L622.819 237.44C621.529 238.3 620.259 239.2 618.949 240.04C618.619 240.25 618.289 240.46 617.949 240.65C617.239 241.07 616.509 241.47 615.759 241.83C615.439 241.99 615.129 242.13 614.759 242.26L614.219 242.47L613.719 242.64C612.546 243.048 611.342 243.362 610.119 243.58V327.82H560.789C560.789 327.92 560.859 328 560.889 328.1C561.159 328.89 561.439 329.69 561.699 330.49H610.189V422.84H610.939L611.809 422.89L613.379 422.98L615.889 423.29L617.039 423.4L618.289 423.53H618.479L620.689 423.8L621.159 423.86L622.229 424.01L623.759 424.23L627.429 424.07L627.929 424.16C628.129 424.16 628.339 424.22 628.549 424.26V330.51H702.889C703.009 329.62 703.119 328.73 703.239 327.84H628.629ZM878.169 148.4H1085.64C1085.64 147.51 1085.64 146.62 1085.58 145.74H878.169V41.1198C872.009 42.4531 865.859 43.8331 859.719 45.2598V145.74H634.079L633.509 145.23L634.369 144.47L718.299 69.0498C709.899 69.3698 701.502 69.4431 693.109 69.2698L628.619 127.21V63.8198C622.459 62.9464 616.312 61.9798 610.179 60.9198V124.29L515.889 39.5398C504.049 36.3698 492.199 33.1398 480.329 29.9898L608.559 145.23L607.989 145.74H372.589V8.53976C369.449 8.24643 366.309 7.98976 363.169 7.76976C360.169 7.54976 357.169 7.38977 354.169 7.25977V145.74H189.229V39.0098C183.002 41.8631 176.856 44.8931 170.789 48.0998V145.74H81.1791C80.9591 146.62 80.7291 147.51 80.5391 148.4H170.789V239.01H85.4991C85.7491 239.9 86.0091 240.79 86.2691 241.67H170.789V327.84H99.2291C99.0491 328.726 98.8591 329.616 98.6591 330.51H170.789V571.44C176.789 572.37 182.999 573.02 189.229 573.44V330.51H354.139V552.04C360.329 550.39 366.469 548.68 372.589 546.87V330.51H610.189V524.06C616.381 522.71 622.486 520.987 628.469 518.9L628.629 518.84V330.51H859.719V421.29C865.852 420.39 872.002 419.526 878.169 418.7V330.51H1042.49C1043.03 329.62 1043.56 328.73 1044.09 327.84H878.169V241.67H1077.31C1077.52 240.79 1077.7 239.9 1077.89 239.01H878.169V148.4ZM189.229 148.4H354.139V239.01H189.229V148.4ZM189.229 327.84V241.67H354.139V327.84H189.229ZM372.589 148.4H610.189V239.01H372.589V148.4ZM372.589 327.84V241.67H610.189V327.84H372.589ZM859.719 327.84H628.629V241.67H859.719V327.84ZM859.719 239.01H628.629V150.83L631.869 148.4H859.719V239.01ZM705.279 327.84C705.274 327.863 705.274 327.887 705.279 327.91C705.189 328.64 705.089 329.37 704.989 330.11V330.31V330.51H733.589V330.35L735.589 327.84H705.279ZM742.709 327.84H739.409V329.02V330.51H743.149L742.709 327.84ZM628.629 327.84V241.67H661.529C661.179 241.44 660.819 241.2 660.449 240.98L659.969 240.67L659.349 240.29C658.989 240.08 658.629 239.87 658.249 239.67C657.869 239.47 657.639 239.33 657.319 239.16L657.099 239.04H657.049H628.629V234.29L627.859 234.59L627.049 234.97H626.989L626.819 235.06L626.309 235.33L625.799 235.6C625.299 235.87 624.799 236.17 624.299 236.48L623.819 236.8L622.819 237.44C621.529 238.3 620.259 239.2 618.949 240.04C618.619 240.25 618.289 240.46 617.949 240.65C617.239 241.07 616.509 241.47 615.759 241.83C615.439 241.99 615.129 242.13 614.759 242.26L614.219 242.47L613.719 242.64C612.546 243.048 611.342 243.362 610.119 243.58V327.82H560.789C560.789 327.92 560.859 328 560.889 328.1C561.159 328.9 561.429 329.69 561.689 330.49H610.189V422.85C610.442 422.85 610.692 422.85 610.939 422.85L611.809 422.9L613.379 422.99L615.889 423.29L617.039 423.4L618.289 423.53H618.479L620.689 423.8L621.159 423.86L622.229 424.01L623.759 424.23L627.429 424.07L627.929 424.16C628.129 424.16 628.339 424.22 628.549 424.26V330.51H704.889V330.31V330.11C704.989 329.37 705.089 328.64 705.179 327.91C705.174 327.887 705.174 327.863 705.179 327.84H628.629Z" fill="#FF4568"/>
<path opacity="0.1" d="M268.522 86.0201H269.952C269.481 85.8207 269.07 85.5001 268.763 85.0909C268.456 84.6816 268.262 84.1984 268.202 83.6901V83.6901C268.202 81.8501 270.952 80.3501 274.312 80.3501H317.072C320.432 80.3501 323.172 81.8501 323.172 83.6901C323.172 85.5201 320.432 87.0301 317.072 87.0301H315.642C316.114 87.2261 316.525 87.5444 316.832 87.9522C317.14 88.3601 317.333 88.8426 317.392 89.3501C317.392 90.9201 315.392 92.2401 312.722 92.5901H325.032C328.382 92.5901 331.132 94.0901 331.132 95.9301C331.132 97.7701 328.382 99.2701 325.032 99.2701H282.262C278.912 99.2701 276.162 97.7601 276.162 95.9301C276.162 94.3601 278.162 93.0501 280.832 92.6901H268.522C265.162 92.6901 262.422 91.1901 262.422 89.3501C262.422 87.5101 265.162 86.0201 268.522 86.0201Z" fill="#6C63FF"/>
<path opacity="0.1" d="M731.959 117.79H733.389C732.92 117.589 732.512 117.268 732.206 116.859C731.901 116.45 731.709 115.967 731.649 115.46V115.46C731.649 113.62 734.389 112.12 737.749 112.12H780.509C783.869 112.12 786.619 113.62 786.619 115.46C786.619 117.29 783.869 118.79 780.509 118.79H779.089C779.559 118.991 779.967 119.312 780.273 119.721C780.578 120.13 780.77 120.613 780.829 121.12C780.829 122.69 778.829 124.01 776.159 124.36H788.469C791.829 124.36 794.569 125.86 794.569 127.7C794.569 129.54 791.829 131.04 788.469 131.04H745.709C742.349 131.04 739.599 129.53 739.599 127.7C739.599 126.13 741.599 124.81 744.269 124.46H731.959C728.609 124.46 725.859 122.96 725.859 121.12C725.859 119.28 728.609 117.79 731.959 117.79Z" fill="#6C63FF"/>
<path opacity="0.1" d="M202.891 253.75H204.311C203.841 253.55 203.433 253.229 203.127 252.82C202.821 252.411 202.629 251.928 202.571 251.42V251.42C202.571 249.59 205.321 248.08 208.671 248.08H251.441C254.791 248.08 257.541 249.59 257.541 251.42C257.541 253.26 254.791 254.76 251.441 254.76H250.011C250.482 254.957 250.891 255.275 251.197 255.683C251.503 256.091 251.694 256.573 251.751 257.08C251.751 258.65 249.751 259.97 247.081 260.32H259.391C262.751 260.32 265.501 261.83 265.501 263.66C265.501 265.49 262.751 267 259.391 267H216.671C213.311 267 210.571 265.5 210.571 263.66C210.571 262.1 212.571 260.78 215.241 260.42H202.891C199.531 260.42 196.781 258.92 196.781 257.08C196.781 255.24 199.571 253.75 202.891 253.75Z" fill="#6C63FF"/>
<path opacity="0.3" d="M1008.04 610.104C1015.22 574.954 927.278 527.297 811.607 503.658C695.935 480.019 596.342 489.351 589.159 524.501C581.976 559.651 669.922 607.308 785.594 630.947C901.265 654.586 1000.86 645.254 1008.04 610.104Z" fill="#032B4D"/>
<path d="M774.449 384.88C774.449 384.88 785.819 329.07 829.229 334.24C829.229 334.24 859.229 336.3 865.399 355.94V399.35L774.449 384.88Z" fill="#3A3768"/>
<path d="M1012.18 405.56L625.61 373.51L576 383.85L579.1 453.1L582.48 453.51L586.33 557.5L965.66 625.71L1005.98 591.6V478.87L1011.14 475.84L1012.18 405.56Z" fill="#032B4D"/>
<path opacity="0.05" d="M1012.7 405.56L1011.66 475.84L969.801 495.48L969.281 422.09L1012.7 405.56Z" fill="black"/>
<path opacity="0.05" d="M1005.98 478.94L1006.49 589.54L966.18 623.65L968.77 495.48L1005.98 478.94Z" fill="black"/>
<path opacity="0.05" d="M583.001 457.65L969.081 504.76L969.281 495.82L582.711 454.13L583.001 457.65Z" fill="black"/>
<path opacity="0.05" d="M1005.98 483V478.94L967.73 495.82V504.78L1005.98 483Z" fill="black"/>
<path d="M575.48 383.85L625.091 373.51L1011.66 405.56L968.25 422.09L575.48 383.85Z" fill="#FDCA05"/>
<path opacity="0.1" d="M970.48 407.55L989.45 408.79L958.01 418.2L942 417.05L970.48 407.55Z" fill="black"/>
<path d="M970.48 406.72L989.45 407.96L958.01 417.38L942 416.22L970.48 406.72Z" fill="#FF4568"/>
<path d="M968.211 408.85C968.961 408.53 969.751 409.14 970.551 409.29C971.011 409.38 971.481 409.29 971.941 409.38C972.871 409.5 973.791 410.12 974.681 409.81" fill="#D3DAE1"/>
<path d="M967.23 409.42C967.97 409.1 968.77 409.7 969.57 409.86C970.03 409.94 970.5 409.86 970.96 409.94C971.89 410.07 972.811 410.69 973.701 410.38" fill="#D3DAE1"/>
<path d="M964.969 410.56C965.719 410.24 966.519 410.84 967.319 410.99C967.769 411.08 968.249 410.99 968.699 411.08C969.639 411.21 970.559 411.83 971.439 411.51" fill="#D3DAE1"/>
<path opacity="0.1" d="M888.48 398.21L907.45 399.46L876.01 408.87L860 407.71L888.48 398.21Z" fill="black"/>
<path d="M888.48 397.39L907.45 398.63L876.01 408.04L860 406.89L888.48 397.39Z" fill="#FF4568"/>
<path d="M886.211 399.52C886.961 399.2 887.751 399.8 888.551 399.96C889.011 400.04 889.481 399.96 889.941 400.04C890.871 400.17 891.791 400.79 892.681 400.48" fill="#D3DAE1"/>
<path d="M885.23 400.09C885.97 399.77 886.77 400.37 887.57 400.52C888.03 400.61 888.5 400.52 888.96 400.61C889.89 400.74 890.81 401.36 891.7 401.04" fill="#D3DAE1"/>
<path d="M882.969 401.22C883.719 400.9 884.519 401.51 885.319 401.66C885.769 401.75 886.249 401.66 886.699 401.75C887.639 401.87 888.559 402.5 889.439 402.18" fill="#D3DAE1"/>
<path opacity="0.1" d="M927.808 402.88L946.788 404.12L915.348 413.54L899.328 412.38L927.808 402.88Z" fill="black"/>
<path d="M927.808 402.06L946.788 403.3L915.348 412.71L899.328 411.55L927.808 402.06Z" fill="#FF4568"/>
<path d="M925.539 404.19C926.289 403.87 927.089 404.47 927.889 404.62C928.339 404.71 928.809 404.62 929.269 404.71C930.199 404.83 931.129 405.46 932.009 405.14" fill="#D3DAE1"/>
<path d="M924.559 404.75C925.309 404.43 926.109 405.04 926.909 405.19C927.359 405.28 927.829 405.19 928.289 405.28C929.219 405.4 930.149 406.03 931.029 405.71" fill="#D3DAE1"/>
<path d="M922.309 405.89C923.049 405.57 923.849 406.17 924.649 406.33C925.109 406.41 925.579 406.33 926.039 406.41C926.969 406.54 927.889 407.16 928.779 406.85" fill="#D3DAE1"/>
<path opacity="0.3" d="M498.32 791.38C610.146 791.38 700.8 772.719 700.8 749.7C700.8 726.681 610.146 708.02 498.32 708.02C386.493 708.02 295.84 726.681 295.84 749.7C295.84 772.719 386.493 791.38 498.32 791.38Z" fill="#032B4D"/>
<path d="M720.049 408.38C717.889 389.4 709.339 371.29 709.339 371.29L709.989 364.89C709.989 364.89 710.129 361.69 709.919 356.89C709.942 353.893 710.335 350.911 711.089 348.01C712.839 342.46 708.899 335.64 708.459 335.01C708.019 334.38 708.679 322.21 704.739 316.24C700.799 310.27 674.559 299.17 674.559 299.17C674.559 299.17 673.149 296.22 671.159 292.77L671.339 292.42C669.71 289.466 667.692 286.745 665.339 284.33C663.729 282.61 662.179 281.63 660.929 282.11C660.42 280.45 660.033 278.756 659.769 277.04C660.029 277.11 660.299 277.18 660.559 277.23C661.642 277.481 662.765 277.508 663.859 277.31C666.299 276.76 667.919 274.57 669.279 272.51C676.059 262.21 681.899 250.91 683.089 238.72C683.408 236.232 683.29 233.707 682.739 231.26C682.176 229.357 681.391 227.528 680.399 225.81C678.646 222.285 676.426 219.012 673.799 216.08C669.129 211.16 662.689 208.15 656.069 206.37C648.611 204.364 640.842 203.784 633.169 204.66C631.169 204.89 629.169 205.22 627.169 205.35C624.632 205.462 622.09 205.418 619.559 205.22L606.469 204.46L606.409 204.26L604.229 204.13C603.369 205.84 604.229 207.87 605.299 209.47C606.369 211.07 607.599 212.74 607.509 214.63C607.419 216.52 606.049 218.04 604.979 219.63C603.909 221.22 603.099 223.3 604.169 224.86C604.319 225.076 604.497 225.271 604.699 225.44C605.829 226.61 607.799 226.74 609.509 226.72H609.809C605.502 232.392 603.173 239.319 603.179 246.44C603.208 252.526 604.911 258.486 608.102 263.668C611.292 268.85 615.848 273.054 621.269 275.82C621.459 276.47 621.649 277.14 621.829 277.82C623.811 284.844 624.522 292.166 623.929 299.44L623.699 299.94L623.559 299.41C623.559 299.41 608.139 309.87 603.559 312.64C598.979 315.41 594.379 324.8 594.159 327.36C593.939 329.92 586.719 368.53 586.719 368.53C585.251 372.419 584.042 376.401 583.099 380.45L573.889 388.54C573.889 388.54 554.889 390.25 549.389 388.97L549.549 390.03C544.698 388.923 539.759 388.253 534.789 388.03C532.074 387.681 529.316 388.05 526.789 389.1L526.599 389.19L526.449 389.26C523.553 389.656 520.726 390.45 518.049 391.62C517.729 391.75 517.439 391.88 517.159 392.01L517.219 390.7L496.659 389.64L486.159 387.51C486.159 387.51 482.439 384.51 480.249 384.95C478.059 385.39 473.469 382.39 473.469 382.39C472.421 381.569 471.288 380.865 470.089 380.29C469.739 377.87 469.519 376.4 469.519 376.4C469.519 376.4 461.349 343.98 455.229 324.92C451.129 312.19 445.229 305.92 441.749 303.19C440.199 300.49 439.179 298.75 439.179 298.75C438.509 296.41 434.829 291.14 433.889 291.01C433.739 290.77 433.629 290.65 433.569 290.65C433.367 290.628 433.164 290.66 432.979 290.74C431.259 282.18 430.259 271.45 432.889 262.1C436.489 259.141 439.39 255.423 441.385 251.212C443.38 247 444.42 242.4 444.429 237.74C444.429 237.6 444.429 237.46 444.429 237.32C444.429 237.18 444.429 237.03 444.429 236.89C444.427 229.458 441.794 222.267 436.999 216.59L436.659 216.21C436.75 216.146 436.836 216.075 436.919 216C437.67 215.391 438.242 214.589 438.575 213.681C438.908 212.772 438.989 211.791 438.809 210.84C438.359 208.92 436.859 207.41 436.089 205.59C435.626 204.189 435.255 202.759 434.979 201.31C434.389 199.252 433.308 197.367 431.829 195.82L431.979 196.22C428.059 191.81 421.319 189.62 415.249 190.6C410.739 191.32 406.539 193.42 402.009 194.07C398.759 194.53 395.449 194.23 392.179 194.56C389.145 194.872 386.191 195.725 383.459 197.08C382.745 197.384 382.111 197.849 381.609 198.44C381.143 199.231 380.831 200.103 380.689 201.01C379.579 205.06 376.059 207.95 373.509 211.33C370.596 215.192 368.91 219.839 368.669 224.67C368.569 225.898 368.687 227.134 369.019 228.32C369.239 229.03 369.579 229.7 369.739 230.42C370.239 232.62 369.089 234.81 368.529 236.99C367.823 239.771 368.073 242.708 369.239 245.33C373.189 254.17 386.159 257.12 388.859 266.4C390.924 267.35 393.107 268.022 395.349 268.4C395.529 269.32 395.689 270.25 395.819 271.19C395.758 271.216 395.701 271.249 395.649 271.29C392.149 274.7 391.279 281.29 391.279 281.29L390.859 281.63C389.429 282.81 384.539 286.77 380.119 289.82C374.869 293.45 366.119 305.61 359.999 309.24C353.879 312.87 348.839 335.24 350.159 343.37C351.479 351.5 356.939 374.3 354.749 382.62C352.559 390.94 358.029 428.91 358.029 428.91C361.699 429.609 365.29 430.674 368.749 432.09L368.639 433.75L368.309 438.75C368.309 438.75 358.399 474.59 362.189 502.18C365.979 529.77 360.439 532.61 360.439 532.61C360.439 532.61 361.599 544.84 358.689 549.11C355.779 553.38 355.189 562.76 355.189 562.76C355.189 562.76 354.899 583.81 355.479 589.76C356.059 595.71 356.349 606.55 354.309 609.11C352.269 611.67 348.479 628.44 348.769 633.56C349.059 638.68 341.479 650.35 345.559 665.42C349.639 680.49 333.559 680.78 333.559 680.78C333.559 680.78 335.609 703.78 339.979 710.36L340.619 711.3C340.509 711.68 340.399 712.08 340.279 712.51C338.629 718.51 336.369 727.98 337.939 730.27C340.269 733.69 341.439 733.11 341.439 733.11L342.309 748.47C342.309 748.47 359.809 763.26 373.229 762.7C386.649 762.14 384.019 748.47 384.019 748.47L372.589 718.83L372.199 717.83L384.899 693.83C384.899 693.83 388.399 683.31 389.269 679.61C390.139 675.91 394.889 662.8 394.889 662.8C394.889 662.8 406.889 634.36 407.139 630.94C407.389 627.52 408.309 609.05 410.639 605.34C412.969 601.63 419.389 580.34 419.389 580.34L419.549 580.48C420.638 581.55 421.416 582.896 421.8 584.373C422.184 585.851 422.159 587.405 421.729 588.87C420.259 594.27 421.139 605.36 421.139 605.36C421.139 605.36 420.559 614.75 419.389 619.59C418.219 624.43 417.939 663.96 419.979 673.34C421.609 680.85 421.559 694.91 421.479 700.23C420.109 705.88 418.909 712.9 421.139 713.73C424.939 715.16 444.189 714.87 444.189 714.87C444.189 714.87 452.349 712.02 463.439 721.98C474.529 731.94 508.639 719.14 508.639 719.14C508.639 719.14 519.139 716.29 498.429 708.05C483.979 702.3 474.649 698.47 468.549 694.37C468.689 694.1 468.839 693.83 468.969 693.54C468.969 693.54 460.509 685.54 467.509 671.36C474.509 657.18 474.219 645.19 474.219 645.19L475.389 597.4L471.889 533.96L469.179 467.38L469.659 467.22C470.119 479.46 472.509 508.6 485.019 502.95C500.769 495.84 487.349 477.35 487.349 477.35L480.279 463.57L482.389 462.85L474.479 437.29C473.72 432.301 473.619 427.235 474.179 422.22C474.335 419.286 474.275 416.345 473.999 413.42C484.359 411.61 494.279 409.69 496.059 410.13C498.159 410.64 509.909 410.74 514.529 410.76C513.019 411.94 511.809 413.11 511.809 413.11L530.619 425.77C530.619 425.77 536.999 422.28 538.329 418.58C539.637 418.249 540.846 417.604 541.849 416.7C542.049 421.07 543.209 425.8 547.249 425.91C548.259 425.931 549.262 425.733 550.189 425.33L580.949 419.24L578.309 435.73L580.149 439C579.219 452.91 578.149 467.68 577.209 480.67L576.779 483.51L576.999 483.56C575.539 503.56 574.369 518.71 574.369 518.71C576.091 515.427 578.765 512.74 582.039 511L582.239 540.68C582.239 540.68 583.779 587.61 583.779 594.01C583.779 600.41 583.989 614.7 583.989 614.7C583.989 614.7 587.279 632.19 589.239 637.95C591.199 643.71 592.739 669.95 592.739 669.95C592.739 669.95 597.339 677.2 595.369 679.95C593.399 682.7 603.029 688.69 603.029 688.69C603.029 688.69 596.899 697.01 596.459 702.56C596.409 703.2 597.039 703.88 598.179 704.56C597.819 704.85 597.449 705.14 597.039 705.42C594.199 707.32 590.039 708.64 583.779 708.1C566.709 706.6 554.679 722.39 565.179 725.59C575.679 728.79 607.179 729.43 607.179 729.43C607.179 729.43 616.719 723.48 624.179 726.16C624.069 732.42 624.379 738.16 624.429 738.92L624.339 738.99C619.879 742.99 611.339 749.87 602.999 752.68C590.999 756.73 588.339 773.16 603.869 775.29C619.399 777.42 642.149 772.73 642.149 772.73C642.149 772.73 653.959 763.99 662.929 762.07C671.899 760.15 679.559 755.88 678.029 750.76C677.029 747.49 674.459 738.92 672.719 733.16C672.619 732.813 672.519 732.48 672.419 732.16C672.689 731.56 672.959 730.94 673.209 730.3C673.209 730.3 668.619 706.41 672.339 700.44C676.059 694.47 674.089 634.73 674.089 634.73C674.089 634.73 667.739 619.59 671.029 610.42C674.319 601.25 665.779 588.23 665.779 588.23C665.779 588.23 666.709 562.14 669.209 547.6C669.322 546.98 669.432 546.38 669.539 545.8C673.724 544.558 677.804 542.983 681.739 541.09C681.739 541.09 683.929 508.23 685.239 500.77C685.369 500.07 685.549 498.94 685.769 497.47L686.769 492.2L687.949 486.2L691.949 465.75L699.169 456.41L717.769 437.41C717.769 437.41 722.239 427.37 720.049 408.38ZM433.209 291.05L433.069 291.15C433.047 291.078 433.03 291.004 433.019 290.93C433.077 290.978 433.14 291.018 433.209 291.05V291.05ZM616.979 314.34L616.259 315.91L618.889 313.29L615.319 317.29L616.519 314.77L616.979 314.34ZM599.219 351.04C598.529 352.87 597.789 354.85 597.019 356.91L598.429 352.7L599.219 351.04Z" fill="url(#paint0_linear)"/>
<path d="M541.829 410.87C541.829 410.87 539.38 427.18 546.73 427.39C554.08 427.6 558.989 414.81 558.989 414.81L555.989 404.58L541.829 410.87Z" fill="#585B8A"/>
<path opacity="0.2" d="M541.829 410.87C541.829 410.87 539.38 427.18 546.73 427.39C554.08 427.6 558.989 414.81 558.989 414.81L555.989 404.58L541.829 410.87Z" fill="black"/>
<path d="M377.198 763.91C364.118 764.48 347.058 749.7 347.058 749.7L346.208 734.35C346.208 734.35 345.078 734.92 342.798 731.51C341.268 729.22 343.468 719.73 345.078 713.76C345.858 710.84 346.498 708.76 346.498 708.76L375.198 716.44L376.568 720.07L387.708 749.69C387.708 749.69 390.268 763.34 377.198 763.91Z" fill="black"/>
<path d="M509.071 720.43C509.071 720.43 475.821 733.22 465.071 723.27C454.321 713.32 446.311 716.16 446.311 716.16C446.311 716.16 427.551 716.45 423.851 715.02C421.671 714.19 422.851 707.08 424.211 701.42C425.131 697.51 426.131 694.28 426.131 694.28C426.131 694.28 458.811 683.19 463.931 690.01C465.469 692.014 467.307 693.768 469.381 695.21C475.301 699.49 484.551 703.37 499.181 709.34C519.301 717.58 509.071 720.43 509.071 720.43Z" fill="black"/>
<path d="M479.229 460.64L488.319 478.83C488.319 478.83 501.399 497.31 486.049 504.41C470.699 511.51 470.989 463.49 470.989 463.49L479.229 460.64Z" fill="#FFD6D6"/>
<path d="M441.141 302.9C441.141 302.9 451.091 307.45 457.061 326.49C463.031 345.53 470.991 377.94 470.991 377.94C470.991 377.94 476.391 414.6 475.531 423.7C474.983 428.712 475.081 433.773 475.821 438.76L483.491 464.34L468.141 469.74L444.551 379.36L441.141 302.9Z" fill="#DCE6F2"/>
<path opacity="0.05" d="M441.141 302.9C441.141 302.9 451.091 307.45 457.061 326.49C463.031 345.53 470.991 377.94 470.991 377.94C470.991 377.94 476.391 414.6 475.531 423.7C474.983 428.712 475.081 433.773 475.821 438.76L483.491 464.34L468.141 469.74L444.551 379.36L441.141 302.9Z" fill="black"/>
<path opacity="0.1" d="M375.201 716.45L376.571 720.08L374.891 723.29C368.351 726.13 352.151 723.86 352.151 723.86C352.151 723.86 349.151 720.05 345.051 713.78C345.831 710.86 346.471 708.78 346.471 708.78L375.201 716.45Z" fill="black"/>
<path opacity="0.1" d="M470.421 696.55C462.131 715.33 433.951 708.36 426.121 706.01C424.831 705.62 424.121 705.36 424.121 705.36C424.121 705.36 424.171 703.83 424.191 701.42C425.111 697.51 426.111 694.28 426.111 694.28C426.111 694.28 458.791 683.19 463.911 690.01C465.449 692.014 467.287 693.768 469.361 695.21C469.674 695.687 470.029 696.136 470.421 696.55V696.55Z" fill="black"/>
<path d="M468.992 672.68C462.172 686.88 470.422 694.85 470.422 694.85C462.132 713.62 433.952 706.66 426.122 704.3C424.832 703.92 424.122 703.66 424.122 703.66C424.122 703.66 424.692 684.04 422.702 674.66C420.712 665.28 420.992 625.78 422.132 620.95C423.272 616.12 423.832 606.73 423.832 606.73C423.832 606.73 422.982 595.65 424.402 590.25C424.829 588.791 424.858 587.244 424.485 585.771C424.112 584.297 423.351 582.95 422.282 581.87L422.132 581.72C422.132 581.72 415.882 603.04 413.602 606.72C411.322 610.4 410.482 628.89 410.192 632.3C409.902 635.71 398.252 664.14 398.252 664.14C398.252 664.14 393.712 677.21 392.862 680.9C392.012 684.59 388.592 695.12 388.592 695.12L374.892 721.56C368.352 724.4 352.152 722.13 352.152 722.13C352.152 722.13 349.032 718.13 344.762 711.61C340.492 705.09 338.512 682.06 338.512 682.06C338.512 682.06 354.142 681.77 350.162 666.71C346.182 651.65 353.572 639.99 353.292 634.87C353.012 629.75 356.702 612.99 358.692 610.43C360.682 607.87 360.392 597.07 359.822 591.1C359.252 585.13 359.542 564.1 359.542 564.1C359.542 564.1 360.112 554.72 362.952 550.46C365.792 546.2 364.662 533.97 364.662 533.97C364.662 533.97 370.052 531.13 366.362 503.56C362.672 475.99 372.362 440.18 372.362 440.18L372.692 435.18L373.212 427.08C373.212 427.08 454.502 421.96 461.042 428.21C462.751 429.945 464.154 431.956 465.192 434.16C467.429 438.97 469.01 444.059 469.892 449.29L473.302 535.41L476.712 598.79L475.572 646.54C475.572 646.54 475.822 658.46 468.992 672.68Z" fill="#032B4D"/>
<path opacity="0.1" d="M444.89 502.71L436.36 687.45L426.12 704.29C424.83 703.91 424.12 703.65 424.12 703.65C424.12 703.65 424.69 684.03 422.7 674.65C420.71 665.27 420.99 625.77 422.13 620.94C423.27 616.11 423.83 606.72 423.83 606.72C423.83 606.72 422.98 595.64 424.4 590.24C424.827 588.781 424.856 587.234 424.483 585.761C424.11 584.287 423.349 582.94 422.28 581.86L422.42 580.86L444.89 502.71Z" fill="black"/>
<path opacity="0.1" d="M353.029 701.1C353.029 701.1 375.199 692.29 378.609 695.1C382.019 697.91 352.469 702.2 352.469 702.2L353.029 701.1Z" fill="black"/>
<path opacity="0.1" d="M462.461 677.79C461.611 678.08 440.011 685.79 442.001 693.99C443.991 702.19 462.461 677.79 462.461 677.79Z" fill="black"/>
<path d="M394.961 257.29C394.961 257.29 402.201 274.77 398.371 283.73C394.541 292.69 439.721 308.03 439.721 308.03C439.721 308.03 426.511 273.92 439.301 254.73C452.091 235.54 394.961 257.29 394.961 257.29Z" fill="#FFD6D6"/>
<path d="M659.501 763.34C650.761 765.26 639.251 774 639.251 774C639.251 774 617.081 778.69 601.941 776.56C586.801 774.43 589.371 758.01 601.091 753.96C609.221 751.16 617.551 744.25 621.901 740.29C623.821 738.52 624.961 737.29 624.961 737.29L667.391 728.76C667.391 728.76 668.081 731.13 669.041 734.4C670.741 740.17 673.251 748.73 674.211 751.99C675.701 757.16 668.241 761.42 659.501 763.34Z" fill="#505484"/>
<path d="M648.63 730.51C648.63 730.51 630.72 732.43 623.26 728.17C615.8 723.91 605.14 730.73 605.14 730.73C605.14 730.73 574.44 730.09 564.21 726.89C553.98 723.69 565.7 707.89 582.33 709.41C588.39 709.96 592.49 708.63 595.26 706.73C598.154 704.747 600.171 701.723 600.89 698.29L636.89 700.42L641.89 713.18L648.63 730.51Z" fill="#505484"/>
<path opacity="0.1" d="M642.442 719C642.442 719 600.602 712.16 595.262 706.73C598.155 704.747 600.172 701.723 600.892 698.29L636.892 700.42L641.892 713.18L642.442 719Z" fill="black"/>
<path d="M580.41 479.62L580.84 542.07C580.84 542.07 582.33 588.97 582.33 595.37C582.33 601.77 582.54 616.04 582.54 616.04C582.54 616.04 585.74 633.52 587.66 639.28C589.58 645.04 591.07 671.28 591.07 671.28C591.07 671.28 595.55 678.53 593.63 681.28C591.71 684.03 601.09 690.02 601.09 690.02C601.09 690.02 595.09 698.34 594.7 703.88C594.31 709.42 642.44 717.29 642.44 717.29L623.69 525.02L608.76 476.85L580.41 479.62Z" fill="#575988"/>
<path opacity="0.1" d="M580.41 479.62L580.84 542.07C580.84 542.07 582.33 588.97 582.33 595.37C582.33 601.77 582.54 616.04 582.54 616.04C582.54 616.04 585.74 633.52 587.66 639.28C589.58 645.04 591.07 671.28 591.07 671.28C591.07 671.28 595.55 678.53 593.63 681.28C591.71 684.03 601.09 690.02 601.09 690.02C601.09 690.02 595.09 698.34 594.7 703.88C594.31 709.42 642.44 717.29 642.44 717.29L623.69 525.02L608.76 476.85L580.41 479.62Z" fill="black"/>
<path opacity="0.1" d="M669.038 734.45C655.108 767.66 621.978 742.03 621.978 742.03C621.978 742.03 621.978 741.39 621.898 740.29C623.818 738.52 624.958 737.29 624.958 737.29L667.388 728.76C667.388 728.76 668.078 731.18 669.038 734.45Z" fill="black"/>
<path d="M669.519 731.58C655.869 766.58 621.979 740.32 621.979 740.32C621.979 740.32 620.909 722.2 623.049 713.89C625.189 705.58 620.699 680.63 620.699 680.63C620.699 680.63 618.139 658.46 615.799 653.35C613.459 648.24 613.669 638 613.669 637.15C613.669 636.3 614.519 629.47 612.599 624.78C610.679 620.09 609.599 608.58 609.599 608.58C609.599 608.58 609.599 592.38 607.679 582.79L601.069 549.79L589.129 482.21L592.859 481.57L659.689 469.85C659.689 469.85 672.269 533.85 667.999 540.41C667.079 541.85 666.269 545 665.599 549.06C663.159 563.58 662.249 589.65 662.249 589.65C662.249 589.65 670.559 602.65 667.369 611.82C664.179 620.99 670.369 636.12 670.369 636.12C670.369 636.12 672.289 695.81 668.659 701.78C665.029 707.75 669.519 731.58 669.519 731.58Z" fill="#575988"/>
<path d="M663.12 295.23C663.12 295.23 602.58 337.86 616.22 316.54C623.57 305.06 622.22 290.44 619.34 279.4C617.884 273.785 615.874 268.328 613.34 263.11C613.34 263.11 664.78 241.23 657.96 260.84C656.362 265.408 655.682 270.248 655.96 275.08C656.368 282.343 658.854 289.337 663.12 295.23V295.23Z" fill="#D28690"/>
<path d="M554.12 392.86C554.12 392.86 528.54 385.47 524.28 392.72C520.02 399.97 525.56 415.88 533.28 418.44C541 421 558.72 409.77 558.72 409.77L554.12 392.86Z" fill="#D28690"/>
<path d="M583.4 380.29L572.74 390.1C572.74 390.1 554.19 391.8 548.86 390.52C548.86 390.52 553.77 423.35 546.73 427.4L589.79 418.66L583.4 380.29Z" fill="#585B8A"/>
<path opacity="0.1" d="M583.4 380.29L572.74 390.1C572.74 390.1 554.19 391.8 548.86 390.52C548.86 390.52 553.77 423.35 546.73 427.4L589.79 418.66L583.4 380.29Z" fill="black"/>
<path opacity="0.1" d="M446.541 239.38C446.541 247.867 443.169 256.006 437.168 262.007C431.167 268.008 423.028 271.38 414.541 271.38C398.121 263.49 382.541 257.07 382.541 239.38C382.37 235.074 383.071 230.779 384.601 226.751C386.132 222.723 388.459 219.046 391.445 215.939C394.431 212.833 398.014 210.362 401.978 208.674C405.942 206.985 410.207 206.115 414.516 206.115C418.824 206.115 423.089 206.985 427.053 208.674C431.017 210.362 434.6 212.833 437.586 215.939C440.572 219.046 442.9 222.723 444.43 226.751C445.96 230.779 446.661 235.074 446.491 239.38H446.541Z" fill="black"/>
<path d="M446.54 238.52C446.545 246.046 443.892 253.331 439.05 259.092C434.207 264.853 427.486 268.719 420.072 270.008C412.657 271.297 405.026 269.927 398.523 266.139C392.02 262.351 387.064 256.388 384.528 249.303C381.992 242.217 382.04 234.463 384.662 227.41C387.285 220.356 392.314 214.454 398.863 210.746C405.412 207.038 413.059 205.762 420.458 207.142C427.856 208.522 434.529 212.47 439.3 218.29C443.973 223.997 446.531 231.144 446.54 238.52V238.52Z" fill="#FFD6D6"/>
<path opacity="0.1" d="M465.191 434.19C462.025 436.156 458.712 437.875 455.281 439.33C455.281 439.33 439.081 436.98 436.741 439.75C434.401 442.52 413.741 443.59 413.741 443.59C413.741 443.59 382.191 442.1 377.501 438.05C376.051 436.876 374.437 435.919 372.711 435.21L373.231 427.11C373.231 427.11 454.521 421.99 461.061 428.24C462.763 429.976 464.16 431.988 465.191 434.19Z" fill="black"/>
<path d="M469.139 428.46C468.499 432.08 455.279 437.62 455.279 437.62C455.279 437.62 439.079 435.28 436.739 438.05C434.399 440.82 413.739 441.89 413.739 441.89C413.739 441.89 382.189 440.39 377.499 436.34C372.809 432.29 362.359 430.34 362.359 430.34C362.359 430.34 357.029 392.4 359.169 384.09C361.309 375.78 355.969 352.96 354.689 344.86C353.409 336.76 358.309 314.38 364.279 310.76C370.249 307.14 378.779 294.98 383.889 291.36C388.199 288.31 392.959 284.36 394.349 283.17L394.759 282.83C394.759 282.83 395.619 276.22 399.029 272.83C402.439 269.44 433.769 294.36 433.769 294.36C433.769 294.36 433.989 296.28 436.119 292.66C436.599 291.85 440.729 297.81 441.449 300.33C441.449 300.33 458.499 330.18 459.569 336.33C460.639 342.48 465.109 362.55 465.959 367.45C466.179 368.71 466.539 373.13 466.959 379.05C467.039 380.21 467.109 381.44 467.199 382.72C467.829 392.54 468.509 405.08 468.919 414.56C468.919 415.64 469.009 416.68 469.039 417.68C469.255 421.269 469.289 424.867 469.139 428.46V428.46Z" fill="#DCE6F2"/>
<path opacity="0.1" d="M360.891 351.5C360.891 351.5 372.611 365.78 376.451 365.78C380.291 365.78 360.891 351.5 360.891 351.5Z" fill="black"/>
<path opacity="0.1" d="M385.58 382.2C385.58 382.2 366.39 403.09 368.95 406.93C371.51 410.77 385.58 382.2 385.58 382.2Z" fill="black"/>
<path opacity="0.1" d="M371.512 423.77C371.512 423.77 393.512 399.68 394.512 391.37L371.512 423.77Z" fill="black"/>
<path opacity="0.1" d="M399.219 425.47C399.219 425.47 424.589 412.04 426.719 401.38C428.849 390.72 399.219 425.47 399.219 425.47Z" fill="black"/>
<path opacity="0.1" d="M431.411 295.87L427.891 304.39L433.751 307.16L439.511 323.26C439.511 323.26 455.391 355.02 454.751 371.54C454.111 388.06 457.631 412.89 457.631 412.89L466.791 411.19L462.471 362.6C461.798 355.077 459.914 347.712 456.891 340.79C449.571 324.03 435.951 293.09 435.091 293.09C433.921 293.09 434.741 293.52 434.741 293.52L431.411 295.87Z" fill="black"/>
<path d="M432.258 295.01L428.738 303.54L434.608 306.31L440.358 322.41C440.358 322.41 456.238 354.17 455.598 370.69C454.958 387.21 458.478 412.04 458.478 412.04L467.648 410.34L463.318 361.75C462.653 354.227 460.772 346.861 457.748 339.94C450.428 323.17 436.808 292.24 435.958 292.24C434.778 292.24 435.598 292.67 435.598 292.67L432.258 295.01Z" fill="#575989"/>
<path d="M536.069 420.29C531.609 419.95 520.909 414.54 516.659 412.29L514.859 411.29L515.079 394.78C516.13 394.162 517.219 393.611 518.339 393.13C524.019 390.65 535.669 387.28 541.509 398.13C549.389 412.68 541.719 420.67 536.069 420.29Z" fill="#FFD6D6"/>
<path opacity="0.1" d="M439.301 218.29C438.843 218.577 438.339 218.784 437.811 218.9C434.101 219.71 429.881 216.52 426.701 218.57C424.761 219.83 424.311 222.44 424.051 224.74C423.598 228.74 423.144 232.714 422.691 236.66C422.596 238.065 422.299 239.449 421.811 240.77C420.241 244.36 415.931 246.05 412.001 245.99C410.461 246.1 408.941 245.597 407.771 244.59C407.081 243.89 406.711 242.91 405.951 242.27C400.951 238.08 399.431 248.35 400.751 251.27C402.871 256.04 410.401 260.64 407.241 266.7C406.709 267.685 405.903 268.494 404.921 269.03C400.159 267.539 395.812 264.955 392.226 261.484C388.641 258.013 385.917 253.751 384.273 249.04C382.628 244.329 382.108 239.298 382.754 234.35C383.4 229.402 385.194 224.674 387.993 220.543C390.792 216.412 394.518 212.992 398.874 210.558C403.231 208.124 408.096 206.742 413.081 206.523C418.066 206.305 423.033 207.255 427.586 209.298C432.139 211.341 436.151 214.42 439.301 218.29Z" fill="black"/>
<path d="M405.1 242.23C405.85 242.86 406.23 243.84 406.92 244.54C408.091 245.546 409.611 246.049 411.15 245.94C415.08 246 419.39 244.32 420.95 240.71C421.448 239.395 421.748 238.013 421.84 236.61L423.2 224.69C423.46 222.39 423.9 219.78 425.85 218.52C429.03 216.52 433.25 219.66 436.96 218.85C438.298 218.51 439.455 217.674 440.198 216.511C440.941 215.349 441.214 213.947 440.96 212.59C440.53 210.68 439.07 209.17 438.32 207.35C437.866 205.952 437.501 204.525 437.23 203.08C435.16 195.32 426.05 190.96 418.13 192.26C413.73 192.99 409.64 195.09 405.23 195.73C402.07 196.19 398.84 195.89 395.65 196.23C392.686 196.536 389.805 197.387 387.15 198.74C386.453 199.049 385.837 199.514 385.35 200.1C384.897 200.892 384.592 201.759 384.45 202.66C383.38 206.66 379.94 209.61 377.45 212.98C374.602 216.858 372.954 221.485 372.71 226.29C372.612 227.517 372.727 228.752 373.05 229.94C373.26 230.64 373.59 231.32 373.75 232.04C374.24 234.23 373.12 236.42 372.57 238.6C371.887 241.382 372.133 244.311 373.27 246.94C377.11 255.77 389.76 258.72 392.39 267.99C394.726 269.11 397.248 269.788 399.83 269.99C402.41 270.04 405.19 268.93 406.39 266.64C409.54 260.64 402.02 255.98 399.9 251.22C398.57 248.29 400.06 238.03 405.1 242.23Z" fill="#353045"/>
<path opacity="0.1" d="M658.009 260.84C656.411 265.408 655.731 270.248 656.009 275.08C654.469 276.39 652.789 272.47 651.009 273.48C646.129 276.3 640.489 283.01 634.449 283.01C629.211 283.013 624.047 281.776 619.379 279.4C617.923 273.785 615.913 268.328 613.379 263.11C613.379 263.11 664.829 241.23 658.009 260.84Z" fill="black"/>
<path d="M667.668 248.05C667.668 254.628 665.718 261.059 662.063 266.528C658.408 271.998 653.214 276.261 647.136 278.778C641.059 281.296 634.372 281.954 627.92 280.671C621.468 279.388 615.542 276.22 610.89 271.568C606.239 266.917 603.071 260.991 601.788 254.539C600.504 248.087 601.163 241.399 603.68 235.322C606.198 229.245 610.461 224.05 615.93 220.395C621.4 216.741 627.83 214.79 634.408 214.79C638.777 214.789 643.102 215.648 647.138 217.319C651.174 218.99 654.841 221.44 657.93 224.529C661.018 227.617 663.468 231.285 665.139 235.32C666.81 239.356 667.67 243.682 667.668 248.05Z" fill="#D28690"/>
<path d="M666.252 302.62C666.252 302.62 659.992 309.44 659.142 310C658.292 310.56 640.142 387 639.822 387.89C639.502 388.78 618.212 457.8 618.212 457.8L584.102 474.57L586.952 390.15L611.952 320.53C611.952 320.53 620.202 311.15 622.752 307.74C625.302 304.33 657.142 283.86 657.142 283.86L662.582 295.07L666.252 302.62Z" fill="#F0F3F7"/>
<path opacity="0.1" d="M661.741 296.78L622.521 324.86L621.891 309.44C624.451 306.03 656.281 285.57 656.281 285.57L661.741 296.78Z" fill="black"/>
<path d="M662.592 295.07L623.372 323.15L622.762 307.74C625.322 304.32 657.152 283.86 657.152 283.86L662.592 295.07Z" fill="#F0F3F7"/>
<path d="M621.451 300.88L622.761 307.74L613.991 316.65L620.991 300.98C620.991 300.98 605.991 311.43 601.491 314.2C596.991 316.97 592.491 326.35 592.321 328.91C592.151 331.47 585.071 370.05 585.071 370.05C585.071 370.05 579.741 384.33 581.241 388.38C582.741 392.43 573.141 520.12 573.141 520.12C574.424 517.64 576.238 515.474 578.454 513.775C580.67 512.075 583.233 510.886 585.961 510.29L582.541 434.83C582.541 434.83 586.701 384.63 586.911 383.99C587.121 383.35 596.611 354.25 596.611 354.25L621.451 300.88Z" fill="#585B8A"/>
<path opacity="0.1" d="M623.621 308.59L622.941 322.59C622.941 322.59 613.451 352.54 610.261 357.44C607.071 362.34 597.361 391.55 597.361 391.55L591.891 442.29L582.511 446.56L577.891 438.05L585.571 389.05C585.571 389.05 600.061 347.7 602.201 343.43L612.891 320.91L623.621 308.59Z" fill="black"/>
<path d="M622.76 307.74L622.09 321.74C622.09 321.74 612.6 351.69 609.4 356.59C606.2 361.49 596.51 390.7 596.51 390.7L591.07 441.43L581.69 445.69L577 437.17L584.68 388.17C584.68 388.17 599.17 346.81 601.3 342.55L612.07 320.06L622.76 307.74Z" fill="#FF4568"/>
<path d="M512.199 414.6L530.529 427.29C530.529 427.29 543.459 420.04 535.929 415.35C528.399 410.66 521.719 409.95 519.299 409.95C516.879 409.95 512.199 414.6 512.199 414.6Z" fill="#D28690"/>
<path d="M525.889 391.14C525.48 391.395 525.142 391.75 524.91 392.172C524.677 392.594 524.556 393.068 524.559 393.55C524.559 397.44 524.999 407.74 528.259 403.09C532.259 397.4 531.529 392.29 537.639 395.98C541.436 398.345 544.76 401.397 547.439 404.98L545.739 392.76C545.739 392.76 533.179 386.56 525.889 391.14Z" fill="#D28690"/>
<path opacity="0.1" d="M668.02 540.37C667.1 541.81 666.29 544.96 665.62 549.02C628.24 560.23 600.89 536.53 600.89 536.53C597.581 525.317 594.877 513.934 592.79 502.43C592.12 498.49 592.27 490.85 592.89 481.53L659.72 469.81C659.72 469.81 672.29 533.76 668.02 540.37Z" fill="black"/>
<path d="M706.392 349.58C704.692 355.13 705.332 366.42 705.332 366.42L689.982 438.9C689.982 438.9 682.522 494.75 681.242 502.21C679.962 509.67 677.832 542.5 677.832 542.5C634.342 563.82 600.832 534.83 600.832 534.83C597.523 523.613 594.819 512.227 592.732 500.72C590.592 488.06 596.892 437.34 599.872 414.81C600.762 408.14 601.362 403.94 601.362 403.94L612.552 362.37C612.552 362.37 626.302 327.3 631.422 317.07C636.542 306.84 657.102 283.86 657.102 283.86C659.652 282.24 663.732 287.96 666.762 293.17C669.052 297.11 670.762 300.77 670.762 300.77C670.762 300.77 696.342 311.85 700.172 317.77C704.002 323.69 703.372 335.89 703.802 336.53C704.232 337.17 708.102 344.04 706.392 349.58Z" fill="#585B8A"/>
<path opacity="0.1" d="M646.072 323.79C646.072 323.79 647.992 335.09 643.072 338.5C638.322 341.8 602.962 411.33 600.762 415.67C601.652 408.99 602.252 404.79 602.252 404.79L613.442 363.23C613.442 363.23 627.202 328.16 632.312 317.92C637.422 307.68 658.002 284.71 658.002 284.71C660.552 283.09 664.622 288.81 667.652 294.02C663.082 303.51 653.552 321.45 646.072 323.79Z" fill="black"/>
<path d="M645.221 322.94C645.221 322.94 647.131 334.24 642.221 337.65C637.311 341.06 602.121 410.47 599.891 414.81C600.781 408.14 601.381 403.94 601.381 403.94L612.571 362.37C612.571 362.37 626.321 327.3 631.441 317.07C636.561 306.84 657.121 283.86 657.121 283.86C659.671 282.24 663.751 287.96 666.781 293.17C662.231 302.65 652.691 320.6 645.221 322.94Z" fill="#585B8A"/>
<path d="M695.952 425.05L683.922 487.64V487.65L682.772 493.64V493.65L680.182 507.12L669.132 504.78L663.982 503.69L592.712 488.59L587.472 487.48L575.512 484.95L577.852 469.41L578.822 462.95L587.452 405.65L695.952 425.05Z" fill="#6C63FF"/>
<path d="M629.442 476.21C629.442 476.21 601.092 486.44 607.272 498.59C613.452 510.74 653.102 489.21 653.102 489.21L629.442 476.21Z" fill="#D28690"/>
<path opacity="0.1" d="M649.691 563.39C649.691 564.24 650.761 575.12 655.021 578.95C659.281 582.78 649.691 563.39 649.691 563.39Z" fill="black"/>
<path opacity="0.1" d="M621.129 601.97C621.129 601.97 626.239 616.04 646.489 621.8C666.739 627.56 621.129 601.97 621.129 601.97Z" fill="black"/>
<path opacity="0.1" d="M667.671 248.05C667.673 253.897 666.132 259.641 663.206 264.703C660.279 269.764 656.069 273.965 651.001 276.88C649.091 275.811 647.396 274.397 646.001 272.71C644.551 270.95 643.421 268.55 644.291 266.45C644.991 264.76 646.841 263.69 647.291 261.94C647.503 260.87 647.448 259.764 647.131 258.72C646.761 257.07 646.411 255.42 646.051 253.78C645.741 252.38 645.191 250.73 643.801 250.39C642.411 250.05 641.251 251.21 640.161 252.07C637.491 254.18 632.371 255.61 629.161 253.88C625.951 252.15 626.851 246.36 626.331 243.23C626.325 242.958 626.259 242.691 626.138 242.447C626.017 242.204 625.844 241.99 625.631 241.82C625.164 241.665 624.665 241.631 624.181 241.72C622.451 241.72 621.061 240.17 620.561 238.51C620.207 236.815 620.013 235.091 619.981 233.36C619.791 231.63 619.161 229.8 617.681 228.91C616.499 228.36 615.187 228.145 613.891 228.29L607.621 228.36C611.781 222.737 617.607 218.568 624.272 216.446C630.937 214.324 638.101 214.358 644.746 216.542C651.391 218.726 657.178 222.949 661.285 228.611C665.392 234.273 667.609 241.086 667.621 248.08L667.671 248.05Z" fill="black"/>
<path d="M641.051 252.07C642.141 251.21 643.341 250.07 644.691 250.4C646.041 250.73 646.621 252.4 646.931 253.78L648.011 258.71C648.331 259.756 648.389 260.865 648.181 261.94C647.671 263.7 645.831 264.76 645.121 266.45C644.251 268.55 645.391 270.95 646.831 272.7C649.458 275.865 653.089 278.036 657.121 278.85C658.174 279.103 659.268 279.127 660.331 278.92C662.711 278.37 664.331 276.18 665.611 274.13C672.221 263.83 677.911 252.54 679.071 240.36C679.389 237.875 679.274 235.355 678.731 232.91C678.189 231.009 677.424 229.18 676.451 227.46C674.749 223.945 672.587 220.673 670.021 217.73C665.471 212.83 659.191 209.82 652.741 208.04C645.486 206.027 637.911 205.433 630.431 206.29C628.431 206.52 626.511 206.85 624.541 206.98C622.068 207.095 619.589 207.055 617.121 206.86L602.401 205.98C601.561 207.69 602.401 209.72 603.401 211.32C604.401 212.92 605.641 214.58 605.561 216.48C605.481 218.38 604.131 219.88 603.091 221.48C602.051 223.08 601.261 225.15 602.301 226.71C603.341 228.27 605.461 228.37 607.301 228.35L614.721 228.27C616.014 228.137 617.318 228.362 618.491 228.92C619.971 229.81 620.601 231.65 620.791 233.37C620.833 235.1 621.027 236.824 621.371 238.52C621.881 240.18 623.261 241.75 624.991 241.73C625.475 241.633 625.977 241.671 626.441 241.84C626.653 242.007 626.826 242.22 626.947 242.462C627.068 242.704 627.134 242.969 627.141 243.24C627.661 246.37 626.701 252.15 629.971 253.89C633.241 255.63 638.381 254.18 641.051 252.07Z" fill="#663D5C"/>
<path opacity="0.1" d="M683.318 317.76C679.641 317.37 675.941 318.241 672.825 320.23C669.708 322.22 667.361 325.21 666.168 328.71C662.168 340.1 655.498 360.65 657.168 368.77C659.518 380.28 662.288 399.47 662.288 399.47C662.288 399.47 674.438 406.47 668.288 413.53C662.138 420.59 660.398 430.59 660.398 430.59C660.398 430.59 652.508 434 650.808 441.25C649.108 448.5 637.588 458.51 637.588 458.51L620.328 475.78C620.328 475.78 648.888 504.78 654.648 506.26L672.338 485.58L693.228 457.87L711.348 438.87C711.348 438.87 715.608 428.87 713.478 409.87C711.348 390.87 703.028 372.78 703.028 372.78L703.668 366.38C703.668 366.38 705.628 320.53 683.318 317.76Z" fill="black"/>
<path d="M685.019 317.76C681.346 317.374 677.65 318.248 674.538 320.237C671.425 322.227 669.081 325.214 667.889 328.71C663.889 340.1 657.219 360.65 658.889 368.77C661.229 380.28 663.999 399.47 663.999 399.47C663.999 399.47 676.149 406.47 669.999 413.53C663.849 420.59 662.119 430.59 662.119 430.59C662.119 430.59 654.229 434 652.519 441.25C650.809 448.5 639.309 458.51 639.309 458.51L622.039 475.78C622.039 475.78 650.599 504.78 656.359 506.26L674.049 485.58L694.889 457.87L713.009 438.87C713.009 438.87 717.279 428.87 715.139 409.87C712.999 390.87 704.699 372.78 704.699 372.78L705.339 366.38C705.339 366.38 707.329 320.53 685.019 317.76Z" fill="#585B8A"/>
<path opacity="0.1" d="M667.172 382.63C667.172 382.63 685.292 404.79 692.972 399.89C700.652 394.99 667.172 382.63 667.172 382.63Z" fill="black"/>
<path opacity="0.1" d="M673.988 365.57C675.908 366.21 691.688 388.17 699.788 385.57C707.888 382.97 673.988 365.57 673.988 365.57Z" fill="black"/>
<path opacity="0.1" d="M678.469 403.29C678.469 403.29 679.539 415.87 692.539 414.16C705.539 412.45 678.469 403.29 678.469 403.29Z" fill="black"/>
<path opacity="0.1" d="M621.018 301.83L613.988 317.5L622.768 308.59L621.018 301.83Z" fill="black"/>
<path d="M621.018 300.98L613.988 316.65L622.768 307.74L621.018 300.98Z" fill="#F0F3F7"/>
<path opacity="0.3" d="M592.712 488.59L587.472 487.48L577.852 469.41L578.822 462.95L592.712 488.59Z" fill="black"/>
<path opacity="0.3" d="M683.92 487.65L682.771 493.64V493.65L669.13 504.78L663.98 503.69L683.92 487.65Z" fill="black"/>
<path opacity="0.1" d="M469.01 417.72C466.37 418.16 463.81 418.56 461.47 418.86C448.47 420.57 417.55 405.22 417.55 405.22C417.55 405.22 379.82 373.67 368.95 343.83C358.08 313.99 381.95 309.51 381.95 309.51C390.95 304.39 410.52 318.67 413.29 321.02C416.06 323.37 418.41 329.33 418.19 333.17C417.97 337.01 424.59 341.91 424.59 341.91C424.59 341.91 435.89 361.52 438.66 363.65C441.43 365.78 442.07 367.7 442.92 371.33C443.77 374.96 451.23 377.94 454.43 377.72C457.63 377.5 461.43 378.79 461.43 380.49C461.43 381.86 464.56 382.54 467.13 382.76C467.89 393.69 468.64 408.01 469.01 417.72Z" fill="black"/>
<path opacity="0.1" d="M468.891 414.6C466.891 414.92 464.971 415.21 463.171 415.45C450.171 417.16 419.261 401.81 419.261 401.81C419.261 401.81 381.531 370.26 370.661 340.42C359.791 310.58 383.661 306.1 383.661 306.1C392.661 300.98 412.221 315.26 414.991 317.61C417.761 319.96 420.111 325.92 419.901 329.76C419.691 333.6 426.291 338.5 426.291 338.5C426.291 338.5 437.591 358.11 440.361 360.24C443.131 362.37 443.771 364.29 444.631 367.92C445.491 371.55 452.941 374.52 456.141 374.31C459.341 374.1 463.141 375.38 463.141 377.08C463.141 378.08 464.921 378.75 466.901 379.08C466.981 380.24 467.051 381.47 467.141 382.75C467.801 392.58 468.481 405.12 468.891 414.6Z" fill="black"/>
<path opacity="0.1" d="M518.339 393.13L517.529 412.29H516.659L514.859 411.29L515.079 394.78C516.13 394.162 517.219 393.611 518.339 393.13V393.13Z" fill="black"/>
<path d="M381.95 307.8C381.95 307.8 358.08 312.28 368.95 342.12C379.82 371.96 417.55 403.52 417.55 403.52C417.55 403.52 448.46 418.86 461.47 417.16C474.48 415.46 494.29 410.98 496.85 411.62C499.41 412.26 516.68 412.26 516.68 412.26L517.53 392.26L497.53 391.19L487.3 389.06C487.3 389.06 483.67 386.06 481.54 386.5C479.41 386.94 474.94 383.94 474.94 383.94C474.94 383.94 471.52 381.17 468.94 381.17C466.36 381.17 461.48 380.53 461.48 378.83C461.48 377.13 457.64 375.83 454.48 376.06C451.32 376.29 443.77 373.29 442.89 369.62C442.01 365.95 441.4 364.08 438.63 361.95C435.86 359.82 424.56 340.2 424.56 340.2C424.56 340.2 417.95 335.3 418.16 331.47C418.37 327.64 416.03 321.66 413.26 319.31C410.49 316.96 390.89 302.69 381.95 307.8Z" fill="#DCE6F2"/>
<path opacity="0.1" d="M443.349 376.44C443.349 376.44 434.179 385.61 436.519 387.31L443.349 376.44Z" fill="black"/>
<path opacity="0.1" d="M453.148 383.69C453.148 383.69 441.208 392.86 444.408 393.5C447.608 394.14 453.148 383.69 453.148 383.69Z" fill="black"/>
<path opacity="0.1" d="M432.891 397.29C434.601 398.15 459.961 413.29 469.561 413.07L432.891 397.29Z" fill="black"/>
<path opacity="0.1" d="M434.611 296.08C434.611 296.08 430.131 310.79 428.421 310.79C427.081 310.79 404.581 292.57 395.191 284.91L395.601 284.57C395.601 284.57 396.451 277.96 399.861 274.57C403.271 271.18 434.611 296.08 434.611 296.08Z" fill="black"/>
<path d="M433.748 294.37C433.748 294.37 429.278 309.08 427.568 309.08C426.218 309.08 403.718 290.86 394.328 283.2L394.738 282.86C394.738 282.86 395.598 276.25 399.008 272.86C402.418 269.47 433.748 294.37 433.748 294.37Z" fill="#DCE6F2"/>
<g opacity="0.15">
<path opacity="0.15" d="M373.379 246.83C376.379 253.68 384.639 257 389.429 262.46C386.579 255.75 378.249 252.46 373.379 246.83Z" fill="black"/>
<path opacity="0.15" d="M403.949 262.61C402.759 264.9 399.949 266.01 397.389 265.96C395.113 265.797 392.884 265.228 390.809 264.28C391.562 265.39 392.135 266.612 392.509 267.9C394.843 269.022 397.366 269.7 399.949 269.9C402.539 269.96 405.319 268.85 406.509 266.55C408.419 262.9 406.429 259.78 404.099 256.83C404.533 257.737 404.746 258.733 404.72 259.738C404.694 260.743 404.429 261.727 403.949 262.61V262.61Z" fill="black"/>
<path opacity="0.15" d="M441.058 212.49C440.628 210.57 439.168 209.06 438.418 207.25C437.959 205.849 437.595 204.42 437.328 202.97C436.76 200.92 435.707 199.037 434.258 197.48C434.459 197.972 434.63 198.477 434.768 198.99C435.048 200.446 435.422 201.882 435.888 203.29C436.638 205.1 438.098 206.61 438.528 208.53C438.781 209.886 438.509 211.288 437.766 212.451C437.023 213.614 435.865 214.45 434.528 214.79C430.828 215.6 426.608 212.4 423.428 214.46C421.478 215.71 421.028 218.32 420.768 220.62C420.321 224.62 419.868 228.597 419.408 232.55C419.318 233.952 419.021 235.334 418.528 236.65C416.958 240.25 412.648 241.94 408.718 241.88C407.182 241.983 405.668 241.48 404.498 240.48C403.929 239.675 403.319 238.9 402.668 238.16C397.668 233.96 396.148 244.23 397.468 247.16C398.129 248.478 398.948 249.71 399.908 250.83C398.808 247.53 400.348 238.03 405.228 242.1C405.878 242.838 406.486 243.613 407.048 244.42C408.222 245.419 409.74 245.921 411.278 245.82C415.208 245.88 419.518 244.19 421.088 240.59C421.582 239.271 421.879 237.886 421.968 236.48C422.421 232.48 422.875 228.507 423.328 224.56C423.588 222.26 424.038 219.65 425.978 218.4C429.168 216.34 433.388 219.54 437.088 218.72C438.415 218.376 439.562 217.542 440.299 216.386C441.035 215.23 441.307 213.838 441.058 212.49V212.49Z" fill="black"/>
</g>
<path opacity="0.1" d="M662.461 276.37C661.398 276.568 660.304 276.541 659.251 276.29C655.224 275.476 651.597 273.31 648.971 270.15C647.521 268.39 646.381 265.99 647.261 263.89C647.961 262.2 649.801 261.14 650.261 259.38C650.469 258.305 650.411 257.196 650.091 256.15L649.011 251.22C648.701 249.82 648.161 248.17 646.771 247.84C645.381 247.51 644.221 248.65 643.131 249.51C640.461 251.62 635.331 253.06 632.131 251.32C628.931 249.58 629.821 243.8 629.301 240.67C629.293 240.4 629.226 240.135 629.105 239.893C628.984 239.651 628.812 239.439 628.601 239.27C628.133 239.107 627.629 239.069 627.141 239.16C625.411 239.16 624.031 237.61 623.521 235.95C623.175 234.254 622.984 232.53 622.951 230.8C622.751 229.08 622.131 227.24 620.641 226.35C619.467 225.797 618.164 225.572 616.871 225.7L609.451 225.78C607.621 225.78 605.451 225.66 604.451 224.14C603.451 222.62 604.191 220.46 605.241 218.91C606.291 217.36 607.621 215.82 607.711 213.91C607.801 212 606.561 210.35 605.551 208.75C604.972 207.875 604.546 206.908 604.291 205.89L602.161 205.76C601.331 207.46 602.161 209.49 603.161 211.1C604.161 212.71 605.411 214.36 605.321 216.25C605.231 218.14 603.901 219.66 602.851 221.25C601.801 222.84 601.031 224.92 602.071 226.48C603.111 228.04 605.221 228.15 607.071 228.13L614.491 228.04C615.785 227.915 617.088 228.143 618.261 228.7C619.751 229.59 620.381 231.43 620.571 233.15C620.603 234.881 620.797 236.605 621.151 238.3C621.651 239.95 623.041 241.53 624.771 241.5C625.256 241.414 625.755 241.452 626.221 241.61C626.433 241.78 626.605 241.995 626.726 242.238C626.847 242.481 626.914 242.748 626.921 243.02C627.441 246.14 626.481 251.93 629.751 253.67C633.021 255.41 638.121 253.97 640.751 251.86C641.841 251 643.051 249.86 644.401 250.18C645.751 250.5 646.331 252.18 646.631 253.56L647.721 258.5C648.038 259.547 648.093 260.656 647.881 261.73C647.381 263.48 645.531 264.55 644.831 266.23C643.961 268.33 645.091 270.74 646.541 272.49C649.185 275.663 652.839 277.831 656.891 278.63C657.944 278.881 659.038 278.908 660.101 278.71C661.82 278.186 663.296 277.065 664.261 275.55C663.715 275.928 663.106 276.206 662.461 276.37Z" fill="black"/>
<path opacity="0.3" d="M203.69 718.01C217.038 718.01 227.86 716.349 227.86 714.3C227.86 712.251 217.038 710.59 203.69 710.59C190.341 710.59 179.52 712.251 179.52 714.3C179.52 716.349 190.341 718.01 203.69 718.01Z" fill="#032B4D"/>
<path opacity="0.1" d="M1047.61 621.55C1060.96 621.55 1071.78 619.889 1071.78 617.84C1071.78 615.791 1060.96 614.13 1047.61 614.13C1034.26 614.13 1023.44 615.791 1023.44 617.84C1023.44 619.889 1034.26 621.55 1047.61 621.55Z" fill="#6C63FF"/>
<path opacity="0.3" d="M801.199 778.08C839.859 778.08 871.199 773.272 871.199 767.34C871.199 761.409 839.859 756.6 801.199 756.6C762.539 756.6 731.199 761.409 731.199 767.34C731.199 773.272 762.539 778.08 801.199 778.08Z" fill="#032B4D"/>
<path opacity="0.3" d="M1000.19 730.22C1030.34 730.22 1054.79 726.468 1054.79 721.84C1054.79 717.212 1030.34 713.46 1000.19 713.46C970.035 713.46 945.59 717.212 945.59 721.84C945.59 726.468 970.035 730.22 1000.19 730.22Z" fill="#032B4D"/>
<path opacity="0.3" d="M991.199 819.55C1042.34 819.55 1083.79 813.188 1083.79 805.34C1083.79 797.492 1042.34 791.13 991.199 791.13C940.063 791.13 898.609 797.492 898.609 805.34C898.609 813.188 940.063 819.55 991.199 819.55Z" fill="#032B4D"/>
<path opacity="0.3" d="M100.238 828.58C138.898 828.58 170.238 823.772 170.238 817.84C170.238 811.909 138.898 807.1 100.238 807.1C61.5784 807.1 30.2383 811.909 30.2383 817.84C30.2383 823.772 61.5784 828.58 100.238 828.58Z" fill="#032B4D"/>
<path d="M204.79 596.14C204.79 596.14 207.53 599.72 203.53 605.14C199.53 610.56 196.23 615.14 197.53 618.48C197.53 618.48 203.53 608.48 208.53 608.3C213.53 608.12 210.2 602.18 204.79 596.14Z" fill="#6C63FF"/>
<path opacity="0.1" d="M204.792 596.14C205.036 596.482 205.225 596.86 205.352 597.26C210.152 602.9 212.702 608.15 208.092 608.26C203.802 608.38 198.652 616.06 197.422 618C197.459 618.15 197.506 618.297 197.562 618.44C197.562 618.44 203.562 608.44 208.562 608.26C213.562 608.08 210.202 602.18 204.792 596.14Z" fill="black"/>
<path d="M209.89 600.7C209.89 601.96 209.74 602.98 209.57 602.98C209.4 602.98 209.25 601.98 209.25 600.7C209.25 599.42 209.43 600.04 209.6 600.04C209.77 600.04 209.89 599.44 209.89 600.7Z" fill="#FFD037"/>
<path d="M211.628 602.21C210.528 602.81 209.558 603.21 209.478 603.02C209.398 602.83 210.218 602.26 211.328 601.65C212.438 601.04 211.998 601.49 212.078 601.65C212.158 601.81 212.738 601.6 211.628 602.21Z" fill="#FFD037"/>
<path d="M190.329 596.14C190.329 596.14 187.589 599.72 191.589 605.14C195.589 610.56 198.899 615.14 197.589 618.48C197.589 618.48 191.589 608.48 186.639 608.3C181.689 608.12 184.889 602.18 190.329 596.14Z" fill="#6C63FF"/>
<path opacity="0.1" d="M190.332 596.14C190.093 596.485 189.904 596.862 189.772 597.26C184.972 602.9 182.422 608.15 187.032 608.26C191.322 608.38 196.472 616.06 197.712 618C197.671 618.15 197.621 618.297 197.562 618.44C197.562 618.44 191.562 608.44 186.612 608.26C181.662 608.08 184.892 602.18 190.332 596.14Z" fill="black"/>
<path d="M185.238 600.7C185.238 601.96 185.378 602.98 185.548 602.98C185.718 602.98 185.868 601.98 185.868 600.7C185.868 599.42 185.688 600.04 185.518 600.04C185.348 600.04 185.238 599.44 185.238 600.7Z" fill="#FFD037"/>
<path d="M183.489 602.21C184.599 602.81 185.559 603.21 185.649 603.02C185.739 602.83 184.899 602.26 183.789 601.65C182.679 601.04 183.119 601.49 183.039 601.65C182.959 601.81 182.379 601.6 183.489 602.21Z" fill="#FFD037"/>
<path opacity="0.1" d="M197.56 645.86C213.372 645.86 226.19 643.895 226.19 641.47C226.19 639.046 213.372 637.08 197.56 637.08C181.748 637.08 168.93 639.046 168.93 641.47C168.93 643.895 181.748 645.86 197.56 645.86Z" fill="#6C63FF"/>
<path d="M212.298 613.64L212.158 614.76L211.968 616.34L211.888 617L211.698 618.58L211.608 619.24L211.418 620.82L209.228 638.82C209.038 640.42 206.418 641.67 203.228 641.67H191.888C188.728 641.67 186.108 640.42 185.888 638.82L183.698 620.82L183.508 619.24L183.428 618.58L183.228 617L183.148 616.34L182.959 614.76L182.818 613.64C182.708 612.73 184.128 611.97 185.918 611.97H209.209C210.989 611.97 212.408 612.73 212.298 613.64Z" fill="#65617D"/>
<path d="M212.161 614.76L211.971 616.34H183.151L182.961 614.76H212.161Z" fill="#9D9CB5"/>
<path d="M211.89 617L211.7 618.58H183.43L183.23 617H211.89Z" fill="#9D9CB5"/>
<path d="M211.622 619.24L211.422 620.82H183.702L183.512 619.24H211.622Z" fill="#9D9CB5"/>
<path d="M1028.56 582.29C1028.56 582.29 1025.14 598.21 1040.35 600.09L1041.29 598.32C1041.29 598.32 1029.5 587.23 1028.56 582.29Z" fill="#009688"/>
<path d="M1046.13 598.19L1042.59 598.94L1042.24 599.02C1042.24 599.02 1032.8 591.36 1032.92 574.26C1034.18 576.781 1035.69 579.17 1037.43 581.39C1041.17 586.34 1045.42 592.94 1046.13 598.19Z" fill="#009688"/>
<path d="M1047.32 599.83C1047.04 600.011 1046.73 600.127 1046.4 600.171C1046.07 600.214 1045.74 600.183 1045.42 600.08C1036.34 597.96 1039.42 568.37 1039.42 568.37C1039.92 568.6 1040.42 572.37 1042.56 577.23C1046.21 585.76 1050.24 597.69 1047.32 599.83Z" fill="#009688"/>
<path d="M1067.46 582.29C1067.46 582.29 1068.05 598.21 1052.84 600.09L1051.89 598.29C1051.89 598.29 1066.52 587.23 1067.46 582.29Z" fill="#009688"/>
<path d="M1063.1 574.29C1063.22 591.39 1050.96 599.05 1050.96 599.05L1050.6 598.97L1047.07 598.22C1047.77 592.97 1052.07 586.37 1055.76 581.42C1057.88 578.727 1060.35 576.329 1063.1 574.29V574.29Z" fill="#009688"/>
<path d="M1050.55 598.29C1050.01 598.954 1049.33 599.485 1048.55 599.84V599.84C1048.31 599.948 1048.06 600.032 1047.8 600.09C1045.57 600.61 1044.8 599 1044.92 596.26C1045.13 591.39 1048.19 582.94 1050.92 576.61C1052.23 573.504 1054.17 570.703 1056.62 568.38C1056.62 568.38 1056.48 591.41 1050.55 598.29Z" fill="#009688"/>
<path d="M1048.01 557.99C1048.01 557.99 1037.87 593.99 1046.6 599.37C1055.33 604.75 1050.25 561.17 1048.01 557.99Z" fill="#009688"/>
<path opacity="0.1" d="M1028.56 582.29C1028.56 582.29 1025.14 598.21 1040.35 600.09L1041.29 598.32C1041.29 598.32 1029.5 587.23 1028.56 582.29Z" fill="#009688"/>
<path opacity="0.1" d="M1046.13 598.19L1042.59 598.94L1042.24 599.02C1042.24 599.02 1032.8 591.36 1032.92 574.26C1034.18 576.781 1035.69 579.17 1037.43 581.39C1041.17 586.34 1045.42 592.94 1046.13 598.19Z" fill="#009688"/>
<path opacity="0.1" d="M1047.32 599.83C1047.04 600.011 1046.73 600.127 1046.4 600.171C1046.07 600.214 1045.74 600.183 1045.42 600.08C1036.34 597.96 1039.42 568.37 1039.42 568.37C1039.92 568.6 1040.42 572.37 1042.56 577.23C1046.21 585.76 1050.24 597.69 1047.32 599.83Z" fill="#009688"/>
<path opacity="0.1" d="M1067.46 582.29C1067.46 582.29 1068.05 598.21 1052.84 600.09L1051.89 598.29C1051.89 598.29 1066.52 587.23 1067.46 582.29Z" fill="#009688"/>
<path opacity="0.1" d="M1063.1 574.29C1063.22 591.39 1050.96 599.05 1050.96 599.05L1050.6 598.97L1047.07 598.22C1047.77 592.97 1052.07 586.37 1055.76 581.42C1057.88 578.727 1060.35 576.329 1063.1 574.29V574.29Z" fill="#009688"/>
<path opacity="0.1" d="M1050.55 598.29C1050.01 598.954 1049.33 599.485 1048.55 599.84V599.84C1048.31 599.948 1048.06 600.032 1047.8 600.09C1045.57 600.61 1044.8 599 1044.92 596.26C1045.13 591.39 1048.19 582.94 1050.92 576.61C1052.23 573.504 1054.17 570.703 1056.62 568.38C1056.62 568.38 1056.48 591.41 1050.55 598.29Z" fill="#009688"/>
<path opacity="0.1" d="M1048.01 557.99C1048.01 557.99 1037.87 593.99 1046.6 599.37C1055.33 604.75 1050.25 561.17 1048.01 557.99Z" fill="#009688"/>
<path d="M1028.56 582.29C1028.56 582.29 1026.56 598.21 1041.76 600.09L1042.7 598.32C1042.7 598.32 1029.5 587.23 1028.56 582.29Z" fill="#009688"/>
<path d="M1047.54 598.19L1044 598.94L1043.65 599.02C1043.65 599.02 1032.8 591.36 1032.89 574.29C1032.89 574.29 1035.67 577.29 1038.81 581.42C1042.58 586.34 1046.83 592.94 1047.54 598.19Z" fill="#009688"/>
<path opacity="0.1" d="M1047.54 598.19L1044 598.94C1040.65 596 1039.32 588.32 1038.84 581.39C1042.58 586.34 1046.83 592.94 1047.54 598.19Z" fill="#009688"/>
<path d="M1048.74 599.83C1048.46 600.011 1048.14 600.128 1047.81 600.171C1047.48 600.214 1047.14 600.183 1046.83 600.08C1037.75 597.96 1039.41 568.37 1039.41 568.37C1039.91 568.6 1041.87 572.37 1043.96 577.23C1047.63 585.76 1051.65 597.69 1048.74 599.83Z" fill="#009688"/>
<path d="M1067.46 582.29C1067.46 582.29 1069.46 598.21 1054.26 600.09L1053.32 598.32C1053.32 598.32 1066.52 587.23 1067.46 582.29Z" fill="#009688"/>
<path d="M1063.1 574.29C1063.22 591.39 1052.37 599.05 1052.37 599.05L1052.02 598.97L1048.48 598.22C1049.18 592.97 1053.48 586.37 1057.18 581.42C1060.32 577.29 1063.1 574.29 1063.1 574.29Z" fill="#009688"/>
<path opacity="0.1" d="M1057.18 581.39C1056.72 587.85 1055.54 594.96 1052.67 598.28C1052.47 598.519 1052.26 598.74 1052.02 598.94L1048.48 598.19C1049.18 592.94 1053.44 586.34 1057.18 581.39Z" fill="#009688"/>
<path d="M1051.96 598.29C1051.43 598.957 1050.74 599.489 1049.96 599.84V599.84C1049.72 599.947 1049.47 600.031 1049.22 600.09C1046.98 600.61 1046.22 599 1046.33 596.26C1046.55 591.39 1049.61 582.94 1052.33 576.61C1054.33 572.06 1056.14 568.61 1056.62 568.38C1056.62 568.37 1057.89 591.41 1051.96 598.29Z" fill="#009688"/>
<path opacity="0.1" d="M1048.74 599.83C1048.22 599.836 1047.72 599.674 1047.3 599.37C1043.03 596.71 1042.94 586.73 1043.96 577.23C1047.63 585.76 1051.65 597.69 1048.74 599.83Z" fill="#009688"/>
<path opacity="0.1" d="M1051.96 598.29C1051.47 599.36 1050.81 599.92 1049.96 599.84C1049.52 599.787 1049.11 599.629 1048.75 599.38C1047.64 598.618 1046.79 597.527 1046.33 596.26C1046.55 591.39 1049.61 582.94 1052.33 576.61C1053.31 585.38 1053.64 594.68 1051.96 598.29Z" fill="#009688"/>
<path d="M1048.01 557.99C1048.01 557.99 1039.29 593.99 1048.01 599.37C1056.73 604.75 1050.25 561.17 1048.01 557.99Z" fill="#009688"/>
<path d="M1064.75 597.61H1028.44V603.62H1033.98L1034.12 604.33L1036.34 616H1057.45L1059.67 604.33L1059.8 603.62H1064.75V597.61Z" fill="#4B4770"/>
<path opacity="0.1" d="M1064.75 597.61H1028.44V603.62H1033.98L1034.12 604.33L1036.34 616H1057.45L1059.67 604.33L1059.8 603.62H1064.75V597.61Z" fill="black"/>
<path d="M1061.69 601.14L1061.08 604.33L1058.86 616H1037.75L1035.53 604.33L1034.92 601.14H1061.69Z" fill="#4B4770"/>
<path opacity="0.1" d="M1061.69 601.14L1061.08 604.33H1035.53L1034.92 601.14H1061.69Z" fill="black"/>
<path d="M1066.16 597.61H1029.85V603.62H1066.16V597.61Z" fill="#4B4770"/>
<path d="M139.391 700.45C138.433 701.769 137.666 703.217 137.111 704.75C136.971 705.12 136.831 705.55 136.691 705.96C136.437 705.841 136.172 705.747 135.901 705.68C134.735 705.385 133.529 705.284 132.331 705.38C132.331 704.91 132.391 704.38 132.401 703.91C132.551 698.64 131.931 691.3 126.901 694.41C122.081 697.41 125.521 702.41 128.631 705.61C128.901 705.89 129.171 706.15 129.431 706.4C126.591 708.4 126.051 713.13 125.581 718.04C125.111 722.95 120.941 728.32 118.171 731.37C117.891 731.68 117.641 731.96 117.391 732.22C116.271 731.326 114.975 730.68 113.587 730.323C112.2 729.966 110.752 729.907 109.341 730.15C109.231 729.72 109.101 729.27 108.971 728.8C106.731 720.71 102.081 706.7 96.1506 703.63L96.9306 702.63C99.4506 699.34 102.291 694.44 98.1006 693.19C93.9106 691.94 93.5306 697.43 93.7606 701.55C93.8006 702.07 93.8406 702.56 93.8806 703.02C93.043 703.058 92.2221 703.268 91.4687 703.636C90.7153 704.004 90.0455 704.522 89.5006 705.16L88.8506 704.39C85.4506 700.39 79.2206 694.02 77.3306 698.83C75.5706 703.31 81.0606 709.13 84.9206 712.5L85.1606 712.71C82.5706 723.22 93.8806 731.79 99.9706 735.54L100.761 736.02C92.3606 745.92 87.1706 764.48 87.1706 764.48L110.691 768.68C110.691 768.68 126.291 755.22 124.291 742.58H124.451C140.041 739.46 143.581 722.84 141.151 712.97L141.431 712.86C144.271 711.698 146.759 709.816 148.651 707.4C153.011 701.35 143.891 694.51 139.391 700.45Z" fill="#6C63FF"/>
<path opacity="0.1" d="M139.391 700.45C138.433 701.769 137.666 703.217 137.111 704.75C136.971 705.12 136.831 705.55 136.691 705.96C136.437 705.841 136.172 705.747 135.901 705.68C134.735 705.385 133.529 705.284 132.331 705.38C132.331 704.91 132.391 704.38 132.401 703.91C132.551 698.64 131.931 691.3 126.901 694.41C122.081 697.41 125.521 702.41 128.631 705.61C128.901 705.89 129.171 706.15 129.431 706.4C126.591 708.4 126.051 713.13 125.581 718.04C125.111 722.95 120.941 728.32 118.171 731.37C117.891 731.68 117.641 731.96 117.391 732.22C116.271 731.326 114.975 730.68 113.587 730.323C112.2 729.966 110.752 729.907 109.341 730.15C109.231 729.72 109.101 729.27 108.971 728.8C106.731 720.71 102.081 706.7 96.1506 703.63L96.9306 702.63C99.4506 699.34 102.291 694.44 98.1006 693.19C93.9106 691.94 93.5306 697.43 93.7606 701.55C93.8006 702.07 93.8406 702.56 93.8806 703.02C93.043 703.058 92.2221 703.268 91.4687 703.636C90.7153 704.004 90.0455 704.522 89.5006 705.16L88.8506 704.39C85.4506 700.39 79.2206 694.02 77.3306 698.83C75.5706 703.31 81.0606 709.13 84.9206 712.5L85.1606 712.71C82.5706 723.22 93.8806 731.79 99.9706 735.54L100.761 736.02C92.3606 745.92 87.1706 764.48 87.1706 764.48L110.691 768.68C110.691 768.68 126.291 755.22 124.291 742.58H124.451C140.041 739.46 143.581 722.84 141.151 712.97L141.431 712.86C144.271 711.698 146.759 709.816 148.651 707.4C153.011 701.35 143.891 694.51 139.391 700.45Z" fill="black"/>
<path d="M92.5681 707.29L89.8181 715.29C89.8181 715.29 88.2881 714.21 86.3581 712.51C82.4981 709.14 77.0081 703.32 78.7681 698.84C80.6581 694.03 86.8881 700.38 90.2881 704.4C91.6581 706 92.5681 707.29 92.5681 707.29Z" fill="#6C63FF"/>
<path d="M98.3715 702.64C97.5361 703.741 96.6415 704.796 95.6915 705.8C95.4567 704.396 95.2932 702.981 95.2015 701.56C94.9715 697.44 95.4115 691.97 99.5415 693.2C103.671 694.43 100.891 699.35 98.3715 702.64Z" fill="#6C63FF"/>
<path d="M133.891 703.91C133.811 706.56 133.551 708.68 133.551 708.68C132.341 707.733 131.196 706.707 130.121 705.61C127.011 702.38 123.571 697.4 128.391 694.41C133.371 691.29 133.991 698.64 133.891 703.91Z" fill="#6C63FF"/>
<path d="M150.091 707.38C148.2 709.797 145.711 711.679 142.871 712.84C142.082 713.181 141.274 713.475 140.451 713.72L137.211 709.17C137.551 707.666 137.999 706.189 138.551 704.75C139.106 703.217 139.874 701.77 140.831 700.45C145.311 694.51 154.451 701.35 150.091 707.38Z" fill="#6C63FF"/>
<path opacity="0.1" d="M90.2894 704.4C91.6594 706 92.5694 707.24 92.5694 707.24L89.8194 715.24C89.8194 715.24 88.2894 714.16 86.3594 712.46C86.7882 709.882 87.8537 707.452 89.4594 705.39C89.7294 705.06 90.0194 704.72 90.2894 704.4Z" fill="black"/>
<path opacity="0.1" d="M98.3692 702.64C97.5339 703.741 96.6392 704.796 95.6892 705.8C95.4545 704.396 95.2909 702.981 95.1992 701.56C96.3421 701.584 97.4496 701.961 98.3692 702.64V702.64Z" fill="black"/>
<path d="M111.891 734.6L105.051 737.6C105.051 737.6 103.561 736.88 101.411 735.54C94.2213 731.12 79.7713 719.99 89.4113 706.87C99.0513 693.75 107.181 717.28 110.411 728.79C111.381 732.29 111.891 734.6 111.891 734.6Z" fill="#009688"/>
<path opacity="0.1" d="M130.07 705.61C131.065 704.585 132.413 703.977 133.84 703.91C133.76 706.56 133.5 708.68 133.5 708.68C132.291 707.733 131.145 706.708 130.07 705.61V705.61Z" fill="black"/>
<path opacity="0.1" d="M142.89 712.84C142.102 713.181 141.294 713.475 140.47 713.72L137.23 709.17C137.571 707.666 138.018 706.189 138.57 704.75C140.64 705.97 142.18 709.01 142.89 712.84Z" fill="black"/>
<path d="M125.889 742.56C125.519 742.64 125.129 742.71 124.739 742.77C101.809 746.25 117.179 733.88 117.179 733.88C117.179 733.88 118.179 732.88 119.609 731.37C122.379 728.32 126.539 722.98 127.019 718.04C127.739 710.61 128.569 703.64 137.339 705.68C145.949 707.7 147.599 738.21 125.889 742.56Z" fill="#009688"/>
<path d="M125.458 799.65H81.6484V811.17H125.458V799.65Z" fill="#D4DFEC"/>
<path d="M131.931 762.21H74.6914V802.41H131.931V762.21Z" fill="#D4DFEC"/>
<path opacity="0.1" d="M125.458 799.65H81.6484V811.17H125.458V799.65Z" fill="black"/>
<path opacity="0.1" d="M131.931 762.21H74.6914V802.41H131.931V762.21Z" fill="black"/>
<path d="M128.341 799.65H84.5312V811.17H128.341V799.65Z" fill="#D4DFEC"/>
<path opacity="0.1" d="M110.41 728.8C111.41 732.24 111.89 734.6 111.89 734.6L105.05 737.6C105.05 737.6 103.56 736.88 101.41 735.54C104.09 732.15 107.11 729.59 110.41 728.8Z" fill="black"/>
<path opacity="0.1" d="M125.889 742.56C125.519 742.64 125.129 742.71 124.739 742.77C101.809 746.25 117.179 733.88 117.179 733.88C117.179 733.88 118.179 732.88 119.609 731.37C123.889 734.8 125.659 738.66 125.889 742.56Z" fill="black"/>
<path d="M88.6094 764.49C88.6094 764.49 101.449 718.49 119.459 732.68C137.469 746.87 112.129 768.68 112.129 768.68L88.6094 764.49Z" fill="#009688"/>
<path opacity="0.1" d="M95.0884 715.52C95.8837 715.52 96.5284 714.875 96.5284 714.08C96.5284 713.285 95.8837 712.64 95.0884 712.64C94.2931 712.64 93.6484 713.285 93.6484 714.08C93.6484 714.875 94.2931 715.52 95.0884 715.52Z" fill="black"/>
<path opacity="0.1" d="M94.9713 722.24C95.7665 722.24 96.4113 721.595 96.4113 720.8C96.4113 720.005 95.7665 719.36 94.9713 719.36C94.176 719.36 93.5312 720.005 93.5312 720.8C93.5312 721.595 94.176 722.24 94.9713 722.24Z" fill="black"/>
<path opacity="0.1" d="M136.741 716.84C137.536 716.84 138.181 716.195 138.181 715.4C138.181 714.605 137.536 713.96 136.741 713.96C135.945 713.96 135.301 714.605 135.301 715.4C135.301 716.195 135.945 716.84 136.741 716.84Z" fill="black"/>
<path opacity="0.1" d="M103.139 751.29C103.935 751.29 104.579 750.645 104.579 749.85C104.579 749.055 103.935 748.41 103.139 748.41C102.344 748.41 101.699 749.055 101.699 749.85C101.699 750.645 102.344 751.29 103.139 751.29Z" fill="black"/>
<path opacity="0.1" d="M133.741 728C134.536 728 135.181 727.355 135.181 726.56C135.181 725.765 134.536 725.12 133.741 725.12C132.945 725.12 132.301 725.765 132.301 726.56C132.301 727.355 132.945 728 133.741 728Z" fill="black"/>
<path opacity="0.1" d="M118.862 742.89C119.657 742.89 120.302 742.245 120.302 741.45C120.302 740.654 119.657 740.01 118.862 740.01C118.067 740.01 117.422 740.654 117.422 741.45C117.422 742.245 118.067 742.89 118.862 742.89Z" fill="black"/>
<path opacity="0.1" d="M100.01 718.4C100.806 718.4 101.45 717.755 101.45 716.96C101.45 716.165 100.806 715.52 100.01 715.52C99.215 715.52 98.5703 716.165 98.5703 716.96C98.5703 717.755 99.215 718.4 100.01 718.4Z" fill="black"/>
<path opacity="0.1" d="M132.78 721.16C133.575 721.16 134.22 720.516 134.22 719.72C134.22 718.925 133.575 718.28 132.78 718.28C131.985 718.28 131.34 718.925 131.34 719.72C131.34 720.516 131.985 721.16 132.78 721.16Z" fill="black"/>
<path opacity="0.1" d="M127.862 732.32C128.657 732.32 129.302 731.675 129.302 730.88C129.302 730.085 128.657 729.44 127.862 729.44C127.067 729.44 126.422 730.085 126.422 730.88C126.422 731.675 127.067 732.32 127.862 732.32Z" fill="black"/>
<path opacity="0.1" d="M112.741 750.21C113.536 750.21 114.181 749.565 114.181 748.77C114.181 747.975 113.536 747.33 112.741 747.33C111.945 747.33 111.301 747.975 111.301 748.77C111.301 749.565 111.945 750.21 112.741 750.21Z" fill="black"/>
<path opacity="0.1" d="M109.62 743.13C110.415 743.13 111.06 742.485 111.06 741.69C111.06 740.895 110.415 740.25 109.62 740.25C108.824 740.25 108.18 740.895 108.18 741.69C108.18 742.485 108.824 743.13 109.62 743.13Z" fill="black"/>
<path opacity="0.1" d="M102.17 727.16C102.966 727.16 103.61 726.516 103.61 725.72C103.61 724.925 102.966 724.28 102.17 724.28C101.375 724.28 100.73 724.925 100.73 725.72C100.73 726.516 101.375 727.16 102.17 727.16Z" fill="black"/>
<path opacity="0.1" d="M128.341 799.65H84.5312V803.86H128.341V799.65Z" fill="#FF4568"/>
<path d="M134.81 762.21H77.5703V802.41H134.81V762.21Z" fill="#FF4568"/>
<path opacity="0.1" d="M114.659 756.69C115.454 756.69 116.099 756.045 116.099 755.25C116.099 754.455 115.454 753.81 114.659 753.81C113.863 753.81 113.219 754.455 113.219 755.25C113.219 756.045 113.863 756.69 114.659 756.69Z" fill="black"/>
<path opacity="0.1" d="M106.018 758.49C106.813 758.49 107.458 757.845 107.458 757.05C107.458 756.255 106.813 755.61 106.018 755.61C105.223 755.61 104.578 756.255 104.578 757.05C104.578 757.845 105.223 758.49 106.018 758.49Z" fill="black"/>
<path opacity="0.1" d="M49.9991 62.46C55.776 62.46 60.4591 57.7769 60.4591 52C60.4591 46.2231 55.776 41.54 49.9991 41.54C44.2222 41.54 39.5391 46.2231 39.5391 52C39.5391 57.7769 44.2222 62.46 49.9991 62.46Z" fill="#6C63FF"/>
<path opacity="0.1" d="M1054.57 395.09C1062.3 395.09 1068.57 388.822 1068.57 381.09C1068.57 373.358 1062.3 367.09 1054.57 367.09C1046.84 367.09 1040.57 373.358 1040.57 381.09C1040.57 388.822 1046.84 395.09 1054.57 395.09Z" fill="#6C63FF"/>
<path opacity="0.1" d="M1081.56 361.31C1087.2 361.31 1091.78 356.734 1091.78 351.09C1091.78 345.446 1087.2 340.87 1081.56 340.87C1075.92 340.87 1071.34 345.446 1071.34 351.09C1071.34 356.734 1075.92 361.31 1081.56 361.31Z" fill="#6C63FF"/>
<path opacity="0.1" d="M68 28C75.732 28 82 21.732 82 14C82 6.26801 75.732 0 68 0C60.268 0 54 6.26801 54 14C54 21.732 60.268 28 68 28Z" fill="#6C63FF"/>
<path opacity="0.1" d="M14 92C21.732 92 28 85.732 28 78C28 70.268 21.732 64 14 64C6.26801 64 0 70.268 0 78C0 85.732 6.26801 92 14 92Z" fill="#6C63FF"/>
</g>
<defs>
<linearGradient id="paint0_linear" x1="527.129" y1="775.85" x2="527.129" y2="190.35" gradientUnits="userSpaceOnUse">
<stop stop-color="#808080" stop-opacity="0.25"/>
<stop offset="0.54" stop-color="#808080" stop-opacity="0.12"/>
<stop offset="1" stop-color="#808080" stop-opacity="0.1"/>
</linearGradient>
<clipPath id="clip0">
<rect width="1091.78" height="828.58" fill="white"/>
</clipPath>
</defs>
</svg>
