<svg width="1173" height="815" viewBox="0 0 1173 815" fill="none" xmlns="http://www.w3.org/2000/svg">
<path opacity="0.4" d="M758.723 0.34668H147.262V391.954H758.723V0.34668Z" fill="#FDCA05"/>
<path opacity="0.7" d="M741.238 49.4639H164.746V368.786H741.238V49.4639Z" fill="#FF4568"/>
<path d="M758.461 0H147V25.9771H758.461V0Z" fill="#FF4568"/>
<path d="M166.307 18.0956C168.966 18.0956 171.122 15.94 171.122 13.281C171.122 10.6219 168.966 8.46631 166.307 8.46631C163.648 8.46631 161.492 10.6219 161.492 13.281C161.492 15.94 163.648 18.0956 166.307 18.0956Z" fill="white"/>
<path d="M184.58 18.0956C187.239 18.0956 189.395 15.94 189.395 13.281C189.395 10.6219 187.239 8.46631 184.58 8.46631C181.921 8.46631 179.766 10.6219 179.766 13.281C179.766 15.94 181.921 18.0956 184.58 18.0956Z" fill="white"/>
<path d="M202.858 18.0956C205.517 18.0956 207.672 15.94 207.672 13.281C207.672 10.6219 205.517 8.46631 202.858 8.46631C200.199 8.46631 198.043 10.6219 198.043 13.281C198.043 15.94 200.199 18.0956 202.858 18.0956Z" fill="white"/>
<path d="M390.526 77.6116C390.541 77.5934 390.561 77.579 390.583 77.5693H577.969C577.991 77.579 578.011 77.5934 578.027 77.6116C578.053 77.6418 578.068 77.6807 578.068 77.7209C578.068 77.7612 578.053 77.8 578.027 77.8303C578.011 77.8485 577.991 77.8628 577.969 77.8725H390.583C390.561 77.8628 390.541 77.8485 390.526 77.8303C390.499 77.8 390.484 77.7612 390.484 77.7209C390.484 77.6807 390.499 77.6418 390.526 77.6116Z" fill="#032B4D" stroke="#032B4D" stroke-width="3"/>
<path d="M328.83 95.7791C328.846 95.7609 328.866 95.7465 328.888 95.7368H447.919C447.941 95.7465 447.96 95.7608 447.976 95.7791C448.003 95.8094 448.017 95.8482 448.017 95.8884C448.017 95.9286 448.003 95.9675 447.976 95.9978C447.96 96.016 447.941 96.0303 447.919 96.04H328.888C328.866 96.0303 328.846 96.016 328.83 95.9978C328.804 95.9676 328.789 95.9288 328.789 95.8884C328.789 95.8481 328.804 95.8092 328.83 95.7791Z" fill="#032B4D" stroke="#032B4D" stroke-width="3"/>
<path d="M578.027 96.3283C578.011 96.3465 577.991 96.3609 577.97 96.3705H458.938C458.917 96.3609 458.897 96.3465 458.881 96.3283C458.854 96.298 458.84 96.2592 458.84 96.219C458.84 96.1787 458.854 96.1399 458.881 96.1096C458.897 96.0914 458.917 96.0771 458.938 96.0674H577.97C577.992 96.0771 578.011 96.0914 578.027 96.1096C578.054 96.1399 578.068 96.1787 578.068 96.219C578.068 96.2592 578.054 96.298 578.027 96.3283Z" fill="#032B4D" stroke="#032B4D" stroke-width="3"/>
<path d="M329.119 113.947C329.135 113.928 329.155 113.914 329.177 113.904H448.208C448.23 113.914 448.249 113.928 448.265 113.947C448.292 113.977 448.306 114.016 448.306 114.056C448.306 114.096 448.292 114.135 448.265 114.165C448.249 114.183 448.23 114.198 448.208 114.207H329.177C329.155 114.198 329.135 114.183 329.119 114.165C329.093 114.135 329.078 114.096 329.078 114.056C329.078 114.016 329.093 113.977 329.119 113.947Z" fill="#032B4D" stroke="#032B4D" stroke-width="3"/>
<path d="M329.408 132.114C329.424 132.096 329.444 132.081 329.466 132.072H448.497C448.519 132.081 448.538 132.096 448.554 132.114C448.581 132.144 448.596 132.183 448.596 132.223C448.596 132.264 448.581 132.302 448.554 132.333C448.538 132.351 448.519 132.365 448.497 132.375H329.466C329.444 132.365 329.424 132.351 329.408 132.333C329.382 132.302 329.367 132.264 329.367 132.223C329.367 132.183 329.382 132.144 329.408 132.114Z" fill="#032B4D" stroke="#032B4D" stroke-width="3"/>
<path d="M468.729 113.947C468.745 113.928 468.764 113.914 468.786 113.904H502.663C502.685 113.914 502.704 113.928 502.72 113.947C502.747 113.977 502.761 114.016 502.761 114.056C502.761 114.096 502.747 114.135 502.72 114.165C502.704 114.183 502.685 114.198 502.663 114.207H468.786C468.764 114.198 468.745 114.183 468.729 114.165C468.702 114.135 468.688 114.096 468.688 114.056C468.688 114.016 468.702 113.977 468.729 113.947Z" fill="#032B4D" stroke="#032B4D" stroke-width="3"/>
<path d="M468.729 131.784C468.745 131.766 468.764 131.751 468.786 131.742H502.663C502.685 131.751 502.704 131.766 502.72 131.784C502.747 131.814 502.761 131.853 502.761 131.893C502.761 131.933 502.747 131.972 502.72 132.003C502.704 132.021 502.685 132.035 502.663 132.045H468.786C468.764 132.035 468.745 132.021 468.729 132.003C468.702 131.972 468.688 131.934 468.688 131.893C468.688 131.853 468.702 131.814 468.729 131.784Z" fill="#032B4D" stroke="#032B4D" stroke-width="3"/>
<path d="M526.076 131.784C526.092 131.766 526.112 131.751 526.134 131.742H560.011C560.032 131.751 560.052 131.766 560.068 131.784C560.095 131.814 560.109 131.853 560.109 131.893C560.109 131.933 560.095 131.972 560.068 132.003C560.052 132.021 560.032 132.035 560.011 132.045H526.134C526.112 132.035 526.092 132.021 526.076 132.003C526.05 131.972 526.035 131.933 526.035 131.893C526.035 131.853 526.05 131.814 526.076 131.784Z" fill="#032B4D" stroke="#032B4D" stroke-width="3"/>
<path d="M361.955 77.8303C361.939 77.8485 361.919 77.8628 361.897 77.8725H328.02C327.999 77.8628 327.979 77.8485 327.963 77.8303C327.937 77.8 327.922 77.7612 327.922 77.7209C327.922 77.6807 327.936 77.6418 327.963 77.6116C327.979 77.5934 327.999 77.579 328.02 77.5693H361.897C361.919 77.579 361.939 77.5933 361.955 77.6116C361.981 77.6418 361.996 77.6807 361.996 77.7209C361.996 77.7612 361.981 77.8 361.955 77.8303Z" fill="#032B4D" stroke="#032B4D" stroke-width="3"/>
<path d="M447.543 286.136C447.527 286.154 447.507 286.168 447.485 286.178H328.454C328.432 286.168 328.413 286.154 328.397 286.136C328.37 286.106 328.355 286.067 328.355 286.027C328.355 285.986 328.37 285.947 328.397 285.917C328.413 285.899 328.432 285.885 328.454 285.875H447.485C447.507 285.885 447.527 285.899 447.543 285.917C447.569 285.947 447.584 285.986 447.584 286.027C447.584 286.067 447.569 286.106 447.543 286.136Z" fill="#032B4D" stroke="#032B4D" stroke-width="3"/>
<path d="M446.965 322.471C446.949 322.489 446.929 322.503 446.907 322.513H327.876C327.854 322.503 327.834 322.489 327.818 322.471C327.792 322.441 327.777 322.402 327.777 322.362C327.777 322.321 327.792 322.282 327.818 322.252C327.834 322.234 327.854 322.22 327.876 322.21H446.907C446.929 322.22 446.949 322.234 446.965 322.252C446.991 322.282 447.006 322.321 447.006 322.362C447.006 322.402 446.991 322.441 446.965 322.471Z" fill="#032B4D" stroke="#032B4D" stroke-width="3"/>
<path d="M447.254 340.638C447.238 340.657 447.218 340.671 447.196 340.681H328.165C328.143 340.671 328.124 340.657 328.108 340.638C328.081 340.608 328.066 340.569 328.066 340.529C328.066 340.489 328.081 340.45 328.108 340.42C328.124 340.401 328.143 340.387 328.165 340.377H447.196C447.218 340.387 447.238 340.401 447.254 340.42C447.28 340.45 447.295 340.489 447.295 340.529C447.295 340.569 447.28 340.608 447.254 340.638Z" fill="#032B4D" stroke="#032B4D" stroke-width="3"/>
<path d="M464.236 322.583C464.252 322.565 464.272 322.55 464.294 322.541H498.171C498.193 322.55 498.212 322.565 498.228 322.583C498.255 322.613 498.269 322.652 498.269 322.692C498.269 322.732 498.255 322.771 498.228 322.801C498.212 322.82 498.193 322.834 498.171 322.844H464.294C464.272 322.834 464.252 322.82 464.236 322.801C464.21 322.771 464.195 322.732 464.195 322.692C464.195 322.652 464.21 322.613 464.236 322.583Z" fill="#032B4D" stroke="#032B4D" stroke-width="3"/>
<path d="M464.236 340.42C464.252 340.401 464.272 340.387 464.294 340.377H498.171C498.193 340.387 498.212 340.401 498.228 340.42C498.255 340.45 498.269 340.489 498.269 340.529C498.269 340.569 498.255 340.608 498.228 340.638C498.212 340.657 498.193 340.671 498.171 340.681H464.294C464.272 340.671 464.252 340.657 464.236 340.638C464.21 340.608 464.195 340.569 464.195 340.529C464.195 340.489 464.21 340.45 464.236 340.42Z" fill="#032B4D" stroke="#032B4D" stroke-width="3"/>
<path d="M521.588 322.583C521.604 322.565 521.624 322.55 521.645 322.541H555.522C555.544 322.55 555.564 322.565 555.58 322.583C555.606 322.613 555.621 322.652 555.621 322.692C555.621 322.732 555.606 322.771 555.58 322.801C555.564 322.82 555.544 322.834 555.522 322.844H521.645C521.624 322.834 521.604 322.82 521.588 322.801C521.562 322.771 521.547 322.732 521.547 322.692C521.547 322.652 521.561 322.613 521.588 322.583Z" fill="#032B4D" stroke="#032B4D" stroke-width="3"/>
<path d="M390.67 304.085C390.686 304.067 390.706 304.052 390.727 304.042H578.114C578.136 304.052 578.155 304.067 578.171 304.085C578.198 304.115 578.212 304.154 578.212 304.194C578.212 304.234 578.198 304.273 578.171 304.303C578.155 304.322 578.136 304.336 578.114 304.346H390.727C390.706 304.336 390.686 304.322 390.67 304.303C390.644 304.273 390.629 304.234 390.629 304.194C390.629 304.154 390.644 304.115 390.67 304.085Z" fill="#032B4D" stroke="#032B4D" stroke-width="3"/>
<path d="M328.108 304.085C328.124 304.067 328.143 304.052 328.165 304.042H362.042C362.064 304.052 362.083 304.067 362.099 304.085C362.126 304.115 362.14 304.154 362.14 304.194C362.14 304.234 362.126 304.273 362.099 304.303C362.083 304.322 362.064 304.336 362.042 304.346H328.165C328.143 304.336 328.124 304.322 328.108 304.303C328.081 304.273 328.066 304.234 328.066 304.194C328.066 304.154 328.081 304.115 328.108 304.085Z" fill="#032B4D" stroke="#032B4D" stroke-width="3"/>
<path d="M418.816 163.221L372.473 208.985L418.816 254.748L429.243 244.321L394.196 209.274L429.532 173.938L418.816 163.221Z" fill="#E6E6E6"/>
<path d="M487.17 163.221L533.512 208.985L487.17 254.748L476.743 244.321L511.789 209.274L476.453 173.938L487.17 163.221Z" fill="#E6E6E6"/>
<path d="M418.816 163.221L372.473 208.985L418.816 254.748L429.243 244.321L394.196 209.274L429.532 173.938L418.816 163.221Z" fill="#032B4D"/>
<path d="M487.17 163.221L533.512 208.985L487.17 254.748L476.743 244.321L511.789 209.274L476.453 173.938L487.17 163.221Z" fill="#032B4D"/>
<path d="M144.734 660.808H181.575L272.363 625.283C272.363 625.283 336.836 598.968 331.572 648.967C326.309 698.966 317.099 766.07 317.099 766.07C317.099 766.07 288.152 752.912 272.363 756.859C256.574 760.807 267.1 676.598 267.1 676.598C267.1 676.598 138.155 738.439 126.313 730.544C114.471 722.649 111.84 667.387 111.84 667.387L144.734 660.808Z" fill="#2F2E41"/>
<path opacity="0.1" d="M144.734 660.808H181.575L272.363 625.283C272.363 625.283 336.836 598.968 331.572 648.967C326.309 698.966 317.099 766.07 317.099 766.07C317.099 766.07 288.152 752.912 272.363 756.859C256.574 760.807 267.1 676.598 267.1 676.598C267.1 676.598 138.155 738.439 126.313 730.544C114.471 722.649 111.84 667.387 111.84 667.387L144.734 660.808Z" fill="#032B4D"/>
<path d="M202.779 545.435L247.364 609.494L351.31 696.334C351.31 696.334 447.361 718.702 434.203 734.491C421.045 750.281 340.784 718.702 340.784 718.702C340.784 718.702 221.049 631.862 217.102 625.283C213.155 618.704 169.734 556.863 169.734 556.863L202.779 545.435Z" fill="#A0616A"/>
<path opacity="0.1" d="M202.779 545.435L247.364 609.494L351.31 696.334C351.31 696.334 447.361 718.702 434.203 734.491C421.045 750.281 340.784 718.702 340.784 718.702C340.784 718.702 221.049 631.862 217.102 625.283C213.155 618.704 169.734 556.863 169.734 556.863L202.779 545.435Z" fill="black"/>
<path d="M176.311 493.706L205.258 550.284C205.258 550.284 198.679 577.915 188.153 580.546C177.627 583.178 132.891 546.337 132.891 546.337L176.311 493.706Z" fill="#D0CDE1"/>
<path opacity="0.1" d="M176.311 493.706L205.258 550.284C205.258 550.284 198.679 577.915 188.153 580.546C177.627 583.178 132.891 546.337 132.891 546.337L176.311 493.706Z" fill="#FF0030"/>
<path d="M529.451 631.515L538.001 666.786C538.097 667.179 538.082 667.591 537.959 667.977L499.171 789.188C499.017 789.668 498.704 790.081 498.283 790.357C497.862 790.634 497.358 790.758 496.857 790.709C496.355 790.659 495.886 790.439 495.527 790.086C495.168 789.732 494.941 789.266 494.884 788.765L489.518 741.546C489.482 741.232 489.515 740.915 489.612 740.615L525.215 631.351C525.364 630.895 525.657 630.5 526.05 630.226C526.444 629.952 526.916 629.814 527.395 629.832C527.874 629.851 528.334 630.025 528.705 630.329C529.076 630.632 529.338 631.049 529.451 631.515Z" fill="#2F2E41"/>
<path d="M526.308 634.493L534.202 664.756L499.992 775.28L492.098 741.07L526.308 634.493Z" fill="#F2F2F2"/>
<path d="M353.941 798.964C355.257 802.911 490.781 797.648 492.096 796.332C493.244 794.684 494.214 792.92 494.991 791.069C496.228 788.438 497.359 785.806 497.359 785.806L492.096 743.202L357.888 738.438C357.888 738.438 354.533 774.543 353.849 791.069C353.678 795.24 353.678 798.174 353.941 798.964Z" fill="#2F2E41"/>
<path opacity="0.1" d="M474.992 748.965L477.623 785.806H418.414V748.965H474.992Z" fill="black"/>
<path opacity="0.1" d="M398.679 760.806L399.032 760.736L397.363 776.596H364.469V760.806H398.679Z" fill="black"/>
<path opacity="0.1" d="M353.941 798.963C355.257 802.911 490.781 797.648 492.096 796.332C493.244 794.684 494.214 792.92 494.991 791.069H353.849C353.678 795.24 353.678 798.174 353.941 798.963Z" fill="black"/>
<path d="M196.049 475.285C228.75 475.285 255.259 448.777 255.259 416.076C255.259 383.376 228.75 356.867 196.049 356.867C163.349 356.867 136.84 383.376 136.84 416.076C136.84 448.777 163.349 475.285 196.049 475.285Z" fill="#A0616A"/>
<path d="M192.103 468.707C192.103 468.707 172.366 502.917 168.419 521.337C164.471 539.758 109.209 484.496 109.209 484.496L101.973 465.417C101.973 465.417 153.945 441.076 149.998 421.339C146.051 401.603 192.103 468.707 192.103 468.707Z" fill="#A0616A"/>
<path d="M202.629 571.336L256.576 642.388L385.521 738.438C385.521 738.438 478.94 758.175 457.888 772.648C436.835 787.122 376.31 759.491 376.31 759.491C376.31 759.491 246.05 689.755 218.419 660.808C190.787 631.862 139.473 583.178 139.473 583.178L202.629 571.336Z" fill="#A0616A"/>
<path d="M130.259 681.861L146.048 706.86L240.28 677.214C260.956 670.71 283.628 673.103 301.966 684.657C318.414 695.018 328.94 711.465 305.256 735.807C257.888 784.49 226.31 758.175 226.31 758.175C226.31 758.175 67.1025 833.173 40.7873 796.332C14.472 759.491 13.1562 741.07 13.1562 741.07C13.1562 741.07 114.47 677.913 130.259 681.861Z" fill="#032B4D"/>
<path d="M327.624 768.701C327.624 768.701 369.728 796.332 319.729 809.49C269.73 822.648 232.889 804.227 232.889 804.227C232.889 804.227 189.469 804.227 189.469 781.859C189.469 759.491 203.942 756.859 203.942 756.859L248.678 763.438C248.678 763.438 302.624 748.965 327.624 768.701Z" fill="#2E2401"/>
<path d="M244.622 401.182C248.652 402.978 252.648 405.105 257.03 405.626C261.411 406.148 266.4 404.618 268.473 400.723C269.593 398.62 269.721 396.145 269.773 393.762C269.932 386.537 269.409 378.726 264.831 373.135C261.917 369.576 257.663 367.333 254.647 363.861C252.486 361.373 251.048 358.358 249.499 355.45C243.633 344.432 234.948 333.844 222.877 330.668C217.837 329.342 212.549 329.406 207.338 329.48L176.941 329.909C172.021 329.978 167.027 330.059 162.318 331.482C152.534 334.441 145.41 342.668 138.885 350.537C134.004 356.423 129.11 362.371 125.447 369.084C120.195 378.879 117.539 389.857 117.733 400.97C117.692 403.821 118.06 406.662 118.825 409.408C119.721 411.926 120.83 414.363 122.142 416.692C127.842 427.889 131.227 441.874 124.807 452.675C135.959 448.119 146.993 442.146 154.349 432.607C157.64 428.339 160.221 423.344 164.607 420.212C168.993 417.081 176.139 416.809 178.953 421.405C179.92 423.264 180.418 425.332 180.404 427.427C180.609 430.877 180.604 434.46 182.066 437.591C183.529 440.722 187.013 443.249 190.34 442.312C196.068 440.698 195.52 431.906 199.932 427.912C203.283 424.878 208.453 425.458 212.758 424.081C217.774 422.477 221.537 418.132 223.682 413.322C225.312 409.666 225.288 400.099 228.372 398.119C232.24 395.636 241.037 399.584 244.622 401.182Z" fill="#2F2E41"/>
<path d="M97.2716 459.176C99.9352 458.466 102.74 458.473 105.4 459.197C113.846 461.464 132.78 467.467 136.839 476.602C142.103 488.443 160.523 506.864 160.523 506.864C160.523 506.864 185.523 531.864 180.26 548.969C174.997 566.074 155.26 585.81 155.26 585.81C155.26 585.81 160.523 667.387 134.208 688.44C107.893 709.492 97.3665 695.018 97.3665 714.755C97.3665 734.491 15.7892 796.332 0 758.175C0 758.175 7.89459 687.124 5.26306 662.124C2.66948 637.485 6.46634 483.76 97.2716 459.176Z" fill="#FF4568"/>
<path d="M139.469 492.391C139.469 492.391 219.731 551.6 205.258 576.599C205.258 576.599 156.574 600.283 146.048 598.967C135.522 597.652 94.7334 551.6 84.2073 547.653C73.6812 543.705 68.4181 472.654 139.469 492.391Z" fill="#E64160"/>
<path d="M594.543 541.458C630.441 541.458 659.543 512.357 659.543 476.458C659.543 440.559 630.441 411.458 594.543 411.458C558.644 411.458 529.543 440.559 529.543 476.458C529.543 512.357 558.644 541.458 594.543 541.458Z" fill="#FDCA05"/>
<path d="M1131.41 392.041H767.16V315.821H1131.41V392.041ZM768.765 390.436H1129.8V317.426H768.765V390.436Z" fill="#3F3D56"/>
<path d="M1104.93 331.065H742.289V405.68H1104.93V331.065Z" fill="#032B4D"/>
<path d="M513.046 259.86C516.148 259.86 518.662 257.345 518.662 254.244C518.662 251.142 516.148 248.627 513.046 248.627C509.944 248.627 507.43 251.142 507.43 254.244C507.43 257.345 509.944 259.86 513.046 259.86Z" fill="#6C63FF"/>
<path d="M532.3 259.86C535.402 259.86 537.916 257.345 537.916 254.244C537.916 251.142 535.402 248.627 532.3 248.627C529.198 248.627 526.684 251.142 526.684 254.244C526.684 257.345 529.198 259.86 532.3 259.86Z" fill="#6C63FF"/>
<path d="M551.558 259.86C554.659 259.86 557.174 257.345 557.174 254.244C557.174 251.142 554.659 248.627 551.558 248.627C548.456 248.627 545.941 251.142 545.941 254.244C545.941 257.345 548.456 259.86 551.558 259.86Z" fill="#6C63FF"/>
<path d="M1172.54 678.666H497V239H1172.54V678.666ZM498.605 677.061H1170.94V240.605H498.605V677.061Z" fill="#3F3D56"/>
<path d="M1171.74 263.338H497.801V264.943H1171.74V263.338Z" fill="#3F3D56"/>
<path d="M514.649 260.755L514.652 260.755C517.016 260.753 519.282 259.812 520.953 258.141C522.625 256.47 523.565 254.204 523.567 251.84V251.837C523.567 250.073 523.044 248.349 522.064 246.882C521.084 245.415 519.692 244.272 518.062 243.597C516.432 242.922 514.639 242.746 512.909 243.09C511.179 243.434 509.59 244.283 508.343 245.531C507.095 246.778 506.246 248.367 505.902 250.097C505.558 251.827 505.734 253.62 506.409 255.25C507.084 256.88 508.227 258.272 509.694 259.252C511.161 260.232 512.885 260.755 514.649 260.755ZM516.283 250.202C516.717 250.636 516.962 251.225 516.963 251.838C516.963 252.295 516.827 252.742 516.573 253.122C516.319 253.503 515.957 253.8 515.534 253.975C515.112 254.15 514.646 254.196 514.198 254.106C513.749 254.017 513.336 253.797 513.013 253.473C512.689 253.149 512.469 252.737 512.38 252.288C512.29 251.84 512.336 251.374 512.511 250.951C512.686 250.529 512.983 250.167 513.363 249.913C513.744 249.659 514.19 249.523 514.648 249.523C515.261 249.524 515.85 249.768 516.283 250.202Z" fill="#FDCA05" stroke="#FDCA05" stroke-width="5"/>
<path d="M542.825 251.84V251.837C542.825 250.073 542.302 248.349 541.322 246.882C540.342 245.415 538.949 244.272 537.32 243.597C535.69 242.922 533.897 242.746 532.167 243.09C530.437 243.434 528.848 244.283 527.6 245.531C526.353 246.778 525.504 248.367 525.16 250.097C524.816 251.827 524.992 253.62 525.667 255.25C526.342 256.88 527.485 258.272 528.952 259.252C530.419 260.232 532.143 260.755 533.907 260.755V259.151C533.907 259.151 533.907 259.151 533.908 259.151L533.91 260.755C536.273 260.753 538.539 259.812 540.211 258.141C541.882 256.47 542.823 254.204 542.825 251.84ZM532.621 249.913C533.001 249.659 533.448 249.523 533.905 249.523C534.519 249.524 535.107 249.768 535.541 250.202C535.975 250.636 536.22 251.225 536.221 251.838C536.22 252.295 536.085 252.742 535.831 253.122C535.576 253.503 535.215 253.8 534.792 253.975C534.369 254.15 533.904 254.196 533.455 254.106C533.007 254.017 532.594 253.797 532.271 253.473C531.947 253.149 531.727 252.737 531.637 252.288C531.548 251.84 531.594 251.374 531.769 250.951C531.944 250.529 532.241 250.167 532.621 249.913Z" fill="#FDCA05" stroke="#FDCA05" stroke-width="5"/>
<path d="M553.162 259.151L553.164 260.755C555.527 260.753 557.793 259.812 559.465 258.141C561.136 256.47 562.076 254.204 562.079 251.84V251.837C562.079 250.073 561.556 248.349 560.576 246.882C559.596 245.415 558.203 244.272 556.574 243.597C554.944 242.922 553.151 242.746 551.421 243.09C549.691 243.434 548.102 244.283 546.854 245.531C545.607 246.778 544.758 248.367 544.414 250.097C544.069 251.827 544.246 253.62 544.921 255.25C545.596 256.88 546.739 258.272 548.206 259.252C549.672 260.232 551.397 260.755 553.161 260.755L553.161 259.151C553.161 259.151 553.161 259.151 553.162 259.151ZM555.475 251.838C555.474 252.295 555.339 252.742 555.085 253.122C554.83 253.503 554.469 253.8 554.046 253.975C553.623 254.15 553.158 254.196 552.709 254.106C552.26 254.017 551.848 253.797 551.525 253.473C551.201 253.149 550.981 252.737 550.891 252.288C550.802 251.839 550.848 251.374 551.023 250.951C551.198 250.529 551.495 250.167 551.875 249.913C552.255 249.659 552.702 249.523 553.159 249.523C553.773 249.524 554.361 249.768 554.795 250.202C555.229 250.636 555.473 251.225 555.475 251.838Z" fill="#FDCA05" stroke="#FDCA05" stroke-width="5"/>
<path d="M710.195 264.14H708.59V678.486H710.195V264.14Z" fill="#3F3D56"/>
<path d="M903.154 467.859H785.215V483.905H903.154V467.859Z" fill="#F2F2F2"/>
<path d="M1088.49 467.859H970.547V483.905H1088.49V467.859Z" fill="#F2F2F2"/>
<path d="M910.372 478.185H911.872V476.685V459.034V457.534H910.372H790.828H789.328V459.034V476.685V478.185H790.828H910.372ZM907.268 462.138V473.58H793.933V462.138H907.268Z" fill="#FF4568" stroke="#FF4568" stroke-width="3"/>
<path d="M903.154 592.217H785.215V608.263H903.154V592.217Z" fill="#F2F2F2"/>
<path d="M910.372 602.542H911.872V601.042V583.392V581.892H910.372H790.828H789.328V583.392V601.042V602.542H790.828H910.372ZM907.268 586.496V597.938H793.933V586.496H907.268Z" fill="#FF4568" stroke="#FF4568" stroke-width="3"/>
<path d="M1088.89 528.433H785.613V544.479H1088.89V528.433Z" fill="#F2F2F2"/>
<path d="M1096.11 540.363H1097.61V538.863V521.212V519.712H1096.11H791.23H789.73V521.212V538.863V540.363H791.23H1096.11ZM1093 524.317V535.759H794.335V524.317H1093Z" fill="#FF4568" stroke="#FF4568" stroke-width="3"/>
<path d="M1095.71 478.185H1097.21V476.685V459.034V457.534H1095.71H976.164H974.664V459.034V476.685V478.185H976.164H1095.71ZM1092.6 462.138V473.58H979.269V462.138H1092.6Z" fill="#FF4568" stroke="#FF4568" stroke-width="3"/>
<path d="M605.543 524.458C592.489 524.458 579.729 520.587 568.875 513.335C558.022 506.083 549.562 495.775 544.567 483.715C539.572 471.655 538.265 458.385 540.811 445.582C543.358 432.779 549.644 421.019 558.874 411.789C568.104 402.559 579.864 396.273 592.667 393.726C605.47 391.18 618.74 392.487 630.8 397.482C642.86 402.477 653.168 410.937 660.42 421.79C667.672 432.644 671.543 445.404 671.543 458.458C671.523 475.956 664.563 492.732 652.19 505.105C639.817 517.478 623.041 524.438 605.543 524.458ZM605.543 394.458C592.885 394.458 580.511 398.212 569.986 405.244C559.462 412.276 551.259 422.272 546.415 433.966C541.571 445.661 540.303 458.529 542.773 470.944C545.242 483.359 551.338 494.762 560.288 503.713C569.239 512.663 580.642 518.759 593.057 521.228C605.472 523.698 618.34 522.43 630.035 517.586C641.729 512.742 651.725 504.539 658.757 494.015C665.789 483.49 669.543 471.116 669.543 458.458C669.524 441.49 662.775 425.223 650.777 413.224C638.778 401.226 622.511 394.477 605.543 394.458Z" fill="#3F3D56"/>
</svg>
