<svg width="321" height="243" viewBox="0 0 321 243" fill="none" xmlns="http://www.w3.org/2000/svg">
<g clip-path="url(#clip0)">
<path opacity="0.4" d="M316.278 70.0599C316.223 70.3208 316.17 70.5817 316.108 70.8396C314.183 79.7066 311.038 88.2512 306.361 96.0982C306.205 96.359 306.05 96.6199 305.891 96.8808C302.807 101.93 299.116 106.583 294.903 110.737C292.572 113.035 290.031 115.219 287.009 116.793C282.775 119.003 277.825 119.9 272.96 120.633C267.907 121.398 262.784 122.037 257.676 122.726C255.86 122.966 254.056 123.221 252.262 123.491C247.327 124.22 242.426 125.065 237.644 126.184C231.731 127.565 226 129.374 220.587 131.918C220.154 132.113 219.727 132.32 219.305 132.539C218.882 132.75 218.457 132.964 218.04 133.181C217.623 133.398 217.212 133.615 216.805 133.838C216.593 133.952 216.382 134.067 216.174 134.187C215.965 134.307 215.76 134.412 215.558 134.53C214.947 134.87 214.349 135.219 213.75 135.57L213.727 135.585C213.33 135.816 212.94 136.054 212.553 136.291C210.34 137.634 208.175 139.035 206.01 140.445L204.648 141.324L202.538 142.687C202.128 142.954 201.708 143.221 201.294 143.485C201.001 143.678 200.707 143.872 200.388 144.071C198.85 145.038 197.292 145.988 195.693 146.894C195.314 147.111 194.933 147.327 194.548 147.539C191.318 149.339 187.938 150.861 184.449 152.088L184.402 152.105C182.646 152.717 180.855 153.222 179.038 153.618C177.99 153.847 176.94 154.034 175.878 154.178C173.038 154.58 170.159 154.62 167.31 154.298C161.714 153.65 156.471 151.505 150.878 150.78C139.364 149.315 128.182 154.037 117.354 157.736C114.692 158.645 112.01 159.496 109.309 160.289C107.513 160.82 105.711 161.321 103.895 161.805C92.767 164.742 81.4101 166.731 69.946 167.752C65.1535 168.221 60.3326 168.328 55.5242 168.072C53.6962 167.96 51.8887 167.779 50.1135 167.486C44.0396 166.548 38.3765 164.581 33.805 160.978C30.0609 158.021 27.3818 154.166 25.3425 150.133C23.255 146.017 21.7811 141.619 20.9676 137.077C20.8561 136.458 20.7563 135.837 20.6741 135.216C20.5274 134.152 20.4179 133.084 20.3455 132.009C19.9507 126.28 20.6355 120.528 22.3643 115.052C24.3009 108.919 27.5285 103.033 28.9487 96.8544C29.0074 96.5927 29.0631 96.3318 29.1159 96.0718C29.3099 95.1332 29.4538 94.1852 29.5474 93.2314C30.2722 85.6395 27.4933 78.2381 25.3132 70.8133C25.2369 70.5553 25.1606 70.2944 25.0872 70.0335C24.8525 69.209 24.6276 68.3853 24.4124 67.5625C22.3936 59.7126 21.8332 51.3088 23.6318 43.4736C23.6876 43.2127 23.7551 42.9518 23.8196 42.6938C25.0238 37.7412 27.2882 33.1078 30.457 29.1134C33.8255 24.8924 38.2474 21.3778 42.9716 18.2912C45.2738 16.7865 47.6546 15.3805 50.1135 14.0732C51.874 13.1352 53.6774 12.247 55.5242 11.4087C70.3275 4.6668 87.214 1.37503 103.913 2.10198C104.793 2.14008 105.673 2.18698 106.554 2.25147C107.434 2.31596 108.396 2.39217 109.318 2.47717C120.075 3.52069 130.541 6.03862 140.934 8.79106C144.417 9.7144 147.894 10.6612 151.368 11.5904C152.915 12.0008 154.458 12.4111 156.004 12.8098C163.578 14.7649 171.262 16.5354 179.044 17.8574C180.846 18.1681 182.649 18.4515 184.455 18.7075C190.723 19.6278 197.043 20.1633 203.378 20.3108C205.84 20.3597 208.304 20.3382 210.769 20.2464C212.013 20.2014 213.258 20.134 214.504 20.0441C227.371 19.1383 239.806 16.1074 252.262 13.2759C254.064 12.8655 255.868 12.461 257.676 12.0623C260.046 11.5406 262.417 11.0364 264.8 10.5703C279.627 7.6596 292.842 9.33334 306.628 15.3395C309.762 16.7025 312.892 18.3498 314.811 20.9088C316.73 23.4678 317.212 26.6101 317.57 29.644C318.077 33.9646 318.409 38.3409 318.535 42.7407C318.535 42.9987 318.535 43.2596 318.552 43.5205C318.752 52.408 318.089 61.3805 316.278 70.0599Z" fill="#FF4568"/>
<path opacity="0.5" d="M217.929 96.0978H216.96V96.4437V96.8804H218.058L217.929 96.0978ZM206.946 96.0978C206.944 96.1045 206.944 96.1115 206.946 96.1183C206.919 96.3323 206.89 96.5462 206.861 96.7632V96.8218V96.8804H215.253V96.8335L215.839 96.0978H206.946ZM184.455 96.0978V70.8393H194.108C194.006 70.7718 193.9 70.7015 193.791 70.637L193.651 70.5461L193.469 70.4347C193.363 70.3732 193.257 70.3116 193.146 70.253C193.034 70.1944 192.967 70.1533 192.873 70.1035L192.809 70.0683H192.794H184.455V68.676L184.229 68.7639L183.991 68.8753H183.974L183.924 68.9017L183.774 68.9809L183.624 69.06C183.478 69.1391 183.331 69.2271 183.184 69.3179L183.043 69.4117L182.75 69.5993C182.371 69.8514 181.999 70.1152 181.614 70.3615C181.518 70.423 181.421 70.4846 181.321 70.5403C181.113 70.6634 180.898 70.7806 180.678 70.8862C180.584 70.9331 180.494 70.9741 180.385 71.0122L180.227 71.0738L180.08 71.1236C179.736 71.2432 179.382 71.3352 179.023 71.3991V96.0919H164.549C164.549 96.1212 164.569 96.1447 164.578 96.174C164.657 96.4085 164.737 96.6401 164.813 96.8745H179.044V123.948C179.118 123.948 179.192 123.948 179.264 123.948L179.519 123.962L179.98 123.989L180.717 124.076L181.054 124.109L181.421 124.147H181.477L182.125 124.226L182.263 124.244L182.577 124.288L183.026 124.352L184.103 124.305L184.249 124.332C184.308 124.332 184.37 124.349 184.431 124.361V96.8804H206.831V96.8218V96.7632C206.861 96.5462 206.89 96.3323 206.916 96.1183C206.915 96.1115 206.915 96.1045 206.916 96.0978H184.455ZM217.929 96.0978H216.96V96.4437V96.8804H218.058L217.929 96.0978ZM206.341 96.0978C206.306 96.3587 206.274 96.6195 206.239 96.8804H215.596L216.233 96.0978H206.341ZM184.455 96.0978V70.8393H194.108C194.006 70.7718 193.9 70.7015 193.791 70.637L193.651 70.5461L193.469 70.4347C193.363 70.3732 193.257 70.3116 193.146 70.253C193.034 70.1944 192.967 70.1533 192.873 70.1035L192.809 70.0683H192.788H184.455V68.676L184.229 68.7639L183.991 68.8753H183.974L183.924 68.9017L183.774 68.9809L183.624 69.06C183.478 69.1391 183.331 69.2271 183.184 69.3179L183.043 69.4117L182.75 69.5993C182.371 69.8514 181.999 70.1152 181.614 70.3615C181.518 70.423 181.421 70.4846 181.321 70.5403C181.113 70.6634 180.898 70.7806 180.678 70.8862C180.584 70.9331 180.494 70.9741 180.385 71.0122L180.227 71.0738L180.08 71.1236C179.736 71.2432 179.382 71.3352 179.023 71.3991V96.0919H164.549C164.549 96.1212 164.569 96.1447 164.578 96.174C164.657 96.4056 164.74 96.6401 164.816 96.8745H179.044V123.945H179.264L179.519 123.959L179.98 123.986L180.717 124.076L181.054 124.109L181.421 124.147H181.477L182.125 124.226L182.263 124.244L182.577 124.288L183.026 124.352L184.103 124.305L184.249 124.332C184.308 124.332 184.37 124.349 184.431 124.361V96.8804H206.244C206.28 96.6195 206.312 96.3587 206.347 96.0978H184.455ZM257.676 43.4996H318.553C318.553 43.2387 318.553 42.9778 318.535 42.7198H257.676V12.0531C255.868 12.4439 254.064 12.8485 252.262 13.2667V42.7198H186.054L185.887 42.5704L186.139 42.3476L210.766 20.2401C208.301 20.3339 205.837 20.3554 203.375 20.3046L184.452 37.2882V18.707C182.644 18.451 180.841 18.1677 179.041 17.857V36.4323L151.374 11.59C147.9 10.6608 144.423 9.71399 140.94 8.79065L178.566 42.5704L178.398 42.7198H109.327V2.50313C108.405 2.41714 107.484 2.34191 106.562 2.27742C105.682 2.21293 104.802 2.16604 103.922 2.12793V42.7198H55.5243V11.4346C53.6972 12.271 51.8938 13.1592 50.1136 14.0991V42.7198H23.8199C23.7554 42.9778 23.6879 43.2387 23.6321 43.4996H50.1136V70.0595H25.0875C25.1609 70.3204 25.2372 70.5813 25.3135 70.8393H50.1136V96.0978H29.1162C29.0634 96.3575 29.0077 96.6184 28.949 96.8804H50.1136V167.503C51.8742 167.775 53.6963 167.966 55.5243 168.089V96.8804H103.913V161.816C105.729 161.333 107.531 160.831 109.327 160.301V96.8804H179.044V153.615C180.861 153.219 182.652 152.714 184.408 152.102L184.455 152.085V96.8804H252.262V123.49C254.062 123.226 255.866 122.973 257.676 122.731V96.8804H305.891C306.05 96.6195 306.205 96.3587 306.361 96.0978H257.676V70.8393H316.108C316.17 70.5813 316.223 70.3204 316.279 70.0595H257.676V43.4996ZM55.5243 43.4996H103.913V70.0595H55.5243V43.4996ZM55.5243 96.0978V70.8393H103.913V96.0978H55.5243ZM109.327 43.4996H179.044V70.0595H109.327V43.4996ZM109.327 96.0978V70.8393H179.044V96.0978H109.327ZM252.262 96.0978H184.455V70.8393H252.262V96.0978ZM252.262 70.0595H184.455V44.2118L185.405 43.4996H252.262V70.0595ZM206.946 96.0978C206.944 96.1045 206.944 96.1115 206.946 96.1183C206.919 96.3323 206.89 96.5462 206.861 96.7632V96.8218V96.8804H215.253V96.8335L215.839 96.0978H206.946ZM217.929 96.0978H216.96V96.4437V96.8804H218.058L217.929 96.0978ZM184.455 96.0978V70.8393H194.108C194.006 70.7718 193.9 70.7015 193.791 70.637L193.651 70.5461L193.469 70.4347C193.363 70.3732 193.257 70.3116 193.146 70.253C193.034 70.1944 192.967 70.1533 192.873 70.1035L192.809 70.0683H192.794H184.455V68.676L184.229 68.7639L183.991 68.8753H183.974L183.924 68.9017L183.774 68.9809L183.624 69.06C183.478 69.1391 183.331 69.2271 183.184 69.3179L183.043 69.4117L182.75 69.5993C182.371 69.8514 181.999 70.1152 181.614 70.3615C181.518 70.423 181.421 70.4846 181.321 70.5403C181.113 70.6634 180.898 70.7806 180.678 70.8862C180.584 70.9331 180.494 70.9741 180.385 71.0122L180.227 71.0738L180.08 71.1236C179.736 71.2432 179.382 71.3352 179.023 71.3991V96.0919H164.549C164.549 96.1212 164.569 96.1447 164.578 96.174C164.657 96.4085 164.737 96.6401 164.813 96.8745H179.044V123.948C179.118 123.948 179.192 123.948 179.264 123.948L179.519 123.962L179.98 123.989L180.717 124.076L181.054 124.109L181.421 124.147H181.477L182.125 124.226L182.263 124.244L182.577 124.288L183.026 124.352L184.103 124.305L184.249 124.332C184.308 124.332 184.37 124.349 184.431 124.361V96.8804H206.831V96.8218V96.7632C206.861 96.5462 206.89 96.3323 206.916 96.1183C206.915 96.1115 206.915 96.1045 206.916 96.0978H184.455Z" fill="#FF4568"/>
<path opacity="0.1" d="M78.7907 25.2148H79.2103C79.0721 25.1563 78.9515 25.0623 78.8615 24.9424C78.7714 24.8224 78.7145 24.6808 78.6968 24.5318C78.6968 23.9924 79.5038 23.5527 80.4897 23.5527H93.0365C94.0224 23.5527 94.8264 23.9924 94.8264 24.5318C94.8264 25.0682 94.0224 25.5108 93.0365 25.5108H92.6169C92.7554 25.5683 92.876 25.6616 92.9661 25.7811C93.0564 25.9007 93.1131 26.0421 93.1304 26.1909C93.1304 26.6511 92.5435 27.038 91.7601 27.1406H95.3721C96.3551 27.1406 97.162 27.5803 97.162 28.1196C97.162 28.659 96.3551 29.0987 95.3721 29.0987H82.8224C81.8394 29.0987 81.0325 28.656 81.0325 28.1196C81.0325 27.6594 81.6193 27.2754 82.4028 27.1699H78.7907C77.8048 27.1699 77.0009 26.7302 77.0009 26.1909C77.0009 25.6515 77.8048 25.2148 78.7907 25.2148Z" fill="#6C63FF"/>
<path opacity="0.1" d="M214.774 34.5272H215.194C215.056 34.4683 214.937 34.3742 214.847 34.2543C214.757 34.1345 214.701 33.9929 214.683 33.8443C214.683 33.3049 215.487 32.8652 216.473 32.8652H229.02C230.006 32.8652 230.813 33.3049 230.813 33.8443C230.813 34.3807 230.006 34.8204 229.02 34.8204H228.603C228.741 34.8793 228.861 34.9734 228.951 35.0933C229.04 35.2132 229.097 35.3547 229.114 35.5033C229.114 35.9635 228.527 36.3505 227.744 36.4531H231.356C232.342 36.4531 233.146 36.8927 233.146 37.4321C233.146 37.9714 232.342 38.4111 231.356 38.4111H218.809C217.823 38.4111 217.016 37.9685 217.016 37.4321C217.016 36.9719 217.603 36.585 218.386 36.4824H214.774C213.791 36.4824 212.984 36.0427 212.984 35.5033C212.984 34.964 213.791 34.5272 214.774 34.5272Z" fill="#6C63FF"/>
<path opacity="0.1" d="M59.5331 74.3803H59.9497C59.8118 74.3216 59.6921 74.2276 59.6023 74.1077C59.5125 73.9878 59.4562 73.8462 59.4392 73.6973C59.4392 73.1609 60.2461 72.7183 61.229 72.7183H73.7788C74.7617 72.7183 75.5687 73.1609 75.5687 73.6973C75.5687 74.2366 74.7617 74.6763 73.7788 74.6763H73.3592C73.4974 74.7341 73.6174 74.8273 73.7072 74.9469C73.797 75.0665 73.853 75.2077 73.8697 75.3564C73.8697 75.8166 73.2829 76.2035 72.4994 76.3061H76.1115C77.0974 76.3061 77.9043 76.7487 77.9043 77.2851C77.9043 77.8215 77.0974 78.2641 76.1115 78.2641H63.5764C62.5905 78.2641 61.7865 77.8245 61.7865 77.2851C61.7865 76.8278 62.3734 76.4409 63.1568 76.3354H59.5331C58.5472 76.3354 57.7402 75.8957 57.7402 75.3564C57.7402 74.817 58.5589 74.3803 59.5331 74.3803Z" fill="#6C63FF"/>
<path opacity="0.3" d="M295.783 178.836C297.89 168.533 272.086 154.564 238.145 147.634C204.204 140.705 174.981 143.441 172.873 153.744C170.766 164.047 196.571 178.017 230.512 184.946C264.453 191.875 293.676 189.14 295.783 178.836Z" fill="#032B4D"/>
<path d="M227.242 112.818C227.242 112.818 230.578 96.4587 243.316 97.9741C243.316 97.9741 252.118 98.578 253.929 104.335V117.059L227.242 112.818Z" fill="#3A3768"/>
<path d="M296.998 118.879L183.569 109.485L169.012 112.516L169.922 132.815L170.913 132.935L172.043 163.417L283.348 183.411L295.179 173.412V140.368L296.693 139.48L296.998 118.879Z" fill="#032B4D"/>
<path opacity="0.05" d="M297.15 118.879L296.845 139.48L284.563 145.237L284.41 123.725L297.15 118.879Z" fill="black"/>
<path opacity="0.05" d="M295.179 140.389L295.328 172.808L283.5 182.807L284.26 145.237L295.179 140.389Z" fill="black"/>
<path opacity="0.05" d="M171.066 134.148L284.352 147.957L284.41 145.337L170.981 133.116L171.066 134.148Z" fill="black"/>
<path opacity="0.05" d="M295.179 141.579V140.389L283.955 145.337V147.963L295.179 141.579Z" fill="black"/>
<path d="M168.86 112.516L183.417 109.485L296.845 118.879L284.108 123.725L168.86 112.516Z" fill="#FDCA05"/>
<path opacity="0.1" d="M284.762 119.462L290.328 119.826L281.103 122.584L276.405 122.247L284.762 119.462Z" fill="black"/>
<path d="M284.762 119.219L290.328 119.583L281.103 122.344L276.405 122.004L284.762 119.219Z" fill="#FF4568"/>
<path d="M284.096 119.844C284.316 119.75 284.548 119.929 284.783 119.973C284.918 119.999 285.056 119.973 285.191 119.999C285.464 120.034 285.734 120.216 285.995 120.125" fill="#D3DAE1"/>
<path d="M283.808 120.011C284.026 119.917 284.26 120.093 284.495 120.139C284.63 120.163 284.768 120.139 284.903 120.163C285.176 120.201 285.446 120.383 285.707 120.292" fill="#D3DAE1"/>
<path d="M283.145 120.345C283.365 120.251 283.6 120.427 283.834 120.471C283.966 120.497 284.107 120.471 284.239 120.497C284.515 120.536 284.785 120.717 285.043 120.624" fill="#D3DAE1"/>
<path opacity="0.1" d="M260.701 116.725L266.268 117.092L257.042 119.85L252.344 119.51L260.701 116.725Z" fill="black"/>
<path d="M260.701 116.485L266.268 116.848L257.042 119.607L252.344 119.27L260.701 116.485Z" fill="#FF4568"/>
<path d="M260.036 117.109C260.256 117.015 260.487 117.191 260.722 117.238C260.857 117.262 260.995 117.238 261.13 117.262C261.403 117.3 261.673 117.481 261.934 117.391" fill="#D3DAE1"/>
<path d="M259.748 117.276C259.965 117.182 260.199 117.358 260.434 117.402C260.569 117.429 260.707 117.402 260.842 117.429C261.115 117.467 261.385 117.648 261.646 117.555" fill="#D3DAE1"/>
<path d="M259.084 117.607C259.304 117.514 259.539 117.692 259.774 117.736C259.906 117.763 260.047 117.736 260.179 117.763C260.454 117.798 260.724 117.983 260.983 117.889" fill="#D3DAE1"/>
<path opacity="0.1" d="M272.241 118.094L277.81 118.457L268.585 121.218L263.884 120.878L272.241 118.094Z" fill="black"/>
<path d="M272.241 117.854L277.81 118.217L268.585 120.975L263.884 120.635L272.241 117.854Z" fill="#FF4568"/>
<path d="M271.575 118.478C271.795 118.384 272.03 118.56 272.265 118.604C272.397 118.63 272.535 118.604 272.67 118.63C272.943 118.665 273.215 118.85 273.474 118.756" fill="#D3DAE1"/>
<path d="M271.288 118.642C271.508 118.548 271.742 118.727 271.977 118.771C272.109 118.797 272.247 118.771 272.382 118.797C272.655 118.833 272.928 119.017 273.186 118.923" fill="#D3DAE1"/>
<path d="M270.627 118.976C270.845 118.883 271.079 119.058 271.314 119.105C271.449 119.129 271.587 119.105 271.722 119.129C271.995 119.167 272.265 119.349 272.526 119.258" fill="#D3DAE1"/>
<path opacity="0.3" d="M146.219 231.972C179.031 231.972 205.631 226.502 205.631 219.755C205.631 213.008 179.031 207.538 146.219 207.538C113.406 207.538 86.8065 213.008 86.8065 219.755C86.8065 226.502 113.406 231.972 146.219 231.972Z" fill="#032B4D"/>
<path d="M211.28 119.706C210.646 114.143 208.137 108.834 208.137 108.834L208.328 106.958C208.328 106.958 208.369 106.02 208.307 104.613C208.314 103.735 208.429 102.86 208.651 102.01C209.164 100.383 208.008 98.3842 207.879 98.1995C207.75 98.0148 207.943 94.4475 206.787 92.6976C205.631 90.9476 197.932 87.6939 197.932 87.6939C197.932 87.6939 197.518 86.8292 196.934 85.8179L196.987 85.7153C196.509 84.8494 195.917 84.0519 195.226 83.344C194.754 82.8398 194.299 82.5525 193.932 82.6932C193.783 82.2066 193.67 81.7101 193.592 81.2071C193.668 81.2276 193.748 81.2481 193.824 81.2628C194.142 81.3364 194.471 81.3443 194.792 81.2862C195.508 81.125 195.984 80.4831 196.383 79.8792C198.372 76.8601 200.086 73.5478 200.435 69.9746C200.528 69.2453 200.494 68.5051 200.332 67.7879C200.167 67.23 199.937 66.6939 199.645 66.1903C199.131 65.1571 198.48 64.1977 197.709 63.3382C196.339 61.8961 194.449 61.0138 192.506 60.492C190.318 59.904 188.038 59.734 185.787 59.9908C185.2 60.0582 184.613 60.1549 184.026 60.193C183.282 60.2258 182.536 60.2129 181.794 60.1549L177.953 59.9321L177.935 59.8735L177.295 59.8354C177.043 60.3366 177.295 60.9317 177.609 61.4007C177.923 61.8697 178.284 62.3592 178.258 62.9132C178.231 63.4672 177.829 63.9128 177.515 64.3788C177.201 64.8449 176.964 65.4546 177.278 65.9119C177.322 65.9752 177.374 66.0323 177.433 66.0819C177.765 66.4248 178.343 66.4629 178.845 66.4571H178.933C177.669 68.1197 176.985 70.1501 176.987 72.2375C176.996 74.0214 177.495 75.7685 178.432 77.2874C179.368 78.8064 180.705 80.0387 182.295 80.8495C182.351 81.04 182.407 81.2364 182.46 81.4357C183.041 83.4946 183.25 85.6409 183.076 87.7731L183.008 87.9196L182.967 87.7643C182.967 87.7643 178.443 90.8304 177.099 91.6423C175.755 92.4543 174.405 95.2067 174.341 95.9571C174.276 96.7075 172.157 108.025 172.157 108.025C171.727 109.165 171.372 110.332 171.095 111.519L168.393 113.89C168.393 113.89 162.818 114.392 161.204 114.016L161.251 114.327C159.828 114.003 158.378 113.806 156.92 113.741C156.123 113.639 155.314 113.747 154.573 114.055L154.517 114.081L154.473 114.101C153.623 114.218 152.794 114.45 152.008 114.793C151.914 114.831 151.829 114.869 151.747 114.908L151.765 114.524L145.732 114.213L142.651 113.589C142.651 113.589 141.559 112.709 140.917 112.838C140.274 112.967 138.927 112.088 138.927 112.088C138.62 111.847 138.287 111.641 137.935 111.472C137.833 110.763 137.768 110.332 137.768 110.332C137.768 110.332 135.371 100.829 133.575 95.2419C132.372 91.5104 130.641 89.6725 129.62 88.8723C129.165 88.0808 128.866 87.5708 128.866 87.5708C128.669 86.8849 127.589 85.3401 127.313 85.302C127.269 85.2317 127.237 85.1965 127.22 85.1965C127.16 85.1901 127.101 85.1994 127.046 85.2229C126.542 82.7137 126.248 79.5685 127.02 76.8278C128.076 75.9605 128.928 74.8706 129.513 73.6363C130.098 72.4016 130.404 71.0533 130.406 69.6873C130.406 69.6463 130.406 69.6052 130.406 69.5642C130.406 69.5232 130.406 69.4792 130.406 69.4381C130.406 67.2596 129.633 65.1518 128.226 63.4877L128.126 63.3763C128.153 63.3576 128.178 63.3368 128.203 63.3148C128.423 63.1363 128.591 62.9012 128.688 62.635C128.786 62.3686 128.81 62.081 128.757 61.8023C128.625 61.2395 128.185 60.7968 127.959 60.2634C127.823 59.8527 127.714 59.4335 127.633 59.0088C127.46 58.4055 127.143 57.853 126.709 57.3995L126.753 57.5168C125.603 56.2241 123.625 55.5822 121.844 55.8694C120.521 56.0805 119.288 56.696 117.959 56.8866C117.005 57.0214 116.034 56.9335 115.075 57.0302C114.185 57.1217 113.318 57.3717 112.516 57.7689C112.307 57.858 112.121 57.9943 111.973 58.1675C111.837 58.3994 111.745 58.655 111.703 58.9208C111.378 60.108 110.345 60.9551 109.597 61.9459C108.742 63.0779 108.247 64.4401 108.176 65.8562C108.147 66.2161 108.182 66.5784 108.279 66.9261C108.344 67.1342 108.443 67.3306 108.49 67.5416C108.637 68.1865 108.3 68.8285 108.135 69.4675C107.928 70.2826 108.001 71.1435 108.344 71.9121C109.503 74.5033 113.308 75.368 114.101 78.0882C114.707 78.3667 115.347 78.5637 116.005 78.6745C116.058 78.9442 116.105 79.2168 116.143 79.4923C116.125 79.4999 116.108 79.5096 116.093 79.5216C115.066 80.5212 114.811 82.4529 114.811 82.4529L114.687 82.5525C114.268 82.8984 112.833 84.0592 111.536 84.9532C109.996 86.0173 107.428 89.5816 105.632 90.6457C103.837 91.7097 102.358 98.2669 102.745 100.65C103.132 103.033 104.734 109.716 104.092 112.155C103.449 114.594 105.054 125.724 105.054 125.724C106.131 125.929 107.185 126.241 108.2 126.656L108.168 127.143L108.071 128.608C108.071 128.608 105.163 139.114 106.275 147.201C107.387 155.288 105.761 156.121 105.761 156.121C105.761 156.121 106.102 159.706 105.248 160.957C104.394 162.209 104.221 164.959 104.221 164.959C104.221 164.959 104.136 171.129 104.306 172.873C104.476 174.617 104.561 177.794 103.963 178.545C103.364 179.295 102.252 184.211 102.337 185.712C102.422 187.213 100.198 190.633 101.395 195.051C102.592 199.468 97.8742 199.553 97.8742 199.553C97.8742 199.553 98.4758 206.295 99.758 208.224L99.9458 208.499C99.9135 208.611 99.8813 208.728 99.846 208.854C99.3619 210.613 98.6988 213.389 99.1594 214.06C99.8431 215.062 100.186 214.892 100.186 214.892L100.442 219.395C100.442 219.395 105.577 223.73 109.514 223.566C113.452 223.402 112.68 219.395 112.68 219.395L109.327 210.706L109.212 210.413L112.939 203.378C112.939 203.378 113.966 200.295 114.221 199.21C114.476 198.126 115.87 194.283 115.87 194.283C115.87 194.283 119.391 185.946 119.464 184.944C119.538 183.941 119.808 178.527 120.491 177.44C121.175 176.352 123.059 170.112 123.059 170.112L123.106 170.153C123.425 170.466 123.654 170.861 123.766 171.294C123.879 171.727 123.872 172.183 123.745 172.612C123.314 174.195 123.572 177.446 123.572 177.446C123.572 177.446 123.402 180.198 123.059 181.617C122.716 183.036 122.633 194.623 123.232 197.372C123.71 199.574 123.696 203.695 123.672 205.254C123.27 206.91 122.918 208.968 123.572 209.212C124.687 209.631 130.336 209.546 130.336 209.546C130.336 209.546 132.73 208.71 135.984 211.63C139.238 214.549 149.247 210.797 149.247 210.797C149.247 210.797 152.328 209.962 146.251 207.547C142.011 205.861 139.273 204.738 137.484 203.537C137.525 203.457 137.569 203.378 137.607 203.293C137.607 203.293 135.124 200.948 137.178 196.792C139.232 192.635 139.147 189.121 139.147 189.121L139.491 175.112L138.464 156.517L137.668 137L137.809 136.953C137.944 140.541 138.646 149.083 142.316 147.427C146.938 145.343 143 139.923 143 139.923L140.925 135.884L141.545 135.673L139.224 128.18C139.001 126.718 138.971 125.233 139.136 123.763C139.181 122.903 139.164 122.041 139.083 121.183C142.123 120.653 145.033 120.09 145.556 120.219C146.172 120.368 149.62 120.398 150.975 120.404C150.532 120.75 150.177 121.092 150.177 121.092L155.696 124.803C155.696 124.803 157.568 123.78 157.959 122.696C158.342 122.599 158.697 122.41 158.992 122.145C159.05 123.426 159.391 124.812 160.576 124.844C160.872 124.851 161.167 124.793 161.439 124.674L170.464 122.889L169.69 127.723L170.23 128.681C169.957 132.759 169.643 137.088 169.367 140.896L169.241 141.728L169.305 141.743C168.877 147.606 168.534 152.046 168.534 152.046C169.039 151.084 169.824 150.296 170.784 149.786L170.843 158.486C170.843 158.486 171.295 172.243 171.295 174.119C171.295 175.995 171.356 180.183 171.356 180.183C171.356 180.183 172.322 185.31 172.897 186.999C173.472 188.687 173.924 196.379 173.924 196.379C173.924 196.379 175.274 198.504 174.696 199.31C174.118 200.116 176.943 201.872 176.943 201.872C176.943 201.872 175.145 204.31 175.015 205.937C175.001 206.125 175.186 206.324 175.52 206.524C175.414 206.609 175.306 206.694 175.186 206.776C174.352 207.333 173.132 207.719 171.295 207.561C166.286 207.122 162.756 211.75 165.837 212.688C168.918 213.626 178.161 213.814 178.161 213.814C178.161 213.814 180.96 212.069 183.149 212.855C183.117 214.69 183.208 216.373 183.223 216.595L183.196 216.616C181.887 217.788 179.382 219.805 176.934 220.629C173.413 221.816 172.633 226.632 177.19 227.256C181.747 227.881 188.422 226.506 188.422 226.506C188.422 226.506 191.887 223.944 194.519 223.381C197.151 222.818 199.399 221.567 198.95 220.066C198.657 219.107 197.903 216.595 197.392 214.907C197.363 214.805 197.333 214.708 197.304 214.614C197.383 214.438 197.462 214.256 197.536 214.069C197.536 214.069 196.189 207.066 197.28 205.316C198.372 203.566 197.794 186.055 197.794 186.055C197.794 186.055 195.931 181.617 196.896 178.929C197.861 176.241 195.356 172.424 195.356 172.424C195.356 172.424 195.628 164.777 196.362 160.515C196.395 160.333 196.427 160.157 196.459 159.987C197.687 159.623 198.884 159.161 200.039 158.607C200.039 158.607 200.681 148.974 201.066 146.788C201.104 146.583 201.157 146.251 201.221 145.82L201.515 144.276L201.861 142.517L203.034 136.523L205.153 133.785L210.611 128.215C210.611 128.215 211.922 125.272 211.28 119.706ZM127.114 85.3138L127.073 85.3431C127.066 85.322 127.061 85.3003 127.058 85.2786C127.075 85.2926 127.094 85.3044 127.114 85.3138ZM181.036 92.1406L180.825 92.6008L181.597 91.8328L180.549 93.0053L180.902 92.2667L181.036 92.1406ZM175.825 102.898C175.623 103.435 175.406 104.015 175.18 104.619L175.593 103.385L175.825 102.898Z" fill="url(#paint0_linear)"/>
<path d="M158.986 120.436C158.986 120.436 158.267 125.217 160.424 125.278C162.58 125.34 164.021 121.591 164.021 121.591L163.14 118.592L158.986 120.436Z" fill="#585B8A"/>
<path opacity="0.2" d="M158.986 120.436C158.986 120.436 158.267 125.217 160.424 125.278C162.58 125.34 164.021 121.591 164.021 121.591L163.14 118.592L158.986 120.436Z" fill="black"/>
<path d="M110.679 223.921C106.841 224.088 101.835 219.755 101.835 219.755L101.586 215.256C101.586 215.256 101.254 215.423 100.585 214.423C100.136 213.752 100.782 210.97 101.254 209.221C101.483 208.365 101.671 207.755 101.671 207.755L110.092 210.006L110.494 211.07L113.763 219.753C113.763 219.753 114.514 223.754 110.679 223.921Z" fill="black"/>
<path d="M149.374 211.176C149.374 211.176 139.617 214.925 136.463 212.008C133.309 209.092 130.958 209.924 130.958 209.924C130.958 209.924 125.454 210.009 124.368 209.59C123.728 209.347 124.075 207.262 124.474 205.603C124.744 204.457 125.037 203.51 125.037 203.51C125.037 203.51 134.626 200.26 136.128 202.259C136.58 202.846 137.119 203.36 137.728 203.783C139.465 205.038 142.179 206.175 146.472 207.925C152.375 210.34 149.374 211.176 149.374 211.176Z" fill="black"/>
<path d="M140.617 135.025L143.284 140.357C143.284 140.357 147.122 145.774 142.618 147.855C138.114 149.936 138.199 135.86 138.199 135.86L140.617 135.025Z" fill="#FFD6D6"/>
<path d="M129.441 88.7871C129.441 88.7871 132.361 90.1208 134.113 95.7019C135.864 101.283 138.2 110.783 138.2 110.783C138.2 110.783 139.784 121.529 139.532 124.197C139.371 125.666 139.4 127.149 139.617 128.611L141.868 136.109L137.364 137.692L130.442 111.199L129.441 88.7871Z" fill="#DCE6F2"/>
<path opacity="0.05" d="M129.441 88.7871C129.441 88.7871 132.361 90.1208 134.113 95.7019C135.864 101.283 138.2 110.783 138.2 110.783C138.2 110.783 139.784 121.529 139.532 124.197C139.371 125.666 139.4 127.149 139.617 128.611L141.868 136.109L137.364 137.692L130.442 111.199L129.441 88.7871Z" fill="black"/>
<path opacity="0.1" d="M110.093 210.009L110.495 211.073L110.002 212.014C108.083 212.846 103.329 212.181 103.329 212.181C103.329 212.181 102.449 211.064 101.246 209.226C101.475 208.37 101.663 207.761 101.663 207.761L110.093 210.009Z" fill="black"/>
<path opacity="0.1" d="M138.033 204.176C135.6 209.681 127.332 207.638 125.034 206.949C124.656 206.835 124.447 206.758 124.447 206.758C124.447 206.758 124.462 206.31 124.468 205.603C124.738 204.457 125.031 203.51 125.031 203.51C125.031 203.51 134.62 200.26 136.123 202.259C136.574 202.846 137.113 203.36 137.722 203.783C137.814 203.923 137.918 204.054 138.033 204.176Z" fill="black"/>
<path d="M137.613 197.179C135.612 201.341 138.033 203.678 138.033 203.678C135.601 209.179 127.332 207.139 125.034 206.448C124.656 206.336 124.448 206.26 124.448 206.26C124.448 206.26 124.615 200.509 124.031 197.759C123.447 195.01 123.529 183.431 123.864 182.016C124.198 180.6 124.362 177.847 124.362 177.847C124.362 177.847 124.113 174.6 124.53 173.017C124.655 172.589 124.663 172.136 124.554 171.704C124.445 171.272 124.221 170.877 123.908 170.56L123.864 170.516C123.864 170.516 122.03 176.766 121.361 177.844C120.692 178.923 120.445 184.343 120.36 185.343C120.275 186.342 116.857 194.676 116.857 194.676C116.857 194.676 115.525 198.507 115.275 199.588C115.026 200.67 114.022 203.757 114.022 203.757L110.002 211.507C108.083 212.339 103.33 211.674 103.33 211.674C103.33 211.674 102.414 210.501 101.161 208.59C99.9085 206.679 99.3275 199.928 99.3275 199.928C99.3275 199.928 103.914 199.843 102.746 195.429C101.578 191.015 103.746 187.597 103.664 186.096C103.582 184.595 104.665 179.682 105.249 178.932C105.833 178.182 105.748 175.016 105.58 173.266C105.413 171.516 105.498 165.352 105.498 165.352C105.498 165.352 105.665 162.602 106.499 161.353C107.332 160.105 107.001 156.52 107.001 156.52C107.001 156.52 108.582 155.687 107.499 147.606C106.417 139.524 109.26 129.028 109.26 129.028L109.357 127.562L109.509 125.188C109.509 125.188 133.362 123.687 135.281 125.519C135.782 126.027 136.194 126.617 136.498 127.263C137.155 128.673 137.619 130.165 137.878 131.698L138.878 156.942L139.879 175.52L139.544 189.517C139.544 189.517 139.618 193.011 137.613 197.179Z" fill="#032B4D"/>
<path opacity="0.1" d="M130.541 147.356L128.038 201.508L125.034 206.444C124.655 206.333 124.447 206.257 124.447 206.257C124.447 206.257 124.614 200.506 124.03 197.756C123.446 195.007 123.528 183.428 123.863 182.012C124.197 180.597 124.362 177.844 124.362 177.844C124.362 177.844 124.112 174.596 124.529 173.014C124.654 172.586 124.663 172.132 124.553 171.701C124.444 171.269 124.221 170.874 123.907 170.557L123.948 170.264L130.541 147.356Z" fill="black"/>
<path opacity="0.1" d="M103.587 205.509C103.587 205.509 110.092 202.927 111.093 203.751C112.093 204.574 103.423 205.832 103.423 205.832L103.587 205.509Z" fill="black"/>
<path opacity="0.1" d="M135.697 198.676C135.448 198.761 129.11 201.021 129.694 203.425C130.278 205.828 135.697 198.676 135.697 198.676Z" fill="black"/>
<path d="M115.891 75.4178C115.891 75.4178 118.015 80.5416 116.892 83.168C115.768 85.7944 129.025 90.2909 129.025 90.2909C129.025 90.2909 125.149 80.2925 128.901 74.6674C132.654 69.0424 115.891 75.4178 115.891 75.4178Z" fill="#FFD6D6"/>
<path d="M193.513 223.753C190.949 224.316 187.572 226.878 187.572 226.878C187.572 226.878 181.066 228.253 176.624 227.629C172.181 227.004 172.936 222.191 176.374 221.004C178.76 220.183 181.204 218.158 182.481 216.997C183.044 216.478 183.378 216.118 183.378 216.118L195.828 213.617C195.828 213.617 196.031 214.312 196.313 215.27C196.811 216.962 197.548 219.471 197.83 220.426C198.267 221.942 196.078 223.191 193.513 223.753Z" fill="#505484"/>
<path d="M190.324 214.13C190.324 214.13 185.068 214.693 182.879 213.444C180.69 212.195 177.563 214.194 177.563 214.194C177.563 214.194 168.554 214.007 165.553 213.069C162.551 212.131 165.99 207.5 170.87 207.945C172.648 208.106 173.851 207.716 174.664 207.16C175.513 206.578 176.105 205.692 176.315 204.686L186.879 205.31L188.346 209.05L190.324 214.13Z" fill="#505484"/>
<path opacity="0.1" d="M188.508 210.756C188.508 210.756 176.231 208.751 174.664 207.16C175.513 206.578 176.105 205.692 176.316 204.686L186.879 205.31L188.347 209.05L188.508 210.756Z" fill="black"/>
<path d="M170.306 140.588L170.432 158.894C170.432 158.894 170.87 172.641 170.87 174.517C170.87 176.393 170.931 180.576 170.931 180.576C170.931 180.576 171.87 185.7 172.434 187.389C172.997 189.077 173.434 196.768 173.434 196.768C173.434 196.768 174.749 198.894 174.185 199.7C173.622 200.506 176.374 202.262 176.374 202.262C176.374 202.262 174.614 204.7 174.499 206.324C174.385 207.948 188.507 210.255 188.507 210.255L183.006 153.896L178.625 139.776L170.306 140.588Z" fill="#575988"/>
<path opacity="0.1" d="M170.306 140.588L170.432 158.894C170.432 158.894 170.87 172.641 170.87 174.517C170.87 176.393 170.931 180.576 170.931 180.576C170.931 180.576 171.87 185.7 172.434 187.389C172.997 189.077 173.434 196.768 173.434 196.768C173.434 196.768 174.749 198.894 174.185 199.7C173.622 200.506 176.374 202.262 176.374 202.262C176.374 202.262 174.614 204.7 174.499 206.324C174.385 207.948 188.507 210.255 188.507 210.255L183.006 153.896L178.625 139.776L170.306 140.588Z" fill="black"/>
<path opacity="0.1" d="M196.312 215.285C192.224 225.02 182.503 217.507 182.503 217.507C182.503 217.507 182.503 217.319 182.48 216.997C183.043 216.478 183.378 216.118 183.378 216.118L195.828 213.617C195.828 213.617 196.03 214.327 196.312 215.285Z" fill="black"/>
<path d="M196.453 214.444C192.448 224.703 182.504 217.006 182.504 217.006C182.504 217.006 182.19 211.695 182.817 209.259C183.445 206.823 182.128 199.509 182.128 199.509C182.128 199.509 181.377 193.011 180.69 191.513C180.004 190.015 180.065 187.013 180.065 186.764C180.065 186.515 180.315 184.513 179.751 183.138C179.188 181.764 178.871 178.39 178.871 178.39C178.871 178.39 178.871 173.641 178.308 170.83L176.368 161.157L172.865 141.348L173.959 141.16L193.569 137.725C193.569 137.725 197.26 156.485 196.007 158.407C195.737 158.83 195.499 159.753 195.303 160.943C194.587 165.199 194.32 172.841 194.32 172.841C194.32 172.841 196.758 176.652 195.822 179.339C194.886 182.027 196.702 186.462 196.702 186.462C196.702 186.462 197.266 203.959 196.201 205.709C195.135 207.459 196.453 214.444 196.453 214.444Z" fill="#575988"/>
<path d="M194.575 86.5389C194.575 86.5389 176.811 99.0348 180.814 92.7854C182.97 89.4203 182.574 85.1349 181.729 81.8988C181.302 80.2529 180.712 78.6533 179.968 77.1238C179.968 77.1238 195.062 70.7102 193.061 76.4584C192.592 77.7974 192.393 79.2161 192.474 80.6325C192.594 82.7614 193.323 84.8115 194.575 86.5389Z" fill="#D28690"/>
<path d="M162.592 115.157C162.592 115.157 155.086 112.99 153.836 115.116C152.586 117.241 154.212 121.904 156.477 122.655C158.742 123.405 163.942 120.113 163.942 120.113L162.592 115.157Z" fill="#D28690"/>
<path d="M171.183 111.472L168.056 114.348C168.056 114.348 162.613 114.846 161.049 114.471C161.049 114.471 162.489 124.094 160.424 125.281L173.058 122.719L171.183 111.472Z" fill="#585B8A"/>
<path opacity="0.1" d="M171.183 111.472L168.056 114.348C168.056 114.348 162.613 114.846 161.049 114.471C161.049 114.471 162.489 124.094 160.424 125.281L173.058 122.719L171.183 111.472Z" fill="black"/>
<path opacity="0.1" d="M131.026 70.1683C131.026 72.656 130.036 75.0418 128.275 76.8008C126.515 78.5598 124.126 79.5483 121.636 79.5483C116.818 77.2355 112.247 75.3537 112.247 70.1683C112.196 68.9061 112.402 67.6471 112.851 66.4664C113.3 65.2857 113.983 64.2079 114.859 63.2971C115.735 62.3867 116.787 61.6624 117.95 61.1676C119.113 60.6725 120.364 60.4175 121.629 60.4175C122.893 60.4175 124.144 60.6725 125.307 61.1676C126.471 61.6624 127.522 62.3867 128.398 63.2971C129.274 64.2079 129.957 65.2857 130.406 66.4664C130.855 67.6471 131.061 68.9061 131.011 70.1683H131.026Z" fill="black"/>
<path d="M131.025 69.916C131.027 72.1221 130.248 74.2575 128.828 75.9462C127.407 77.6349 125.435 78.7681 123.259 79.1459C121.083 79.5238 118.844 79.1222 116.936 78.0118C115.028 76.9015 113.574 75.1536 112.83 73.0768C112.086 70.9997 112.1 68.7268 112.869 66.6594C113.639 64.5917 115.114 62.8617 117.036 61.7748C118.958 60.6879 121.201 60.3139 123.372 60.7184C125.543 61.1229 127.501 62.2801 128.901 63.9861C130.272 65.659 131.023 67.7539 131.025 69.916Z" fill="#FFD6D6"/>
<path opacity="0.1" d="M136.498 127.272C135.569 127.848 134.597 128.352 133.59 128.778C133.59 128.778 128.837 128.09 128.15 128.902C127.464 129.714 121.402 130.027 121.402 130.027C121.402 130.027 112.144 129.59 110.768 128.403C110.342 128.059 109.869 127.779 109.362 127.571L109.515 125.196C109.515 125.196 133.367 123.696 135.286 125.528C135.786 126.037 136.196 126.626 136.498 127.272Z" fill="black"/>
<path d="M137.657 125.592C137.469 126.653 133.59 128.277 133.59 128.277C133.59 128.277 128.836 127.591 128.15 128.403C127.463 129.215 121.401 129.528 121.401 129.528C121.401 129.528 112.143 129.089 110.767 127.902C109.391 126.714 106.325 126.143 106.325 126.143C106.325 126.143 104.761 115.022 105.389 112.586C106.017 110.15 104.45 103.461 104.074 101.087C103.699 98.7122 105.136 92.1521 106.888 91.091C108.64 90.0299 111.143 86.4655 112.642 85.4044C113.907 84.5104 115.304 83.3525 115.711 83.0037L115.832 82.904C115.832 82.904 116.084 80.9665 117.085 79.9728C118.085 78.9791 127.278 86.2838 127.278 86.2838C127.278 86.2838 127.343 86.8466 127.968 85.7855C128.109 85.548 129.32 87.295 129.532 88.0337C129.532 88.0337 134.535 96.7835 134.848 98.5862C135.162 100.389 136.474 106.272 136.723 107.708C136.788 108.078 136.894 109.373 137.017 111.108C137.04 111.448 137.061 111.809 137.087 112.184C137.272 115.063 137.472 118.739 137.592 121.517C137.592 121.834 137.618 122.139 137.627 122.432C137.691 123.484 137.701 124.539 137.657 125.592Z" fill="#DCE6F2"/>
<path opacity="0.1" d="M105.894 103.033C105.894 103.033 109.333 107.219 110.46 107.219C111.586 107.219 105.894 103.033 105.894 103.033Z" fill="black"/>
<path opacity="0.1" d="M113.138 112.032C113.138 112.032 107.508 118.156 108.259 119.281C109.01 120.407 113.138 112.032 113.138 112.032Z" fill="black"/>
<path opacity="0.1" d="M109.01 124.217C109.01 124.217 115.466 117.156 115.759 114.72L109.01 124.217Z" fill="black"/>
<path opacity="0.1" d="M117.14 124.716C117.14 124.716 124.585 120.779 125.21 117.654C125.835 114.53 117.14 124.716 117.14 124.716Z" fill="black"/>
<path opacity="0.1" d="M126.586 86.727L125.553 89.2244L127.273 90.0364L128.963 94.7557C128.963 94.7557 133.623 104.065 133.435 108.908C133.247 113.75 134.28 121.028 134.28 121.028L136.968 120.53L135.7 106.287C135.503 104.082 134.95 101.923 134.063 99.8941C131.915 94.9814 127.918 85.9121 127.666 85.9121C127.323 85.9121 127.563 86.0382 127.563 86.0382L126.586 86.727Z" fill="black"/>
<path d="M126.835 86.4746L125.802 88.9749L127.524 89.7869L129.212 94.5062C129.212 94.5062 133.871 103.816 133.683 108.658C133.495 113.501 134.528 120.779 134.528 120.779L137.219 120.281L135.949 106.038C135.753 103.832 135.201 101.673 134.314 99.6446C132.166 94.7289 128.17 85.6626 127.92 85.6626C127.574 85.6626 127.815 85.7886 127.815 85.7886L126.835 86.4746Z" fill="#575989"/>
<path d="M157.295 123.197C155.987 123.098 152.847 121.512 151.6 120.852L151.072 120.559L151.136 115.72C151.445 115.539 151.764 115.377 152.093 115.236C153.76 114.509 157.178 113.521 158.892 116.702C161.204 120.967 158.953 123.309 157.295 123.197Z" fill="#FFD6D6"/>
<path opacity="0.1" d="M128.901 63.986C128.767 64.0701 128.619 64.1308 128.464 64.1648C127.376 64.4022 126.137 63.4672 125.204 64.0681C124.635 64.4374 124.503 65.2025 124.427 65.8767C124.294 67.0492 124.161 68.214 124.028 69.3707C124 69.7825 123.913 70.1882 123.769 70.5754C123.309 71.6278 122.044 72.1231 120.891 72.1056C120.439 72.1378 119.993 71.9904 119.65 71.6952C119.447 71.49 119.339 71.2027 119.116 71.0151C117.649 69.7869 117.203 72.7973 117.59 73.6533C118.212 75.0515 120.422 76.3998 119.494 78.1762C119.338 78.4649 119.102 78.702 118.814 78.8591C117.416 78.4221 116.141 77.6647 115.089 76.6472C114.037 75.6298 113.237 74.3805 112.755 72.9996C112.272 71.6187 112.12 70.144 112.309 68.6936C112.499 67.2432 113.025 65.8573 113.846 64.6464C114.668 63.4355 115.761 62.433 117.039 61.7196C118.318 61.0061 119.745 60.601 121.208 60.5368C122.671 60.4729 124.128 60.7514 125.464 61.3502C126.8 61.9491 127.977 62.8516 128.901 63.986Z" fill="black"/>
<path d="M118.866 71.0036C119.086 71.1883 119.198 71.4756 119.4 71.6808C119.744 71.9756 120.19 72.1231 120.641 72.0911C121.794 72.1087 123.059 71.6163 123.517 70.5581C123.663 70.1726 123.751 69.7675 123.778 69.3563L124.177 65.8622C124.253 65.1881 124.382 64.423 124.955 64.0537C125.888 63.4674 127.126 64.3878 128.214 64.1504C128.607 64.0507 128.947 63.8057 129.165 63.4648C129.383 63.1242 129.463 62.7132 129.388 62.3154C129.262 61.7556 128.834 61.313 128.614 60.7795C128.48 60.3697 128.373 59.9514 128.294 59.5278C127.686 57.2532 125.013 55.9752 122.689 56.3562C121.398 56.5702 120.198 57.1858 118.904 57.3734C117.977 57.5082 117.029 57.4203 116.093 57.5199C115.223 57.6096 114.378 57.8591 113.599 58.2557C113.395 58.3463 113.214 58.4826 113.071 58.6543C112.938 58.8865 112.848 59.1406 112.807 59.4047C112.493 60.5772 111.483 61.4419 110.753 62.4298C109.917 63.5665 109.434 64.9228 109.362 66.3312C109.333 66.6909 109.367 67.0529 109.462 67.4011C109.523 67.6063 109.62 67.8057 109.667 68.0167C109.811 68.6586 109.482 69.3006 109.321 69.9396C109.12 70.7551 109.193 71.6136 109.526 72.3843C110.653 74.9725 114.365 75.8373 115.137 78.5545C115.822 78.8828 116.562 79.0816 117.32 79.1408C118.077 79.1554 118.892 78.8301 119.244 78.1588C120.169 76.4001 117.962 75.0341 117.34 73.6388C116.95 72.78 117.387 69.7725 118.866 71.0036Z" fill="#353045"/>
<path opacity="0.1" d="M193.076 76.4584C192.607 77.7974 192.407 79.2161 192.489 80.6325C192.037 81.0165 191.544 79.8674 191.022 80.1635C189.59 80.9901 187.935 82.957 186.162 82.957C184.626 82.9578 183.11 82.5952 181.741 81.8988C181.313 80.2529 180.724 78.6533 179.98 77.1238C179.98 77.1238 195.077 70.7102 193.076 76.4584Z" fill="black"/>
<path d="M195.91 72.7093C195.91 74.6374 195.337 76.5225 194.265 78.1256C193.193 79.729 191.669 80.9786 189.885 81.7164C188.102 82.4545 186.14 82.6473 184.247 82.2713C182.354 81.8952 180.615 80.9666 179.25 79.603C177.885 78.2396 176.955 76.5026 176.579 74.6114C176.202 72.7201 176.396 70.7597 177.134 68.9784C177.873 67.1971 179.124 65.6743 180.729 64.6029C182.334 63.5318 184.22 62.96 186.15 62.96C187.432 62.9597 188.701 63.2115 189.886 63.7013C191.07 64.1911 192.146 64.9092 193.052 65.8147C193.958 66.7199 194.677 67.795 195.168 68.9778C195.658 70.1608 195.91 71.4289 195.91 72.7093Z" fill="#D28690"/>
<path d="M195.494 88.7051C195.494 88.7051 193.657 90.7042 193.408 90.8683C193.159 91.0325 187.833 113.439 187.739 113.7C187.645 113.961 181.398 134.192 181.398 134.192L171.389 139.108L172.226 114.362L179.561 93.9549C179.561 93.9549 181.982 91.2054 182.73 90.2059C183.478 89.2063 192.821 83.2061 192.821 83.2061L194.417 86.492L195.494 88.7051Z" fill="#F0F3F7"/>
<path opacity="0.1" d="M194.171 86.9934L182.662 95.2244L182.478 90.7044C183.229 89.7048 192.568 83.7075 192.568 83.7075L194.171 86.9934Z" fill="black"/>
<path d="M194.42 86.492L182.912 94.7229L182.733 90.2059C183.484 89.2034 192.824 83.2061 192.824 83.2061L194.42 86.492Z" fill="#F0F3F7"/>
<path d="M182.349 88.1953L182.733 90.2061L180.16 92.8179L182.214 88.2246C182.214 88.2246 177.812 91.2878 176.492 92.0997C175.171 92.9117 173.851 95.6612 173.801 96.4116C173.751 97.162 171.674 108.471 171.674 108.471C171.674 108.471 170.11 112.657 170.55 113.844C170.99 115.031 168.173 152.46 168.173 152.46C168.55 151.733 169.082 151.098 169.732 150.6C170.382 150.102 171.134 149.753 171.935 149.578L170.931 127.459C170.931 127.459 172.152 112.744 172.214 112.557C172.275 112.369 175.06 103.839 175.06 103.839L182.349 88.1953Z" fill="#585B8A"/>
<path opacity="0.1" d="M182.985 90.4556L182.786 94.5593C182.786 94.5593 180.001 103.338 179.065 104.775C178.129 106.211 175.28 114.773 175.28 114.773L173.675 129.646L170.923 130.898L169.567 128.403L171.82 114.04C171.82 114.04 176.072 101.92 176.7 100.668L179.837 94.0669L182.985 90.4556Z" fill="black"/>
<path d="M182.733 90.2061L182.536 94.3098C182.536 94.3098 179.751 103.089 178.813 104.525C177.874 105.961 175.03 114.524 175.03 114.524L173.434 129.394L170.682 130.643L169.306 128.145L171.559 113.782C171.559 113.782 175.811 101.658 176.436 100.41L179.596 93.8173L182.733 90.2061Z" fill="#FF4568"/>
<path d="M150.291 121.53L155.67 125.249C155.67 125.249 159.464 123.124 157.254 121.749C155.045 120.375 153.085 120.167 152.375 120.167C151.665 120.167 150.291 121.53 150.291 121.53Z" fill="#D28690"/>
<path d="M154.308 114.653C154.188 114.727 154.089 114.831 154.021 114.955C153.953 115.079 153.917 115.218 153.918 115.359C153.918 116.499 154.047 119.518 155.004 118.155C156.177 116.487 155.963 114.99 157.756 116.071C158.87 116.764 159.846 117.659 160.632 118.709L160.133 115.127C160.133 115.127 156.447 113.31 154.308 114.653Z" fill="#D28690"/>
<path opacity="0.1" d="M196.013 158.396C195.743 158.818 195.505 159.741 195.309 160.931C184.34 164.217 176.315 157.27 176.315 157.27C175.344 153.983 174.551 150.647 173.939 147.275C173.742 146.12 173.786 143.88 173.968 141.148L193.577 137.713C193.577 137.713 197.266 156.458 196.013 158.396Z" fill="black"/>
<path d="M207.272 102.471C206.774 104.098 206.961 107.407 206.961 107.407L202.457 128.653C202.457 128.653 200.268 145.024 199.893 147.21C199.517 149.397 198.892 159.02 198.892 159.02C186.131 165.27 176.298 156.772 176.298 156.772C175.328 153.484 174.534 150.146 173.922 146.774C173.294 143.063 175.142 128.195 176.017 121.591C176.278 119.636 176.454 118.405 176.454 118.405L179.737 106.22C179.737 106.22 183.772 95.9399 185.274 92.9412C186.777 89.9425 192.809 83.2065 192.809 83.2065C193.558 82.7317 194.755 84.4083 195.644 85.9355C196.316 87.0904 196.818 88.1633 196.818 88.1633C196.818 88.1633 204.323 91.4111 205.447 93.1464C206.571 94.8817 206.386 98.4578 206.512 98.6454C206.639 98.833 207.774 100.847 207.272 102.471Z" fill="#585B8A"/>
<path opacity="0.1" d="M189.573 94.9103C189.573 94.9103 190.136 98.2226 188.693 99.2222C187.299 100.19 176.924 120.57 176.278 121.843C176.539 119.885 176.715 118.653 176.715 118.653L179.999 106.471C179.999 106.471 184.036 96.1913 185.536 93.1897C187.035 90.1881 193.074 83.4551 193.074 83.4551C193.822 82.9802 195.016 84.6569 195.905 86.184C194.564 88.9658 191.768 94.2244 189.573 94.9103Z" fill="black"/>
<path d="M189.323 94.6618C189.323 94.6618 189.884 97.9741 188.443 98.9737C187.002 99.9732 176.677 120.319 176.022 121.591C176.283 119.636 176.46 118.405 176.46 118.405L179.743 106.22C179.743 106.22 183.777 95.9398 185.28 92.9412C186.782 89.9425 192.815 83.2065 192.815 83.2065C193.563 82.7317 194.76 84.4083 195.649 85.9355C194.314 88.7143 191.515 93.9759 189.323 94.6618Z" fill="#585B8A"/>
<path d="M204.209 124.592L200.679 142.939V142.942L200.342 144.698V144.701L199.582 148.649L196.339 147.963L194.828 147.644L173.916 143.218L172.378 142.892L168.869 142.151L169.556 137.595L169.84 135.702L172.373 118.906L204.209 124.592Z" fill="#6C63FF"/>
<path d="M184.693 139.588C184.693 139.588 176.375 142.587 178.188 146.148C180.001 149.71 191.636 143.399 191.636 143.399L184.693 139.588Z" fill="#D28690"/>
<path opacity="0.1" d="M190.635 165.144C190.635 165.393 190.949 168.582 192.199 169.705C193.449 170.827 190.635 165.144 190.635 165.144Z" fill="black"/>
<path opacity="0.1" d="M182.254 176.452C182.254 176.452 183.753 180.576 189.695 182.265C195.637 183.953 182.254 176.452 182.254 176.452Z" fill="black"/>
<path opacity="0.1" d="M195.911 72.7096C195.911 74.4235 195.459 76.1072 194.6 77.591C193.742 79.0745 192.506 80.3059 191.019 81.1603C190.459 80.847 189.961 80.4325 189.552 79.938C189.127 79.4221 188.795 78.7186 189.05 78.1031C189.256 77.6077 189.799 77.294 189.931 76.7811C189.993 76.4674 189.977 76.1432 189.884 75.8372C189.775 75.3536 189.672 74.8699 189.567 74.3892C189.476 73.9788 189.314 73.4952 188.907 73.3955C188.499 73.2958 188.158 73.6359 187.839 73.8879C187.055 74.5064 185.553 74.9256 184.611 74.4185C183.669 73.9114 183.933 72.2142 183.78 71.2967C183.779 71.217 183.759 71.1387 183.724 71.0672C183.688 70.996 183.638 70.9332 183.575 70.8834C183.438 70.838 183.292 70.828 183.15 70.8541C182.642 70.8541 182.234 70.3998 182.087 69.9132C181.984 69.4163 181.927 68.911 181.917 68.4036C181.861 67.8965 181.677 67.3601 181.242 67.0992C180.896 66.938 180.511 66.8749 180.13 66.9174L178.29 66.938C179.511 65.2897 181.221 64.0677 183.176 63.4457C185.132 62.8237 187.234 62.8336 189.184 63.4738C191.134 64.114 192.832 65.3519 194.037 67.0115C195.242 68.6712 195.892 70.6683 195.896 72.7184L195.911 72.7096Z" fill="black"/>
<path d="M188.1 73.8877C188.419 73.6356 188.772 73.3014 189.168 73.3982C189.564 73.4949 189.734 73.9844 189.825 74.3889L190.142 75.834C190.236 76.1406 190.253 76.4657 190.192 76.7808C190.042 77.2967 189.502 77.6074 189.294 78.1028C189.039 78.7184 189.373 79.4219 189.796 79.9348C190.566 80.8626 191.632 81.4989 192.815 81.7375C193.124 81.8117 193.445 81.8187 193.757 81.7581C194.455 81.5968 194.93 80.9549 195.306 80.354C197.246 77.3348 198.915 74.0254 199.256 70.4552C199.349 69.7268 199.315 68.9881 199.156 68.2714C198.997 67.7142 198.772 67.1781 198.487 66.6739C197.987 65.6436 197.353 64.6845 196.6 63.8218C195.265 62.3855 193.422 61.5032 191.53 60.9814C189.401 60.3914 187.178 60.2172 184.983 60.4685C184.397 60.5359 183.833 60.6326 183.255 60.6707C182.53 60.7044 181.802 60.6927 181.078 60.6355L176.759 60.3776C176.512 60.8788 176.759 61.4739 177.052 61.9429C177.346 62.4119 177.71 62.8985 177.686 63.4554C177.663 64.0123 177.266 64.452 176.961 64.921C176.656 65.39 176.424 65.9968 176.729 66.4541C177.035 66.9113 177.657 66.9406 178.197 66.9348L180.374 66.9113C180.753 66.8723 181.136 66.9383 181.48 67.1019C181.914 67.3627 182.099 67.9021 182.155 68.4063C182.167 68.9134 182.224 69.4187 182.325 69.9158C182.475 70.4024 182.88 70.8626 183.387 70.8568C183.529 70.8283 183.677 70.8395 183.813 70.889C183.875 70.938 183.926 71.0004 183.961 71.0713C183.997 71.1423 184.016 71.22 184.018 71.2994C184.171 72.2169 183.889 73.9111 184.848 74.4212C185.808 74.9312 187.316 74.5062 188.1 73.8877Z" fill="#663D5C"/>
<path opacity="0.1" d="M200.502 93.1434C199.423 93.0291 198.337 93.2844 197.423 93.8674C196.508 94.4507 195.82 95.3271 195.47 96.3531C194.296 99.6918 192.339 105.715 192.829 108.096C193.518 111.47 194.331 117.095 194.331 117.095C194.331 117.095 197.896 119.146 196.092 121.216C194.287 123.285 193.776 126.217 193.776 126.217C193.776 126.217 191.461 127.216 190.963 129.341C190.464 131.466 187.083 134.401 187.083 134.401L182.019 139.463C182.019 139.463 190.399 147.964 192.089 148.397L197.28 142.336L203.41 134.213L208.726 128.644C208.726 128.644 209.976 125.712 209.351 120.143C208.726 114.574 206.285 109.271 206.285 109.271L206.473 107.395C206.473 107.395 207.048 93.9553 200.502 93.1434Z" fill="black"/>
<path d="M201.001 93.1433C199.923 93.0302 198.839 93.2864 197.925 93.8694C197.012 94.4527 196.324 95.3283 195.974 96.353C194.801 99.6917 192.844 105.715 193.334 108.096C194.02 111.469 194.833 117.095 194.833 117.095C194.833 117.095 198.398 119.146 196.594 121.216C194.789 123.285 194.281 126.217 194.281 126.217C194.281 126.217 191.966 127.216 191.465 129.341C190.963 131.466 187.588 134.401 187.588 134.401L182.521 139.463C182.521 139.463 190.901 147.963 192.591 148.397L197.782 142.335L203.897 134.213L209.214 128.644C209.214 128.644 210.467 125.712 209.839 120.143C209.211 114.574 206.775 109.271 206.775 109.271L206.963 107.395C206.963 107.395 207.547 93.9553 201.001 93.1433Z" fill="#585B8A"/>
<path opacity="0.1" d="M195.764 112.158C195.764 112.158 201.081 118.654 203.335 117.218C205.588 115.781 195.764 112.158 195.764 112.158Z" fill="black"/>
<path opacity="0.1" d="M197.764 107.157C198.327 107.345 202.958 113.782 205.334 113.02C207.711 112.258 197.764 107.157 197.764 107.157Z" fill="black"/>
<path opacity="0.1" d="M199.079 118.214C199.079 118.214 199.393 121.902 203.207 121.401C207.022 120.899 199.079 118.214 199.079 118.214Z" fill="black"/>
<path opacity="0.1" d="M182.221 88.4736L180.159 93.0669L182.735 90.4552L182.221 88.4736Z" fill="black"/>
<path d="M182.221 88.2246L180.159 92.8179L182.735 90.2061L182.221 88.2246Z" fill="#F0F3F7"/>
<path opacity="0.3" d="M173.916 143.218L172.378 142.893L169.555 137.596L169.84 135.702L173.916 143.218Z" fill="black"/>
<path opacity="0.3" d="M200.678 142.942L200.341 144.698V144.701L196.339 147.963L194.828 147.644L200.678 142.942Z" fill="black"/>
<path opacity="0.1" d="M137.619 122.444C136.844 122.573 136.093 122.69 135.406 122.778C131.592 123.279 122.519 118.78 122.519 118.78C122.519 118.78 111.448 109.532 108.259 100.785C105.069 92.038 112.073 90.7249 112.073 90.7249C114.714 89.2241 120.456 93.4099 121.269 94.0987C122.082 94.7875 122.771 96.5346 122.707 97.6602C122.642 98.7858 124.585 100.222 124.585 100.222C124.585 100.222 127.9 105.97 128.713 106.595C129.526 107.219 129.714 107.782 129.963 108.846C130.213 109.91 132.402 110.783 133.34 110.719C134.279 110.654 135.394 111.033 135.394 111.531C135.394 111.932 136.313 112.132 137.067 112.196C137.29 115.4 137.51 119.598 137.619 122.444Z" fill="black"/>
<path opacity="0.1" d="M137.584 121.529C136.997 121.623 136.434 121.708 135.905 121.778C132.091 122.28 123.021 117.78 123.021 117.78C123.021 117.78 111.95 108.532 108.761 99.7854C105.571 91.0385 112.575 89.7253 112.575 89.7253C115.216 88.2245 120.955 92.4103 121.768 93.0992C122.581 93.788 123.271 95.5351 123.209 96.6607C123.147 97.7863 125.084 99.2226 125.084 99.2226C125.084 99.2226 128.4 104.971 129.212 105.595C130.025 106.219 130.213 106.782 130.465 107.846C130.718 108.91 132.904 109.781 133.843 109.719C134.782 109.658 135.897 110.033 135.897 110.531C135.897 110.824 136.419 111.021 137 111.118C137.023 111.458 137.044 111.818 137.07 112.193C137.264 115.075 137.463 118.75 137.584 121.529Z" fill="black"/>
<path opacity="0.1" d="M152.093 115.236L151.855 120.852H151.6L151.072 120.559L151.136 115.719C151.445 115.538 151.764 115.377 152.093 115.236Z" fill="black"/>
<path d="M112.073 90.2239C112.073 90.2239 105.069 91.5371 108.259 100.284C111.448 109.031 122.519 118.282 122.519 118.282C122.519 118.282 131.589 122.778 135.406 122.28C139.224 121.782 145.036 120.468 145.788 120.656C146.539 120.844 151.606 120.844 151.606 120.844L151.856 114.981L145.987 114.668L142.985 114.043C142.985 114.043 141.92 113.164 141.295 113.293C140.67 113.422 139.359 112.542 139.359 112.542C139.359 112.542 138.355 111.73 137.598 111.73C136.841 111.73 135.409 111.543 135.409 111.045C135.409 110.546 134.282 110.165 133.355 110.233C132.428 110.3 130.213 109.421 129.954 108.345C129.696 107.269 129.517 106.721 128.704 106.097C127.892 105.472 124.576 99.7211 124.576 99.7211C124.576 99.7211 122.636 98.2848 122.698 97.1622C122.76 96.0395 122.073 94.2866 121.26 93.5978C120.447 92.9089 114.696 88.726 112.073 90.2239Z" fill="#DCE6F2"/>
<path opacity="0.1" d="M130.089 110.344C130.089 110.344 127.398 113.032 128.085 113.53L130.089 110.344Z" fill="black"/>
<path opacity="0.1" d="M132.964 112.469C132.964 112.469 129.461 115.157 130.4 115.344C131.339 115.532 132.964 112.469 132.964 112.469Z" fill="black"/>
<path opacity="0.1" d="M127.021 116.455C127.522 116.707 134.964 121.145 137.78 121.081L127.021 116.455Z" fill="black"/>
<path opacity="0.1" d="M127.525 86.7882C127.525 86.7882 126.211 91.1001 125.709 91.1001C125.316 91.1001 118.714 85.7594 115.958 83.514L116.079 83.4144C116.079 83.4144 116.328 81.4768 117.329 80.4831C118.329 79.4894 127.525 86.7882 127.525 86.7882Z" fill="black"/>
<path d="M127.272 86.2872C127.272 86.2872 125.96 90.5991 125.459 90.5991C125.063 90.5991 118.461 85.2584 115.705 83.0131L115.826 82.9134C115.826 82.9134 116.078 80.9758 117.078 79.9821C118.079 78.9884 127.272 86.2872 127.272 86.2872Z" fill="#DCE6F2"/>
<g opacity="0.15">
<path opacity="0.15" d="M109.558 72.3521C110.439 74.36 112.862 75.3331 114.268 76.9336C113.431 74.9667 110.987 74.0023 109.558 72.3521Z" fill="black"/>
<path opacity="0.15" d="M118.528 76.9775C118.179 77.6487 117.354 77.9741 116.603 77.9594C115.935 77.9117 115.281 77.7449 114.673 77.467C114.893 77.7924 115.062 78.1506 115.171 78.5281C115.856 78.857 116.597 79.0557 117.354 79.1144C118.114 79.132 118.93 78.8066 119.279 78.1324C119.84 77.0625 119.256 76.1479 118.572 75.2832C118.699 75.5491 118.762 75.841 118.754 76.1356C118.747 76.4302 118.669 76.7186 118.528 76.9775Z" fill="black"/>
<path opacity="0.15" d="M129.417 62.286C129.291 61.7232 128.862 61.2806 128.642 60.7501C128.508 60.3394 128.401 59.9205 128.322 59.4955C128.156 58.8946 127.847 58.3426 127.422 57.8862C127.481 58.0304 127.531 58.1785 127.571 58.3289C127.653 58.7556 127.763 59.1766 127.9 59.5893C128.12 60.1198 128.548 60.5625 128.675 61.1253C128.749 61.5227 128.669 61.9337 128.451 62.2746C128.233 62.6155 127.893 62.8606 127.501 62.9602C126.415 63.1976 125.177 62.2597 124.244 62.8635C123.672 63.2299 123.54 63.9949 123.463 64.6691C123.332 65.8416 123.199 67.0074 123.064 68.1661C123.038 68.5771 122.951 68.9822 122.806 69.3679C122.345 70.4232 121.081 70.9186 119.928 70.901C119.477 70.9312 119.033 70.7837 118.689 70.4906C118.522 70.2546 118.343 70.0275 118.152 69.8105C116.685 68.5794 116.239 71.5898 116.627 72.4487C116.821 72.835 117.061 73.1961 117.343 73.5244C117.02 72.5571 117.472 69.7724 118.904 70.9655C119.094 71.1818 119.273 71.409 119.438 71.6455C119.782 71.9383 120.227 72.0855 120.679 72.0559C121.832 72.0735 123.097 71.5781 123.557 70.5228C123.702 70.1362 123.789 69.7302 123.815 69.3181C123.948 68.1456 124.082 66.981 124.214 65.824C124.291 65.1499 124.423 64.3848 124.992 64.0184C125.928 63.4146 127.166 64.3526 128.252 64.1122C128.641 64.0114 128.978 63.7669 129.194 63.428C129.41 63.0892 129.49 62.6812 129.417 62.286Z" fill="black"/>
</g>
<path opacity="0.1" d="M194.382 81.011C194.07 81.069 193.749 81.0611 193.44 80.9875C192.258 80.7489 191.194 80.114 190.424 79.1878C189.998 78.6719 189.664 77.9684 189.922 77.3528C190.127 76.8574 190.667 76.5467 190.802 76.0308C190.863 75.7157 190.846 75.3906 190.752 75.084L190.435 73.6389C190.344 73.2285 190.186 72.7449 189.778 72.6482C189.37 72.5514 189.03 72.8856 188.71 73.1377C187.927 73.7562 186.421 74.1783 185.482 73.6682C184.543 73.1582 184.805 71.4639 184.652 70.5465C184.65 70.4673 184.63 70.3896 184.594 70.3187C184.559 70.2478 184.508 70.1856 184.447 70.1361C184.309 70.0883 184.161 70.0772 184.018 70.1038C183.511 70.1038 183.106 69.6495 182.956 69.1629C182.854 68.6658 182.798 68.1604 182.789 67.6533C182.73 67.1491 182.548 66.6098 182.111 66.3489C181.766 66.1868 181.384 66.1209 181.005 66.1584L178.827 66.1818C178.291 66.1818 177.654 66.1467 177.36 65.7011C177.067 65.2556 177.284 64.6224 177.592 64.1681C177.9 63.7137 178.291 63.2623 178.317 62.7024C178.343 62.1426 177.979 61.6589 177.683 61.1899C177.513 60.9334 177.388 60.65 177.313 60.3516L176.688 60.3135C176.445 60.8118 176.688 61.4068 176.982 61.8788C177.275 62.3507 177.642 62.8343 177.616 63.3884C177.589 63.9424 177.199 64.3879 176.891 64.854C176.583 65.32 176.357 65.9297 176.662 66.387C176.967 66.8443 177.586 66.8765 178.129 66.8707L180.306 66.8443C180.686 66.8076 181.068 66.8745 181.413 67.0378C181.85 67.2986 182.035 67.838 182.09 68.3422C182.1 68.8496 182.157 69.3549 182.261 69.8517C182.407 70.3354 182.815 70.7985 183.323 70.7897C183.465 70.7645 183.611 70.7757 183.748 70.822C183.81 70.8718 183.861 70.9348 183.896 71.0061C183.932 71.0773 183.952 71.1556 183.954 71.2353C184.106 72.1498 183.824 73.847 184.784 74.3571C185.743 74.8671 187.24 74.445 188.012 73.8265C188.331 73.5744 188.687 73.2403 189.083 73.3341C189.479 73.4279 189.649 73.9203 189.737 74.3248L190.057 75.7729C190.15 76.0798 190.166 76.4048 190.104 76.7197C189.957 77.2326 189.414 77.5463 189.209 78.0387C188.954 78.6543 189.285 79.3607 189.711 79.8737C190.486 80.8038 191.559 81.4393 192.747 81.6735C193.056 81.747 193.377 81.7549 193.689 81.6969C194.194 81.5433 194.627 81.2147 194.91 80.7706C194.75 80.8814 194.571 80.9629 194.382 81.011Z" fill="black"/>
<path opacity="0.3" d="M59.7675 210.466C63.6841 210.466 66.8595 209.979 66.8595 209.378C66.8595 208.778 63.6841 208.291 59.7675 208.291C55.8506 208.291 52.6754 208.778 52.6754 209.378C52.6754 209.979 55.8506 210.466 59.7675 210.466Z" fill="#032B4D"/>
<path opacity="0.1" d="M307.394 182.192C311.311 182.192 314.486 181.705 314.486 181.104C314.486 180.503 311.311 180.017 307.394 180.017C303.477 180.017 300.302 180.503 300.302 181.104C300.302 181.705 303.477 182.192 307.394 182.192Z" fill="#6C63FF"/>
<path opacity="0.3" d="M235.091 228.074C246.435 228.074 255.631 226.665 255.631 224.926C255.631 223.187 246.435 221.778 235.091 221.778C223.747 221.778 214.551 223.187 214.551 224.926C214.551 226.665 223.747 228.074 235.091 228.074Z" fill="#032B4D"/>
<path opacity="0.3" d="M293.48 214.045C302.326 214.045 309.501 212.945 309.501 211.589C309.501 210.232 302.326 209.132 293.48 209.132C284.631 209.132 277.459 210.232 277.459 211.589C277.459 212.945 284.631 214.045 293.48 214.045Z" fill="#032B4D"/>
<path opacity="0.3" d="M290.842 240.23C305.848 240.23 318.01 238.365 318.01 236.065C318.01 233.764 305.848 231.899 290.842 231.899C275.837 231.899 263.673 233.764 263.673 236.065C263.673 238.365 275.837 240.23 290.842 240.23Z" fill="#032B4D"/>
<path opacity="0.3" d="M29.4122 242.877C40.756 242.877 49.9519 241.468 49.9519 239.729C49.9519 237.99 40.756 236.581 29.4122 236.581C18.0686 236.581 8.87265 237.99 8.87265 239.729C8.87265 241.468 18.0686 242.877 29.4122 242.877Z" fill="#032B4D"/>
<path d="M60.0903 174.743C60.0903 174.743 60.8943 175.793 59.7206 177.381C58.5469 178.97 57.5786 180.313 57.9601 181.292C57.9601 181.292 59.7206 178.36 61.1877 178.308C62.6548 178.255 61.6777 176.514 60.0903 174.743Z" fill="#6C63FF"/>
<path opacity="0.1" d="M60.0909 174.743C60.1625 174.843 60.2179 174.954 60.2552 175.071C61.6636 176.725 62.4119 178.264 61.0592 178.296C59.8004 178.331 58.2893 180.582 57.9283 181.151C57.9392 181.195 57.953 181.238 57.9694 181.28C57.9694 181.28 59.73 178.349 61.1971 178.296C62.6642 178.243 61.6783 176.514 60.0909 174.743Z" fill="black"/>
<path d="M61.5865 176.08C61.5865 176.449 61.5425 176.748 61.4927 176.748C61.4429 176.748 61.3989 176.455 61.3989 176.08C61.3989 175.705 61.4517 175.886 61.5015 175.886C61.5513 175.886 61.5865 175.71 61.5865 176.08Z" fill="#FFD037"/>
<path d="M62.0966 176.522C61.7739 176.698 61.4893 176.815 61.4658 176.76C61.4423 176.704 61.6829 176.537 62.0086 176.358C62.3343 176.179 62.2052 176.311 62.2287 176.358C62.2521 176.405 62.4223 176.343 62.0966 176.522Z" fill="#FFD037"/>
<path d="M55.8471 174.743C55.8471 174.743 55.0431 175.793 56.2168 177.381C57.3905 178.97 58.3617 180.313 57.9773 181.292C57.9773 181.292 56.2168 178.36 54.7643 178.308C53.3119 178.255 54.2509 176.514 55.8471 174.743Z" fill="#6C63FF"/>
<path opacity="0.1" d="M55.8479 174.743C55.7778 174.844 55.7224 174.955 55.6836 175.071C54.2752 176.725 53.527 178.264 54.8796 178.296C56.1384 178.331 57.6496 180.582 58.0134 181.151C58.0014 181.195 57.9867 181.238 57.9694 181.28C57.9694 181.28 56.2089 178.349 54.7564 178.296C53.304 178.243 54.2517 176.514 55.8479 174.743Z" fill="black"/>
<path d="M54.3532 176.08C54.3532 176.449 54.3942 176.748 54.4441 176.748C54.4939 176.748 54.5378 176.455 54.5378 176.08C54.5378 175.705 54.4851 175.886 54.4353 175.886C54.3854 175.886 54.3532 175.71 54.3532 176.08Z" fill="#FFD037"/>
<path d="M53.8401 176.522C54.1658 176.698 54.4475 176.815 54.4739 176.76C54.5003 176.704 54.2538 176.537 53.9282 176.358C53.6025 176.179 53.7316 176.311 53.7081 176.358C53.6846 176.405 53.5144 176.343 53.8401 176.522Z" fill="#FFD037"/>
<path opacity="0.1" d="M57.9689 189.317C62.6085 189.317 66.3696 188.741 66.3696 188.03C66.3696 187.32 62.6085 186.744 57.9689 186.744C53.3293 186.744 49.5682 187.32 49.5682 188.03C49.5682 188.741 53.3293 189.317 57.9689 189.317Z" fill="#6C63FF"/>
<path d="M62.2933 179.873L62.2522 180.201L62.1965 180.664L62.173 180.858L62.1173 181.321L62.0908 181.514L62.0351 181.977L61.3925 187.254C61.3367 187.723 60.568 188.089 59.632 188.089H56.3045C55.3773 188.089 54.6085 187.723 54.544 187.254L53.9014 181.977L53.8456 181.514L53.8222 181.321L53.7635 180.858L53.74 180.664L53.6845 180.201L53.6432 179.873C53.6109 179.606 54.0276 179.383 54.5528 179.383H61.3869C61.9092 179.383 62.3256 179.606 62.2933 179.873Z" fill="#65617D"/>
<path d="M62.2532 180.201L62.1974 180.664H53.741L53.6852 180.201H62.2532Z" fill="#9D9CB5"/>
<path d="M62.1736 180.858L62.1178 181.321H53.8228L53.7641 180.858H62.1736Z" fill="#9D9CB5"/>
<path d="M62.095 181.515L62.0363 181.978H53.9026L53.8468 181.515H62.095Z" fill="#9D9CB5"/>
<path d="M301.804 170.683C301.804 170.683 300.8 175.35 305.264 175.901L305.539 175.382C305.539 175.382 302.08 172.131 301.804 170.683Z" fill="#009688"/>
<path d="M306.96 175.344L305.921 175.564L305.818 175.587C305.818 175.587 303.048 173.342 303.083 168.33C303.453 169.069 303.896 169.769 304.407 170.42C305.504 171.871 306.751 173.805 306.96 175.344Z" fill="#009688"/>
<path d="M307.309 175.825C307.226 175.878 307.135 175.912 307.039 175.925C306.942 175.937 306.845 175.928 306.751 175.898C304.087 175.277 304.99 166.603 304.99 166.603C305.137 166.67 305.284 167.776 305.912 169.2C306.983 171.7 308.165 175.197 307.309 175.825Z" fill="#009688"/>
<path d="M313.218 170.683C313.218 170.683 313.391 175.35 308.928 175.901L308.649 175.373C308.649 175.373 312.942 172.131 313.218 170.683Z" fill="#009688"/>
<path d="M311.939 168.338C311.974 173.351 308.377 175.596 308.377 175.596L308.271 175.573L307.235 175.353C307.441 173.814 308.703 171.879 309.785 170.428C310.407 169.639 311.132 168.936 311.939 168.338Z" fill="#009688"/>
<path d="M308.256 175.373C308.098 175.568 307.898 175.724 307.669 175.828C307.599 175.859 307.526 175.884 307.449 175.901C306.795 176.053 306.569 175.581 306.604 174.778C306.666 173.351 307.564 170.874 308.365 169.018C308.749 168.108 309.318 167.287 310.037 166.606C310.037 166.606 309.996 173.357 308.256 175.373Z" fill="#009688"/>
<path d="M307.511 163.561C307.511 163.561 304.536 174.113 307.097 175.69C309.659 177.267 308.168 164.493 307.511 163.561Z" fill="#009688"/>
<path opacity="0.1" d="M301.804 170.683C301.804 170.683 300.8 175.35 305.264 175.901L305.539 175.382C305.539 175.382 302.08 172.131 301.804 170.683Z" fill="#009688"/>
<path opacity="0.1" d="M306.96 175.344L305.921 175.564L305.818 175.587C305.818 175.587 303.048 173.342 303.083 168.33C303.453 169.069 303.896 169.769 304.407 170.42C305.504 171.871 306.751 173.805 306.96 175.344Z" fill="#009688"/>
<path opacity="0.1" d="M307.309 175.825C307.226 175.878 307.135 175.912 307.039 175.925C306.942 175.937 306.845 175.928 306.751 175.898C304.087 175.277 304.99 166.603 304.99 166.603C305.137 166.67 305.284 167.776 305.912 169.2C306.983 171.7 308.165 175.197 307.309 175.825Z" fill="#009688"/>
<path opacity="0.1" d="M313.218 170.683C313.218 170.683 313.391 175.35 308.928 175.901L308.649 175.373C308.649 175.373 312.942 172.131 313.218 170.683Z" fill="#009688"/>
<path opacity="0.1" d="M311.939 168.338C311.974 173.351 308.377 175.596 308.377 175.596L308.271 175.573L307.235 175.353C307.441 173.814 308.703 171.879 309.785 170.428C310.407 169.639 311.132 168.936 311.939 168.338Z" fill="#009688"/>
<path opacity="0.1" d="M308.256 175.373C308.098 175.568 307.898 175.724 307.669 175.828C307.599 175.859 307.526 175.884 307.449 175.901C306.795 176.053 306.569 175.581 306.604 174.778C306.666 173.351 307.564 170.874 308.365 169.018C308.749 168.108 309.318 167.287 310.037 166.606C310.037 166.606 309.996 173.357 308.256 175.373Z" fill="#009688"/>
<path opacity="0.1" d="M307.511 163.561C307.511 163.561 304.536 174.113 307.097 175.69C309.659 177.267 308.168 164.493 307.511 163.561Z" fill="#009688"/>
<path d="M301.804 170.683C301.804 170.683 301.217 175.35 305.677 175.901L305.953 175.382C305.953 175.382 302.08 172.131 301.804 170.683Z" fill="#009688"/>
<path d="M307.373 175.344L306.335 175.564L306.232 175.587C306.232 175.587 303.048 173.342 303.075 168.338C303.075 168.338 303.89 169.218 304.812 170.428C305.918 171.871 307.165 173.805 307.373 175.344Z" fill="#009688"/>
<path opacity="0.1" d="M307.373 175.344L306.335 175.564C305.352 174.702 304.961 172.451 304.821 170.419C305.918 171.87 307.165 173.805 307.373 175.344Z" fill="#009688"/>
<path d="M307.725 175.825C307.643 175.878 307.549 175.912 307.452 175.925C307.356 175.937 307.256 175.928 307.165 175.898C304.501 175.277 304.988 166.603 304.988 166.603C305.134 166.67 305.709 167.776 306.323 169.2C307.4 171.7 308.579 175.197 307.725 175.825Z" fill="#009688"/>
<path d="M313.218 170.683C313.218 170.683 313.805 175.35 309.345 175.901L309.069 175.382C309.069 175.382 312.943 172.131 313.218 170.683Z" fill="#009688"/>
<path d="M311.939 168.338C311.974 173.351 308.79 175.596 308.79 175.596L308.688 175.573L307.649 175.353C307.854 173.814 309.116 171.879 310.202 170.428C311.123 169.218 311.939 168.338 311.939 168.338Z" fill="#009688"/>
<path opacity="0.1" d="M310.202 170.419C310.067 172.313 309.721 174.397 308.879 175.37C308.82 175.44 308.758 175.505 308.688 175.564L307.649 175.344C307.854 173.805 309.104 171.87 310.202 170.419Z" fill="#009688"/>
<path d="M308.67 175.373C308.514 175.569 308.312 175.725 308.083 175.828C308.013 175.859 307.939 175.884 307.866 175.901C307.209 176.053 306.986 175.581 307.018 174.778C307.083 173.351 307.98 170.874 308.779 169.018C309.365 167.685 309.897 166.673 310.037 166.606C310.037 166.603 310.41 173.357 308.67 175.373Z" fill="#009688"/>
<path opacity="0.1" d="M307.725 175.825C307.573 175.827 307.426 175.779 307.303 175.69C306.05 174.91 306.023 171.985 306.323 169.2C307.4 171.701 308.579 175.198 307.725 175.825Z" fill="#009688"/>
<path opacity="0.1" d="M308.67 175.373C308.526 175.687 308.333 175.851 308.083 175.828C307.954 175.812 307.834 175.766 307.728 175.693C307.402 175.47 307.153 175.15 307.018 174.778C307.083 173.351 307.981 170.874 308.779 169.019C309.066 171.589 309.163 174.315 308.67 175.373Z" fill="#009688"/>
<path d="M307.511 163.561C307.511 163.561 304.953 174.113 307.511 175.69C310.07 177.267 308.169 164.493 307.511 163.561Z" fill="#009688"/>
<path d="M312.423 175.174H301.769V176.936H303.394L303.435 177.144L304.087 180.564H310.281L310.932 177.144L310.971 176.936H312.423V175.174Z" fill="#4B4770"/>
<path opacity="0.1" d="M312.423 175.174H301.769V176.936H303.394L303.435 177.144L304.087 180.564H310.281L310.932 177.144L310.971 176.936H312.423V175.174Z" fill="black"/>
<path d="M311.525 176.209L311.346 177.144L310.695 180.565H304.501L303.849 177.144L303.67 176.209H311.525Z" fill="#4B4770"/>
<path opacity="0.1" d="M311.525 176.209L311.346 177.144H303.849L303.67 176.209H311.525Z" fill="black"/>
<path d="M312.837 175.174H302.182V176.936H312.837V175.174Z" fill="#4B4770"/>
<path d="M40.9006 205.319C40.6195 205.705 40.3945 206.13 40.2316 206.579C40.1905 206.688 40.1495 206.814 40.1084 206.934C40.0339 206.899 39.9561 206.871 39.8766 206.852C39.5345 206.765 39.1806 206.736 38.8291 206.764C38.8291 206.626 38.8467 206.471 38.8496 206.333C38.8936 204.788 38.7117 202.637 37.2358 203.548C35.8215 204.428 36.8308 205.893 37.7434 206.831C37.8226 206.913 37.9018 206.99 37.9781 207.063C37.1448 207.649 36.9864 209.036 36.8485 210.475C36.7105 211.914 35.487 213.488 34.6742 214.382C34.592 214.473 34.5187 214.555 34.4453 214.631C34.1167 214.369 33.7364 214.18 33.3291 214.075C32.9221 213.971 32.4973 213.953 32.0833 214.025C32.051 213.899 32.0128 213.767 31.9747 213.629C31.3174 211.258 29.953 207.151 28.2129 206.251L28.4417 205.958C29.1812 204.993 30.0146 203.557 28.785 203.191C27.5556 202.824 27.4441 204.434 27.5116 205.641C27.5233 205.794 27.5351 205.937 27.5468 206.072C27.301 206.083 27.0602 206.145 26.8391 206.253C26.618 206.361 26.4215 206.512 26.2616 206.699L26.0709 206.474C25.0732 205.301 23.2452 203.434 22.6906 204.844C22.1742 206.157 23.7851 207.863 24.9177 208.851L24.9881 208.913C24.2282 211.993 27.5468 214.505 29.3337 215.605L29.5657 215.745C27.1008 218.647 25.5779 224.088 25.5779 224.088L32.4794 225.319C32.4794 225.319 37.0568 221.373 36.4699 217.668H36.5169C41.0914 216.754 42.1301 211.882 41.4171 208.989L41.4992 208.956C42.3325 208.616 43.0626 208.064 43.6177 207.356C44.8971 205.583 42.221 203.578 40.9006 205.319Z" fill="#6C63FF"/>
<path opacity="0.1" d="M40.9006 205.319C40.6195 205.705 40.3945 206.13 40.2316 206.579C40.1905 206.688 40.1495 206.814 40.1084 206.934C40.0339 206.899 39.9561 206.871 39.8766 206.852C39.5345 206.765 39.1806 206.736 38.8291 206.764C38.8291 206.626 38.8467 206.471 38.8496 206.333C38.8936 204.788 38.7117 202.637 37.2358 203.548C35.8215 204.428 36.8308 205.893 37.7434 206.831C37.8226 206.913 37.9018 206.99 37.9781 207.063C37.1448 207.649 36.9864 209.036 36.8485 210.475C36.7105 211.914 35.487 213.488 34.6742 214.382C34.592 214.473 34.5187 214.555 34.4453 214.631C34.1167 214.369 33.7364 214.18 33.3291 214.075C32.9221 213.971 32.4973 213.953 32.0833 214.025C32.051 213.899 32.0128 213.767 31.9747 213.629C31.3174 211.258 29.953 207.151 28.2129 206.251L28.4417 205.958C29.1812 204.993 30.0146 203.557 28.785 203.191C27.5556 202.824 27.4441 204.434 27.5116 205.641C27.5233 205.794 27.5351 205.937 27.5468 206.072C27.301 206.083 27.0602 206.145 26.8391 206.253C26.618 206.361 26.4215 206.512 26.2616 206.699L26.0709 206.474C25.0732 205.301 23.2452 203.434 22.6906 204.844C22.1742 206.157 23.7851 207.863 24.9177 208.851L24.9881 208.913C24.2282 211.993 27.5468 214.505 29.3337 215.605L29.5657 215.745C27.1008 218.647 25.5779 224.088 25.5779 224.088L32.4794 225.319C32.4794 225.319 37.0568 221.373 36.4699 217.668H36.5169C41.0914 216.754 42.1301 211.882 41.4171 208.989L41.4992 208.956C42.3325 208.616 43.0626 208.064 43.6177 207.356C44.8971 205.583 42.221 203.578 40.9006 205.319Z" fill="black"/>
<path d="M27.1617 207.324L26.3548 209.669C26.3548 209.669 25.9059 209.352 25.3395 208.854C24.2069 207.866 22.596 206.16 23.1125 204.847C23.667 203.437 25.4951 205.298 26.4927 206.477C26.8947 206.946 27.1617 207.324 27.1617 207.324Z" fill="#6C63FF"/>
<path d="M28.8646 205.961C28.6194 206.284 28.357 206.593 28.0782 206.887C28.0093 206.476 27.9613 206.061 27.9344 205.644C27.8669 204.437 27.996 202.833 29.2079 203.194C30.4196 203.554 29.6039 204.996 28.8646 205.961Z" fill="#6C63FF"/>
<path d="M39.2868 206.333C39.2633 207.11 39.1871 207.731 39.1871 207.731C38.832 207.454 38.496 207.153 38.1806 206.832C37.2681 205.885 36.2587 204.425 37.673 203.549C39.1342 202.634 39.3162 204.789 39.2868 206.333Z" fill="#6C63FF"/>
<path d="M44.0403 207.35C43.4855 208.059 42.7551 208.61 41.9218 208.951C41.6903 209.051 41.4532 209.137 41.2117 209.209L40.261 207.875C40.3608 207.434 40.4923 207.001 40.6542 206.579C40.8171 206.13 41.0424 205.706 41.3232 205.319C42.6378 203.578 45.3197 205.583 44.0403 207.35Z" fill="#6C63FF"/>
<path opacity="0.1" d="M26.4931 206.477C26.8951 206.946 27.1621 207.31 27.1621 207.31L26.3552 209.655C26.3552 209.655 25.9063 209.338 25.34 208.84C25.4658 208.084 25.7784 207.372 26.2496 206.767C26.3288 206.671 26.4139 206.571 26.4931 206.477Z" fill="black"/>
<path opacity="0.1" d="M28.8638 205.961C28.6187 206.283 28.3562 206.593 28.0775 206.887C28.0086 206.475 27.9606 206.061 27.9337 205.644C28.269 205.651 28.594 205.762 28.8638 205.961Z" fill="black"/>
<path d="M32.8315 215.329L30.8245 216.208C30.8245 216.208 30.3873 215.997 29.7564 215.605C27.6468 214.309 23.4068 211.046 26.2354 207.201C29.064 203.355 31.4495 210.252 32.3973 213.626C32.6819 214.652 32.8315 215.329 32.8315 215.329Z" fill="#009688"/>
<path opacity="0.1" d="M38.1655 206.832C38.4575 206.531 38.853 206.353 39.2717 206.333C39.2483 207.11 39.172 207.732 39.172 207.732C38.8172 207.454 38.481 207.154 38.1655 206.832Z" fill="black"/>
<path opacity="0.1" d="M41.9274 208.951C41.6962 209.05 41.4591 209.137 41.2173 209.208L40.2666 207.875C40.3666 207.434 40.4978 207.001 40.6598 206.579C41.2672 206.937 41.719 207.828 41.9274 208.951Z" fill="black"/>
<path d="M36.9388 217.663C36.8302 217.686 36.7158 217.707 36.6013 217.724C29.8731 218.744 34.3831 215.118 34.3831 215.118C34.3831 215.118 34.6765 214.825 35.0961 214.383C35.9089 213.488 37.1295 211.923 37.2704 210.475C37.4816 208.297 37.7252 206.254 40.2985 206.852C42.8249 207.444 43.309 216.387 36.9388 217.663Z" fill="#009688"/>
<path d="M36.8123 234.397H23.9575V237.774H36.8123V234.397Z" fill="#D4DFEC"/>
<path d="M38.7117 223.422H21.9162V235.206H38.7117V223.422Z" fill="#D4DFEC"/>
<path opacity="0.1" d="M36.8123 234.397H23.9575V237.774H36.8123V234.397Z" fill="black"/>
<path opacity="0.1" d="M38.7117 223.422H21.9162V235.206H38.7117V223.422Z" fill="black"/>
<path d="M37.6583 234.397H24.8034V237.774H37.6583V234.397Z" fill="#D4DFEC"/>
<path opacity="0.1" d="M32.3969 213.629C32.6903 214.637 32.8312 215.329 32.8312 215.329L30.8241 216.208C30.8241 216.208 30.3869 215.997 29.7561 215.605C30.5424 214.611 31.4286 213.86 32.3969 213.629Z" fill="black"/>
<path opacity="0.1" d="M36.9388 217.662C36.8302 217.686 36.7158 217.706 36.6013 217.724C29.8731 218.744 34.3831 215.118 34.3831 215.118C34.3831 215.118 34.6765 214.825 35.0961 214.382C36.3519 215.388 36.8713 216.519 36.9388 217.662Z" fill="black"/>
<path d="M26.0001 224.091C26.0001 224.091 29.7676 210.607 35.0521 214.766C40.3367 218.926 32.9013 225.319 32.9013 225.319L26.0001 224.091Z" fill="#009688"/>
<path opacity="0.1" d="M27.9011 209.736C28.1345 209.736 28.3237 209.547 28.3237 209.314C28.3237 209.081 28.1345 208.892 27.9011 208.892C27.6678 208.892 27.4786 209.081 27.4786 209.314C27.4786 209.547 27.6678 209.736 27.9011 209.736Z" fill="black"/>
<path opacity="0.1" d="M27.8668 211.706C28.1001 211.706 28.2893 211.517 28.2893 211.284C28.2893 211.051 28.1001 210.862 27.8668 210.862C27.6334 210.862 27.4442 211.051 27.4442 211.284C27.4442 211.517 27.6334 211.706 27.8668 211.706Z" fill="black"/>
<path opacity="0.1" d="M40.1231 210.123C40.3563 210.123 40.5456 209.934 40.5456 209.701C40.5456 209.468 40.3563 209.279 40.1231 209.279C39.8895 209.279 39.7005 209.468 39.7005 209.701C39.7005 209.934 39.8895 210.123 40.1231 210.123Z" fill="black"/>
<path opacity="0.1" d="M30.2635 220.221C30.497 220.221 30.686 220.032 30.686 219.799C30.686 219.566 30.497 219.377 30.2635 219.377C30.0302 219.377 29.8409 219.566 29.8409 219.799C29.8409 220.032 30.0302 220.221 30.2635 220.221Z" fill="black"/>
<path opacity="0.1" d="M39.2428 213.394C39.4761 213.394 39.6653 213.205 39.6653 212.972C39.6653 212.739 39.4761 212.55 39.2428 212.55C39.0092 212.55 38.8203 212.739 38.8203 212.972C38.8203 213.205 39.0092 213.394 39.2428 213.394Z" fill="black"/>
<path opacity="0.1" d="M34.8769 217.759C35.1102 217.759 35.2995 217.57 35.2995 217.337C35.2995 217.104 35.1102 216.915 34.8769 216.915C34.6437 216.915 34.4544 217.104 34.4544 217.337C34.4544 217.57 34.6437 217.759 34.8769 217.759Z" fill="black"/>
<path opacity="0.1" d="M29.3453 210.581C29.5789 210.581 29.7678 210.391 29.7678 210.158C29.7678 209.925 29.5789 209.736 29.3453 209.736C29.112 209.736 28.9229 209.925 28.9229 210.158C28.9229 210.391 29.112 210.581 29.3453 210.581Z" fill="black"/>
<path opacity="0.1" d="M38.9609 211.39C39.1942 211.39 39.3834 211.201 39.3834 210.967C39.3834 210.734 39.1942 210.545 38.9609 210.545C38.7276 210.545 38.5384 210.734 38.5384 210.967C38.5384 211.201 38.7276 211.39 38.9609 211.39Z" fill="black"/>
<path opacity="0.1" d="M37.5178 214.661C37.751 214.661 37.9403 214.472 37.9403 214.239C37.9403 214.006 37.751 213.817 37.5178 213.817C37.2845 213.817 37.0952 214.006 37.0952 214.239C37.0952 214.472 37.2845 214.661 37.5178 214.661Z" fill="black"/>
<path opacity="0.1" d="M33.0809 219.905C33.3141 219.905 33.5034 219.716 33.5034 219.483C33.5034 219.25 33.3141 219.061 33.0809 219.061C32.8473 219.061 32.6583 219.25 32.6583 219.483C32.6583 219.716 32.8473 219.905 33.0809 219.905Z" fill="black"/>
<path opacity="0.1" d="M32.1651 217.83C32.3984 217.83 32.5876 217.64 32.5876 217.407C32.5876 217.174 32.3984 216.985 32.1651 216.985C31.9315 216.985 31.7426 217.174 31.7426 217.407C31.7426 217.64 31.9315 217.83 32.1651 217.83Z" fill="black"/>
<path opacity="0.1" d="M29.9791 213.148C30.2127 213.148 30.4017 212.959 30.4017 212.726C30.4017 212.493 30.2127 212.304 29.9791 212.304C29.7459 212.304 29.5566 212.493 29.5566 212.726C29.5566 212.959 29.7459 213.148 29.9791 213.148Z" fill="black"/>
<path opacity="0.1" d="M37.6583 234.397H24.8034V235.631H37.6583V234.397Z" fill="#FF4568"/>
<path d="M39.5565 223.422H22.761V235.206H39.5565V223.422Z" fill="#FF4568"/>
<path opacity="0.1" d="M33.6437 221.804C33.877 221.804 34.0662 221.615 34.0662 221.382C34.0662 221.149 33.877 220.96 33.6437 220.96C33.4101 220.96 33.2212 221.149 33.2212 221.382C33.2212 221.615 33.4101 221.804 33.6437 221.804Z" fill="black"/>
<path opacity="0.1" d="M31.1082 222.332C31.3415 222.332 31.5308 222.143 31.5308 221.91C31.5308 221.677 31.3415 221.488 31.1082 221.488C30.875 221.488 30.6857 221.677 30.6857 221.91C30.6857 222.143 30.875 222.332 31.1082 222.332Z" fill="black"/>
<path opacity="0.1" d="M14.671 18.3084C16.3661 18.3084 17.7402 16.9357 17.7402 15.2423C17.7402 13.549 16.3661 12.1763 14.671 12.1763C12.9759 12.1763 11.6018 13.549 11.6018 15.2423C11.6018 16.9357 12.9759 18.3084 14.671 18.3084Z" fill="#6C63FF"/>
<path opacity="0.1" d="M309.436 115.81C311.704 115.81 313.544 113.973 313.544 111.707C313.544 109.44 311.704 107.603 309.436 107.603C307.168 107.603 305.328 109.44 305.328 111.707C305.328 113.973 307.168 115.81 309.436 115.81Z" fill="#6C63FF"/>
<path opacity="0.1" d="M317.356 105.908C319.011 105.908 320.354 104.567 320.354 102.913C320.354 101.258 319.011 99.917 317.356 99.917C315.701 99.917 314.357 101.258 314.357 102.913C314.357 104.567 315.701 105.908 317.356 105.908Z" fill="#6C63FF"/>
<path opacity="0.1" d="M19.9528 8.20748C22.2216 8.20748 24.0608 6.37017 24.0608 4.10374C24.0608 1.83731 22.2216 0 19.9528 0C17.6841 0 15.8449 1.83731 15.8449 4.10374C15.8449 6.37017 17.6841 8.20748 19.9528 8.20748Z" fill="#6C63FF"/>
<path opacity="0.1" d="M4.10793 26.9672C6.37669 26.9672 8.21587 25.1299 8.21587 22.8635C8.21587 20.5971 6.37669 18.7598 4.10793 18.7598C1.83918 18.7598 0 20.5971 0 22.8635C0 25.1299 1.83918 26.9672 4.10793 26.9672Z" fill="#6C63FF"/>
</g>
<defs>
<linearGradient id="paint0_linear" x1="154.672" y1="227.42" x2="154.672" y2="55.7962" gradientUnits="userSpaceOnUse">
<stop stop-color="#808080" stop-opacity="0.25"/>
<stop offset="0.54" stop-color="#808080" stop-opacity="0.12"/>
<stop offset="1" stop-color="#808080" stop-opacity="0.1"/>
</linearGradient>
<clipPath id="clip0">
<rect width="320.419" height="243" fill="white"/>
</clipPath>
</defs>
</svg>
