<svg width="328" height="289" viewBox="0 0 328 289" fill="none" xmlns="http://www.w3.org/2000/svg">
<path opacity="0.1" d="M169.823 52.9641C157.082 52.5194 144.946 48.3911 133.358 43.8734C121.77 39.3557 110.293 34.3499 97.8483 31.9566C89.8572 30.4171 80.7085 30.1998 74.2628 34.502C68.0613 38.6521 66.0572 45.7962 64.9803 52.4305C64.1691 57.4244 63.6927 62.6773 65.9134 67.3511C67.4569 70.5961 70.1935 73.3233 72.0874 76.4418C78.6767 87.2558 74.0187 100.591 66.8801 111.151C63.5332 116.103 59.645 120.834 57.06 126.103C54.4751 131.371 53.2801 137.417 55.5421 142.794C57.7826 148.13 63.1237 152.13 68.9098 154.948C80.6612 160.667 94.5034 162.306 108.011 163.232C137.902 165.286 167.951 164.396 197.921 163.507C209.013 163.177 220.152 162.843 231.063 161.122C237.122 160.165 243.377 158.648 247.775 154.995C253.361 150.345 254.745 142.47 251.002 136.64C244.726 126.86 227.377 124.429 222.985 113.933C220.571 108.157 223.05 101.72 226.56 96.3623C234.089 84.8665 246.706 74.7837 247.37 61.6437C247.826 52.6202 241.761 43.5829 232.382 39.3122C222.552 34.836 208.918 35.3992 201.669 42.8082C194.198 50.4207 181.075 53.3554 169.823 52.9641Z" fill="#FF4568"/>
<g opacity="0.9">
<path opacity="0.9" d="M218.457 56.8901H216.675C216.149 56.8901 215.722 57.317 215.722 57.8436V86.3384C215.722 86.865 216.149 87.2918 216.675 87.2918H218.457C218.984 87.2918 219.411 86.865 219.411 86.3384V57.8436C219.411 57.317 218.984 56.8901 218.457 56.8901Z" fill="#3A3768"/>
<path opacity="0.9" d="M94.248 33.0747H94.0856C93.5591 33.0747 93.1322 33.5016 93.1322 34.0281V42.1303C93.1322 42.6569 93.5591 43.0837 94.0856 43.0837H94.248C94.7746 43.0837 95.2015 42.6569 95.2015 42.1303V34.0281C95.2015 33.5016 94.7746 33.0747 94.248 33.0747Z" fill="#3A3768"/>
<path opacity="0.9" d="M94.4355 51.3979H94.0108C93.4843 51.3979 93.0574 51.8248 93.0574 52.3514V67.8645C93.0574 68.3911 93.4843 68.818 94.0108 68.818H94.4355C94.9621 68.818 95.3889 68.3911 95.3889 67.8645V52.3514C95.3889 51.8248 94.9621 51.3979 94.4355 51.3979Z" fill="#3A3768"/>
<path opacity="0.9" d="M94.3607 74.9136H94.0485C93.5219 74.9136 93.095 75.3404 93.095 75.867V91.53C93.095 92.0566 93.5219 92.4835 94.0485 92.4835H94.3607C94.8873 92.4835 95.3141 92.0566 95.3141 91.53V75.867C95.3141 75.3404 94.8873 74.9136 94.3607 74.9136Z" fill="#3A3768"/>
<path opacity="0.9" d="M201.479 0H110.54C101.574 0 94.3065 7.26795 94.3065 16.2334V234.57C94.3065 243.536 101.574 250.804 110.54 250.804H201.479C210.444 250.804 217.712 243.536 217.712 234.57V16.2334C217.712 7.26795 210.444 0 201.479 0Z" fill="#3A3768"/>
<path opacity="0.9" d="M159.723 7.48633H145.713C144.823 7.48633 144.102 8.20772 144.102 9.0976V9.37238C144.102 10.2623 144.823 10.9837 145.713 10.9837H159.723C160.613 10.9837 161.334 10.2623 161.334 9.37238V9.0976C161.334 8.20772 160.613 7.48633 159.723 7.48633Z" fill="#E6E8EC"/>
<path opacity="0.9" d="M165.927 11.2249C167.024 11.2249 167.913 10.3357 167.913 9.23891C167.913 8.14209 167.024 7.25293 165.927 7.25293C164.83 7.25293 163.941 8.14209 163.941 9.23891C163.941 10.3357 164.83 11.2249 165.927 11.2249Z" fill="#E6E8EC"/>
</g>
<path opacity="0.1" d="M51.2408 265.414C79.5403 265.414 102.482 261.59 102.482 256.874C102.482 252.157 79.5403 248.333 51.2408 248.333C22.9413 248.333 0 252.157 0 256.874C0 261.59 22.9413 265.414 51.2408 265.414Z" fill="#FF4568"/>
<path opacity="0.1" d="M205.042 288.874C226.583 288.874 244.046 287.094 244.046 284.898C244.046 282.702 226.583 280.922 205.042 280.922C183.501 280.922 166.039 282.702 166.039 284.898C166.039 287.094 183.501 288.874 205.042 288.874Z" fill="#FF4568"/>
<path opacity="0.1" d="M288.997 268.708C310.538 268.708 328 266.927 328 264.731C328 262.536 310.538 260.755 288.997 260.755C267.455 260.755 249.993 262.536 249.993 264.731C249.993 266.927 267.455 268.708 288.997 268.708Z" fill="#FF4568"/>
<path d="M200.275 6.52881H186.161V8.23167C186.161 10.3717 185.311 12.424 183.798 13.9372C182.285 15.4504 180.232 16.3005 178.092 16.3005H133.052C130.912 16.3005 128.859 15.4504 127.346 13.9372C125.833 12.424 124.983 10.3717 124.983 8.23167V6.52881H111.726C110.439 6.52881 109.165 6.78234 107.976 7.27493C106.787 7.76752 105.707 8.48951 104.798 9.39966C103.888 10.3098 103.166 11.3903 102.674 12.5793C102.182 13.7684 101.929 15.0428 101.93 16.3296V234.467C101.929 235.754 102.182 237.028 102.674 238.217C103.166 239.406 103.888 240.487 104.798 241.397C105.707 242.307 106.787 243.029 107.976 243.522C109.165 244.014 110.439 244.268 111.726 244.268H200.275C202.875 244.268 205.367 243.235 207.205 241.397C209.043 239.559 210.076 237.066 210.076 234.467V16.3296C210.076 13.7303 209.043 11.2374 207.205 9.39941C205.367 7.5614 202.875 6.52881 200.275 6.52881Z" fill="#032B4D"/>
<path d="M273.311 202.278C273.311 203.944 273.124 205.28 272.895 205.28C272.666 205.28 272.478 203.935 272.478 202.278C272.478 200.621 272.711 201.404 272.94 201.404C273.169 201.404 273.311 200.613 273.311 202.278Z" fill="#FFD037"/>
<path d="M275.609 204.244C274.152 205.035 272.886 205.518 272.774 205.314C272.661 205.11 273.756 204.306 275.213 203.511C276.671 202.716 276.092 203.299 276.204 203.511C276.317 203.723 277.066 203.448 275.609 204.244Z" fill="#FFD037"/>
<path d="M247.589 196.258C247.589 196.258 243.987 200.971 249.254 208.082C254.521 215.193 258.859 221.197 257.106 225.631C257.106 225.631 249.162 212.425 242.697 212.237C236.231 212.05 240.477 204.202 247.589 196.258Z" fill="#FBA0B1"/>
<path opacity="0.1" d="M247.589 196.258C247.273 196.713 247.025 197.21 246.852 197.736C240.544 205.147 237.184 212.067 243.246 212.237C248.896 212.4 255.67 222.5 257.294 225.048C257.241 225.246 257.177 225.441 257.102 225.631C257.102 225.631 249.158 212.425 242.692 212.237C236.227 212.05 240.477 204.202 247.589 196.258Z" fill="black"/>
<path d="M240.89 202.278C240.89 203.944 241.077 205.28 241.306 205.28C241.535 205.28 241.722 203.935 241.722 202.278C241.722 200.621 241.489 201.404 241.26 201.404C241.031 201.404 240.89 200.613 240.89 202.278Z" fill="#FFD037"/>
<path d="M238.579 204.244C240.032 205.035 241.302 205.518 241.41 205.314C241.518 205.11 240.431 204.306 238.974 203.511C237.517 202.716 238.092 203.299 237.983 203.511C237.875 203.723 237.138 203.448 238.579 204.244Z" fill="#FFD037"/>
<path d="M242.039 225.015C242.039 225.015 252.11 224.703 255.146 222.542C258.181 220.381 270.638 217.8 271.383 221.268C272.128 224.736 286.517 238.509 275.13 238.6C263.743 238.692 248.709 236.827 245.682 234.982C242.655 233.138 242.039 225.015 242.039 225.015Z" fill="#A8A8A8"/>
<path opacity="0.2" d="M275.359 237.393C263.989 237.484 248.938 235.619 245.911 233.775C243.6 232.372 242.684 227.33 242.376 225.002H242.039C242.039 225.002 242.676 233.125 245.707 234.97C248.738 236.814 263.785 238.679 275.155 238.588C278.436 238.559 279.573 237.393 279.51 235.673C279.052 236.718 277.803 237.372 275.359 237.393Z" fill="black"/>
<path opacity="0.3" d="M196.665 156.435H164.178V188.922H196.665V156.435Z" fill="#FF4568"/>
<path opacity="0.3" d="M148.786 113.55H116.298V146.038H148.786V113.55Z" fill="#3A3768"/>
<path opacity="0.8" d="M140 204H125V219H140V204Z" fill="#FF4568"/>
<path opacity="0.8" d="M146 212H131V227H146V212Z" fill="#FF4568"/>
<path d="M144.659 33.7822H112.171V66.2699H144.659V33.7822Z" fill="white"/>
<path d="M190.15 144.722L166.06 166.52L187.858 190.609L211.947 168.812L190.15 144.722Z" fill="white"/>
<path d="M196.128 72.9316H163.64V105.419H196.128V72.9316Z" fill="white"/>
<path d="M155.059 109.153H122.572V141.641H155.059V109.153Z" fill="white"/>
<path d="M48.1662 187.535C48.4077 190.167 46.4217 192.715 47.0004 195.288C47.1253 195.837 47.3626 196.358 47.4501 196.911C47.6874 198.439 46.7756 199.888 45.9054 201.167L38.4361 212.133C38.1335 212.614 37.7743 213.057 37.3661 213.453C35.9339 214.702 33.7938 214.59 31.9161 214.968C30.5983 215.238 29.3542 215.789 28.2689 216.584C28.2191 216.621 28.186 216.677 28.1766 216.738C28.1673 216.8 28.1825 216.862 28.2189 216.913C28.5295 217.335 28.9405 217.672 29.4145 217.894C29.8886 218.117 30.4107 218.217 30.9335 218.187C31.1292 218.445 30.9335 218.824 30.6629 219.02C30.2466 219.299 29.7095 219.369 29.6304 220.052C29.6021 220.289 29.6503 220.528 29.7678 220.735C30.0684 221.196 30.5376 221.522 31.0751 221.643C33.6606 222.434 36.4585 221.047 38.3903 219.144C40.3222 217.242 41.7211 214.869 43.6196 212.941C44.673 211.879 45.8679 210.963 46.9504 209.931C49.1154 207.874 50.7933 205.351 52.4171 202.853C52.9462 202.124 53.3462 201.31 53.5995 200.446C53.7994 199.589 53.7078 198.685 53.9409 197.836C54.2407 196.728 55.0567 195.841 55.7312 194.921C57.0594 193.098 57.942 190.862 57.7672 188.614C57.5923 186.365 56.2017 184.142 54.0783 183.38C53.4166 183.113 52.6862 183.068 51.9966 183.251C51.1264 183.522 50.4852 184.242 49.8898 184.917L48.4743 186.557C48.116 186.913 47.8329 187.338 47.6416 187.806C47.5506 188.042 47.5297 188.299 47.5814 188.546C47.6331 188.794 47.7552 189.021 47.933 189.201" fill="#FBBEBE"/>
<path opacity="0.05" d="M48.1662 187.535C48.4077 190.167 46.4217 192.715 47.0004 195.288C47.1253 195.837 47.3626 196.358 47.4501 196.911C47.6874 198.439 46.7756 199.888 45.9054 201.167L38.4361 212.133C38.1335 212.614 37.7743 213.057 37.3661 213.453C35.9339 214.702 33.7938 214.59 31.9161 214.968C30.5983 215.238 29.3542 215.789 28.2689 216.584C28.2191 216.621 28.186 216.677 28.1766 216.738C28.1673 216.8 28.1825 216.862 28.2189 216.913C28.5295 217.335 28.9405 217.672 29.4145 217.894C29.8886 218.117 30.4107 218.217 30.9335 218.187C31.1292 218.445 30.9335 218.824 30.6629 219.02C30.2466 219.299 29.7095 219.369 29.6304 220.052C29.6021 220.289 29.6503 220.528 29.7678 220.735C30.0684 221.196 30.5376 221.522 31.0751 221.643C33.6606 222.434 36.4585 221.047 38.3903 219.144C40.3222 217.242 41.7211 214.869 43.6196 212.941C44.673 211.879 45.8679 210.963 46.9504 209.931C49.1154 207.874 50.7933 205.351 52.4171 202.853C52.9462 202.124 53.3462 201.31 53.5995 200.446C53.7994 199.589 53.7078 198.685 53.9409 197.836C54.2407 196.728 55.0567 195.841 55.7312 194.921C57.0594 193.098 57.942 190.862 57.7672 188.614C57.5923 186.365 56.2017 184.142 54.0783 183.38C53.4166 183.113 52.6862 183.068 51.9966 183.251C51.1264 183.522 50.4852 184.242 49.8898 184.917L48.4743 186.557C48.116 186.913 47.8329 187.338 47.6416 187.806C47.5506 188.042 47.5297 188.299 47.5814 188.546C47.6331 188.794 47.7552 189.021 47.933 189.201" fill="black"/>
<path d="M54.4484 248.152C52.8164 249.147 50.7846 249.205 48.886 248.984C48.5821 248.947 48.2199 248.922 48.0242 249.159C47.7411 249.501 48.0741 249.992 48.4197 250.284C49.5406 251.121 50.8556 251.661 52.2418 251.853C53.4832 252.026 54.7355 252.11 55.9889 252.103C59.3988 252.161 62.8254 252.215 66.202 251.724C66.3975 251.711 66.5878 251.656 66.7599 251.562C66.9737 251.407 67.1222 251.179 67.1762 250.921C67.2581 250.473 67.2187 250.011 67.062 249.583C66.9053 249.156 66.6371 248.778 66.2852 248.489C65.5754 247.922 64.7685 247.489 63.9037 247.211L60.9393 246.058C60.244 245.787 59.124 245.067 58.3704 245.125C56.9715 245.217 55.6267 247.461 54.4484 248.152Z" fill="#3F3D56"/>
<path d="M61.897 255.117C60.5314 256.34 58.7547 257.003 56.9216 256.974C56.4553 256.974 55.8058 257.061 55.8058 257.528C55.8125 257.667 55.8587 257.801 55.939 257.915C56.5197 258.88 57.4357 259.598 58.5121 259.93C59.5286 260.172 60.5791 260.238 61.618 260.126L64.6574 259.968C65.2319 259.938 65.8106 259.909 66.381 259.838C66.9514 259.768 67.5718 259.651 68.1672 259.56C69.6328 259.353 71.1144 259.283 72.593 259.351C72.785 259.389 72.983 259.382 73.1721 259.332C73.3611 259.281 73.5361 259.188 73.6838 259.06C73.9544 258.718 73.7962 258.227 73.7088 257.811C73.5256 256.932 73.7088 256.008 73.5381 255.121C73.2466 253.572 71.9143 252.382 70.4363 251.82C69.0707 251.299 66.6475 250.704 65.3527 251.57C63.9621 252.49 63.1252 254.005 61.897 255.117Z" fill="#3F3D56"/>
<path d="M55.8936 215.789C54.6446 217.433 53.3955 219.332 53.687 221.364C53.8535 222.459 54.4655 223.425 54.9152 224.441C55.4802 225.834 55.8988 227.282 56.1642 228.762C56.6264 230.915 57.0885 233.071 57.3758 235.253C57.6948 237.724 57.7854 240.218 57.6464 242.706C57.609 243.305 57.5424 243.955 57.126 244.371C56.9595 244.538 56.743 244.675 56.6722 244.9C56.6271 245.113 56.6612 245.335 56.768 245.524C57.5307 247.086 58.8536 248.304 60.4734 248.934C62.0817 249.551 63.7888 249.87 65.5112 249.875C65.7398 249.901 65.9713 249.871 66.1857 249.788C66.4169 249.648 66.5988 249.44 66.7062 249.192C67.9552 246.819 67.2599 243.955 67.2807 241.282C67.2807 239.046 67.822 236.831 67.7262 234.595C67.6471 232.805 67.1683 231.056 66.9934 229.27C66.7062 226.356 67.2432 223.4 67.7803 220.506C68.1967 218.291 68.613 216.072 69.1335 213.878C69.3981 212.526 69.8819 211.226 70.5657 210.031C71.1486 209.111 71.9396 208.34 72.6058 207.474C74.4481 205.055 75.2674 202.01 74.8874 198.993C74.8458 198.694 70.599 200.067 70.2326 200.242C68.7016 200.886 67.2931 201.789 66.0692 202.911C65.0866 203.844 64.3163 205.093 63.4545 206.142C62.2388 207.621 61.0425 209.109 59.8656 210.605C58.5222 212.321 57.1982 214.048 55.8936 215.789Z" fill="#464353"/>
<path opacity="0.05" d="M55.8936 215.789C54.6446 217.433 53.3955 219.332 53.687 221.364C53.8535 222.459 54.4655 223.425 54.9152 224.441C55.4802 225.834 55.8988 227.282 56.1642 228.762C56.6264 230.915 57.0885 233.071 57.3758 235.253C57.6948 237.724 57.7854 240.218 57.6464 242.706C57.609 243.305 57.5424 243.955 57.126 244.371C56.9595 244.538 56.743 244.675 56.6722 244.9C56.6271 245.113 56.6612 245.335 56.768 245.524C57.5307 247.086 58.8536 248.304 60.4734 248.934C62.0817 249.551 63.7888 249.87 65.5112 249.875C65.7398 249.901 65.9713 249.871 66.1857 249.788C66.4169 249.648 66.5988 249.44 66.7062 249.192C67.9552 246.819 67.2599 243.955 67.2807 241.282C67.2807 239.046 67.822 236.831 67.7262 234.595C67.6471 232.805 67.1683 231.056 66.9934 229.27C66.7062 226.356 67.2432 223.4 67.7803 220.506C68.1967 218.291 68.613 216.072 69.1335 213.878C69.3981 212.526 69.8819 211.226 70.5657 210.031C71.1486 209.111 71.9396 208.34 72.6058 207.474C74.4481 205.055 75.2674 202.01 74.8874 198.993C74.8458 198.694 70.599 200.067 70.2326 200.242C68.7016 200.886 67.2931 201.789 66.0692 202.911C65.0866 203.844 64.3163 205.093 63.4545 206.142C62.2388 207.621 61.0425 209.109 59.8656 210.605C58.5222 212.321 57.1982 214.048 55.8936 215.789Z" fill="black"/>
<path d="M64.9122 203.14C65.1786 204.414 66.4152 205.389 66.4485 206.692C66.4776 207.733 65.7365 208.607 65.1994 209.502C64.6947 210.428 64.2685 211.394 63.9254 212.392C62.9142 214.984 61.6595 217.476 60.1783 219.832C59.4663 220.964 58.6669 222.192 58.8335 223.521C58.9451 224.14 59.1635 224.736 59.4788 225.282L61.6189 229.533C62.0879 230.381 62.4541 231.283 62.7097 232.218C62.897 233.026 62.9137 233.883 63.0219 234.683C63.3592 237.289 64.5791 239.912 63.8546 242.439C63.7922 242.656 63.5632 242.918 63.3925 242.768C64.1003 244.088 64.6707 245.42 64.6124 246.932C64.5874 247.719 64.3459 248.535 64.6374 249.267C64.8004 249.541 64.9106 249.844 64.9621 250.158C64.9621 250.371 64.8622 250.575 64.8414 250.787C64.7831 251.387 65.3327 251.89 65.9072 252.082C66.4818 252.273 67.1063 252.261 67.685 252.432C68.8009 252.765 69.5919 253.722 70.5495 254.389C71.5164 255.059 72.6584 255.431 73.8345 255.459C74.0015 255.476 74.1698 255.443 74.3175 255.363C74.4014 255.289 74.4688 255.199 74.5155 255.098C74.5621 254.997 74.5869 254.887 74.5881 254.776C74.6393 254.243 74.5586 253.705 74.3531 253.211C74.1477 252.716 73.8237 252.28 73.4098 251.94C73.2365 251.823 73.0937 251.666 72.9935 251.482C72.9398 251.317 72.9255 251.142 72.9518 250.97C73.1268 248.633 73.085 246.284 72.8269 243.955C72.714 243.217 72.6777 242.469 72.7187 241.723C72.842 241.111 72.9019 240.487 72.8977 239.862C72.7664 239.252 72.5754 238.657 72.3273 238.084C71.9984 237.023 72.09 235.882 72.0567 234.754C71.9323 232.827 71.6171 230.918 71.1157 229.054C71.0058 228.302 70.7 227.593 70.2289 226.997C69.7834 226.531 69.0632 226.089 69.2339 225.469C69.3283 225.239 69.4702 225.032 69.6502 224.861C69.8577 224.602 70.0101 224.303 70.0981 223.983C70.1862 223.663 70.208 223.329 70.1623 223C70.3493 223.048 70.547 223.029 70.7217 222.947C70.8964 222.865 71.0371 222.725 71.1199 222.55C74.6586 220.8 77.3636 217.724 78.6475 213.99C78.721 213.721 78.8347 213.464 78.9847 213.228C79.3053 212.779 79.8674 212.583 80.3628 212.333C81.92 211.551 82.9942 210.081 83.9809 208.644C84.6018 207.842 85.0755 206.935 85.3798 205.967C85.5146 205.332 85.5788 204.684 85.5714 204.035L85.6588 200.705C85.6758 200.485 85.6547 200.264 85.5963 200.051C85.5114 199.851 85.3884 199.67 85.2341 199.518C84.2838 198.516 83.0378 197.845 81.6785 197.603C80.7667 197.44 79.8341 197.47 78.9098 197.395C77.1195 197.245 75.35 196.691 73.5556 196.82C70.741 197.028 68.2346 198.981 66.894 201.471C66.4027 202.362 65.9114 203.111 64.9122 203.14Z" fill="#464353"/>
<path d="M36.1633 208.186H3.67566V240.674H36.1633V208.186Z" fill="white"/>
<path d="M42.1625 179.604C45.9865 179.604 49.0864 176.504 49.0864 172.68C49.0864 168.856 45.9865 165.756 42.1625 165.756C38.3386 165.756 35.2386 168.856 35.2386 172.68C35.2386 176.504 38.3386 179.604 42.1625 179.604Z" fill="#FBBEBE"/>
<path d="M48.3958 172.389C49.035 173.41 49.8731 174.292 50.8602 174.982C51.8473 175.672 52.9632 176.157 54.1414 176.407L53.621 178.297C52.7217 181.553 51.7058 185 49.1911 187.257C49.3004 186.697 49.2943 186.121 49.1733 185.565C49.0523 185.008 48.8189 184.481 48.4874 184.017C47.8225 183.094 47.0322 182.267 46.1393 181.561L42.1548 178.093C42.0328 178.004 41.9307 177.89 41.855 177.76C41.7573 177.517 41.7573 177.245 41.855 177.002C42.363 175.42 43.8119 174.433 44.986 173.367C45.5777 172.815 46.1068 172.199 46.5639 171.531C47.38 170.407 47.8921 171.544 48.3958 172.389Z" fill="#FBBEBE"/>
<path d="M49.2777 181.344C49.3163 181.862 49.2469 182.383 49.0737 182.872C48.977 183.111 48.7977 183.308 48.5684 183.425C48.3391 183.543 48.0751 183.574 47.8246 183.514C47.9704 183.185 47.5873 182.81 47.2293 182.852C47.0531 182.891 46.8892 182.973 46.7515 183.09C46.6137 183.206 46.5063 183.355 46.4382 183.522C46.1979 184 46.1176 184.543 46.2092 185.071C46.3216 185.729 46.7005 186.357 46.6006 187.015C46.5215 187.56 46.1176 188.106 46.3341 188.618C46.4729 188.849 46.6471 189.057 46.8504 189.234C47.1319 189.582 47.2694 190.024 47.2346 190.471C47.1997 190.917 46.9952 191.332 46.663 191.632L52.0755 191.736C51.8757 192.64 52.2837 193.564 52.7459 194.364C54.0398 196.567 55.8267 198.441 57.9664 199.838C60.106 201.235 62.5402 202.117 65.0781 202.416C64.9412 202.496 64.8238 202.606 64.7344 202.737C64.645 202.869 64.5858 203.018 64.5612 203.175C64.5365 203.332 64.5469 203.492 64.5916 203.645C64.6364 203.797 64.7144 203.938 64.82 204.056C65.2613 204.493 66.0024 204.439 66.552 204.156C67.073 203.821 67.5697 203.45 68.0383 203.044C68.9219 202.411 70.0032 202.116 71.086 202.212C71.7647 202.274 72.4183 202.491 73.097 202.528C75.0954 202.636 76.815 201.196 78.726 200.609C80.1291 200.192 81.7154 200.192 82.8895 199.301C83.3974 198.927 83.8138 198.311 83.6639 197.694C83.5389 197.343 83.3401 197.022 83.081 196.753C82.4023 195.875 82.0068 194.822 81.5197 193.839C80.5598 191.868 79.2362 190.097 77.6185 188.618C76.4012 187.55 75.1101 186.569 73.7548 185.683C73.4255 185.441 73.0742 185.23 72.7056 185.054C72.2148 184.894 71.7362 184.7 71.2734 184.471C70.6364 184.055 70.2741 183.368 69.787 182.806C68.717 181.557 67.0724 180.986 65.7526 180.004C64.8699 179.346 64.0872 178.48 63.0338 178.159C62.5217 178.005 61.9721 177.993 61.46 177.839C60.2943 177.485 59.4449 176.448 58.3 176.032C57.3965 175.699 56.3973 175.786 55.4396 175.665C54.3852 175.535 53.3774 175.153 52.5002 174.554C52.2149 174.319 51.8946 174.131 51.551 173.996C50.1062 173.579 49.9896 176.252 49.8523 177.185C49.6358 178.547 49.2777 179.941 49.2777 181.344Z" fill="#3F3D56"/>
<path d="M50.6901 190.383C50.9315 193.01 48.9456 195.558 49.5243 198.136C49.6492 198.685 49.8823 199.206 49.9698 199.759C50.2113 201.287 49.2995 202.732 48.4293 204.01L40.935 214.977C40.6374 215.46 40.2793 215.904 39.8692 216.297C38.4369 217.567 36.2969 217.433 34.4192 217.816C33.0997 218.085 31.8541 218.636 30.7678 219.432C30.7198 219.47 30.6883 219.525 30.6798 219.585C30.6713 219.646 30.6864 219.707 30.722 219.757C31.0318 220.179 31.4426 220.517 31.9168 220.74C32.3911 220.962 32.9137 221.062 33.4366 221.031C33.6323 221.289 33.4366 221.672 33.166 221.863C32.7496 222.142 32.2125 222.217 32.1334 222.896C32.1059 223.133 32.1524 223.373 32.2667 223.583C32.5699 224.044 33.04 224.369 33.5781 224.49C36.1637 225.282 38.9574 223.891 40.8934 221.992C42.8294 220.094 44.2242 217.716 46.1227 215.789C47.1761 214.723 48.371 213.811 49.4535 212.779C51.6144 210.697 53.2964 208.199 54.9202 205.701C55.4494 204.971 55.8493 204.155 56.1026 203.29C56.3024 202.436 56.2108 201.529 56.444 200.684C56.7438 199.572 57.5556 198.685 58.2343 197.769C59.5624 195.941 60.4451 193.71 60.2702 191.457C60.0954 189.205 58.7006 186.99 56.5814 186.224C55.9192 185.958 55.1888 185.915 54.4996 186.099C53.6295 186.365 52.9883 187.086 52.3929 187.764L50.9732 189.405C50.6173 189.763 50.3345 190.187 50.1405 190.654C50.0495 190.89 50.0286 191.147 50.0803 191.394C50.132 191.642 50.2541 191.869 50.4319 192.049" fill="#FBBEBE"/>
<path d="M54.4702 179.587C53.4877 179.646 52.3885 179.741 51.7099 180.42C51.4198 180.742 51.1861 181.111 51.0187 181.511C50.3442 182.881 49.6864 184.317 49.6406 185.845C49.599 187.065 49.9529 188.26 50.1402 189.467C50.2943 190.471 49.9029 191.495 49.828 192.511C51.1859 192.141 52.5027 191.635 53.7583 190.999C54.4845 190.526 55.2557 190.126 56.0607 189.805C57.2306 189.413 59.2041 190.083 60.3116 190.637C60.374 189.854 59.787 188.493 59.8494 187.723C59.8572 187.392 59.9162 187.065 60.0243 186.753C60.1896 186.422 60.3862 186.109 60.6114 185.816C61.0372 185.126 61.2331 184.318 61.171 183.509C61.1089 182.701 60.792 181.932 60.2658 181.315C59.2791 180.204 57.7302 179.787 56.2522 179.612C55.3209 179.506 54.3825 179.474 53.446 179.517" fill="#3F3D56"/>
<path d="M33.0403 165.719L32.8821 164.416C33.977 164.695 35.0137 163.77 35.7132 162.808C36.4127 161.847 37.058 160.727 38.1197 160.31C39.4145 159.823 40.7843 160.602 42.0209 161.243C43.4023 162.023 44.9226 162.527 46.4966 162.725C46.7476 162.736 46.9963 162.776 47.2377 162.846C48.0413 163.133 48.4243 164.141 48.5409 165.057C48.6575 165.973 48.6242 166.947 49.0197 167.763C49.3236 168.379 49.8524 168.841 50.1522 169.428C50.9848 171.065 50.1813 173.305 51.0764 174.912L48.8573 172.88C48.6533 172.693 48.366 172.497 48.1454 172.655C47.9247 172.813 47.9538 173.071 47.8789 173.267C47.8158 173.411 47.7242 173.54 47.6097 173.648C47.4953 173.755 47.3602 173.838 47.2127 173.892C47.0652 173.945 46.9084 173.969 46.7517 173.96C46.595 173.951 46.4417 173.911 46.3009 173.842C45.7401 173.522 45.2578 173.081 44.8895 172.551C43.9671 171.371 42.7531 170.451 41.3672 169.882C40.7665 169.65 40.1229 169.55 39.4801 169.588C38.8373 169.626 38.2101 169.802 37.6409 170.103C36.6042 170.69 35.8464 172.051 34.5766 172.097C32.8362 172.164 32.1118 168.925 31.3083 167.646C31.6021 167.424 31.8087 167.106 31.8924 166.747C31.9761 166.388 31.9314 166.011 31.7662 165.681C31.887 165.64 33.0153 165.519 33.0403 165.719Z" fill="#464353"/>
<path d="M189.679 83.3229C188.988 83.6277 188.255 83.8283 187.505 83.9183C188.293 83.4476 188.884 82.7084 189.171 81.8365C188.427 82.2777 187.613 82.5889 186.764 82.7567C186.246 82.1998 185.573 81.8119 184.831 81.6438C184.09 81.4757 183.315 81.5352 182.607 81.8144C181.9 82.0936 181.293 82.5797 180.867 83.209C180.44 83.8384 180.213 84.5818 180.215 85.3422C180.213 85.6336 180.245 85.9243 180.311 86.2082C178.805 86.1334 177.331 85.7417 175.987 85.0587C174.642 84.3757 173.457 83.4168 172.508 82.2446C172.025 83.0798 171.877 84.0678 172.095 85.008C172.313 85.9482 172.881 86.7702 173.683 87.3074C173.079 87.2922 172.489 87.1292 171.963 86.8327V86.8785C171.963 87.7538 172.265 88.6021 172.819 89.2798C173.373 89.9574 174.145 90.4226 175.002 90.5965C174.676 90.6836 174.341 90.7284 174.003 90.7297C173.764 90.7293 173.526 90.7056 173.291 90.659C173.534 91.4111 174.006 92.0687 174.64 92.5403C175.274 93.0119 176.04 93.2741 176.83 93.2903C175.489 94.3447 173.832 94.9167 172.125 94.9141C171.823 94.9128 171.522 94.8947 171.222 94.8599C172.947 95.9803 174.961 96.5749 177.018 96.5711C183.991 96.5711 187.801 90.7964 187.801 85.7835C187.801 85.6198 187.801 85.4574 187.801 85.2964C188.539 84.7555 189.175 84.0872 189.679 83.3229V83.3229Z" fill="#1DA1F2"/>
<path d="M175.919 164.841L177.168 167.976L185.324 176.624L188.055 174.051L189.775 175.87L191.594 174.15L191.698 170.616L193.972 168.467L194.155 162.276L186.856 154.541L175.919 164.841ZM192.365 163.109L192.26 166.648L189.529 169.221L189.425 172.76L187.71 170.94L185.432 173.089L178.117 165.349L186.765 157.193L192.365 163.109Z" fill="#646695"/>
<path d="M185.724 161.559L187.089 160.273L190.553 163.941L189.188 165.223L185.724 161.559ZM182.538 164.566L183.904 163.275L187.364 166.947L185.998 168.234L182.538 164.566Z" fill="#646695"/>
<path d="M24.9924 214.353H11.636C11.4151 214.353 11.2033 214.44 11.0472 214.596C10.891 214.753 10.8033 214.964 10.8033 215.185V228.546C10.8033 228.767 10.891 228.978 11.0472 229.135C11.2033 229.291 11.4151 229.379 11.636 229.379H18.2976V223.429H16.5031V221.239H18.3309V219.619C18.3309 217.683 19.6757 216.626 21.4077 216.626C22.2404 216.626 23.1313 216.688 23.3354 216.717V218.741H21.9572C21.0163 218.741 20.8331 219.186 20.8331 219.844V221.239H23.0772L22.7858 223.429H20.8289V229.374H24.9924C25.2133 229.374 25.4251 229.287 25.5812 229.13C25.7374 228.974 25.8251 228.763 25.8251 228.542V215.185C25.8251 214.964 25.7374 214.753 25.5812 214.596C25.4251 214.44 25.2133 214.353 24.9924 214.353Z" fill="#3012AA"/>
<path d="M141.77 119.009C142.598 119.011 143.392 119.341 143.978 119.927C144.564 120.513 144.894 121.307 144.897 122.136V128.381C144.894 129.209 144.564 130.003 143.978 130.589C143.392 131.175 142.598 131.505 141.77 131.508H135.525C134.696 131.506 133.901 131.177 133.314 130.592C133.021 130.302 132.79 129.958 132.632 129.579C132.474 129.199 132.393 128.792 132.394 128.381V122.136C132.396 121.306 132.727 120.512 133.313 119.926C133.9 119.34 134.695 119.01 135.525 119.009H141.77ZM141.77 117.76H135.525C134.364 117.763 133.252 118.226 132.431 119.046C131.61 119.867 131.148 120.979 131.145 122.14V128.385C131.148 129.546 131.61 130.658 132.431 131.478C133.252 132.299 134.364 132.762 135.525 132.765H141.77C142.927 132.762 144.037 132.301 144.857 131.484C145.678 130.667 146.142 129.559 146.15 128.402V122.156C146.15 120.993 145.689 119.877 144.868 119.053C144.047 118.229 142.933 117.764 141.77 117.76V117.76Z" fill="#FF4568"/>
<path d="M142.706 122.144C142.52 122.144 142.337 122.09 142.182 121.987C142.027 121.884 141.905 121.737 141.834 121.565C141.762 121.393 141.743 121.203 141.779 121.02C141.815 120.837 141.905 120.669 142.037 120.537C142.169 120.405 142.337 120.316 142.52 120.28C142.703 120.243 142.892 120.262 143.064 120.334C143.236 120.406 143.383 120.527 143.486 120.683C143.589 120.838 143.644 121.02 143.643 121.207C143.644 121.33 143.62 121.452 143.573 121.566C143.526 121.68 143.457 121.783 143.37 121.87C143.283 121.958 143.179 122.027 143.065 122.073C142.952 122.12 142.829 122.144 142.706 122.144V122.144ZM138.655 122.756C139.149 122.756 139.632 122.902 140.043 123.177C140.454 123.451 140.774 123.841 140.963 124.298C141.152 124.754 141.202 125.257 141.105 125.741C141.009 126.226 140.771 126.671 140.422 127.02C140.072 127.37 139.627 127.607 139.143 127.704C138.658 127.8 138.156 127.751 137.699 127.562C137.243 127.373 136.853 127.052 136.578 126.642C136.304 126.231 136.157 125.748 136.157 125.254C136.157 124.591 136.42 123.956 136.889 123.487C137.357 123.019 137.993 122.756 138.655 122.756ZM138.655 121.507C137.914 121.507 137.19 121.726 136.573 122.138C135.957 122.55 135.477 123.135 135.193 123.82C134.91 124.504 134.836 125.258 134.98 125.985C135.125 126.712 135.482 127.379 136.006 127.903C136.53 128.427 137.197 128.784 137.924 128.929C138.651 129.073 139.405 128.999 140.089 128.716C140.774 128.432 141.359 127.952 141.771 127.336C142.183 126.719 142.402 125.995 142.402 125.254C142.402 124.26 142.008 123.307 141.305 122.604C140.602 121.901 139.649 121.507 138.655 121.507V121.507Z" fill="#FF4568"/>
<path d="M278.851 258.323C280.741 258.569 282.702 258.74 284.513 258.132C284.792 258.045 285.113 257.853 285.075 257.566C285.054 257.465 285.01 257.371 284.946 257.291C284.261 256.267 283.684 255.175 283.226 254.031C283.21 253.972 283.173 253.92 283.122 253.885C283.063 253.862 282.998 253.862 282.939 253.885C282.106 254.102 281.382 254.643 280.549 254.872C280.127 254.988 279.686 255.022 279.25 254.972C278.876 254.93 278.359 254.618 278.022 254.655C278.23 255.892 278.705 257.062 278.851 258.323Z" fill="#FF4568"/>
<path d="M314.628 255.155C315.877 254.322 317.167 253.398 317.904 252.078C317.957 252 317.988 251.909 317.992 251.815C317.98 251.722 317.944 251.633 317.888 251.557C317.186 250.444 316.284 249.47 315.227 248.685C314.675 249.075 314.175 249.536 313.741 250.054C313.428 250.383 312.562 250.925 312.554 251.416C312.554 251.711 312.883 252.032 313.037 252.249C313.245 252.557 313.453 252.873 313.632 253.189C313.728 253.381 314.719 255.105 314.628 255.155Z" fill="#FF4568"/>
<path d="M260.86 166.056C261.565 166.586 262.144 167.264 262.559 168.042C262.975 168.825 265.261 174.903 265.128 175.773C265.877 175.016 268.85 174.891 269.595 174.137C269.912 173.821 271.623 172.239 271.877 171.872C272.131 171.506 274.038 170.719 274.246 170.344C275.024 168.95 268.725 163.683 269.529 162.284C269.575 162.221 269.598 162.145 269.595 162.067C269.578 162.003 269.542 161.945 269.491 161.901C268.931 161.418 268.32 161 267.668 160.652C267.007 160.296 266.509 159.7 266.277 158.986C265.684 159.26 265.14 159.628 264.666 160.077C263.514 161.063 262.379 162.073 261.26 163.108C260.819 163.525 259.978 164.053 259.774 164.632C259.57 165.211 260.44 165.714 260.86 166.056Z" fill="#A1616A"/>
<path d="M271.056 163.812C270.089 164.46 269.185 165.199 268.358 166.019C267.576 166.789 266.835 167.684 266.639 168.771C266.56 169.187 266.572 169.628 266.506 170.057C266.227 171.922 264.607 173.292 263.895 175.053C263.687 175.592 263.533 176.15 263.437 176.719C263.238 177.799 263.129 178.893 263.113 179.991C263.113 181.057 264.137 181.79 264.52 182.785C264.838 183.771 265.065 184.784 265.198 185.812C265.616 187.728 266.185 189.607 266.901 191.433C268.309 195.317 272.868 206.059 274.275 209.948C278.584 208.865 290.058 206.379 293.872 204.119C295.146 203.361 285.046 194.801 286.407 194.21C286.564 194.162 286.698 194.06 286.786 193.922C286.831 193.787 286.831 193.641 286.786 193.506C285.429 187.556 281.169 182.681 279.242 176.852C278.571 174.841 277.368 173.126 276.452 171.211C275.62 169.479 275.182 167.567 274.196 165.923C274.007 165.584 273.763 165.279 273.475 165.019C273.227 164.832 272.959 164.672 272.676 164.541C272.131 164.249 271.606 164.087 271.056 163.812Z" fill="#514E7F"/>
<path d="M260.553 188.626C260.474 188.665 260.405 188.722 260.353 188.792C260.172 189.037 260.074 189.333 260.074 189.638C260.074 189.942 260.172 190.238 260.353 190.483C260.395 190.532 260.429 190.588 260.453 190.649C260.465 190.747 260.447 190.845 260.403 190.932C260.316 191.1 260.282 191.29 260.305 191.477C260.328 191.664 260.407 191.84 260.532 191.982C260.661 192.09 260.836 192.144 260.919 192.286C261.065 192.527 260.861 192.835 260.894 193.118C260.936 193.489 261.373 193.672 261.727 193.718C261.869 193.752 262.018 193.75 262.16 193.712C262.302 193.674 262.432 193.602 262.539 193.501C262.61 193.392 262.648 193.264 262.648 193.133C262.648 193.002 262.61 192.874 262.539 192.764C262.394 192.547 262.207 192.36 261.989 192.215C262.19 192.204 262.381 192.121 262.525 191.981C262.67 191.841 262.759 191.654 262.776 191.453C262.791 191.254 262.755 191.055 262.672 190.873C262.589 190.692 262.461 190.535 262.301 190.416C262.226 190.354 262.135 190.291 262.114 190.191C262.093 190.091 262.193 189.954 262.285 189.858C262.701 189.442 263.022 188.422 262.239 188.193C261.962 188.144 261.678 188.157 261.406 188.23C261.206 188.293 261.206 188.413 261.052 188.497C260.898 188.58 260.727 188.538 260.553 188.626Z" fill="#A1616A"/>
<path opacity="0.1" d="M268.733 159.869C268.528 159.873 268.327 159.924 268.144 160.016C267.961 160.108 267.801 160.24 267.676 160.402C267.414 160.83 267.263 161.317 267.234 161.818C266.98 163.419 266.414 164.955 265.569 166.339" fill="black"/>
<path opacity="0.1" d="M270.191 161.01C269.908 161.015 269.631 161.095 269.388 161.241C269.146 161.387 268.946 161.595 268.809 161.842C268.618 162.292 268.5 162.768 268.459 163.254C268.215 164.329 267.742 165.338 267.072 166.214" fill="black"/>
<path d="M286.262 262.145C286.288 262.44 286.209 262.735 286.037 262.977C285.904 263.109 285.739 263.205 285.558 263.256C282.91 264.202 279.863 263.019 277.231 263.956C276.686 264.147 276.174 264.422 275.628 264.605C274.982 264.8 274.316 264.919 273.642 264.959C272.706 265.051 271.769 265.105 270.832 265.13C270.122 265.18 269.408 265.118 268.717 264.947C268.372 264.857 268.049 264.697 267.769 264.475C267.49 264.254 267.259 263.976 267.093 263.66C266.951 263.376 266.923 263.049 267.014 262.744C267.054 262.637 267.112 262.537 267.185 262.449C267.365 262.249 267.576 262.079 267.809 261.945L268.784 261.316C269.239 260.993 269.735 260.73 270.258 260.534C270.641 260.409 271.053 260.354 271.44 260.242C272.81 259.826 273.851 258.756 274.821 257.715L276.145 256.303C276.267 256.148 276.424 256.023 276.603 255.937C276.784 255.874 276.978 255.854 277.169 255.879C278.455 255.973 279.697 256.391 280.779 257.094C281.058 257.298 281.356 257.474 281.67 257.619C282.085 257.74 282.521 257.774 282.951 257.721C283.38 257.667 283.795 257.526 284.168 257.307C284.509 257.128 284.434 257.015 284.584 256.695C284.734 256.374 285.075 256.166 285.375 256.462C285.465 256.565 285.529 256.687 285.563 256.82C285.854 257.765 285.742 258.777 285.742 259.763C285.734 259.918 285.753 260.073 285.8 260.221C285.874 260.367 285.96 260.507 286.058 260.638C286.079 260.672 286.097 260.708 286.112 260.746C286.277 261.193 286.328 261.673 286.262 262.145V262.145Z" fill="#514E7F"/>
<path d="M286.262 262.145C286.288 262.44 286.209 262.735 286.037 262.977C285.904 263.109 285.739 263.205 285.558 263.256C282.91 264.202 279.863 263.019 277.231 263.956C276.686 264.147 276.174 264.422 275.628 264.605C274.982 264.8 274.316 264.919 273.642 264.959C272.706 265.051 271.769 265.105 270.832 265.13C270.122 265.18 269.408 265.118 268.717 264.947C268.372 264.857 268.049 264.697 267.769 264.475C267.49 264.254 267.259 263.976 267.093 263.66C266.951 263.376 266.923 263.049 267.014 262.744C267.054 262.637 267.112 262.537 267.185 262.449C267.343 262.773 267.456 263.198 267.551 263.352C267.683 263.582 267.863 263.781 268.078 263.936C268.294 264.09 268.54 264.196 268.8 264.247C269.182 264.267 269.564 264.218 269.929 264.102C272.327 263.506 274.875 263.498 277.173 262.599C277.941 262.237 278.734 261.932 279.546 261.687C280.395 261.559 281.252 261.49 282.111 261.479C283.464 261.37 284.771 260.962 286.108 260.75C286.273 261.195 286.326 261.674 286.262 262.145Z" fill="#464353"/>
<path d="M320.673 254.992C320.548 255.995 319.911 256.861 319.212 257.594C318.465 258.276 317.783 259.024 317.172 259.83C316.481 260.879 316.177 262.174 315.286 263.06C314.948 263.389 314.567 263.669 314.153 263.893C313.688 264.168 313.195 264.394 312.683 264.568C311.355 264.984 309.923 264.896 308.52 264.797C308.069 264.791 307.624 264.704 307.204 264.538C307.009 264.442 306.822 264.329 306.646 264.201C306.307 263.981 306.022 263.686 305.814 263.339C305.711 263.15 305.683 262.928 305.735 262.719C305.817 262.483 305.961 262.273 306.151 262.111C306.463 261.786 306.799 261.484 307.154 261.208C307.644 260.891 308.085 260.504 308.462 260.059C308.693 259.707 308.863 259.318 308.965 258.909C309.166 258.196 309.289 257.463 309.332 256.724C309.331 256.232 309.383 255.742 309.486 255.262C309.698 254.513 310.256 253.834 310.19 253.056C310.166 252.944 310.176 252.828 310.219 252.722C310.288 252.643 310.379 252.586 310.481 252.56C310.918 252.389 311.378 252.284 311.847 252.248C312.078 252.233 312.311 252.27 312.527 252.356C312.743 252.441 312.937 252.574 313.096 252.743C313.291 252.976 313.416 253.301 313.704 253.405C313.841 253.434 313.983 253.434 314.12 253.405C314.819 253.335 315.565 253.247 316.102 252.793C316.358 252.564 316.565 252.284 316.708 251.971C316.851 251.657 316.928 251.318 316.934 250.974C316.934 250.716 316.818 250.445 317.213 250.391C317.517 250.349 317.755 250.666 317.909 250.874C318.517 251.585 318.972 252.414 319.245 253.31C319.326 253.277 319.412 253.26 319.499 253.26C319.677 253.257 319.853 253.298 320.011 253.38C320.169 253.461 320.305 253.58 320.407 253.726C320.649 254.1 320.744 254.551 320.673 254.992V254.992Z" fill="#514E7F"/>
<path d="M320.673 254.992C320.548 255.996 319.911 256.862 319.211 257.594C318.465 258.276 317.782 259.025 317.171 259.83C316.48 260.879 316.176 262.174 315.285 263.061C314.948 263.39 314.567 263.67 314.153 263.894C313.687 264.169 313.195 264.395 312.683 264.568C311.355 264.985 309.923 264.897 308.519 264.797C308.069 264.792 307.623 264.705 307.204 264.539C307.009 264.443 306.822 264.33 306.646 264.202C306.306 263.982 306.021 263.687 305.813 263.34C306.081 263.21 306.373 263.14 306.671 263.136C307.291 263.169 307.741 263.752 308.336 263.931C309.169 264.185 310.002 263.59 310.872 263.386C311.43 263.257 312.021 263.294 312.566 263.115C313.024 262.938 313.447 262.681 313.815 262.358C314.322 261.995 314.772 261.56 315.152 261.067C315.469 260.575 315.733 260.05 315.939 259.501C316.389 258.451 316.919 257.436 317.525 256.466C317.615 256.314 317.724 256.174 317.85 256.05C317.979 255.929 318.141 255.842 318.266 255.733C318.837 255.317 319.074 254.58 319.274 253.897C319.327 253.686 319.402 253.481 319.499 253.285C319.676 253.283 319.852 253.324 320.01 253.405C320.169 253.487 320.305 253.605 320.406 253.752C320.643 254.119 320.738 254.56 320.673 254.992V254.992Z" fill="#464353"/>
<path d="M261.09 165.377C264.815 165.377 267.835 162.358 267.835 158.633C267.835 154.907 264.815 151.888 261.09 151.888C257.365 151.888 254.345 154.907 254.345 158.633C254.345 162.358 257.365 165.377 261.09 165.377Z" fill="#A1616A"/>
<path d="M267.95 161.801C268.287 161.491 268.709 161.291 269.162 161.226C269.615 161.161 270.076 161.235 270.486 161.438C270.721 161.54 270.919 161.71 271.054 161.928C271.189 162.145 271.254 162.399 271.24 162.654L274.57 162.704C275.103 162.692 275.635 162.741 276.157 162.85C276.682 162.965 277.15 163.259 277.481 163.683C277.522 163.737 277.568 163.799 277.635 163.812C277.69 163.81 277.744 163.791 277.789 163.758C278.302 163.496 278.882 163.392 279.454 163.458C281.261 163.574 282.935 164.482 284.35 165.61C284.611 165.785 284.814 166.033 284.933 166.322C285.05 166.701 284.933 167.188 285.208 167.446C285.208 170.59 286.286 173.517 287.007 176.577C287.132 177.122 287.656 177.601 288.018 178.03C288.467 178.504 288.833 179.05 289.101 179.645C289.709 181.232 288.868 183.093 289.463 184.687C289.764 185.339 290.151 185.948 290.612 186.498C291.148 187.173 291.487 187.983 291.591 188.838C291.616 189.221 291.566 189.604 291.591 189.992C291.626 190.505 291.719 191.014 291.865 191.507C292.107 192.427 292.365 193.347 292.632 194.263C293.048 195.746 293.631 197.348 294.959 198.14C291.749 198.685 288.368 199.214 285.308 198.102C284.882 197.956 284.477 197.753 284.105 197.498C283.001 196.711 282.469 195.362 281.994 194.093C281.461 192.665 280.92 191.216 280.811 189.696C280.815 189.21 280.747 188.726 280.612 188.26C280.299 187.427 279.475 186.931 278.717 186.473C277.869 186.007 277.1 185.408 276.44 184.7C276.111 184.343 275.86 183.922 275.701 183.464C275.542 183.005 275.479 182.519 275.515 182.035C275.574 181.565 275.757 181.111 275.778 180.636C275.806 180.4 275.758 180.161 275.642 179.953C275.525 179.746 275.345 179.581 275.128 179.483C272.793 178.775 271.677 176.011 271.156 173.625C270.931 172.389 270.83 171.134 270.857 169.878L270.827 167.467C270.505 167.174 270.245 166.819 270.065 166.422C269.884 166.026 269.787 165.596 269.778 165.161C269.816 164.908 269.816 164.651 269.778 164.399C269.668 164.083 269.486 163.798 269.245 163.566C268.724 163.049 268.287 162.453 267.95 161.801V161.801Z" fill="#464353"/>
<path d="M260.764 169.516C260.689 170.269 260.86 171.039 260.689 171.781C260.623 172.064 260.51 172.334 260.427 172.613C260.176 173.676 260.286 174.792 260.739 175.786C261.192 176.77 261.734 177.711 262.359 178.596C262.573 178.896 262.748 179.222 262.879 179.566C262.988 179.928 263.055 180.301 263.079 180.678C263.244 182.185 263.51 183.678 263.874 185.149C264.191 186.432 264.603 187.727 265.448 188.743C265.602 188.965 265.834 189.123 266.098 189.184C266.289 189.191 266.479 189.151 266.652 189.067L268.375 188.414C268.527 188.37 268.668 188.296 268.792 188.197C268.949 188.008 269.035 187.769 269.033 187.523C269.154 186.132 268.737 184.754 268.275 183.438C266.876 179.466 265.019 175.64 264.112 171.531C263.858 170.382 263.725 168.616 262.888 167.721C262.542 167.346 262.659 167.505 262.247 167.721C262.039 167.815 261.837 167.922 261.643 168.042C261.395 168.206 261.188 168.423 261.035 168.678C260.883 168.934 260.791 169.22 260.764 169.516V169.516Z" fill="#464353"/>
<path d="M265.961 177.052C266.419 179.475 266.886 181.899 267.364 184.325L274.058 182.568C274.113 181.869 273.738 181.219 273.48 180.566C272.868 179.033 272.855 177.331 272.36 175.757C271.985 174.558 271.336 173.454 270.986 172.247C270.782 171.548 270.682 170.815 270.482 170.111C270.265 169.416 270.003 168.735 269.695 168.075C269.317 167.117 268.827 166.207 268.234 165.365C267.376 165.685 266.464 166.056 265.977 166.826C265.723 167.265 265.58 167.76 265.561 168.267C265.444 169.774 265.977 171.285 265.806 172.776C265.627 174.2 265.679 175.644 265.961 177.052Z" fill="#FF4568"/>
<path d="M274.171 209.356C274.546 210.788 274 212.27 273.559 213.694C272.889 215.821 272.431 218.009 272.193 220.227C272.169 220.796 272.055 221.358 271.856 221.892C271.608 222.35 271.337 222.794 271.044 223.225C270.37 224.415 270.386 225.872 270.532 227.234C270.628 228.133 270.774 229.028 270.948 229.915C271.169 230.994 271.44 232.126 271.123 233.179C271.652 233.063 272.014 233.746 271.993 234.291C271.973 234.836 271.781 235.419 272.039 235.898C272.697 236.135 272.705 237.039 272.685 237.734C272.694 238.947 272.847 240.154 273.138 241.331C274.132 246.103 275.187 250.862 276.303 255.608C278.713 256.357 281.528 257.136 283.826 256.099C284.05 256.027 284.253 255.902 284.419 255.736C284.584 255.569 284.708 255.366 284.779 255.142C284.803 254.892 284.772 254.641 284.688 254.405L283.597 250.441C283.27 249.506 283.137 248.515 283.206 247.527C283.314 246.79 283.622 245.999 283.272 245.353C283.147 245.133 282.956 244.937 282.814 244.746C282.24 243.913 282.54 242.793 282.589 241.777C282.606 241.55 282.589 241.321 282.54 241.098C282.461 240.839 282.354 240.588 282.219 240.353C281.321 238.605 280.89 236.654 280.97 234.691C281.005 234.439 280.97 234.183 280.87 233.95C280.799 233.856 280.737 233.756 280.687 233.65C280.642 233.467 280.662 233.274 280.745 233.104C280.418 232.866 280.123 232.586 279.867 232.272C280.022 232.171 280.153 232.036 280.249 231.879C280.346 231.721 280.407 231.543 280.427 231.359C280.447 231.175 280.426 230.989 280.365 230.814C280.304 230.639 280.205 230.48 280.075 230.348C280.191 230.325 280.299 230.271 280.386 230.19C280.474 230.109 280.537 230.006 280.569 229.892C280.601 229.777 280.6 229.656 280.567 229.542C280.535 229.428 280.471 229.325 280.383 229.245C280.241 229.145 280.058 229.103 279.967 228.962C279.812 228.754 279.937 228.458 280.062 228.233L280.728 227.03C281.224 226.139 281.336 225.036 281.869 224.165C282.59 222.892 283.179 221.549 283.626 220.156L285.525 214.868L286.815 215.988C287.247 216.317 287.608 216.729 287.877 217.2C288.061 217.664 288.176 218.152 288.219 218.649C288.693 221.522 290.504 224.011 291.175 226.847C291.268 227.488 291.474 228.108 291.782 228.679C291.913 228.844 292.03 229.019 292.132 229.203C292.227 229.484 292.276 229.777 292.278 230.073C292.337 230.654 292.52 231.214 292.815 231.717C293.111 232.22 293.511 232.654 293.989 232.988C294.622 233.404 295.426 233.725 295.759 234.416C295.831 234.629 295.929 234.834 296.05 235.024C296.358 235.394 297.024 235.44 297.158 235.902C297.228 236.165 297.091 236.473 297.241 236.702C297.322 236.806 297.43 236.887 297.553 236.935L299.414 237.867C301.496 238.904 302.545 241.282 304.081 243.026C304.612 243.59 305.079 244.21 305.476 244.875C306.138 246.057 306.446 247.543 307.558 248.305C307.857 248.462 308.129 248.664 308.366 248.905C308.72 249.367 308.59 250.017 308.62 250.599C308.649 251.182 309.098 251.873 309.652 251.699C309.456 252.403 309.456 253.147 309.652 253.851C312.082 253.725 314.398 252.787 316.23 251.186C316.772 250.712 317.296 250.108 317.3 249.392C317.307 249.268 317.279 249.144 317.221 249.034C317.114 248.892 316.97 248.783 316.805 248.717C315.069 247.777 314.544 245.595 313.674 243.821C312.904 242.26 311.771 240.907 310.81 239.458C308.728 236.335 307.337 232.559 304.21 230.494C303.524 230.04 302.724 229.636 302.383 228.887C302.237 228.45 302.114 228.005 302.016 227.555C301.958 227.332 301.833 227.133 301.658 226.984C301.483 226.835 301.267 226.743 301.038 226.722C301.235 226.047 301.312 225.342 301.263 224.64C301.281 224.338 301.245 224.035 301.159 223.745C301.041 223.434 300.887 223.137 300.701 222.862C299.885 221.477 299.477 219.889 299.522 218.282C299.547 217.45 299.693 216.617 299.443 215.822C299.318 215.406 299.102 215.06 298.948 214.673C298.72 213.98 298.599 213.257 298.59 212.529L298.419 209.785C298.396 208.871 298.277 207.963 298.065 207.074C297.486 204.947 296.933 196.033 294.972 195.029C293.011 194.026 289.663 200.883 287.477 201.021C286.501 201.063 285.536 201.248 284.613 201.57C283.152 202.12 281.923 203.144 280.728 204.147L276.682 207.545C275.911 208.235 275.069 208.842 274.171 209.356V209.356Z" fill="#464353"/>
<path d="M254.756 151.142C255.227 150.551 255.824 150.073 256.503 149.742C257.182 149.411 257.927 149.235 258.682 149.227C260.196 149.227 261.687 149.601 263.021 150.318C263.414 150.541 263.834 150.716 264.27 150.838C264.986 150.984 265.777 150.788 266.422 151.13C267.28 151.584 267.442 152.741 267.367 153.707C267.292 154.673 267.113 155.73 267.626 156.559C267.804 156.796 267.97 157.044 268.121 157.3C268.28 157.819 268.264 158.377 268.075 158.886C267.779 158.553 267.502 158.204 267.242 157.841C266.943 157.512 266.431 157.288 266.064 157.533C265.698 157.779 265.698 158.233 265.681 158.636C265.664 159.04 265.556 159.527 265.173 159.661C265.017 159.69 264.856 159.675 264.708 159.616C264.561 159.557 264.433 159.457 264.341 159.328C263.687 158.528 263.949 157.246 263.304 156.447C262.933 155.989 262.321 155.768 261.98 155.289C261.713 154.914 261.647 154.427 261.414 154.04C261.18 153.653 260.635 153.336 260.269 153.624C260.145 153.745 260.042 153.885 259.965 154.04C259.739 154.363 259.41 154.601 259.032 154.714C258.655 154.827 258.25 154.81 257.883 154.665C257.601 154.495 257.297 154.365 256.98 154.277C256.773 154.266 256.568 154.311 256.386 154.41C256.204 154.509 256.054 154.656 255.951 154.835C255.751 155.199 255.657 155.612 255.681 156.026C255.681 156.588 255.78 157.204 255.456 157.662C255.323 157.83 255.159 157.972 254.973 158.079C254.494 158.383 253.84 158.587 253.391 158.241C253.242 158.102 253.131 157.927 253.069 157.733C253.007 157.539 252.996 157.333 253.037 157.133C253.123 156.736 253.236 156.346 253.374 155.964C253.624 155.081 253.299 154.086 253.574 153.253C253.866 152.497 254.264 151.786 254.756 151.142V151.142Z" fill="#464353"/>
<path d="M258.37 171.264C258.327 171.473 258.349 171.689 258.433 171.885C258.518 172.018 258.634 172.129 258.77 172.21C259.732 172.805 260.823 173.158 261.951 173.238C262.097 173.243 262.239 173.282 262.367 173.35C262.486 173.461 262.568 173.605 262.602 173.764C262.635 173.923 262.619 174.088 262.555 174.237C262.424 174.534 262.356 174.854 262.355 175.178C262.438 175.773 263.142 176.044 263.741 176.119C264.575 176.289 265.442 176.121 266.152 175.653C266.601 175.243 266.942 174.73 267.147 174.158C268.783 170.411 269.358 166.247 271.015 162.5C271.143 162.257 271.227 161.994 271.265 161.722C271.282 161.585 271.263 161.446 271.208 161.32C271.154 161.193 271.067 161.083 270.957 161.001C270.649 160.81 270.17 160.918 269.962 160.623C269.857 160.469 269.87 160.265 269.778 160.106C269.587 159.765 269.087 159.807 268.742 159.623C268.475 159.478 268.288 159.207 267.992 159.128C267.845 159.12 267.697 159.146 267.561 159.205C267.425 159.263 267.305 159.352 267.209 159.465C266.239 160.373 265.727 161.659 265.186 162.875C264.351 164.738 263.377 166.534 262.272 168.25C262.401 168.05 261.655 166.531 261.364 166.472C260.856 166.368 260.198 167.263 259.923 167.601C259.069 168.65 258.531 169.921 258.37 171.264V171.264Z" fill="#FF4568"/>
<path d="M294.264 176.594H261.777V209.081H294.264V176.594Z" fill="white"/>
<path d="M294.002 194.488C293.443 194.982 292.928 195.522 292.461 196.104C291.988 196.693 291.738 197.43 291.753 198.185C291.756 198.404 291.826 198.616 291.953 198.793C292.019 198.88 292.11 198.943 292.214 198.976C292.318 199.008 292.429 199.007 292.532 198.972C292.645 198.911 292.742 198.824 292.815 198.718C293.116 198.355 293.435 198.007 293.773 197.677C293.898 197.557 294.056 197.428 294.222 197.473C294.297 197.499 294.365 197.544 294.418 197.602C294.615 197.767 294.76 197.986 294.834 198.231C294.856 198.453 294.828 198.677 294.752 198.887C294.675 199.097 294.553 199.287 294.393 199.443C294.069 199.753 293.815 200.129 293.648 200.546C293.602 200.659 293.602 200.786 293.648 200.9C293.704 200.982 293.78 201.048 293.869 201.091C294.278 201.314 294.731 201.445 295.196 201.475C295.661 201.506 296.127 201.434 296.562 201.266C297.141 201.037 297.641 200.638 298.228 200.434C298.482 200.366 298.729 200.274 298.965 200.159C299.133 200.048 299.277 199.905 299.39 199.737C299.502 199.57 299.58 199.382 299.618 199.185C299.692 198.788 299.707 198.382 299.664 197.981C299.59 196.423 299.25 194.888 298.661 193.443C298.63 193.349 298.573 193.266 298.498 193.202C298.415 193.152 298.32 193.125 298.224 193.123C297.495 193.048 296.296 192.673 295.592 192.944C295.345 193.077 295.132 193.267 294.972 193.497C294.809 193.643 294.002 194.297 294.002 194.488Z" fill="#A1616A"/>
<path d="M293.752 193.842C293.752 193.143 292.886 191.465 294.256 191.344C294.256 190.603 293.202 190.137 293.394 189.354C293.46 189.088 293.673 188.875 293.706 188.609C293.794 187.847 292.42 187.435 292.644 186.702C292.728 186.423 293.032 186.252 293.098 185.969C293.252 185.311 292.074 185.016 292.053 184.341C292.053 184.112 292.178 183.896 292.17 183.671C292.17 183.384 291.92 183.167 291.783 182.922C291.429 182.285 291.599 181.298 290.95 180.973C291.366 181.006 291.529 180.369 291.345 179.978C291.162 179.587 290.804 179.249 290.804 178.816C290.825 178.658 290.825 178.497 290.804 178.338C290.683 177.921 290.001 177.892 289.888 177.476C289.88 177.319 289.88 177.162 289.888 177.005C289.847 176.681 289.513 176.481 289.201 176.385C288.879 176.332 288.569 176.222 288.285 176.06C288.085 175.906 287.869 175.644 287.64 175.79C287.561 175.835 287.519 175.927 287.457 175.998C287.203 176.293 286.716 176.164 286.391 175.944C285.437 175.298 284.967 174.137 284.759 173.004C284.551 171.872 284.563 170.702 284.313 169.578C284.235 169.23 284.134 168.888 284.009 168.554C283.812 168.23 283.65 167.887 283.526 167.529C283.476 166.876 284.834 167.321 285.35 167.388C285.852 167.434 286.348 167.528 286.832 167.667C287.347 167.861 287.852 168.082 288.344 168.329C290.425 169.241 292.89 169.353 294.547 170.881C295.093 171.385 295.551 172.043 296.254 172.267C296.578 172.332 296.898 172.416 297.212 172.517C297.999 172.888 298.119 173.929 298.548 174.682C298.682 174.881 298.801 175.09 298.902 175.307C298.983 175.565 299.021 175.835 299.015 176.106L299.073 178.084C299.169 181.414 299.269 184.716 298.915 188.009C298.798 189.092 298.636 190.212 298.952 191.257C299.035 191.54 299.156 191.811 299.227 192.09C299.294 192.428 299.331 192.773 299.335 193.118L299.381 194.396C299.398 194.499 299.376 194.605 299.319 194.692C299.271 194.73 299.215 194.758 299.155 194.772C299.095 194.787 299.033 194.788 298.973 194.775C297.187 194.617 295.388 193.609 293.702 194.217" fill="#464353"/>
<path d="M288.46 188.489C288.46 186.732 287.165 185.316 285.546 185.316C283.377 185.212 281.17 185.175 278.913 185.175H278.21C275.957 185.175 273.742 185.212 271.577 185.316C269.983 185.316 268.688 186.736 268.688 188.497C268.588 189.892 268.546 191.283 268.55 192.661C268.555 194.039 268.588 195.446 268.684 196.824C268.684 198.585 269.979 200.013 271.573 200.013C273.846 200.118 276.182 200.163 278.555 200.163C280.929 200.163 283.26 200.122 285.542 200.013C287.14 200.013 288.456 198.585 288.456 196.824C288.548 195.429 288.593 194.039 288.589 192.64C288.585 191.241 288.552 189.859 288.46 188.476V188.489ZM276.665 196.512V188.826L282.336 192.665L276.665 196.512Z" fill="#FF4568"/>
<path d="M128.247 41.1522C126.226 41.1341 124.261 41.8168 122.687 43.0841C121.112 44.3514 120.025 46.1251 119.611 48.1034C119.197 50.0816 119.481 52.1423 120.415 53.9349C121.348 55.7274 122.874 57.141 124.733 57.9352C124.696 57.2612 124.746 56.5852 124.883 55.9242C125.054 55.2123 126.011 51.1487 126.011 51.1487C125.819 50.7135 125.723 50.2421 125.728 49.7664C125.728 48.4674 126.482 47.4973 127.419 47.4973C128.218 47.4973 128.601 48.0969 128.601 48.813C128.601 49.6124 128.089 50.8115 127.827 51.9189C127.774 52.1246 127.771 52.3397 127.817 52.5469C127.863 52.7541 127.957 52.9476 128.091 53.1117C128.226 53.2759 128.397 53.4061 128.591 53.4918C128.785 53.5775 128.997 53.6163 129.209 53.6052C130.874 53.6052 131.986 51.4735 131.986 48.9462C131.986 47.0269 130.691 45.5946 128.343 45.5946C127.781 45.5744 127.221 45.6681 126.697 45.8701C126.172 46.072 125.694 46.3781 125.291 46.7699C124.888 47.1617 124.568 47.631 124.352 48.1495C124.135 48.6681 124.025 49.2252 124.029 49.7873C124.002 50.4124 124.208 51.0254 124.608 51.5068C124.679 51.5632 124.73 51.6414 124.753 51.7293C124.775 51.8173 124.768 51.9102 124.733 51.9939C124.691 52.1563 124.596 52.5435 124.554 52.6975C124.546 52.7451 124.527 52.7902 124.499 52.829C124.47 52.8679 124.433 52.8994 124.39 52.9209C124.347 52.9425 124.299 52.9535 124.251 52.953C124.203 52.9525 124.155 52.9406 124.113 52.9182C122.889 52.4186 122.318 51.0779 122.318 49.5874C122.318 47.0893 124.4 44.1166 128.564 44.1166C131.894 44.1166 134.109 46.5356 134.109 49.1336C134.109 52.5685 132.198 55.1373 129.38 55.1373C128.961 55.1493 128.545 55.0556 128.172 54.865C127.799 54.6744 127.48 54.3929 127.244 54.0465C127.244 54.0465 126.732 56.0616 126.623 56.453C126.422 57.1179 126.126 57.7503 125.745 58.3307C126.556 58.5685 127.397 58.689 128.243 58.6888C130.568 58.6893 132.799 57.766 134.444 56.1221C136.088 54.4781 137.013 52.2481 137.013 49.9226C137.014 47.5971 136.091 45.3666 134.447 43.7219C132.803 42.0771 130.573 41.1528 128.247 41.1522Z" fill="#E60023"/>
<path d="M219.939 283.683C219.602 282.255 219.398 281.006 219.398 281.006C219.426 280.062 219.213 279.126 218.778 278.287V277.896V275.023C218.975 274.502 219.217 273.999 219.502 273.52C220.018 272.621 219.502 269.315 219.502 269.315C219.502 269.315 217.587 264.656 218.049 261.7C218.511 258.744 214.119 248.572 214.119 248.572C214.146 247.588 214.286 246.61 214.535 245.658C214.583 245.459 214.601 245.254 214.589 245.05C214.591 245.025 214.591 245 214.589 244.975V245C214.523 243.052 212.982 239.396 212.982 239.396L213.19 232.435C213.19 232.435 214.173 228.325 212.57 222.813C212.008 220.889 211.65 219.353 211.421 218.162C211.396 218.029 211.371 217.9 211.35 217.775C214.652 217.271 217.179 216.851 217.179 216.851C217.179 216.851 215.264 208.836 213.969 207.433C212.674 206.03 211.641 201.625 211.641 201.625C211.641 201.625 210.967 195.963 212.058 194.31C213.149 192.657 213.307 189.801 213.307 189.801C213.307 189.801 215.805 187.998 216.1 187.194C216.541 186.053 216.822 184.857 216.933 183.639C216.933 182.685 216.621 181.836 216.725 181.332C216.829 180.828 216.001 178.93 216.417 178.026C216.524 177.749 216.579 177.454 216.579 177.156C216.581 177.148 216.581 177.139 216.579 177.131V177.131C216.581 176.342 216.507 175.554 216.359 174.779C215.642 174.172 214.805 173.724 213.902 173.463L213.848 173.251L213.706 172.689C213.628 172.634 213.546 172.585 213.461 172.543V172.335V171.502L213.848 169.67C214.614 166.494 210.367 166.019 210.367 166.019C210.11 165.53 209.682 165.153 209.164 164.961C208.331 164.662 209.023 169.749 209.422 170.074C209.722 170.316 210.671 171.914 211.088 172.697L211.163 172.826C211.092 172.889 211.026 172.957 210.967 173.03L211.129 174.134L211.154 174.304C210.872 174.653 210.644 175.042 210.476 175.457C210.476 175.457 211.254 176.311 211.096 177.264C211.036 178.008 211.124 178.757 211.354 179.467C211.308 179.413 210.763 178.822 210.217 178.967C209.672 179.113 208.136 179.567 208.136 179.567C208.136 179.567 206.995 179.767 207.099 180.016C207.203 180.266 206.325 181.37 206.325 181.37L203.264 178.455C203.231 178.368 203.202 178.28 203.173 178.193C203.048 177.785 202.96 177.367 202.911 176.944C203.243 176.864 203.568 176.76 203.885 176.632C204.201 176.52 204.487 176.334 204.718 176.09C204.974 175.691 205.142 175.241 205.209 174.771C205.45 173.88 205.971 173.084 206.345 172.239C206.963 170.819 207.168 169.253 206.937 167.722C206.889 167.247 206.729 166.79 206.47 166.389C205.971 165.702 205.063 165.423 204.389 164.874C203.714 164.324 203.306 163.492 202.536 163.079C201.804 162.761 200.988 162.691 200.213 162.88C198.682 163.129 197.212 163.663 195.878 164.453C195.429 164.72 194.942 165.024 194.425 164.932C194 164.803 193.632 164.533 193.38 164.166C193.379 164.151 193.379 164.136 193.38 164.12L193.343 164.083C193.022 164.803 192.86 165.584 192.868 166.373C192.868 166.494 192.868 166.614 192.868 166.739C192.868 166.781 192.868 166.822 192.868 166.864C192.87 166.9 192.87 166.936 192.868 166.972V166.972C192.866 167.027 192.858 167.082 192.843 167.135C192.78 167.292 192.683 167.434 192.56 167.551C192.464 167.655 192.38 167.769 192.31 167.892C192.31 167.851 192.335 167.809 192.352 167.768C192.156 168.051 192.044 168.385 192.031 168.729C192.015 168.981 192.099 169.23 192.265 169.42C192.416 169.575 192.582 169.714 192.76 169.837C192.701 170.172 192.672 170.512 192.673 170.853C192.678 171.871 192.946 172.871 193.45 173.756C193.955 174.641 194.68 175.38 195.554 175.903L195.658 176.165C196.101 177.217 196.29 178.358 196.212 179.496C196.212 179.579 196.212 179.658 196.174 179.742L196.066 179.867C196.066 179.867 191.011 179.917 189.821 178.838C188.63 177.76 186.819 181.47 186.819 181.47C186.819 181.47 185.008 181.823 184.645 181.47C184.283 181.116 182.147 181.42 182.147 181.42C181.279 180.651 180.151 180.24 178.991 180.27C178.284 179.731 177.503 179.297 176.672 178.98L176.614 178.959C176.249 178.827 175.859 178.779 175.473 178.817C175.473 178.817 172.975 176.761 172.267 175.661C171.56 174.562 168.104 170.47 168.075 170.449V170.253L168.033 169.658C167.931 169.674 167.828 169.684 167.725 169.687C167.725 169.624 167.683 169.558 167.654 169.479C167.455 168.905 167.21 168.348 166.921 167.813C166.921 167.813 166.921 167.064 167.142 166.877C167.363 166.689 167.051 163.933 167.051 163.933C167.051 163.933 164.811 158.699 162.808 162.605C162.808 162.605 159.015 165.132 162.196 168.08C162.196 168.08 163.445 168.692 163.645 169.179C163.766 169.495 164.194 170.382 164.477 170.969L164.607 171.232L164.569 171.261L164.619 171.752V171.944C164.019 172.281 163.616 172.618 163.711 172.876C163.89 173.31 164.011 173.765 164.074 174.229C164.074 174.229 168.474 179.738 169.045 182.094C169.045 182.094 180.844 189.105 184.725 189.609L184.054 193.115C183.954 194.064 183.902 195.017 183.9 195.971C183.95 196.72 183.434 200.134 183.434 200.134C183.434 200.134 182.759 205.131 182.185 205.843C181.61 206.554 181.718 209.552 181.718 209.552C181.584 210.99 181.325 212.414 180.944 213.807C180.374 215.714 180.79 218.067 180.79 218.067C180.79 218.067 178.821 222.576 183.534 219.52C183.534 219.52 185.844 219.378 188.53 219.286C188.53 219.374 188.53 219.461 188.53 219.553C188.53 219.894 188.53 220.265 188.53 220.656C188.497 223.238 188.48 226.797 188.597 229.491C188.805 234.25 190.262 243.647 190.262 243.647V248.377C190.171 248.822 190.127 249.275 190.129 249.73C190.094 251.398 190.536 253.042 191.403 254.468L191.765 257.624C191.765 257.624 192.598 259.705 192.631 260.954C192.628 261.055 192.615 261.156 192.593 261.254C192.562 261.413 192.548 261.575 192.552 261.737C192.506 263.169 193.385 266.6 193.385 266.6C193.385 266.6 193.439 270.056 193.955 270.256C194.396 270.426 193.364 272.25 193.056 272.754C193.047 272.721 193.04 272.688 193.035 272.654C192.997 272.721 192.972 272.758 192.972 272.758C192.865 273.037 192.81 273.333 192.81 273.632C192.78 273.869 192.818 274.109 192.92 274.324C193.022 274.539 193.183 274.721 193.385 274.848C194.367 275.452 194.896 275.951 194.063 276.151C193.756 276.198 193.451 276.262 193.151 276.343C193.151 276.305 193.118 276.264 193.106 276.226C192.997 276.275 192.906 276.358 192.848 276.462C192.789 276.566 192.766 276.686 192.781 276.805C192.79 277.214 192.897 277.615 193.093 277.975C193.458 278.879 193.928 279.737 194.492 280.531L194.908 280.485C194.848 280.633 194.77 280.773 194.675 280.902C194.526 281.119 194.326 281.296 194.092 281.418C193.875 281.547 193.635 281.63 193.385 281.664C193.104 281.671 192.828 281.739 192.575 281.861C192.322 281.984 192.099 282.159 191.919 282.376C191.403 283.042 191.086 283.954 192.098 284.753L195.799 286.027C195.799 286.027 202.165 286.86 201.828 285.427C201.491 283.995 201.287 282.75 201.287 282.75C201.312 281.876 201.134 281.008 200.766 280.215C200.703 280.084 200.627 279.958 200.542 279.84L200.766 279.815C200.766 279.815 201.233 276.659 201.853 276.068C201.999 275.931 202.032 275.822 201.995 275.739C202.061 275.568 201.899 275.468 201.691 275.41L201.645 275.535C201.442 275.492 201.236 275.47 201.029 275.468C201.029 275.468 200.821 273.803 201.491 273.212C201.546 273.143 201.586 273.065 201.609 272.98C201.632 272.895 201.637 272.807 201.624 272.72C201.628 272.494 201.604 272.267 201.553 272.046L201.528 272.088C201.146 270.752 200.649 269.453 200.042 268.203C200.042 268.203 199.992 266.7 200.404 266.096C200.816 265.493 200.354 257.932 200.354 257.932C200.354 257.932 200.508 254.276 200.042 252.573C199.576 250.871 200.612 248.864 200.612 248.864V248.756V248.731C200.612 248.731 200.587 248.506 200.55 248.152V248.189C200.446 247.219 200.25 245.466 200.104 244.659C199.896 243.505 200.154 237.997 200.154 237.997L201.087 235.645L202.752 239.7L204.509 245.112C205.011 245.783 205.321 246.577 205.405 247.411C205.405 247.469 205.405 247.527 205.405 247.581C205.396 247.702 205.396 247.823 205.405 247.944C205.375 248.627 205.563 249.302 205.942 249.871C205.942 249.871 206.408 252.428 207.132 253.077C207.857 253.727 207.857 254.98 207.857 254.98C207.857 254.98 208.735 258.69 209.152 259.339C209.501 259.889 209.518 261.396 209.514 261.837V261.975C209.514 261.975 209.635 263.299 209.63 264.414C209.63 264.548 209.63 264.685 209.63 264.831V264.802C209.63 265.105 209.593 265.406 209.522 265.701V265.755C209.522 265.693 209.522 265.626 209.522 265.568C209.337 266.324 209.247 267.1 209.256 267.878C209.231 269.211 209.435 270.793 210.242 271.713C211.641 273.316 212.52 273.116 212.52 273.116C212.52 273.116 211.845 275.119 211.017 275.523C210.986 275.537 210.957 275.556 210.929 275.577C210.929 275.539 210.929 275.498 210.909 275.46C210.819 275.561 210.751 275.68 210.709 275.809C210.668 275.938 210.653 276.075 210.667 276.209C210.705 277.279 211.061 278.313 211.691 279.178C211.886 279.373 212.126 279.517 212.391 279.594L212.262 279.674C212.169 279.725 212.073 279.77 211.974 279.811C211.842 279.869 211.702 279.905 211.558 279.919C211.277 279.927 211.001 279.994 210.748 280.117C210.496 280.24 210.272 280.415 210.093 280.631C209.576 281.297 209.26 282.209 210.272 283.008L213.973 284.282C213.973 284.282 220.26 285.132 219.939 283.683Z" fill="url(#paint0_linear)"/>
<path d="M195.624 286.048L192.04 284.774C191.053 283.974 191.369 283.063 191.869 282.396C192.039 282.182 192.254 282.008 192.498 281.885C192.743 281.762 193.011 281.693 193.285 281.684C193.528 281.652 193.762 281.568 193.971 281.439C194.199 281.314 194.393 281.137 194.538 280.923C194.803 280.508 194.947 280.028 194.954 279.536C194.954 279.536 198.889 278.387 199.95 279.536C200.143 279.745 200.304 279.981 200.429 280.236C200.783 281.033 200.954 281.899 200.929 282.771C200.929 282.771 201.128 284.02 201.453 285.448C201.778 286.876 195.624 286.048 195.624 286.048Z" fill="#2D293D"/>
<path d="M213.157 284.299L209.576 283.025C208.585 282.225 208.902 281.313 209.401 280.651C209.571 280.436 209.786 280.26 210.032 280.136C210.277 280.012 210.546 279.944 210.821 279.935C210.965 279.923 211.106 279.886 211.237 279.827C211.332 279.788 211.424 279.742 211.512 279.69C212.515 279.14 212.491 277.787 212.491 277.787C212.491 277.787 216.421 276.634 217.487 277.787C217.631 277.943 217.756 278.115 217.861 278.299C218.284 279.143 218.492 280.078 218.465 281.022C218.465 281.022 218.665 282.271 218.99 283.699C219.314 285.127 213.157 284.299 213.157 284.299Z" fill="#2D293D"/>
<path opacity="0.1" d="M199.954 279.536C200.147 279.745 200.308 279.981 200.433 280.236V280.236L194.537 280.918C194.803 280.504 194.947 280.024 194.954 279.532C194.954 279.532 198.88 278.387 199.954 279.536Z" fill="black"/>
<path opacity="0.1" d="M217.865 278.283V279.386C216.949 280.897 212.515 280.568 211.229 279.802C211.324 279.763 211.415 279.717 211.504 279.665C212.507 279.115 212.482 277.762 212.482 277.762C212.482 277.762 216.412 276.609 217.478 277.762C217.627 277.92 217.757 278.095 217.865 278.283V278.283Z" fill="black"/>
<path d="M218.569 273.524C218.292 274.004 218.057 274.507 217.865 275.027V278.986C216.866 280.652 211.653 280.09 210.954 279.186C210.254 278.283 209.501 275.93 210.3 275.531C211.099 275.131 211.753 273.124 211.753 273.124C211.753 273.124 210.92 273.324 209.551 271.721C208.181 270.118 208.601 266.563 208.851 265.709C209.101 264.855 208.851 262.004 208.851 262.004C208.851 262.004 208.901 260.001 208.501 259.347C208.102 258.694 207.252 254.988 207.252 254.988C207.252 254.988 207.252 253.739 206.553 253.085C205.853 252.432 205.4 249.879 205.4 249.879C204.989 249.241 204.813 248.481 204.9 247.727C205.05 246.478 204.046 245.121 204.046 245.121L202.344 239.708L200.741 235.649L199.841 238.001C199.841 238.001 199.587 243.514 199.791 244.663C199.995 245.812 200.291 248.868 200.291 248.868C200.291 248.868 199.288 250.875 199.741 252.577C200.195 254.28 200.041 257.936 200.041 257.936C200.041 257.936 200.491 265.501 200.091 266.105C199.691 266.708 199.741 268.186 199.741 268.186C199.741 268.186 201.794 272.595 201.14 273.182C200.487 273.77 200.691 275.439 200.691 275.439C200.691 275.439 202.094 275.439 201.494 276.039C200.895 276.638 200.441 279.786 200.441 279.786L194.375 280.552C193.827 279.754 193.372 278.896 193.017 277.995C192.218 276.143 193.167 276.33 193.975 276.143C194.783 275.955 194.271 275.443 193.317 274.84C192.364 274.236 192.901 272.887 192.901 272.887C192.901 272.887 194.354 270.43 193.854 270.231C193.355 270.031 193.301 266.575 193.301 266.575C193.301 266.575 192.301 262.466 192.551 261.367C192.801 260.267 191.748 257.619 191.748 257.619L191.398 254.463C190.33 252.668 189.946 250.549 190.315 248.493V243.618C190.315 243.618 188.912 234.2 188.708 229.462C188.583 226.414 188.617 222.255 188.658 219.657C188.683 218.204 188.708 217.238 188.708 217.238L210.358 214.985C210.393 216.066 210.525 217.142 210.754 218.2C210.974 219.386 211.32 220.927 211.861 222.85C213.414 228.358 212.465 232.468 212.465 232.468L212.265 239.429C212.265 239.429 214.168 244.088 213.768 245.674C213.521 246.627 213.382 247.605 213.352 248.589C213.352 248.589 217.611 258.76 217.161 261.716C216.712 264.672 218.569 269.31 218.569 269.31C218.569 269.31 219.068 272.641 218.569 273.524Z" fill="#464353"/>
<path opacity="0.05" d="M206.195 247.427L212.765 246.548C212.765 246.548 209.051 250.354 206.195 247.427Z" fill="black"/>
<path opacity="0.1" d="M211.828 240.112C211.828 240.112 212.057 242.439 210.629 243.318C210.629 243.318 213.181 242.918 211.828 240.112Z" fill="black"/>
<path opacity="0.1" d="M211.425 232.697C211.425 232.697 205.921 237.231 203.931 236.86C201.94 236.49 211.425 232.697 211.425 232.697Z" fill="black"/>
<path opacity="0.1" d="M198.027 249.555C198.027 249.555 193.863 250.508 193.722 252.186C193.58 253.864 198.027 249.555 198.027 249.555Z" fill="black"/>
<path opacity="0.05" d="M198.946 270.442C198.946 270.442 193.038 271.546 194.716 272.299C196.155 272.868 197.638 273.319 199.15 273.648C199.15 273.648 201.053 273.748 198.946 270.442Z" fill="black"/>
<g opacity="0.05">
<path opacity="0.05" d="M193.522 273.474C193.373 273.381 193.247 273.255 193.153 273.107C193.06 272.958 193.001 272.791 192.98 272.616L192.922 272.724C192.922 272.724 192.368 274.073 193.339 274.677C193.447 274.744 193.551 274.815 193.647 274.881C193.822 274.848 194.013 274.823 194.192 274.777C194.983 274.594 194.475 274.09 193.522 273.474Z" fill="black"/>
<path opacity="0.05" d="M201.136 273.09C201.299 272.94 201.29 272.553 201.195 272.058C200.953 272.502 200.836 273.005 200.858 273.511C200.917 273.351 201.012 273.207 201.136 273.09V273.09Z" fill="black"/>
<path opacity="0.05" d="M200.225 248.167C200.002 248.759 199.862 249.378 199.809 250.008C199.923 249.578 200.076 249.16 200.266 248.759C200.266 248.759 200.275 248.517 200.225 248.167Z" fill="black"/>
<path opacity="0.05" d="M213.76 245.536C213.8 245.356 213.818 245.171 213.814 244.987C213.74 245.362 213.69 245.711 213.652 246.015C213.685 245.857 213.719 245.699 213.76 245.536Z" fill="black"/>
<path opacity="0.05" d="M200.083 265.979C200.199 265.621 200.25 265.244 200.233 264.868C200.046 265.312 199.948 265.789 199.946 266.271C199.98 266.168 200.026 266.071 200.083 265.979V265.979Z" fill="black"/>
<path opacity="0.05" d="M201.324 275.421C201.014 276.427 200.785 277.456 200.637 278.498L194.579 279.202C194.029 278.405 193.574 277.547 193.222 276.645C193.157 276.501 193.1 276.354 193.051 276.204C192.689 276.371 192.543 276.745 193.022 277.87C193.373 278.77 193.829 279.627 194.379 280.422L200.433 279.718C200.433 279.718 200.887 276.562 201.486 275.971C201.782 275.65 201.594 275.5 201.324 275.421Z" fill="black"/>
<path opacity="0.05" d="M193.322 266.425C193.322 266.425 193.372 269.885 193.871 270.085C194.125 269.514 194.288 268.973 194.067 268.881C193.567 268.682 193.517 265.226 193.517 265.226C193.517 265.226 192.514 261.117 192.768 260.013C193.022 258.91 191.964 256.266 191.964 256.266L191.615 253.11C190.543 251.32 190.152 249.203 190.511 247.148V242.281C190.511 242.281 189.108 232.863 188.908 228.104C188.779 225.057 188.817 220.897 188.858 218.299C188.858 217.833 188.858 217.417 188.858 217.05H188.688C188.688 217.05 188.663 218.012 188.638 219.469C188.596 222.063 188.559 226.227 188.688 229.274C188.888 234.033 190.291 243.451 190.291 243.451V248.31C189.923 250.384 190.324 252.522 191.419 254.322L191.769 257.478C191.769 257.478 192.822 260.13 192.568 261.225C192.314 262.32 193.322 266.425 193.322 266.425Z" fill="black"/>
<path opacity="0.05" d="M211.154 277.849C210.662 277.136 210.334 276.323 210.196 275.468C209.576 276.026 210.288 278.195 210.954 279.053C211.62 279.91 216.866 280.506 217.87 278.849V277.895C216.512 279.24 211.82 278.703 211.154 277.849Z" fill="black"/>
<path opacity="0.05" d="M218.769 272.187C218.495 272.668 218.261 273.171 218.07 273.69V274.394C218.182 274.136 218.344 273.794 218.569 273.391C218.73 272.994 218.805 272.569 218.79 272.142L218.769 272.187Z" fill="black"/>
<path opacity="0.05" d="M211.462 272.978C211.653 272.593 211.819 272.195 211.957 271.788C211.957 271.788 211.125 271.987 209.751 270.384C208.768 269.219 208.714 267.016 208.851 265.576C208.602 266.429 208.198 269.985 209.551 271.588C210.438 272.641 211.1 272.912 211.462 272.978Z" fill="black"/>
<path opacity="0.05" d="M208.851 261.869C208.938 262.856 208.971 263.847 208.951 264.838C208.985 264.642 209.022 264.484 209.051 264.372C209.305 263.539 209.051 260.666 209.051 260.666C209.051 260.666 209.101 258.659 208.701 258.01C208.302 257.36 207.452 253.651 207.452 253.651C207.452 253.651 207.452 252.402 206.753 251.748C206.053 251.094 205.6 248.542 205.6 248.542C205.188 247.904 205.01 247.144 205.096 246.39C205.25 245.141 204.263 243.783 204.263 243.783L202.56 238.371L200.937 234.336L200.033 236.689C200.033 236.689 200.033 236.984 200.004 237.451L200.737 235.54L202.34 239.595L204.042 245.007C204.042 245.007 205.042 246.361 204.875 247.61C204.8 248.359 204.984 249.111 205.396 249.741C205.396 249.741 205.845 252.294 206.545 252.947C207.244 253.601 207.248 254.85 207.248 254.85C207.248 254.85 208.081 258.555 208.497 259.209C208.914 259.863 208.851 261.869 208.851 261.869Z" fill="black"/>
</g>
<path d="M213.057 169.699L212.682 171.531L212.703 172.364V172.963L210.621 173.18L210.388 172.763C209.971 171.98 209.055 170.386 208.764 170.14C208.377 169.815 207.69 164.728 208.514 165.032C209.02 165.226 209.436 165.601 209.68 166.085C209.68 166.085 213.798 166.518 213.057 169.699Z" fill="#FFCDD3"/>
<path opacity="0.1" d="M212.72 172.942L210.638 173.159L210.405 172.742C210.686 172.422 211.069 172.209 211.49 172.14C211.911 172.07 212.342 172.15 212.711 172.363L212.72 172.942Z" fill="black"/>
<path d="M213.244 173.933L210.492 174.574L210.434 174.158L210.276 173.055C210.426 172.854 210.615 172.686 210.831 172.559C211.046 172.432 211.285 172.349 211.534 172.314C211.782 172.28 212.034 172.296 212.277 172.36C212.519 172.424 212.746 172.536 212.945 172.688L213.082 173.25L213.244 173.933Z" fill="#DCE6F2"/>
<path d="M168.595 169.9L165.656 171.482L165.389 170.924C165.106 170.337 164.69 169.454 164.557 169.138C164.382 168.65 163.153 168.034 163.153 168.034C160.072 165.091 163.74 162.563 163.74 162.563C165.685 158.654 167.85 163.887 167.85 163.887C167.85 163.887 168.15 166.648 167.937 166.831C167.725 167.014 167.725 167.772 167.725 167.772C168.006 168.307 168.244 168.864 168.437 169.437C168.549 169.729 168.595 169.9 168.595 169.9Z" fill="#FFCDD3"/>
<path opacity="0.1" d="M168.595 169.899L165.656 171.481L165.389 170.923C165.806 170.578 167.275 169.383 167.758 169.437C167.991 169.461 168.225 169.461 168.458 169.437C168.549 169.728 168.595 169.899 168.595 169.899Z" fill="black"/>
<path d="M168.895 170.79L165.589 172.418L165.522 171.706L165.476 171.219C165.476 171.219 167.392 169.575 167.975 169.637C168.262 169.678 168.553 169.678 168.841 169.637L168.878 170.232L168.895 170.79Z" fill="#DCE6F2"/>
<path d="M205.042 181.848C205.042 181.848 190.624 183.476 193.318 182.601C195.196 181.989 195.941 180.799 196.099 179.475C196.171 178.338 195.988 177.2 195.562 176.144C195.22 175.234 194.788 174.361 194.271 173.538C194.271 173.538 205.292 167.476 203.089 172.988C202.747 173.82 202.536 174.701 202.465 175.599C202.397 176.488 202.492 177.382 202.744 178.238C203.162 179.631 203.957 180.88 205.042 181.848V181.848Z" fill="#FFCDD3"/>
<path opacity="0.1" d="M203.09 172.984C202.747 173.817 202.536 174.697 202.465 175.595C201.424 176.465 200.288 176.427 198.826 176.427C197.702 176.427 196.457 176.702 195.562 176.161C195.22 175.251 194.788 174.378 194.271 173.555C194.271 173.555 205.292 167.472 203.09 172.984Z" fill="black"/>
<path d="M198.631 176.794C201.923 176.794 204.593 174.125 204.593 170.832C204.593 167.539 201.923 164.87 198.631 164.87C195.338 164.87 192.669 167.539 192.669 170.832C192.669 174.125 195.338 176.794 198.631 176.794Z" fill="#FFCDD3"/>
<path opacity="0.1" d="M205.042 181.848C205.042 181.848 190.624 183.476 193.318 182.602C195.196 181.99 195.941 180.799 196.099 179.475C196.815 178.697 198.256 178.135 199.184 177.839C200.029 177.555 200.941 177.54 201.795 177.797C202.13 177.888 202.45 178.028 202.744 178.214C203.158 179.615 203.954 180.874 205.042 181.848Z" fill="black"/>
<path opacity="0.1" d="M213.245 173.933L210.492 174.575L210.434 174.158C210.728 173.753 211.14 173.448 211.614 173.285C212.088 173.123 212.601 173.111 213.082 173.251L213.245 173.933Z" fill="black"/>
<path opacity="0.1" d="M168.895 170.79L165.589 172.418L165.523 171.706C166.595 171.132 167.708 170.64 168.854 170.232L168.895 170.79Z" fill="black"/>
<path opacity="0.1" d="M210.746 218.179C205.163 219.057 197.214 220.206 195.953 219.823C194.908 219.503 191.569 219.536 188.659 219.636C188.684 218.183 188.708 217.217 188.708 217.217L210.359 214.964C210.39 216.045 210.52 217.121 210.746 218.179V218.179Z" fill="black"/>
<path d="M216.313 216.85C216.313 216.85 197.927 220.006 195.954 219.403C193.98 218.799 183.85 219.457 183.85 219.457C179.291 222.509 181.198 218.004 181.198 218.004C181.198 218.004 180.782 215.647 181.348 213.744C181.715 212.348 181.966 210.923 182.098 209.485C182.098 209.485 181.998 206.479 182.547 205.78C183.097 205.08 183.75 200.067 183.75 200.067C183.75 200.067 184.254 196.662 184.204 195.904C184.154 195.146 184.354 193.052 184.354 193.052L185.004 189.542C181.257 189.042 169.824 182.027 169.824 182.027C169.274 179.675 165.015 174.162 165.015 174.162C164.953 173.699 164.836 173.244 164.665 172.809C164.365 172.01 168.874 170.407 168.874 170.407C168.874 170.407 172.23 174.516 172.93 175.615C173.629 176.714 176.036 178.771 176.036 178.771C176.41 178.734 176.787 178.784 177.139 178.917H177.197C178.002 179.234 178.757 179.668 179.437 180.203C180.567 180.175 181.663 180.589 182.493 181.357C182.493 181.357 184.55 181.057 184.9 181.407C185.249 181.756 186.981 181.407 186.981 181.407C186.981 181.407 188.738 177.701 189.896 178.775C191.053 179.85 195.937 179.804 195.937 179.804C196.591 178.938 198.173 178.317 199.168 177.997C200.013 177.713 200.925 177.698 201.778 177.955C202.149 178.059 202.499 178.228 202.811 178.455L205.775 181.369C205.775 181.369 206.608 180.266 206.529 180.016C206.45 179.766 207.532 179.566 207.532 179.566C207.532 179.566 208.985 179.117 209.535 178.963C210.084 178.809 210.592 179.412 210.634 179.462C210.412 178.751 210.327 178.003 210.384 177.26C210.43 176.603 210.214 175.956 209.785 175.457C211.554 171.177 215.514 174.799 215.514 174.799C215.514 174.799 215.963 177.152 215.564 178.055C215.164 178.959 215.98 180.861 215.863 181.361C215.747 181.86 216.063 182.714 216.063 183.663C215.957 184.88 215.688 186.077 215.264 187.223C214.96 188.022 212.557 189.825 212.557 189.825C212.557 189.825 212.408 192.681 211.354 194.334C210.301 195.987 210.938 201.65 210.938 201.65C210.938 201.65 211.937 206.059 213.19 207.478C214.444 208.898 216.313 216.85 216.313 216.85Z" fill="#3F3D56"/>
<path opacity="0.1" d="M189.513 183.905C189.513 183.905 188.963 182.24 188.459 182.098C187.961 181.915 187.476 181.697 187.006 181.449L187.331 180.833C187.331 180.833 189.213 181.349 189.513 181.898C189.813 182.448 189.513 183.905 189.513 183.905Z" fill="black"/>
<path opacity="0.1" d="M179.458 180.245C179.358 180.749 174.903 181.199 174.903 181.199L177.155 178.938L177.214 178.959C178.02 179.276 178.776 179.709 179.458 180.245V180.245Z" fill="black"/>
<path d="M166.543 173.771C166.763 173.771 166.942 173.592 166.942 173.371C166.942 173.151 166.763 172.972 166.543 172.972C166.322 172.972 166.143 173.151 166.143 173.371C166.143 173.592 166.322 173.771 166.543 173.771Z" fill="#575988"/>
<path d="M167.054 174.575C167.275 174.575 167.454 174.396 167.454 174.175C167.454 173.954 167.275 173.775 167.054 173.775C166.834 173.775 166.655 173.954 166.655 174.175C166.655 174.396 166.834 174.575 167.054 174.575Z" fill="#575988"/>
<path d="M167.559 175.311C167.779 175.311 167.958 175.132 167.958 174.911C167.958 174.691 167.779 174.512 167.559 174.512C167.338 174.512 167.159 174.691 167.159 174.911C167.159 175.132 167.338 175.311 167.559 175.311Z" fill="#575988"/>
<path d="M168.082 176.115C168.303 176.115 168.482 175.936 168.482 175.716C168.482 175.495 168.303 175.316 168.082 175.316C167.862 175.316 167.683 175.495 167.683 175.716C167.683 175.936 167.862 176.115 168.082 176.115Z" fill="#575988"/>
<path d="M215.305 175.994C215.484 175.994 215.63 175.849 215.63 175.67C215.63 175.49 215.484 175.345 215.305 175.345C215.126 175.345 214.98 175.49 214.98 175.67C214.98 175.849 215.126 175.994 215.305 175.994Z" fill="#575988"/>
<path d="M215.355 176.736C215.534 176.736 215.68 176.591 215.68 176.411C215.68 176.232 215.534 176.086 215.355 176.086C215.176 176.086 215.03 176.232 215.03 176.411C215.03 176.591 215.176 176.736 215.355 176.736Z" fill="#575988"/>
<path d="M215.397 177.473C215.576 177.473 215.721 177.327 215.721 177.148C215.721 176.969 215.576 176.823 215.397 176.823C215.217 176.823 215.072 176.969 215.072 177.148C215.072 177.327 215.217 177.473 215.397 177.473Z" fill="#575988"/>
<path opacity="0.1" d="M189.537 197.478C189.492 197.419 200.779 211.679 209.551 203.44C209.551 203.44 195.695 205.318 189.537 197.478Z" fill="black"/>
<path opacity="0.1" d="M183.051 204.894C183.051 204.894 189.808 205.077 190.516 207.021V209.045C190.325 209.15 190.11 209.205 189.892 209.205C189.673 209.205 189.458 209.15 189.267 209.045C188.584 208.678 184.5 206.601 183.059 207.6L183.051 204.894Z" fill="black"/>
<path d="M183.175 204.894C183.175 204.894 189.637 205.068 190.316 206.921V208.853C190.131 208.954 189.924 209.007 189.714 209.007C189.504 209.007 189.297 208.954 189.113 208.853C188.459 208.499 184.533 206.521 183.175 207.475V204.894Z" fill="#3F3D56"/>
<path opacity="0.1" d="M186.74 190.205C187.43 191.801 188.309 193.31 189.358 194.697C190.501 196.233 191.888 197.572 193.464 198.661C193.464 198.661 186.852 191.15 186.74 190.205Z" fill="black"/>
<path opacity="0.1" d="M184.529 182.369C184.529 182.369 185.657 187.236 188.559 188.889L184.529 182.369Z" fill="black"/>
<path opacity="0.1" d="M182.788 182.86C182.759 182.768 181.785 186.707 186.536 188.889C186.536 188.889 184.529 188.206 182.788 182.86Z" fill="black"/>
<path opacity="0.1" d="M212.307 179.595C212.232 179.595 214.647 181.136 215.305 181.848C215.305 181.848 213.735 179.495 212.307 179.595Z" fill="black"/>
<path d="M197.02 176.232C197.066 176.55 197.231 176.839 197.482 177.04C197.657 177.123 197.85 177.165 198.044 177.165C199.863 177.277 201.754 177.356 203.456 176.657C203.775 176.547 204.061 176.36 204.289 176.111C204.529 175.711 204.679 175.264 204.73 174.8C204.968 173.909 205.471 173.134 205.834 172.268C206.442 170.835 206.645 169.262 206.421 167.722C206.376 167.248 206.22 166.792 205.967 166.389C205.484 165.702 204.605 165.424 203.968 164.874C203.331 164.324 202.919 163.488 202.178 163.075C201.472 162.761 200.681 162.69 199.93 162.875C198.443 163.13 197.019 163.666 195.733 164.453C195.317 164.72 194.825 165.024 194.33 164.932C193.905 164.796 193.54 164.517 193.298 164.141C192.943 164.958 192.79 165.847 192.852 166.735C192.873 166.865 192.873 166.997 192.852 167.126C192.788 167.283 192.693 167.424 192.573 167.543C192.123 168.063 191.844 168.888 192.286 169.412C192.481 169.641 192.777 169.766 192.964 169.999C193.302 170.416 193.185 171.019 193.177 171.556C193.161 171.743 193.208 171.929 193.31 172.085C193.408 172.175 193.527 172.238 193.656 172.269C193.785 172.299 193.919 172.296 194.047 172.26C194.3 172.184 194.566 172.158 194.83 172.185C195.11 172.279 195.35 172.463 195.512 172.71C196.337 173.776 196.666 174.945 197.02 176.232Z" fill="#2D293D"/>
<g opacity="0.1">
<path opacity="0.1" d="M204.439 175.653C204.212 175.902 203.925 176.088 203.606 176.195C201.941 176.898 200.034 176.815 198.219 176.703C198.024 176.706 197.831 176.663 197.656 176.578C197.404 176.38 197.237 176.092 197.19 175.774C196.836 174.488 196.512 173.313 195.671 172.248C195.509 172 195.268 171.815 194.988 171.723C194.724 171.696 194.458 171.722 194.205 171.798C194.077 171.834 193.943 171.837 193.814 171.807C193.685 171.776 193.566 171.713 193.468 171.623C193.365 171.467 193.32 171.28 193.339 171.094C193.339 170.557 193.46 169.953 193.122 169.537C192.935 169.304 192.639 169.179 192.444 168.95C192.319 168.779 192.242 168.577 192.222 168.366C192.202 168.155 192.24 167.942 192.331 167.751C192.011 168.259 191.873 168.908 192.244 169.35C192.44 169.579 192.735 169.704 192.923 169.937C193.26 170.353 193.143 170.957 193.135 171.494C193.119 171.68 193.166 171.866 193.268 172.023C193.366 172.113 193.485 172.176 193.614 172.207C193.743 172.238 193.878 172.234 194.005 172.198C194.259 172.121 194.525 172.096 194.788 172.123C195.068 172.216 195.308 172.401 195.471 172.647C196.303 173.717 196.636 174.887 196.99 176.174C197.037 176.492 197.202 176.78 197.452 176.981C197.628 177.064 197.82 177.107 198.015 177.106C199.834 177.219 201.724 177.298 203.427 176.598C203.745 176.488 204.031 176.301 204.26 176.053C204.373 175.908 204.461 175.745 204.518 175.57C204.493 175.599 204.476 175.632 204.439 175.653Z" fill="black"/>
</g>
<path opacity="0.1" d="M195.953 179.846C195.953 179.846 203.401 180.833 204.072 179.713Z" fill="black"/>
<path opacity="0.1" d="M210.434 176.764C210.434 176.764 214.569 176.764 215.48 178.321Z" fill="black"/>
<defs>
<linearGradient id="paint0_linear" x1="190.474" y1="286.289" x2="190.474" y2="161.11" gradientUnits="userSpaceOnUse">
<stop stop-color="#808080" stop-opacity="0.25"/>
<stop offset="0.54" stop-color="#808080" stop-opacity="0.12"/>
<stop offset="1" stop-color="#808080" stop-opacity="0.1"/>
</linearGradient>
</defs>
</svg>
