<svg width="330" height="248" viewBox="0 0 330 248" fill="none" xmlns="http://www.w3.org/2000/svg">
<g clip-path="url(#clip0)">
<path d="M251.326 238.964C251.282 238.892 250.23 237.145 249.865 233.516C249.531 230.186 249.746 224.575 252.67 216.747C258.211 201.918 251.394 189.954 251.324 189.835L251.66 189.64C252.973 192.14 253.921 194.813 254.476 197.579C255.849 204.019 255.349 210.715 253.035 216.882C247.504 231.686 251.616 238.694 251.658 238.763L251.326 238.964Z" fill="#E6E6E6"/>
<path d="M249.161 188.964C250.556 188.964 251.687 187.838 251.687 186.449C251.687 185.061 250.556 183.935 249.161 183.935C247.765 183.935 246.634 185.061 246.634 186.449C246.634 187.838 247.765 188.964 249.161 188.964Z" fill="#3F3D56"/>
<path d="M257.128 198.247C258.524 198.247 259.655 197.121 259.655 195.733C259.655 194.344 258.524 193.218 257.128 193.218C255.733 193.218 254.602 194.344 254.602 195.733C254.602 197.121 255.733 198.247 257.128 198.247Z" fill="#3F3D56"/>
<path d="M251.687 204.436C253.082 204.436 254.213 203.311 254.213 201.922C254.213 200.534 253.082 199.408 251.687 199.408C250.291 199.408 249.16 200.534 249.16 201.922C249.16 203.311 250.291 204.436 251.687 204.436Z" fill="#E6E6E6"/>
<path d="M258.295 209.659C259.69 209.659 260.821 208.533 260.821 207.144C260.821 205.756 259.69 204.63 258.295 204.63C256.899 204.63 255.768 205.756 255.768 207.144C255.768 208.533 256.899 209.659 258.295 209.659Z" fill="#E6E6E6"/>
<path d="M249.744 217.782C251.139 217.782 252.27 216.656 252.27 215.268C252.27 213.879 251.139 212.753 249.744 212.753C248.348 212.753 247.217 213.879 247.217 215.268C247.217 216.656 248.348 217.782 249.744 217.782Z" fill="#3F3D56"/>
<path d="M252.853 239.057C252.853 239.057 250.326 232.868 257.906 228.226L252.853 239.057Z" fill="#E6E6E6"/>
<path d="M249.746 238.945C249.746 238.945 248.596 232.363 239.696 232.42L249.746 238.945Z" fill="#E6E6E6"/>
<path d="M267.204 247.877C301.587 247.877 329.46 245.084 329.46 241.638C329.46 238.192 301.587 235.398 267.204 235.398C232.822 235.398 204.949 238.192 204.949 241.638C204.949 245.084 232.822 247.877 267.204 247.877Z" fill="#FF4568"/>
<path d="M261.876 0H0.569336V166.541H261.876V0Z" fill="#032B4D"/>
<path d="M8.70708 7.54824C9.84342 7.54824 10.7646 6.63153 10.7646 5.50067C10.7646 4.36985 9.84342 3.45312 8.70708 3.45312C7.57072 3.45312 6.64954 4.36985 6.64954 5.50067C6.64954 6.63153 7.57072 7.54824 8.70708 7.54824Z" fill="#FDCA05"/>
<path d="M16.5166 7.54824C17.6529 7.54824 18.5741 6.63153 18.5741 5.50067C18.5741 4.36985 17.6529 3.45312 16.5166 3.45312C15.3803 3.45312 14.459 4.36985 14.459 5.50067C14.459 6.63153 15.3803 7.54824 16.5166 7.54824Z" fill="#FDCA05"/>
<path d="M24.3276 7.54824C25.464 7.54824 26.3851 6.63153 26.3851 5.50067C26.3851 4.36985 25.464 3.45312 24.3276 3.45312C23.1913 3.45312 22.2701 4.36985 22.2701 5.50067C22.2701 6.63153 23.1913 7.54824 24.3276 7.54824Z" fill="#FDCA05"/>
<path d="M202.876 68.3066H158.122V70.8635H202.876V68.3066Z" fill="#E6E6E6"/>
<path d="M227.232 77.6323H158.122V80.1888H227.232V77.6323Z" fill="#6C63FF"/>
<path d="M214.446 86.4185H158.122V88.9753H214.446V86.4185Z" fill="#E6E6E6"/>
<path d="M191.003 95.1719H158.122V97.7284H191.003V95.1719Z" fill="#E6E6E6"/>
<path d="M207.748 103.925H158.122V106.481H207.748V103.925Z" fill="#E6E6E6"/>
<path d="M143.204 67.3975H137.724V72.8512H143.204V67.3975Z" fill="#E6E6E6"/>
<path d="M143.204 76.1841H137.724V81.6375H143.204V76.1841Z" fill="#6C63FF"/>
<path d="M143.204 84.9702H137.724V90.424H143.204V84.9702Z" fill="#E6E6E6"/>
<path d="M143.204 93.7568H137.724V99.2102H143.204V93.7568Z" fill="#E6E6E6"/>
<path d="M143.204 102.542H137.724V107.996H143.204V102.542Z" fill="#E6E6E6"/>
<path d="M209.433 102.411H197.064C196.22 97.5557 196.22 92.5916 197.064 87.7358H209.433C208.039 92.5295 208.039 97.6178 209.433 102.411Z" fill="#FDCA05"/>
<path d="M68.9274 114.466C87.2794 114.466 102.156 99.6609 102.156 81.398C102.156 63.135 87.2794 48.3301 68.9274 48.3301C50.5755 48.3301 35.6984 63.135 35.6984 81.398C35.6984 99.6609 50.5755 114.466 68.9274 114.466Z" fill="#FF4568"/>
<path d="M70.7856 50.196H67.0716V46.5H70.7856V50.196ZM67.8144 49.4568H70.0428V47.2392H67.8144V49.4568Z" fill="white"/>
<path d="M89.8138 47.978H70.1297V48.7172H89.8138V47.978Z" fill="white"/>
<path d="M89.8142 49.118C90.2413 49.118 90.5875 48.7735 90.5875 48.3485C90.5875 47.9231 90.2413 47.5786 89.8142 47.5786C89.3867 47.5786 89.0406 47.9231 89.0406 48.3485C89.0406 48.7735 89.3867 49.118 89.8142 49.118Z" fill="white"/>
<path d="M67.5299 47.978H48.2172V48.7172H67.5299V47.978Z" fill="white"/>
<path d="M48.2176 49.118C48.6447 49.118 48.9908 48.7735 48.9908 48.3485C48.9908 47.9231 48.6447 47.5786 48.2176 47.5786C47.7901 47.5786 47.444 47.9231 47.444 48.3485C47.444 48.7735 47.7901 49.118 48.2176 49.118Z" fill="white"/>
<path d="M103.927 83.1589H100.213V79.4629H103.927V83.1589ZM100.956 82.4197H103.184V80.2021H100.956V82.4197Z" fill="white"/>
<path d="M102.44 82.876H101.699V102.095H102.44V82.876Z" fill="white"/>
<path d="M102.07 102.865C102.497 102.865 102.844 102.521 102.844 102.096C102.844 101.67 102.497 101.326 102.07 101.326C101.643 101.326 101.297 101.67 101.297 102.096C101.297 102.521 101.643 102.865 102.07 102.865Z" fill="white"/>
<path d="M102.44 60.7002H101.699V79.9193H102.44V60.7002Z" fill="white"/>
<path d="M102.07 61.47C102.497 61.47 102.844 61.1256 102.844 60.7005C102.844 60.2751 102.497 59.9307 102.07 59.9307C101.643 59.9307 101.297 60.2751 101.297 60.7005C101.297 61.1256 101.643 61.47 102.07 61.47Z" fill="white"/>
<path d="M37.4467 83.1589H33.7327V79.4629H37.4467V83.1589ZM34.4755 82.4197H36.7039V80.2021H34.4755V82.4197Z" fill="white"/>
<path d="M35.9601 82.876H35.2183V102.095H35.9601V82.876Z" fill="white"/>
<path d="M35.5899 102.865C36.0171 102.865 36.3634 102.521 36.3634 102.096C36.3634 101.67 36.0171 101.326 35.5899 101.326C35.1627 101.326 34.8163 101.67 34.8163 102.096C34.8163 102.521 35.1627 102.865 35.5899 102.865Z" fill="white"/>
<path d="M35.9601 59.9609H35.2183V79.9192H35.9601V59.9609Z" fill="white"/>
<path d="M35.5899 61.47C36.0171 61.47 36.3634 61.1256 36.3634 60.7005C36.3634 60.2751 36.0171 59.9307 35.5899 59.9307C35.1627 59.9307 34.8163 60.2751 34.8163 60.7005C34.8163 61.1256 35.1627 61.47 35.5899 61.47Z" fill="white"/>
<path d="M70.7856 116.354H67.0716V112.658H70.7856V116.354ZM67.8144 115.614H70.0428V113.397H67.8144V115.614Z" fill="white"/>
<path d="M90.1852 114.136H70.5011V114.875H90.1852V114.136Z" fill="white"/>
<path d="M89.8142 115.276C90.2413 115.276 90.5875 114.931 90.5875 114.506C90.5875 114.081 90.2413 113.736 89.8142 113.736C89.3867 113.736 89.0406 114.081 89.0406 114.506C89.0406 114.931 89.3867 115.276 89.8142 115.276Z" fill="white"/>
<path d="M67.5299 114.136H48.2172V114.875H67.5299V114.136Z" fill="white"/>
<path d="M48.2176 115.276C48.6447 115.276 48.9908 114.931 48.9908 114.506C48.9908 114.081 48.6447 113.736 48.2176 113.736C47.7901 113.736 47.444 114.081 47.444 114.506C47.444 114.931 47.7901 115.276 48.2176 115.276Z" fill="white"/>
<path d="M87.3879 131.451H72.9891C72.0064 125.798 72.0064 120.019 72.9891 114.367H87.3879C85.7656 119.947 85.7656 125.87 87.3879 131.451Z" fill="#E6E6E6"/>
<path d="M277.963 127.924L274.592 140.386C274.592 140.386 272.906 150.451 275.796 150.691C278.686 150.93 277.963 140.625 277.963 140.625L283.502 131.998L277.963 127.924Z" fill="#FBBEBE"/>
<path d="M303.007 134.44V130.536L280.133 129.002L276.517 152.009C276.517 152.009 276.035 174.946 277.721 186.658C279.407 198.371 282.778 225.7 282.778 225.7H298.19L294.338 168.846L311.676 225.7L329.737 223.504L308.786 156.401C308.786 156.401 309.027 143.957 303.007 134.44Z" fill="#032B4D"/>
<path d="M284.705 223.064L283.742 230.493L282.297 235.766C282.297 235.766 275.554 237.204 279.648 239.6C283.742 241.997 287.595 239.6 287.595 239.6L290.726 235.286V242.716H295.542V232.171L291.93 224.263L284.705 223.064Z" fill="#2F2E41"/>
<path d="M314.566 223.064L313.603 230.493L312.158 235.766C312.158 235.766 305.416 237.204 309.51 239.6C313.603 241.997 317.456 239.6 317.456 239.6L320.587 235.286V242.716H325.404V232.171L321.791 224.263L314.566 223.064Z" fill="#2F2E41"/>
<path d="M293.495 88.9809C298.017 88.9809 301.683 85.3326 301.683 80.8327C301.683 76.3325 298.017 72.6846 293.495 72.6846C288.973 72.6846 285.307 76.3325 285.307 80.8327C285.307 85.3326 288.973 88.9809 293.495 88.9809Z" fill="#FBBEBE"/>
<path d="M298.914 84.3076L305.657 92.4554L297.469 95.5711L293.616 87.9023L298.914 84.3076Z" fill="#FBBEBE"/>
<path d="M294.819 92.9351L295.984 92.6165C295.984 92.6165 302.044 88.861 303.729 89.1009C305.415 89.3404 310.713 94.6127 309.75 101.802C308.787 108.991 310.713 135.832 306.86 134.874C303.007 133.915 301.803 133.196 301.803 133.196L297.227 131.039L292.893 132.237C292.893 132.237 290.244 130.56 288.076 131.039C285.909 131.518 278.925 129.122 278.925 129.122L294.819 92.9351Z" fill="#FDCA05"/>
<path d="M296.53 93.7032C296.53 93.7032 291.086 91.1375 288.678 94.972C286.27 98.8063 279.527 119.177 279.527 119.177L276.397 128.523L284.103 133.076L299.274 105.277C299.274 105.277 301.491 96.9882 296.53 93.7032Z" fill="#FDCA05"/>
<path d="M292.64 82.1036C292.125 81.3152 292.385 80.2434 292.024 79.3748C291.458 78.0107 289.696 77.691 288.218 77.5664C287.239 77.4415 286.248 77.4441 285.269 77.5745C284.837 77.6459 284.427 77.8166 284.072 78.0728C283.717 78.3285 283.427 78.6634 283.224 79.05C283.005 79.4865 283.06 78.119 283.201 76.3637C283.343 74.5723 284.052 72.8721 285.227 71.508C286.402 70.1438 287.983 69.1861 289.74 68.7729C289.76 68.7678 289.781 68.763 289.802 68.7585C291.601 68.3453 293.457 68.0411 295.291 68.2559C297.125 68.4702 298.953 69.2582 300.098 70.7004C300.621 71.3594 300.991 72.1366 301.575 72.7432C302.602 73.8087 304.122 74.1964 305.52 74.6909C307.122 75.205 308.596 76.0514 309.845 77.1743C311.098 78.3137 311.849 79.8989 311.936 81.5861C311.966 83.5328 310.721 85.5419 308.716 85.9256C308.367 85.9862 308.038 86.1278 307.754 86.3384C305.84 87.8161 308.024 89.3625 308.009 91.0257C307.996 92.4135 306.444 93.3179 305.051 93.3826C303.748 93.4059 302.478 92.9775 301.458 92.1714C300.438 91.365 299.732 90.2307 299.46 88.9629C299.25 87.8242 299.412 86.6544 299.549 85.5042C299.705 84.1881 296.857 81.0887 298.739 83.3606C299.106 83.7923 299.354 84.3119 299.458 84.8678C299.771 86.6829 298.111 87.2931 297.065 88.2988C296.49 88.8676 296.087 89.5853 295.902 90.3704C295.716 91.1558 295.756 91.9766 296.015 92.741C295.152 91.963 294.589 90.9092 294.423 89.7624C294.257 88.6155 294.499 87.4469 295.107 86.4582C295.444 85.9437 295.878 85.4957 296.198 84.9705C296.697 84.1508 296.834 82.3675 295.438 82.4163C294.441 82.4514 293.406 83.2771 292.64 82.1036Z" fill="#2F2E41"/>
<path opacity="0.2" d="M296.385 113.425L285.307 130.87L295.792 111.659L296.385 113.425Z" fill="black"/>
<path d="M224.058 223.196H205.855V241.31H224.058V223.196Z" fill="#6C63FF"/>
<path d="M227.142 233.544H218.058V242.584H227.142V233.544Z" fill="#E6E6E6"/>
<path d="M254.156 157.745H8.29041V11.7534H254.156V157.745ZM9.0332 157.005H253.413V12.4926H9.0332V157.005Z" fill="#E6E6E6"/>
</g>
<defs>
<clipPath id="clip0">
<rect width="329.431" height="248" fill="white" transform="translate(0.569336)"/>
</clipPath>
</defs>
</svg>
