<svg width="356" height="244" viewBox="0 0 356 244" fill="none" xmlns="http://www.w3.org/2000/svg">
<g clip-path="url(#clip0)">
<path opacity="0.4" d="M230.527 0.104004H45.3323V117.346H230.527V0.104004Z" fill="#FDCA05"/>
<path opacity="0.7" d="M225.231 14.8086H50.6277V110.409H225.231V14.8086Z" fill="#FF4568"/>
<path d="M230.448 0H45.2529V7.77719H230.448V0Z" fill="#FF4568"/>
<path d="M51.1005 5.41755C51.9058 5.41755 52.5588 4.77219 52.5588 3.97612C52.5588 3.18002 51.9058 2.53467 51.1005 2.53467C50.2951 2.53467 49.6422 3.18002 49.6422 3.97612C49.6422 4.77219 50.2951 5.41755 51.1005 5.41755Z" fill="white"/>
<path d="M56.6348 5.41755C57.4402 5.41755 58.0932 4.77219 58.0932 3.97612C58.0932 3.18002 57.4402 2.53467 56.6348 2.53467C55.8295 2.53467 55.1768 3.18002 55.1768 3.97612C55.1768 4.77219 55.8295 5.41755 56.6348 5.41755Z" fill="white"/>
<path d="M62.1707 5.41755C62.9761 5.41755 63.6288 4.77219 63.6288 3.97612C63.6288 3.18002 62.9761 2.53467 62.1707 2.53467C61.3654 2.53467 60.7124 3.18002 60.7124 3.97612C60.7124 4.77219 61.3654 5.41755 62.1707 5.41755Z" fill="white"/>
<path d="M119.01 23.2358C119.015 23.2304 119.021 23.226 119.027 23.2231H175.781C175.788 23.226 175.794 23.2304 175.799 23.2358C175.807 23.2449 175.811 23.2565 175.811 23.2685C175.811 23.2806 175.807 23.2922 175.799 23.3013C175.794 23.3067 175.788 23.311 175.781 23.3139H119.027C119.021 23.311 119.015 23.3067 119.01 23.3013C119.002 23.2922 118.997 23.2806 118.997 23.2685C118.997 23.2565 119.002 23.2449 119.01 23.2358Z" fill="#032B4D" stroke="#032B4D" stroke-width="3"/>
<path d="M100.324 28.6748C100.329 28.6693 100.335 28.665 100.342 28.6621H136.393C136.4 28.665 136.405 28.6693 136.41 28.6748C136.418 28.6838 136.423 28.6955 136.423 28.7075C136.423 28.7195 136.418 28.7312 136.41 28.7403C136.405 28.7457 136.4 28.75 136.393 28.7529H100.342C100.335 28.75 100.329 28.7457 100.324 28.7403C100.316 28.7312 100.312 28.7196 100.312 28.7075C100.312 28.6954 100.316 28.6838 100.324 28.6748Z" fill="#032B4D" stroke="#032B4D" stroke-width="3"/>
<path d="M175.799 28.8393C175.794 28.8448 175.788 28.8491 175.782 28.852H139.73C139.724 28.8491 139.718 28.8448 139.713 28.8393C139.705 28.8303 139.701 28.8187 139.701 28.8066C139.701 28.7946 139.705 28.7829 139.713 28.7739C139.718 28.7684 139.724 28.7641 139.73 28.7612H175.782C175.789 28.7641 175.794 28.7684 175.799 28.7739C175.807 28.7829 175.812 28.7946 175.812 28.8066C175.812 28.8187 175.807 28.8303 175.799 28.8393Z" fill="#032B4D" stroke="#032B4D" stroke-width="3"/>
<path d="M100.412 34.1144C100.417 34.1087 100.423 34.1046 100.429 34.1016H136.48C136.487 34.1046 136.493 34.1087 136.498 34.1144C136.506 34.1234 136.51 34.1351 136.51 34.1471C136.51 34.159 136.506 34.1707 136.498 34.1797C136.493 34.1851 136.487 34.1896 136.48 34.1923H100.429C100.423 34.1896 100.417 34.1851 100.412 34.1797C100.404 34.1707 100.399 34.159 100.399 34.1471C100.399 34.1351 100.404 34.1234 100.412 34.1144Z" fill="#032B4D" stroke="#032B4D" stroke-width="3"/>
<path d="M100.499 39.5531C100.504 39.5477 100.51 39.5432 100.517 39.5405H136.568C136.575 39.5432 136.581 39.5477 136.585 39.5531C136.594 39.5621 136.598 39.5738 136.598 39.5857C136.598 39.598 136.594 39.6094 136.585 39.6187C136.581 39.6241 136.575 39.6282 136.568 39.6312H100.517C100.51 39.6282 100.504 39.6241 100.499 39.6187C100.491 39.6094 100.487 39.598 100.487 39.5857C100.487 39.5738 100.491 39.5621 100.499 39.5531Z" fill="#032B4D" stroke="#032B4D" stroke-width="3"/>
<path d="M142.696 34.1144C142.701 34.1087 142.706 34.1046 142.713 34.1016H152.973C152.98 34.1046 152.986 34.1087 152.991 34.1144C152.999 34.1234 153.003 34.1351 153.003 34.1471C153.003 34.159 152.999 34.1707 152.991 34.1797C152.986 34.1851 152.98 34.1896 152.973 34.1923H142.713C142.706 34.1896 142.701 34.1851 142.696 34.1797C142.688 34.1707 142.683 34.159 142.683 34.1471C142.683 34.1351 142.688 34.1234 142.696 34.1144Z" fill="#032B4D" stroke="#032B4D" stroke-width="3"/>
<path d="M142.696 39.454C142.701 39.4486 142.706 39.4441 142.713 39.4414H152.973C152.98 39.4441 152.986 39.4486 152.991 39.454C152.999 39.463 153.003 39.4746 153.003 39.4866C153.003 39.4986 152.999 39.5103 152.991 39.5195C152.986 39.5249 152.98 39.5291 152.973 39.5321H142.713C142.706 39.5291 142.701 39.5249 142.696 39.5195C142.688 39.5103 142.683 39.4989 142.683 39.4866C142.683 39.4746 142.688 39.463 142.696 39.454Z" fill="#032B4D" stroke="#032B4D" stroke-width="3"/>
<path d="M160.065 39.454C160.07 39.4486 160.076 39.4441 160.082 39.4414H170.343C170.349 39.4441 170.355 39.4486 170.36 39.454C170.368 39.463 170.372 39.4746 170.372 39.4866C170.372 39.4986 170.368 39.5103 170.36 39.5195C170.355 39.5249 170.349 39.5291 170.343 39.5321H160.082C160.076 39.5291 160.07 39.5249 160.065 39.5195C160.057 39.5103 160.052 39.4986 160.052 39.4866C160.052 39.4746 160.057 39.463 160.065 39.454Z" fill="#032B4D" stroke="#032B4D" stroke-width="3"/>
<path d="M110.357 23.3013C110.352 23.3067 110.346 23.311 110.339 23.3139H100.079C100.072 23.311 100.066 23.3067 100.062 23.3013C100.054 23.2922 100.049 23.2806 100.049 23.2685C100.049 23.2565 100.053 23.2449 100.062 23.2358C100.066 23.2304 100.072 23.226 100.079 23.2231H110.339C110.346 23.226 110.352 23.2303 110.357 23.2358C110.365 23.2449 110.369 23.2565 110.369 23.2685C110.369 23.2806 110.365 23.2922 110.357 23.3013Z" fill="#032B4D" stroke="#032B4D" stroke-width="3"/>
<path d="M136.279 85.6651C136.274 85.6704 136.268 85.6746 136.262 85.6776H100.21C100.204 85.6746 100.198 85.6704 100.193 85.6651C100.185 85.6561 100.18 85.6444 100.18 85.6324C100.18 85.6201 100.185 85.6085 100.193 85.5995C100.198 85.5941 100.204 85.5899 100.21 85.5869H136.262C136.268 85.5899 136.274 85.5941 136.279 85.5995C136.287 85.6085 136.292 85.6201 136.292 85.6324C136.292 85.6444 136.287 85.6561 136.279 85.6651Z" fill="#032B4D" stroke="#032B4D" stroke-width="3"/>
<path d="M136.104 96.5435C136.099 96.5489 136.093 96.5531 136.087 96.556H100.035C100.029 96.5531 100.023 96.5489 100.018 96.5435C100.01 96.5345 100.005 96.5228 100.005 96.5108C100.005 96.4986 100.01 96.4869 100.018 96.4779C100.023 96.4725 100.029 96.4683 100.035 96.4653H136.087C136.093 96.4683 136.099 96.4725 136.104 96.4779C136.112 96.4869 136.117 96.4986 136.117 96.5108C136.117 96.5228 136.112 96.5345 136.104 96.5435Z" fill="#032B4D" stroke="#032B4D" stroke-width="3"/>
<path d="M136.192 101.982C136.187 101.988 136.181 101.992 136.174 101.995H100.123C100.116 101.992 100.11 101.988 100.105 101.982C100.097 101.973 100.093 101.962 100.093 101.95C100.093 101.938 100.097 101.926 100.105 101.917C100.11 101.911 100.116 101.907 100.123 101.904H136.174C136.181 101.907 136.187 101.911 136.192 101.917C136.199 101.926 136.204 101.938 136.204 101.95C136.204 101.962 136.199 101.973 136.192 101.982Z" fill="#032B4D" stroke="#032B4D" stroke-width="3"/>
<path d="M141.335 96.577C141.34 96.5716 141.346 96.5671 141.352 96.5645H151.613C151.62 96.5671 151.625 96.5716 151.63 96.577C151.638 96.586 151.643 96.5977 151.643 96.6097C151.643 96.6216 151.638 96.6333 151.63 96.6423C151.625 96.648 151.62 96.6522 151.613 96.6552H141.352C141.346 96.6522 141.34 96.648 141.335 96.6423C141.327 96.6333 141.322 96.6216 141.322 96.6097C141.322 96.5977 141.327 96.586 141.335 96.577Z" fill="#032B4D" stroke="#032B4D" stroke-width="3"/>
<path d="M141.335 101.917C141.34 101.911 141.346 101.907 141.352 101.904H151.613C151.62 101.907 151.625 101.911 151.63 101.917C151.638 101.926 151.643 101.938 151.643 101.95C151.643 101.962 151.638 101.973 151.63 101.982C151.625 101.988 151.62 101.992 151.613 101.995H141.352C141.346 101.992 141.34 101.988 141.335 101.982C141.327 101.973 141.322 101.962 141.322 101.95C141.322 101.938 141.327 101.926 141.335 101.917Z" fill="#032B4D" stroke="#032B4D" stroke-width="3"/>
<path d="M158.705 96.577C158.71 96.5716 158.716 96.5671 158.723 96.5645H168.983C168.99 96.5671 168.996 96.5716 169.001 96.577C169.008 96.586 169.013 96.5977 169.013 96.6097C169.013 96.6216 169.008 96.6333 169.001 96.6423C168.996 96.648 168.99 96.6522 168.983 96.6552H158.723C158.716 96.6522 158.71 96.648 158.705 96.6423C158.697 96.6333 158.693 96.6216 158.693 96.6097C158.693 96.5977 158.697 96.586 158.705 96.577Z" fill="#032B4D" stroke="#032B4D" stroke-width="3"/>
<path d="M119.054 91.0388C119.059 91.0334 119.065 91.0289 119.071 91.0259H175.825C175.832 91.0289 175.838 91.0334 175.843 91.0388C175.851 91.0477 175.855 91.0594 175.855 91.0714C175.855 91.0834 175.851 91.095 175.843 91.104C175.838 91.1097 175.832 91.1139 175.825 91.1169H119.071C119.065 91.1139 119.059 91.1097 119.054 91.104C119.046 91.095 119.041 91.0834 119.041 91.0714C119.041 91.0594 119.046 91.0477 119.054 91.0388Z" fill="#032B4D" stroke="#032B4D" stroke-width="3"/>
<path d="M100.105 91.0388C100.11 91.0334 100.116 91.0289 100.123 91.0259H110.383C110.39 91.0289 110.396 91.0334 110.4 91.0388C110.409 91.0477 110.413 91.0594 110.413 91.0714C110.413 91.0834 110.409 91.095 110.4 91.104C110.396 91.1097 110.39 91.1139 110.383 91.1169H100.123C100.116 91.1139 100.11 91.1097 100.105 91.104C100.097 91.095 100.093 91.0834 100.093 91.0714C100.093 91.0594 100.097 91.0477 100.105 91.0388Z" fill="#032B4D" stroke="#032B4D" stroke-width="3"/>
<path d="M127.578 48.8662L113.542 62.5673L127.578 76.2682L130.736 73.1465L120.122 62.6539L130.824 52.0747L127.578 48.8662Z" fill="#E6E6E6"/>
<path d="M148.281 48.8662L162.317 62.5673L148.281 76.2682L145.123 73.1465L155.737 62.6539L145.035 52.0747L148.281 48.8662Z" fill="#E6E6E6"/>
<path d="M127.578 48.8662L113.542 62.5673L127.578 76.2682L130.736 73.1465L120.122 62.6539L130.824 52.0747L127.578 48.8662Z" fill="#032B4D"/>
<path d="M148.281 48.8662L162.317 62.5673L148.281 76.2682L145.123 73.1465L155.737 62.6539L145.035 52.0747L148.281 48.8662Z" fill="#032B4D"/>
<path d="M44.5666 197.837H55.7247L83.2219 187.201C83.2219 187.201 102.749 179.323 101.155 194.292C99.5607 209.261 96.7712 229.351 96.7712 229.351C96.7712 229.351 88.004 225.412 83.2219 226.593C78.4398 227.775 81.6279 202.564 81.6279 202.564C81.6279 202.564 42.574 221.079 38.9874 218.715C35.4007 216.351 34.6039 199.807 34.6039 199.807L44.5666 197.837Z" fill="#2F2E41"/>
<path opacity="0.1" d="M44.5666 197.837H55.7247L83.2219 187.201C83.2219 187.201 102.749 179.323 101.155 194.292C99.5607 209.261 96.7712 229.351 96.7712 229.351C96.7712 229.351 88.004 225.412 83.2219 226.593C78.4398 227.775 81.6279 202.564 81.6279 202.564C81.6279 202.564 42.574 221.079 38.9874 218.715C35.4007 216.351 34.6039 199.807 34.6039 199.807L44.5666 197.837Z" fill="#032B4D"/>
<path d="M62.1468 163.296L75.6504 182.474L107.133 208.473C107.133 208.473 136.224 215.17 132.239 219.897C128.254 224.624 103.945 215.17 103.945 215.17C103.945 215.17 67.6803 189.171 66.4848 187.201C65.2894 185.232 52.1384 166.717 52.1384 166.717L62.1468 163.296Z" fill="#A0616A"/>
<path opacity="0.1" d="M62.1468 163.296L75.6504 182.474L107.133 208.473C107.133 208.473 136.224 215.17 132.239 219.897C128.254 224.624 103.945 215.17 103.945 215.17C103.945 215.17 67.6803 189.171 66.4848 187.201C65.2894 185.232 52.1384 166.717 52.1384 166.717L62.1468 163.296Z" fill="black"/>
<path d="M54.1303 147.809L62.8976 164.747C62.8976 164.747 60.905 173.02 57.717 173.807C54.5289 174.595 40.9796 163.566 40.9796 163.566L54.1303 147.809Z" fill="#D0CDE1"/>
<path opacity="0.1" d="M54.1303 147.809L62.8976 164.747C62.8976 164.747 60.905 173.02 57.717 173.807C54.5289 174.595 40.9796 163.566 40.9796 163.566L54.1303 147.809Z" fill="#FF0030"/>
<path d="M161.087 189.067L163.676 199.627C163.705 199.744 163.701 199.868 163.664 199.983L151.916 236.272C151.869 236.416 151.774 236.539 151.647 236.622C151.519 236.705 151.367 236.742 151.215 236.727C151.063 236.712 150.921 236.647 150.812 236.541C150.703 236.435 150.635 236.295 150.617 236.145L148.992 222.009C148.981 221.915 148.991 221.82 149.021 221.73L159.804 189.018C159.849 188.881 159.938 188.763 160.057 188.681C160.176 188.599 160.319 188.558 160.464 188.563C160.609 188.569 160.749 188.621 160.861 188.712C160.973 188.802 161.053 188.927 161.087 189.067Z" fill="#2F2E41"/>
<path d="M160.135 189.958L162.526 199.019L152.164 232.108L149.773 221.866L160.135 189.958Z" fill="#F2F2F2"/>
<path d="M107.93 239.199C108.328 240.38 149.375 238.805 149.773 238.411C150.121 237.917 150.414 237.389 150.65 236.835C151.024 236.047 151.367 235.259 151.367 235.259L149.773 222.504L109.125 221.078C109.125 221.078 108.109 231.887 107.902 236.835C107.85 238.084 107.85 238.962 107.93 239.199Z" fill="#2F2E41"/>
<path opacity="0.1" d="M144.593 224.23L145.389 235.26H127.457V224.23H144.593Z" fill="black"/>
<path opacity="0.1" d="M121.479 227.775L121.586 227.754L121.081 232.503H111.118V227.775H121.479Z" fill="black"/>
<path opacity="0.1" d="M107.93 239.199C108.328 240.381 149.375 238.805 149.773 238.411C150.121 237.918 150.414 237.39 150.65 236.835H107.902C107.85 238.084 107.85 238.963 107.93 239.199Z" fill="black"/>
<path d="M60.1085 142.294C70.0127 142.294 78.0416 134.357 78.0416 124.567C78.0416 114.777 70.0127 106.841 60.1085 106.841C50.2046 106.841 42.1757 114.777 42.1757 124.567C42.1757 134.357 50.2046 142.294 60.1085 142.294Z" fill="#A0616A"/>
<path d="M58.9133 140.324C58.9133 140.324 52.9355 150.566 51.7401 156.081C50.5443 161.596 33.807 145.051 33.807 145.051L31.6154 139.339C31.6154 139.339 47.3563 132.052 46.1609 126.143C44.9654 120.234 58.9133 140.324 58.9133 140.324Z" fill="#A0616A"/>
<path d="M62.1014 171.05L78.4404 192.322L117.494 221.078C117.494 221.078 145.788 226.987 139.412 231.32C133.036 235.654 114.705 227.381 114.705 227.381C114.705 227.381 75.2524 206.503 66.8837 197.837C58.5147 189.171 42.9731 174.596 42.9731 174.596L62.1014 171.05Z" fill="#A0616A"/>
<path d="M40.1824 204.14L44.9645 211.624L73.5048 202.749C79.767 200.802 86.6337 201.518 92.1878 204.977C97.1694 208.079 100.357 213.003 93.1842 220.291C78.8378 234.866 69.2736 226.987 69.2736 226.987C69.2736 226.987 21.0541 249.441 13.0839 238.411C5.11373 227.381 4.71521 221.866 4.71521 221.866C4.71521 221.866 35.4004 202.958 40.1824 204.14Z" fill="#032B4D"/>
<path d="M99.9589 230.139C99.9589 230.139 112.711 238.411 97.5677 242.35C82.4244 246.29 71.2663 240.775 71.2663 240.775C71.2663 240.775 58.1155 240.775 58.1155 234.078C58.1155 227.381 62.499 226.593 62.499 226.593L76.0483 228.563C76.0483 228.563 92.3871 224.23 99.9589 230.139Z" fill="#2E2401"/>
<path d="M74.8198 120.108C76.0404 120.646 77.2507 121.283 78.5779 121.439C79.9048 121.595 81.4158 121.137 82.0436 119.971C82.3829 119.341 82.4216 118.6 82.4374 117.887C82.4855 115.724 82.3271 113.385 80.9406 111.711C80.058 110.646 78.7696 109.974 77.8561 108.935C77.2016 108.19 76.7661 107.287 76.2969 106.417C74.5203 103.118 71.8898 99.9481 68.2339 98.9973C66.7074 98.6003 65.1058 98.6195 63.5275 98.6416L54.3211 98.7701C52.831 98.7907 51.3184 98.815 49.8922 99.241C46.9289 100.127 44.7712 102.59 42.795 104.946C41.3167 106.708 39.8344 108.489 38.725 110.499C37.1343 113.431 36.3299 116.718 36.3886 120.045C36.3762 120.898 36.4877 121.749 36.7194 122.571C36.9907 123.325 37.3266 124.054 37.724 124.752C39.4504 128.104 40.4756 132.291 38.5311 135.525C41.9088 134.161 45.2507 132.372 47.4786 129.516C48.4754 128.239 49.2571 126.743 50.5855 125.806C51.9139 124.868 54.0782 124.787 54.9305 126.163C55.2234 126.719 55.3742 127.338 55.37 127.966C55.432 128.999 55.4305 130.071 55.8733 131.009C56.3164 131.946 57.3716 132.703 58.3793 132.422C60.1141 131.939 59.9482 129.307 61.2845 128.111C62.2994 127.203 63.8652 127.376 65.1691 126.964C66.6883 126.484 67.828 125.183 68.4777 123.743C68.9714 122.648 68.9641 119.784 69.8981 119.191C71.0697 118.448 73.734 119.63 74.8198 120.108Z" fill="#2F2E41"/>
<path d="M30.1915 137.471C30.9982 137.259 31.8477 137.261 32.6534 137.478C35.2114 138.156 40.946 139.954 42.1754 142.688C43.7697 146.233 49.3486 151.748 49.3486 151.748C49.3486 151.748 56.9204 159.233 55.3264 164.354C53.7324 169.475 47.7546 175.384 47.7546 175.384C47.7546 175.384 49.3486 199.807 41.3785 206.11C33.4084 212.413 30.2202 208.079 30.2202 213.988C30.2202 219.897 5.51271 238.411 0.730591 226.988C0.730591 226.988 3.12165 205.716 2.32463 198.231C1.5391 190.855 2.68907 144.831 30.1915 137.471Z" fill="#FF4568"/>
<path d="M42.9719 147.415C42.9719 147.415 67.2811 165.142 62.8976 172.626C62.8976 172.626 48.1525 179.717 44.9645 179.323C41.7765 178.929 29.4227 165.142 26.2347 163.96C23.0466 162.778 21.4525 141.506 42.9719 147.415Z" fill="#E64160"/>
<path d="M180.801 162.105C191.674 162.105 200.488 153.393 200.488 142.645C200.488 131.898 191.674 123.185 180.801 123.185C169.929 123.185 161.115 131.898 161.115 142.645C161.115 153.393 169.929 162.105 180.801 162.105Z" fill="#FDCA05"/>
<path d="M343.404 117.372H233.082V94.5527H343.404V117.372ZM233.569 116.891H342.916V95.0332H233.569V116.891Z" fill="#3F3D56"/>
<path d="M335.384 99.1167H225.549V121.455H335.384V99.1167Z" fill="#032B4D"/>
<path d="M156.118 77.7985C157.058 77.7985 157.819 77.0456 157.819 76.1172C157.819 75.1885 157.058 74.4355 156.118 74.4355C155.179 74.4355 154.417 75.1885 154.417 76.1172C154.417 77.0456 155.179 77.7985 156.118 77.7985Z" fill="#6C63FF"/>
<path d="M161.95 77.7985C162.889 77.7985 163.65 77.0456 163.65 76.1172C163.65 75.1885 162.889 74.4355 161.95 74.4355C161.01 74.4355 160.249 75.1885 160.249 76.1172C160.249 77.0456 161.01 77.7985 161.95 77.7985Z" fill="#6C63FF"/>
<path d="M167.782 77.7985C168.722 77.7985 169.483 77.0456 169.483 76.1172C169.483 75.1885 168.722 74.4355 167.782 74.4355C166.843 74.4355 166.081 75.1885 166.081 76.1172C166.081 77.0456 166.843 77.7985 167.782 77.7985Z" fill="#6C63FF"/>
<path d="M355.861 203.183H151.258V71.5532H355.861V203.183ZM151.744 202.703H355.376V72.0337H151.744V202.703Z" fill="#3F3D56"/>
<path d="M355.618 78.8398H151.501V79.3204H355.618V78.8398Z" fill="#3F3D56"/>
<path d="M156.604 78.0666H156.604C157.32 78.066 158.007 77.7842 158.513 77.284C159.019 76.7837 159.304 76.1053 159.305 75.3975V75.3966C159.305 74.8685 159.146 74.3524 158.849 73.9132C158.553 73.474 158.131 73.1318 157.637 72.9297C157.144 72.7276 156.601 72.6749 156.077 72.7779C155.553 72.8809 155.071 73.1351 154.694 73.5087C154.316 73.882 154.059 74.3578 153.954 74.8757C153.85 75.3936 153.903 75.9304 154.108 76.4184C154.312 76.9064 154.659 77.3232 155.103 77.6166C155.547 77.91 156.069 78.0666 156.604 78.0666ZM157.098 74.9071C157.23 75.0371 157.304 75.2134 157.304 75.3969C157.304 75.5337 157.263 75.6676 157.186 75.7813C157.109 75.8954 157 75.9843 156.872 76.0367C156.744 76.0891 156.603 76.1029 156.467 76.0759C156.331 76.0493 156.206 75.9834 156.108 75.8864C156.01 75.7894 155.943 75.6661 155.916 75.5316C155.889 75.3975 155.903 75.258 155.956 75.1314C156.009 75.005 156.099 74.8966 156.214 74.8206C156.329 74.7446 156.465 74.7038 156.603 74.7038C156.789 74.7041 156.967 74.7772 157.098 74.9071Z" fill="#FDCA05" stroke="#FDCA05" stroke-width="5"/>
<path d="M165.137 75.3975V75.3966C165.137 74.8685 164.979 74.3524 164.682 73.9132C164.385 73.474 163.963 73.1318 163.47 72.9297C162.976 72.7276 162.433 72.6749 161.909 72.7779C161.385 72.8809 160.904 73.1351 160.526 73.5087C160.148 73.882 159.891 74.3578 159.787 74.8757C159.683 75.3936 159.736 75.9304 159.941 76.4184C160.145 76.9064 160.491 77.3232 160.936 77.6166C161.38 77.91 161.902 78.0666 162.436 78.0666V77.5863C162.436 77.5863 162.436 77.5863 162.437 77.5863L162.437 78.0666C163.153 78.066 163.839 77.7842 164.346 77.284C164.852 76.7837 165.137 76.1053 165.137 75.3975ZM162.047 74.8206C162.162 74.7446 162.297 74.7038 162.436 74.7038C162.622 74.7041 162.8 74.7772 162.931 74.9071C163.063 75.0371 163.137 75.2134 163.137 75.3969C163.137 75.5337 163.096 75.6676 163.019 75.7813C162.942 75.8954 162.833 75.9843 162.704 76.0367C162.576 76.0891 162.435 76.1029 162.299 76.0759C162.164 76.0493 162.039 75.9834 161.941 75.8864C161.843 75.7894 161.776 75.6661 161.749 75.5316C161.722 75.3975 161.736 75.258 161.789 75.1314C161.842 75.005 161.932 74.8966 162.047 74.8206Z" fill="#FDCA05" stroke="#FDCA05" stroke-width="5"/>
<path d="M168.268 77.5863L168.269 78.0666C168.984 78.066 169.671 77.7842 170.177 77.284C170.683 76.7837 170.968 76.1053 170.969 75.3975V75.3966C170.969 74.8685 170.81 74.3524 170.514 73.9132C170.217 73.474 169.795 73.1318 169.302 72.9297C168.808 72.7276 168.265 72.6749 167.741 72.7779C167.217 72.8809 166.736 73.1351 166.358 73.5087C165.98 73.882 165.723 74.3578 165.619 74.8757C165.514 75.3936 165.568 75.9304 165.772 76.4184C165.977 76.9064 166.323 77.3232 166.767 77.6166C167.211 77.91 167.734 78.0666 168.268 78.0666V77.5863C168.268 77.5863 168.268 77.5863 168.268 77.5863ZM168.969 75.3969C168.968 75.5337 168.927 75.6676 168.851 75.7813C168.773 75.8954 168.664 75.9843 168.536 76.0367C168.408 76.0891 168.267 76.1029 168.131 76.0759C167.995 76.0493 167.87 75.9834 167.772 75.8864C167.674 75.7894 167.608 75.6661 167.58 75.5316C167.553 75.3972 167.567 75.258 167.62 75.1314C167.673 75.005 167.763 74.8966 167.878 74.8206C167.993 74.7446 168.129 74.7038 168.267 74.7038C168.453 74.7041 168.631 74.7772 168.763 74.9071C168.894 75.0371 168.968 75.2134 168.969 75.3969Z" fill="#FDCA05" stroke="#FDCA05" stroke-width="5"/>
<path d="M215.829 79.0801H215.343V203.13H215.829V79.0801Z" fill="#3F3D56"/>
<path d="M274.271 140.071H238.551V144.875H274.271V140.071Z" fill="#F2F2F2"/>
<path d="M330.404 140.071H294.683V144.875H330.404V140.071Z" fill="#F2F2F2"/>
<path d="M276.457 143.162H276.911V142.713V137.429V136.979H276.457H240.251H239.796V137.429V142.713V143.162H240.251H276.457ZM275.517 138.358V141.783H241.191V138.358H275.517Z" fill="#FF4568" stroke="#FF4568" stroke-width="3"/>
<path d="M274.271 177.302H238.551V182.106H274.271V177.302Z" fill="#F2F2F2"/>
<path d="M276.457 180.393H276.911V179.944V174.66V174.21H276.457H240.251H239.796V174.66V179.944V180.393H240.251H276.457ZM275.517 175.589V179.014H241.191V175.589H275.517Z" fill="#FF4568" stroke="#FF4568" stroke-width="3"/>
<path d="M330.525 158.206H238.671V163.01H330.525V158.206Z" fill="#F2F2F2"/>
<path d="M332.712 161.777H333.166V161.328V156.044V155.595H332.712H240.372H239.918V156.044V161.328V161.777H240.372H332.712ZM331.77 156.973V160.399H241.313V156.973H331.77Z" fill="#FF4568" stroke="#FF4568" stroke-width="3"/>
<path d="M332.591 143.162H333.045V142.713V137.429V136.979H332.591H296.384H295.929V137.429V142.713V143.162H296.384H332.591ZM331.649 138.358V141.783H297.324V138.358H331.649Z" fill="#FF4568" stroke="#FF4568" stroke-width="3"/>
<path d="M184.133 157.016C180.179 157.016 176.315 155.857 173.027 153.686C169.74 151.515 167.178 148.429 165.665 144.818C164.152 141.208 163.756 137.235 164.527 133.402C165.299 129.569 167.203 126.048 169.998 123.284C172.794 120.521 176.355 118.639 180.233 117.877C184.111 117.114 188.13 117.506 191.783 119.001C195.435 120.497 198.557 123.029 200.754 126.279C202.95 129.528 204.123 133.348 204.123 137.257C204.117 142.495 202.009 147.518 198.261 151.222C194.514 154.926 189.433 157.01 184.133 157.016ZM184.133 118.096C180.299 118.096 176.551 119.22 173.364 121.325C170.176 123.43 167.692 126.423 166.225 129.924C164.758 133.425 164.374 137.278 165.122 140.995C165.869 144.712 167.716 148.125 170.426 150.805C173.137 153.485 176.591 155.31 180.351 156.049C184.111 156.789 188.009 156.409 191.551 154.959C195.093 153.508 198.12 151.053 200.25 147.902C202.38 144.751 203.517 141.046 203.517 137.257C203.511 132.177 201.467 127.306 197.833 123.714C194.199 120.122 189.272 118.101 184.133 118.096Z" fill="#3F3D56"/>
</g>
<defs>
<clipPath id="clip0">
<rect width="355.269" height="244" fill="white" transform="translate(0.730591)"/>
</clipPath>
</defs>
</svg>
