<svg width="517" height="363" viewBox="0 0 517 363" fill="none" xmlns="http://www.w3.org/2000/svg">
<g clip-path="url(#clip0)">
<path opacity="0.65" d="M219.947 13.9194C198.932 5.91935 176.724 -0.763243 154.053 0.076854C120.72 1.30836 88.7218 20.0817 73.0518 47.6474C59.7566 71.003 58.1162 98.3778 52.389 124.297C45.3408 156.225 31.8167 186.578 17.3771 216.254C9.62315 232.197 1.44004 248.483 0.16679 265.958C-1.59763 290.221 10.7867 314.397 30.2097 330.536C49.6326 346.674 75.4266 355.19 101.316 357.047C115.093 358.035 129.49 357.118 141.726 351.113C154.673 344.76 164.11 333.28 177.11 327.018C189.156 321.214 203.247 320.402 216.771 321.156C234.429 322.141 251.86 325.612 268.55 331.467C287.453 338.111 305.031 347.739 323.867 354.479C342.703 361.218 363.8 364.98 383.075 359.357C401.196 354.073 415.503 341.242 428.402 328.249C449.494 307.043 468.827 284.152 486.208 259.805C497.849 243.476 508.683 226.249 513.829 207.218C523.671 170.831 510.128 129.781 480.09 104.931C455.202 84.3443 421.802 75.4087 389.108 69.9863C359.294 65.0412 324.821 64.7357 297.377 51.8478C271.206 39.5423 247.391 24.3728 219.947 13.9194Z" fill="#FDCA05"/>
<path d="M271.659 295.466V312.807H276.585L275.631 294.191L271.659 295.466Z" fill="#AAABB0"/>
<path d="M197.663 291.967V309.309H202.594L201.64 290.693L197.663 291.967Z" fill="#AAABB0"/>
<path d="M283.739 266.511C283.739 264.753 282.316 263.328 280.56 263.328C278.805 263.328 277.382 264.753 277.382 266.511V291.013C277.382 292.771 278.805 294.196 280.56 294.196C282.316 294.196 283.739 292.771 283.739 291.013V266.511Z" fill="#AAABB0"/>
<path d="M202.194 259.666C202.194 257.908 200.771 256.482 199.015 256.482C197.26 256.482 195.837 257.908 195.837 259.666V291.008C195.837 292.766 197.26 294.191 199.015 294.191C200.771 294.191 202.194 292.766 202.194 291.008V259.666Z" fill="#AAABB0"/>
<path d="M291.85 78.6018C291.85 78.6018 298.206 75.8953 299.16 78.6018C300.114 81.3082 300.591 104.697 300.591 104.697H294.549L291.85 78.6018Z" fill="#AAABB0"/>
<path d="M222.226 78.6018C222.226 78.6018 215.865 75.8953 214.911 78.6018C213.957 81.3082 213.48 104.697 213.48 104.697H219.522L222.226 78.6018Z" fill="#AAABB0"/>
<path d="M223.175 55.3699L222.222 74.7828H226.514V54.8926L223.175 55.3699Z" fill="#AAABB0"/>
<path d="M219.522 104.697L220.796 76.6921C220.796 76.6921 220.319 70.4868 235.417 72.3961C250.514 74.3055 294.711 78.1241 294.711 78.1241V104.697H219.522Z" fill="#33323D"/>
<path d="M279.929 252.191L277.544 294.989C277.544 294.989 242.57 314.402 200.129 295.943L203.944 250.917L279.929 252.191Z" fill="#33323D"/>
<path d="M246.704 83.6901L247.496 111.375H296.776L293.914 74.7832L246.704 83.6901Z" fill="#444053"/>
<path d="M251.712 233.891H205.293V292.759H251.712V233.891Z" fill="#4C4981"/>
<path d="M234.625 257.919C234.625 257.919 241.301 252.669 242.412 254.258C243.524 255.848 238.445 262.693 236.375 261.895C234.306 261.098 234.625 257.919 234.625 257.919Z" fill="#FFB9B9"/>
<path d="M419.918 103.103H115.212V255.848H419.918V103.103Z" fill="#032B4D"/>
<path d="M219.681 54.2577C219.681 54.2577 217.296 31.9808 219.681 29.2791C222.065 26.5774 262.122 0.954452 299.161 31.0261C299.161 31.0261 302.656 31.1884 302.022 39.1407C301.648 44.1738 301.674 49.2286 302.098 54.2577C302.098 54.2577 222.385 59.9856 219.681 54.2577Z" fill="#33323D"/>
<path opacity="0.1" d="M219.681 54.2577C219.681 54.2577 217.296 31.9808 219.681 29.2791C222.065 26.5774 262.122 0.954452 299.161 31.0261C299.161 31.0261 302.656 31.1884 302.022 39.1407C301.648 44.1738 301.674 49.2286 302.098 54.2577C302.098 54.2577 222.385 59.9856 219.681 54.2577Z" fill="black"/>
<path d="M219.681 57.1219C219.681 57.1219 217.296 34.845 219.681 32.1433C222.065 29.4417 262.122 3.81871 299.161 33.8904C299.161 33.8904 302.656 34.0527 302.022 42.0049C301.648 47.038 301.674 52.0929 302.098 57.1219C302.098 57.1219 222.385 62.8499 219.681 57.1219Z" fill="#33323D"/>
<path d="M303.452 46.9404C303.452 46.9404 305.994 56.487 305.202 58.0765C304.411 59.666 304.554 64.1242 304.554 64.1242C304.554 64.1242 304.725 66.9882 303.452 67.3032C302.179 67.6183 301.068 67.7806 302.098 68.7352C303.128 69.6899 302.098 71.1219 302.098 71.1219C302.098 71.1219 301.54 73.351 302.098 74.783C302.656 76.215 298.836 76.8116 299.16 78.6016C299.485 80.3916 300.553 85.4417 299.16 85.604C297.768 85.7663 299.637 91.9668 298.383 91.9668C297.129 91.9668 296.237 103.103 296.237 103.103C296.237 103.103 287.415 95.6279 281.535 97.6947C281.535 97.6947 282.012 91.4894 283.92 89.2603C285.827 87.0312 285.25 81.308 285.25 81.308L294.711 52.8259L303.452 46.9404Z" fill="#FF3E62"/>
<path d="M256.242 178.578C254.177 180.864 251.95 168.654 251.95 168.654C251.95 168.654 246.071 176.769 242.256 171.361C239.614 167.614 241.698 156.998 243.209 150.836C243.887 148.096 244.459 146.234 244.459 146.234L253.042 144.802C253.042 144.802 253.071 146.673 253.262 148.945C253.519 152.015 254.077 155.824 255.265 156.735C257.358 158.315 258.312 176.272 256.242 178.578Z" fill="#AE6E79"/>
<path opacity="0.1" d="M251.792 35.6423C251.792 35.6423 236.847 35.4847 233.194 43.437C229.541 51.3893 229.379 54.1005 227.949 55.3702C226.518 56.6399 243.523 63.3273 243.523 63.3273L244.32 90.6925C244.32 90.6925 247.658 87.3082 253.061 88.8404C258.464 90.3727 265.302 88.8404 265.302 88.8404C265.302 88.8404 264.983 88.2629 269.437 88.8404C273.891 89.418 288.035 81.9431 288.035 81.9431C288.035 81.9431 288.268 69.9717 287.953 67.4227C287.639 64.8738 298.044 46.1435 298.044 46.1435C298.044 46.1435 306.151 38.3487 297.729 35.6423C297.729 35.6423 294.749 31.1458 287.081 31.1888C279.413 31.2317 251.792 35.6423 251.792 35.6423Z" fill="black"/>
<path d="M251.792 35.1647C251.792 35.1647 236.847 35.0072 233.194 42.9595C229.541 50.9118 229.379 53.623 227.949 54.8927C226.518 56.1624 243.523 62.8497 243.523 62.8497L244.32 90.2149C244.32 90.2149 247.658 86.8307 253.061 88.3629C258.464 89.8951 265.302 88.3629 265.302 88.3629C265.302 88.3629 264.983 87.7853 269.437 88.3629C273.891 88.9405 288.035 81.4655 288.035 81.4655C288.035 81.4655 293.595 72.3963 293.28 69.8521C292.965 67.308 304.405 48.0526 304.405 48.0526C304.405 48.0526 306.156 37.8712 297.729 35.1647C297.729 35.1647 294.749 30.6683 287.081 30.7112C279.413 30.7542 251.792 35.1647 251.792 35.1647Z" fill="#FF3E62"/>
<path opacity="0.1" d="M253.299 148.931C250.023 147.91 244.883 150.163 243.247 150.841C243.924 148.101 244.496 146.239 244.496 146.239L253.08 144.807C253.08 144.807 253.094 146.678 253.299 148.931Z" fill="black"/>
<path d="M232.556 54.8926H227.949C227.949 54.8926 226.996 64.6014 227.949 67.4654C228.903 70.3294 229.38 69.9141 229.06 72.0334C228.741 74.1528 231.287 77.3986 231.287 77.3986C231.287 77.3986 231.602 85.3986 233.195 88.3771C234.788 91.3556 231.445 104.711 231.445 104.711C232.356 107.017 233.705 109.124 235.417 110.917C238.121 113.618 239.552 123.642 238.755 127.461C237.959 131.279 240.982 132.711 240.982 132.711C240.982 132.711 242.255 150.535 242.732 150.535C243.209 150.535 252.427 145.761 255.288 149.895L253.061 133.508L253.223 101.847C253.223 101.847 250.2 97.8664 251.793 94.3676C253.386 90.8688 250.52 82.5919 250.52 82.5919L246.385 64.1384L232.556 54.8926Z" fill="#FF3E62"/>
<path d="M203.943 306.445C203.943 306.445 197.267 305.013 197.11 306.445C196.952 307.877 189.16 322.516 198.86 326.812C208.56 331.108 234.463 340.335 276.59 328.402C276.59 328.402 279.289 329.356 278.655 323.471C278.021 317.585 278.021 311.06 278.021 311.06C278.021 311.06 271.659 309.308 266.89 309.948C262.122 310.588 220.634 319.017 203.943 306.445Z" fill="#33323D"/>
<path opacity="0.1" d="M203.943 306.445C203.943 306.445 197.267 305.013 197.11 306.445C196.952 307.877 189.16 322.516 198.86 326.812C208.56 331.108 234.463 340.335 276.59 328.402C276.59 328.402 279.289 329.356 278.655 323.471C278.021 317.585 278.021 311.06 278.021 311.06C278.021 311.06 271.659 309.308 266.89 309.948C262.122 310.588 220.634 319.017 203.943 306.445Z" fill="black"/>
<path d="M203.943 304.535C203.943 304.535 197.267 303.103 197.11 304.535C196.952 305.967 189.16 320.607 198.86 324.903C208.56 329.199 234.463 338.426 276.59 326.492C276.59 326.492 279.289 327.447 278.655 321.562C278.021 315.676 278.021 309.151 278.021 309.151C278.021 309.151 271.659 307.399 266.89 308.039C262.122 308.679 220.634 317.108 203.943 304.535Z" fill="#33323D"/>
<path d="M242.875 60.6109C242.465 62.945 241.535 65.1885 241.392 67.5512C241.249 69.914 242.16 72.6014 244.339 73.5274C244.948 73.7092 245.537 73.949 246.099 74.2434C246.938 74.8114 247.282 75.8806 247.458 76.883C247.692 78.1771 247.749 79.4973 247.625 80.8066C247.506 82.1241 247.225 83.5417 247.873 84.6921C249.013 86.7303 251.984 86.4296 254.244 85.8568L253.467 91.8854C253.405 92.3628 253.367 92.9021 253.715 93.2267C253.879 93.3427 254.065 93.4244 254.262 93.4671C254.458 93.5097 254.662 93.5124 254.859 93.4749C256.824 93.3508 258.846 93.0788 260.529 92.0429C262.213 91.0071 263.467 89.0787 263.147 87.136C262.775 84.883 260.448 83.093 260.763 80.8305C261.006 79.0787 262.718 77.9665 263.844 76.6205C265.88 74.1575 265.989 70.4152 264.392 67.6276C262.794 64.84 259.709 63.1121 256.533 62.7971C254.773 62.6205 252.942 62.8353 251.288 62.2243C250.712 62.0129 250.193 61.6711 249.771 61.2256C249.349 60.7801 249.036 60.243 248.855 59.6562" fill="#444053"/>
<path d="M187.415 272.874L189.079 269.247C189.079 269.247 198.064 260.869 200.128 260.282C202.193 259.695 210.62 257.137 211.893 257.137C213.166 257.137 236.375 255.862 236.375 255.862L239.074 262.23L209.947 268.631L200.128 275.791L187.415 272.874Z" fill="#FF3E62"/>
<path d="M257.396 175.179L255.875 186.898L255.289 191.409L248.455 192.363C248.455 192.363 247.716 190.778 246.671 188.344C243.5 180.955 237.53 165.719 240.992 163.089C245.594 159.585 246.714 171.203 246.714 171.203L251.96 168.654L257.396 175.179Z" fill="#FFB9B9"/>
<path d="M256.256 196.979H221.745V249.165H256.256V196.979Z" fill="white"/>
<path opacity="0.1" d="M256.256 196.979H221.745V249.165H256.256V196.979Z" fill="black"/>
<path d="M271.767 199.805L237.627 194.752L230.002 246.378L264.142 251.43L271.767 199.805Z" fill="white"/>
<path d="M258.413 202.276L240.841 199.676L236.916 226.246L254.489 228.847L258.413 202.276Z" fill="#6C63FF"/>
<path d="M256.322 236.958L235.032 233.808L234.18 239.578L255.47 242.728L256.322 236.958Z" fill="#6C63FF"/>
<path opacity="0.1" d="M265.303 65.3126C276.32 65.3126 285.251 56.3733 285.251 45.346C285.251 34.3188 276.32 25.3794 265.303 25.3794C254.286 25.3794 245.355 34.3188 245.355 45.346C245.355 56.3733 254.286 65.3126 265.303 65.3126Z" fill="black"/>
<path d="M265.303 64.8356C276.32 64.8356 285.251 55.8962 285.251 44.869C285.251 33.8417 276.32 24.9023 265.303 24.9023C254.286 24.9023 245.355 33.8417 245.355 44.869C245.355 55.8962 254.286 64.8356 265.303 64.8356Z" fill="#AE6E79"/>
<path d="M248.855 59.6661C248.72 59.1518 248.769 58.6062 248.994 58.1244C249.752 56.5444 251.912 56.406 253.662 56.4871C257.778 56.6781 262.293 56.7019 265.512 54.1005C266.848 53.0313 268.34 50.3439 270.281 50.8547C272.007 51.3081 272.727 53.6518 274.525 54.1721C275.827 54.5492 277.177 53.9477 278.502 53.6948C280.41 53.3177 282.365 53.6327 284.301 53.647C286.237 53.6613 288.34 53.2938 289.661 51.8761C291.445 49.9668 291.154 46.9835 290.996 44.3678C290.801 40.9889 291.03 37.5988 291.678 34.2771C292.327 30.974 293.324 27.2794 291.502 24.4489C289.766 21.752 286.17 21.0121 283.715 18.9453C281.416 17.036 280.2 13.9763 277.773 12.2054C274.716 9.97629 270.562 10.2961 266.805 10.6827L258.65 11.5515C256.547 11.7758 254.358 12.0288 252.627 13.2842C249.504 15.5467 249.075 20.2484 246.118 22.7257C244.802 23.8236 243.119 24.3677 241.616 25.1887C240.114 26.0097 238.665 27.3081 238.493 29.0074C238.35 30.4393 239.122 31.7615 239.499 33.141C240.391 36.4346 238.998 39.8236 238.107 43.141C237.215 46.4585 237.043 50.4871 239.633 52.6876C240.157 53.1363 240.768 53.48 241.278 53.9477C243.028 55.5468 243.266 58.2437 242.861 60.5731" fill="#444053"/>
<path d="M266.929 69.809C267.192 69.809 267.406 69.2747 267.406 68.6157C267.406 67.9566 267.192 67.4224 266.929 67.4224C266.666 67.4224 266.452 67.9566 266.452 68.6157C266.452 69.2747 266.666 69.809 266.929 69.809Z" fill="#444053"/>
<path d="M266.929 74.7831C267.192 74.7831 267.406 74.2489 267.406 73.5898C267.406 72.9308 267.192 72.3965 266.929 72.3965C266.666 72.3965 266.452 72.9308 266.452 73.5898C266.452 74.2489 266.666 74.7831 266.929 74.7831Z" fill="#444053"/>
<path d="M256.352 178.545C256.862 177.958 257.201 176.449 257.396 174.459L251.712 167.366C251.712 167.366 254.12 181.118 256.352 178.545Z" fill="#AE6E79"/>
<path opacity="0.1" d="M262.761 295.786C262.761 295.786 253.434 310.22 224.292 308.674C196.839 307.242 183.438 293.719 184.077 288.946C184.716 284.172 182.327 272.554 188.207 269.213C191.617 267.28 196.104 268.425 199.271 269.733C200.365 270.178 201.562 270.303 202.724 270.095C203.886 269.886 204.966 269.352 205.837 268.554C208.732 265.943 214.13 263.003 222.652 265.318C223.748 265.611 224.905 265.589 225.99 265.256C229.538 264.172 237.983 262.292 244.111 266.468C245.079 267.137 246.218 267.515 247.393 267.56C248.569 267.605 249.732 267.314 250.749 266.721L250.835 266.669C253.696 264.917 267.048 281.466 267.048 281.466C267.048 281.466 267.687 294.196 262.761 295.786Z" fill="black"/>
<path d="M262.761 296.263C262.761 296.263 253.434 310.698 224.292 309.151C196.839 307.719 183.438 294.197 184.077 289.423C184.716 284.65 182.327 273.032 188.207 269.691C191.617 267.757 196.104 268.903 199.271 270.211C200.365 270.656 201.562 270.781 202.724 270.572C203.886 270.363 204.966 269.829 205.837 269.032C208.732 266.421 214.13 263.48 222.652 265.796C223.748 266.088 224.905 266.067 225.99 265.733C229.538 264.65 237.983 262.769 244.111 266.946C245.079 267.614 246.218 267.993 247.393 268.037C248.569 268.082 249.732 267.791 250.749 267.199L250.835 267.146C253.696 265.395 267.048 281.944 267.048 281.944C267.048 281.944 267.687 294.674 262.761 296.263Z" fill="#FF3E62"/>
<path opacity="0.1" d="M224.292 301.915C234.784 301.915 243.29 293.401 243.29 282.898C243.29 272.395 234.784 263.881 224.292 263.881C213.799 263.881 205.293 272.395 205.293 282.898C205.293 293.401 213.799 301.915 224.292 301.915Z" fill="black"/>
<path d="M224.292 302.392C234.784 302.392 243.29 293.878 243.29 283.375C243.29 272.872 234.784 264.358 224.292 264.358C213.799 264.358 205.293 272.872 205.293 283.375C205.293 293.878 213.799 302.392 224.292 302.392Z" fill="#FFB9B9"/>
<path d="M218.846 266.936C216.853 267.475 214.888 268.506 213.915 270.201C213.329 271.222 213.124 272.449 212.275 273.299C211.073 274.506 209.046 274.53 207.42 275.208C205.794 275.886 204.721 278.272 206.314 279.027C204.654 279.113 203.424 280.645 203.219 282.167C203.014 283.69 203.591 285.208 204.149 286.659C205.971 291.356 207.931 296.258 211.946 299.599C218.489 305.051 228.35 304.798 237.139 304.22C237.857 304.244 238.569 304.079 239.204 303.743C240.158 303.113 240.277 301.905 240.434 300.845C241.097 296.32 243.548 292.21 245.15 287.891C246.753 283.571 247.411 278.497 244.712 274.673C240.739 269.003 225.532 265.122 218.846 266.936Z" fill="#B96B6B"/>
<path opacity="0.1" d="M255.875 186.898L255.288 191.408L248.454 192.363C248.454 192.363 247.715 190.778 246.671 188.344L255.765 186.635L255.875 186.898Z" fill="black"/>
<path d="M263.075 286.559L267.053 281.943L266.256 256.487C266.648 254.651 266.914 252.789 267.053 250.917C267.21 248.21 265.064 242.167 265.064 242.167C265.397 240.958 265.849 239.784 266.413 238.664C267.367 236.754 265.069 232.458 265.069 232.458C265.069 232.458 261.645 221.322 263.075 215.752C264.506 210.182 262.727 207.003 262.727 207.003C262.727 207.003 261.33 200.797 261.487 198.253C261.645 195.709 258.307 193.318 258.307 193.318L255.765 187.112L245.593 189.022V210.501C245.593 210.501 246.228 231.026 245.593 235.007C244.959 238.988 246.862 242.802 246.862 242.802C246.862 242.802 245.751 248.688 246.704 250.917C247.658 253.146 249.566 258.554 249.566 258.554C249.212 260.487 249.321 262.476 249.885 264.358C250.839 267.146 249.885 268.735 249.885 268.735L263.075 286.559Z" fill="#FF3E62"/>
<g opacity="0.1">
<path opacity="0.1" d="M291.693 32.7067C291.155 35.5008 290.914 38.344 290.973 41.1888C291.013 38.8233 291.261 36.4659 291.712 34.1435C292.131 32.0241 292.665 29.7425 292.551 27.6279C292.375 29.3377 292.088 31.0342 291.693 32.7067Z" fill="black"/>
<path opacity="0.1" d="M241.292 52.4108C240.782 51.9334 240.171 51.5993 239.647 51.1458C238.254 49.9573 237.668 48.2341 237.553 46.3726C237.415 48.7592 237.902 51.0695 239.647 52.5778C240.171 53.0313 240.782 53.375 241.292 53.8427C242.359 54.8993 242.977 56.3269 243.018 57.8284C243.157 55.8237 242.751 53.7377 241.292 52.4108Z" fill="black"/>
<path opacity="0.1" d="M239.771 34.5873C239.855 33.5791 239.768 32.5641 239.514 31.5849C239.237 30.5634 238.741 29.5658 238.56 28.5396C238.56 28.6493 238.522 28.7639 238.508 28.8832C238.369 30.3152 239.142 31.6374 239.514 33.0169C239.651 33.5306 239.737 34.0566 239.771 34.5873Z" fill="black"/>
<path opacity="0.1" d="M289.676 50.306C288.355 51.7379 286.252 52.0912 284.316 52.0768C282.379 52.0625 280.42 51.7475 278.517 52.1293C277.191 52.3966 275.842 52.9933 274.54 52.6067C272.742 52.0864 272.022 49.7427 270.3 49.2892C268.34 48.7737 266.848 51.4611 265.532 52.5303C262.313 55.1079 257.797 55.084 253.681 54.9169C251.931 54.8358 249.771 54.9742 249.018 56.5589C248.788 57.0395 248.739 57.5869 248.879 58.1007L243.052 59.0172C243.03 59.4974 242.977 59.9757 242.895 60.4492L248.879 59.4945C248.739 58.9807 248.788 58.4333 249.018 57.9527C249.771 56.368 251.931 56.2296 253.681 56.3107C257.797 56.5017 262.313 56.5255 265.532 53.9241C266.867 52.8549 268.359 50.1675 270.3 50.683C272.022 51.1317 272.742 53.4802 274.54 54.0005C275.842 54.3728 277.191 53.7761 278.517 53.5231C280.424 53.1413 282.379 53.4563 284.316 53.4706C286.252 53.485 288.355 53.1174 289.676 51.6998C290.997 50.2821 291.187 48.1675 291.106 46.1055C291.049 47.7045 290.72 49.1842 289.676 50.306Z" fill="black"/>
</g>
<g opacity="0.1">
<path opacity="0.1" d="M245.532 73.2317C244.97 72.9357 244.381 72.6959 243.772 72.5157C242.737 72.045 241.916 71.2039 241.469 70.1577C241.826 71.8045 242.732 73.3033 244.249 73.9477C244.858 74.1278 245.447 74.3677 246.009 74.6637C246.368 74.9176 246.658 75.2572 246.853 75.6518C246.662 74.7162 246.314 73.7615 245.532 73.2317Z" fill="black"/>
<path opacity="0.1" d="M253.676 84.8448C251.478 85.4033 248.607 85.6945 247.4 83.8281C247.438 84.2778 247.568 84.715 247.782 85.1121C248.812 86.9499 251.33 86.8878 253.471 86.4343L253.676 84.8448Z" fill="black"/>
<path opacity="0.1" d="M262.584 86.1528C262.889 88.0908 261.63 90.024 259.961 91.0407C258.292 92.0574 256.256 92.339 254.291 92.4726C253.979 92.5131 253.662 92.4771 253.366 92.3676C253.277 92.5694 253.248 92.793 253.283 93.0109C253.319 93.2289 253.417 93.4318 253.565 93.5949C253.714 93.7579 253.907 93.8741 254.121 93.9291C254.334 93.9841 254.559 93.9756 254.768 93.9046C256.733 93.7805 258.755 93.5084 260.438 92.4726C262.122 91.4368 263.381 89.5084 263.056 87.5657C262.965 87.0752 262.806 86.5998 262.584 86.1528Z" fill="black"/>
<path opacity="0.1" d="M264.702 68.8735C264.993 70.0341 265.016 71.2458 264.768 72.4164C264.52 73.5869 264.008 74.6853 263.272 75.6277C262.146 76.9929 260.434 78.086 260.191 79.8378C260.11 80.6431 260.276 81.4541 260.668 82.1623C260.625 81.8664 260.625 81.5657 260.668 81.2697C260.911 79.518 262.623 78.4058 263.748 77.0597C265.599 74.821 265.856 71.5227 264.702 68.8735Z" fill="black"/>
</g>
<g opacity="0.1">
<path opacity="0.1" d="M207.424 275.943C209.046 275.27 211.072 275.246 212.279 274.034C213.128 273.184 213.333 271.958 213.919 270.941C214.873 269.242 216.852 268.215 218.845 267.676C225.522 265.862 240.743 269.738 244.711 275.356C245.874 277.056 246.508 279.062 246.533 281.122C246.685 278.744 246.046 276.382 244.716 274.406C240.748 268.788 225.541 264.912 218.85 266.726C216.857 267.265 214.892 268.292 213.924 269.991C213.338 271.008 213.133 272.234 212.284 273.084C211.077 274.292 209.051 274.316 207.429 274.993C206.194 275.504 205.278 277.012 205.612 278.024C205.745 277.567 205.976 277.143 206.289 276.784C206.602 276.425 206.99 276.138 207.424 275.943Z" fill="black"/>
<path opacity="0.1" d="M203.228 282.879C203.428 281.351 204.658 279.824 206.323 279.738C206.148 279.665 205.992 279.554 205.865 279.413C205.739 279.272 205.646 279.104 205.593 278.922C204.96 279.157 204.403 279.561 203.983 280.091C203.563 280.62 203.295 281.254 203.209 281.924C203.163 282.313 203.163 282.705 203.209 283.094C203.228 283.022 203.228 282.951 203.228 282.879Z" fill="black"/>
</g>
<path d="M304.244 109.9H260.849V166.544H304.244V109.9Z" fill="white"/>
<path opacity="0.1" d="M304.244 109.9H260.849V166.544H304.244V109.9Z" fill="black"/>
<path d="M320.824 113.223L278.057 120.587L287.65 176.412L330.417 169.048L320.824 113.223Z" fill="white"/>
<path d="M298.47 156.912L288.422 158.642L290.676 171.757L300.724 170.027L298.47 156.912Z" fill="#6C63FF"/>
<path d="M312.374 154.516L302.326 156.246L304.58 169.361L314.628 167.631L312.374 154.516Z" fill="#6C63FF"/>
<path d="M322.2 135.301L286.962 141.357L289.222 154.532L324.46 148.476L322.2 135.301Z" fill="#6C63FF"/>
<path d="M319.262 119.577L284.024 125.633L284.529 128.573L319.766 122.516L319.262 119.577Z" fill="#6C63FF"/>
<path d="M320.418 124.983L285.181 131.04L285.685 133.979L320.923 127.923L320.418 124.983Z" fill="#6C63FF"/>
<path d="M285.25 94.5107C285.25 94.5107 265.302 114.559 275.316 119.652C285.331 124.745 291.85 102.706 291.85 102.706L293.433 97.6945L285.25 94.5107Z" fill="#AE6E79"/>
<path opacity="0.1" d="M283.505 92.74L281.039 98.1911C281.039 98.1911 293.199 99.8999 295.741 103.58L294.234 93.962L292.446 89.8569L283.505 92.74Z" fill="black"/>
<path d="M283.981 92.2625L281.516 97.7135C281.516 97.7135 293.676 99.4224 296.218 103.103L294.711 93.4844L292.922 89.3794L283.981 92.2625Z" fill="#4C4981"/>
<path d="M357.591 192.487L357.329 192.669L357.692 192.831L358.083 192.798L358.13 192.525L357.591 192.487Z" fill="#464A5F"/>
<path opacity="0.1" d="M357.591 192.487L357.329 192.669L357.692 192.831L358.083 192.798L358.13 192.525L357.591 192.487Z" fill="black"/>
<path d="M357.591 192.487L357.324 192.659L357.114 192.402L357.243 192.192L357.362 192.153L357.591 192.487Z" fill="#9C9CA1"/>
<path opacity="0.1" d="M357.591 192.487L357.324 192.659L357.114 192.402L357.243 192.192L357.362 192.153L357.591 192.487Z" fill="black"/>
<path d="M404.53 159.499L385.007 131.275C384.834 131.023 384.613 130.807 384.357 130.641C384.101 130.475 383.814 130.361 383.514 130.305C383.213 130.25 382.905 130.254 382.607 130.318C382.308 130.382 382.025 130.504 381.774 130.678L338.254 160.578C337.745 160.928 337.395 161.465 337.282 162.073C337.168 162.681 337.3 163.309 337.649 163.819L357.119 192.401L404.53 159.499Z" fill="#9C9CA1"/>
<path opacity="0.1" d="M404.53 159.499L385.007 131.275C384.834 131.023 384.613 130.807 384.357 130.641C384.101 130.475 383.814 130.361 383.514 130.305C383.213 130.25 382.905 130.254 382.607 130.318C382.308 130.382 382.025 130.504 381.774 130.678L338.254 160.578C337.745 160.928 337.395 161.465 337.282 162.073C337.168 162.681 337.3 163.309 337.649 163.819L357.119 192.401L404.53 159.499Z" fill="black"/>
<path d="M405.007 159.566L385.484 131.341C385.31 131.089 385.089 130.874 384.832 130.708C384.576 130.541 384.289 130.427 383.988 130.372C383.688 130.316 383.379 130.321 383.08 130.385C382.781 130.449 382.497 130.571 382.246 130.745L338.731 160.664C338.222 161.014 337.873 161.551 337.758 162.158C337.644 162.765 337.774 163.393 338.121 163.905L357.592 192.501L405.007 159.566Z" fill="#9C9CA1"/>
<path d="M421.325 165.146L405.111 159.934L357.691 192.836L374.163 198.23C374.531 198.349 374.923 198.382 375.306 198.324C375.689 198.266 376.054 198.119 376.37 197.895L421.459 166.029C421.543 165.982 421.611 165.91 421.654 165.822C421.696 165.735 421.711 165.637 421.697 165.541C421.682 165.445 421.639 165.356 421.573 165.286C421.506 165.215 421.42 165.166 421.325 165.146Z" fill="#464A5F"/>
<path opacity="0.1" d="M421.325 165.146L405.111 159.934L357.691 192.836L374.163 198.23C374.531 198.349 374.923 198.382 375.306 198.324C375.689 198.266 376.054 198.119 376.37 197.895L421.459 166.029C421.543 165.982 421.611 165.91 421.654 165.822C421.696 165.735 421.711 165.637 421.697 165.541C421.682 165.445 421.639 165.356 421.573 165.286C421.506 165.215 421.42 165.166 421.325 165.146Z" fill="black"/>
<path d="M421.225 164.817L405.011 159.6L357.591 192.502L374.062 197.886C374.43 198.008 374.822 198.042 375.205 197.985C375.589 197.928 375.953 197.781 376.27 197.557L421.358 165.69C421.439 165.642 421.504 165.57 421.545 165.484C421.585 165.398 421.599 165.302 421.584 165.209C421.57 165.115 421.528 165.028 421.464 164.958C421.4 164.888 421.317 164.839 421.225 164.817Z" fill="#464A5F"/>
<g opacity="0.1">
<path opacity="0.1" d="M397.348 158.306L396.151 156.587C396.079 156.488 395.971 156.42 395.85 156.398C395.73 156.375 395.605 156.401 395.502 156.468L393.724 157.657C393.624 157.727 393.555 157.833 393.531 157.953C393.507 158.073 393.53 158.198 393.595 158.301L394.696 159.996C394.765 160.097 394.871 160.168 394.991 160.194C395.11 160.22 395.236 160.198 395.34 160.134L397.214 158.955C397.316 158.885 397.387 158.778 397.412 158.657C397.437 158.536 397.414 158.41 397.348 158.306Z" fill="black"/>
<path opacity="0.1" d="M394.153 160.52L392.951 158.807C392.879 158.707 392.772 158.639 392.651 158.617C392.53 158.595 392.405 158.62 392.303 158.687L390.529 159.885C390.428 159.955 390.358 160.061 390.333 160.181C390.308 160.301 390.33 160.426 390.395 160.53L391.497 162.224C391.565 162.327 391.67 162.399 391.79 162.425C391.91 162.452 392.035 162.431 392.14 162.368L394.019 161.189C394.072 161.154 394.118 161.109 394.154 161.056C394.189 161.004 394.214 160.945 394.226 160.883C394.239 160.82 394.239 160.756 394.226 160.694C394.213 160.632 394.188 160.573 394.153 160.52Z" fill="black"/>
<path opacity="0.1" d="M390.796 162.846L389.594 161.132C389.522 161.032 389.415 160.964 389.294 160.942C389.173 160.92 389.048 160.945 388.946 161.013L387.167 162.211C387.066 162.281 386.996 162.388 386.972 162.509C386.948 162.63 386.972 162.756 387.038 162.86L388.14 164.554C388.209 164.656 388.314 164.727 388.434 164.753C388.554 164.778 388.679 164.757 388.784 164.693L390.658 163.514C390.711 163.479 390.757 163.435 390.793 163.382C390.829 163.33 390.854 163.271 390.867 163.209C390.88 163.147 390.881 163.082 390.868 163.02C390.856 162.958 390.831 162.898 390.796 162.846Z" fill="black"/>
<path opacity="0.1" d="M387.396 165.203L386.194 163.485C386.122 163.386 386.015 163.319 385.896 163.297C385.776 163.275 385.652 163.299 385.55 163.365L383.771 164.568C383.672 164.639 383.603 164.745 383.579 164.865C383.555 164.985 383.578 165.109 383.643 165.213L384.744 166.907C384.812 167.008 384.916 167.079 385.035 167.106C385.154 167.133 385.279 167.113 385.383 167.05L387.262 165.867C387.315 165.832 387.36 165.787 387.395 165.735C387.43 165.683 387.454 165.624 387.467 165.563C387.479 165.501 387.479 165.438 387.467 165.376C387.455 165.314 387.431 165.255 387.396 165.203Z" fill="black"/>
<path opacity="0.1" d="M384.001 167.556L382.799 165.843C382.727 165.743 382.619 165.675 382.498 165.653C382.378 165.631 382.253 165.656 382.15 165.724L380.376 166.922C380.276 166.991 380.206 167.097 380.181 167.217C380.156 167.337 380.178 167.462 380.243 167.566L381.344 169.261C381.413 169.363 381.518 169.435 381.638 169.461C381.757 169.488 381.883 169.467 381.988 169.404L383.867 168.22C383.919 168.185 383.964 168.141 384 168.088C384.035 168.036 384.059 167.978 384.072 167.916C384.084 167.854 384.084 167.791 384.072 167.729C384.06 167.667 384.035 167.609 384.001 167.556Z" fill="black"/>
<path opacity="0.1" d="M380.752 170.125L379.26 167.996C379.244 167.972 379.224 167.952 379.2 167.936C379.176 167.92 379.15 167.91 379.122 167.904C379.094 167.899 379.065 167.899 379.037 167.905C379.009 167.911 378.983 167.922 378.959 167.939L376.775 169.413C376.751 169.429 376.731 169.449 376.714 169.473C376.698 169.496 376.687 169.523 376.681 169.551C376.675 169.579 376.675 169.608 376.681 169.636C376.686 169.664 376.697 169.69 376.713 169.714L378.082 171.819C378.113 171.868 378.162 171.902 378.218 171.914C378.275 171.927 378.334 171.917 378.382 171.886L380.69 170.454C380.718 170.438 380.742 170.417 380.761 170.391C380.779 170.365 380.792 170.335 380.798 170.304C380.804 170.272 380.803 170.24 380.795 170.209C380.787 170.178 380.773 170.149 380.752 170.125Z" fill="black"/>
<path opacity="0.1" d="M377.357 172.478L375.855 170.349C375.839 170.325 375.818 170.304 375.794 170.289C375.77 170.273 375.743 170.262 375.714 170.257C375.686 170.251 375.657 170.252 375.629 170.258C375.601 170.264 375.574 170.275 375.55 170.291L373.366 171.766C373.319 171.799 373.287 171.849 373.276 171.905C373.266 171.961 373.277 172.019 373.309 172.067L374.677 174.172C374.692 174.197 374.711 174.219 374.735 174.236C374.758 174.253 374.785 174.265 374.813 174.271C374.841 174.277 374.87 174.278 374.899 174.272C374.927 174.267 374.954 174.255 374.978 174.239L377.281 172.807C377.311 172.793 377.337 172.773 377.357 172.748C377.377 172.722 377.392 172.693 377.399 172.661C377.407 172.629 377.407 172.596 377.399 172.564C377.392 172.533 377.378 172.503 377.357 172.478Z" fill="black"/>
<path opacity="0.1" d="M374.349 174.563L372.856 172.454C372.823 172.408 372.772 172.376 372.716 172.367C372.66 172.357 372.603 172.369 372.556 172.401L370.372 173.871C370.324 173.904 370.29 173.954 370.279 174.011C370.267 174.068 370.278 174.128 370.31 174.177L371.678 176.282C371.71 176.329 371.759 176.363 371.815 176.375C371.871 176.387 371.929 176.378 371.979 176.349L374.287 174.917C374.318 174.902 374.346 174.879 374.367 174.851C374.389 174.823 374.403 174.791 374.409 174.756C374.415 174.721 374.413 174.686 374.402 174.652C374.392 174.619 374.373 174.588 374.349 174.563Z" fill="black"/>
<path opacity="0.1" d="M370.982 176.893L369.49 174.764C369.456 174.718 369.406 174.687 369.35 174.677C369.294 174.667 369.236 174.68 369.189 174.712L367.005 176.182C366.981 176.198 366.96 176.218 366.944 176.242C366.928 176.266 366.916 176.293 366.911 176.322C366.905 176.35 366.905 176.379 366.91 176.408C366.916 176.436 366.927 176.463 366.943 176.487L368.312 178.592C368.344 178.64 368.393 178.673 368.449 178.686C368.505 178.698 368.563 178.689 368.612 178.659L370.92 177.227C370.948 177.211 370.972 177.189 370.991 177.162C371.009 177.136 371.022 177.106 371.028 177.074C371.034 177.043 371.033 177.01 371.025 176.979C371.017 176.947 371.002 176.918 370.982 176.893Z" fill="black"/>
<path opacity="0.1" d="M367.72 179.136L366.228 177.008C366.212 176.984 366.191 176.964 366.168 176.948C366.144 176.932 366.117 176.921 366.089 176.916C366.061 176.911 366.033 176.911 366.005 176.917C365.977 176.923 365.951 176.934 365.927 176.95L363.743 178.425C363.719 178.441 363.698 178.461 363.682 178.484C363.666 178.508 363.655 178.534 363.649 178.562C363.643 178.59 363.643 178.619 363.649 178.647C363.654 178.675 363.665 178.702 363.681 178.726L365.05 180.831C365.081 180.879 365.13 180.913 365.186 180.926C365.243 180.938 365.301 180.928 365.35 180.898L367.658 179.466C367.686 179.45 367.71 179.428 367.728 179.402C367.747 179.376 367.76 179.347 367.766 179.315C367.771 179.284 367.77 179.252 367.763 179.221C367.755 179.19 367.74 179.161 367.72 179.136Z" fill="black"/>
<path opacity="0.1" d="M364.458 181.418L362.98 179.284C362.946 179.238 362.896 179.207 362.84 179.197C362.784 179.187 362.727 179.2 362.679 179.232L360.495 180.702C360.471 180.718 360.45 180.738 360.434 180.762C360.418 180.786 360.407 180.813 360.401 180.842C360.395 180.87 360.395 180.899 360.401 180.928C360.406 180.956 360.417 180.983 360.433 181.007L361.802 183.112C361.834 183.16 361.883 183.193 361.939 183.206C361.995 183.218 362.053 183.209 362.102 183.179L364.411 181.747C364.437 181.73 364.46 181.708 364.477 181.681C364.494 181.655 364.505 181.625 364.51 181.593C364.514 181.562 364.512 181.53 364.503 181.5C364.494 181.47 364.479 181.442 364.458 181.418Z" fill="black"/>
<path opacity="0.1" d="M361.196 183.676L359.703 181.547C359.687 181.523 359.667 181.503 359.643 181.487C359.62 181.472 359.593 181.461 359.565 181.455C359.537 181.45 359.508 181.45 359.48 181.456C359.453 181.462 359.426 181.474 359.403 181.49L357.219 182.955C357.195 182.971 357.174 182.991 357.158 183.014C357.142 183.038 357.13 183.064 357.125 183.092C357.119 183.12 357.119 183.149 357.124 183.177C357.13 183.205 357.141 183.232 357.157 183.256L358.525 185.361C358.557 185.409 358.606 185.443 358.662 185.456C358.718 185.468 358.777 185.458 358.826 185.428L361.134 183.996C361.16 183.98 361.183 183.959 361.2 183.933C361.218 183.908 361.23 183.88 361.236 183.85C361.242 183.819 361.241 183.788 361.234 183.759C361.227 183.729 361.214 183.7 361.196 183.676Z" fill="black"/>
<path opacity="0.1" d="M395.202 155.198L394 153.48C393.928 153.38 393.821 153.312 393.7 153.29C393.579 153.268 393.454 153.293 393.352 153.361L391.592 154.564C391.491 154.633 391.422 154.739 391.397 154.859C391.372 154.979 391.394 155.104 391.459 155.208L392.56 156.903C392.629 157.004 392.734 157.075 392.854 157.101C392.974 157.127 393.099 157.105 393.204 157.041L395.083 155.862C395.186 155.79 395.257 155.679 395.279 155.555C395.302 155.43 395.274 155.302 395.202 155.198Z" fill="black"/>
<path opacity="0.1" d="M390.505 148.406L389.304 146.678C389.232 146.58 389.125 146.513 389.005 146.49C388.886 146.468 388.762 146.493 388.66 146.559L386.881 147.757C386.781 147.827 386.711 147.932 386.686 148.052C386.661 148.172 386.683 148.297 386.748 148.401L387.849 150.096C387.917 150.198 388.022 150.27 388.142 150.297C388.262 150.323 388.388 150.303 388.493 150.239L390.372 149.06C390.475 148.99 390.547 148.882 390.572 148.76C390.597 148.638 390.573 148.511 390.505 148.406Z" fill="black"/>
<path opacity="0.1" d="M392.002 157.413L390.8 155.7C390.729 155.601 390.622 155.534 390.502 155.512C390.382 155.49 390.259 155.514 390.157 155.58L388.378 156.778C388.278 156.849 388.209 156.955 388.185 157.075C388.161 157.195 388.184 157.319 388.249 157.423L389.346 159.117C389.414 159.22 389.519 159.292 389.639 159.318C389.759 159.345 389.885 159.324 389.99 159.26L391.869 158.081C391.922 158.047 391.967 158.002 392.003 157.949C392.038 157.897 392.063 157.838 392.075 157.775C392.088 157.713 392.088 157.649 392.075 157.587C392.063 157.525 392.038 157.466 392.002 157.413Z" fill="black"/>
<path opacity="0.1" d="M388.645 159.738L387.443 158.024C387.372 157.924 387.264 157.856 387.143 157.834C387.022 157.812 386.898 157.837 386.795 157.905L385.021 159.088C384.919 159.158 384.848 159.265 384.823 159.386C384.798 159.507 384.821 159.633 384.887 159.738L385.989 161.432C386.058 161.534 386.163 161.605 386.283 161.63C386.403 161.656 386.528 161.635 386.633 161.571L388.512 160.392C388.615 160.322 388.687 160.214 388.712 160.092C388.737 159.97 388.713 159.842 388.645 159.738Z" fill="black"/>
<path opacity="0.1" d="M385.245 162.096L384.048 160.378C383.976 160.278 383.869 160.21 383.748 160.188C383.627 160.165 383.502 160.191 383.4 160.258L381.621 161.475C381.521 161.546 381.452 161.652 381.428 161.772C381.404 161.892 381.427 162.016 381.492 162.12L382.594 163.814C382.663 163.916 382.768 163.987 382.888 164.013C383.008 164.038 383.133 164.017 383.238 163.953L385.112 162.774C385.166 162.739 385.213 162.694 385.249 162.64C385.286 162.587 385.311 162.527 385.323 162.463C385.336 162.4 385.335 162.335 385.322 162.272C385.309 162.208 385.282 162.149 385.245 162.096Z" fill="black"/>
<path opacity="0.1" d="M387.381 150.731L386.18 149.017C386.108 148.919 386.001 148.851 385.881 148.829C385.762 148.807 385.638 148.832 385.536 148.898L383.757 150.096C383.657 150.165 383.587 150.271 383.562 150.391C383.537 150.511 383.559 150.636 383.624 150.74L384.725 152.435C384.793 152.537 384.898 152.609 385.018 152.636C385.138 152.662 385.264 152.642 385.369 152.578L387.248 151.399C387.301 151.364 387.347 151.319 387.382 151.267C387.418 151.214 387.442 151.155 387.455 151.093C387.467 151.031 387.467 150.966 387.454 150.904C387.442 150.842 387.417 150.783 387.381 150.731Z" fill="black"/>
<path opacity="0.1" d="M384.024 153.06L382.822 151.341C382.75 151.242 382.643 151.174 382.522 151.151C382.401 151.129 382.276 151.154 382.174 151.222L380.4 152.406C380.299 152.476 380.229 152.581 380.204 152.701C380.179 152.821 380.202 152.946 380.266 153.05L381.368 154.745C381.437 154.846 381.542 154.917 381.662 154.943C381.782 154.969 381.907 154.947 382.011 154.883L383.89 153.704C383.991 153.634 384.061 153.529 384.086 153.409C384.111 153.289 384.088 153.164 384.024 153.06Z" fill="black"/>
<path opacity="0.1" d="M380.624 155.413L379.422 153.699C379.351 153.6 379.245 153.532 379.125 153.509C379.006 153.486 378.881 153.51 378.779 153.575L377 154.793C376.9 154.863 376.831 154.969 376.807 155.089C376.783 155.209 376.806 155.333 376.871 155.437L377.973 157.131C378.041 157.234 378.146 157.306 378.266 157.332C378.386 157.359 378.511 157.338 378.617 157.275L380.491 156.091C380.545 156.056 380.592 156.011 380.628 155.957C380.665 155.904 380.69 155.844 380.702 155.781C380.715 155.717 380.714 155.652 380.701 155.589C380.687 155.526 380.661 155.466 380.624 155.413Z" fill="black"/>
<path opacity="0.1" d="M381.85 164.449L380.648 162.736C380.577 162.636 380.471 162.568 380.351 162.545C380.231 162.522 380.107 162.546 380.005 162.611L378.24 163.814C378.14 163.885 378.071 163.991 378.047 164.111C378.023 164.231 378.046 164.355 378.111 164.459L379.194 166.153C379.262 166.254 379.366 166.325 379.485 166.352C379.604 166.379 379.728 166.359 379.833 166.296L381.712 165.113C381.765 165.078 381.81 165.034 381.846 164.982C381.881 164.93 381.906 164.871 381.919 164.81C381.932 164.748 381.932 164.684 381.921 164.623C381.909 164.561 381.885 164.502 381.85 164.449Z" fill="black"/>
<path opacity="0.1" d="M378.455 166.803L377.253 165.089C377.181 164.989 377.073 164.921 376.953 164.899C376.832 164.877 376.707 164.902 376.604 164.97L374.83 166.168C374.73 166.237 374.66 166.343 374.635 166.463C374.61 166.583 374.632 166.708 374.697 166.812L375.798 168.507C375.867 168.609 375.972 168.681 376.092 168.708C376.212 168.734 376.337 168.714 376.442 168.65L378.321 167.471C378.374 167.436 378.42 167.391 378.455 167.339C378.491 167.286 378.516 167.227 378.528 167.165C378.54 167.103 378.54 167.038 378.528 166.976C378.515 166.914 378.49 166.855 378.455 166.803Z" fill="black"/>
<path opacity="0.1" d="M375.207 169.37L373.714 167.241C373.698 167.218 373.678 167.197 373.654 167.182C373.63 167.166 373.604 167.155 373.576 167.15C373.548 167.144 373.519 167.145 373.491 167.151C373.463 167.157 373.437 167.168 373.414 167.184L371.229 168.659C371.205 168.675 371.185 168.695 371.169 168.718C371.152 168.742 371.141 168.768 371.135 168.796C371.13 168.824 371.129 168.853 371.135 168.881C371.14 168.909 371.151 168.936 371.167 168.96L372.536 171.065C372.551 171.089 372.571 171.11 372.594 171.127C372.618 171.144 372.644 171.156 372.672 171.162C372.7 171.168 372.729 171.169 372.757 171.163C372.786 171.158 372.812 171.147 372.836 171.132L375.145 169.7C375.172 169.684 375.196 169.662 375.215 169.636C375.233 169.61 375.246 169.581 375.252 169.549C375.258 169.518 375.257 169.486 375.249 169.455C375.241 169.424 375.227 169.395 375.207 169.37Z" fill="black"/>
<path opacity="0.1" d="M372.197 171.456L370.705 169.323C370.671 169.277 370.621 169.245 370.565 169.236C370.509 169.226 370.451 169.238 370.404 169.27L368.225 170.74C368.177 170.773 368.144 170.824 368.132 170.881C368.121 170.938 368.132 170.997 368.163 171.046L369.532 173.151C369.564 173.198 369.613 173.232 369.669 173.244C369.725 173.257 369.783 173.247 369.832 173.218L372.14 171.786C372.169 171.771 372.194 171.75 372.213 171.723C372.232 171.697 372.245 171.667 372.25 171.635C372.256 171.603 372.254 171.571 372.245 171.54C372.236 171.509 372.219 171.48 372.197 171.456Z" fill="black"/>
<path opacity="0.1" d="M368.831 173.786L367.338 171.657C367.305 171.611 367.254 171.579 367.198 171.57C367.142 171.56 367.085 171.572 367.038 171.604L364.853 173.074C364.829 173.09 364.809 173.11 364.793 173.134C364.776 173.157 364.765 173.184 364.759 173.212C364.754 173.24 364.753 173.269 364.759 173.297C364.764 173.325 364.776 173.351 364.791 173.375L366.16 175.485C366.192 175.532 366.241 175.566 366.297 175.578C366.353 175.591 366.411 175.581 366.461 175.552L368.769 174.12C368.796 174.103 368.82 174.081 368.839 174.055C368.858 174.029 368.87 173.999 368.876 173.967C368.882 173.935 368.881 173.903 368.873 173.871C368.865 173.84 368.851 173.811 368.831 173.786Z" fill="black"/>
<path opacity="0.1" d="M365.569 176.048L364.076 173.919C364.06 173.895 364.04 173.875 364.016 173.859C363.993 173.844 363.966 173.833 363.938 173.828C363.91 173.822 363.881 173.822 363.853 173.828C363.826 173.834 363.799 173.846 363.776 173.862L361.592 175.318C361.568 175.333 361.547 175.353 361.531 175.377C361.515 175.4 361.503 175.427 361.498 175.455C361.492 175.483 361.492 175.512 361.497 175.54C361.503 175.568 361.514 175.595 361.53 175.618L362.898 177.723C362.93 177.772 362.979 177.806 363.035 177.818C363.091 177.831 363.15 177.821 363.199 177.79L365.507 176.358C365.532 176.342 365.553 176.322 365.57 176.297C365.586 176.273 365.598 176.245 365.604 176.216C365.61 176.187 365.609 176.158 365.603 176.129C365.597 176.1 365.586 176.072 365.569 176.048Z" fill="black"/>
<path opacity="0.1" d="M386.408 156.506L385.207 154.793C385.135 154.694 385.028 154.627 384.908 154.605C384.789 154.583 384.665 154.607 384.563 154.674L382.784 155.876C382.684 155.947 382.615 156.053 382.591 156.173C382.567 156.293 382.59 156.417 382.655 156.521L383.757 158.215C383.826 158.316 383.93 158.386 384.049 158.411C384.168 158.437 384.292 158.416 384.396 158.354L386.275 157.175C386.328 157.14 386.374 157.095 386.409 157.043C386.445 156.99 386.469 156.931 386.482 156.869C386.494 156.806 386.494 156.742 386.481 156.68C386.469 156.618 386.444 156.559 386.408 156.506Z" fill="black"/>
<path opacity="0.1" d="M383.008 158.864L381.807 157.146C381.735 157.046 381.627 156.978 381.506 156.956C381.385 156.934 381.261 156.959 381.158 157.027L379.384 158.23C379.283 158.299 379.214 158.405 379.189 158.525C379.164 158.645 379.186 158.77 379.251 158.874L380.352 160.569C380.42 160.671 380.525 160.743 380.645 160.769C380.765 160.796 380.891 160.775 380.996 160.712L382.875 159.528C382.927 159.493 382.972 159.449 383.007 159.396C383.042 159.344 383.067 159.286 383.079 159.224C383.092 159.162 383.092 159.099 383.08 159.037C383.067 158.975 383.043 158.917 383.008 158.864Z" fill="black"/>
<path opacity="0.1" d="M379.618 161.218L378.416 159.504C378.345 159.404 378.237 159.336 378.116 159.314C377.995 159.292 377.871 159.317 377.768 159.385L375.989 160.583C375.889 160.653 375.82 160.759 375.796 160.879C375.772 160.999 375.795 161.124 375.86 161.227L376.962 162.922C377.03 163.024 377.135 163.096 377.255 163.123C377.375 163.149 377.501 163.129 377.606 163.065L379.48 161.881C379.533 161.847 379.578 161.802 379.614 161.75C379.649 161.698 379.674 161.64 379.687 161.578C379.7 161.516 379.7 161.453 379.689 161.391C379.677 161.329 379.653 161.27 379.618 161.218Z" fill="black"/>
<path opacity="0.1" d="M376.218 163.571L375.016 161.857C374.944 161.759 374.838 161.692 374.718 161.67C374.598 161.647 374.475 161.672 374.372 161.738L372.594 162.936C372.494 163.007 372.425 163.113 372.401 163.233C372.377 163.352 372.4 163.477 372.465 163.58L373.567 165.294C373.635 165.395 373.739 165.466 373.858 165.493C373.976 165.519 374.101 165.5 374.206 165.437L376.084 164.258C376.14 164.224 376.188 164.178 376.226 164.124C376.263 164.07 376.289 164.008 376.301 163.944C376.314 163.879 376.313 163.813 376.298 163.749C376.284 163.685 376.257 163.624 376.218 163.571Z" fill="black"/>
<path opacity="0.1" d="M372.995 166.139L371.502 164.01C371.486 163.986 371.466 163.966 371.442 163.95C371.418 163.935 371.392 163.924 371.364 163.918C371.336 163.913 371.307 163.913 371.279 163.919C371.252 163.925 371.225 163.936 371.202 163.953L369.018 165.428C368.97 165.46 368.937 165.509 368.925 165.565C368.914 165.622 368.925 165.68 368.956 165.728L370.324 167.838C370.34 167.862 370.36 167.883 370.383 167.899C370.407 167.915 370.433 167.927 370.461 167.932C370.489 167.938 370.518 167.938 370.546 167.933C370.574 167.927 370.601 167.916 370.625 167.9L372.933 166.468C372.96 166.452 372.984 166.431 373.003 166.405C373.021 166.379 373.034 166.349 373.04 166.318C373.046 166.287 373.045 166.254 373.037 166.223C373.029 166.192 373.015 166.164 372.995 166.139Z" fill="black"/>
<path opacity="0.1" d="M369.966 168.225L368.473 166.091C368.439 166.045 368.388 166.014 368.331 166.004C368.274 165.994 368.216 166.006 368.168 166.039L365.989 167.509C365.941 167.542 365.908 167.592 365.896 167.649C365.885 167.706 365.896 167.765 365.927 167.814L367.295 169.919C367.327 169.968 367.376 170.002 367.432 170.014C367.488 170.027 367.547 170.017 367.596 169.986L369.904 168.554C369.932 168.538 369.956 168.517 369.974 168.491C369.993 168.465 370.005 168.435 370.011 168.404C370.017 168.373 370.016 168.34 370.008 168.309C370 168.279 369.986 168.25 369.966 168.225Z" fill="black"/>
<path opacity="0.1" d="M366.6 170.545L365.107 168.411C365.073 168.365 365.022 168.333 364.965 168.324C364.908 168.314 364.85 168.326 364.802 168.359L362.618 169.829C362.571 169.862 362.539 169.913 362.527 169.969C362.516 170.026 362.526 170.085 362.556 170.134L363.929 172.239C363.961 172.288 364.01 172.322 364.066 172.334C364.122 172.347 364.181 172.337 364.23 172.306L366.533 170.874C366.562 170.859 366.587 170.838 366.606 170.813C366.626 170.787 366.639 170.757 366.646 170.725C366.652 170.694 366.651 170.661 366.643 170.63C366.635 170.599 366.621 170.569 366.6 170.545Z" fill="black"/>
<path opacity="0.1" d="M363.337 172.816L361.844 170.688C361.828 170.664 361.807 170.643 361.783 170.628C361.759 170.612 361.732 170.601 361.704 170.596C361.675 170.59 361.646 170.591 361.618 170.597C361.59 170.602 361.563 170.614 361.539 170.63L359.355 172.105C359.308 172.138 359.276 172.188 359.266 172.244C359.255 172.3 359.267 172.358 359.298 172.406L360.667 174.511C360.681 174.536 360.701 174.558 360.724 174.575C360.747 174.592 360.774 174.604 360.802 174.61C360.83 174.616 360.86 174.617 360.888 174.611C360.916 174.606 360.943 174.594 360.967 174.578L363.27 173.146C363.299 173.131 363.324 173.11 363.344 173.084C363.363 173.059 363.377 173.029 363.383 172.997C363.389 172.966 363.389 172.933 363.381 172.902C363.373 172.87 363.358 172.841 363.337 172.816Z" fill="black"/>
<path opacity="0.1" d="M362.307 178.306L360.815 176.177C360.781 176.131 360.731 176.1 360.675 176.09C360.619 176.08 360.561 176.093 360.514 176.125L358.33 177.595C358.306 177.61 358.285 177.63 358.269 177.654C358.253 177.678 358.242 177.704 358.236 177.732C358.23 177.76 358.23 177.789 358.235 177.817C358.241 177.845 358.252 177.872 358.268 177.896L359.637 180.005C359.669 180.053 359.718 180.086 359.774 180.099C359.829 180.111 359.888 180.102 359.937 180.072L362.245 178.64C362.273 178.624 362.297 178.602 362.316 178.576C362.334 178.549 362.347 178.519 362.353 178.487C362.359 178.456 362.358 178.423 362.35 178.392C362.342 178.361 362.327 178.331 362.307 178.306Z" fill="black"/>
<path opacity="0.1" d="M359.045 180.569L357.553 178.44C357.537 178.416 357.517 178.396 357.493 178.38C357.469 178.364 357.443 178.353 357.415 178.348C357.387 178.343 357.358 178.343 357.33 178.349C357.302 178.355 357.276 178.366 357.252 178.382L355.068 179.857C355.044 179.873 355.024 179.893 355.007 179.916C354.991 179.94 354.98 179.967 354.974 179.995C354.968 180.023 354.968 180.052 354.974 180.08C354.979 180.108 354.99 180.134 355.006 180.158L356.375 182.263C356.406 182.311 356.455 182.346 356.512 182.358C356.568 182.371 356.627 182.36 356.675 182.33L358.983 180.898C359.011 180.882 359.035 180.861 359.054 180.835C359.072 180.809 359.085 180.779 359.091 180.748C359.097 180.716 359.096 180.684 359.088 180.653C359.08 180.622 359.066 180.593 359.045 180.569Z" fill="black"/>
<path opacity="0.1" d="M364.167 167.041L362.737 165.036C362.692 164.974 362.624 164.931 362.549 164.918C362.473 164.905 362.395 164.921 362.331 164.964L360.271 166.353C360.239 166.375 360.212 166.402 360.19 166.434C360.169 166.466 360.154 166.502 360.146 166.539C360.139 166.577 360.139 166.616 360.146 166.654C360.154 166.691 360.169 166.727 360.19 166.759L361.478 168.74C361.498 168.773 361.524 168.801 361.555 168.824C361.586 168.846 361.622 168.862 361.659 168.87C361.696 168.879 361.735 168.88 361.773 168.873C361.81 168.866 361.846 168.852 361.878 168.831L364.058 167.461C364.094 167.442 364.125 167.415 364.15 167.383C364.176 167.351 364.194 167.314 364.204 167.275C364.214 167.235 364.217 167.194 364.21 167.154C364.204 167.114 364.189 167.075 364.167 167.041Z" fill="black"/>
<path opacity="0.1" d="M360.906 169.303L359.499 167.298C359.478 167.267 359.45 167.24 359.418 167.219C359.386 167.198 359.35 167.183 359.312 167.176C359.275 167.169 359.236 167.169 359.198 167.177C359.161 167.185 359.125 167.2 359.094 167.222L357.034 168.635C357.002 168.656 356.974 168.683 356.953 168.714C356.931 168.746 356.917 168.781 356.909 168.818C356.901 168.856 356.901 168.894 356.909 168.932C356.916 168.969 356.931 169.004 356.953 169.036L358.24 171.022C358.282 171.086 358.347 171.131 358.422 171.148C358.497 171.165 358.575 171.152 358.641 171.112L360.82 169.742C360.857 169.721 360.889 169.692 360.913 169.658C360.938 169.624 360.955 169.584 360.963 169.542C360.971 169.501 360.97 169.458 360.961 169.417C360.951 169.375 360.932 169.337 360.906 169.303Z" fill="black"/>
<path opacity="0.1" d="M357.644 171.566L356.237 169.557C356.192 169.494 356.124 169.452 356.049 169.439C355.973 169.425 355.895 169.442 355.831 169.485L353.771 170.874C353.739 170.895 353.712 170.923 353.69 170.954C353.669 170.986 353.654 171.022 353.646 171.06C353.639 171.098 353.639 171.137 353.646 171.174C353.654 171.212 353.669 171.248 353.69 171.28L354.978 173.261C354.998 173.293 355.024 173.322 355.055 173.344C355.086 173.366 355.122 173.382 355.159 173.391C355.196 173.399 355.235 173.4 355.273 173.393C355.31 173.387 355.346 173.372 355.378 173.351L357.558 171.981C357.591 171.961 357.621 171.933 357.643 171.901C357.666 171.868 357.682 171.831 357.69 171.792C357.698 171.753 357.698 171.713 357.69 171.674C357.682 171.635 357.666 171.599 357.644 171.566Z" fill="black"/>
<path opacity="0.1" d="M354.425 173.886L352.932 171.752C352.899 171.706 352.849 171.675 352.793 171.665C352.737 171.655 352.679 171.667 352.632 171.699L350.448 173.17C350.4 173.203 350.367 173.253 350.355 173.31C350.344 173.367 350.355 173.426 350.386 173.475L351.754 175.58C351.786 175.628 351.835 175.661 351.891 175.673C351.947 175.686 352.006 175.676 352.055 175.647L354.363 174.215C354.392 174.201 354.417 174.18 354.437 174.154C354.456 174.128 354.47 174.098 354.476 174.066C354.482 174.034 354.48 174.001 354.471 173.97C354.463 173.938 354.447 173.91 354.425 173.886Z" fill="black"/>
<path opacity="0.1" d="M393.023 151.857L391.73 150.019C391.658 149.92 391.55 149.853 391.429 149.832C391.308 149.811 391.184 149.837 391.082 149.905L386.037 153.442C385.939 153.513 385.872 153.618 385.849 153.737C385.826 153.856 385.848 153.979 385.913 154.081L387.129 155.962C387.164 156.014 387.209 156.059 387.261 156.093C387.313 156.128 387.372 156.152 387.433 156.164C387.495 156.176 387.558 156.176 387.62 156.163C387.681 156.151 387.739 156.126 387.791 156.091L392.913 152.506C393.011 152.433 393.077 152.324 393.098 152.204C393.118 152.083 393.091 151.959 393.023 151.857Z" fill="black"/>
<path opacity="0.1" d="M360.066 175.007L358.483 172.769C358.467 172.745 358.446 172.724 358.421 172.709C358.397 172.693 358.37 172.682 358.341 172.677C358.313 172.673 358.284 172.673 358.256 172.68C358.227 172.687 358.201 172.699 358.178 172.716L352.732 176.535C352.685 176.567 352.653 176.616 352.643 176.671C352.632 176.727 352.643 176.784 352.675 176.831L354.162 179.136C354.178 179.161 354.199 179.183 354.223 179.199C354.248 179.216 354.275 179.228 354.304 179.233C354.333 179.239 354.363 179.239 354.392 179.233C354.421 179.227 354.448 179.215 354.472 179.198L360.009 175.318C360.057 175.284 360.09 175.232 360.101 175.174C360.112 175.116 360.099 175.056 360.066 175.007Z" fill="black"/>
<path opacity="0.1" d="M377.39 157.886L375.931 155.747C375.898 155.701 375.849 155.668 375.792 155.658C375.736 155.647 375.678 155.659 375.631 155.69L363.537 163.862C363.49 163.894 363.457 163.943 363.445 164C363.433 164.056 363.444 164.114 363.475 164.163L364.968 166.454C364.984 166.479 365.004 166.5 365.029 166.517C365.053 166.533 365.081 166.545 365.11 166.551C365.139 166.557 365.168 166.557 365.197 166.551C365.226 166.545 365.254 166.533 365.278 166.516L377.333 158.191C377.357 158.175 377.377 158.154 377.393 158.13C377.409 158.106 377.42 158.079 377.425 158.05C377.43 158.022 377.43 157.993 377.424 157.965C377.418 157.936 377.407 157.91 377.39 157.886Z" fill="black"/>
</g>
<path d="M397.668 158.363L396.466 156.645C396.394 156.545 396.286 156.477 396.165 156.455C396.045 156.432 395.92 156.458 395.817 156.525L394.043 157.728C393.943 157.798 393.873 157.904 393.848 158.024C393.823 158.144 393.845 158.268 393.91 158.373L395.011 160.067C395.08 160.169 395.185 160.241 395.305 160.268C395.424 160.295 395.55 160.274 395.655 160.21L397.534 159.026C397.586 158.992 397.631 158.947 397.667 158.895C397.702 158.843 397.726 158.784 397.739 158.722C397.751 158.661 397.751 158.597 397.739 158.536C397.727 158.474 397.702 158.415 397.668 158.363Z" fill="#464A5F"/>
<path d="M394.454 160.578L393.252 158.864C393.18 158.766 393.073 158.699 392.954 158.676C392.834 158.654 392.71 158.679 392.608 158.745L390.829 159.943C390.729 160.013 390.659 160.118 390.634 160.238C390.609 160.358 390.631 160.483 390.696 160.587L391.797 162.282C391.866 162.384 391.971 162.456 392.091 162.483C392.211 162.509 392.336 162.489 392.441 162.425L394.32 161.246C394.373 161.211 394.419 161.166 394.454 161.114C394.49 161.061 394.515 161.002 394.527 160.94C394.539 160.878 394.539 160.814 394.527 160.751C394.514 160.689 394.489 160.63 394.454 160.578Z" fill="#464A5F"/>
<path d="M391.116 162.907L389.914 161.193C389.842 161.094 389.734 161.026 389.614 161.003C389.493 160.981 389.368 161.007 389.265 161.074L387.492 162.277C387.391 162.347 387.321 162.452 387.296 162.572C387.271 162.692 387.293 162.817 387.358 162.921L388.46 164.616C388.528 164.717 388.634 164.788 388.754 164.814C388.874 164.84 388.999 164.818 389.103 164.754L390.982 163.575C391.035 163.541 391.081 163.496 391.116 163.443C391.152 163.391 391.177 163.331 391.189 163.269C391.202 163.207 391.201 163.143 391.189 163.081C391.176 163.019 391.151 162.959 391.116 162.907Z" fill="#464A5F"/>
<path d="M387.711 165.26L386.509 163.542C386.437 163.444 386.331 163.376 386.211 163.354C386.091 163.332 385.968 163.356 385.865 163.423L384.087 164.625C384.034 164.661 383.989 164.706 383.955 164.759C383.92 164.812 383.897 164.871 383.885 164.934C383.873 164.996 383.874 165.06 383.888 165.121C383.901 165.183 383.926 165.242 383.963 165.294L385.064 166.988C385.132 167.09 385.237 167.162 385.357 167.189C385.477 167.216 385.603 167.195 385.708 167.131L387.582 165.948C387.637 165.913 387.685 165.866 387.722 165.812C387.759 165.758 387.784 165.697 387.796 165.632C387.808 165.568 387.807 165.501 387.792 165.437C387.777 165.373 387.75 165.313 387.711 165.26Z" fill="#464A5F"/>
<path d="M384.316 167.614L383.114 165.9C383.042 165.802 382.935 165.735 382.816 165.713C382.696 165.69 382.572 165.715 382.47 165.781L380.691 166.979C380.591 167.05 380.522 167.156 380.499 167.276C380.475 167.395 380.497 167.52 380.563 167.623L381.659 169.318C381.728 169.42 381.833 169.492 381.953 169.519C382.072 169.546 382.198 169.525 382.303 169.461L384.182 168.277C384.234 168.243 384.279 168.198 384.315 168.146C384.35 168.094 384.374 168.035 384.387 167.973C384.399 167.912 384.399 167.848 384.387 167.787C384.375 167.725 384.35 167.666 384.316 167.614Z" fill="#464A5F"/>
<path d="M381.068 170.182L379.575 168.053C379.559 168.029 379.539 168.009 379.515 167.993C379.492 167.977 379.465 167.967 379.437 167.961C379.409 167.956 379.38 167.956 379.352 167.962C379.325 167.968 379.298 167.979 379.275 167.996L377.091 169.471C377.067 169.486 377.046 169.506 377.03 169.53C377.014 169.553 377.002 169.58 376.997 169.608C376.991 169.636 376.991 169.665 376.996 169.693C377.002 169.721 377.013 169.748 377.029 169.771L378.397 171.876C378.429 171.925 378.478 171.959 378.534 171.971C378.59 171.984 378.649 171.974 378.698 171.943L381.006 170.511C381.034 170.495 381.058 170.474 381.076 170.448C381.095 170.422 381.107 170.392 381.113 170.361C381.119 170.33 381.118 170.297 381.11 170.266C381.102 170.235 381.088 170.207 381.068 170.182Z" fill="#464A5F"/>
<path d="M377.672 172.535L376.18 170.406C376.163 170.382 376.143 170.362 376.119 170.346C376.094 170.33 376.067 170.32 376.039 170.314C376.011 170.309 375.982 170.309 375.953 170.315C375.925 170.321 375.898 170.333 375.875 170.349L373.695 171.824C373.671 171.839 373.651 171.86 373.634 171.883C373.618 171.907 373.607 171.933 373.601 171.961C373.595 171.989 373.595 172.018 373.601 172.046C373.606 172.074 373.617 172.101 373.633 172.125L375.002 174.234C375.017 174.259 375.037 174.279 375.061 174.295C375.085 174.312 375.111 174.323 375.139 174.329C375.167 174.335 375.196 174.335 375.224 174.329C375.252 174.324 375.279 174.312 375.302 174.297L377.61 172.865C377.637 172.848 377.661 172.826 377.679 172.8C377.697 172.774 377.709 172.745 377.715 172.714C377.721 172.683 377.72 172.651 377.713 172.62C377.705 172.589 377.692 172.56 377.672 172.535Z" fill="#464A5F"/>
<path d="M374.663 174.621L373.17 172.487C373.137 172.441 373.087 172.41 373.031 172.4C372.975 172.39 372.917 172.403 372.87 172.435L370.686 173.886C370.638 173.919 370.605 173.969 370.593 174.026C370.582 174.083 370.593 174.142 370.624 174.191L371.993 176.296C372.025 176.344 372.074 176.377 372.13 176.39C372.185 176.402 372.244 176.393 372.293 176.363L374.601 174.931C374.626 174.915 374.647 174.895 374.664 174.87C374.681 174.846 374.692 174.818 374.698 174.789C374.704 174.76 374.704 174.73 374.698 174.702C374.692 174.673 374.68 174.645 374.663 174.621Z" fill="#464A5F"/>
<path d="M371.297 176.955L369.804 174.84C369.771 174.794 369.721 174.763 369.665 174.753C369.608 174.743 369.551 174.756 369.504 174.788L367.32 176.258C367.295 176.274 367.275 176.294 367.258 176.318C367.242 176.342 367.231 176.369 367.225 176.398C367.219 176.426 367.219 176.455 367.225 176.484C367.23 176.512 367.242 176.539 367.258 176.563L368.626 178.668C368.658 178.716 368.707 178.749 368.763 178.762C368.819 178.774 368.878 178.765 368.927 178.735L371.235 177.303C371.266 177.288 371.293 177.266 371.313 177.238C371.334 177.211 371.348 177.179 371.354 177.145C371.36 177.111 371.358 177.076 371.348 177.043C371.338 177.01 371.32 176.98 371.297 176.955Z" fill="#464A5F"/>
<path d="M368.035 179.213L366.542 177.084C366.526 177.06 366.506 177.04 366.482 177.024C366.458 177.009 366.432 176.998 366.404 176.993C366.376 176.987 366.347 176.988 366.319 176.993C366.291 176.999 366.265 177.011 366.242 177.027L364.058 178.502C364.034 178.517 364.013 178.537 363.997 178.561C363.981 178.585 363.969 178.611 363.963 178.639C363.958 178.667 363.958 178.696 363.963 178.724C363.969 178.752 363.98 178.779 363.996 178.803L365.364 180.908C365.379 180.932 365.399 180.953 365.422 180.97C365.446 180.986 365.472 180.998 365.5 181.005C365.528 181.011 365.557 181.011 365.586 181.006C365.614 181.001 365.641 180.99 365.665 180.974L367.973 179.542C368 179.527 368.024 179.505 368.043 179.479C368.061 179.453 368.074 179.423 368.08 179.392C368.086 179.361 368.085 179.329 368.077 179.298C368.069 179.267 368.055 179.238 368.035 179.213Z" fill="#464A5F"/>
<path d="M364.773 181.475L363.281 179.342C363.247 179.296 363.197 179.265 363.141 179.255C363.085 179.245 363.028 179.257 362.98 179.289L360.796 180.759C360.748 180.792 360.715 180.843 360.704 180.9C360.692 180.957 360.703 181.016 360.734 181.065L362.103 183.17C362.135 183.217 362.184 183.251 362.24 183.263C362.296 183.276 362.354 183.266 362.403 183.237L364.711 181.805C364.739 181.789 364.763 181.767 364.782 181.741C364.8 181.716 364.813 181.686 364.819 181.655C364.825 181.623 364.824 181.591 364.816 181.56C364.808 181.529 364.794 181.5 364.773 181.475Z" fill="#464A5F"/>
<path d="M361.511 183.733L360.019 181.604C360.003 181.581 359.982 181.56 359.959 181.544C359.935 181.529 359.908 181.518 359.88 181.513C359.852 181.507 359.824 181.508 359.796 181.513C359.768 181.519 359.742 181.531 359.718 181.547L357.534 183.022C357.51 183.037 357.489 183.057 357.473 183.081C357.457 183.105 357.446 183.131 357.44 183.159C357.434 183.187 357.434 183.216 357.44 183.244C357.445 183.272 357.456 183.299 357.472 183.323L358.841 185.428C358.856 185.452 358.876 185.473 358.899 185.49C358.922 185.507 358.949 185.518 358.977 185.525C359.005 185.531 359.034 185.531 359.062 185.526C359.09 185.521 359.117 185.51 359.141 185.494L361.449 184.062C361.477 184.047 361.501 184.025 361.519 183.999C361.538 183.973 361.551 183.943 361.557 183.912C361.562 183.881 361.561 183.849 361.554 183.818C361.546 183.787 361.531 183.758 361.511 183.733Z" fill="#464A5F"/>
<path d="M395.517 155.27L394.315 153.552C394.243 153.453 394.136 153.386 394.017 153.364C393.897 153.342 393.773 153.366 393.671 153.432L391.892 154.635C391.793 154.706 391.724 154.812 391.7 154.932C391.676 155.052 391.699 155.176 391.764 155.28L392.861 156.974C392.929 157.076 393.034 157.148 393.154 157.175C393.274 157.202 393.399 157.181 393.504 157.117L395.383 155.934C395.436 155.899 395.481 155.854 395.516 155.802C395.551 155.75 395.575 155.691 395.588 155.63C395.6 155.568 395.6 155.504 395.588 155.443C395.576 155.381 395.552 155.322 395.517 155.27Z" fill="#464A5F"/>
<path d="M390.819 148.464L389.618 146.75C389.546 146.652 389.439 146.584 389.32 146.562C389.2 146.54 389.076 146.564 388.974 146.631L387.195 147.829C387.095 147.899 387.026 148.005 387.002 148.125C386.978 148.245 387.001 148.37 387.066 148.473L388.168 150.168C388.236 150.269 388.34 150.34 388.459 150.366C388.578 150.393 388.702 150.373 388.807 150.311L390.686 149.132C390.739 149.097 390.785 149.052 390.82 149C390.856 148.947 390.88 148.888 390.893 148.826C390.905 148.763 390.905 148.699 390.893 148.637C390.88 148.575 390.855 148.516 390.819 148.464Z" fill="#464A5F"/>
<path d="M392.318 157.471L391.116 155.747C391.044 155.649 390.937 155.582 390.818 155.56C390.698 155.538 390.574 155.562 390.472 155.628L388.693 156.826C388.593 156.897 388.524 157.003 388.5 157.123C388.477 157.243 388.499 157.367 388.565 157.471L389.666 159.165C389.734 159.266 389.838 159.337 389.957 159.364C390.076 159.391 390.2 159.371 390.305 159.308L392.184 158.129C392.289 158.059 392.361 157.951 392.386 157.827C392.411 157.704 392.387 157.576 392.318 157.471Z" fill="#464A5F"/>
<path d="M388.96 159.795L387.777 158.081C387.705 157.983 387.599 157.916 387.479 157.894C387.359 157.872 387.236 157.896 387.133 157.962L385.355 159.16C385.253 159.231 385.184 159.338 385.16 159.459C385.136 159.58 385.159 159.706 385.226 159.809L386.323 161.504C386.392 161.605 386.497 161.676 386.617 161.702C386.737 161.728 386.862 161.707 386.966 161.642L388.845 160.463C388.897 160.427 388.941 160.381 388.974 160.328C389.008 160.275 389.031 160.215 389.042 160.153C389.052 160.091 389.051 160.027 389.036 159.966C389.022 159.904 388.996 159.846 388.96 159.795Z" fill="#464A5F"/>
<path d="M385.565 162.153L384.363 160.435C384.291 160.335 384.184 160.267 384.063 160.245C383.942 160.222 383.817 160.248 383.715 160.315L381.941 161.518C381.84 161.588 381.77 161.694 381.745 161.814C381.72 161.934 381.743 162.059 381.807 162.163L382.909 163.857C382.977 163.959 383.082 164.031 383.202 164.058C383.322 164.085 383.447 164.064 383.553 164L385.431 162.816C385.484 162.782 385.529 162.737 385.564 162.685C385.599 162.633 385.624 162.574 385.636 162.513C385.648 162.451 385.649 162.387 385.636 162.326C385.624 162.264 385.6 162.205 385.565 162.153Z" fill="#464A5F"/>
<path d="M387.696 150.788L386.495 149.065C386.423 148.966 386.316 148.899 386.197 148.877C386.077 148.855 385.953 148.879 385.851 148.946L384.072 150.144C383.972 150.214 383.903 150.32 383.879 150.44C383.855 150.56 383.878 150.685 383.943 150.788L385.045 152.482C385.113 152.584 385.217 152.655 385.336 152.681C385.455 152.708 385.579 152.688 385.684 152.626L387.563 151.447C387.667 151.377 387.74 151.268 387.765 151.145C387.79 151.021 387.765 150.893 387.696 150.788Z" fill="#464A5F"/>
<path d="M384.339 153.117L383.138 151.399C383.066 151.3 382.959 151.233 382.839 151.211C382.72 151.189 382.596 151.213 382.494 151.28L380.715 152.482C380.615 152.552 380.545 152.658 380.52 152.778C380.495 152.898 380.517 153.023 380.582 153.127L381.683 154.821C381.751 154.924 381.856 154.996 381.976 155.022C382.096 155.049 382.222 155.028 382.327 154.964L384.206 153.781C384.258 153.746 384.303 153.701 384.338 153.649C384.374 153.597 384.398 153.538 384.41 153.477C384.423 153.415 384.423 153.352 384.411 153.29C384.399 153.228 384.374 153.169 384.339 153.117Z" fill="#464A5F"/>
<path d="M380.944 155.471L379.742 153.757C379.67 153.657 379.563 153.589 379.442 153.567C379.321 153.545 379.196 153.57 379.094 153.638L377.32 154.836C377.219 154.905 377.149 155.011 377.124 155.131C377.099 155.251 377.122 155.376 377.186 155.48L378.288 157.179C378.356 157.282 378.461 157.354 378.581 157.38C378.701 157.407 378.826 157.386 378.931 157.323L380.806 156.139C380.859 156.104 380.905 156.06 380.941 156.007C380.977 155.955 381.002 155.896 381.015 155.834C381.028 155.772 381.028 155.707 381.016 155.645C381.004 155.583 380.979 155.523 380.944 155.471Z" fill="#464A5F"/>
<path d="M382.165 164.506L380.963 162.792C380.892 162.694 380.785 162.627 380.665 162.605C380.546 162.582 380.422 162.607 380.32 162.673L378.541 163.862C378.441 163.932 378.372 164.038 378.348 164.158C378.324 164.278 378.347 164.403 378.412 164.506L379.514 166.201C379.582 166.302 379.686 166.373 379.805 166.399C379.924 166.426 380.048 166.406 380.153 166.344L382.032 165.16C382.135 165.09 382.207 164.982 382.232 164.86C382.257 164.738 382.233 164.611 382.165 164.506Z" fill="#464A5F"/>
<path d="M378.769 166.86L377.567 165.146C377.496 165.048 377.389 164.98 377.269 164.958C377.149 164.936 377.026 164.96 376.924 165.027L375.145 166.249C375.044 166.318 374.974 166.424 374.949 166.544C374.925 166.664 374.947 166.789 375.011 166.893L376.113 168.587C376.181 168.69 376.286 168.762 376.406 168.788C376.526 168.815 376.652 168.794 376.757 168.731L378.635 167.552C378.692 167.517 378.741 167.471 378.778 167.416C378.816 167.362 378.842 167.3 378.855 167.235C378.867 167.17 378.866 167.103 378.851 167.038C378.837 166.974 378.809 166.913 378.769 166.86Z" fill="#464A5F"/>
<path d="M375.521 169.427L374.029 167.299C374.013 167.275 373.993 167.255 373.969 167.239C373.945 167.223 373.919 167.212 373.891 167.207C373.863 167.202 373.834 167.202 373.806 167.208C373.778 167.214 373.752 167.225 373.728 167.241L371.563 168.716C371.539 168.732 371.519 168.752 371.503 168.775C371.486 168.799 371.475 168.825 371.469 168.854C371.463 168.882 371.463 168.91 371.469 168.938C371.474 168.967 371.486 168.993 371.501 169.017L372.87 171.122C372.885 171.146 372.905 171.168 372.928 171.184C372.952 171.201 372.978 171.213 373.006 171.219C373.034 171.225 373.063 171.226 373.091 171.22C373.12 171.215 373.147 171.205 373.17 171.189L375.479 169.757C375.504 169.739 375.526 169.716 375.542 169.689C375.558 169.662 375.569 169.633 375.573 169.602C375.577 169.571 375.574 169.539 375.566 169.509C375.557 169.479 375.542 169.451 375.521 169.427Z" fill="#464A5F"/>
<path d="M372.518 171.499L371.025 169.366C370.991 169.319 370.94 169.288 370.883 169.278C370.826 169.268 370.768 169.281 370.72 169.313L368.536 170.783C368.489 170.817 368.457 170.867 368.445 170.924C368.434 170.981 368.444 171.039 368.474 171.089L369.847 173.194C369.879 173.242 369.928 173.276 369.984 173.289C370.04 173.301 370.099 173.291 370.148 173.261L372.451 171.829C372.48 171.814 372.505 171.793 372.524 171.767C372.544 171.742 372.557 171.712 372.564 171.68C372.57 171.648 372.569 171.616 372.561 171.584C372.553 171.553 372.539 171.524 372.518 171.499Z" fill="#464A5F"/>
<path d="M369.146 173.848L367.653 171.714C367.619 171.668 367.569 171.637 367.513 171.627C367.457 171.617 367.4 171.629 367.353 171.661L365.168 173.132C365.121 173.164 365.087 173.215 365.076 173.272C365.064 173.329 365.075 173.388 365.106 173.437L366.475 175.542C366.507 175.589 366.556 175.623 366.612 175.635C366.668 175.648 366.726 175.638 366.776 175.609L369.084 174.177C369.113 174.162 369.138 174.141 369.158 174.116C369.177 174.09 369.19 174.06 369.196 174.028C369.202 173.996 369.201 173.963 369.192 173.932C369.183 173.9 369.167 173.872 369.146 173.848Z" fill="#464A5F"/>
<path d="M365.889 176.105L364.41 173.976C364.395 173.953 364.374 173.932 364.35 173.917C364.327 173.901 364.3 173.89 364.272 173.885C364.244 173.879 364.215 173.88 364.188 173.886C364.16 173.891 364.133 173.903 364.11 173.919L361.926 175.394C361.878 175.426 361.845 175.475 361.834 175.532C361.822 175.588 361.833 175.646 361.864 175.695L363.233 177.8C363.264 177.848 363.313 177.882 363.369 177.895C363.425 177.907 363.484 177.897 363.533 177.866L365.841 176.434C365.868 176.418 365.892 176.396 365.909 176.369C365.927 176.343 365.938 176.313 365.943 176.281C365.948 176.25 365.945 176.217 365.936 176.187C365.926 176.157 365.91 176.129 365.889 176.105Z" fill="#464A5F"/>
<path d="M386.724 156.569L385.527 154.85C385.455 154.75 385.347 154.682 385.226 154.66C385.106 154.638 384.981 154.663 384.878 154.731L383.1 155.934C383 156.004 382.931 156.11 382.907 156.23C382.883 156.35 382.906 156.475 382.971 156.578L384.072 158.273C384.141 158.374 384.247 158.445 384.367 158.471C384.486 158.497 384.612 158.475 384.716 158.411L386.59 157.232C386.643 157.197 386.688 157.153 386.723 157.1C386.758 157.048 386.782 156.99 386.795 156.928C386.807 156.866 386.807 156.803 386.795 156.741C386.783 156.68 386.759 156.621 386.724 156.569Z" fill="#464A5F"/>
<path d="M383.328 158.921L382.127 157.208C382.055 157.109 381.949 157.04 381.829 157.017C381.71 156.994 381.586 157.018 381.483 157.084L379.704 158.287C379.604 158.357 379.535 158.463 379.511 158.583C379.487 158.703 379.51 158.827 379.575 158.931L380.677 160.625C380.745 160.726 380.849 160.798 380.968 160.824C381.087 160.851 381.211 160.831 381.316 160.769L383.195 159.585C383.247 159.55 383.292 159.505 383.327 159.453C383.362 159.401 383.387 159.343 383.399 159.281C383.412 159.219 383.412 159.156 383.4 159.094C383.387 159.032 383.363 158.974 383.328 158.921Z" fill="#464A5F"/>
<path d="M379.933 161.275L378.717 159.566C378.645 159.466 378.537 159.398 378.416 159.376C378.296 159.354 378.171 159.379 378.068 159.447L376.332 160.64C376.232 160.71 376.162 160.815 376.137 160.935C376.112 161.055 376.134 161.18 376.199 161.284L377.3 162.979C377.369 163.081 377.474 163.153 377.594 163.18C377.714 163.207 377.839 163.186 377.944 163.122L379.823 161.943C379.874 161.907 379.918 161.86 379.951 161.807C379.984 161.753 380.007 161.694 380.017 161.632C380.027 161.57 380.025 161.506 380.01 161.445C379.996 161.384 379.97 161.326 379.933 161.275Z" fill="#464A5F"/>
<path d="M376.532 163.628L375.331 161.914C375.259 161.816 375.152 161.749 375.032 161.727C374.913 161.705 374.789 161.729 374.687 161.795L372.908 162.993C372.808 163.064 372.739 163.17 372.715 163.29C372.691 163.41 372.714 163.534 372.779 163.638L373.881 165.332C373.949 165.433 374.053 165.504 374.172 165.531C374.291 165.557 374.415 165.538 374.52 165.475L376.399 164.296C376.452 164.262 376.497 164.217 376.533 164.164C376.569 164.112 376.593 164.052 376.606 163.99C376.618 163.928 376.618 163.864 376.605 163.802C376.593 163.74 376.568 163.681 376.532 163.628Z" fill="#464A5F"/>
<path d="M373.29 166.196L371.797 164.067C371.781 164.043 371.76 164.023 371.736 164.007C371.712 163.991 371.685 163.98 371.656 163.975C371.628 163.97 371.599 163.97 371.571 163.976C371.542 163.982 371.516 163.993 371.492 164.01L369.308 165.485C369.26 165.517 369.227 165.566 369.215 165.622C369.204 165.679 369.215 165.737 369.246 165.785L370.614 167.895C370.63 167.919 370.651 167.94 370.675 167.956C370.699 167.973 370.726 167.984 370.754 167.99C370.782 167.996 370.812 167.996 370.84 167.99C370.868 167.984 370.895 167.973 370.92 167.957L373.223 166.525C373.251 166.51 373.275 166.489 373.294 166.463C373.313 166.437 373.326 166.407 373.333 166.376C373.339 166.345 373.339 166.312 373.331 166.281C373.324 166.25 373.309 166.221 373.29 166.196Z" fill="#464A5F"/>
<path d="M370.281 168.282L368.788 166.153C368.772 166.129 368.752 166.109 368.728 166.093C368.704 166.078 368.678 166.067 368.65 166.061C368.622 166.056 368.593 166.056 368.565 166.062C368.537 166.068 368.511 166.08 368.488 166.096L366.318 167.566C366.27 167.599 366.237 167.649 366.225 167.706C366.214 167.763 366.225 167.822 366.256 167.871L367.625 169.976C367.657 170.024 367.706 170.057 367.761 170.07C367.817 170.082 367.876 170.073 367.925 170.043L370.233 168.611C370.26 168.594 370.282 168.572 370.299 168.545C370.317 168.519 370.328 168.489 370.332 168.458C370.337 168.426 370.335 168.394 370.326 168.364C370.317 168.334 370.301 168.306 370.281 168.282Z" fill="#464A5F"/>
<path d="M366.914 170.616L365.421 168.482C365.387 168.436 365.336 168.405 365.279 168.395C365.223 168.385 365.164 168.398 365.116 168.43L362.937 169.9C362.889 169.933 362.856 169.983 362.844 170.04C362.833 170.097 362.844 170.156 362.875 170.205L364.244 172.31C364.275 172.359 364.324 172.393 364.38 172.405C364.436 172.418 364.495 172.408 364.544 172.377L366.852 170.945C366.88 170.93 366.904 170.908 366.922 170.882C366.941 170.856 366.953 170.826 366.959 170.795C366.965 170.764 366.964 170.731 366.956 170.701C366.949 170.67 366.934 170.641 366.914 170.616Z" fill="#464A5F"/>
<path d="M363.653 172.874L362.16 170.745C362.144 170.721 362.123 170.701 362.099 170.685C362.075 170.669 362.048 170.658 362.02 170.653C361.991 170.648 361.962 170.648 361.934 170.654C361.906 170.66 361.879 170.672 361.855 170.688L359.676 172.163C359.652 172.178 359.631 172.198 359.615 172.222C359.599 172.246 359.587 172.272 359.582 172.3C359.576 172.328 359.576 172.357 359.581 172.385C359.587 172.413 359.598 172.44 359.614 172.464L360.982 174.573C360.998 174.597 361.018 174.618 361.041 174.634C361.065 174.651 361.092 174.662 361.12 174.668C361.148 174.673 361.176 174.674 361.204 174.668C361.232 174.662 361.259 174.651 361.283 174.635L363.591 173.203C363.618 173.187 363.641 173.165 363.659 173.139C363.677 173.113 363.69 173.084 363.696 173.053C363.702 173.022 363.701 172.99 363.693 172.959C363.686 172.928 363.672 172.899 363.653 172.874Z" fill="#464A5F"/>
<path d="M362.627 178.368L361.134 176.234C361.1 176.188 361.049 176.157 360.992 176.147C360.935 176.137 360.877 176.15 360.829 176.182L358.645 177.652C358.597 177.685 358.564 177.735 358.552 177.792C358.541 177.849 358.552 177.908 358.583 177.957L359.952 180.062C359.984 180.11 360.033 180.143 360.089 180.156C360.144 180.168 360.203 180.159 360.252 180.129L362.56 178.697C362.589 178.683 362.614 178.662 362.633 178.636C362.653 178.61 362.666 178.58 362.673 178.549C362.679 178.517 362.678 178.484 362.67 178.453C362.663 178.422 362.648 178.393 362.627 178.368Z" fill="#464A5F"/>
<path d="M359.366 180.626L357.873 178.497C357.857 178.473 357.836 178.452 357.812 178.437C357.788 178.421 357.761 178.41 357.732 178.405C357.704 178.399 357.675 178.4 357.647 178.406C357.619 178.412 357.592 178.423 357.568 178.439L355.384 179.914C355.336 179.946 355.303 179.996 355.292 180.052C355.28 180.108 355.291 180.167 355.322 180.215L356.691 182.32C356.706 182.345 356.726 182.366 356.75 182.383C356.774 182.399 356.801 182.411 356.829 182.417C356.858 182.424 356.887 182.424 356.915 182.419C356.944 182.414 356.971 182.403 356.996 182.387L359.299 180.955C359.328 180.94 359.353 180.919 359.372 180.893C359.392 180.868 359.405 180.838 359.412 180.806C359.418 180.775 359.417 180.742 359.409 180.711C359.401 180.679 359.387 180.65 359.366 180.626Z" fill="#464A5F"/>
<path d="M364.482 167.103L363.075 165.094C363.03 165.031 362.963 164.989 362.887 164.976C362.812 164.962 362.734 164.979 362.67 165.022L360.596 166.411C360.532 166.455 360.488 166.522 360.473 166.597C360.457 166.673 360.473 166.752 360.515 166.817L361.802 168.803C361.845 168.867 361.911 168.912 361.987 168.928C362.063 168.945 362.142 168.93 362.208 168.888L364.382 167.519C364.417 167.499 364.448 167.472 364.472 167.44C364.496 167.408 364.513 167.372 364.523 167.333C364.532 167.294 364.533 167.253 364.526 167.214C364.519 167.174 364.504 167.137 364.482 167.103Z" fill="#464A5F"/>
<path d="M361.22 169.361L359.814 167.356C359.792 167.324 359.765 167.297 359.732 167.276C359.7 167.255 359.664 167.241 359.627 167.234C359.589 167.226 359.55 167.227 359.513 167.235C359.475 167.243 359.44 167.258 359.408 167.28L357.348 168.673C357.285 168.716 357.241 168.782 357.226 168.857C357.21 168.932 357.225 169.01 357.267 169.074L358.555 171.06C358.598 171.125 358.664 171.17 358.739 171.187C358.815 171.204 358.894 171.191 358.96 171.151L361.139 169.781C361.172 169.759 361.201 169.73 361.223 169.697C361.245 169.664 361.26 169.627 361.268 169.588C361.275 169.549 361.275 169.509 361.267 169.47C361.259 169.431 361.243 169.394 361.22 169.361Z" fill="#464A5F"/>
<path d="M357.958 171.623L356.528 169.614C356.484 169.552 356.417 169.51 356.342 169.496C356.267 169.483 356.19 169.499 356.127 169.542L354.062 170.931C353.999 170.975 353.954 171.042 353.939 171.118C353.924 171.193 353.939 171.272 353.981 171.337L355.269 173.323C355.312 173.387 355.378 173.433 355.454 173.449C355.53 173.465 355.609 173.45 355.674 173.409L357.854 172.039C357.889 172.019 357.92 171.993 357.945 171.961C357.969 171.93 357.987 171.893 357.997 171.854C358.007 171.815 358.009 171.774 358.002 171.735C357.995 171.695 357.98 171.657 357.958 171.623Z" fill="#464A5F"/>
<path d="M354.745 173.948L353.252 171.814C353.218 171.768 353.167 171.737 353.11 171.727C353.053 171.717 352.995 171.73 352.947 171.762L350.763 173.232C350.716 173.266 350.683 173.316 350.673 173.373C350.662 173.43 350.674 173.489 350.706 173.538L352.074 175.643C352.106 175.691 352.155 175.725 352.211 175.738C352.267 175.75 352.326 175.74 352.375 175.709L354.683 174.277C354.71 174.262 354.734 174.24 354.753 174.214C354.771 174.188 354.784 174.158 354.79 174.127C354.796 174.096 354.795 174.063 354.787 174.033C354.779 174.002 354.765 173.973 354.745 173.948Z" fill="#464A5F"/>
<path d="M393.342 151.929L392.069 150.086C391.996 149.987 391.888 149.92 391.767 149.899C391.646 149.878 391.522 149.904 391.42 149.972L386.346 153.509C386.248 153.58 386.181 153.685 386.158 153.804C386.135 153.923 386.158 154.046 386.222 154.148L387.443 156.029C387.478 156.081 387.523 156.126 387.575 156.16C387.627 156.195 387.686 156.219 387.748 156.231C387.809 156.243 387.873 156.243 387.934 156.23C387.995 156.218 388.054 156.193 388.106 156.158L393.223 152.573C393.321 152.501 393.388 152.394 393.41 152.275C393.432 152.155 393.408 152.031 393.342 151.929Z" fill="#464A5F"/>
<path d="M360.381 175.065L358.798 172.826C358.781 172.802 358.761 172.781 358.736 172.766C358.712 172.75 358.685 172.739 358.656 172.735C358.628 172.73 358.599 172.731 358.57 172.737C358.542 172.744 358.516 172.756 358.492 172.773L353.047 176.592C353 176.625 352.968 176.675 352.957 176.731C352.946 176.787 352.958 176.845 352.989 176.893L354.482 179.193C354.498 179.218 354.519 179.24 354.543 179.256C354.567 179.273 354.595 179.285 354.624 179.291C354.653 179.296 354.683 179.296 354.711 179.29C354.74 179.284 354.768 179.272 354.792 179.256L360.328 175.375C360.376 175.34 360.408 175.289 360.418 175.23C360.428 175.172 360.415 175.113 360.381 175.065Z" fill="#464A5F"/>
<path d="M377.705 157.943L376.275 155.819C376.242 155.771 376.192 155.738 376.135 155.726C376.078 155.715 376.018 155.726 375.97 155.757L363.881 163.919C363.857 163.935 363.836 163.955 363.82 163.978C363.804 164.002 363.792 164.028 363.787 164.056C363.781 164.085 363.781 164.113 363.786 164.141C363.792 164.17 363.803 164.196 363.819 164.22L365.307 166.511C365.323 166.536 365.343 166.557 365.368 166.574C365.392 166.591 365.42 166.602 365.448 166.608C365.477 166.614 365.507 166.614 365.536 166.608C365.565 166.602 365.592 166.59 365.617 166.573L377.672 158.249C377.716 158.212 377.745 158.16 377.751 158.103C377.757 158.045 377.741 157.988 377.705 157.943Z" fill="#464A5F"/>
<path opacity="0.1" d="M377.763 150.65L371.335 141.299C371.157 141.039 370.884 140.86 370.575 140.801C370.266 140.742 369.946 140.808 369.685 140.984L351.979 152.883C351.848 152.972 351.736 153.085 351.65 153.216C351.563 153.348 351.503 153.495 351.474 153.65C351.444 153.805 351.445 153.964 351.477 154.118C351.509 154.272 351.571 154.419 351.659 154.549L358.211 164.167C358.299 164.298 358.413 164.41 358.544 164.497C358.676 164.583 358.823 164.643 358.978 164.672C359.133 164.702 359.292 164.7 359.446 164.667C359.6 164.635 359.746 164.572 359.876 164.483L377.458 152.306C377.587 152.217 377.697 152.104 377.782 151.973C377.867 151.842 377.926 151.695 377.954 151.541C377.982 151.387 377.98 151.229 377.947 151.076C377.915 150.923 377.852 150.778 377.763 150.65Z" fill="black"/>
<path d="M378.059 150.707L371.631 141.356C371.452 141.097 371.179 140.919 370.87 140.86C370.561 140.801 370.242 140.866 369.981 141.041L352.298 152.95C352.167 153.038 352.054 153.15 351.967 153.282C351.879 153.413 351.819 153.56 351.789 153.715C351.758 153.87 351.759 154.03 351.791 154.184C351.823 154.339 351.885 154.486 351.974 154.616L358.507 164.225C358.595 164.355 358.708 164.467 358.84 164.554C358.971 164.641 359.119 164.7 359.274 164.73C359.428 164.759 359.587 164.757 359.741 164.725C359.896 164.692 360.042 164.629 360.171 164.54L377.763 152.363C377.891 152.274 378.001 152.16 378.085 152.029C378.169 151.897 378.227 151.75 378.254 151.596C378.282 151.443 378.279 151.285 378.245 151.132C378.211 150.979 378.148 150.835 378.059 150.707Z" fill="#939498"/>
<path d="M417.92 165.819L404.281 161.265L360.538 191.68L374.076 196.096C374.442 196.215 374.829 196.248 375.209 196.191C375.589 196.135 375.95 195.991 376.265 195.771L418.044 166.692C418.125 166.644 418.191 166.573 418.231 166.488C418.272 166.403 418.287 166.308 418.274 166.214C418.261 166.121 418.22 166.033 418.157 165.963C418.094 165.892 418.011 165.842 417.92 165.819Z" fill="#6C63FF"/>
</g>
<defs>
<clipPath id="clip0">
<rect width="517" height="362.087" fill="white"/>
</clipPath>
</defs>
</svg>
