<svg width="517" height="361" viewBox="0 0 517 361" fill="none" xmlns="http://www.w3.org/2000/svg">
<g clip-path="url(#clip0)">
<path d="M51.7822 61.3574C65.7582 61.3574 77.0879 50.0074 77.0879 36.0063C77.0879 22.0053 65.7582 10.6553 51.7822 10.6553C37.8063 10.6553 26.4766 22.0053 26.4766 36.0063C26.4766 50.0074 37.8063 61.3574 51.7822 61.3574Z" fill="#032B4D"/>
<path opacity="0.65" d="M48.6902 87.6133C59.3154 111.656 45.7617 139.341 29.8075 160.187C24.4677 167.178 18.5727 174.507 17.8324 183.276C16.9397 194.002 24.1901 203.861 32.7904 210.306C48.4779 222.052 69.9025 225.684 88.5729 219.756C104.707 214.636 118.271 203.07 134.547 198.408C161.763 190.599 190.612 203.544 213.92 219.674C230.419 231.077 248.087 244.971 267.977 242.528C281.972 240.81 293.849 230.968 301.91 219.38C305.802 213.785 309.188 207.514 314.854 203.741C318.224 201.494 322.181 200.305 326.138 199.455C362.276 191.717 400.629 210.601 436.288 200.889C460.374 194.345 479.578 175.26 491.52 153.3C503.463 131.341 509.037 106.546 513.68 81.9803C516.979 64.5307 519.716 45.6796 512.134 29.6314C504.111 12.6398 485.538 2.33901 466.873 0.408645C448.208 -1.52172 429.489 3.80588 412.294 11.3201C390.809 20.732 369.749 33.9065 346.3 33.9501C330.329 33.9829 315.099 27.8428 299.831 23.1586C274.302 15.3336 247.755 11.4455 221.301 7.85746C195.974 4.42206 170.396 1.2266 144.916 3.25512C126.888 4.68926 110.966 11.5928 93.4718 14.7883C82.0682 16.8713 70.6101 15.3335 59.4188 18.8235C45.6365 23.1423 31.4623 33.1486 30.7002 48.9078C29.9817 63.909 43.0564 74.8587 48.6902 87.6133Z" fill="#FDCA05"/>
<path d="M327.629 109.022C325.305 102.953 319.312 88.6878 315.365 91.5179C310.379 95.0951 320.351 110.898 320.351 110.898C320.635 113.799 315.028 119.835 312.023 122.846C312.023 122.606 312.023 122.469 312.023 122.469C311.995 122.584 311.951 122.694 311.893 122.796L311.642 122.66C311.575 122.901 311.454 123.123 311.288 123.309C311.288 122.9 311.261 122.66 311.261 122.66C310.684 125.109 300.614 128.211 300.614 128.211C300.614 128.211 300.342 128.211 299.874 128.211C297.076 128.211 289.793 127.579 286.418 122.169C284.673 119.239 282.44 116.629 279.816 114.453C278.917 113.748 277.825 113.333 276.686 113.265C267.361 112.665 259.812 107.937 258.304 106.928L258.026 106.737L257.966 106.912C257.613 106.405 257.27 105.865 256.949 105.309L256.785 105.009C259.042 103.874 260.941 102.135 262.272 99.9843C263.603 97.8341 264.313 95.3566 264.324 92.8267C264.324 92.734 264.324 92.6358 264.324 92.5431C265.144 91.1228 265.576 89.5108 265.576 87.8699V86.234L267.704 84.3363C268.679 83.4693 269.686 82.5532 270.181 81.359C270.38 80.8757 270.469 80.3542 270.442 79.8321C270.49 79.3849 270.423 78.9328 270.248 78.5187C270.073 78.1046 269.795 77.7421 269.441 77.4655C267.808 76.3367 265.086 77.4655 263.905 75.8951C263.361 75.1862 263.459 74.221 263.192 73.3867C262.648 71.6908 260.688 70.7747 258.875 70.7474C257.063 70.7201 255.326 71.38 253.585 71.8762C249.925 72.917 246.106 73.2756 242.317 72.9341C241.292 72.7513 240.24 72.7885 239.231 73.0431C238.614 73.2984 238.066 73.6956 237.631 74.2024C237.196 74.7092 236.886 75.3115 236.727 75.9605C236.592 76.4482 236.512 76.9492 236.487 77.4546C234.969 79.1705 234.129 81.3833 234.125 83.6765V87.8699C234.128 90.1085 234.929 92.2724 236.384 93.9718C236.556 95.9449 237.154 97.8568 238.139 99.5745C239.123 101.292 240.469 102.774 242.083 103.918C242.083 104.027 242.083 104.138 242.083 104.251L242.154 104.294C242.066 105.594 241.865 106.884 241.555 108.15V107.872C241.555 107.872 233.934 111.934 225.77 112.032H224.871C223.261 111.978 221.695 112.566 220.517 113.668C218.1 115.947 213.865 119.552 211.263 119.552C210.719 119.552 196.98 122.24 194.705 122.687L190.454 118.516L190.323 118.761L190.073 118.516C189.608 118.552 189.146 118.619 188.69 118.718C186.513 116.133 182.158 110.124 181.151 102.059C181.151 102.059 190.552 91.3325 187.095 81.3372C184.145 72.8195 176.018 91.0763 173.71 96.5783C173.307 97.5385 173.256 98.611 173.569 99.6048L181.206 124.263C180.478 126.174 180.27 128.244 180.601 130.262H180.514L186.077 137.411C186.077 137.411 190.263 139.199 196.811 139.166C201.611 139.174 206.367 138.26 210.822 136.473H212.112L211.868 136.565H218.492L222.705 149.331C222.563 150.492 220.528 166.704 218.895 170.33C218.41 171.542 218.191 172.844 218.252 174.148C218.338 176.652 218.746 179.136 219.466 181.536L223.157 181.4L223.015 181.689C219.891 188.107 214.671 199.542 211.584 210.23L206.212 221.136L210.24 270.05H210.403L210.714 270.099C211.149 270.164 211.802 270.262 212.662 270.371L212.347 270.917L203.469 285.64C203.469 285.64 197.138 298.624 211.144 296.175C211.144 296.175 216.32 294.67 218.432 285.814L227.642 277.16C227.642 277.16 228.072 271.413 225.465 269.117C225.301 266.462 224.888 258.707 225.525 256.843C226.292 254.585 222.259 228.623 222.259 228.623C222.259 228.623 236.836 198.332 245.665 197.579C246.312 197.534 246.962 197.619 247.575 197.83C254.831 200.197 263.622 217.772 266.207 223.241L266.327 223.492V223.541L266.425 223.754V223.814L266.512 223.999V224.048L266.588 224.217V224.255L266.654 224.392V224.446L266.703 224.55V224.593L266.735 224.67V224.713V224.762L266.763 224.828L267.911 258.882L268.026 258.942H268.08L267.982 259.645L267.481 263.163C267.481 263.163 273.812 276.522 273.425 278.213C273.039 279.903 277.644 286.681 284.165 284.8C290.686 282.919 286.805 272.313 286.805 272.313L280.523 259.345L280.246 258.767C280.871 258.383 281.462 257.943 282.009 257.453C282.009 257.453 280.093 243.532 282.009 240.522C283.925 237.512 284.502 223.775 284.502 223.775C284.502 223.775 283.158 214.369 280.855 210.23L271.21 175.74C274.1 178.434 276.348 179.486 278.226 179.415H278.536C279.362 179.431 280.177 179.228 280.899 178.826C281.286 178.607 281.651 178.349 281.987 178.057C282.052 178.002 282.112 177.942 282.167 177.877C284.851 175.62 279.097 166.775 275.837 161.518C272.696 156.447 277.023 142.667 277.35 141.642C277.64 141.428 277.952 141.246 278.281 141.097C278.956 140.807 279.68 140.65 280.414 140.633C283.539 140.742 287.382 142.542 292.139 143.447C295.445 144.01 298.796 144.271 302.149 144.227H302.345C303.679 144.227 304.887 144.2 305.867 144.161C306.761 144.126 307.635 143.889 308.425 143.469C309.102 143.073 309.715 142.577 310.243 141.997L318.593 132.546L318.376 132.65C318.78 131.578 318.78 130.395 318.376 129.324L327.199 114.055C327.645 113.303 327.915 112.46 327.989 111.588C328.063 110.716 327.94 109.839 327.629 109.022Z" fill="url(#paint0_linear)"/>
<path d="M228.497 275.868L219.608 284.402C217.572 293.127 212.57 294.605 212.57 294.605C199.054 297.015 205.162 284.244 205.162 284.244L213.735 269.712L214.791 267.918C214.791 267.918 220.903 266.064 224.975 267.176C225.489 267.317 225.964 267.575 226.363 267.929C228.916 270.148 228.497 275.868 228.497 275.868Z" fill="#444176"/>
<path d="M283.305 283.475C277.007 285.329 272.565 278.655 272.962 276.981C273.36 275.307 267.209 262.159 267.209 262.159L267.688 258.691L268.134 255.479L278.476 256.221L279.451 258.271L285.515 271.059C285.515 271.059 289.602 281.621 283.305 283.475Z" fill="#444176"/>
<path opacity="0.1" d="M226.461 269.379C225.487 271.053 217.589 270.208 213.74 269.684L214.796 267.89C214.796 267.89 220.909 266.036 224.981 267.148C225.495 267.29 225.969 267.547 226.369 267.901C226.423 268.806 226.461 269.379 226.461 269.379Z" fill="black"/>
<path opacity="0.1" d="M279.462 258.26C274.166 261.794 268.527 259.122 267.678 258.68L268.124 255.468L278.466 256.21L279.462 258.26Z" fill="black"/>
<path d="M280.899 239.698C279.048 242.665 280.899 256.395 280.899 256.395C274.786 261.963 267.568 257.879 267.568 257.879L266.48 224.304C266.48 224.304 254.445 196.663 245.926 197.405C237.407 198.146 223.337 228.012 223.337 228.012C223.337 228.012 227.223 253.609 226.483 255.823C225.742 258.037 226.483 268.806 226.483 268.806C225.187 271.031 211.672 268.806 211.672 268.806L207.785 220.574L212.945 209.81C215.912 199.275 220.952 187.998 223.968 181.673C225.465 178.526 226.466 176.607 226.466 176.607L236.319 174.551L268.298 167.909L279.788 209.81C282.009 213.889 283.305 223.165 283.305 223.165C283.305 223.165 282.75 236.732 280.899 239.698Z" fill="#565387"/>
<g opacity="0.1">
<path opacity="0.1" d="M270.53 257.879L269.441 224.305C269.441 224.305 257.406 196.663 248.887 197.405C248.507 197.442 248.132 197.526 247.771 197.656C256.078 200.42 266.48 224.305 266.48 224.305L267.569 257.879C269.84 259.038 272.4 259.506 274.933 259.226C273.398 259.041 271.907 258.585 270.53 257.879Z" fill="black"/>
<path opacity="0.1" d="M214.611 268.823L210.725 220.591L215.907 209.81C218.873 199.275 223.914 187.998 226.929 181.673C228.426 178.527 229.428 176.607 229.428 176.607L239.28 174.551L268.472 168.471L268.314 167.888L236.319 174.551L226.467 176.607C226.467 176.607 225.465 178.527 223.968 181.673C220.942 187.998 215.912 199.297 212.946 209.81L207.764 220.569L211.65 268.801C211.65 268.801 219.031 270.017 223.408 269.75C220.462 269.59 217.526 269.28 214.611 268.823Z" fill="black"/>
</g>
<path d="M192.092 119.404C192.092 119.404 181.538 119.95 183.018 131.09L185.979 131.461L190.421 126.64L192.642 122.562V121.635L192.092 119.404Z" fill="#CED2DF"/>
<path opacity="0.1" d="M192.092 119.404C192.092 119.404 181.538 119.95 183.018 131.09L185.979 131.461L190.421 126.64L192.642 122.562V121.635L192.092 119.404Z" fill="black"/>
<path d="M309.509 123.483C309.509 123.483 318.218 128.118 315.992 133.501L313.216 134.591L309.514 132.552L308.97 127.731L309.34 124.394L309.509 123.483Z" fill="#CED2DF"/>
<path opacity="0.1" d="M309.509 123.483C309.509 123.483 318.218 128.118 315.992 133.501L313.216 134.591L309.514 132.552L308.97 127.731L309.34 124.394L309.509 123.483Z" fill="black"/>
<path d="M253.59 75.6226H246.182C239.842 75.6226 234.702 80.7715 234.702 87.123C234.702 93.4745 239.842 98.6234 246.182 98.6234H253.59C259.93 98.6234 265.07 93.4745 265.07 87.123C265.07 80.7715 259.93 75.6226 253.59 75.6226Z" fill="#88455E"/>
<path d="M192.021 120.981L185.538 131.342L184.994 129.498L176.187 100.75C175.885 99.7701 175.934 98.7157 176.323 97.7673C178.549 92.347 186.398 74.3193 189.245 82.7443C192.576 92.5597 183.502 103.149 183.502 103.149C184.537 111.743 189.354 117.971 191.248 120.13C191.727 120.692 192.021 120.981 192.021 120.981Z" fill="#EC8C9C"/>
<path d="M308.121 125.43C308.121 125.43 318.305 115.784 317.919 111.89C317.919 111.89 308.29 96.3111 313.107 92.8048C316.917 90.0128 322.704 104.082 324.946 110.064C325.243 110.86 325.362 111.712 325.295 112.56C325.228 113.408 324.977 114.231 324.56 114.971L312.389 136.56L308.121 125.43Z" fill="#EC8C9C"/>
<path d="M242.197 98.536C242.197 98.536 244.048 110.407 238.681 114.862C233.314 119.317 254.053 119.29 254.053 119.29L261.461 112.425C261.461 112.425 252.942 104.447 255.533 98.5142L242.197 98.536Z" fill="#EC8C9C"/>
<path opacity="0.1" d="M241.827 112.076C241.827 112.076 249.791 118.014 257.749 111.334L270.709 138.234L269.969 171.067C269.969 171.067 243.117 184.977 232.008 176.449C220.898 167.92 230.157 163.465 230.157 163.465L227.566 138.24L230.342 121.913C230.342 121.913 235.339 114.121 235.715 114.121C236.09 114.121 241.827 112.076 241.827 112.076Z" fill="black"/>
<path d="M241.827 111.705C241.827 111.705 249.79 117.654 257.754 110.963L270.714 137.863L269.974 170.696C269.974 170.696 243.122 184.606 232.013 176.078C220.903 167.549 230.162 163.094 230.162 163.094L227.571 137.869L230.347 121.542C230.347 121.542 235.344 113.75 235.72 113.75C236.095 113.75 241.827 111.705 241.827 111.705Z" fill="white"/>
<path opacity="0.1" d="M241.827 108.93C241.827 108.93 234.278 113.238 226.08 113.025C225.311 113.001 224.545 113.13 223.826 113.405C223.108 113.681 222.451 114.096 221.894 114.628C219.559 116.875 215.471 120.43 212.94 120.43C212.396 120.43 196.643 123.582 196.643 123.582L192.479 119.41C192.479 119.41 186.274 131.56 183.312 131.004L188.685 138.054C188.685 138.054 198.869 142.504 212.2 137.127H219.978L224.05 149.74C224.05 149.74 222.014 166.808 220.348 170.516C218.683 174.224 220.893 181.46 220.893 181.46L235.519 180.915C235.519 180.915 236.259 173.679 237.369 172.735C238.48 171.792 233.483 139.903 233.483 139.903C233.483 139.903 230.152 121.908 242.372 115.419L241.827 108.93Z" fill="black"/>
<path opacity="0.1" d="M236.313 174.573C235.774 176.773 235.391 179.009 235.165 181.264L223.968 181.689C225.465 178.543 226.466 176.623 226.466 176.623L236.313 174.573Z" fill="black"/>
<path opacity="0.1" d="M192.021 120.981L185.538 131.341L184.994 129.498C187.373 127.132 190.16 122.186 191.27 120.125C191.727 120.692 192.021 120.981 192.021 120.981Z" fill="black"/>
<path d="M241.828 108.93C241.828 108.93 233.903 113.238 225.711 113.025C224.942 113.001 224.176 113.13 223.457 113.405C222.738 113.681 222.082 114.096 221.525 114.628C219.19 116.875 215.102 120.43 212.571 120.43C212.026 120.43 196.274 123.582 196.274 123.582L192.093 119.405C192.093 119.405 185.888 131.554 182.927 130.998L188.299 138.049C188.299 138.049 198.484 142.498 211.814 137.122H219.593L223.664 149.729C223.664 149.729 221.628 166.797 219.963 170.505C218.297 174.213 220.507 181.449 220.507 181.449L235.133 180.904C235.133 180.904 235.873 173.668 236.984 172.725C238.094 171.781 233.097 139.892 233.097 139.892C233.097 139.892 229.766 121.897 241.986 115.408L241.828 108.93Z" fill="#FF4568"/>
<path opacity="0.1" d="M257.754 107.806C257.754 107.806 265.309 113.575 275.396 114.241C276.499 114.31 277.554 114.72 278.417 115.413C280.96 117.575 283.116 120.157 284.791 123.047C288.862 129.727 298.862 128.986 298.862 128.986C298.862 128.986 308.583 125.927 309.138 123.533C309.138 123.533 309.416 136.62 315.529 133.457L307.489 142.738C306.982 143.324 306.361 143.801 305.664 144.137C304.966 144.474 304.207 144.664 303.434 144.696C300.413 144.816 295.166 144.854 290.735 143.992C284.067 142.695 279.255 139.543 275.739 142.324C275.739 142.324 271.112 156.791 274.258 161.987C277.404 167.184 282.967 175.898 280.371 178.128C277.774 180.359 274.628 180.168 269.446 174.791C264.264 169.414 263.704 160.324 263.704 160.324L264.999 136.953C264.999 136.953 260.002 119.328 255.201 115.806L257.754 107.806Z" fill="black"/>
<path opacity="0.1" d="M316.264 133.223L308.202 142.542C307.667 143.16 307.004 143.655 306.259 143.993C305.597 144.292 304.884 144.46 304.158 144.489C301.137 144.614 295.89 144.652 291.459 143.785C285.221 142.569 280.605 139.734 277.154 141.648C276.909 141.783 276.676 141.938 276.457 142.111C276.457 142.111 271.831 156.578 274.977 161.775C278.123 166.972 283.686 175.686 281.09 177.916C280.655 178.299 280.167 178.617 279.642 178.859C277.312 179.912 274.422 179.001 270.165 174.579C264.983 169.196 264.422 160.112 264.422 160.112L265.718 136.74C265.718 136.74 260.721 119.116 255.92 115.593L258.037 107.986C259.496 108.979 266.779 113.641 275.782 114.235C276.886 114.305 277.941 114.714 278.803 115.408C281.347 117.57 283.503 120.152 285.177 123.042C289.249 129.722 299.248 128.98 299.248 128.98C301.645 128.214 303.986 127.281 306.254 126.189C307.674 125.491 308.926 124.727 309.52 124.007C309.686 123.819 309.807 123.595 309.873 123.353C309.873 123.353 310.157 136.375 316.264 133.223Z" fill="black"/>
<path d="M315.893 133.408L307.837 142.738C307.394 143.25 306.864 143.679 306.27 144.003C305.509 144.417 304.664 144.65 303.799 144.685C300.778 144.81 295.53 144.848 291.099 143.981C285.085 142.809 280.572 140.126 277.17 141.658C276.781 141.828 276.416 142.046 276.081 142.307C276.081 142.307 271.455 156.774 274.601 161.971C277.747 167.168 283.31 175.882 280.714 178.112C280.378 178.401 280.013 178.655 279.625 178.87C277.23 180.195 274.269 179.415 269.778 174.775C264.596 169.392 264.036 160.308 264.036 160.308L265.331 136.936C265.331 136.936 260.334 119.312 255.533 115.789L257.754 107.812L258.021 107.997C259.48 108.989 266.763 113.652 275.766 114.246C276.869 114.315 277.925 114.725 278.787 115.418C281.33 117.581 283.486 120.163 285.161 123.053C289.232 129.733 299.232 128.991 299.232 128.991C301.629 128.225 303.97 127.292 306.237 126.199C307.919 125.338 309.291 124.394 309.503 123.533C309.503 123.533 309.503 123.702 309.503 124.002C309.666 126.254 310.483 136.194 315.893 133.408Z" fill="#FF4568"/>
<path opacity="0.1" d="M255.697 98.814H242.089C242.388 100.981 242.474 103.173 242.345 105.358C244.422 106.822 246.858 107.692 249.392 107.875C251.925 108.057 254.461 107.545 256.726 106.394C255.419 103.973 254.625 101.224 255.697 98.814Z" fill="black"/>
<path d="M250.347 107.621C257.811 107.621 263.862 101.559 263.862 94.0809C263.862 86.603 257.811 80.541 250.347 80.541C242.882 80.541 236.831 86.603 236.831 94.0809C236.831 101.559 242.882 107.621 250.347 107.621Z" fill="#EC8C9C"/>
<path opacity="0.1" d="M247.538 91.671C249.046 91.491 250.553 90.9566 252.039 91.2566C253.389 91.5292 254.538 92.4617 255.888 92.7452C258.49 93.2905 260.906 91.3711 262.871 89.5825L267.117 85.7108C268.059 84.8547 269.028 83.955 269.512 82.7771C269.997 81.5993 269.828 80.0506 268.794 79.309C267.242 78.2184 264.57 79.309 263.448 77.7603C262.942 77.0623 263.018 76.1244 262.757 75.2901C262.213 73.6215 260.34 72.7108 258.588 72.689C256.835 72.6672 255.158 73.3107 253.482 73.7796C249.95 74.806 246.257 75.1593 242.595 74.8212C241.607 74.6399 240.591 74.6752 239.618 74.9248C239.019 75.181 238.488 75.5745 238.068 76.0736C237.648 76.5727 237.351 77.1635 237.201 77.7985C236.363 80.7649 237.794 85.5472 239.231 88.2029C240.668 90.8585 244.669 92.0254 247.538 91.671Z" fill="black"/>
<path d="M247.538 91.2999C249.046 91.1199 250.553 90.5855 252.039 90.8855C253.389 91.1581 254.538 92.0906 255.888 92.3741C258.49 92.9194 260.906 91 262.871 89.2114L267.117 85.3397C268.059 84.4836 269.028 83.5839 269.512 82.406C269.997 81.2281 269.828 79.6795 268.794 78.9379C267.242 77.8473 264.57 78.9379 263.448 77.3892C262.942 76.6912 263.018 75.7533 262.757 74.919C262.213 73.2504 260.34 72.3397 258.588 72.3179C256.835 72.2961 255.158 72.9396 253.482 73.4085C249.95 74.4349 246.257 74.7882 242.595 74.4501C241.607 74.2688 240.591 74.3041 239.618 74.5537C239.019 74.8099 238.488 75.2034 238.068 75.7025C237.648 76.2016 237.351 76.7924 237.201 77.4274C236.363 80.3938 237.794 85.1761 239.231 87.8318C240.668 90.4874 244.669 91.6271 247.538 91.2999Z" fill="#88455E"/>
<path opacity="0.1" d="M223.962 149.827C223.962 149.827 226.923 150.198 228.404 152.052C229.884 153.906 232.475 154.462 232.475 154.462" fill="black"/>
<path opacity="0.1" d="M197.296 125.337C197.296 125.337 199.713 130.741 198.221 131.287C196.73 131.832 197.296 135.736 197.296 135.736" fill="black"/>
<g opacity="0.1">
<path opacity="0.1" d="M198.129 123.483C198.129 123.483 213.865 120.331 214.409 120.331C216.946 120.331 221.028 116.776 223.364 114.529C224.074 113.848 224.947 113.361 225.9 113.117H225.699C224.93 113.093 224.164 113.222 223.445 113.498C222.727 113.773 222.07 114.188 221.513 114.72C219.178 116.967 215.09 120.522 212.559 120.522C212.118 120.522 202.048 122.524 197.96 123.336L198.129 123.483Z" fill="#FF4568"/>
<path opacity="0.1" d="M241.849 109.709V109.017C238.064 110.95 233.99 112.256 229.787 112.883C233.957 112.511 238.035 111.438 241.849 109.709Z" fill="#FF4568"/>
<path opacity="0.1" d="M222.389 181.356C222.389 181.356 220.168 174.12 221.845 170.412C223.521 166.704 225.546 149.636 225.546 149.636L221.486 137.023H213.685L213.212 137.209H219.608L223.663 149.827C223.663 149.827 221.627 166.895 219.962 170.603C218.296 174.311 220.506 181.547 220.506 181.547L235.132 181.002V180.887L222.389 181.356Z" fill="#FF4568"/>
</g>
<g opacity="0.1">
<path opacity="0.1" d="M280.899 175.145C280.563 175.435 280.198 175.689 279.81 175.903C277.415 177.228 274.454 176.449 269.963 171.808C265.848 167.538 264.651 160.902 264.33 158.388L264.221 160.308C264.221 160.308 264.765 169.398 269.963 174.775C274.454 179.431 277.415 180.195 279.81 178.87C280.198 178.655 280.563 178.401 280.899 178.112C281.677 177.441 281.721 176.181 281.313 174.611C281.211 174.815 281.071 174.996 280.899 175.145Z" fill="black"/>
<path opacity="0.1" d="M313.276 133.686L308.034 139.755C307.591 140.267 307.06 140.696 306.466 141.02C305.705 141.434 304.86 141.668 303.995 141.702C300.974 141.827 295.727 141.866 291.296 140.999C285.281 139.826 280.769 137.143 277.367 138.676C276.978 138.845 276.612 139.063 276.278 139.325C276.278 139.325 273.29 148.671 273.747 155.035C274.101 149.085 276.278 142.291 276.278 142.291C276.612 142.03 276.978 141.812 277.367 141.642C280.774 140.11 285.281 142.793 291.296 143.965C295.727 144.827 300.968 144.788 303.995 144.669C304.86 144.634 305.705 144.401 306.466 143.987C307.059 143.667 307.589 143.244 308.034 142.738L316.095 133.419C315.678 133.679 315.206 133.839 314.717 133.885C314.228 133.932 313.734 133.863 313.276 133.686Z" fill="black"/>
</g>
<path d="M76.5537 200.48C76.6183 200.543 76.7014 200.583 76.7906 200.595C76.8798 200.607 76.9704 200.589 77.0491 200.545C76.8816 200.548 76.7147 200.526 76.5537 200.48Z" fill="url(#paint1_linear)"/>
<path d="M132.026 110.151C131.047 109.867 129.648 109.404 127.966 108.815C129.714 106.562 130.993 103.981 131.727 101.224L131.586 101.279C131.635 101.11 131.684 100.946 131.727 100.771C128.499 102.086 124.928 99.8608 122.653 97.0034C120.378 94.1461 118.843 90.6016 116.35 87.9732C115.311 86.9276 114.194 85.9633 113.008 85.0886C112.273 84.5433 111.484 83.9271 110.586 83.8998C109.132 83.8562 107.995 85.2849 106.596 85.7048C105.675 85.9123 104.717 85.8766 103.814 85.6012C100.205 84.7723 96.7379 83.24 93.0528 82.8365C91.0812 82.5925 89.08 82.8186 87.2122 83.4963C85.3615 84.1997 84.5178 85.6012 83.0209 86.7245C81.3879 87.9296 78.1982 87.9023 76.2985 88.115C73.9932 88.3788 71.672 88.4754 69.3529 88.404C68.0201 88.2882 66.6782 88.3377 65.3575 88.5513C62.5978 89.1565 60.3824 91.3541 58.314 93.459C57.7494 93.9351 57.343 94.5724 57.1491 95.2857C57.1226 95.4866 57.1226 95.6901 57.1491 95.891C57.1283 96.4408 57.2229 96.9888 57.4267 97.4997C58.0634 99.3924 58.9632 101.186 60.0993 102.827C60.9431 104.038 61.9283 105.178 62.4073 106.612C62.6343 107.317 62.7536 108.052 62.7611 108.793C62.7376 109.579 62.6557 110.363 62.5162 111.138C62.1509 113.279 61.5503 115.373 60.7253 117.381C60.2132 118.412 59.8608 119.516 59.6802 120.653C59.6647 120.886 59.6647 121.119 59.6802 121.351C59.5441 124.95 63.1693 127.54 63.8715 131.118C63.9292 131.414 63.9638 131.715 63.9749 132.017C63.8987 134.248 62.6305 136.429 60.758 137.296C60.9213 137.361 61.09 137.416 61.2588 137.47C61.0977 137.572 60.9304 137.663 60.758 137.743C61.1009 137.874 61.4493 137.988 61.8031 138.081C59.675 139.938 57.8864 142.152 56.5177 144.625C50.2198 156.37 7.56653 179.377 7.56653 179.377L8.19795 179.737L7.68628 180.069C3.99576 182.529 -4.66446 189.699 3.16294 198.768C3.16294 198.768 9.27571 189.105 13.5595 184.988C13.7501 184.802 13.9406 184.633 14.1039 184.475C14.198 184.62 14.2611 184.784 14.2892 184.954C14.3173 185.125 14.3098 185.3 14.2672 185.468L42.3108 169.681C42.3108 169.681 52.2774 162.69 55.0589 161.115C57.0167 159.893 59.1471 158.973 61.3785 158.388L61.0519 158.524C62.1005 158.235 63.1815 158.082 64.2689 158.066C69.2331 158.143 74.6111 161.785 76.3801 176.209C78.7534 195.523 77.6538 199.008 76.8918 199.482C76.7978 199.475 76.7048 199.459 76.6142 199.433C76.6377 199.454 76.6632 199.472 76.6904 199.487C76.5871 199.48 76.4849 199.462 76.3856 199.433C76.4404 199.483 76.5072 199.519 76.5796 199.536C76.6521 199.553 76.7277 199.551 76.7992 199.531C76.8508 199.547 76.905 199.551 76.9584 199.545C77.0118 199.538 77.0633 199.521 77.1095 199.493C77.2346 199.5 77.36 199.5 77.4851 199.493C77.4851 199.671 77.4724 199.853 77.447 200.038C77.4089 200.038 77.2238 200.142 77.447 200.153C77.3871 201.243 77.3926 202.427 77.447 203.664C74.9812 203.801 72.5154 203.948 70.3708 204.079L70.5613 203.059L70.6484 202.601C72.5426 202.448 74.3389 201.892 74.5512 200.354C75.0139 196.974 70.3817 195.169 66.4407 194.945C62.4998 194.721 38.8652 196.297 38.8652 196.297C38.8652 196.297 35.3217 200.894 46.562 202.296C46.8958 202.47 47.2424 202.652 47.6016 202.841C52.0052 205.355 57.9765 209.984 60.8396 212.264L61.237 212.58L59.9524 213.627C66.9034 215.203 73.6258 241.814 77.3327 253.979C81.0396 266.145 89.15 265.703 95.8724 263.898C102.17 262.208 102.949 243.886 103.052 241.585V241.35L114.254 255.212L115.103 256.264C115.43 256.435 115.753 256.595 116.072 256.744C124.553 260.785 133.921 253.036 131.259 244.202C128.565 235.297 124.384 222.128 121.597 216.561C119.262 211.899 116.246 204.155 114.418 199.307C114.655 199.212 114.886 199.101 115.109 198.975C115.109 198.975 115.065 198.757 114.995 198.359L115.109 198.299C115.109 198.299 112.387 184.274 112.267 174.305C112.267 174.131 112.267 173.949 112.267 173.76C112.267 173.651 112.267 173.542 112.267 173.438C114.292 172.975 115.577 172.795 115.577 172.795L115.615 172.359L115.381 172.408L116.508 159.49C116.508 159.49 120.645 150.672 117.477 147.002C116.514 145.929 115.87 144.606 115.621 143.185C115.076 139.81 115.621 134.177 122.996 129.498C134.351 122.284 138.782 116.411 138.782 116.411C138.782 116.411 138.978 112.201 132.026 110.151ZM109.475 119.115V113.144C111.582 113.041 113.732 113.286 115.849 113.144C116.889 113.072 117.919 112.898 118.925 112.626L119.436 112.981C116.338 115.368 113 117.424 109.475 119.115ZM77.2783 212.711C78.1111 213.289 78.9493 213.889 79.7713 214.494C80.2829 217.439 80.7347 219.516 80.7674 219.664C79.828 217.24 78.6597 214.912 77.2783 212.711Z" fill="url(#paint2_linear)"/>
<path d="M95.2735 207.804L94.7836 210.47L94.408 212.51L93.7221 216.24L87.0705 220.902C87.0705 220.902 86.4717 220.389 85.481 219.577C82.7594 217.33 77.0277 212.771 72.82 210.307C71.7388 209.615 70.5686 209.074 69.3418 208.698L95.2735 207.804Z" fill="#FFBDC6"/>
<path opacity="0.1" d="M95.273 207.804L94.7831 210.47C93.317 210.552 91.8462 210.477 90.3959 210.247L74.8772 210.47C74.1423 210.427 73.4565 210.367 72.8142 210.301C71.7329 209.61 70.5628 209.068 69.3359 208.693L95.273 207.804Z" fill="black"/>
<path d="M90.3961 209.81C90.3961 209.81 98.1582 211.141 98.5991 207.809C99.04 204.477 94.6092 202.721 90.8479 202.471C87.0866 202.22 64.459 203.812 64.459 203.812C64.459 203.812 60.4691 209.14 74.8774 210.029L90.3961 209.81Z" fill="#7679B4"/>
<path opacity="0.1" d="M95.2735 207.804L94.7836 210.47L94.408 212.51L93.7221 216.24L87.0705 220.902C87.0705 220.902 86.4717 220.389 85.481 219.577C82.7594 217.33 77.0277 212.771 72.82 210.307C71.7388 209.615 70.5686 209.074 69.3418 208.698L95.2735 207.804Z" fill="black"/>
<path opacity="0.1" d="M95.273 207.804L94.7831 210.47C93.317 210.552 91.8462 210.477 90.3959 210.247L74.8772 210.47C74.1423 210.427 73.4565 210.367 72.8142 210.301C71.7329 209.61 70.5628 209.068 69.3359 208.693L95.273 207.804Z" fill="black"/>
<path opacity="0.1" d="M90.3961 209.81C90.3961 209.81 98.1582 211.141 98.5991 207.809C99.04 204.477 94.6092 202.721 90.8479 202.471C87.0866 202.22 64.459 203.812 64.459 203.812C64.459 203.812 60.4691 209.14 74.8774 210.029L90.3961 209.81Z" fill="black"/>
<path d="M107.352 100.308H66.7832V148.502H107.352V100.308Z" fill="#A66477"/>
<path opacity="0.1" d="M107.352 100.308H66.7832V148.502H107.352V100.308Z" fill="black"/>
<path d="M19.2309 182.818C18.5614 182.987 17.7123 183.63 16.7597 184.568C12.6609 188.625 6.81489 198.141 6.81489 198.141C-0.675025 189.209 7.61505 182.147 11.1695 179.721C12.0295 179.132 12.6065 178.815 12.6065 178.815L19.2309 182.818Z" fill="#FFBDC6"/>
<path d="M94.8325 115.522C94.8325 115.522 96.8301 129.514 103.7 132.846C110.569 136.178 94.8325 142.394 94.8325 142.394L73.3262 134.4C73.3262 134.4 85.5191 130.403 83.0805 118.63L94.8325 115.522Z" fill="#FFBDC6"/>
<path d="M71.7969 199.695L71.307 202.361L70.9314 204.401L70.2456 208.131L63.5939 212.793C63.5939 212.793 62.9951 212.28 62.0045 211.468C59.2828 209.221 53.5511 204.663 49.3435 202.198C48.2622 201.506 47.0921 200.965 45.8652 200.589L71.7969 199.695Z" fill="#FFBDC6"/>
<path opacity="0.1" d="M71.7965 199.695L71.3066 202.361C69.8404 202.443 68.3697 202.368 66.9193 202.138L51.4006 202.361C50.6658 202.318 49.9799 202.258 49.3376 202.192C48.2563 201.501 47.0862 200.959 45.8594 200.584L71.7965 199.695Z" fill="black"/>
<path d="M66.8977 201.696C66.8977 201.696 74.6597 203.027 75.1006 199.695C75.5415 196.363 71.1107 194.585 67.3386 194.367C63.5664 194.149 40.9551 195.698 40.9551 195.698C40.9551 195.698 36.9652 201.025 51.3735 201.914L66.8977 201.696Z" fill="#7679B4"/>
<path opacity="0.1" d="M70.9094 204.406L70.2235 208.136L63.5719 212.798C63.5719 212.798 62.9731 212.286 61.9824 211.473L70.7787 204.248L70.9094 204.406Z" fill="black"/>
<path d="M114.798 255.25C114.493 255.101 114.185 254.943 113.873 254.776L113.062 253.74L102.349 240.107V240.347C102.278 242.61 101.506 260.66 95.4853 262.323C89.0568 264.1 81.2948 264.542 77.7512 252.551C74.2076 240.56 67.7737 214.353 61.1221 212.798L70.9852 204.69C70.9852 204.69 77.5171 212.324 80.1843 219.675C80.0864 219.206 75.5739 198.097 79.2971 194.367H111.663C111.663 194.367 116.649 208.621 120.089 215.689C122.756 221.174 126.757 234.142 129.342 242.915C131.901 251.597 122.963 259.231 114.798 255.25Z" fill="#565387"/>
<path opacity="0.1" d="M113.894 198.359C108.903 201.32 86.9557 200.115 79.8032 199.635L77.86 199.493C77.6477 199.493 77.8927 199.373 77.8927 199.373L78.0941 197.356L83.4121 183.81L111.902 167.277C111.325 169.016 111.129 171.683 111.178 174.742C111.32 184.547 113.894 198.359 113.894 198.359Z" fill="black"/>
<path d="M113.895 197.699C108.903 200.66 86.9559 199.455 79.8035 198.975L77.8602 198.833H77.5391L77.8929 198.741L79.6456 198.277L83.4123 183.172L111.902 166.628C111.325 168.367 111.129 171.034 111.178 174.093C111.32 183.881 113.895 197.699 113.895 197.699Z" fill="#F2F1F2"/>
<path opacity="0.1" d="M111.179 174.071C105.387 175.407 92.6392 179.339 87.7403 188.794C84.4743 195.109 81.7527 197.819 79.8095 198.953L77.8662 198.811L77.8989 198.691L79.6516 198.228L83.4183 183.123L111.908 166.579C111.32 168.367 111.13 171.012 111.179 174.071Z" fill="black"/>
<path opacity="0.1" d="M12.5796 178.821L19.2312 182.818C18.5617 182.987 17.7126 183.63 16.76 184.568C16.2157 182.932 12.7211 180.686 11.1426 179.726C12.0026 179.137 12.5796 178.821 12.5796 178.821Z" fill="black"/>
<path opacity="0.1" d="M76.6956 199.089C76.6215 199.131 76.536 199.147 76.4517 199.136C76.3675 199.126 76.2889 199.088 76.2275 199.029C76.3798 199.072 76.5375 199.093 76.6956 199.089Z" fill="black"/>
<path d="M91.7241 131.957C91.7241 131.957 85.7365 132.623 81.5235 128.184C81.5235 128.184 63.7893 133.293 57.8018 144.843C51.8142 156.392 11.0225 179.044 11.0225 179.044C11.0225 179.044 18.0987 183.041 17.4509 185.042L44.2753 169.496C44.2753 169.496 53.8064 162.609 56.4682 161.055C59.1299 159.5 73.7614 149.952 76.864 175.936C79.9667 201.92 76.864 198.839 76.864 198.839C76.864 198.839 81.3003 200.393 87.7505 187.933C94.2008 175.472 114.134 172.61 114.134 172.61L115.223 159.522C115.223 159.522 119.18 150.841 116.148 147.22C115.223 146.155 114.609 144.855 114.373 143.463C113.867 140.137 114.373 134.591 121.45 129.983C132.336 122.894 136.528 117.103 136.528 117.103C136.528 117.103 136.751 112.883 130.099 110.887C123.447 108.891 96.3999 98.0068 96.3999 98.0068L95.5126 101.78L116.796 116.885C116.796 116.885 106.154 125.545 97.7444 125.326C97.7117 125.288 99.263 131.734 91.7241 131.957Z" fill="#032B4D"/>
<path opacity="0.1" d="M95.8333 121.613C95.3091 119.824 94.9 118.002 94.6086 116.16L82.8566 119.29C83.371 121.537 83.279 123.88 82.5898 126.079C84.9916 126.721 87.529 126.639 89.8846 125.844C92.2402 125.049 94.3094 123.575 95.8333 121.608V121.613Z" fill="black"/>
<path d="M86.0738 125.85C93.0543 125.85 98.713 120.181 98.713 113.188C98.713 106.195 93.0543 100.526 86.0738 100.526C79.0933 100.526 73.4346 106.195 73.4346 113.188C73.4346 120.181 79.0933 125.85 86.0738 125.85Z" fill="#FFBDC6"/>
<path opacity="0.1" d="M92.7914 84.3909C96.2968 84.789 99.6335 86.2995 103.085 87.1174C103.947 87.3883 104.866 87.4241 105.746 87.221C107.085 86.8066 108.174 85.3997 109.557 85.4434C110.411 85.4434 111.19 86.0541 111.875 86.6157C113.012 87.4793 114.08 88.4291 115.071 89.4568C117.449 92.047 118.93 95.5369 121.102 98.3506C123.274 101.164 126.697 103.357 129.784 102.064C127.688 110.244 120.808 116.498 113.372 117.005C110.406 117.207 107.385 116.591 104.494 117.463C103.778 117.756 103.022 117.94 102.252 118.009C100.619 118.009 99.2688 116.487 98.2346 115.01C95.8178 111.531 93.88 107.583 91.1584 104.414C90.2602 103.367 89.1988 102.37 87.9305 102.179C86.6623 101.988 85.4919 102.593 84.3597 103.182C82.4927 104.153 80.5821 105.156 79.1342 106.814C77.6863 108.471 76.7719 110.953 77.3706 113.199C77.6918 114.41 78.432 115.5 78.4593 116.771C78.4593 118.789 76.7065 120.266 76.3527 122.224C76.2748 123.05 76.2457 123.881 76.2656 124.711C76.1078 127.404 74.3551 129.618 72.5152 131.303C71.8022 131.963 71.0075 132.666 70.8006 133.686C70.6591 134.379 70.8006 135.115 70.7081 135.818C70.4414 137.569 68.6995 138.452 67.1591 138.681C65.36 138.945 63.5231 138.727 61.8356 138.049C64.0129 137.029 65.3138 134.122 64.813 131.505C64.1272 127.901 60.5129 125.316 60.8177 121.64C60.9882 120.515 61.3257 119.421 61.8192 118.396C62.608 116.413 63.1811 114.351 63.5284 112.245C63.8846 110.624 63.8491 108.942 63.425 107.337C62.9623 105.925 62.0206 104.802 61.215 103.607C60.1241 101.984 59.2631 100.217 58.6567 98.3561C58.437 97.8062 58.353 97.2114 58.4118 96.622C58.5873 95.9268 58.9664 95.3001 59.5004 94.8225C61.4818 92.7449 63.6046 90.5801 66.2392 89.9803C67.498 89.7702 68.7782 89.7207 70.0494 89.833C72.2688 89.9038 74.4903 89.809 76.6957 89.5495C78.5137 89.3368 81.5946 89.3641 83.1296 88.1753C84.5612 87.0847 85.3722 85.6942 87.1413 84.9962C88.9467 84.334 90.8869 84.1262 92.7914 84.3909Z" fill="black"/>
<path opacity="0.1" d="M99.8184 215.132C99.8184 215.132 107.134 229.566 104.919 234.011L99.8184 215.132Z" fill="black"/>
<path opacity="0.1" d="M113.083 253.74L102.371 240.107V240.347C102.371 240.347 101.75 235.941 103.792 237.424C108.261 240.663 115.413 245.975 115.565 246.891C115.718 247.807 114.117 251.482 113.083 253.74Z" fill="black"/>
<g opacity="0.1">
<path opacity="0.1" d="M97.9247 125.288C97.9247 125.288 98.8283 129.04 95.9053 130.916C100.407 130.142 100.603 126.635 100.467 125.108C99.6265 125.245 98.7757 125.305 97.9247 125.288Z" fill="black"/>
<path opacity="0.1" d="M13.6901 178.155C13.6901 178.155 54.4818 155.504 60.4694 143.954C64.7641 135.666 75.1118 130.698 80.6095 128.549C76.5978 129.896 63.0985 135.06 58.0254 144.843C52.0378 156.392 11.2461 179.044 11.2461 179.044L13.6901 178.155Z" fill="black"/>
<path opacity="0.1" d="M105.861 123.527C112.801 121.346 119.437 115.964 119.437 115.964L98.1534 100.859L98.6379 98.7867L96.6021 97.9688L95.7148 101.742L116.998 116.847C113.583 119.537 109.84 121.781 105.861 123.527Z" fill="black"/>
<path opacity="0.1" d="M105.996 174.709C108.716 173.779 111.506 173.073 114.341 172.599L114.379 172.168C111.523 172.796 108.72 173.646 105.996 174.709Z" fill="black"/>
<path opacity="0.1" d="M80.2009 197.977H80.0049C79.9307 198.018 79.8452 198.035 79.761 198.024C79.6768 198.013 79.5982 197.976 79.5368 197.917C79.6891 197.959 79.8468 197.98 80.0049 197.977C80.7343 197.551 81.8284 194.236 79.5368 175.041C77.0873 154.549 67.4746 156.158 62.2109 158.513C67.5889 157.03 74.9917 158.312 77.0982 175.93C79.3898 195.125 78.2957 198.446 77.5663 198.866C78.5118 198.83 79.4268 198.522 80.2009 197.977Z" fill="black"/>
<path opacity="0.1" d="M77.5668 198.871C77.4086 198.874 77.2509 198.854 77.0986 198.811C77.16 198.87 77.2386 198.907 77.3228 198.918C77.4071 198.929 77.4926 198.912 77.5668 198.871Z" fill="black"/>
</g>
<path d="M92.7914 83.9603C96.2968 84.3583 99.6335 85.8688 103.085 86.6868C103.947 86.9577 104.866 86.9934 105.746 86.7904C107.085 86.3759 108.174 84.9691 109.557 85.0127C110.411 85.0127 111.19 85.6234 111.875 86.1851C113.012 87.0487 114.08 87.9985 115.071 89.0261C117.449 91.6163 118.93 95.1062 121.102 97.92C123.274 100.734 126.697 102.926 129.784 101.633C127.688 109.813 120.808 116.068 113.372 116.575C110.406 116.777 107.385 116.16 104.494 117.033C103.778 117.325 103.022 117.509 102.252 117.578C100.619 117.578 99.2688 116.057 98.2346 114.579C95.8178 111.1 93.88 107.152 91.1584 103.984C90.2602 102.937 89.1988 101.939 87.9305 101.748C86.6623 101.557 85.4919 102.162 84.3597 102.751C82.4927 103.722 80.5821 104.725 79.1342 106.383C77.6863 108.041 76.7719 110.522 77.3706 112.769C77.6918 113.979 78.432 115.07 78.4593 116.34C78.4593 118.358 76.7065 119.836 76.3527 121.793C76.2748 122.62 76.2457 123.45 76.2656 124.28C76.1078 126.974 74.3551 129.188 72.5152 130.873C71.8022 131.532 71.0075 132.236 70.8006 133.256C70.6591 133.948 70.8006 134.684 70.7081 135.388C70.4414 137.138 68.6995 138.021 67.1591 138.25C65.36 138.515 63.5231 138.296 61.8356 137.618C64.0129 136.598 65.3138 133.692 64.813 131.074C64.1272 127.47 60.5129 124.885 60.8177 121.21C60.9882 120.084 61.3257 118.991 61.8192 117.965C62.608 115.982 63.1811 113.92 63.5284 111.814C63.8846 110.193 63.8491 108.511 63.425 106.907C62.9623 105.494 62.0206 104.371 61.215 103.177C60.1241 101.553 59.2631 99.7859 58.6567 97.9254C58.437 97.3756 58.353 96.7807 58.4118 96.1914C58.5873 95.4962 58.9664 94.8695 59.5004 94.3919C61.4818 92.3143 63.6046 90.1494 66.2392 89.5496C67.498 89.3395 68.7782 89.2901 70.0494 89.4024C72.2688 89.4731 74.4903 89.3783 76.6957 89.1188C78.5137 88.9062 81.5946 88.9334 83.1296 87.7447C84.5612 86.6541 85.3722 85.2635 87.1413 84.5656C88.9467 83.9034 90.8869 83.6955 92.7914 83.9603Z" fill="#A66477"/>
<path d="M453.695 55.5389C453.695 55.468 453.695 55.4025 453.695 55.3371C453.695 55.2717 453.695 55.1953 453.662 55.1299H453.575C453.575 54.9827 453.575 54.8354 453.575 54.6773C453.358 49.6223 446.379 38.8635 443.582 42.0045C441.132 44.7637 444.828 51.7436 446.711 54.8845L446.88 55.1681L446.788 55.1081C446.788 55.1081 438.998 78.3816 438.078 79.2868C437.159 80.192 430.746 98.4923 422.293 100.554C420.622 100.952 419.234 101.311 418.069 101.644L418.162 101.333C418.706 99.5502 419.375 97.8652 419.648 95.8803C419.92 93.8954 419.648 91.4906 418.646 90.5254C418.156 90.0456 417.557 89.9801 417.155 89.2167C416.893 88.5471 416.753 87.8362 416.741 87.1173L416.022 78.2943L416.523 78.1416C419.55 77.171 422.484 74.8698 422.826 71.7725C422.721 71.8126 422.614 71.8471 422.505 71.8761C422.545 71.696 422.576 71.514 422.598 71.3308C420.056 72.3342 417.699 69.6949 415.249 68.5116C411.216 66.5321 406.606 68.3971 402.442 68.8497C397.722 69.3677 393.242 67.4046 388.42 67.7591C385.796 67.9608 382.878 69.744 383.02 72.3342C383.102 73.7574 384.109 74.9625 384.522 76.3258C385.567 79.6248 383.243 82.9348 381.207 85.7486C379.868 87.5971 378.584 89.8492 378.355 92.0195C373.668 87.1118 368.601 81.4407 368.013 79.3086L354.454 56.0351C354.454 56.0351 354.133 56.3786 353.616 56.8858C353.534 56.6349 353.436 56.3405 353.327 56.046C351.596 51.1874 346.697 39.4143 340.486 41.5737C334.276 43.7331 343.061 55.8006 346.882 60.6102L347.427 61.2754C347.106 61.3543 346.77 61.3392 346.458 61.2318L361.579 87.2154C361.579 87.2154 364.328 92.1886 366.848 93.5409C366.848 93.5409 385.633 117.267 385.861 122.011C386.09 126.755 394.309 139.412 394.309 139.412C394.309 139.412 397.058 159.975 392.246 163.59H392.306H392.344H392.404H392.459H392.567H392.638H392.709H392.801H392.878H392.987H393.041C392.812 163.814 392.578 164.059 392.339 164.327C388.774 168.285 384.218 176.77 390.445 191.199C399.606 212.466 400.983 220.798 400.983 220.798C400.983 220.798 383.564 221.703 380.135 222.379C377.098 222.979 365.291 223.399 362.591 223.47C361.628 222.347 358.781 219.86 354.938 223.47C350.126 227.991 346.692 243.101 346.692 243.101C346.692 243.101 344.857 255.305 351.046 252.136C351.046 252.136 358.378 241.967 360.436 241.514C361.459 241.29 362.542 239.78 363.37 238.324L363.413 238.351C363.462 238.351 363.664 238.242 363.99 238.111C365.514 237.506 369.711 236.05 373.021 236.775C374.833 237.173 382.606 237.266 390.755 237.244C388.915 241.661 385.616 253.058 385.616 253.058C385.616 253.058 384.239 263.686 388.812 263.25C392.078 262.928 397.085 254.569 399.698 249.797C401.592 248.407 407.019 243.423 411.031 243.799L438.062 233.405C438.062 233.405 444.474 229.79 441.04 217.815C438.318 208.294 430.572 188.805 427.513 181.209L427.421 181.013C426.68 179.175 426.234 178.085 426.234 178.085C424.977 174.617 424.153 171.007 423.779 167.337C423.752 167.048 423.73 166.753 423.708 166.464C424.087 166.305 424.444 166.098 424.77 165.848C424.77 165.848 422.25 140.317 424.77 137.601L424.813 137.552V137.52L424.857 137.465L424.955 137.34L425.075 137.187C425.211 137.007 425.374 136.783 425.559 136.511C427.001 134.395 429.69 129.564 428.917 123.86C428.885 123.613 428.845 123.363 428.798 123.113C428.502 121.566 427.973 120.073 427.23 118.685C427.121 118.107 427.054 117.522 427.029 116.934C427.029 116.602 427.029 116.236 427.029 115.844V115.778C427.029 115.673 427.029 115.567 427.029 115.462V115.386C427.029 115.129 427.072 114.84 427.11 114.6V114.502C427.11 114.404 427.127 114.304 427.159 114.202V114.077C427.159 113.979 427.203 113.881 427.225 113.783V113.679C427.257 113.548 427.29 113.417 427.333 113.286V113.221C427.366 113.112 427.402 113.005 427.442 112.899L427.491 112.774L427.6 112.512L427.655 112.381C427.698 112.283 427.747 112.185 427.796 112.087L427.834 112.005C427.9 111.885 427.969 111.767 428.041 111.65L428.101 111.558L428.281 111.301L428.368 111.187L428.558 110.958L428.645 110.86C428.743 110.756 428.841 110.653 428.95 110.554C431.928 107.828 445.215 87.7335 445.215 87.7335C445.215 87.7335 448.421 83.2129 448.421 80.2792C448.6 80.2138 454.267 61.2918 453.695 55.5389ZM418.026 224.446C417.699 221.349 417.372 217.51 417.073 213.54L422.255 221.632C422.255 221.632 421.765 224.097 418.026 224.446Z" fill="url(#paint3_linear)"/>
<path d="M363.995 222.734C363.995 222.734 360.893 217.826 356.233 222.292C351.574 226.758 348.254 241.612 348.254 241.612C348.254 241.612 346.479 253.609 352.467 250.495C352.467 250.495 359.543 240.5 361.557 240.058C363.571 239.616 365.77 234.06 365.77 234.06L363.995 222.734Z" fill="#493545"/>
<path d="M397.248 234.725C397.248 234.725 393.035 232.724 391.707 234.283C390.379 235.843 385.942 251.384 385.942 251.384C385.942 251.384 384.614 261.603 389.045 261.156C393.476 260.708 401.238 244.709 401.238 244.709L397.248 234.725Z" fill="#493545"/>
<path opacity="0.05" d="M397.248 234.725C397.248 234.725 393.035 232.724 391.707 234.283C390.379 235.843 385.942 251.384 385.942 251.384C385.942 251.384 384.614 261.603 389.045 261.156C393.476 260.708 401.238 244.709 401.238 244.709L397.248 234.725Z" fill="black"/>
<path d="M411.88 204.521L421.411 219.402C421.411 219.402 420.747 222.734 414.983 222.069L395.251 234.507C395.251 234.507 393.536 249.65 399.018 248.276C399.905 248.052 406.094 241.612 410.547 242.059L436.712 231.84C436.712 231.84 442.918 228.285 439.592 216.517C436.266 204.75 425.271 177.463 425.271 177.463L407.89 187.202L411.88 204.521Z" fill="#3E3D77"/>
<path opacity="0.05" d="M411.88 204.521L421.411 219.402C421.411 219.402 420.747 222.734 414.983 222.069L395.251 234.507C395.251 234.507 393.536 249.65 399.018 248.276C399.905 248.052 406.094 241.612 410.547 242.059L436.712 231.84C436.712 231.84 442.918 228.285 439.592 216.517C436.266 204.75 425.271 177.463 425.271 177.463L407.89 187.202L411.88 204.521Z" fill="black"/>
<path d="M417.867 226.507C419.196 234.949 411.662 235.614 411.662 235.614C411.662 235.614 377.74 236.279 373.75 235.39C369.76 234.501 364.437 236.944 364.437 236.944C357.562 232.724 363.108 222.287 363.108 222.287C363.108 222.287 377.299 221.845 380.625 221.196C383.951 220.547 400.797 219.626 400.797 219.626C400.797 219.626 399.469 211.408 390.597 190.534C384.571 176.356 388.964 168.013 392.431 164.125C393.316 163.093 394.34 162.19 395.474 161.442L422.745 162.772C422.715 164.15 422.766 165.529 422.897 166.9C423.363 171.61 424.586 176.214 426.517 180.533C424.965 180.533 414.988 189.863 414.988 189.863C414.988 189.863 416.534 218.071 417.867 226.507Z" fill="#3E3D77"/>
<path opacity="0.1" d="M365.1 223.176C365.1 223.176 379.291 222.734 382.617 222.085C385.942 221.436 402.789 220.531 402.789 220.531C402.789 220.531 401.461 212.313 392.589 191.439C386.563 177.261 390.956 168.918 394.423 165.03C395.308 163.999 396.332 163.096 397.466 162.347L422.733 163.58C422.733 163.318 422.733 163.034 422.733 162.789L395.463 161.458C394.329 162.207 393.305 163.11 392.42 164.141C388.969 168.035 384.56 176.373 390.585 190.55C399.48 211.408 400.797 219.626 400.797 219.626C400.797 219.626 383.923 220.515 380.624 221.18C377.326 221.845 363.108 222.271 363.108 222.271C363.108 222.271 357.567 232.713 364.436 236.95C364.436 236.95 364.643 236.852 364.98 236.71C360.414 232.004 365.1 223.176 365.1 223.176Z" fill="black"/>
<path d="M405.67 79.9248H391.926V114.791H405.67V79.9248Z" fill="#493545"/>
<path opacity="0.1" d="M405.67 79.9248H391.926V114.791H405.67V79.9248Z" fill="black"/>
<path d="M413.529 74.8102C414.003 74.9411 414.536 74.9575 414.857 75.6118C415.057 76.1348 415.165 76.6881 415.179 77.2477L416.044 88.0229C416.056 88.7284 416.193 89.4261 416.447 90.0841C416.812 90.8149 417.416 90.9021 417.889 91.3711C418.842 92.3199 419.119 94.6974 418.858 96.6332C418.597 98.569 417.938 100.227 417.421 101.977C416.681 104.486 416.191 107.305 415.151 109.421C414.112 111.536 412.223 112.692 411.004 110.915C409.784 109.137 409.948 105.549 409.719 102.61C409.338 97.702 407.427 93.4705 407.297 88.53C407.188 84.533 408.26 80.8031 408.93 77.0133C409.409 74.4122 409.436 71.2549 410.133 68.9155C410.715 71.6966 411.826 74.3413 413.529 74.8102Z" fill="#493545"/>
<path opacity="0.1" d="M413.529 74.8102C414.003 74.9411 414.536 74.9575 414.857 75.6118C415.057 76.1348 415.165 76.6881 415.179 77.2477L416.044 88.0229C416.056 88.7284 416.193 89.4261 416.447 90.0841C416.812 90.8149 417.416 90.9021 417.889 91.3711C418.842 92.3199 419.119 94.6974 418.858 96.6332C418.597 98.569 417.938 100.227 417.421 101.977C416.681 104.486 416.191 107.305 415.151 109.421C414.112 111.536 412.223 112.692 411.004 110.915C409.784 109.137 409.948 105.549 409.719 102.61C409.338 97.702 407.427 93.4705 407.297 88.53C407.188 84.533 408.26 80.8031 408.93 77.0133C409.409 74.4122 409.436 71.2549 410.133 68.9155C410.715 71.6966 411.826 74.3413 413.529 74.8102Z" fill="black"/>
<path d="M355.346 59.4922L350.028 63.9364C350.028 63.9364 349.397 63.1948 348.455 61.9951C344.759 57.2674 336.263 45.4071 342.266 43.2858C348.27 41.1646 353.017 52.7305 354.693 57.5073C355.118 58.7179 355.346 59.4922 355.346 59.4922Z" fill="#C77485"/>
<path d="M451.343 57.9381C449.128 61.2699 446.025 57.9381 446.025 57.9381C446.025 57.9381 445.628 57.3437 445.067 56.3839C443.244 53.2921 439.668 46.4376 442.035 43.722C444.757 40.6193 451.501 51.209 451.708 56.1767C451.772 56.7875 451.645 57.4032 451.343 57.9381Z" fill="#C77485"/>
<path d="M396.802 93.9174C396.802 93.9174 401.238 108.133 399.904 112.349C398.571 116.564 409.441 121.471 409.441 121.471H421.857C421.857 121.471 426.293 112.365 425.183 109.698C424.072 107.032 414.541 105.036 414.541 105.036C414.541 105.036 409 105.036 409.223 90.1548L396.802 93.9174Z" fill="#C77485"/>
<path opacity="0.1" d="M355.346 59.4927L350.028 63.9369C350.028 63.9369 349.397 63.1953 348.455 61.9956C350.387 61.6521 353.387 58.8274 354.699 57.5078C355.118 58.7184 355.346 59.4927 355.346 59.4927Z" fill="black"/>
<path opacity="0.1" d="M451.343 57.9383C449.128 61.2701 446.025 57.9383 446.025 57.9383C446.025 57.9383 445.628 57.344 445.067 56.3842L445.138 56.1606C446.575 57.1913 451.044 56.3133 451.708 56.1606C451.776 56.7769 451.648 57.3988 451.343 57.9383Z" fill="black"/>
<path opacity="0.1" d="M422.886 166.895C416.027 170.031 393.742 164.447 392.403 164.114C393.288 163.082 394.312 162.179 395.446 161.431L422.717 162.762C422.693 164.142 422.749 165.522 422.886 166.895Z" fill="black"/>
<path d="M399.687 106.132C399.687 106.132 394.369 107.91 386.83 101.022C386.83 101.022 369.956 84.3635 368.867 80.3665L355.803 57.4638C355.803 57.4638 350.262 63.4621 348.041 62.5733L362.672 88.1152C362.672 88.1152 365.334 93.0229 367.773 94.3316C367.773 94.3316 385.953 117.654 386.171 122.317C386.389 126.979 394.363 139.466 394.363 139.466C394.363 139.466 397.025 159.675 392.365 163.231C392.365 163.231 418.303 169.894 423.844 165.45C423.844 165.45 421.405 140.366 423.844 137.689C423.844 137.689 431.383 128.806 426.282 119.034C426.282 119.034 425.194 113.706 428.057 111.04C430.92 108.373 443.799 88.606 443.799 88.606C443.799 88.606 446.901 84.1618 446.901 81.2771C446.901 81.2771 452.666 61.7335 451.8 56.624C451.8 56.624 446.7 57.7146 445.149 56.624C445.149 56.624 437.61 79.5267 436.722 80.3883C435.835 81.2499 429.646 99.2666 421.427 101.268C413.208 103.269 411.896 104.153 411.896 104.153C411.896 104.153 427.855 114.148 420.099 118.587C412.342 123.025 399.687 106.132 399.687 106.132Z" fill="#032B4D"/>
<path opacity="0.1" d="M409.763 97.336C409.499 95.2438 409.392 93.135 409.441 91.0269L397.025 94.8003C397.352 95.6289 397.612 96.4823 397.804 97.3523C399.224 97.9794 401.14 99.4627 402.79 99.4627C405.285 99.5444 407.736 98.7966 409.763 97.336Z" fill="black"/>
<path d="M402.567 98.8031C408.934 98.8031 414.096 93.6322 414.096 87.2536C414.096 80.875 408.934 75.7041 402.567 75.7041C396.2 75.7041 391.038 80.875 391.038 87.2536C391.038 93.6322 396.2 98.8031 402.567 98.8031Z" fill="#C77485"/>
<path opacity="0.1" d="M388.85 69.4603C386.313 69.6566 383.483 71.4125 383.624 73.9591C383.7 75.3605 384.658 76.5438 385.077 77.8852C386.084 81.1298 383.842 84.3852 381.871 87.1554C379.901 89.9255 378.061 93.5954 379.748 96.5291C380.229 97.2354 380.749 97.9144 381.305 98.5631C383.39 101.382 383.363 105.188 384.288 108.575C385.47 112.907 388.263 116.621 392.094 118.954C395.925 121.287 400.502 122.061 404.885 121.117C403.235 119.007 402.413 116.365 402.572 113.69C402.697 111.748 403.323 109.72 402.572 107.926C401.603 105.619 398.762 104.709 397.298 102.691C395.833 100.673 395.931 97.876 396.639 95.4712C397.347 93.0664 398.571 90.8361 399.159 88.3823C399.304 87.6664 399.486 86.9583 399.703 86.2611C400.727 83.3491 403.786 81.6587 406.78 80.9335C409.773 80.2082 412.92 80.1646 415.843 79.2103C418.766 78.256 421.607 76.0203 421.945 72.9502C419.484 73.9372 417.203 71.3634 414.83 70.1801C410.922 68.2388 406.464 70.0656 402.436 70.5128C397.847 71.0253 393.493 69.1222 388.85 69.4603Z" fill="black"/>
<path d="M388.627 69.0189C386.09 69.2152 383.26 70.9711 383.401 73.5176C383.478 74.9191 384.436 76.1024 384.855 77.4438C385.862 80.6884 383.619 83.9438 381.649 86.7139C379.678 89.4841 377.838 93.154 379.526 96.0877C380.007 96.794 380.526 97.473 381.083 98.1216C383.167 100.941 383.14 104.747 384.065 108.133C385.247 112.466 388.041 116.18 391.872 118.513C395.702 120.845 400.28 121.619 404.663 120.675C403.013 118.565 402.19 115.924 402.349 113.248C402.475 111.307 403.101 109.279 402.349 107.484C401.38 105.178 398.539 104.267 397.075 102.25C395.611 100.232 395.709 97.4346 396.416 95.0298C397.124 92.625 398.349 90.3947 398.936 87.9409C399.082 87.2249 399.263 86.5169 399.481 85.8196C400.504 82.9077 403.563 81.2173 406.557 80.4921C409.551 79.7668 412.697 79.7232 415.62 78.7689C418.543 77.8146 421.384 75.5789 421.722 72.5088C419.262 73.4958 416.981 70.922 414.608 69.7387C410.699 67.7974 406.241 69.6242 402.213 70.0713C397.636 70.5785 393.297 68.6536 388.627 69.0189Z" fill="#493545"/>
<path opacity="0.1" d="M413.986 112.91C413.986 112.91 418.602 117.038 419.511 118.859L413.986 112.91Z" fill="black"/>
<path opacity="0.1" d="M423.975 137.563C423.975 137.563 418.211 137.563 415.549 138.229C412.887 138.894 406.459 138.229 406.459 138.229" fill="black"/>
<g opacity="0.1">
<path opacity="0.1" d="M420.083 118.57C419.586 118.855 419.048 119.061 418.488 119.181C419.934 119.502 421.447 119.285 422.745 118.57C430.507 114.126 414.542 104.136 414.542 104.136H411.88C411.88 104.136 427.845 114.132 420.083 118.57Z" fill="black"/>
<path opacity="0.1" d="M451.839 57.0114C451.839 56.8697 451.806 56.7333 451.784 56.6079C450.872 56.7972 449.951 56.9374 449.024 57.0278C449.96 57.1309 450.904 57.1254 451.839 57.0114Z" fill="black"/>
<path opacity="0.1" d="M395.033 163.215C399.687 159.659 397.031 139.45 397.031 139.45C397.031 139.45 389.051 127.012 388.828 122.35C388.605 117.687 370.43 94.3648 370.43 94.3648C367.991 93.0343 365.329 88.1484 365.329 88.1484C365.329 88.1484 350.252 63.4953 348.036 62.6064L362.668 88.1484C362.668 88.1484 365.329 93.0561 367.768 94.3648C367.768 94.3648 385.948 117.687 386.166 122.35C386.384 127.012 394.364 139.467 394.364 139.467C394.364 139.467 397.025 159.676 392.366 163.231C392.366 163.231 408.309 167.326 417.868 166.955C408.288 166.617 395.033 163.215 395.033 163.215Z" fill="black"/>
<path opacity="0.1" d="M399.818 106.307L399.687 106.138C399.536 106.183 399.381 106.217 399.225 106.241C399.431 106.269 399.627 106.29 399.818 106.307Z" fill="black"/>
</g>
<g opacity="0.1">
<path opacity="0.1" d="M451.784 56.5806L451.648 56.6078C451.414 63.4296 446.689 79.456 446.689 79.456C446.689 82.3406 443.587 86.7848 443.587 86.7848C443.587 86.7848 430.73 106.552 427.845 109.219C424.96 111.885 426.07 117.213 426.07 117.213L426.098 117.267C426.011 115.473 426.228 112.692 428.063 110.991C430.942 108.324 443.805 88.5571 443.805 88.5571C443.805 88.5571 446.907 84.1129 446.907 81.2282C446.907 81.2609 452.672 61.7173 451.784 56.5806Z" fill="black"/>
<path opacity="0.1" d="M423.632 135.895C423.964 137.781 423.741 135.786 423.855 137.672C423.855 137.672 429.298 131.276 427.812 123.369C428.259 130.436 423.632 135.895 423.632 135.895Z" fill="black"/>
</g>
<path opacity="0.4" d="M255.718 360.728C384.285 360.728 488.51 350.699 488.51 338.327C488.51 325.955 384.285 315.926 255.718 315.926C127.151 315.926 22.9268 325.955 22.9268 338.327C22.9268 350.699 127.151 360.728 255.718 360.728Z" fill="#032B4D"/>
<path d="M165.481 315.599C165.481 315.599 157.555 288.634 166.967 268.79C170.969 260.491 172.176 251.115 170.407 242.07C169.533 237.783 168.268 233.585 166.629 229.528" stroke="#535461" stroke-width="2" stroke-miterlimit="10"/>
<path d="M172.496 216.998C172.496 220.302 166.509 229.883 166.509 229.883C166.509 229.883 160.521 220.302 160.521 216.998C160.46 216.175 160.57 215.348 160.842 214.57C161.115 213.791 161.545 213.078 162.105 212.473C162.666 211.869 163.344 211.386 164.099 211.057C164.854 210.727 165.669 210.557 166.492 210.557C167.316 210.557 168.131 210.727 168.886 211.057C169.64 211.386 170.319 211.869 170.88 212.473C171.44 213.078 171.87 213.791 172.143 214.57C172.415 215.348 172.524 216.175 172.464 216.998H172.496Z" fill="#FF4568"/>
<path d="M182.354 235.298C180.563 238.073 170.352 242.861 170.352 242.861C170.352 242.861 170.537 231.568 172.327 228.792C172.725 228.072 173.266 227.441 173.917 226.939C174.568 226.437 175.315 226.074 176.112 225.874C176.909 225.674 177.739 225.64 178.549 225.775C179.36 225.91 180.134 226.21 180.824 226.658C181.513 227.105 182.104 227.69 182.558 228.376C183.012 229.062 183.321 229.834 183.464 230.644C183.608 231.455 183.583 232.286 183.392 233.087C183.201 233.887 182.848 234.64 182.354 235.298Z" fill="#FF4568"/>
<path d="M181.925 266.582C178.98 268.07 167.772 267.04 167.772 267.04C167.772 267.04 173.624 257.382 176.569 255.894C177.275 255.469 178.06 255.195 178.877 255.088C179.693 254.982 180.523 255.045 181.314 255.274C182.105 255.503 182.84 255.893 183.474 256.42C184.108 256.947 184.626 257.599 184.997 258.335C185.368 259.072 185.583 259.877 185.629 260.701C185.675 261.524 185.551 262.348 185.265 263.122C184.979 263.895 184.536 264.601 183.965 265.196C183.394 265.79 182.707 266.26 181.947 266.576L181.925 266.582Z" fill="#FF4568"/>
<path d="M176.279 290.172C173.629 292.135 162.383 293.024 162.383 293.024C162.383 293.024 166.52 282.516 169.176 280.547C170.454 279.769 171.977 279.498 173.444 279.788C174.912 280.078 176.218 280.908 177.105 282.115C177.993 283.321 178.397 284.816 178.239 286.306C178.081 287.796 177.373 289.173 176.252 290.166L176.279 290.172Z" fill="#FF4568"/>
<path d="M157.8 243.504C160.168 245.805 171.19 248.194 171.19 248.194C171.19 248.194 168.469 237.228 166.123 234.921C165.575 234.307 164.907 233.811 164.16 233.467C163.414 233.122 162.604 232.935 161.782 232.917C160.96 232.9 160.143 233.052 159.382 233.365C158.621 233.678 157.933 234.144 157.36 234.735C156.787 235.326 156.341 236.029 156.052 236.799C155.762 237.57 155.633 238.393 155.675 239.216C155.716 240.038 155.926 240.844 156.292 241.582C156.657 242.319 157.171 242.974 157.8 243.504Z" fill="#FF4568"/>
<path d="M151.557 271.184C154.502 272.673 165.709 271.642 165.709 271.642C165.709 271.642 159.88 261.985 156.935 260.523C155.539 259.943 153.975 259.913 152.557 260.439C151.14 260.966 149.974 262.01 149.293 263.362C148.612 264.714 148.467 266.275 148.887 267.729C149.307 269.184 150.261 270.426 151.557 271.206V271.184Z" fill="#FF4568"/>
<path d="M149.162 298.918C151.812 300.881 163.058 301.77 163.058 301.77C163.058 301.77 158.921 291.262 156.265 289.293C155.642 288.742 154.912 288.326 154.12 288.073C153.328 287.819 152.493 287.734 151.666 287.822C150.84 287.909 150.04 288.169 149.319 288.583C148.598 288.997 147.971 289.558 147.478 290.228C146.985 290.898 146.637 291.664 146.455 292.477C146.274 293.289 146.263 294.131 146.424 294.948C146.585 295.765 146.914 296.539 147.39 297.222C147.866 297.904 148.478 298.48 149.189 298.913L149.162 298.918Z" fill="#FF4568"/>
<path opacity="0.1" d="M172.496 216.998C172.496 220.302 166.509 229.883 166.509 229.883C166.509 229.883 160.521 220.302 160.521 216.998C160.46 216.175 160.57 215.348 160.842 214.57C161.115 213.791 161.545 213.078 162.105 212.473C162.666 211.869 163.344 211.386 164.099 211.057C164.854 210.727 165.669 210.557 166.492 210.557C167.316 210.557 168.131 210.727 168.886 211.057C169.64 211.386 170.319 211.869 170.88 212.473C171.44 213.078 171.87 213.791 172.143 214.57C172.415 215.348 172.524 216.175 172.464 216.998H172.496Z" fill="#FF4568"/>
<path opacity="0.1" d="M182.354 235.298C180.563 238.073 170.352 242.861 170.352 242.861C170.352 242.861 170.537 231.568 172.327 228.792C172.725 228.072 173.266 227.441 173.917 226.939C174.568 226.437 175.315 226.074 176.112 225.874C176.909 225.674 177.739 225.64 178.549 225.775C179.36 225.91 180.134 226.21 180.824 226.658C181.513 227.105 182.104 227.69 182.558 228.376C183.012 229.062 183.321 229.834 183.464 230.644C183.608 231.455 183.583 232.286 183.392 233.087C183.201 233.887 182.848 234.64 182.354 235.298Z" fill="#FF4568"/>
<path opacity="0.1" d="M181.925 266.582C178.98 268.07 167.772 267.04 167.772 267.04C167.772 267.04 173.624 257.382 176.569 255.894C177.275 255.469 178.06 255.195 178.877 255.088C179.693 254.982 180.523 255.045 181.314 255.274C182.105 255.503 182.84 255.893 183.474 256.42C184.108 256.947 184.626 257.599 184.997 258.335C185.368 259.072 185.583 259.877 185.629 260.701C185.675 261.524 185.551 262.348 185.265 263.122C184.979 263.895 184.536 264.601 183.965 265.196C183.394 265.79 182.707 266.26 181.947 266.576L181.925 266.582Z" fill="#FF4568"/>
<path opacity="0.1" d="M176.279 290.172C173.629 292.135 162.383 293.024 162.383 293.024C162.383 293.024 166.52 282.516 169.176 280.547C170.454 279.769 171.977 279.498 173.444 279.788C174.912 280.078 176.218 280.908 177.105 282.115C177.993 283.321 178.397 284.816 178.239 286.306C178.081 287.796 177.373 289.173 176.252 290.166L176.279 290.172Z" fill="#FF4568"/>
<path opacity="0.1" d="M157.8 243.504C160.168 245.805 171.19 248.194 171.19 248.194C171.19 248.194 168.469 237.228 166.123 234.921C165.575 234.307 164.907 233.811 164.16 233.467C163.414 233.122 162.604 232.935 161.782 232.917C160.96 232.9 160.143 233.052 159.382 233.365C158.621 233.678 157.933 234.144 157.36 234.735C156.787 235.326 156.341 236.029 156.052 236.799C155.762 237.57 155.633 238.393 155.675 239.216C155.716 240.038 155.926 240.844 156.292 241.582C156.657 242.319 157.171 242.974 157.8 243.504Z" fill="#FF4568"/>
<path opacity="0.1" d="M151.557 271.184C154.502 272.673 165.709 271.642 165.709 271.642C165.709 271.642 159.88 261.985 156.935 260.523C155.539 259.943 153.975 259.913 152.557 260.439C151.14 260.966 149.974 262.01 149.293 263.362C148.612 264.714 148.467 266.275 148.887 267.729C149.307 269.184 150.261 270.426 151.557 271.206V271.184Z" fill="#FF4568"/>
<path opacity="0.1" d="M149.162 298.918C151.812 300.881 163.058 301.77 163.058 301.77C163.058 301.77 158.921 291.262 156.265 289.293C155.642 288.742 154.912 288.326 154.12 288.073C153.328 287.819 152.493 287.734 151.666 287.822C150.84 287.909 150.04 288.169 149.319 288.583C148.598 288.997 147.971 289.558 147.478 290.228C146.985 290.898 146.637 291.664 146.455 292.477C146.274 293.289 146.263 294.131 146.424 294.948C146.585 295.765 146.914 296.539 147.39 297.222C147.866 297.904 148.478 298.48 149.189 298.913L149.162 298.918Z" fill="#FF4568"/>
<path d="M325.86 315.986C325.86 315.986 317.935 289.021 327.346 269.177C331.349 260.878 332.556 251.502 330.787 242.457C329.912 238.17 328.648 233.972 327.009 229.916" stroke="#535461" stroke-width="2" stroke-miterlimit="10"/>
<path d="M332.866 217.379C332.866 220.684 326.878 230.265 326.878 230.265C326.878 230.265 320.891 220.684 320.891 217.379C321.002 215.869 321.68 214.457 322.787 213.427C323.895 212.396 325.35 211.824 326.862 211.824C328.373 211.824 329.829 212.396 330.936 213.427C332.044 214.457 332.722 215.869 332.833 217.379H332.866Z" fill="#FF4568"/>
<path d="M342.74 235.679C340.949 238.455 330.737 243.243 330.737 243.243C330.737 243.243 330.922 231.949 332.713 229.174C333.11 228.453 333.651 227.822 334.303 227.32C334.954 226.818 335.701 226.456 336.498 226.255C337.295 226.055 338.125 226.021 338.935 226.156C339.746 226.291 340.52 226.591 341.209 227.039C341.899 227.486 342.489 228.071 342.944 228.757C343.398 229.443 343.707 230.215 343.85 231.026C343.994 231.836 343.969 232.668 343.778 233.468C343.587 234.269 343.234 235.021 342.74 235.679Z" fill="#FF4568"/>
<path d="M342.326 266.963C339.382 268.452 328.174 267.421 328.174 267.421C328.174 267.421 334.025 257.764 336.97 256.275C337.677 255.847 338.465 255.57 339.283 255.461C340.102 255.352 340.935 255.414 341.729 255.643C342.523 255.873 343.26 256.264 343.896 256.793C344.532 257.321 345.051 257.976 345.422 258.716C345.792 259.455 346.006 260.264 346.05 261.09C346.093 261.917 345.966 262.743 345.675 263.518C345.384 264.293 344.937 264.999 344.36 265.592C343.784 266.185 343.092 266.652 342.326 266.963Z" fill="#FF4568"/>
<path d="M336.659 290.553C334.008 292.516 322.763 293.405 322.763 293.405C322.763 293.405 326.9 282.897 329.556 280.928C330.834 280.15 332.357 279.88 333.824 280.17C335.292 280.46 336.598 281.29 337.485 282.496C338.373 283.702 338.777 285.198 338.619 286.688C338.461 288.178 337.752 289.555 336.632 290.548L336.659 290.553Z" fill="#FF4568"/>
<path d="M318.191 243.886C320.558 246.187 331.581 248.576 331.581 248.576C331.581 248.576 328.859 237.61 326.513 235.303C325.966 234.688 325.298 234.193 324.551 233.848C323.804 233.504 322.994 233.317 322.172 233.299C321.35 233.282 320.533 233.434 319.772 233.747C319.012 234.059 318.323 234.526 317.75 235.117C317.177 235.708 316.732 236.41 316.442 237.181C316.152 237.952 316.024 238.775 316.065 239.597C316.106 240.42 316.316 241.226 316.682 241.963C317.048 242.701 317.561 243.356 318.191 243.886Z" fill="#FF4568"/>
<path d="M311.936 271.566C314.881 273.055 326.089 272.024 326.089 272.024C326.089 272.024 320.237 262.367 317.292 260.878C315.896 260.297 314.332 260.267 312.915 260.794C311.497 261.32 310.331 262.364 309.65 263.717C308.969 265.069 308.824 266.629 309.244 268.084C309.664 269.539 310.618 270.781 311.914 271.56L311.936 271.566Z" fill="#FF4568"/>
<path d="M309.547 299.3C312.198 301.263 323.444 302.151 323.444 302.151C323.444 302.151 319.307 291.643 316.651 289.675C315.372 288.897 313.85 288.626 312.382 288.916C310.915 289.206 309.609 290.036 308.721 291.242C307.834 292.449 307.429 293.944 307.587 295.434C307.745 296.924 308.454 298.301 309.574 299.294L309.547 299.3Z" fill="#FF4568"/>
<path opacity="0.1" d="M332.866 217.379C332.866 220.684 326.878 230.265 326.878 230.265C326.878 230.265 320.891 220.684 320.891 217.379C321.002 215.869 321.68 214.457 322.787 213.427C323.895 212.396 325.35 211.824 326.862 211.824C328.373 211.824 329.829 212.396 330.936 213.427C332.044 214.457 332.722 215.869 332.833 217.379H332.866Z" fill="#FF4568"/>
<path opacity="0.1" d="M342.74 235.679C340.949 238.455 330.737 243.243 330.737 243.243C330.737 243.243 330.922 231.949 332.713 229.174C333.11 228.453 333.651 227.822 334.303 227.32C334.954 226.818 335.701 226.456 336.498 226.255C337.295 226.055 338.125 226.021 338.935 226.156C339.746 226.291 340.52 226.591 341.209 227.039C341.899 227.486 342.489 228.071 342.944 228.757C343.398 229.443 343.707 230.215 343.85 231.026C343.994 231.836 343.969 232.668 343.778 233.468C343.587 234.269 343.234 235.021 342.74 235.679Z" fill="#FF4568"/>
<path opacity="0.1" d="M342.326 266.963C339.382 268.452 328.174 267.421 328.174 267.421C328.174 267.421 334.025 257.764 336.97 256.275C337.677 255.847 338.465 255.57 339.283 255.461C340.102 255.352 340.935 255.414 341.729 255.643C342.523 255.873 343.26 256.264 343.896 256.793C344.532 257.321 345.051 257.976 345.422 258.716C345.792 259.455 346.006 260.264 346.05 261.09C346.093 261.917 345.966 262.743 345.675 263.518C345.384 264.293 344.937 264.999 344.36 265.592C343.784 266.185 343.092 266.652 342.326 266.963Z" fill="#FF4568"/>
<path opacity="0.1" d="M336.659 290.553C334.008 292.516 322.763 293.405 322.763 293.405C322.763 293.405 326.9 282.897 329.556 280.928C330.834 280.15 332.357 279.88 333.824 280.17C335.292 280.46 336.598 281.29 337.485 282.496C338.373 283.702 338.777 285.198 338.619 286.688C338.461 288.178 337.752 289.555 336.632 290.548L336.659 290.553Z" fill="#FF4568"/>
<path opacity="0.1" d="M318.191 243.886C320.558 246.187 331.581 248.576 331.581 248.576C331.581 248.576 328.859 237.61 326.513 235.303C325.966 234.688 325.298 234.193 324.551 233.848C323.804 233.504 322.994 233.317 322.172 233.299C321.35 233.282 320.533 233.434 319.772 233.747C319.012 234.059 318.323 234.526 317.75 235.117C317.177 235.708 316.732 236.41 316.442 237.181C316.152 237.952 316.024 238.775 316.065 239.597C316.106 240.42 316.316 241.226 316.682 241.963C317.048 242.701 317.561 243.356 318.191 243.886Z" fill="#FF4568"/>
<path opacity="0.1" d="M311.936 271.566C314.881 273.055 326.089 272.024 326.089 272.024C326.089 272.024 320.237 262.367 317.292 260.878C315.896 260.297 314.332 260.267 312.915 260.794C311.497 261.32 310.331 262.364 309.65 263.717C308.969 265.069 308.824 266.629 309.244 268.084C309.664 269.539 310.618 270.781 311.914 271.56L311.936 271.566Z" fill="#FF4568"/>
<path opacity="0.1" d="M309.547 299.3C312.198 301.263 323.444 302.151 323.444 302.151C323.444 302.151 319.307 291.643 316.651 289.675C315.372 288.897 313.85 288.626 312.382 288.916C310.915 289.206 309.609 290.036 308.721 291.242C307.834 292.449 307.429 293.944 307.587 295.434C307.745 296.924 308.454 298.301 309.574 299.294L309.547 299.3Z" fill="#FF4568"/>
<path d="M512.942 29.5391H509.524C509.848 29.5546 510.171 29.504 510.475 29.3906C510.779 29.2771 511.056 29.1031 511.291 28.879C511.526 28.655 511.712 28.3855 511.84 28.087C511.967 27.7885 512.033 27.4672 512.033 27.1425C512.033 26.8178 511.967 26.4964 511.84 26.198C511.712 25.8995 511.526 25.63 511.291 25.406C511.056 25.1819 510.779 25.0079 510.475 24.8944C510.171 24.7809 509.848 24.7304 509.524 24.7459H481.807C481.192 24.7753 480.612 25.0406 480.188 25.4868C479.763 25.9331 479.526 26.5259 479.526 27.1425C479.526 27.759 479.763 28.3519 480.188 28.7981C480.612 29.2444 481.192 29.5097 481.807 29.5391H485.225C484.611 29.5685 484.031 29.8338 483.606 30.28C483.181 30.7263 482.945 31.3192 482.945 31.9357C482.945 32.5522 483.181 33.1451 483.606 33.5913C484.031 34.0376 484.611 34.3029 485.225 34.3323H480.441C480.117 34.3168 479.794 34.3673 479.49 34.4808C479.186 34.5943 478.909 34.7683 478.674 34.9924C478.439 35.2164 478.253 35.4859 478.125 35.7844C477.997 36.0828 477.932 36.4042 477.932 36.7289C477.932 37.0536 477.997 37.3749 478.125 37.6734C478.253 37.9719 478.439 38.2414 478.674 38.4654C478.909 38.6895 479.186 38.8635 479.49 38.977C479.794 39.0904 480.117 39.141 480.441 39.1255H508.136C508.46 39.141 508.783 39.0904 509.087 38.977C509.391 38.8635 509.668 38.6895 509.903 38.4654C510.138 38.2414 510.324 37.9719 510.452 37.6734C510.579 37.3749 510.645 37.0536 510.645 36.7289C510.645 36.4042 510.579 36.0828 510.452 35.7844C510.324 35.4859 510.138 35.2164 509.903 34.9924C509.668 34.7683 509.391 34.5943 509.087 34.4808C508.783 34.3673 508.46 34.3168 508.136 34.3323H512.942C513.557 34.3029 514.137 34.0376 514.562 33.5913C514.986 33.1451 515.223 32.5522 515.223 31.9357C515.223 31.3192 514.986 30.7263 514.562 30.28C514.137 29.8338 513.557 29.5685 512.942 29.5391Z" fill="white"/>
<path d="M204.491 22.33H201.89C202.137 22.3436 202.385 22.3064 202.617 22.2209C202.85 22.1353 203.063 22.0032 203.243 21.8325C203.423 21.6618 203.566 21.4561 203.664 21.228C203.762 20.9999 203.813 20.7543 203.813 20.506C203.813 20.2577 203.762 20.012 203.664 19.7839C203.566 19.5558 203.423 19.3502 203.243 19.1794C203.063 19.0087 202.85 18.8766 202.617 18.791C202.385 18.7055 202.137 18.6684 201.89 18.6819H180.813C180.348 18.7074 179.909 18.9107 179.589 19.25C179.268 19.5893 179.089 20.0387 179.089 20.506C179.089 20.9732 179.268 21.4226 179.589 21.7619C179.909 22.1012 180.348 22.3045 180.813 22.33H183.415C183.168 22.3164 182.92 22.3536 182.687 22.4391C182.455 22.5246 182.242 22.6568 182.062 22.8275C181.882 22.9982 181.739 23.2039 181.641 23.432C181.543 23.66 181.492 23.9057 181.492 24.154C181.492 24.4023 181.543 24.648 181.641 24.8761C181.739 25.1042 181.882 25.3098 182.062 25.4805C182.242 25.6513 182.455 25.7834 182.687 25.869C182.92 25.9545 183.168 25.9916 183.415 25.9781H179.774C179.526 25.9645 179.279 26.0016 179.046 26.0872C178.813 26.1727 178.6 26.3049 178.42 26.4756C178.24 26.6463 178.097 26.852 177.999 27.08C177.901 27.3081 177.851 27.5538 177.851 27.8021C177.851 28.0504 177.901 28.2961 177.999 28.5242C178.097 28.7522 178.24 28.9579 178.42 29.1286C178.6 29.2993 178.813 29.4315 179.046 29.517C179.279 29.6026 179.526 29.6397 179.774 29.6261H200.85C201.097 29.6397 201.345 29.6026 201.578 29.517C201.81 29.4315 202.023 29.2993 202.203 29.1286C202.383 28.9579 202.527 28.7522 202.625 28.5242C202.723 28.2961 202.773 28.0504 202.773 27.8021C202.773 27.5538 202.723 27.3081 202.625 27.08C202.527 26.852 202.383 26.6463 202.203 26.4756C202.023 26.3049 201.81 26.1727 201.578 26.0872C201.345 26.0016 201.097 25.9645 200.85 25.9781H204.491C204.957 25.9525 205.395 25.7492 205.716 25.41C206.037 25.0707 206.215 24.6212 206.215 24.154C206.215 23.6868 206.037 23.2374 205.716 22.8981C205.395 22.5588 204.957 22.3555 204.491 22.33Z" fill="white"/>
<path d="M27.5861 280.7C27.5861 280.7 37.1117 299.431 29.3497 309.677C21.5876 319.923 30.0573 347.848 30.0573 347.848" stroke="#6C63FF" stroke-miterlimit="10"/>
<path d="M30.4276 274.843C30.4276 278.453 27.7821 281.387 27.7821 281.387C27.7821 281.387 25.1367 278.458 25.1367 274.843C25.1367 271.228 27.7821 268.299 27.7821 268.299C27.7821 268.299 30.4276 271.233 30.4276 274.843Z" fill="#6C63FF"/>
<path d="M32.5237 280.7C32.5237 280.7 22.998 299.431 30.7601 309.677C38.5222 319.923 30.0525 347.848 30.0525 347.848" stroke="#6C63FF" stroke-miterlimit="10"/>
<path d="M29.7041 274.843C29.7041 278.453 32.3495 281.387 32.3495 281.387C32.3495 281.387 34.9949 278.458 34.9949 274.843C34.9949 271.228 32.3495 268.299 32.3495 268.299C32.3495 268.299 29.7041 271.233 29.7041 274.843Z" fill="#6C63FF"/>
<path opacity="0.1" d="M29.7041 274.843C29.7041 278.453 32.3495 281.387 32.3495 281.387C32.3495 281.387 34.9949 278.458 34.9949 274.843C34.9949 271.228 32.3495 268.299 32.3495 268.299C32.3495 268.299 29.7041 271.233 29.7041 274.843Z" fill="black"/>
<path d="M36.4161 280.7C36.4161 280.7 45.9418 299.431 38.1798 309.677C30.4177 319.923 38.8874 347.848 38.8874 347.848" stroke="#6C63FF" stroke-miterlimit="10"/>
<path d="M39.2303 274.843C39.2303 278.453 36.5849 281.387 36.5849 281.387C36.5849 281.387 33.9395 278.458 33.9395 274.843C33.9395 271.228 36.5849 268.299 36.5849 268.299C36.5849 268.299 39.2303 271.233 39.2303 274.843Z" fill="#6C63FF"/>
<path d="M37.7435 289.85C35.245 292.451 31.3096 292.724 31.3096 292.724C31.3096 292.724 31.4293 288.776 33.9278 286.18C36.4262 283.584 40.3617 283.306 40.3617 283.306C40.3617 283.306 40.2256 287.243 37.7435 289.85Z" fill="#6C63FF"/>
<path d="M37.9935 302.773C35.495 305.374 31.5596 305.647 31.5596 305.647C31.5596 305.647 31.6793 301.699 34.1778 299.103C36.6762 296.508 40.6117 296.229 40.6117 296.229C40.6117 296.229 40.4919 300.167 37.9935 302.773Z" fill="#6C63FF"/>
<path d="M24.4405 309.879C26.8028 312.605 26.7212 316.553 26.7212 316.553C26.7212 316.553 22.8075 316.079 20.4451 313.352C18.0828 310.626 18.1644 306.678 18.1644 306.678C18.1644 306.678 22.0781 307.152 24.4405 309.879Z" fill="#6C63FF"/>
<path d="M26.6179 282.335C29.6225 284.331 30.5969 288.159 30.5969 288.159C30.5969 288.159 26.6995 288.753 23.6948 286.758C20.6902 284.762 19.7158 280.934 19.7158 280.934C19.7158 280.934 23.6295 280.329 26.6179 282.335Z" fill="#6C63FF"/>
<path opacity="0.1" d="M26.6179 282.335C29.6225 284.331 30.5969 288.159 30.5969 288.159C30.5969 288.159 26.6995 288.753 23.6948 286.758C20.6902 284.762 19.7158 280.934 19.7158 280.934C19.7158 280.934 23.6295 280.329 26.6179 282.335Z" fill="black"/>
<path d="M41.3411 280.7C41.3411 280.7 31.8154 299.431 39.5775 309.677C47.3396 319.923 38.8699 347.848 38.8699 347.848" stroke="#6C63FF" stroke-miterlimit="10"/>
<path d="M38.5225 274.843C38.5225 278.453 41.1679 281.387 41.1679 281.387C41.1679 281.387 43.8133 278.458 43.8133 274.843C43.8133 271.228 41.1679 268.299 41.1679 268.299C41.1679 268.299 38.5225 271.233 38.5225 274.843Z" fill="#6C63FF"/>
<path opacity="0.1" d="M38.5225 274.843C38.5225 278.453 41.1679 281.387 41.1679 281.387C41.1679 281.387 43.8133 278.458 43.8133 274.843C43.8133 271.228 41.1679 268.299 41.1679 268.299C41.1679 268.299 38.5225 271.233 38.5225 274.843Z" fill="black"/>
<path d="M39.2841 290.128C36.753 292.702 36.5625 296.672 36.5625 296.672C36.5625 296.672 40.498 296.448 43.0291 293.874C45.5602 291.3 45.7507 287.331 45.7507 287.331C45.7507 287.331 41.8152 287.554 39.2841 290.128Z" fill="#6C63FF"/>
<path opacity="0.1" d="M39.2841 290.128C36.753 292.702 36.5625 296.672 36.5625 296.672C36.5625 296.672 40.498 296.448 43.0291 293.874C45.5602 291.3 45.7507 287.331 45.7507 287.331C45.7507 287.331 41.8152 287.554 39.2841 290.128Z" fill="black"/>
<path d="M44.2421 308.019C41.711 310.593 41.5205 314.563 41.5205 314.563C41.5205 314.563 45.456 314.339 47.9871 311.765C50.5182 309.191 50.7087 305.222 50.7087 305.222C50.7087 305.222 46.7569 305.445 44.2421 308.019Z" fill="#6C63FF"/>
<path d="M36.959 304.087C36.959 304.087 42.6907 295.036 50.7413 294.817" stroke="#6C63FF" stroke-miterlimit="10"/>
<path d="M32.4806 298.618C32.4806 298.618 26.7488 289.566 18.6982 289.348" stroke="#6C63FF" stroke-miterlimit="10"/>
<path d="M31.7344 311.542C31.7344 311.542 37.4661 302.49 45.5167 302.272" stroke="#6C63FF" stroke-miterlimit="10"/>
<path d="M50.4635 296.257C51.2842 296.257 51.9496 295.591 51.9496 294.768C51.9496 293.946 51.2842 293.28 50.4635 293.28C49.6428 293.28 48.9775 293.946 48.9775 294.768C48.9775 295.591 49.6428 296.257 50.4635 296.257Z" fill="#6C63FF"/>
<path d="M18.8395 290.913C19.6602 290.913 20.3255 290.246 20.3255 289.424C20.3255 288.602 19.6602 287.936 18.8395 287.936C18.0188 287.936 17.3535 288.602 17.3535 289.424C17.3535 290.246 18.0188 290.913 18.8395 290.913Z" fill="#6C63FF"/>
<path d="M35.9522 314.508C35.9522 314.508 30.2205 305.456 22.1699 305.238" stroke="#6C63FF" stroke-miterlimit="10"/>
<path d="M22.3122 306.814C23.1329 306.814 23.7982 306.148 23.7982 305.326C23.7982 304.503 23.1329 303.837 22.3122 303.837C21.4915 303.837 20.8262 304.503 20.8262 305.326C20.8262 306.148 21.4915 306.814 22.3122 306.814Z" fill="#6C63FF"/>
<path d="M45.6257 303.837C46.4464 303.837 47.1117 303.17 47.1117 302.348C47.1117 301.526 46.4464 300.859 45.6257 300.859C44.805 300.859 44.1396 301.526 44.1396 302.348C44.1396 303.17 44.805 303.837 45.6257 303.837Z" fill="#6C63FF"/>
<path d="M67.6491 336.948C67.6491 336.948 53.8341 334.177 50.1436 330.486C46.4531 326.794 29.8838 320.338 28.0385 324.951C26.1933 329.564 3.16834 345.252 18.8286 348.023C34.4888 350.793 55.6739 351.714 60.2789 349.866C64.8839 348.017 67.6491 336.948 67.6491 336.948Z" fill="#A8A8A8"/>
<path opacity="0.2" d="M18.8281 346.305C34.4883 349.075 55.6735 349.996 60.2785 348.148C63.7839 346.741 66.2225 339.968 67.1859 336.849L67.6486 336.947C67.6486 336.947 64.8834 348.022 60.2785 349.866C55.6735 351.709 34.4883 350.787 18.8281 348.022C14.3102 347.221 13.0147 345.345 13.5046 342.973C13.8856 344.5 15.4642 345.71 18.8281 346.305Z" fill="black"/>
<path d="M487.079 284.942C487.079 284.942 491.641 290.94 484.973 299.938C478.305 308.935 472.807 316.575 475.033 322.202C475.033 322.202 485.092 305.445 493.279 305.211C501.466 304.976 496.088 295.014 487.079 284.942Z" fill="#6C63FF"/>
<path opacity="0.1" d="M487.079 284.942C487.476 285.52 487.79 286.151 488.01 286.818C496 296.219 500.252 304.993 492.577 305.216C485.424 305.423 476.846 318.233 474.788 321.472C474.856 321.721 474.938 321.967 475.033 322.208C475.033 322.208 485.092 305.451 493.279 305.216C501.465 304.982 496.088 295.014 487.079 284.942Z" fill="black"/>
<path d="M495.558 292.554C495.558 294.659 495.324 296.371 495.014 296.371C494.704 296.371 494.47 294.665 494.47 292.554C494.47 290.444 494.764 291.464 495.052 291.464C495.341 291.464 495.558 290.455 495.558 292.554Z" fill="#FFD037"/>
<path d="M498.471 295.068C496.626 296.077 495.02 296.704 494.884 296.426C494.748 296.148 496.125 295.145 497.971 294.141C499.816 293.138 499.086 293.869 499.228 294.141C499.369 294.414 500.311 294.06 498.471 295.068Z" fill="#FFD037"/>
<path d="M462.986 284.942C462.986 284.942 458.425 290.94 465.093 299.938C471.761 308.935 477.259 316.575 475.032 322.202C475.032 322.202 464.973 305.445 456.787 305.211C448.6 304.976 453.978 295.014 462.986 284.942Z" fill="#6C63FF"/>
<path opacity="0.1" d="M462.986 284.942C462.589 285.52 462.276 286.151 462.056 286.818C454.065 296.219 449.814 304.993 457.489 305.216C464.641 305.423 473.22 318.233 475.277 321.472C475.209 321.721 475.128 321.967 475.032 322.208C475.032 322.208 464.973 305.451 456.787 305.216C448.6 304.982 453.978 295.014 462.986 284.942Z" fill="black"/>
<path d="M454.506 292.554C454.506 294.659 454.74 296.371 455.05 296.371C455.36 296.371 455.595 294.665 455.595 292.554C455.595 290.444 455.301 291.464 455.012 291.464C454.724 291.464 454.506 290.455 454.506 292.554Z" fill="#FFD037"/>
<path d="M451.594 295.068C453.439 296.077 455.045 296.704 455.181 296.426C455.317 296.148 453.94 295.145 452.095 294.141C450.249 293.138 450.979 293.869 450.837 294.141C450.696 294.414 449.749 294.06 451.594 295.068Z" fill="#FFD037"/>
<path d="M455.959 321.417C455.959 321.417 468.713 321.025 472.555 318.282C476.398 315.539 492.151 312.283 493.126 316.646C494.1 321.008 512.291 338.518 497.894 338.632C483.496 338.747 464.44 336.386 460.602 334.046C456.765 331.707 455.959 321.417 455.959 321.417Z" fill="#A8A8A8"/>
<path opacity="0.2" d="M498.15 337.122C483.752 337.236 464.695 334.875 460.858 332.536C457.935 330.753 456.77 324.356 456.384 321.406H455.959C455.959 321.406 456.765 331.712 460.602 334.052C464.44 336.391 483.496 338.758 497.894 338.638C502.052 338.605 503.484 337.122 503.408 334.93C502.831 336.266 501.269 337.095 498.15 337.122Z" fill="black"/>
<path d="M96.8028 40.7012H93.3844C93.7082 40.7167 94.0317 40.6662 94.3354 40.5527C94.6391 40.4392 94.9166 40.2652 95.1512 40.0411C95.3858 39.8171 95.5726 39.5476 95.7002 39.2491C95.8278 38.9506 95.8936 38.6293 95.8936 38.3046C95.8936 37.9799 95.8278 37.6586 95.7002 37.3601C95.5726 37.0616 95.3858 36.7921 95.1512 36.5681C94.9166 36.344 94.6391 36.17 94.3354 36.0565C94.0317 35.943 93.7082 35.8925 93.3844 35.908H65.6891C65.0744 35.9374 64.4945 36.2027 64.0699 36.6489C63.6452 37.0952 63.4083 37.6881 63.4083 38.3046C63.4083 38.9211 63.6452 39.514 64.0699 39.9603C64.4945 40.4065 65.0744 40.6718 65.6891 40.7012H69.1075C68.4928 40.7306 67.9129 40.9959 67.4882 41.4421C67.0635 41.8884 66.8266 42.4813 66.8266 43.0978C66.8266 43.7143 67.0635 44.3072 67.4882 44.7535C67.9129 45.1997 68.4928 45.465 69.1075 45.4944H64.3229C63.7081 45.5238 63.1283 45.7891 62.7036 46.2353C62.2789 46.6816 62.042 47.2745 62.042 47.891C62.042 48.5075 62.2789 49.1004 62.7036 49.5467C63.1283 49.9929 63.7081 50.2582 64.3229 50.2876H92.0181C92.3419 50.3031 92.6654 50.2526 92.9691 50.1391C93.2728 50.0256 93.5504 49.8516 93.785 49.6275C94.0196 49.4035 94.2063 49.134 94.3339 48.8355C94.4615 48.537 94.5273 48.2157 94.5273 47.891C94.5273 47.5663 94.4615 47.245 94.3339 46.9465C94.2063 46.648 94.0196 46.3785 93.785 46.1545C93.5504 45.9304 93.2728 45.7564 92.9691 45.6429C92.6654 45.5294 92.3419 45.4789 92.0181 45.4944H96.8028C97.4175 45.465 97.9974 45.1997 98.422 44.7535C98.8467 44.3072 99.0836 43.7143 99.0836 43.0978C99.0836 42.4813 98.8467 41.8884 98.422 41.4421C97.9974 40.9959 97.4175 40.7306 96.8028 40.7012Z" fill="white"/>
</g>
<defs>
<linearGradient id="paint0_linear" x1="250.662" y1="296.513" x2="250.662" y2="70.7583" gradientUnits="userSpaceOnUse">
<stop stop-color="#808080" stop-opacity="0.25"/>
<stop offset="0.54" stop-color="#808080" stop-opacity="0.12"/>
<stop offset="1" stop-color="#808080" stop-opacity="0.1"/>
</linearGradient>
<linearGradient id="paint1_linear" x1="208.41" y1="258.128" x2="208.41" y2="258.102" gradientUnits="userSpaceOnUse">
<stop stop-color="#808080" stop-opacity="0.25"/>
<stop offset="0.54" stop-color="#808080" stop-opacity="0.12"/>
<stop offset="1" stop-color="#808080" stop-opacity="0.1"/>
</linearGradient>
<linearGradient id="paint2_linear" x1="35052.1" y1="110259" x2="35052.1" y2="49434.6" gradientUnits="userSpaceOnUse">
<stop stop-color="#808080" stop-opacity="0.25"/>
<stop offset="0.54" stop-color="#808080" stop-opacity="0.12"/>
<stop offset="1" stop-color="#808080" stop-opacity="0.1"/>
</linearGradient>
<linearGradient id="paint3_linear" x1="98741.7" y1="133656" x2="98741.7" y2="43321.7" gradientUnits="userSpaceOnUse">
<stop stop-color="#808080" stop-opacity="0.25"/>
<stop offset="0.54" stop-color="#808080" stop-opacity="0.12"/>
<stop offset="1" stop-color="#808080" stop-opacity="0.1"/>
</linearGradient>
<clipPath id="clip0">
<rect width="517" height="360.728" fill="white"/>
</clipPath>
</defs>
</svg>
