<svg width="516" height="300" viewBox="0 0 516 300" fill="none" xmlns="http://www.w3.org/2000/svg">
<g clip-path="url(#clip0)">
<g opacity="0.1">
<path opacity="0.1" d="M379.38 295.575C384.887 295.575 389.352 289.725 389.352 282.508C389.352 275.291 384.887 269.441 379.38 269.441C373.872 269.441 369.407 275.291 369.407 282.508C369.407 289.725 373.872 295.575 379.38 295.575Z" fill="#3F3D56"/>
<path opacity="0.1" d="M387.271 226.606C388.669 224.178 389.393 221.421 389.371 218.619C389.371 211.387 384.906 205.552 379.398 205.552C373.891 205.552 369.43 211.401 369.43 218.619C369.402 221.419 370.121 224.176 371.512 226.606C370.147 229.045 369.43 231.795 369.43 234.59C369.43 237.386 370.147 240.135 371.512 242.575C370.147 245.015 369.431 247.765 369.431 250.562C369.431 253.358 370.147 256.108 371.512 258.548C370.121 260.978 369.402 263.735 369.43 266.535C369.43 273.767 373.895 279.602 379.398 279.602C384.901 279.602 389.371 273.753 389.371 266.535C389.399 263.735 388.68 260.978 387.29 258.548C388.654 256.108 389.371 253.358 389.371 250.562C389.371 247.765 388.654 245.015 387.29 242.575C388.654 240.135 389.371 237.386 389.371 234.59C389.371 231.795 388.654 229.045 387.29 226.606H387.271Z" fill="#3F3D56"/>
<path opacity="0.1" d="M379.38 215.718C384.887 215.718 389.352 209.867 389.352 202.651C389.352 195.434 384.887 189.583 379.38 189.583C373.872 189.583 369.407 195.434 369.407 202.651C369.407 209.867 373.872 215.718 379.38 215.718Z" fill="#3F3D56"/>
<path opacity="0.1" d="M379.38 199.744C384.887 199.744 389.352 193.894 389.352 186.677C389.352 179.46 384.887 173.61 379.38 173.61C373.872 173.61 369.407 179.46 369.407 186.677C369.407 193.894 373.872 199.744 379.38 199.744Z" fill="#3F3D56"/>
<path opacity="0.1" d="M416.705 77.3765C418.066 75.6393 419.306 73.8105 420.416 71.9029L394.232 67.5954L422.569 67.8078C425.285 61.8863 426.766 55.4722 426.921 48.9581C427.076 42.4439 425.903 35.9665 423.472 29.922L385.452 49.6559L420.52 23.8653C417.233 18.1869 412.815 13.2465 407.539 9.35172C402.263 5.45692 396.243 2.69107 389.854 1.22631C383.464 -0.238454 376.842 -0.370758 370.399 0.837631C363.956 2.04602 357.831 4.56924 352.404 8.25021C346.978 11.9312 342.366 16.6911 338.856 22.2338C335.346 27.7764 333.013 33.983 332.002 40.4674C330.991 46.9517 331.325 53.5749 332.981 59.9248C334.637 66.2746 337.581 72.2151 341.63 77.3765C339.508 80.0788 337.683 83.002 336.186 86.0954L370.193 103.786L333.933 91.5826C331.381 99.1154 330.747 107.166 332.087 115.007C333.427 122.847 336.699 130.229 341.607 136.483C336.066 143.536 332.619 152.008 331.661 160.93C330.702 169.852 332.27 178.864 336.186 186.936C340.102 195.008 346.207 201.813 353.804 206.575C361.401 211.336 370.182 213.861 379.145 213.861C388.108 213.861 396.889 211.336 404.486 206.575C412.083 201.813 418.188 195.008 422.104 186.936C426.02 178.864 427.588 169.852 426.629 160.93C425.67 152.008 422.224 143.536 416.683 136.483C423.304 128.055 426.904 117.644 426.904 106.921C426.904 96.198 423.304 85.7864 416.683 77.3584L416.705 77.3765Z" fill="#6C63FF"/>
<path opacity="0.1" d="M331.409 106.941C331.393 117.666 334.994 128.082 341.63 136.501C336.089 143.554 332.642 152.026 331.683 160.948C330.725 169.87 332.293 178.882 336.208 186.954C340.124 195.026 346.229 201.831 353.826 206.593C361.423 211.354 370.205 213.879 379.167 213.879C388.13 213.879 396.912 211.354 404.509 206.593C412.105 201.831 418.211 195.026 422.126 186.954C426.042 178.882 427.61 169.87 426.652 160.948C425.693 152.026 422.246 143.554 416.705 136.501C423.106 128.366 331.409 101.571 331.409 106.941Z" fill="black"/>
</g>
<g opacity="0.1">
<path opacity="0.1" d="M99.6826 281.6C103.034 281.6 105.75 278.038 105.75 273.645C105.75 269.251 103.034 265.689 99.6826 265.689C96.3317 265.689 93.6152 269.251 93.6152 273.645C93.6152 278.038 96.3317 281.6 99.6826 281.6Z" fill="#3F3D56"/>
<path opacity="0.1" d="M104.509 239.614C105.356 238.134 105.794 236.456 105.778 234.75C105.778 230.357 103.069 226.795 99.7057 226.795C96.3424 226.795 93.6383 230.357 93.6383 234.75C93.6206 236.455 94.0569 238.134 94.9023 239.614C94.0736 241.1 93.6386 242.773 93.6386 244.475C93.6386 246.177 94.0736 247.85 94.9023 249.336C94.0736 250.822 93.6386 252.496 93.6386 254.197C93.6386 255.899 94.0736 257.573 94.9023 259.059C94.0563 260.537 93.6199 262.214 93.6383 263.917C93.6383 268.315 96.3469 271.877 99.7057 271.877C103.064 271.877 105.778 268.315 105.778 263.917C105.795 262.214 105.357 260.536 104.509 259.059C105.34 257.573 105.777 255.9 105.777 254.197C105.777 252.495 105.34 250.821 104.509 249.336C105.34 247.851 105.777 246.177 105.777 244.475C105.777 242.773 105.34 241.099 104.509 239.614V239.614Z" fill="#3F3D56"/>
<path opacity="0.1" d="M99.6826 232.983C103.034 232.983 105.75 229.422 105.75 225.028C105.75 220.635 103.034 217.073 99.6826 217.073C96.3317 217.073 93.6152 220.635 93.6152 225.028C93.6152 229.422 96.3317 232.983 99.6826 232.983Z" fill="#3F3D56"/>
<path opacity="0.1" d="M99.6826 223.261C103.034 223.261 105.75 219.699 105.75 215.306C105.75 210.912 103.034 207.351 99.6826 207.351C96.3317 207.351 93.6152 210.912 93.6152 215.306C93.6152 219.699 96.3317 223.261 99.6826 223.261Z" fill="#3F3D56"/>
<path opacity="0.1" d="M76.9706 148.764C76.142 147.707 75.3878 146.594 74.7134 145.433L90.6629 142.811L73.4132 142.942C71.7618 139.339 70.8609 135.437 70.7654 131.474C70.67 127.51 71.382 123.569 72.858 119.891L95.9854 131.918L74.6457 116.189C76.6472 112.734 79.3373 109.729 82.5486 107.36C85.76 104.991 89.4238 103.309 93.3123 102.419C97.2007 101.529 101.231 101.449 105.151 102.185C109.072 102.921 112.799 104.457 116.101 106.697C119.403 108.937 122.21 111.833 124.346 115.206C126.482 118.579 127.902 122.356 128.518 126.301C129.134 130.247 128.932 134.278 127.925 138.142C126.918 142.006 125.128 145.622 122.666 148.764C123.957 150.407 125.068 152.184 125.979 154.066L105.276 164.841L127.352 157.424C128.902 162.011 129.286 166.913 128.467 171.686C127.649 176.46 125.655 180.953 122.666 184.76C126.039 189.054 128.137 194.211 128.72 199.642C129.303 205.074 128.349 210.56 125.965 215.473C123.581 220.387 119.864 224.529 115.24 227.428C110.615 230.326 105.27 231.863 99.8137 231.863C94.3578 231.863 89.012 230.326 84.3875 227.428C79.763 224.529 76.0464 220.387 73.6626 215.473C71.2788 210.56 70.324 205.074 70.9074 199.642C71.4908 194.211 73.5888 189.054 76.9616 184.76C72.9313 179.629 70.7402 173.29 70.7402 166.762C70.7402 160.234 72.9313 153.895 76.9616 148.764H76.9706Z" fill="#6C63FF"/>
<path opacity="0.1" d="M128.886 166.762C128.896 173.292 126.704 179.633 122.665 184.76C126.038 189.054 128.136 194.211 128.72 199.642C129.303 205.074 128.348 210.56 125.964 215.473C123.581 220.387 119.864 224.529 115.239 227.428C110.615 230.326 105.269 231.863 99.8132 231.863C94.3574 231.863 89.0116 230.326 84.3871 227.428C79.7625 224.529 76.0459 220.387 73.6621 215.473C71.2783 210.56 70.3235 205.074 70.9069 199.642C71.4903 194.211 73.5883 189.054 76.9611 184.76C73.0652 179.829 128.886 163.494 128.886 166.762Z" fill="black"/>
</g>
<g opacity="0.1">
<path opacity="0.1" d="M236.471 288.524C240.956 288.524 244.593 283.758 244.593 277.879C244.593 272.001 240.956 267.235 236.471 267.235C231.986 267.235 228.35 272.001 228.35 277.879C228.35 283.758 231.986 288.524 236.471 288.524Z" fill="#3F3D56"/>
<path opacity="0.1" d="M242.9 232.337C244.031 230.356 244.616 228.11 244.592 225.828C244.592 219.952 240.981 215.184 236.467 215.184C231.952 215.184 228.341 219.952 228.341 225.828C228.317 228.11 228.903 230.357 230.038 232.337C228.925 234.324 228.341 236.565 228.341 238.843C228.341 241.122 228.925 243.362 230.038 245.349C228.925 247.336 228.341 249.576 228.341 251.854C228.341 254.131 228.925 256.371 230.038 258.358C228.903 260.337 228.317 262.584 228.341 264.866C228.341 270.742 231.979 275.511 236.467 275.511C240.954 275.511 244.592 270.742 244.592 264.866C244.616 262.585 244.031 260.338 242.9 258.358C244.01 256.37 244.593 254.131 244.593 251.854C244.593 249.576 244.01 247.337 242.9 245.349C244.01 243.361 244.593 241.121 244.593 238.843C244.593 236.565 244.01 234.325 242.9 232.337V232.337Z" fill="#3F3D56"/>
<path opacity="0.1" d="M236.471 223.464C240.956 223.464 244.593 218.698 244.593 212.82C244.593 206.941 240.956 202.175 236.471 202.175C231.986 202.175 228.35 206.941 228.35 212.82C228.35 218.698 231.986 223.464 236.471 223.464Z" fill="#3F3D56"/>
<path opacity="0.1" d="M236.471 210.451C240.956 210.451 244.593 205.686 244.593 199.807C244.593 193.928 240.956 189.163 236.471 189.163C231.986 189.163 228.35 193.928 228.35 199.807C228.35 205.686 231.986 210.451 236.471 210.451Z" fill="#3F3D56"/>
<path opacity="0.1" d="M206.084 110.765C204.974 109.351 203.963 107.862 203.059 106.308L224.399 102.801L201.321 102.972C199.107 98.1487 197.899 92.9233 197.771 87.6161C197.643 82.3088 198.597 77.0311 200.576 72.106L231.545 88.1878L202.982 67.1702C205.651 62.5272 209.247 58.485 213.547 55.2964C217.846 52.1077 222.756 49.8411 227.969 48.6381C233.183 47.4351 238.589 47.3216 243.848 48.3047C249.108 49.2878 254.108 51.3464 258.537 54.3517C262.966 57.3571 266.729 61.2448 269.589 65.7717C272.45 70.2987 274.347 75.3676 275.163 80.6619C275.978 85.9562 275.694 91.362 274.329 96.5415C272.964 101.721 270.546 106.563 267.227 110.765C268.956 112.967 270.442 115.349 271.661 117.87L243.96 132.28L273.498 122.336C275.573 128.474 276.086 135.034 274.991 141.421C273.896 147.808 271.228 153.821 267.227 158.915C271.741 164.661 274.548 171.562 275.329 178.83C276.11 186.098 274.832 193.44 271.642 200.015C268.452 206.59 263.478 212.134 257.29 216.012C251.101 219.891 243.948 221.948 236.647 221.948C229.346 221.948 222.192 219.891 216.003 216.012C209.815 212.134 204.841 206.59 201.651 200.015C198.461 193.44 197.184 186.098 197.964 178.83C198.745 171.562 201.552 164.661 206.066 158.915C200.673 152.048 197.742 143.566 197.742 134.831C197.742 126.096 200.673 117.614 206.066 110.747L206.084 110.765Z" fill="#6C63FF"/>
<path opacity="0.1" d="M275.552 134.852C275.565 143.589 272.632 152.074 267.227 158.934C271.741 164.679 274.548 171.581 275.329 178.849C276.11 186.117 274.832 193.458 271.642 200.033C268.452 206.608 263.478 212.152 257.29 216.031C251.101 219.909 243.948 221.966 236.647 221.966C229.346 221.966 222.192 219.909 216.003 216.031C209.815 212.152 204.841 206.608 201.651 200.033C198.461 193.458 197.184 186.117 197.964 178.849C198.745 171.581 201.552 164.679 206.066 158.934C200.852 152.307 275.552 130.476 275.552 134.852Z" fill="black"/>
</g>
<path d="M516 287.566C516 290.671 493.328 293.509 455.845 295.701C449.028 296.095 441.724 296.47 433.977 296.822C427.284 297.124 420.268 297.408 412.931 297.677C405.822 297.93 398.441 298.165 390.788 298.382C366.617 299.073 339.896 299.57 311.51 299.819C304.62 299.882 297.64 299.931 290.567 299.964C283.199 299.997 275.748 300.012 268.212 300.009C131.361 300.009 20.4277 294.445 20.4277 287.579C20.4277 280.713 131.361 275.149 268.212 275.149C327.129 275.149 381.235 276.184 423.761 277.902L428.411 278.092H428.438C482.006 280.365 516 283.787 516 287.566Z" fill="#3F3D56"/>
<path opacity="0.15" d="M516 287.566C516 290.671 493.328 293.509 455.845 295.701C449.028 296.095 441.724 296.47 433.977 296.822C427.284 297.124 420.268 297.408 412.931 297.677C405.822 297.93 398.441 298.165 390.788 298.382C366.617 299.073 339.896 299.57 311.51 299.819C304.62 299.882 297.64 299.931 290.567 299.964C283.199 299.997 275.748 300.012 268.212 300.009C131.361 300.009 20.4277 294.445 20.4277 287.579C20.4277 280.713 131.361 275.149 268.212 275.149C327.129 275.149 381.235 276.184 423.761 277.902L428.411 278.092H428.438C482.006 280.365 516 283.787 516 287.566Z" fill="black"/>
<path d="M495.572 285.378C495.572 287.973 472.901 290.35 435.417 292.158C428.605 292.488 421.296 292.8 413.554 293.094C406.857 293.347 399.842 293.585 392.508 293.808C385.399 294.019 378.018 294.216 370.364 294.4C346.189 294.978 319.469 295.394 291.082 295.602C284.199 295.653 277.218 295.693 270.139 295.72C262.772 295.747 255.321 295.76 247.788 295.76C110.938 295.76 0 291.109 0 285.365C0 279.62 110.938 274.969 247.788 274.969C306.702 274.969 360.807 275.832 403.333 277.269L407.983 277.428H408.015C461.601 279.358 495.572 282.201 495.572 285.378Z" fill="#032B4D"/>
<path d="M63.9963 190.944L57.7754 171.874L206.752 170.243L212.855 189.122L63.9963 190.944Z" fill="#3F3D56"/>
<path opacity="0.15" d="M63.9963 190.944L57.7754 171.874L206.752 170.243L212.855 189.122L63.9963 190.944Z" fill="black"/>
<path d="M54.0646 190.944L47.8438 171.874L196.82 170.243L202.924 189.122L54.0646 190.944Z" fill="#032B4D"/>
<path d="M308.386 161.641C292.983 161.641 280.844 155.519 271.968 143.277C263.093 131.034 258.655 116.202 258.655 98.7826C258.655 81.2453 262.947 66.4441 271.53 54.379C280.114 42.3138 292.222 36.2873 307.854 36.2993C324.431 36.2993 336.921 42.6558 345.323 55.3688C353.726 68.0818 357.929 82.7956 357.932 99.5103C357.932 116.104 353.583 130.61 344.886 143.028C336.188 155.446 324.021 161.65 308.386 161.641ZM308.838 147.869C318.971 147.869 326.545 143.447 331.559 134.603C336.573 125.759 339.08 114.61 339.08 101.156C339.08 86.1796 336.514 73.917 331.383 64.368C326.251 54.8189 318.381 50.0429 307.772 50.0399C287.608 50.0399 277.526 66.0765 277.526 98.1498C277.526 131.299 287.96 147.872 308.829 147.869H308.838ZM313.912 279.755H291.633L437.486 38.7536H459.345L313.912 279.755ZM442.944 282.228C427.309 282.228 415.12 276.05 406.377 263.696C397.634 251.342 393.244 236.509 393.208 219.197C393.208 201.778 397.47 187.035 405.993 174.97C414.516 162.905 426.654 156.878 442.406 156.891C458.866 156.891 471.269 163.247 479.614 175.96C487.96 188.673 492.134 203.385 492.137 220.097C492.137 236.583 487.817 251.061 479.177 263.533C470.536 276.005 458.455 282.237 442.935 282.228H442.944ZM443.205 268.103C453.291 268.103 460.824 263.756 465.805 255.063C470.786 246.37 473.276 235.266 473.276 221.751C473.276 207.288 470.756 195.158 465.714 185.361C460.673 175.565 452.82 170.66 442.154 170.645C421.872 170.645 411.731 186.681 411.731 218.755C411.725 251.656 422.213 268.106 443.196 268.103H443.205Z" fill="#3F3D56"/>
<path d="M308.386 161.641C292.983 161.641 280.844 155.519 271.968 143.277C263.093 131.034 258.655 116.202 258.655 98.7826C258.655 81.2453 262.947 66.4441 271.53 54.379C280.114 42.3138 292.222 36.2873 307.854 36.2993C324.431 36.2993 336.921 42.6558 345.323 55.3688C353.726 68.0818 357.929 82.7956 357.932 99.5103C357.932 116.104 353.583 130.61 344.886 143.028C336.188 155.446 324.021 161.65 308.386 161.641ZM308.838 147.869C318.971 147.869 326.545 143.447 331.559 134.603C336.573 125.759 339.08 114.61 339.08 101.156C339.08 86.1796 336.514 73.917 331.383 64.368C326.251 54.8189 318.381 50.0429 307.772 50.0399C287.608 50.0399 277.526 66.0765 277.526 98.1498C277.526 131.299 287.96 147.872 308.829 147.869H308.838ZM313.912 279.755H291.633L437.486 38.7536H459.345L313.912 279.755ZM442.944 282.228C427.309 282.228 415.12 276.05 406.377 263.696C397.634 251.342 393.244 236.509 393.208 219.197C393.208 201.778 397.47 187.035 405.993 174.97C414.516 162.905 426.654 156.878 442.406 156.891C458.866 156.891 471.269 163.247 479.614 175.96C487.96 188.673 492.134 203.385 492.137 220.097C492.137 236.583 487.817 251.061 479.177 263.533C470.536 276.005 458.455 282.237 442.935 282.228H442.944ZM443.205 268.103C453.291 268.103 460.824 263.756 465.805 255.063C470.786 246.37 473.276 235.266 473.276 221.751C473.276 207.288 470.756 195.158 465.714 185.361C460.673 175.565 452.82 170.66 442.154 170.645C421.872 170.645 411.731 186.681 411.731 218.755C411.725 251.656 422.213 268.106 443.196 268.103H443.205Z" fill="#3F3D56"/>
<path opacity="0.15" d="M308.386 161.641C292.983 161.641 280.844 155.519 271.968 143.277C263.093 131.034 258.655 116.202 258.655 98.7826C258.655 81.2453 262.947 66.4441 271.53 54.379C280.114 42.3138 292.222 36.2873 307.854 36.2993C324.431 36.2993 336.921 42.6558 345.323 55.3688C353.726 68.0818 357.929 82.7956 357.932 99.5103C357.932 116.104 353.583 130.61 344.886 143.028C336.188 155.446 324.021 161.65 308.386 161.641ZM308.838 147.869C318.971 147.869 326.545 143.447 331.559 134.603C336.573 125.759 339.08 114.61 339.08 101.156C339.08 86.1796 336.514 73.917 331.383 64.368C326.251 54.8189 318.381 50.0429 307.772 50.0399C287.608 50.0399 277.526 66.0765 277.526 98.1498C277.526 131.299 287.96 147.872 308.829 147.869H308.838ZM313.912 279.755H291.633L437.486 38.7536H459.345L313.912 279.755ZM442.944 282.228C427.309 282.228 415.12 276.05 406.377 263.696C397.634 251.342 393.244 236.509 393.208 219.197C393.208 201.778 397.47 187.035 405.993 174.97C414.516 162.905 426.654 156.878 442.406 156.891C458.866 156.891 471.269 163.247 479.614 175.96C487.96 188.673 492.134 203.385 492.137 220.097C492.137 236.583 487.817 251.061 479.177 263.533C470.536 276.005 458.455 282.237 442.935 282.228H442.944ZM443.205 268.103C453.291 268.103 460.824 263.756 465.805 255.063C470.786 246.37 473.276 235.266 473.276 221.751C473.276 207.288 470.756 195.158 465.714 185.361C460.673 175.565 452.82 170.66 442.154 170.645C421.872 170.645 411.731 186.681 411.731 218.755C411.725 251.656 422.213 268.106 443.196 268.103H443.205Z" fill="black"/>
<path d="M294.391 161.641C278.988 161.641 266.849 155.519 257.973 143.277C249.098 131.034 244.66 116.202 244.66 98.7826C244.66 81.2453 248.952 66.4441 257.535 54.379C266.119 42.3138 278.226 36.2873 293.858 36.2993C310.435 36.2993 322.925 42.6558 331.328 55.3688C339.731 68.0818 343.934 82.7956 343.937 99.5103C343.937 116.104 339.588 130.61 330.89 143.028C322.193 155.446 310.026 161.65 294.391 161.641ZM294.843 147.869C304.976 147.869 312.55 143.447 317.564 134.603C322.578 125.759 325.085 114.61 325.085 101.156C325.085 86.1796 322.519 73.917 317.388 64.368C312.256 54.8189 304.386 50.0429 293.777 50.0399C273.613 50.0399 263.53 66.0765 263.53 98.1498C263.53 131.299 273.965 147.872 294.834 147.869H294.843ZM299.917 279.755H277.638L423.491 38.7536H445.349L299.917 279.755ZM428.948 282.228C413.313 282.228 401.125 276.05 392.382 263.696C383.639 251.342 379.249 236.509 379.213 219.197C379.213 201.778 383.475 187.035 391.998 174.97C400.521 162.905 412.659 156.878 428.411 156.891C444.871 156.891 457.274 163.247 465.619 175.96C473.965 188.673 478.139 203.385 478.142 220.097C478.142 236.583 473.822 251.061 465.181 263.533C456.541 276.005 444.46 282.237 428.939 282.228H428.948ZM429.21 268.103C439.296 268.103 446.829 263.756 451.81 255.063C456.791 246.37 459.281 235.266 459.281 221.751C459.281 207.288 456.76 195.158 451.719 185.361C446.678 175.565 438.822 170.66 428.149 170.645C407.868 170.645 397.727 186.681 397.727 218.755C397.727 251.656 408.218 268.106 429.201 268.103H429.21Z" fill="#032B4D"/>
<path d="M343.129 285.803C344.989 282.35 342.876 278.119 340.447 275.037C338.018 271.954 335.057 268.754 335.12 264.826C335.21 259.19 341.188 255.859 345.955 252.866C349.5 250.649 352.771 248.018 355.697 245.029C356.922 243.877 357.936 242.519 358.69 241.015C359.679 238.809 359.647 236.301 359.593 233.887C359.385 225.836 358.988 217.796 358.401 209.769" stroke="#3F3D56" stroke-width="4" stroke-miterlimit="10"/>
<path d="M367.484 209.326C367.417 207.853 366.979 206.421 366.213 205.162C365.447 203.903 364.377 202.857 363.101 202.121L361.133 206.017L361.191 201.299C360.252 201.024 359.275 200.906 358.298 200.95C356.562 201.032 354.89 201.627 353.492 202.66C352.094 203.693 351.033 205.118 350.444 206.755C349.855 208.391 349.764 210.166 350.182 211.854C350.601 213.543 351.51 215.069 352.794 216.24C354.079 217.411 355.682 218.175 357.4 218.434C359.118 218.693 360.874 218.437 362.446 217.697C364.019 216.957 365.337 215.766 366.233 214.276C367.13 212.786 367.566 211.064 367.484 209.326V209.326Z" fill="#FDCA05"/>
<path d="M351.819 268.871C350.898 270.665 349.388 272.086 347.544 272.897C345.7 273.708 343.633 273.86 341.69 273.327C339.748 272.793 338.047 271.608 336.874 269.968C335.701 268.329 335.127 266.335 335.247 264.322C335.368 262.309 336.176 260.398 337.537 258.911C338.897 257.424 340.727 256.45 342.719 256.153C344.712 255.856 346.745 256.254 348.479 257.28C350.214 258.306 351.543 259.898 352.244 261.789L346.754 266.259L352.803 264.849C352.801 266.249 352.463 267.628 351.819 268.871V268.871Z" fill="#FDCA05"/>
<path d="M347.481 251.782C346.328 251.836 345.176 251.662 344.091 251.27C343.006 250.879 342.008 250.277 341.155 249.499C340.302 248.721 339.61 247.783 339.119 246.738C338.628 245.692 338.348 244.56 338.294 243.406C338.226 242.029 338.486 240.654 339.052 239.397C339.577 238.222 340.353 237.177 341.325 236.334C342.296 235.491 343.441 234.872 344.677 234.52L344.628 238.136L346.619 234.195C348.946 234.086 351.222 234.907 352.944 236.477C354.667 238.048 355.696 240.24 355.805 242.57C355.914 244.9 355.094 247.179 353.525 248.904C351.957 250.629 349.768 251.659 347.44 251.768L347.481 251.782Z" fill="#FDCA05"/>
<path d="M368.808 237.576C367.641 237.653 366.472 237.497 365.366 237.116C364.261 236.736 363.243 236.138 362.371 235.359C361.499 234.58 360.792 233.634 360.289 232.578C359.787 231.521 359.5 230.375 359.445 229.206C359.391 228.037 359.569 226.869 359.971 225.77C360.373 224.671 360.989 223.664 361.784 222.806C362.58 221.949 363.538 221.259 364.603 220.777C365.667 220.294 366.818 220.029 367.986 219.998C369.628 219.918 371.259 220.305 372.69 221.114L371.137 225.372L374.333 222.303C376.049 223.868 377.073 226.052 377.182 228.373C377.222 229.187 377.146 230.003 376.956 230.796C376.519 232.659 375.487 234.33 374.017 235.553C372.546 236.777 370.717 237.487 368.808 237.576V237.576Z" fill="#FDCA05"/>
<path opacity="0.1" d="M366.301 211.672C364.274 211.893 362.306 212.526 360.27 212.653C358.234 212.779 355.999 212.291 354.713 210.705C354.017 209.855 353.674 208.775 353.088 207.843C352.533 206.977 351.773 206.261 350.875 205.76C350.312 206.875 349.991 208.097 349.936 209.346C349.881 210.594 350.093 211.84 350.556 213C351.02 214.161 351.725 215.209 352.625 216.075C353.525 216.941 354.599 217.605 355.775 218.023C356.951 218.441 358.203 218.603 359.447 218.499C360.691 218.394 361.898 218.026 362.988 217.417C364.079 216.809 365.027 215.975 365.77 214.971C366.514 213.967 367.035 212.816 367.299 211.595C366.965 211.613 366.635 211.636 366.301 211.672Z" fill="black"/>
<path opacity="0.1" d="M368.807 237.576C367.293 237.645 365.787 237.321 364.435 236.636C363.083 235.95 361.93 234.927 361.09 233.665C360.249 232.402 359.748 230.944 359.636 229.431C359.524 227.917 359.805 226.401 360.451 225.028C361.147 225.501 361.746 226.102 362.216 226.8C362.843 227.745 363.222 228.839 363.958 229.706C365.313 231.32 367.665 231.844 369.782 231.749C371.899 231.655 373.949 231.049 376.061 230.845C376.355 230.818 376.653 230.8 376.964 230.791C376.528 232.657 375.495 234.329 374.023 235.554C372.55 236.778 370.719 237.488 368.807 237.576V237.576Z" fill="black"/>
<path opacity="0.1" d="M347.481 251.782C346.328 251.836 345.176 251.662 344.091 251.27C343.006 250.879 342.008 250.277 341.155 249.499C340.302 248.721 339.61 247.783 339.119 246.737C338.628 245.692 338.348 244.56 338.294 243.406C338.226 242.028 338.486 240.654 339.052 239.397C339.777 239.88 340.406 240.493 340.908 241.205C341.589 242.168 342.018 243.28 342.817 244.17C344.298 245.82 346.79 246.403 349.034 246.349C351.277 246.294 353.304 245.77 355.467 245.603C354.931 247.329 353.877 248.849 352.448 249.954C351.019 251.06 349.285 251.698 347.481 251.782V251.782Z" fill="black"/>
<path opacity="0.1" d="M351.819 268.871C350.797 270.883 349.041 272.424 346.916 273.176C344.791 273.928 342.458 273.833 340.4 272.911C338.343 271.989 336.718 270.31 335.862 268.222C335.006 266.135 334.985 263.797 335.802 261.694C336.525 262.17 337.174 262.751 337.729 263.416C338.565 264.437 339.115 265.595 340.081 266.544C341.887 268.306 344.776 269.034 347.359 269.102C348.849 269.114 350.338 269.037 351.819 268.871V268.871Z" fill="black"/>
<path d="M479.013 285.351C480.872 281.898 478.76 277.667 476.331 274.584C473.902 271.502 470.941 268.302 471.004 264.374C471.094 258.738 477.071 255.406 481.839 252.414C485.384 250.197 488.654 247.566 491.581 244.577C492.806 243.425 493.819 242.067 494.574 240.563C495.562 238.357 495.531 235.849 495.477 233.435C495.269 225.384 494.872 217.344 494.285 209.317" stroke="#3F3D56" stroke-width="4" stroke-miterlimit="10"/>
<path d="M503.369 208.874C503.301 207.401 502.864 205.969 502.098 204.71C501.332 203.451 500.262 202.405 498.986 201.669L497.017 205.566L497.076 200.847C496.137 200.572 495.159 200.455 494.182 200.499C492.447 200.58 490.774 201.175 489.376 202.208C487.978 203.241 486.918 204.666 486.329 206.303C485.74 207.939 485.649 209.714 486.067 211.403C486.485 213.091 487.394 214.617 488.679 215.788C489.964 216.96 491.566 217.723 493.284 217.982C495.002 218.242 496.759 217.985 498.331 217.245C499.904 216.505 501.221 215.315 502.118 213.825C503.015 212.335 503.45 210.612 503.369 208.874V208.874Z" fill="#FF4568"/>
<path d="M487.703 268.419C486.781 270.212 485.272 271.634 483.427 272.445C481.583 273.256 479.517 273.408 477.574 272.874C475.631 272.341 473.931 271.155 472.758 269.516C471.585 267.876 471.01 265.883 471.131 263.87C471.252 261.857 472.06 259.946 473.42 258.459C474.781 256.972 476.611 255.998 478.603 255.701C480.595 255.404 482.629 255.802 484.363 256.828C486.097 257.854 487.426 259.446 488.127 261.337L482.638 265.807L488.687 264.396C488.685 265.797 488.347 267.176 487.703 268.419V268.419Z" fill="#FF4568"/>
<path d="M483.365 251.33C482.213 251.384 481.061 251.21 479.976 250.818C478.89 250.427 477.892 249.825 477.039 249.047C476.186 248.269 475.495 247.331 475.004 246.285C474.513 245.24 474.233 244.108 474.179 242.954C474.11 241.576 474.37 240.202 474.937 238.945C475.462 237.77 476.237 236.724 477.209 235.882C478.181 235.039 479.326 234.42 480.562 234.068L480.512 237.684L482.503 233.743H482.526C483.678 233.689 484.83 233.862 485.916 234.254C487.001 234.646 487.999 235.248 488.852 236.025C489.705 236.803 490.397 237.741 490.887 238.787C491.378 239.832 491.659 240.964 491.713 242.118C491.767 243.272 491.593 244.425 491.202 245.512C490.811 246.599 490.209 247.597 489.433 248.452C488.656 249.306 487.719 249.998 486.675 250.49C485.63 250.981 484.5 251.262 483.347 251.316L483.365 251.33Z" fill="#FF4568"/>
<path d="M504.691 237.123C503.525 237.201 502.355 237.045 501.25 236.664C500.145 236.284 499.127 235.686 498.255 234.907C497.383 234.128 496.675 233.182 496.173 232.125C495.671 231.069 495.384 229.923 495.329 228.754C495.274 227.585 495.453 226.417 495.855 225.318C496.256 224.219 496.873 223.212 497.668 222.354C498.463 221.497 499.422 220.807 500.486 220.324C501.551 219.842 502.701 219.577 503.87 219.545C505.512 219.465 507.143 219.852 508.574 220.662L507.021 224.92L510.217 221.851C511.932 223.416 512.957 225.599 513.066 227.921C513.106 228.735 513.03 229.551 512.84 230.344C512.403 232.207 511.371 233.877 509.901 235.101C508.43 236.324 506.601 237.034 504.691 237.123V237.123Z" fill="#FF4568"/>
<path opacity="0.1" d="M502.186 211.22C500.159 211.442 498.191 212.074 496.155 212.201C494.119 212.328 491.884 211.839 490.597 210.253C489.902 209.403 489.559 208.323 488.972 207.392C488.418 206.525 487.658 205.809 486.76 205.308C486.196 206.423 485.876 207.645 485.821 208.894C485.766 210.142 485.977 211.388 486.441 212.549C486.904 213.709 487.61 214.757 488.51 215.623C489.409 216.489 490.483 217.153 491.66 217.571C492.836 217.989 494.088 218.151 495.332 218.047C496.575 217.943 497.783 217.574 498.873 216.966C499.964 216.358 500.912 215.524 501.655 214.52C502.399 213.516 502.92 212.365 503.184 211.143C502.85 211.161 502.52 211.184 502.186 211.22Z" fill="black"/>
<path opacity="0.1" d="M504.69 237.123C503.177 237.193 501.671 236.869 500.319 236.184C498.966 235.498 497.814 234.475 496.973 233.212C496.133 231.95 495.632 230.492 495.52 228.978C495.408 227.465 495.689 225.949 496.334 224.576C497.03 225.048 497.63 225.65 498.099 226.348C498.727 227.293 499.106 228.386 499.842 229.254C501.196 230.868 503.548 231.392 505.666 231.297C507.783 231.202 509.832 230.597 511.945 230.393C512.239 230.366 512.537 230.348 512.848 230.339C512.412 232.205 511.379 233.877 509.906 235.102C508.434 236.326 506.603 237.036 504.69 237.123V237.123Z" fill="black"/>
<path opacity="0.1" d="M483.366 251.33C482.213 251.384 481.061 251.21 479.976 250.819C478.89 250.427 477.893 249.825 477.039 249.047C476.186 248.27 475.495 247.331 475.004 246.286C474.513 245.24 474.233 244.108 474.179 242.954C474.11 241.577 474.37 240.203 474.937 238.945C475.661 239.428 476.29 240.041 476.793 240.753C477.474 241.716 477.903 242.828 478.702 243.718C480.183 245.368 482.675 245.951 484.919 245.897C487.094 245.852 489.189 245.318 491.352 245.151C490.816 246.878 489.761 248.397 488.333 249.503C486.904 250.608 485.169 251.246 483.366 251.33V251.33Z" fill="black"/>
<path opacity="0.1" d="M487.704 268.419C486.681 270.431 484.926 271.972 482.801 272.724C480.675 273.476 478.342 273.381 476.285 272.459C474.228 271.537 472.603 269.858 471.747 267.77C470.891 265.682 470.869 263.345 471.686 261.242C472.41 261.718 473.059 262.298 473.614 262.964C474.449 263.985 475 265.142 475.966 266.092C477.772 267.854 480.661 268.582 483.243 268.65C484.733 268.662 486.223 268.585 487.704 268.419V268.419Z" fill="black"/>
<path d="M49.6276 279.475C47.7677 276.022 49.8805 271.791 52.3092 268.708C54.738 265.626 57.6995 262.426 57.6363 258.498C57.546 252.862 51.5689 249.53 46.8016 246.538C43.2561 244.321 39.9858 241.69 37.0595 238.701C35.834 237.549 34.8208 236.191 34.0664 234.687C33.0777 232.481 33.1093 229.973 33.1635 227.559C33.3712 219.508 33.7684 211.468 34.3553 203.441" stroke="#3F3D56" stroke-width="4" stroke-miterlimit="10"/>
<path d="M25.2713 202.998C25.3392 201.525 25.7763 200.093 26.5424 198.834C27.3085 197.575 28.3789 196.529 29.6548 195.793L31.6231 199.69L31.5644 194.971C32.5033 194.696 33.481 194.579 34.4582 194.623C36.1937 194.704 37.8662 195.299 39.2641 196.332C40.662 197.365 41.7225 198.79 42.3116 200.427C42.9007 202.063 42.9918 203.838 42.5735 205.527C42.1552 207.215 41.2462 208.741 39.9615 209.912C38.6769 211.084 37.0741 211.847 35.3561 212.106C33.638 212.366 31.8817 212.109 30.3093 211.369C28.7369 210.629 27.419 209.439 26.5223 207.949C25.6255 206.459 25.1902 204.736 25.2713 202.998V202.998Z" fill="#FF4568"/>
<path d="M40.9373 262.544C41.8591 264.337 43.3686 265.758 45.2128 266.569C47.057 267.381 49.1237 267.532 51.0664 266.999C53.009 266.466 54.7094 265.28 55.8825 263.64C57.0556 262.001 57.63 260.007 57.5093 257.994C57.3887 255.981 56.5804 254.071 55.22 252.583C53.8596 251.096 52.0298 250.122 50.0374 249.825C48.045 249.528 46.0113 249.926 44.2771 250.952C42.543 251.978 41.214 253.57 40.5129 255.461L46.0025 259.931L39.9531 258.521C39.9556 259.921 40.2931 261.301 40.9373 262.544V262.544Z" fill="#FF4568"/>
<path d="M45.2747 245.454C46.4272 245.508 47.579 245.334 48.6645 244.943C49.7499 244.551 50.7477 243.949 51.6008 243.171C52.4539 242.394 53.1456 241.455 53.6364 240.41C54.1273 239.365 54.4077 238.233 54.4615 237.079C54.5299 235.701 54.2699 234.327 53.7031 233.069C53.1783 231.894 52.4027 230.849 51.4309 230.006C50.4591 229.164 49.3146 228.545 48.0781 228.192L48.1278 231.808L46.1369 227.867C43.8094 227.758 41.5339 228.579 39.811 230.15C38.0881 231.72 37.059 233.912 36.95 236.242C36.8411 238.573 37.6612 240.851 39.23 242.576C40.7988 244.301 42.9877 245.331 45.3153 245.44L45.2747 245.454Z" fill="#FF4568"/>
<path d="M23.9491 231.247C25.1152 231.325 26.2851 231.169 27.3903 230.788C28.4955 230.408 29.5138 229.81 30.3855 229.031C31.2573 228.252 31.9651 227.306 32.4675 226.249C32.9699 225.193 33.2568 224.047 33.3115 222.878C33.3661 221.709 33.1874 220.541 32.7857 219.442C32.3841 218.343 31.7676 217.336 30.9723 216.478C30.177 215.621 29.2189 214.931 28.1541 214.448C27.0892 213.966 25.939 213.701 24.7707 213.669C23.1364 213.594 21.5139 213.981 20.0892 214.786L21.6422 219.044L18.4234 215.988C16.7112 217.55 15.6869 219.728 15.5748 222.045C15.5348 222.859 15.6108 223.675 15.8005 224.468C16.2374 226.331 17.2693 228.001 18.7398 229.225C20.2103 230.448 22.0392 231.158 23.9491 231.247Z" fill="#FF4568"/>
<path opacity="0.1" d="M26.4547 205.344C28.4817 205.566 30.45 206.198 32.486 206.325C34.522 206.452 36.7567 205.963 38.0433 204.377C38.7385 203.527 39.0816 202.447 39.6685 201.516C40.2227 200.649 40.9827 199.933 41.8805 199.432C42.4445 200.547 42.7646 201.769 42.8197 203.018C42.8748 204.266 42.6635 205.512 42.1999 206.673C41.7363 207.833 41.0311 208.881 40.1312 209.747C39.2314 210.613 38.1575 211.277 36.9812 211.695C35.8048 212.113 34.5531 212.275 33.3092 212.171C32.0654 212.067 30.8581 211.698 29.7677 211.09C28.6773 210.482 27.7288 209.648 26.9855 208.644C26.2423 207.64 25.7212 206.489 25.457 205.267C25.7911 205.285 26.1207 205.308 26.4547 205.344Z" fill="black"/>
<path opacity="0.1" d="M23.9486 231.248C25.4625 231.317 26.9685 230.993 28.3206 230.308C29.6727 229.623 30.825 228.599 31.6657 227.337C32.5064 226.075 33.007 224.616 33.119 223.103C33.231 221.59 32.9505 220.073 32.3048 218.701C31.6088 219.173 31.0096 219.774 30.5397 220.472C29.9122 221.417 29.533 222.511 28.7971 223.379C27.4428 224.992 25.0908 225.517 22.9735 225.422C20.8562 225.327 18.8067 224.721 16.6939 224.518C16.4005 224.491 16.1025 224.473 15.791 224.464C16.2275 226.33 17.2604 228.002 18.7328 229.226C20.2051 230.451 22.0365 231.161 23.9486 231.248V231.248Z" fill="black"/>
<path opacity="0.1" d="M45.2751 245.454C46.4276 245.508 47.5795 245.334 48.6649 244.943C49.7503 244.551 50.7481 243.949 51.6012 243.171C52.4543 242.394 53.146 241.455 53.6369 240.41C54.1277 239.364 54.4081 238.232 54.462 237.078C54.5303 235.701 54.2704 234.327 53.7036 233.069C52.9792 233.552 52.3502 234.165 51.8481 234.877C51.1664 235.84 50.7376 236.952 49.9385 237.842C48.4578 239.492 45.9658 240.075 43.7221 240.021C41.5462 239.976 39.4515 239.442 37.2891 239.275C37.8251 241.002 38.8792 242.521 40.3081 243.626C41.7369 244.732 43.4712 245.37 45.2751 245.454V245.454Z" fill="black"/>
<path opacity="0.1" d="M40.9375 262.543C41.9598 264.555 43.7152 266.096 45.8406 266.848C47.966 267.6 50.2987 267.505 52.3562 266.583C54.4137 265.661 56.0384 263.982 56.8944 261.894C57.7503 259.806 57.7719 257.469 56.9547 255.366C56.2315 255.842 55.582 256.422 55.0271 257.088C54.1919 258.109 53.6411 259.266 52.675 260.216C50.8693 261.978 47.98 262.706 45.3978 262.774C43.9077 262.786 42.4183 262.709 40.9375 262.543V262.543Z" fill="black"/>
<path d="M304.047 237.119C304.056 236.023 303.808 234.941 303.323 233.958C302.839 232.975 302.131 232.12 301.257 231.46C301.149 227.315 298.197 223.93 294.4 223.406C294.107 221.998 293.448 220.691 292.491 219.619C291.534 218.546 290.311 217.745 288.947 217.295V217.295C288.614 217.19 288.275 217.109 287.931 217.055H287.832L287.655 217.033H287.506H287.357H287.163H287.046H286.725C282.852 217.033 279.629 219.998 278.965 223.908C276.46 223.329 274.162 224.079 273.751 225.666C273.645 226.086 273.668 226.529 273.819 226.936C274.243 228.165 275.624 229.34 277.498 229.924L277.742 229.996C277.864 230.032 277.986 230.059 278.107 230.086H278.189C277.5 231.557 277.402 233.236 277.916 234.776C278.429 236.317 279.514 237.601 280.947 238.362C280.891 238.393 280.836 238.428 280.784 238.466C280.553 238.679 280.369 238.937 280.243 239.225C279.79 240.021 279.438 240.87 279.195 241.752C279.015 242.507 278.983 243.298 278.744 244.044C278.333 245.4 277.277 246.588 277.155 248.03C277.101 248.672 277.205 249.427 276.749 249.865C276.635 249.963 276.514 250.052 276.387 250.132C276.068 250.351 275.797 250.634 275.593 250.964C275.46 251.236 275.281 251.484 275.065 251.696C274.654 252.008 273.977 251.976 273.774 252.455C273.57 252.934 274.094 253.499 273.972 254.024C273.873 254.449 273.408 254.643 273.069 254.928C272.691 255.339 272.426 255.842 272.302 256.388C271.627 256.518 270.933 256.497 270.267 256.328C269.601 256.158 268.981 255.844 268.451 255.407C268.633 255.872 268.766 256.356 268.848 256.849C268.311 256.275 267.426 256.107 266.772 255.809C265.927 255.422 265.174 254.861 264.56 254.164L265.742 254.001L260.506 246.046L258.962 245.73L260.348 248.392C260.234 248.446 260.135 248.526 260.056 248.625C259.978 248.723 259.923 248.838 259.896 248.961C259.822 249.257 259.803 249.563 259.842 249.865C259.915 250.579 260.034 251.287 260.199 251.985L260.6 253.856C260.634 254.032 260.678 254.205 260.731 254.376C260.208 254.357 259.684 254.417 259.178 254.552C258.14 254.168 257.059 253.912 255.96 253.789C255.718 253.746 255.469 253.758 255.233 253.825C254.964 253.949 254.731 254.138 254.556 254.376C253.653 255.421 252.851 256.55 252.163 257.748C249.35 262.648 245.594 266.923 242.078 271.353C239.649 272.343 237.202 273.283 234.751 274.214L229.482 276.225C228.431 276.628 227.338 277.039 226.218 276.967C225.713 276.935 225.099 276.858 224.814 277.288C224.676 277.5 224.568 277.732 224.494 277.975C224.309 277.975 224.124 278.02 223.952 278.029H223.921C223.587 277.197 223.298 276.307 222.657 275.701C222.528 275.721 222.406 275.773 222.301 275.852C222.197 275.93 222.115 276.034 222.061 276.153C221.934 276.388 221.858 276.646 221.713 276.863C221.429 277.279 220.937 277.482 220.584 277.835C220.232 278.187 220.011 278.739 219.632 279.082C219.101 279.468 218.479 279.71 217.826 279.783C216.849 280.013 215.906 280.372 215.023 280.849C214.697 281.05 214.348 281.211 213.984 281.328C213.584 281.405 213.174 281.419 212.77 281.369L209.98 281.166C209.732 281.133 209.48 281.144 209.235 281.197C208.948 281.303 208.703 281.501 208.54 281.76C208.377 282.019 208.304 282.325 208.332 282.63C208.366 282.933 208.462 283.226 208.613 283.49C208.765 283.754 208.969 283.985 209.213 284.167C209.697 284.522 210.233 284.801 210.802 284.994C213.226 285.934 215.725 286.668 218.273 287.186V287.751C220.039 288.642 221.989 289.106 223.966 289.107C224.111 289.119 224.258 289.092 224.39 289.03C224.573 288.893 224.7 288.694 224.747 288.47C225.339 286.697 225.713 284.859 225.862 282.996C226.21 282.974 226.552 282.886 226.869 282.739C227.83 282.476 228.783 283.136 229.771 283.245C230.99 283.376 232.123 282.666 233.275 282.228C233.442 282.165 233.609 282.11 233.776 282.056C233.447 282.481 233.06 282.857 232.624 283.173C232.146 283.516 231.609 283.769 231.139 284.126C230.749 284.483 230.331 284.808 229.889 285.098C229.577 285.243 229.256 285.367 228.927 285.469C228.451 285.643 227.996 285.872 227.573 286.151C227.194 286.375 226.872 286.684 226.634 287.055C226.514 287.228 226.44 287.429 226.42 287.639C226.399 287.848 226.433 288.06 226.517 288.253C226.601 288.446 226.733 288.614 226.9 288.741C227.068 288.869 227.265 288.951 227.473 288.981C227.851 289.048 228.235 289.058 228.616 289.012C230.123 288.899 231.627 288.759 233.13 288.624C233.766 288.581 234.399 288.49 235.022 288.352C235.351 288.271 235.676 288.163 236.006 288.077C236.568 287.928 237.145 287.842 237.726 287.819C237.894 287.806 238.064 287.823 238.227 287.869C238.579 287.982 238.827 288.321 239.184 288.411C239.415 288.434 239.649 288.401 239.866 288.316C240.966 288.077 242.089 287.957 243.215 287.959C243.707 287.932 244.285 287.837 244.515 287.381C244.795 286.816 244.326 286.183 244.141 285.573C244.046 285.185 243.995 284.788 243.987 284.388C243.901 283.404 243.619 282.446 243.157 281.572C242.911 281.165 242.704 280.735 242.538 280.289C244.695 279.467 246.76 278.419 248.696 277.161C249.806 276.47 250.953 275.724 252.208 275.471C253.671 275.177 255.179 275.566 256.619 275.981C260.049 276.975 263.423 278.153 266.727 279.511C268.307 280.158 269.887 280.845 271.503 281.319C271.975 281.958 272.547 282.516 273.196 282.974C274.279 283.674 275.602 283.878 276.875 283.977C278.595 284.134 280.322 284.199 282.049 284.171C283.367 284.149 284.726 284.058 285.904 283.457C286.192 283.309 286.463 283.131 286.712 282.924C287.615 283.087 288.54 282.603 289.249 281.984C290.187 281.185 290.863 280.122 291.19 278.933C291.606 277.301 291.285 275.398 292.287 274.065C292.554 273.708 292.901 273.419 293.163 273.057C293.485 272.573 293.644 271.997 293.614 271.416L293.66 271.348C293.886 270.824 294.038 270.27 294.111 269.703C294.23 269.26 294.381 268.827 294.563 268.406C295.071 267.145 295.515 265.858 295.89 264.551C296.151 263.683 296.356 262.8 296.504 261.906C296.612 261.192 296.675 260.474 296.734 259.755C296.806 258.63 297.025 257.519 297.384 256.451C298.275 253.901 298.779 251.232 298.878 248.532C298.878 248.478 298.878 248.428 298.878 248.374C300.189 248.23 301.399 247.602 302.271 246.612C303.144 245.622 303.616 244.342 303.596 243.022C303.597 242.227 303.431 241.44 303.108 240.713C303.731 239.618 304.055 238.379 304.047 237.119V237.119ZM278.518 268.175C278.595 268.451 278.685 268.727 278.776 269.003C278.36 268.591 277.949 268.166 277.53 267.76C277.697 267.809 277.864 267.864 278.026 267.922C278.199 267.991 278.365 268.076 278.523 268.175H278.518ZM276.496 266.82C274.031 264.677 271.178 263.014 268.654 260.944C270.008 261.626 271.363 262.417 272.717 263.176C274.294 264.08 275.889 264.945 277.502 265.771C277.238 266.173 276.901 266.522 276.509 266.801L276.496 266.82ZM277.548 261.423L277.665 261.301C277.665 261.604 277.665 261.888 277.665 262.146C277.444 262.074 277.214 262.001 277.001 261.92C277.196 261.761 277.38 261.589 277.552 261.405L277.548 261.423ZM255.847 267.226C256.862 266.077 257.745 264.817 258.479 263.47C259.454 265.183 261.043 266.417 262.397 267.85C260.221 267.543 258.041 267.303 255.851 267.208L255.847 267.226Z" fill="url(#paint0_linear)"/>
<path d="M259.368 246.389L260.926 246.706L266.23 254.552L263.887 254.869L259.368 246.389Z" fill="#2F2E41"/>
<path d="M221.649 278.237C222.069 279.628 222.587 280.987 223.198 282.305C224.955 281.937 226.684 281.443 228.371 280.827C228.045 280.318 227.686 279.83 227.297 279.367C226.882 278.905 226.387 278.524 225.834 278.241C225.297 278.006 224.633 278.183 224.06 278.214C223.257 278.244 222.453 278.252 221.649 278.237Z" fill="#FBBEBE"/>
<path d="M225.843 280.334C224.968 280.058 224.43 279.172 224.074 278.318C223.717 277.464 223.428 276.533 222.751 275.904C222.622 275.925 222.5 275.976 222.396 276.055C222.292 276.134 222.209 276.238 222.155 276.356C222.024 276.582 221.947 276.84 221.798 277.057C221.518 277.464 221.022 277.663 220.665 278.011C220.309 278.359 220.087 278.887 219.704 279.235C219.171 279.619 218.549 279.858 217.898 279.932C216.914 280.155 215.964 280.507 215.072 280.98C214.742 281.172 214.39 281.323 214.024 281.432C213.621 281.509 213.209 281.523 212.801 281.473L209.989 281.269C209.739 281.238 209.485 281.251 209.239 281.306C208.953 281.405 208.708 281.599 208.544 281.854C208.381 282.11 208.307 282.413 208.336 282.716C208.374 283.017 208.473 283.307 208.629 283.568C208.784 283.829 208.992 284.054 209.239 284.23C209.728 284.58 210.267 284.854 210.837 285.044C213.288 285.966 215.809 286.687 218.376 287.2V287.756C220.161 288.64 222.123 289.104 224.114 289.111C224.269 289.125 224.424 289.099 224.566 289.035C224.749 288.901 224.877 288.705 224.927 288.483C225.602 286.508 225.995 284.448 226.096 282.363C226.148 281.836 226.108 281.304 225.979 280.79C225.825 280.284 226.349 280.497 225.861 280.298" fill="#2F2E41"/>
<path d="M279.764 269.721C271.425 270.227 263.191 267.777 254.839 267.515C253.803 267.452 252.762 267.519 251.742 267.714C250.679 268 249.65 268.4 248.673 268.907C244.199 270.991 239.567 272.718 234.94 274.444L229.631 276.424C228.565 276.817 227.468 277.219 226.335 277.152C225.83 277.12 225.211 277.043 224.922 277.468C224.06 278.747 224.471 280.632 225.04 282.069C225.225 282.521 225.536 283.041 226.033 283.095C226.384 283.071 226.728 282.984 227.049 282.838C228.015 282.58 228.981 283.231 229.974 283.335C231.206 283.466 232.348 282.765 233.509 282.336C235.432 281.626 237.536 281.649 239.558 281.31C242.953 280.745 246.095 279.168 249.038 277.369C250.158 276.686 251.296 275.954 252.578 275.705C254.054 275.416 255.575 275.796 257.024 276.207C260.479 277.186 263.88 278.346 267.213 279.683C268.948 280.438 270.727 281.087 272.541 281.626C276.492 282.668 280.672 282.424 284.477 280.93C285.831 280.402 287.258 279.47 287.334 278.029C287.379 277.206 286.743 276.483 286.319 275.769C286.043 275.317 285.772 274.865 285.474 274.435C284.039 272.338 282.296 269.567 279.764 269.721Z" fill="#2F2E41"/>
<path opacity="0.1" d="M279.764 269.721C271.425 270.227 263.191 267.777 254.839 267.515C253.803 267.452 252.762 267.519 251.742 267.714C250.679 268 249.65 268.4 248.673 268.907C244.199 270.991 239.567 272.718 234.94 274.444L229.631 276.424C228.565 276.817 227.468 277.219 226.335 277.152C225.83 277.12 225.211 277.043 224.922 277.468C224.06 278.747 224.471 280.632 225.04 282.069C225.225 282.521 225.536 283.041 226.033 283.095C226.384 283.071 226.728 282.984 227.049 282.838C228.015 282.58 228.981 283.231 229.974 283.335C231.206 283.466 232.348 282.765 233.509 282.336C235.432 281.626 237.536 281.649 239.558 281.31C242.953 280.745 246.095 279.168 249.038 277.369C250.158 276.686 251.296 275.954 252.578 275.705C254.054 275.416 255.575 275.796 257.024 276.207C260.479 277.186 263.88 278.346 267.213 279.683C268.948 280.438 270.727 281.087 272.541 281.626C276.492 282.668 280.672 282.424 284.477 280.93C285.831 280.402 287.258 279.47 287.334 278.029C287.379 277.206 286.743 276.483 286.319 275.769C286.043 275.317 285.772 274.865 285.474 274.435C284.039 272.338 282.296 269.567 279.764 269.721Z" fill="black"/>
<path d="M237.653 278.643C238.96 279.086 240.275 279.496 241.599 279.873C242.344 278.648 243.734 277.798 244.05 276.402C244.068 276.341 244.068 276.277 244.05 276.216C244.016 276.157 243.964 276.109 243.901 276.081C242.95 275.555 241.894 275.246 240.809 275.177C239.951 275.122 239.563 276.017 239.175 276.646C239.039 276.899 238.001 278.761 237.653 278.643Z" fill="#FBBEBE"/>
<path d="M239.491 277.749C239.101 277.684 238.729 277.538 238.399 277.321C238.069 277.104 237.787 276.82 237.573 276.487C237.388 276.167 237.193 275.733 236.823 275.755C236.453 275.778 236.327 276.185 236.25 276.524C236 277.79 235.639 279.032 235.171 280.235C234.699 281.441 233.9 282.491 232.864 283.267C232.381 283.602 231.844 283.855 231.37 284.208C230.975 284.56 230.552 284.881 230.106 285.166C229.791 285.31 229.467 285.43 229.135 285.527C228.649 285.697 228.184 285.923 227.749 286.201C227.369 286.424 227.045 286.734 226.806 287.105C226.69 287.293 226.622 287.507 226.608 287.727C226.594 287.948 226.634 288.169 226.725 288.37C226.822 288.534 226.953 288.676 227.108 288.785C227.264 288.895 227.441 288.971 227.627 289.008C228.008 289.071 228.396 289.08 228.779 289.035C230.3 288.922 231.817 288.786 233.334 288.651C233.976 288.611 234.614 288.523 235.243 288.388C235.577 288.307 235.902 288.199 236.232 288.113C236.801 287.968 237.383 287.883 237.97 287.86C238.14 287.847 238.311 287.864 238.476 287.909C238.828 288.022 239.076 288.361 239.437 288.443C239.67 288.467 239.905 288.436 240.123 288.352C241.234 288.117 242.365 287.999 243.5 288C243.997 287.973 244.584 287.878 244.809 287.43C245.094 286.874 244.624 286.251 244.435 285.654C244.341 285.272 244.288 284.881 244.277 284.488C244.191 283.517 243.907 282.573 243.441 281.717C243.053 281.003 242.539 280.216 242.796 279.457C242.934 279.22 243.022 278.957 243.053 278.684C242.99 277.459 240.178 277.911 239.491 277.749Z" fill="#2F2E41"/>
<path d="M267.263 256.333C265.786 255.68 264.602 254.503 263.94 253.029C263.805 252.713 263.688 252.383 263.557 252.062C263.117 251.001 262.437 250.057 261.57 249.305C261.477 249.202 261.364 249.121 261.237 249.068C261.109 249.014 260.972 248.988 260.834 248.993C260.701 249.032 260.581 249.107 260.485 249.209C260.39 249.31 260.324 249.435 260.293 249.571C260.215 249.866 260.195 250.173 260.234 250.475C260.311 251.177 260.432 251.872 260.595 252.559L261.001 254.403C261.053 254.686 261.138 254.962 261.254 255.226C261.428 255.535 261.658 255.809 261.931 256.035C262.302 256.378 262.676 256.708 263.055 257.029C263.264 257.219 263.493 257.385 263.737 257.526C264.138 257.716 264.566 257.841 265.006 257.897C266.663 258.204 268.346 258.647 269.741 259.705C269.741 259.705 269.741 258.471 269.71 258.349C269.693 257.991 269.57 257.647 269.358 257.359C268.834 256.794 267.931 256.627 267.263 256.333Z" fill="#FBBEBE"/>
<path opacity="0.1" d="M267.263 256.333C265.786 255.68 264.602 254.503 263.94 253.029C263.805 252.713 263.688 252.383 263.557 252.062C263.117 251.001 262.437 250.057 261.57 249.305C261.477 249.202 261.364 249.121 261.237 249.068C261.109 249.014 260.972 248.988 260.834 248.993C260.701 249.032 260.581 249.107 260.485 249.209C260.39 249.31 260.324 249.435 260.293 249.571C260.215 249.866 260.195 250.173 260.234 250.475C260.311 251.177 260.432 251.872 260.595 252.559L261.001 254.403C261.053 254.686 261.138 254.962 261.254 255.226C261.428 255.535 261.658 255.809 261.931 256.035C262.302 256.378 262.676 256.708 263.055 257.029C263.264 257.219 263.493 257.385 263.737 257.526C264.138 257.716 264.566 257.841 265.006 257.897C266.663 258.204 268.346 258.647 269.741 259.705C269.741 259.705 269.741 258.471 269.71 258.349C269.693 257.991 269.57 257.647 269.358 257.359C268.834 256.794 267.931 256.627 267.263 256.333Z" fill="black"/>
<path d="M284.237 242.231C285.356 242.231 286.264 241.316 286.264 240.188C286.264 239.06 285.356 238.145 284.237 238.145C283.117 238.145 282.21 239.06 282.21 240.188C282.21 241.316 283.117 242.231 284.237 242.231Z" fill="#2F2E41"/>
<path d="M282.982 238.954C282.438 238.83 281.867 238.912 281.38 239.185C281.145 239.392 280.959 239.648 280.833 239.935C280.377 240.715 280.022 241.551 279.777 242.421C279.596 243.167 279.565 243.944 279.325 244.681C278.91 246.037 277.845 247.189 277.723 248.604C277.669 249.237 277.773 249.983 277.312 250.412C277.198 250.508 277.075 250.594 276.946 250.67C276.626 250.885 276.354 251.165 276.147 251.492C276.009 251.786 275.818 252.051 275.583 252.274C275.168 252.582 274.486 252.55 274.283 253.024C274.08 253.499 274.603 254.05 274.481 254.566C274.382 254.986 273.913 255.18 273.579 255.47C273.198 255.873 272.932 256.371 272.807 256.912C272.128 257.039 271.431 257.019 270.761 256.851C270.092 256.683 269.467 256.372 268.929 255.94C269.493 257.336 269.507 258.878 269.529 260.383C269.594 260.864 269.466 261.352 269.172 261.739C270.789 261.775 272.36 262.191 273.935 262.566C274.609 262.792 275.338 262.792 276.012 262.566C276.372 262.372 276.695 262.115 276.964 261.807C277.822 260.934 278.721 259.999 278.928 258.783C278.983 258.099 278.995 257.412 278.964 256.726C279.047 255.88 279.221 255.045 279.484 254.236C279.937 252.556 280.239 250.839 280.386 249.106C280.481 248.035 281.402 247.176 281.89 246.217C282.793 244.41 283.741 242.534 283.813 240.509C283.876 239.849 283.65 239.04 282.982 238.954Z" fill="#2F2E41"/>
<path opacity="0.1" d="M282.982 238.954C282.438 238.83 281.867 238.912 281.38 239.185C281.145 239.392 280.959 239.648 280.833 239.935C280.377 240.715 280.022 241.551 279.777 242.421C279.596 243.167 279.565 243.944 279.325 244.681C278.91 246.037 277.845 247.189 277.723 248.604C277.669 249.237 277.773 249.983 277.312 250.412C277.198 250.508 277.075 250.594 276.946 250.67C276.626 250.885 276.354 251.165 276.147 251.492C276.009 251.786 275.818 252.051 275.583 252.274C275.168 252.582 274.486 252.55 274.283 253.024C274.08 253.499 274.603 254.05 274.481 254.566C274.382 254.986 273.913 255.18 273.579 255.47C273.198 255.873 272.932 256.371 272.807 256.912C272.128 257.039 271.431 257.019 270.761 256.851C270.092 256.683 269.467 256.372 268.929 255.94C269.493 257.336 269.507 258.878 269.529 260.383C269.594 260.864 269.466 261.352 269.172 261.739C270.789 261.775 272.36 262.191 273.935 262.566C274.609 262.792 275.338 262.792 276.012 262.566C276.372 262.372 276.695 262.115 276.964 261.807C277.822 260.934 278.721 259.999 278.928 258.783C278.983 258.099 278.995 257.412 278.964 256.726C279.047 255.88 279.221 255.045 279.484 254.236C279.937 252.556 280.239 250.839 280.386 249.106C280.481 248.035 281.402 247.176 281.89 246.217C282.793 244.41 283.741 242.534 283.813 240.509C283.876 239.849 283.65 239.04 282.982 238.954Z" fill="black"/>
<path d="M281.087 271.48C279.349 270.652 278.08 269.111 276.676 267.791C273.995 265.269 270.717 263.488 267.9 261.124C266.036 259.561 264.366 257.739 262.312 256.428C260.505 255.274 258.456 254.555 256.325 254.327C256.082 254.284 255.832 254.296 255.594 254.363C255.325 254.483 255.09 254.67 254.912 254.905C254.002 255.932 253.193 257.045 252.497 258.227C248.926 264.293 243.856 269.396 239.654 275.041C239.519 275.174 239.439 275.353 239.43 275.542C239.42 275.732 239.483 275.917 239.604 276.063L240.457 277.74C240.936 278.675 241.703 279.769 242.714 279.584C243.178 279.45 243.594 279.185 243.911 278.82L247.748 275.145L251.77 271.294C254.127 269.034 256.524 266.729 258.063 263.845C259.264 265.929 261.395 267.294 262.858 269.206C263.413 269.929 263.864 270.729 264.361 271.498C265.16 272.732 266.063 273.889 266.966 275.041L271.584 280.94C272.167 281.78 272.889 282.514 273.72 283.109C274.812 283.801 276.144 283.986 277.43 284.099C279.164 284.257 280.904 284.321 282.645 284.289C283.972 284.266 285.353 284.181 286.527 283.588C287.701 282.996 288.698 281.78 288.635 280.456C288.563 279.762 288.337 279.093 287.972 278.499C286.342 275.471 284.184 272.94 281.087 271.48Z" fill="#2F2E41"/>
<path d="M285.484 243.171C286.344 243.171 287.042 242.469 287.042 241.603C287.042 240.736 286.344 240.034 285.484 240.034C284.624 240.034 283.927 240.736 283.927 241.603C283.927 242.469 284.624 243.171 285.484 243.171Z" fill="#E8E8F0"/>
<path d="M285.14 240.423C285.492 241.124 285.554 241.936 285.312 242.683C285.071 243.417 284.734 244.117 284.31 244.762C283.944 245.429 283.507 246.053 283.005 246.624C285.411 246.742 287.745 245.797 289.867 244.649C291.578 243.745 293.284 242.593 294.196 240.871C293.925 240.935 293.643 240.943 293.368 240.892C293.094 240.841 292.833 240.734 292.603 240.577C292.143 240.256 291.732 239.873 291.379 239.438L290.174 238.082C289.889 237.784 289.639 237.455 289.429 237.101C289.165 236.62 289.053 236.07 289.108 235.523C288.629 236.026 288.092 236.472 287.51 236.852C286.648 237.417 285.705 237.824 284.833 238.38C284.526 238.579 283.845 238.9 284.021 239.284C284.197 239.668 284.896 239.989 285.14 240.423Z" fill="#FBBEBE"/>
<path opacity="0.1" d="M285.14 240.423C285.492 241.124 285.554 241.936 285.312 242.683C285.071 243.417 284.734 244.117 284.31 244.762C283.944 245.429 283.507 246.053 283.005 246.624C285.411 246.742 287.745 245.797 289.867 244.649C291.578 243.745 293.284 242.593 294.196 240.871C293.925 240.935 293.643 240.943 293.368 240.892C293.094 240.841 292.833 240.734 292.603 240.577C292.143 240.256 291.732 239.873 291.379 239.438L290.174 238.082C289.889 237.784 289.639 237.455 289.429 237.101C289.165 236.62 289.053 236.07 289.108 235.523C288.629 236.026 288.092 236.472 287.51 236.852C286.648 237.417 285.705 237.824 284.833 238.38C284.526 238.579 283.845 238.9 284.021 239.284C284.197 239.668 284.896 239.989 285.14 240.423Z" fill="black"/>
<path d="M285.173 240.658C284.93 241.003 284.799 241.414 284.799 241.836C284.799 242.258 284.93 242.669 285.173 243.013C285.241 243.099 285.498 243.637 285.624 243.642C285.731 243.632 285.83 243.582 285.9 243.501C286.445 242.931 286.955 242.327 287.426 241.693C287.901 241.052 288.589 240.6 289.367 240.419C290.31 240.27 291.218 240.771 292.044 241.251C292.399 241.427 292.708 241.684 292.947 242.001C293.121 242.315 293.224 242.664 293.249 243.022C293.486 245.177 293.577 247.346 293.52 249.513C293.564 251.075 293.461 252.639 293.213 254.182C293.06 254.977 292.829 255.755 292.721 256.559C292.642 257.268 292.61 257.98 292.626 258.693V261.676C292.606 262.223 292.646 262.77 292.744 263.308C292.93 263.95 293.148 264.582 293.398 265.202C293.618 265.939 293.769 266.696 293.85 267.462L294.256 270.549C294.387 271.525 294.482 272.587 293.89 273.369C293.628 273.726 293.276 274.006 292.987 274.359C291.972 275.652 292.31 277.527 291.859 279.132C291.525 280.309 290.842 281.358 289.899 282.138C289.182 282.748 288.252 283.231 287.322 283.042C286.071 282.807 285.317 281.5 284.974 280.266C284.631 279.032 284.523 277.686 283.769 276.65C283.164 275.796 282.229 275.263 281.385 274.653C280.541 274.042 279.71 273.261 279.525 272.23C279.444 271.778 279.494 271.326 279.449 270.874C279.382 270.298 279.161 269.751 278.81 269.289C278.459 268.828 277.99 268.47 277.453 268.252C276.812 268.004 276.018 267.913 275.647 267.349C276.567 266.771 277.236 265.869 277.525 264.822C277.806 263.79 277.957 262.727 277.977 261.658L278.194 258.069C278.288 256.465 278.334 254.874 279.038 253.432C279.354 252.79 279.747 252.184 280.072 251.547C280.507 250.652 280.878 249.728 281.182 248.781C281.692 247.312 282.207 245.838 282.663 244.351C282.845 243.631 283.118 242.937 283.475 242.286C283.895 241.608 284.451 240.794 285.173 240.658Z" fill="#E8E8F0"/>
<path d="M277.213 263.976L278.161 264.008L278.364 262.575C278.391 262.289 278.458 262.007 278.563 261.739C278.72 261.456 278.903 261.188 279.109 260.939C280.043 259.619 279.976 257.865 280.206 256.261C280.513 254.123 281.407 252.116 282.292 250.145L284.134 246.037C284.298 245.699 284.429 245.346 284.526 244.984C284.607 244.584 284.645 244.176 284.639 243.768C284.639 243.135 284.847 240.825 284.86 240.188C284.86 239.953 284.346 240.084 284.237 239.876C284.007 239.424 283.691 240.654 283.258 240.925C282.849 241.237 282.552 241.673 282.409 242.168C282.012 243.203 281.768 244.292 281.398 245.332C281.073 246.396 280.481 247.36 279.678 248.13C279.303 248.464 278.865 248.726 278.509 249.079C277.362 250.213 277.254 252.003 277.213 253.599C277.186 254.588 277.001 263.976 277.213 263.976Z" fill="#2F2E41"/>
<path d="M290.87 238.945C289.967 239.307 289.443 240.301 289.186 241.268C288.929 242.236 288.82 243.257 288.324 244.116C287.168 246.132 284.22 246.719 283.403 248.898C283.195 249.634 283.084 250.393 283.073 251.158C282.929 252.717 282.414 254.227 282.261 255.786C282.181 256.999 282.21 258.217 282.347 259.425L283.38 271.733C283.581 273.545 283.476 275.379 283.069 277.157C284.129 277.309 285.211 277.131 286.166 276.646C287.136 276.194 288.021 275.597 288.951 275.082C290.554 274.178 292.323 273.568 293.723 272.37C293.977 272.172 294.195 271.932 294.368 271.66C294.593 271.143 294.745 270.597 294.82 270.038C294.939 269.602 295.09 269.176 295.271 268.763C295.79 267.522 296.242 266.255 296.626 264.966C296.889 264.111 297.095 263.24 297.244 262.358C297.357 261.658 297.416 260.948 297.479 260.243C297.551 259.134 297.771 258.039 298.134 256.989C299.029 254.482 299.536 251.852 299.637 249.192C299.668 248.807 299.642 248.421 299.56 248.044C299.404 247.587 299.195 247.15 298.937 246.742C298.508 245.933 298.251 245.043 297.845 244.224C296.942 242.371 295.321 240.966 293.628 239.786C292.761 239.212 291.809 238.588 290.87 238.945Z" fill="#2F2E41"/>
<path d="M269.317 259.027C268.584 258.643 267.92 258.139 267.354 257.535C267.096 257.232 266.902 256.893 266.622 256.595C265.959 255.887 265.099 255.396 264.153 255.185C263.214 254.977 262.252 254.885 261.291 254.909C260.648 254.865 260.003 254.943 259.39 255.14C259.082 255.24 258.805 255.418 258.584 255.655C258.363 255.892 258.205 256.181 258.126 256.496C257.986 257.264 258.487 258.01 259.088 258.498C259.646 258.955 260.303 259.275 261.006 259.433C261.58 259.533 262.159 259.601 262.74 259.637C266.153 259.994 269.2 261.852 272.189 263.547C274.816 265.032 277.495 266.423 280.224 267.719C280.333 266.901 280.378 266.076 280.36 265.251C280.36 264.636 280.315 263.696 279.732 263.334C279.055 262.909 277.927 262.814 277.177 262.561C275.418 261.987 273.7 261.292 272.035 260.482C271.092 260.026 270.189 259.542 269.317 259.027Z" fill="#FBBEBE"/>
<path d="M284.237 239.723C287.596 239.723 290.318 236.981 290.318 233.598C290.318 230.216 287.596 227.474 284.237 227.474C280.879 227.474 278.156 230.216 278.156 233.598C278.156 236.981 280.879 239.723 284.237 239.723Z" fill="#FBBEBE"/>
<path d="M292.607 245.888C292.123 246.569 291.727 247.308 291.429 248.089C290.675 249.639 289.497 250.968 288.91 252.609C288.287 254.313 288.31 256.342 287.104 257.685C286.862 257.888 286.679 258.154 286.576 258.453C286.569 258.64 286.547 258.826 286.513 259.009C286.341 259.497 285.542 259.52 285.393 260.017C285.353 260.162 285.393 260.32 285.321 260.469C285.199 260.79 284.779 260.835 284.495 261.03C283.903 261.432 284.043 262.363 283.592 262.942C283.408 263.156 283.172 263.319 282.905 263.412C282.639 263.506 282.352 263.528 282.075 263.475C281.522 263.358 280.989 263.159 280.495 262.883C280.321 262.785 280.129 262.725 279.931 262.706C279.695 262.711 279.467 262.789 279.276 262.928C278.152 263.642 277.624 265.061 277.633 266.399C277.712 267.737 278.029 269.05 278.567 270.277C278.631 270.489 278.737 270.686 278.879 270.856C279.249 271.249 279.899 271.186 280.396 270.964C280.861 270.689 281.356 270.467 281.872 270.304C282.811 270.133 283.732 270.784 284.684 270.729C285.381 270.623 286.037 270.333 286.585 269.889C287.552 269.301 288.418 268.561 289.149 267.696C289.565 267.15 289.872 266.526 290.237 265.943C290.704 265.226 291.217 264.541 291.772 263.891L295.28 259.592C295.632 259.185 295.948 258.748 296.223 258.286C296.54 257.661 296.786 257.003 296.959 256.324C297.335 255.192 297.579 254.019 297.686 252.83C297.704 251.846 297.618 250.863 297.429 249.897C297.311 248.936 297.057 247.997 296.675 247.108C295.894 245.526 294.038 244.216 292.607 245.888Z" fill="#2F2E41"/>
<path d="M304.823 237.91C304.828 236.824 304.575 235.753 304.086 234.784C303.596 233.815 302.883 232.976 302.006 232.337C301.98 230.409 301.27 228.554 300.005 227.101C298.739 225.648 296.999 224.693 295.095 224.405C294.727 222.579 293.727 220.941 292.271 219.781C290.815 218.621 288.998 218.012 287.138 218.062C285.278 218.113 283.495 218.819 282.104 220.056C280.713 221.293 279.803 222.982 279.534 224.825C277.005 224.255 274.694 224.997 274.274 226.556C273.823 228.188 275.629 230.095 278.301 230.818C279.139 231.055 280.011 231.143 280.879 231.076C281.5 231.99 282.306 232.763 283.243 233.347C284.181 233.931 285.23 234.312 286.323 234.466C286.644 235.94 287.37 237.296 288.419 238.379C289.468 239.463 290.798 240.232 292.26 240.6C292.664 241.578 293.292 242.448 294.093 243.14C294.093 243.33 294.061 243.524 294.061 243.723C294.032 244.418 294.144 245.111 294.389 245.762C294.635 246.412 295.009 247.006 295.49 247.508C295.971 248.01 296.548 248.41 297.187 248.682C297.825 248.955 298.513 249.096 299.207 249.096C299.902 249.096 300.589 248.955 301.228 248.682C301.867 248.41 302.444 248.01 302.925 247.508C303.406 247.006 303.78 246.412 304.026 245.762C304.271 245.111 304.383 244.418 304.354 243.723C304.354 242.943 304.186 242.172 303.862 241.463C304.496 240.387 304.829 239.16 304.823 237.91V237.91Z" fill="#F86D70"/>
<path opacity="0.1" d="M275.989 226.868C276.409 225.309 278.698 224.567 281.249 225.137C281.545 223.265 282.493 221.558 283.924 220.317C285.356 219.077 287.179 218.383 289.072 218.357C289.248 218.357 289.424 218.357 289.596 218.357C288.864 218.133 288.103 218.021 287.338 218.022C285.445 218.048 283.622 218.742 282.191 219.983C280.759 221.223 279.812 222.93 279.515 224.802C276.987 224.233 274.676 224.974 274.256 226.534C273.804 228.165 275.61 230.073 278.283 230.796C278.78 230.934 279.289 231.022 279.804 231.058C277.267 230.317 275.56 228.464 275.989 226.868Z" fill="black"/>
<path opacity="0.1" d="M295.777 244.039C295.777 243.84 295.777 243.646 295.809 243.451C295.008 242.762 294.38 241.893 293.976 240.916C292.515 240.545 291.186 239.774 290.138 238.69C289.09 237.606 288.363 236.251 288.039 234.778C286.946 234.625 285.896 234.244 284.959 233.66C284.021 233.076 283.216 232.302 282.595 231.388C282.089 231.428 281.581 231.414 281.078 231.347C281.702 232.189 282.487 232.899 283.388 233.434C284.289 233.97 285.287 234.32 286.324 234.466C286.645 235.94 287.371 237.296 288.42 238.379C289.468 239.463 290.799 240.232 292.26 240.599C292.665 241.578 293.293 242.448 294.093 243.14C294.093 243.329 294.062 243.524 294.062 243.723C294.039 245.108 294.564 246.447 295.523 247.446C296.482 248.445 297.797 249.024 299.181 249.056C298.171 248.666 297.304 247.977 296.696 247.08C296.088 246.184 295.767 245.123 295.777 244.039Z" fill="black"/>
<path d="M287.02 235.842C287.433 235.528 287.429 234.827 287.012 234.277C286.594 233.726 285.92 233.534 285.507 233.848C285.095 234.162 285.098 234.863 285.516 235.414C285.934 235.965 286.607 236.156 287.02 235.842Z" fill="#FBBEBE"/>
<path d="M141.663 266.318L147.676 262.779C146.863 261.388 145.824 260.143 144.601 259.095L133.261 262.625L142.146 257.395C139.946 256.189 137.47 255.577 134.962 255.62C132.454 255.662 130 256.358 127.842 257.638C125.685 258.919 123.897 260.739 122.655 262.921C121.413 265.103 120.761 267.571 120.761 270.083C120.761 278.069 127.23 278.345 135.207 278.345C143.184 278.345 149.653 278.069 149.653 270.083C149.658 268.058 149.235 266.056 148.412 264.207L141.663 266.318Z" fill="#FDCA05"/>
<path opacity="0.1" d="M143.193 274.083C142.553 273.44 141.837 272.877 141.062 272.406C139.974 271.678 138.841 270.937 137.554 270.693C136.426 270.476 135.261 270.661 134.11 270.593C132.111 270.471 130.229 269.607 128.833 268.171C128.011 267.321 127.365 266.277 126.377 265.626C125.272 264.968 123.968 264.73 122.702 264.952C122.335 265.004 121.972 265.078 121.614 265.174C121.048 266.748 120.759 268.409 120.761 270.082C120.761 278.069 127.23 278.345 135.207 278.345C139.08 278.345 142.593 278.282 145.188 277.301L144.737 276.492C144.327 275.626 143.808 274.817 143.193 274.083Z" fill="black"/>
<path d="M163.392 67.7334H82.8425C81.9923 67.7334 81.1768 68.0717 80.5757 68.6738C79.9745 69.2759 79.6367 70.0925 79.6367 70.944V81.6773C79.6367 82.5288 79.9745 83.3454 80.5757 83.9475C81.1768 84.5496 81.9923 84.8879 82.8425 84.8879H87.2128V139.409C87.2128 140.26 87.5506 141.077 88.1518 141.679C88.753 142.281 89.5684 142.619 90.4186 142.619H151.204C152.054 142.619 152.869 142.281 153.471 141.679C154.072 141.077 154.41 140.26 154.41 139.409V84.8879H163.392C164.242 84.8879 165.057 84.5496 165.658 83.9475C166.26 83.3454 166.597 82.5288 166.597 81.6773V70.944C166.597 70.0925 166.26 69.2759 165.658 68.6738C165.057 68.0717 164.242 67.7334 163.392 67.7334V67.7334Z" fill="#F2F2F2"/>
<path d="M93.8008 81.5884H160.998V133.748C160.998 135.401 160.342 136.986 159.175 138.154C158.008 139.323 156.426 139.98 154.775 139.98H100.023C98.3727 139.98 96.7901 139.323 95.6232 138.154C94.4563 136.986 93.8008 135.401 93.8008 133.748V81.5884Z" stroke="#3F3D56" stroke-miterlimit="10"/>
<path d="M166.14 64.4346H89.3151C86.5161 64.4346 84.2471 66.707 84.2471 69.5103V76.5134C84.2471 79.3166 86.5161 81.589 89.3151 81.589H166.14C168.939 81.589 171.208 79.3166 171.208 76.5134V69.5103C171.208 66.707 168.939 64.4346 166.14 64.4346Z" stroke="#3F3D56" stroke-miterlimit="10"/>
<path d="M131.681 66.7437H115.541V139.98H131.681V66.7437Z" fill="#FF4568"/>
<path d="M134.316 64.4346H121.141V139.65H134.316V64.4346Z" stroke="#3F3D56" stroke-miterlimit="10"/>
<path d="M121.696 47.4235C126.187 55.1352 124.991 64.2123 124.991 64.2123C124.991 64.2123 116.513 60.7863 112.022 53.0746C107.531 45.3629 106.055 37.8463 108.727 36.2858C111.398 34.7253 117.205 39.7118 121.696 47.4235Z" fill="#FF4568"/>
<path d="M132.237 47.4235C127.746 55.1352 128.942 64.2123 128.942 64.2123C128.942 64.2123 137.42 60.7863 141.911 53.0746C146.402 45.3629 147.878 37.8463 145.206 36.2858C142.535 34.7253 136.728 39.7118 132.237 47.4235Z" fill="#FF4568"/>
<path d="M123.671 47.4235C128.163 55.1352 126.966 64.2123 126.966 64.2123C126.966 64.2123 118.488 60.7863 113.997 53.0746C109.506 45.3629 108.031 37.8463 110.702 36.2858C113.374 34.7253 119.18 39.7118 123.671 47.4235Z" stroke="#3F3D56" stroke-miterlimit="10"/>
<path d="M130.261 47.4235C125.77 55.1352 126.966 64.2123 126.966 64.2123C126.966 64.2123 135.444 60.7863 139.935 53.0746C144.426 45.3629 145.901 37.8463 143.23 36.2858C140.558 34.7253 134.752 39.7118 130.261 47.4235Z" stroke="#3F3D56" stroke-miterlimit="10"/>
</g>
<defs>
<linearGradient id="paint0_linear" x1="256.194" y1="289.112" x2="256.194" y2="216.956" gradientUnits="userSpaceOnUse">
<stop stop-color="#808080" stop-opacity="0.25"/>
<stop offset="0.54" stop-color="#808080" stop-opacity="0.12"/>
<stop offset="1" stop-color="#808080" stop-opacity="0.1"/>
</linearGradient>
<clipPath id="clip0">
<rect width="516" height="300" fill="white"/>
</clipPath>
</defs>
</svg>
