<svg width="517" height="363" viewBox="0 0 517 363" fill="none" xmlns="http://www.w3.org/2000/svg">
<g clip-path="url(#clip0)">
<path opacity="0.65" d="M219.947 13.9194C198.932 5.91935 176.724 -0.763243 154.053 0.076854C120.72 1.30836 88.7218 20.0817 73.0518 47.6474C59.7566 71.003 58.1162 98.3778 52.389 124.297C45.3408 156.225 31.8167 186.578 17.3771 216.254C9.62315 232.197 1.44004 248.483 0.16679 265.958C-1.59763 290.221 10.7867 314.397 30.2097 330.536C49.6326 346.674 75.4266 355.19 101.316 357.047C115.093 358.035 129.49 357.118 141.726 351.113C154.673 344.76 164.11 333.28 177.11 327.018C189.156 321.214 203.247 320.402 216.771 321.156C234.429 322.141 251.86 325.612 268.55 331.467C287.453 338.111 305.031 347.739 323.867 354.479C342.703 361.218 363.8 364.98 383.075 359.357C401.196 354.073 415.503 341.242 428.402 328.249C449.494 307.043 468.827 284.152 486.208 259.805C497.849 243.476 508.683 226.249 513.829 207.218C523.671 170.831 510.128 129.781 480.09 104.931C455.202 84.3443 421.802 75.4087 389.108 69.9863C359.294 65.0412 324.821 64.7357 297.377 51.8478C271.206 39.5423 247.391 24.3728 219.947 13.9194Z" fill="#FDCA05"/>
<path d="M301.659 295.466V312.807H306.585L305.631 294.191L301.659 295.466Z" fill="#AAABB0"/>
<path d="M227.663 291.967V309.309H232.594L231.64 290.693L227.663 291.967Z" fill="#AAABB0"/>
<path d="M313.739 266.511C313.739 264.753 312.316 263.328 310.56 263.328C308.805 263.328 307.382 264.753 307.382 266.511V291.013C307.382 292.771 308.805 294.196 310.56 294.196C312.316 294.196 313.739 292.771 313.739 291.013V266.511Z" fill="#AAABB0"/>
<path d="M232.194 259.666C232.194 257.908 230.771 256.482 229.015 256.482C227.26 256.482 225.837 257.908 225.837 259.666V291.008C225.837 292.766 227.26 294.191 229.015 294.191C230.771 294.191 232.194 292.766 232.194 291.008V259.666Z" fill="#AAABB0"/>
<path d="M321.85 78.6018C321.85 78.6018 328.206 75.8953 329.16 78.6018C330.114 81.3082 330.591 104.697 330.591 104.697H324.549L321.85 78.6018Z" fill="#AAABB0"/>
<path d="M252.226 78.6018C252.226 78.6018 245.865 75.8953 244.911 78.6018C243.957 81.3082 243.48 104.697 243.48 104.697H249.522L252.226 78.6018Z" fill="#AAABB0"/>
<path d="M253.175 55.3699L252.222 74.7828H256.514V54.8926L253.175 55.3699Z" fill="#AAABB0"/>
<path d="M249.522 104.697L250.796 76.6921C250.796 76.6921 250.319 70.4868 265.417 72.3961C280.514 74.3055 324.711 78.1241 324.711 78.1241V104.697H249.522Z" fill="#33323D"/>
<path d="M309.929 252.191L307.544 294.989C307.544 294.989 272.57 314.402 230.129 295.943L233.944 250.917L309.929 252.191Z" fill="#33323D"/>
<path d="M276.704 83.6901L277.496 111.375H326.776L323.914 74.7832L276.704 83.6901Z" fill="#444053"/>
<path d="M281.712 233.891H235.293V292.759H281.712V233.891Z" fill="#4C4981"/>
<path d="M264.625 257.919C264.625 257.919 271.301 252.669 272.412 254.258C273.524 255.848 268.445 262.693 266.375 261.895C264.306 261.098 264.625 257.919 264.625 257.919Z" fill="#FFB9B9"/>
<path d="M449.918 103.103H145.212V255.848H449.918V103.103Z" fill="#032B4D"/>
<path d="M249.681 54.2577C249.681 54.2577 247.296 31.9808 249.681 29.2791C252.065 26.5774 292.122 0.954452 329.161 31.0261C329.161 31.0261 332.656 31.1884 332.022 39.1407C331.648 44.1738 331.674 49.2286 332.098 54.2577C332.098 54.2577 252.385 59.9856 249.681 54.2577Z" fill="#33323D"/>
<path opacity="0.1" d="M249.681 54.2577C249.681 54.2577 247.296 31.9808 249.681 29.2791C252.065 26.5774 292.122 0.954452 329.161 31.0261C329.161 31.0261 332.656 31.1884 332.022 39.1407C331.648 44.1738 331.674 49.2286 332.098 54.2577C332.098 54.2577 252.385 59.9856 249.681 54.2577Z" fill="black"/>
<path d="M249.681 57.1219C249.681 57.1219 247.296 34.845 249.681 32.1433C252.065 29.4417 292.122 3.81871 329.161 33.8904C329.161 33.8904 332.656 34.0527 332.022 42.0049C331.648 47.038 331.674 52.0929 332.098 57.1219C332.098 57.1219 252.385 62.8499 249.681 57.1219Z" fill="#33323D"/>
<path d="M333.452 46.9404C333.452 46.9404 335.994 56.487 335.202 58.0765C334.411 59.666 334.554 64.1242 334.554 64.1242C334.554 64.1242 334.725 66.9882 333.452 67.3032C332.179 67.6183 331.068 67.7806 332.098 68.7352C333.128 69.6899 332.098 71.1219 332.098 71.1219C332.098 71.1219 331.54 73.351 332.098 74.783C332.656 76.215 328.836 76.8116 329.16 78.6016C329.485 80.3916 330.553 85.4417 329.16 85.604C327.768 85.7663 329.637 91.9668 328.383 91.9668C327.129 91.9668 326.237 103.103 326.237 103.103C326.237 103.103 317.415 95.6279 311.535 97.6947C311.535 97.6947 312.012 91.4894 313.92 89.2603C315.827 87.0312 315.25 81.308 315.25 81.308L324.711 52.8259L333.452 46.9404Z" fill="#FF3E62"/>
<path d="M286.242 178.578C284.177 180.864 281.95 168.654 281.95 168.654C281.95 168.654 276.071 176.769 272.256 171.361C269.614 167.614 271.698 156.998 273.209 150.836C273.887 148.096 274.459 146.234 274.459 146.234L283.042 144.802C283.042 144.802 283.071 146.673 283.262 148.945C283.519 152.015 284.077 155.824 285.265 156.735C287.358 158.315 288.312 176.272 286.242 178.578Z" fill="#AE6E79"/>
<path opacity="0.1" d="M281.792 35.6423C281.792 35.6423 266.847 35.4847 263.194 43.437C259.541 51.3893 259.379 54.1005 257.949 55.3702C256.518 56.6399 273.523 63.3273 273.523 63.3273L274.32 90.6925C274.32 90.6925 277.658 87.3082 283.061 88.8404C288.464 90.3727 295.302 88.8404 295.302 88.8404C295.302 88.8404 294.983 88.2629 299.437 88.8404C303.891 89.418 318.035 81.9431 318.035 81.9431C318.035 81.9431 318.268 69.9717 317.953 67.4227C317.639 64.8738 328.044 46.1435 328.044 46.1435C328.044 46.1435 336.151 38.3487 327.729 35.6423C327.729 35.6423 324.749 31.1458 317.081 31.1888C309.413 31.2317 281.792 35.6423 281.792 35.6423Z" fill="black"/>
<path d="M281.792 35.1647C281.792 35.1647 266.847 35.0072 263.194 42.9595C259.541 50.9118 259.379 53.623 257.949 54.8927C256.518 56.1624 273.523 62.8497 273.523 62.8497L274.32 90.2149C274.32 90.2149 277.658 86.8307 283.061 88.3629C288.464 89.8951 295.302 88.3629 295.302 88.3629C295.302 88.3629 294.983 87.7853 299.437 88.3629C303.891 88.9405 318.035 81.4655 318.035 81.4655C318.035 81.4655 323.595 72.3963 323.28 69.8521C322.965 67.308 334.405 48.0526 334.405 48.0526C334.405 48.0526 336.156 37.8712 327.729 35.1647C327.729 35.1647 324.749 30.6683 317.081 30.7112C309.413 30.7542 281.792 35.1647 281.792 35.1647Z" fill="#FF3E62"/>
<path opacity="0.1" d="M283.299 148.931C280.023 147.91 274.883 150.163 273.247 150.841C273.924 148.101 274.496 146.239 274.496 146.239L283.08 144.807C283.08 144.807 283.094 146.678 283.299 148.931Z" fill="black"/>
<path d="M262.556 54.8926H257.949C257.949 54.8926 256.996 64.6014 257.949 67.4654C258.903 70.3294 259.38 69.9141 259.06 72.0334C258.741 74.1528 261.287 77.3986 261.287 77.3986C261.287 77.3986 261.602 85.3986 263.195 88.3771C264.788 91.3556 261.445 104.711 261.445 104.711C262.356 107.017 263.705 109.124 265.417 110.917C268.121 113.618 269.552 123.642 268.755 127.461C267.959 131.279 270.982 132.711 270.982 132.711C270.982 132.711 272.255 150.535 272.732 150.535C273.209 150.535 282.427 145.761 285.288 149.895L283.061 133.508L283.223 101.847C283.223 101.847 280.2 97.8664 281.793 94.3676C283.386 90.8688 280.52 82.5919 280.52 82.5919L276.385 64.1384L262.556 54.8926Z" fill="#FF3E62"/>
<path d="M233.943 306.445C233.943 306.445 227.267 305.013 227.11 306.445C226.952 307.877 219.16 322.516 228.86 326.812C238.56 331.108 264.463 340.335 306.59 328.402C306.59 328.402 309.289 329.356 308.655 323.471C308.021 317.585 308.021 311.06 308.021 311.06C308.021 311.06 301.659 309.308 296.89 309.948C292.122 310.588 250.634 319.017 233.943 306.445Z" fill="#33323D"/>
<path opacity="0.1" d="M233.943 306.445C233.943 306.445 227.267 305.013 227.11 306.445C226.952 307.877 219.16 322.516 228.86 326.812C238.56 331.108 264.463 340.335 306.59 328.402C306.59 328.402 309.289 329.356 308.655 323.471C308.021 317.585 308.021 311.06 308.021 311.06C308.021 311.06 301.659 309.308 296.89 309.948C292.122 310.588 250.634 319.017 233.943 306.445Z" fill="black"/>
<path d="M233.943 304.535C233.943 304.535 227.267 303.103 227.11 304.535C226.952 305.967 219.16 320.607 228.86 324.903C238.56 329.199 264.463 338.426 306.59 326.492C306.59 326.492 309.289 327.447 308.655 321.562C308.021 315.676 308.021 309.151 308.021 309.151C308.021 309.151 301.659 307.399 296.89 308.039C292.122 308.679 250.634 317.108 233.943 304.535Z" fill="#33323D"/>
<path d="M272.875 60.6109C272.465 62.945 271.535 65.1885 271.392 67.5512C271.249 69.914 272.16 72.6014 274.339 73.5274C274.948 73.7092 275.537 73.949 276.099 74.2434C276.938 74.8114 277.282 75.8806 277.458 76.883C277.692 78.1771 277.749 79.4973 277.625 80.8066C277.506 82.1241 277.225 83.5417 277.873 84.6921C279.013 86.7303 281.984 86.4296 284.244 85.8568L283.467 91.8854C283.405 92.3628 283.367 92.9021 283.715 93.2267C283.879 93.3427 284.065 93.4244 284.262 93.4671C284.458 93.5097 284.662 93.5124 284.859 93.4749C286.824 93.3508 288.846 93.0788 290.529 92.0429C292.213 91.0071 293.467 89.0787 293.147 87.136C292.775 84.883 290.448 83.093 290.763 80.8305C291.006 79.0787 292.718 77.9665 293.844 76.6205C295.88 74.1575 295.989 70.4152 294.392 67.6276C292.794 64.84 289.709 63.1121 286.533 62.7971C284.773 62.6205 282.942 62.8353 281.288 62.2243C280.712 62.0129 280.193 61.6711 279.771 61.2256C279.349 60.7801 279.036 60.243 278.855 59.6562" fill="#444053"/>
<path d="M217.415 272.874L219.079 269.247C219.079 269.247 228.064 260.869 230.128 260.282C232.193 259.695 240.62 257.137 241.893 257.137C243.166 257.137 266.375 255.862 266.375 255.862L269.074 262.23L239.947 268.631L230.128 275.791L217.415 272.874Z" fill="#FF3E62"/>
<path d="M287.396 175.179L285.875 186.898L285.289 191.409L278.455 192.363C278.455 192.363 277.716 190.778 276.671 188.344C273.5 180.955 267.53 165.719 270.992 163.089C275.594 159.585 276.714 171.203 276.714 171.203L281.96 168.654L287.396 175.179Z" fill="#FFB9B9"/>
<path d="M286.256 196.979H251.745V249.165H286.256V196.979Z" fill="white"/>
<path opacity="0.1" d="M286.256 196.979H251.745V249.165H286.256V196.979Z" fill="black"/>
<path d="M301.767 199.805L267.627 194.752L260.002 246.378L294.142 251.43L301.767 199.805Z" fill="white"/>
<path d="M288.413 202.276L270.841 199.676L266.916 226.246L284.489 228.847L288.413 202.276Z" fill="#6C63FF"/>
<path d="M286.322 236.958L265.032 233.808L264.18 239.578L285.47 242.728L286.322 236.958Z" fill="#6C63FF"/>
<path opacity="0.1" d="M295.303 65.3126C306.32 65.3126 315.251 56.3733 315.251 45.346C315.251 34.3188 306.32 25.3794 295.303 25.3794C284.286 25.3794 275.355 34.3188 275.355 45.346C275.355 56.3733 284.286 65.3126 295.303 65.3126Z" fill="black"/>
<path d="M295.303 64.8356C306.32 64.8356 315.251 55.8962 315.251 44.869C315.251 33.8417 306.32 24.9023 295.303 24.9023C284.286 24.9023 275.355 33.8417 275.355 44.869C275.355 55.8962 284.286 64.8356 295.303 64.8356Z" fill="#AE6E79"/>
<path d="M278.855 59.6661C278.72 59.1518 278.769 58.6062 278.994 58.1244C279.752 56.5444 281.912 56.406 283.662 56.4871C287.778 56.6781 292.293 56.7019 295.512 54.1005C296.848 53.0313 298.34 50.3439 300.281 50.8547C302.007 51.3081 302.727 53.6518 304.525 54.1721C305.827 54.5492 307.177 53.9477 308.502 53.6948C310.41 53.3177 312.365 53.6327 314.301 53.647C316.237 53.6613 318.34 53.2938 319.661 51.8761C321.445 49.9668 321.154 46.9835 320.996 44.3678C320.801 40.9889 321.03 37.5988 321.678 34.2771C322.327 30.974 323.324 27.2794 321.502 24.4489C319.766 21.752 316.17 21.0121 313.715 18.9453C311.416 17.036 310.2 13.9763 307.773 12.2054C304.716 9.97629 300.562 10.2961 296.805 10.6827L288.65 11.5515C286.547 11.7758 284.358 12.0288 282.627 13.2842C279.504 15.5467 279.075 20.2484 276.118 22.7257C274.802 23.8236 273.119 24.3677 271.616 25.1887C270.114 26.0097 268.665 27.3081 268.493 29.0074C268.35 30.4393 269.122 31.7615 269.499 33.141C270.391 36.4346 268.998 39.8236 268.107 43.141C267.215 46.4585 267.043 50.4871 269.633 52.6876C270.157 53.1363 270.768 53.48 271.278 53.9477C273.028 55.5468 273.266 58.2437 272.861 60.5731" fill="#444053"/>
<path d="M296.929 69.809C297.192 69.809 297.406 69.2747 297.406 68.6157C297.406 67.9566 297.192 67.4224 296.929 67.4224C296.666 67.4224 296.452 67.9566 296.452 68.6157C296.452 69.2747 296.666 69.809 296.929 69.809Z" fill="#444053"/>
<path d="M296.929 74.7831C297.192 74.7831 297.406 74.2489 297.406 73.5898C297.406 72.9308 297.192 72.3965 296.929 72.3965C296.666 72.3965 296.452 72.9308 296.452 73.5898C296.452 74.2489 296.666 74.7831 296.929 74.7831Z" fill="#444053"/>
<path d="M286.352 178.545C286.862 177.958 287.201 176.449 287.396 174.459L281.712 167.366C281.712 167.366 284.12 181.118 286.352 178.545Z" fill="#AE6E79"/>
<path opacity="0.1" d="M292.761 295.786C292.761 295.786 283.434 310.22 254.292 308.674C226.839 307.242 213.438 293.719 214.077 288.946C214.716 284.172 212.327 272.554 218.207 269.213C221.617 267.28 226.104 268.425 229.271 269.733C230.365 270.178 231.562 270.303 232.724 270.095C233.886 269.886 234.966 269.352 235.837 268.554C238.732 265.943 244.13 263.003 252.652 265.318C253.748 265.611 254.905 265.589 255.99 265.256C259.538 264.172 267.983 262.292 274.111 266.468C275.079 267.137 276.218 267.515 277.393 267.56C278.569 267.605 279.732 267.314 280.749 266.721L280.835 266.669C283.696 264.917 297.048 281.466 297.048 281.466C297.048 281.466 297.687 294.196 292.761 295.786Z" fill="black"/>
<path d="M292.761 296.263C292.761 296.263 283.434 310.698 254.292 309.151C226.839 307.719 213.438 294.197 214.077 289.423C214.716 284.65 212.327 273.032 218.207 269.691C221.617 267.757 226.104 268.903 229.271 270.211C230.365 270.656 231.562 270.781 232.724 270.572C233.886 270.363 234.966 269.829 235.837 269.032C238.732 266.421 244.13 263.48 252.652 265.796C253.748 266.088 254.905 266.067 255.99 265.733C259.538 264.65 267.983 262.769 274.111 266.946C275.079 267.614 276.218 267.993 277.393 268.037C278.569 268.082 279.732 267.791 280.749 267.199L280.835 267.146C283.696 265.395 297.048 281.944 297.048 281.944C297.048 281.944 297.687 294.674 292.761 296.263Z" fill="#FF3E62"/>
<path opacity="0.1" d="M254.292 301.915C264.784 301.915 273.29 293.401 273.29 282.898C273.29 272.395 264.784 263.881 254.292 263.881C243.799 263.881 235.293 272.395 235.293 282.898C235.293 293.401 243.799 301.915 254.292 301.915Z" fill="black"/>
<path d="M254.292 302.392C264.784 302.392 273.29 293.878 273.29 283.375C273.29 272.872 264.784 264.358 254.292 264.358C243.799 264.358 235.293 272.872 235.293 283.375C235.293 293.878 243.799 302.392 254.292 302.392Z" fill="#FFB9B9"/>
<path d="M248.846 266.936C246.853 267.475 244.888 268.506 243.915 270.201C243.329 271.222 243.124 272.449 242.275 273.299C241.073 274.506 239.046 274.53 237.42 275.208C235.794 275.886 234.721 278.272 236.314 279.027C234.654 279.113 233.424 280.645 233.219 282.167C233.014 283.69 233.591 285.208 234.149 286.659C235.971 291.356 237.931 296.258 241.946 299.599C248.489 305.051 258.35 304.798 267.139 304.22C267.857 304.244 268.569 304.079 269.204 303.743C270.158 303.113 270.277 301.905 270.434 300.845C271.097 296.32 273.548 292.21 275.15 287.891C276.753 283.571 277.411 278.497 274.712 274.673C270.739 269.003 255.532 265.122 248.846 266.936Z" fill="#B96B6B"/>
<path opacity="0.1" d="M285.875 186.898L285.288 191.408L278.454 192.363C278.454 192.363 277.715 190.778 276.671 188.344L285.765 186.635L285.875 186.898Z" fill="black"/>
<path d="M293.075 286.559L297.053 281.943L296.256 256.487C296.648 254.651 296.914 252.789 297.053 250.917C297.21 248.21 295.064 242.167 295.064 242.167C295.397 240.958 295.849 239.784 296.413 238.664C297.367 236.754 295.069 232.458 295.069 232.458C295.069 232.458 291.645 221.322 293.075 215.752C294.506 210.182 292.727 207.003 292.727 207.003C292.727 207.003 291.33 200.797 291.487 198.253C291.645 195.709 288.307 193.318 288.307 193.318L285.765 187.112L275.593 189.022V210.501C275.593 210.501 276.228 231.026 275.593 235.007C274.959 238.988 276.862 242.802 276.862 242.802C276.862 242.802 275.751 248.688 276.704 250.917C277.658 253.146 279.566 258.554 279.566 258.554C279.212 260.487 279.321 262.476 279.885 264.358C280.839 267.146 279.885 268.735 279.885 268.735L293.075 286.559Z" fill="#FF3E62"/>
<g opacity="0.1">
<path opacity="0.1" d="M321.693 32.7067C321.155 35.5008 320.914 38.344 320.973 41.1888C321.013 38.8233 321.261 36.4659 321.712 34.1435C322.131 32.0241 322.665 29.7425 322.551 27.6279C322.375 29.3377 322.088 31.0342 321.693 32.7067Z" fill="black"/>
<path opacity="0.1" d="M271.292 52.4108C270.782 51.9334 270.171 51.5993 269.647 51.1458C268.254 49.9573 267.668 48.2341 267.553 46.3726C267.415 48.7592 267.902 51.0695 269.647 52.5778C270.171 53.0313 270.782 53.375 271.292 53.8427C272.359 54.8993 272.977 56.3269 273.018 57.8284C273.157 55.8237 272.751 53.7377 271.292 52.4108Z" fill="black"/>
<path opacity="0.1" d="M269.771 34.5873C269.855 33.5791 269.768 32.5641 269.514 31.5849C269.237 30.5634 268.741 29.5658 268.56 28.5396C268.56 28.6493 268.522 28.7639 268.508 28.8832C268.369 30.3152 269.142 31.6374 269.514 33.0169C269.651 33.5306 269.737 34.0566 269.771 34.5873Z" fill="black"/>
<path opacity="0.1" d="M319.676 50.306C318.355 51.7379 316.252 52.0912 314.316 52.0768C312.379 52.0625 310.42 51.7475 308.517 52.1293C307.191 52.3966 305.842 52.9933 304.54 52.6067C302.742 52.0864 302.022 49.7427 300.3 49.2892C298.34 48.7737 296.848 51.4611 295.532 52.5303C292.313 55.1079 287.797 55.084 283.681 54.9169C281.931 54.8358 279.771 54.9742 279.018 56.5589C278.788 57.0395 278.739 57.5869 278.879 58.1007L273.052 59.0172C273.03 59.4974 272.977 59.9757 272.895 60.4492L278.879 59.4945C278.739 58.9807 278.788 58.4333 279.018 57.9527C279.771 56.368 281.931 56.2296 283.681 56.3107C287.797 56.5017 292.313 56.5255 295.532 53.9241C296.867 52.8549 298.359 50.1675 300.3 50.683C302.022 51.1317 302.742 53.4802 304.54 54.0005C305.842 54.3728 307.191 53.7761 308.517 53.5231C310.424 53.1413 312.379 53.4563 314.316 53.4706C316.252 53.485 318.355 53.1174 319.676 51.6998C320.997 50.2821 321.187 48.1675 321.106 46.1055C321.049 47.7045 320.72 49.1842 319.676 50.306Z" fill="black"/>
</g>
<g opacity="0.1">
<path opacity="0.1" d="M275.532 73.2317C274.97 72.9357 274.381 72.6959 273.772 72.5157C272.737 72.045 271.916 71.2039 271.469 70.1577C271.826 71.8045 272.732 73.3033 274.249 73.9477C274.858 74.1278 275.447 74.3677 276.009 74.6637C276.368 74.9176 276.658 75.2572 276.853 75.6518C276.662 74.7162 276.314 73.7615 275.532 73.2317Z" fill="black"/>
<path opacity="0.1" d="M283.676 84.8448C281.478 85.4033 278.607 85.6945 277.4 83.8281C277.438 84.2778 277.568 84.715 277.782 85.1121C278.812 86.9499 281.33 86.8878 283.471 86.4343L283.676 84.8448Z" fill="black"/>
<path opacity="0.1" d="M292.584 86.1528C292.889 88.0908 291.63 90.024 289.961 91.0407C288.292 92.0574 286.256 92.339 284.291 92.4726C283.979 92.5131 283.662 92.4771 283.366 92.3676C283.277 92.5694 283.248 92.793 283.283 93.0109C283.319 93.2289 283.417 93.4318 283.565 93.5949C283.714 93.7579 283.907 93.8741 284.121 93.9291C284.334 93.9841 284.559 93.9756 284.768 93.9046C286.733 93.7805 288.755 93.5084 290.438 92.4726C292.122 91.4368 293.381 89.5084 293.056 87.5657C292.965 87.0752 292.806 86.5998 292.584 86.1528Z" fill="black"/>
<path opacity="0.1" d="M294.702 68.8735C294.993 70.0341 295.016 71.2458 294.768 72.4164C294.52 73.5869 294.008 74.6853 293.272 75.6277C292.146 76.9929 290.434 78.086 290.191 79.8378C290.11 80.6431 290.276 81.4541 290.668 82.1623C290.625 81.8664 290.625 81.5657 290.668 81.2697C290.911 79.518 292.623 78.4058 293.748 77.0597C295.599 74.821 295.856 71.5227 294.702 68.8735Z" fill="black"/>
</g>
<g opacity="0.1">
<path opacity="0.1" d="M237.424 275.943C239.046 275.27 241.072 275.246 242.279 274.034C243.128 273.184 243.333 271.958 243.919 270.941C244.873 269.242 246.852 268.215 248.845 267.676C255.522 265.862 270.743 269.738 274.711 275.356C275.874 277.056 276.508 279.062 276.533 281.122C276.685 278.744 276.046 276.382 274.716 274.406C270.748 268.788 255.541 264.912 248.85 266.726C246.857 267.265 244.892 268.292 243.924 269.991C243.338 271.008 243.133 272.234 242.284 273.084C241.077 274.292 239.051 274.316 237.429 274.993C236.194 275.504 235.278 277.012 235.612 278.024C235.745 277.567 235.976 277.143 236.289 276.784C236.602 276.425 236.99 276.138 237.424 275.943Z" fill="black"/>
<path opacity="0.1" d="M233.228 282.879C233.428 281.351 234.658 279.824 236.323 279.738C236.148 279.665 235.992 279.554 235.865 279.413C235.739 279.272 235.646 279.104 235.593 278.922C234.96 279.157 234.403 279.561 233.983 280.091C233.563 280.62 233.295 281.254 233.209 281.924C233.163 282.313 233.163 282.705 233.209 283.094C233.228 283.022 233.228 282.951 233.228 282.879Z" fill="black"/>
</g>
<path d="M334.244 109.9H290.849V166.544H334.244V109.9Z" fill="white"/>
<path opacity="0.1" d="M334.244 109.9H290.849V166.544H334.244V109.9Z" fill="black"/>
<path d="M350.824 113.223L308.057 120.587L317.65 176.412L360.417 169.048L350.824 113.223Z" fill="white"/>
<path d="M328.47 156.912L318.422 158.642L320.676 171.757L330.724 170.027L328.47 156.912Z" fill="#6C63FF"/>
<path d="M342.374 154.516L332.326 156.246L334.58 169.361L344.628 167.631L342.374 154.516Z" fill="#6C63FF"/>
<path d="M352.2 135.301L316.962 141.357L319.222 154.532L354.46 148.476L352.2 135.301Z" fill="#6C63FF"/>
<path d="M349.262 119.577L314.024 125.633L314.529 128.573L349.766 122.516L349.262 119.577Z" fill="#6C63FF"/>
<path d="M350.418 124.983L315.181 131.04L315.685 133.979L350.923 127.923L350.418 124.983Z" fill="#6C63FF"/>
<path d="M315.25 94.5107C315.25 94.5107 295.302 114.559 305.316 119.652C315.331 124.745 321.85 102.706 321.85 102.706L323.433 97.6945L315.25 94.5107Z" fill="#AE6E79"/>
<path opacity="0.1" d="M313.505 92.74L311.039 98.1911C311.039 98.1911 323.199 99.8999 325.741 103.58L324.234 93.962L322.446 89.8569L313.505 92.74Z" fill="black"/>
<path d="M313.981 92.2625L311.516 97.7135C311.516 97.7135 323.676 99.4224 326.218 103.103L324.711 93.4844L322.922 89.3794L313.981 92.2625Z" fill="#4C4981"/>
<path d="M387.591 192.487L387.329 192.669L387.692 192.831L388.083 192.798L388.13 192.525L387.591 192.487Z" fill="#464A5F"/>
<path opacity="0.1" d="M387.591 192.487L387.329 192.669L387.692 192.831L388.083 192.798L388.13 192.525L387.591 192.487Z" fill="black"/>
<path d="M387.591 192.487L387.324 192.659L387.114 192.402L387.243 192.192L387.362 192.153L387.591 192.487Z" fill="#9C9CA1"/>
<path opacity="0.1" d="M387.591 192.487L387.324 192.659L387.114 192.402L387.243 192.192L387.362 192.153L387.591 192.487Z" fill="black"/>
<path d="M434.53 159.499L415.007 131.275C414.834 131.023 414.613 130.807 414.357 130.641C414.101 130.475 413.814 130.361 413.514 130.305C413.213 130.25 412.905 130.254 412.607 130.318C412.308 130.382 412.025 130.504 411.774 130.678L368.254 160.578C367.745 160.928 367.395 161.465 367.282 162.073C367.168 162.681 367.3 163.309 367.649 163.819L387.119 192.401L434.53 159.499Z" fill="#9C9CA1"/>
<path opacity="0.1" d="M434.53 159.499L415.007 131.275C414.834 131.023 414.613 130.807 414.357 130.641C414.101 130.475 413.814 130.361 413.514 130.305C413.213 130.25 412.905 130.254 412.607 130.318C412.308 130.382 412.025 130.504 411.774 130.678L368.254 160.578C367.745 160.928 367.395 161.465 367.282 162.073C367.168 162.681 367.3 163.309 367.649 163.819L387.119 192.401L434.53 159.499Z" fill="black"/>
<path d="M435.007 159.566L415.484 131.341C415.31 131.089 415.089 130.874 414.832 130.708C414.576 130.541 414.289 130.427 413.988 130.372C413.688 130.316 413.379 130.321 413.08 130.385C412.781 130.449 412.497 130.571 412.246 130.745L368.731 160.664C368.222 161.014 367.873 161.551 367.758 162.158C367.644 162.765 367.774 163.393 368.121 163.905L387.592 192.501L435.007 159.566Z" fill="#9C9CA1"/>
<path d="M451.325 165.146L435.111 159.934L387.691 192.836L404.163 198.23C404.531 198.349 404.923 198.382 405.306 198.324C405.689 198.266 406.054 198.119 406.37 197.895L451.459 166.029C451.543 165.982 451.611 165.91 451.654 165.822C451.696 165.735 451.711 165.637 451.697 165.541C451.682 165.445 451.639 165.356 451.573 165.286C451.506 165.215 451.42 165.166 451.325 165.146Z" fill="#464A5F"/>
<path opacity="0.1" d="M451.325 165.146L435.111 159.934L387.691 192.836L404.163 198.23C404.531 198.349 404.923 198.382 405.306 198.324C405.689 198.266 406.054 198.119 406.37 197.895L451.459 166.029C451.543 165.982 451.611 165.91 451.654 165.822C451.696 165.735 451.711 165.637 451.697 165.541C451.682 165.445 451.639 165.356 451.573 165.286C451.506 165.215 451.42 165.166 451.325 165.146Z" fill="black"/>
<path d="M451.225 164.817L435.011 159.6L387.591 192.502L404.062 197.886C404.43 198.008 404.822 198.042 405.205 197.985C405.589 197.928 405.953 197.781 406.27 197.557L451.358 165.69C451.439 165.642 451.504 165.57 451.545 165.484C451.585 165.398 451.599 165.302 451.584 165.209C451.57 165.115 451.528 165.028 451.464 164.958C451.4 164.888 451.317 164.839 451.225 164.817Z" fill="#464A5F"/>
<g opacity="0.1">
<path opacity="0.1" d="M427.348 158.306L426.151 156.587C426.079 156.488 425.971 156.42 425.85 156.398C425.73 156.375 425.605 156.401 425.502 156.468L423.724 157.657C423.624 157.727 423.555 157.833 423.531 157.953C423.507 158.073 423.53 158.198 423.595 158.301L424.696 159.996C424.765 160.097 424.871 160.168 424.991 160.194C425.11 160.22 425.236 160.198 425.34 160.134L427.214 158.955C427.316 158.885 427.387 158.778 427.412 158.657C427.437 158.536 427.414 158.41 427.348 158.306Z" fill="black"/>
<path opacity="0.1" d="M424.153 160.52L422.951 158.807C422.879 158.707 422.772 158.639 422.651 158.617C422.53 158.595 422.405 158.62 422.303 158.687L420.529 159.885C420.428 159.955 420.358 160.061 420.333 160.181C420.308 160.301 420.33 160.426 420.395 160.53L421.497 162.224C421.565 162.327 421.67 162.399 421.79 162.425C421.91 162.452 422.035 162.431 422.14 162.368L424.019 161.189C424.072 161.154 424.118 161.109 424.154 161.056C424.189 161.004 424.214 160.945 424.226 160.883C424.239 160.82 424.239 160.756 424.226 160.694C424.213 160.632 424.188 160.573 424.153 160.52Z" fill="black"/>
<path opacity="0.1" d="M420.796 162.846L419.594 161.132C419.522 161.032 419.415 160.964 419.294 160.942C419.173 160.92 419.048 160.945 418.946 161.013L417.167 162.211C417.066 162.281 416.996 162.388 416.972 162.509C416.948 162.63 416.972 162.756 417.038 162.86L418.14 164.554C418.209 164.656 418.314 164.727 418.434 164.753C418.554 164.778 418.679 164.757 418.784 164.693L420.658 163.514C420.711 163.479 420.757 163.435 420.793 163.382C420.829 163.33 420.854 163.271 420.867 163.209C420.88 163.147 420.881 163.082 420.868 163.02C420.856 162.958 420.831 162.898 420.796 162.846Z" fill="black"/>
<path opacity="0.1" d="M417.396 165.203L416.194 163.485C416.122 163.386 416.015 163.319 415.896 163.297C415.776 163.275 415.652 163.299 415.55 163.365L413.771 164.568C413.672 164.639 413.603 164.745 413.579 164.865C413.555 164.985 413.578 165.109 413.643 165.213L414.744 166.907C414.812 167.008 414.916 167.079 415.035 167.106C415.154 167.133 415.279 167.113 415.383 167.05L417.262 165.867C417.315 165.832 417.36 165.787 417.395 165.735C417.43 165.683 417.454 165.624 417.467 165.563C417.479 165.501 417.479 165.438 417.467 165.376C417.455 165.314 417.431 165.255 417.396 165.203Z" fill="black"/>
<path opacity="0.1" d="M414.001 167.556L412.799 165.843C412.727 165.743 412.619 165.675 412.498 165.653C412.378 165.631 412.253 165.656 412.15 165.724L410.376 166.922C410.276 166.991 410.206 167.097 410.181 167.217C410.156 167.337 410.178 167.462 410.243 167.566L411.344 169.261C411.413 169.363 411.518 169.435 411.638 169.461C411.757 169.488 411.883 169.467 411.988 169.404L413.867 168.22C413.919 168.185 413.964 168.141 414 168.088C414.035 168.036 414.059 167.978 414.072 167.916C414.084 167.854 414.084 167.791 414.072 167.729C414.06 167.667 414.035 167.609 414.001 167.556Z" fill="black"/>
<path opacity="0.1" d="M410.752 170.125L409.26 167.996C409.244 167.972 409.224 167.952 409.2 167.936C409.176 167.92 409.15 167.91 409.122 167.904C409.094 167.899 409.065 167.899 409.037 167.905C409.009 167.911 408.983 167.922 408.959 167.939L406.775 169.413C406.751 169.429 406.731 169.449 406.714 169.473C406.698 169.496 406.687 169.523 406.681 169.551C406.675 169.579 406.675 169.608 406.681 169.636C406.686 169.664 406.697 169.69 406.713 169.714L408.082 171.819C408.113 171.868 408.162 171.902 408.218 171.914C408.275 171.927 408.334 171.917 408.382 171.886L410.69 170.454C410.718 170.438 410.742 170.417 410.761 170.391C410.779 170.365 410.792 170.335 410.798 170.304C410.804 170.272 410.803 170.24 410.795 170.209C410.787 170.178 410.773 170.149 410.752 170.125Z" fill="black"/>
<path opacity="0.1" d="M407.357 172.478L405.855 170.349C405.839 170.325 405.818 170.304 405.794 170.289C405.77 170.273 405.743 170.262 405.714 170.257C405.686 170.251 405.657 170.252 405.629 170.258C405.601 170.264 405.574 170.275 405.55 170.291L403.366 171.766C403.319 171.799 403.287 171.849 403.276 171.905C403.266 171.961 403.277 172.019 403.309 172.067L404.677 174.172C404.692 174.197 404.711 174.219 404.735 174.236C404.758 174.253 404.785 174.265 404.813 174.271C404.841 174.277 404.87 174.278 404.899 174.272C404.927 174.267 404.954 174.255 404.978 174.239L407.281 172.807C407.311 172.793 407.337 172.773 407.357 172.748C407.377 172.722 407.392 172.693 407.399 172.661C407.407 172.629 407.407 172.596 407.399 172.564C407.392 172.533 407.378 172.503 407.357 172.478Z" fill="black"/>
<path opacity="0.1" d="M404.349 174.563L402.856 172.454C402.823 172.408 402.772 172.376 402.716 172.367C402.66 172.357 402.603 172.369 402.556 172.401L400.372 173.871C400.324 173.904 400.29 173.954 400.279 174.011C400.267 174.068 400.278 174.128 400.31 174.177L401.678 176.282C401.71 176.329 401.759 176.363 401.815 176.375C401.871 176.387 401.929 176.378 401.979 176.349L404.287 174.917C404.318 174.902 404.346 174.879 404.367 174.851C404.389 174.823 404.403 174.791 404.409 174.756C404.415 174.721 404.413 174.686 404.402 174.652C404.392 174.619 404.373 174.588 404.349 174.563Z" fill="black"/>
<path opacity="0.1" d="M400.982 176.893L399.49 174.764C399.456 174.718 399.406 174.687 399.35 174.677C399.294 174.667 399.236 174.68 399.189 174.712L397.005 176.182C396.981 176.198 396.96 176.218 396.944 176.242C396.928 176.266 396.916 176.293 396.911 176.322C396.905 176.35 396.905 176.379 396.91 176.408C396.916 176.436 396.927 176.463 396.943 176.487L398.312 178.592C398.344 178.64 398.393 178.673 398.449 178.686C398.505 178.698 398.563 178.689 398.612 178.659L400.92 177.227C400.948 177.211 400.972 177.189 400.991 177.162C401.009 177.136 401.022 177.106 401.028 177.074C401.034 177.043 401.033 177.01 401.025 176.979C401.017 176.947 401.002 176.918 400.982 176.893Z" fill="black"/>
<path opacity="0.1" d="M397.72 179.136L396.228 177.008C396.212 176.984 396.191 176.964 396.168 176.948C396.144 176.932 396.117 176.921 396.089 176.916C396.061 176.911 396.033 176.911 396.005 176.917C395.977 176.923 395.951 176.934 395.927 176.95L393.743 178.425C393.719 178.441 393.698 178.461 393.682 178.484C393.666 178.508 393.655 178.534 393.649 178.562C393.643 178.59 393.643 178.619 393.649 178.647C393.654 178.675 393.665 178.702 393.681 178.726L395.05 180.831C395.081 180.879 395.13 180.913 395.186 180.926C395.243 180.938 395.301 180.928 395.35 180.898L397.658 179.466C397.686 179.45 397.71 179.428 397.728 179.402C397.747 179.376 397.76 179.347 397.766 179.315C397.771 179.284 397.77 179.252 397.763 179.221C397.755 179.19 397.74 179.161 397.72 179.136Z" fill="black"/>
<path opacity="0.1" d="M394.458 181.418L392.98 179.284C392.946 179.238 392.896 179.207 392.84 179.197C392.784 179.187 392.727 179.2 392.679 179.232L390.495 180.702C390.471 180.718 390.45 180.738 390.434 180.762C390.418 180.786 390.407 180.813 390.401 180.842C390.395 180.87 390.395 180.899 390.401 180.928C390.406 180.956 390.417 180.983 390.433 181.007L391.802 183.112C391.834 183.16 391.883 183.193 391.939 183.206C391.995 183.218 392.053 183.209 392.102 183.179L394.411 181.747C394.437 181.73 394.46 181.708 394.477 181.681C394.494 181.655 394.505 181.625 394.51 181.593C394.514 181.562 394.512 181.53 394.503 181.5C394.494 181.47 394.479 181.442 394.458 181.418Z" fill="black"/>
<path opacity="0.1" d="M391.196 183.676L389.703 181.547C389.687 181.523 389.667 181.503 389.643 181.487C389.62 181.472 389.593 181.461 389.565 181.455C389.537 181.45 389.508 181.45 389.48 181.456C389.453 181.462 389.426 181.474 389.403 181.49L387.219 182.955C387.195 182.971 387.174 182.991 387.158 183.014C387.142 183.038 387.13 183.064 387.125 183.092C387.119 183.12 387.119 183.149 387.124 183.177C387.13 183.205 387.141 183.232 387.157 183.256L388.525 185.361C388.557 185.409 388.606 185.443 388.662 185.456C388.718 185.468 388.777 185.458 388.826 185.428L391.134 183.996C391.16 183.98 391.183 183.959 391.2 183.933C391.218 183.908 391.23 183.88 391.236 183.85C391.242 183.819 391.241 183.788 391.234 183.759C391.227 183.729 391.214 183.7 391.196 183.676Z" fill="black"/>
<path opacity="0.1" d="M425.202 155.198L424 153.48C423.928 153.38 423.821 153.312 423.7 153.29C423.579 153.268 423.454 153.293 423.352 153.361L421.592 154.564C421.491 154.633 421.422 154.739 421.397 154.859C421.372 154.979 421.394 155.104 421.459 155.208L422.56 156.903C422.629 157.004 422.734 157.075 422.854 157.101C422.974 157.127 423.099 157.105 423.204 157.041L425.083 155.862C425.186 155.79 425.257 155.679 425.279 155.555C425.302 155.43 425.274 155.302 425.202 155.198Z" fill="black"/>
<path opacity="0.1" d="M420.505 148.406L419.304 146.678C419.232 146.58 419.125 146.513 419.005 146.49C418.886 146.468 418.762 146.493 418.66 146.559L416.881 147.757C416.781 147.827 416.711 147.932 416.686 148.052C416.661 148.172 416.683 148.297 416.748 148.401L417.849 150.096C417.917 150.198 418.022 150.27 418.142 150.297C418.262 150.323 418.388 150.303 418.493 150.239L420.372 149.06C420.475 148.99 420.547 148.882 420.572 148.76C420.597 148.638 420.573 148.511 420.505 148.406Z" fill="black"/>
<path opacity="0.1" d="M422.002 157.413L420.8 155.7C420.729 155.601 420.622 155.534 420.502 155.512C420.382 155.49 420.259 155.514 420.157 155.58L418.378 156.778C418.278 156.849 418.209 156.955 418.185 157.075C418.161 157.195 418.184 157.319 418.249 157.423L419.346 159.117C419.414 159.22 419.519 159.292 419.639 159.318C419.759 159.345 419.885 159.324 419.99 159.26L421.869 158.081C421.922 158.047 421.967 158.002 422.003 157.949C422.038 157.897 422.063 157.838 422.075 157.775C422.088 157.713 422.088 157.649 422.075 157.587C422.063 157.525 422.038 157.466 422.002 157.413Z" fill="black"/>
<path opacity="0.1" d="M418.645 159.738L417.443 158.024C417.372 157.924 417.264 157.856 417.143 157.834C417.022 157.812 416.898 157.837 416.795 157.905L415.021 159.088C414.919 159.158 414.848 159.265 414.823 159.386C414.798 159.507 414.821 159.633 414.887 159.738L415.989 161.432C416.058 161.534 416.163 161.605 416.283 161.63C416.403 161.656 416.528 161.635 416.633 161.571L418.512 160.392C418.615 160.322 418.687 160.214 418.712 160.092C418.737 159.97 418.713 159.842 418.645 159.738Z" fill="black"/>
<path opacity="0.1" d="M415.245 162.096L414.048 160.378C413.976 160.278 413.869 160.21 413.748 160.188C413.627 160.165 413.502 160.191 413.4 160.258L411.621 161.475C411.521 161.546 411.452 161.652 411.428 161.772C411.404 161.892 411.427 162.016 411.492 162.12L412.594 163.814C412.663 163.916 412.768 163.987 412.888 164.013C413.008 164.038 413.133 164.017 413.238 163.953L415.112 162.774C415.166 162.739 415.213 162.694 415.249 162.64C415.286 162.587 415.311 162.527 415.323 162.463C415.336 162.4 415.335 162.335 415.322 162.272C415.309 162.208 415.282 162.149 415.245 162.096Z" fill="black"/>
<path opacity="0.1" d="M417.381 150.731L416.18 149.017C416.108 148.919 416.001 148.851 415.881 148.829C415.762 148.807 415.638 148.832 415.536 148.898L413.757 150.096C413.657 150.165 413.587 150.271 413.562 150.391C413.537 150.511 413.559 150.636 413.624 150.74L414.725 152.435C414.793 152.537 414.898 152.609 415.018 152.636C415.138 152.662 415.264 152.642 415.369 152.578L417.248 151.399C417.301 151.364 417.347 151.319 417.382 151.267C417.418 151.214 417.442 151.155 417.455 151.093C417.467 151.031 417.467 150.966 417.454 150.904C417.442 150.842 417.417 150.783 417.381 150.731Z" fill="black"/>
<path opacity="0.1" d="M414.024 153.06L412.822 151.341C412.75 151.242 412.643 151.174 412.522 151.151C412.401 151.129 412.276 151.154 412.174 151.222L410.4 152.406C410.299 152.476 410.229 152.581 410.204 152.701C410.179 152.821 410.202 152.946 410.266 153.05L411.368 154.745C411.437 154.846 411.542 154.917 411.662 154.943C411.782 154.969 411.907 154.947 412.011 154.883L413.89 153.704C413.991 153.634 414.061 153.529 414.086 153.409C414.111 153.289 414.088 153.164 414.024 153.06Z" fill="black"/>
<path opacity="0.1" d="M410.624 155.413L409.422 153.699C409.351 153.6 409.245 153.532 409.125 153.509C409.006 153.486 408.881 153.51 408.779 153.575L407 154.793C406.9 154.863 406.831 154.969 406.807 155.089C406.783 155.209 406.806 155.333 406.871 155.437L407.973 157.131C408.041 157.234 408.146 157.306 408.266 157.332C408.386 157.359 408.511 157.338 408.617 157.275L410.491 156.091C410.545 156.056 410.592 156.011 410.628 155.957C410.665 155.904 410.69 155.844 410.702 155.781C410.715 155.717 410.714 155.652 410.701 155.589C410.687 155.526 410.661 155.466 410.624 155.413Z" fill="black"/>
<path opacity="0.1" d="M411.85 164.449L410.648 162.736C410.577 162.636 410.471 162.568 410.351 162.545C410.231 162.522 410.107 162.546 410.005 162.611L408.24 163.814C408.14 163.885 408.071 163.991 408.047 164.111C408.023 164.231 408.046 164.355 408.111 164.459L409.194 166.153C409.262 166.254 409.366 166.325 409.485 166.352C409.604 166.379 409.728 166.359 409.833 166.296L411.712 165.113C411.765 165.078 411.81 165.034 411.846 164.982C411.881 164.93 411.906 164.871 411.919 164.81C411.932 164.748 411.932 164.684 411.921 164.623C411.909 164.561 411.885 164.502 411.85 164.449Z" fill="black"/>
<path opacity="0.1" d="M408.455 166.803L407.253 165.089C407.181 164.989 407.073 164.921 406.953 164.899C406.832 164.877 406.707 164.902 406.604 164.97L404.83 166.168C404.73 166.237 404.66 166.343 404.635 166.463C404.61 166.583 404.632 166.708 404.697 166.812L405.798 168.507C405.867 168.609 405.972 168.681 406.092 168.708C406.212 168.734 406.337 168.714 406.442 168.65L408.321 167.471C408.374 167.436 408.42 167.391 408.455 167.339C408.491 167.286 408.516 167.227 408.528 167.165C408.54 167.103 408.54 167.038 408.528 166.976C408.515 166.914 408.49 166.855 408.455 166.803Z" fill="black"/>
<path opacity="0.1" d="M405.207 169.37L403.714 167.241C403.698 167.218 403.678 167.197 403.654 167.182C403.63 167.166 403.604 167.155 403.576 167.15C403.548 167.144 403.519 167.145 403.491 167.151C403.463 167.157 403.437 167.168 403.414 167.184L401.229 168.659C401.205 168.675 401.185 168.695 401.169 168.718C401.152 168.742 401.141 168.768 401.135 168.796C401.13 168.824 401.129 168.853 401.135 168.881C401.14 168.909 401.151 168.936 401.167 168.96L402.536 171.065C402.551 171.089 402.571 171.11 402.594 171.127C402.618 171.144 402.644 171.156 402.672 171.162C402.7 171.168 402.729 171.169 402.757 171.163C402.786 171.158 402.812 171.147 402.836 171.132L405.145 169.7C405.172 169.684 405.196 169.662 405.215 169.636C405.233 169.61 405.246 169.581 405.252 169.549C405.258 169.518 405.257 169.486 405.249 169.455C405.241 169.424 405.227 169.395 405.207 169.37Z" fill="black"/>
<path opacity="0.1" d="M402.197 171.456L400.705 169.323C400.671 169.277 400.621 169.245 400.565 169.236C400.509 169.226 400.451 169.238 400.404 169.27L398.225 170.74C398.177 170.773 398.144 170.824 398.132 170.881C398.121 170.938 398.132 170.997 398.163 171.046L399.532 173.151C399.564 173.198 399.613 173.232 399.669 173.244C399.725 173.257 399.783 173.247 399.832 173.218L402.14 171.786C402.169 171.771 402.194 171.75 402.213 171.723C402.232 171.697 402.245 171.667 402.25 171.635C402.256 171.603 402.254 171.571 402.245 171.54C402.236 171.509 402.219 171.48 402.197 171.456Z" fill="black"/>
<path opacity="0.1" d="M398.831 173.786L397.338 171.657C397.305 171.611 397.254 171.579 397.198 171.57C397.142 171.56 397.085 171.572 397.038 171.604L394.853 173.074C394.829 173.09 394.809 173.11 394.793 173.134C394.776 173.157 394.765 173.184 394.759 173.212C394.754 173.24 394.753 173.269 394.759 173.297C394.764 173.325 394.776 173.351 394.791 173.375L396.16 175.485C396.192 175.532 396.241 175.566 396.297 175.578C396.353 175.591 396.411 175.581 396.461 175.552L398.769 174.12C398.796 174.103 398.82 174.081 398.839 174.055C398.858 174.029 398.87 173.999 398.876 173.967C398.882 173.935 398.881 173.903 398.873 173.871C398.865 173.84 398.851 173.811 398.831 173.786Z" fill="black"/>
<path opacity="0.1" d="M395.569 176.048L394.076 173.919C394.06 173.895 394.04 173.875 394.016 173.859C393.993 173.844 393.966 173.833 393.938 173.828C393.91 173.822 393.881 173.822 393.853 173.828C393.826 173.834 393.799 173.846 393.776 173.862L391.592 175.318C391.568 175.333 391.547 175.353 391.531 175.377C391.515 175.4 391.503 175.427 391.498 175.455C391.492 175.483 391.492 175.512 391.497 175.54C391.503 175.568 391.514 175.595 391.53 175.618L392.898 177.723C392.93 177.772 392.979 177.806 393.035 177.818C393.091 177.831 393.15 177.821 393.199 177.79L395.507 176.358C395.532 176.342 395.553 176.322 395.57 176.297C395.586 176.273 395.598 176.245 395.604 176.216C395.61 176.187 395.609 176.158 395.603 176.129C395.597 176.1 395.586 176.072 395.569 176.048Z" fill="black"/>
<path opacity="0.1" d="M416.408 156.506L415.207 154.793C415.135 154.694 415.028 154.627 414.908 154.605C414.789 154.583 414.665 154.607 414.563 154.674L412.784 155.876C412.684 155.947 412.615 156.053 412.591 156.173C412.567 156.293 412.59 156.417 412.655 156.521L413.757 158.215C413.826 158.316 413.93 158.386 414.049 158.411C414.168 158.437 414.292 158.416 414.396 158.354L416.275 157.175C416.328 157.14 416.374 157.095 416.409 157.043C416.445 156.99 416.469 156.931 416.482 156.869C416.494 156.806 416.494 156.742 416.481 156.68C416.469 156.618 416.444 156.559 416.408 156.506Z" fill="black"/>
<path opacity="0.1" d="M413.008 158.864L411.807 157.146C411.735 157.046 411.627 156.978 411.506 156.956C411.385 156.934 411.261 156.959 411.158 157.027L409.384 158.23C409.283 158.299 409.214 158.405 409.189 158.525C409.164 158.645 409.186 158.77 409.251 158.874L410.352 160.569C410.42 160.671 410.525 160.743 410.645 160.769C410.765 160.796 410.891 160.775 410.996 160.712L412.875 159.528C412.927 159.493 412.972 159.449 413.007 159.396C413.042 159.344 413.067 159.286 413.079 159.224C413.092 159.162 413.092 159.099 413.08 159.037C413.067 158.975 413.043 158.917 413.008 158.864Z" fill="black"/>
<path opacity="0.1" d="M409.618 161.218L408.416 159.504C408.345 159.404 408.237 159.336 408.116 159.314C407.995 159.292 407.871 159.317 407.768 159.385L405.989 160.583C405.889 160.653 405.82 160.759 405.796 160.879C405.772 160.999 405.795 161.124 405.86 161.227L406.962 162.922C407.03 163.024 407.135 163.096 407.255 163.123C407.375 163.149 407.501 163.129 407.606 163.065L409.48 161.881C409.533 161.847 409.578 161.802 409.614 161.75C409.649 161.698 409.674 161.64 409.687 161.578C409.7 161.516 409.7 161.453 409.689 161.391C409.677 161.329 409.653 161.27 409.618 161.218Z" fill="black"/>
<path opacity="0.1" d="M406.218 163.571L405.016 161.857C404.944 161.759 404.838 161.692 404.718 161.67C404.598 161.647 404.475 161.672 404.372 161.738L402.594 162.936C402.494 163.007 402.425 163.113 402.401 163.233C402.377 163.352 402.4 163.477 402.465 163.58L403.567 165.294C403.635 165.395 403.739 165.466 403.858 165.493C403.976 165.519 404.101 165.5 404.206 165.437L406.084 164.258C406.14 164.224 406.188 164.178 406.226 164.124C406.263 164.07 406.289 164.008 406.301 163.944C406.314 163.879 406.313 163.813 406.298 163.749C406.284 163.685 406.257 163.624 406.218 163.571Z" fill="black"/>
<path opacity="0.1" d="M402.995 166.139L401.502 164.01C401.486 163.986 401.466 163.966 401.442 163.95C401.418 163.935 401.392 163.924 401.364 163.918C401.336 163.913 401.307 163.913 401.279 163.919C401.252 163.925 401.225 163.936 401.202 163.953L399.018 165.428C398.97 165.46 398.937 165.509 398.925 165.565C398.914 165.622 398.925 165.68 398.956 165.728L400.324 167.838C400.34 167.862 400.36 167.883 400.383 167.899C400.407 167.915 400.433 167.927 400.461 167.932C400.489 167.938 400.518 167.938 400.546 167.933C400.574 167.927 400.601 167.916 400.625 167.9L402.933 166.468C402.96 166.452 402.984 166.431 403.003 166.405C403.021 166.379 403.034 166.349 403.04 166.318C403.046 166.287 403.045 166.254 403.037 166.223C403.029 166.192 403.015 166.164 402.995 166.139Z" fill="black"/>
<path opacity="0.1" d="M399.966 168.225L398.473 166.091C398.439 166.045 398.388 166.014 398.331 166.004C398.274 165.994 398.216 166.006 398.168 166.039L395.989 167.509C395.941 167.542 395.908 167.592 395.896 167.649C395.885 167.706 395.896 167.765 395.927 167.814L397.295 169.919C397.327 169.968 397.376 170.002 397.432 170.014C397.488 170.027 397.547 170.017 397.596 169.986L399.904 168.554C399.932 168.538 399.956 168.517 399.974 168.491C399.993 168.465 400.005 168.435 400.011 168.404C400.017 168.373 400.016 168.34 400.008 168.309C400 168.279 399.986 168.25 399.966 168.225Z" fill="black"/>
<path opacity="0.1" d="M396.6 170.545L395.107 168.411C395.073 168.365 395.022 168.333 394.965 168.324C394.908 168.314 394.85 168.326 394.802 168.359L392.618 169.829C392.571 169.862 392.539 169.913 392.527 169.969C392.516 170.026 392.526 170.085 392.556 170.134L393.929 172.239C393.961 172.288 394.01 172.322 394.066 172.334C394.122 172.347 394.181 172.337 394.23 172.306L396.533 170.874C396.562 170.859 396.587 170.838 396.606 170.813C396.626 170.787 396.639 170.757 396.646 170.725C396.652 170.694 396.651 170.661 396.643 170.63C396.635 170.599 396.621 170.569 396.6 170.545Z" fill="black"/>
<path opacity="0.1" d="M393.337 172.816L391.844 170.688C391.828 170.664 391.807 170.643 391.783 170.628C391.759 170.612 391.732 170.601 391.704 170.596C391.675 170.59 391.646 170.591 391.618 170.597C391.59 170.602 391.563 170.614 391.539 170.63L389.355 172.105C389.308 172.138 389.276 172.188 389.266 172.244C389.255 172.3 389.267 172.358 389.298 172.406L390.667 174.511C390.681 174.536 390.701 174.558 390.724 174.575C390.747 174.592 390.774 174.604 390.802 174.61C390.83 174.616 390.86 174.617 390.888 174.611C390.916 174.606 390.943 174.594 390.967 174.578L393.27 173.146C393.299 173.131 393.324 173.11 393.344 173.084C393.363 173.059 393.377 173.029 393.383 172.997C393.389 172.966 393.389 172.933 393.381 172.902C393.373 172.87 393.358 172.841 393.337 172.816Z" fill="black"/>
<path opacity="0.1" d="M392.307 178.306L390.815 176.177C390.781 176.131 390.731 176.1 390.675 176.09C390.619 176.08 390.561 176.093 390.514 176.125L388.33 177.595C388.306 177.61 388.285 177.63 388.269 177.654C388.253 177.678 388.242 177.704 388.236 177.732C388.23 177.76 388.23 177.789 388.235 177.817C388.241 177.845 388.252 177.872 388.268 177.896L389.637 180.005C389.669 180.053 389.718 180.086 389.774 180.099C389.829 180.111 389.888 180.102 389.937 180.072L392.245 178.64C392.273 178.624 392.297 178.602 392.316 178.576C392.334 178.549 392.347 178.519 392.353 178.487C392.359 178.456 392.358 178.423 392.35 178.392C392.342 178.361 392.327 178.331 392.307 178.306Z" fill="black"/>
<path opacity="0.1" d="M389.045 180.569L387.553 178.44C387.537 178.416 387.517 178.396 387.493 178.38C387.469 178.364 387.443 178.353 387.415 178.348C387.387 178.343 387.358 178.343 387.33 178.349C387.302 178.355 387.276 178.366 387.252 178.382L385.068 179.857C385.044 179.873 385.024 179.893 385.007 179.916C384.991 179.94 384.98 179.967 384.974 179.995C384.968 180.023 384.968 180.052 384.974 180.08C384.979 180.108 384.99 180.134 385.006 180.158L386.375 182.263C386.406 182.311 386.455 182.346 386.512 182.358C386.568 182.371 386.627 182.36 386.675 182.33L388.983 180.898C389.011 180.882 389.035 180.861 389.054 180.835C389.072 180.809 389.085 180.779 389.091 180.748C389.097 180.716 389.096 180.684 389.088 180.653C389.08 180.622 389.066 180.593 389.045 180.569Z" fill="black"/>
<path opacity="0.1" d="M394.167 167.041L392.737 165.036C392.692 164.974 392.624 164.931 392.549 164.918C392.473 164.905 392.395 164.921 392.331 164.964L390.271 166.353C390.239 166.375 390.212 166.402 390.19 166.434C390.169 166.466 390.154 166.502 390.146 166.539C390.139 166.577 390.139 166.616 390.146 166.654C390.154 166.691 390.169 166.727 390.19 166.759L391.478 168.74C391.498 168.773 391.524 168.801 391.555 168.824C391.586 168.846 391.622 168.862 391.659 168.87C391.696 168.879 391.735 168.88 391.773 168.873C391.81 168.866 391.846 168.852 391.878 168.831L394.058 167.461C394.094 167.442 394.125 167.415 394.15 167.383C394.176 167.351 394.194 167.314 394.204 167.275C394.214 167.235 394.217 167.194 394.21 167.154C394.204 167.114 394.189 167.075 394.167 167.041Z" fill="black"/>
<path opacity="0.1" d="M390.906 169.303L389.499 167.298C389.478 167.267 389.45 167.24 389.418 167.219C389.386 167.198 389.35 167.183 389.312 167.176C389.275 167.169 389.236 167.169 389.198 167.177C389.161 167.185 389.125 167.2 389.094 167.222L387.034 168.635C387.002 168.656 386.974 168.683 386.953 168.714C386.931 168.746 386.917 168.781 386.909 168.818C386.901 168.856 386.901 168.894 386.909 168.932C386.916 168.969 386.931 169.004 386.953 169.036L388.24 171.022C388.282 171.086 388.347 171.131 388.422 171.148C388.497 171.165 388.575 171.152 388.641 171.112L390.82 169.742C390.857 169.721 390.889 169.692 390.913 169.658C390.938 169.624 390.955 169.584 390.963 169.542C390.971 169.501 390.97 169.458 390.961 169.417C390.951 169.375 390.932 169.337 390.906 169.303Z" fill="black"/>
<path opacity="0.1" d="M387.644 171.566L386.237 169.557C386.192 169.494 386.124 169.452 386.049 169.439C385.973 169.425 385.895 169.442 385.831 169.485L383.771 170.874C383.739 170.895 383.712 170.923 383.69 170.954C383.669 170.986 383.654 171.022 383.646 171.06C383.639 171.098 383.639 171.137 383.646 171.174C383.654 171.212 383.669 171.248 383.69 171.28L384.978 173.261C384.998 173.293 385.024 173.322 385.055 173.344C385.086 173.366 385.122 173.382 385.159 173.391C385.196 173.399 385.235 173.4 385.273 173.393C385.31 173.387 385.346 173.372 385.378 173.351L387.558 171.981C387.591 171.961 387.621 171.933 387.643 171.901C387.666 171.868 387.682 171.831 387.69 171.792C387.698 171.753 387.698 171.713 387.69 171.674C387.682 171.635 387.666 171.599 387.644 171.566Z" fill="black"/>
<path opacity="0.1" d="M384.425 173.886L382.932 171.752C382.899 171.706 382.849 171.675 382.793 171.665C382.737 171.655 382.679 171.667 382.632 171.699L380.448 173.17C380.4 173.203 380.367 173.253 380.355 173.31C380.344 173.367 380.355 173.426 380.386 173.475L381.754 175.58C381.786 175.628 381.835 175.661 381.891 175.673C381.947 175.686 382.006 175.676 382.055 175.647L384.363 174.215C384.392 174.201 384.417 174.18 384.437 174.154C384.456 174.128 384.47 174.098 384.476 174.066C384.482 174.034 384.48 174.001 384.471 173.97C384.463 173.938 384.447 173.91 384.425 173.886Z" fill="black"/>
<path opacity="0.1" d="M423.023 151.857L421.73 150.019C421.658 149.92 421.55 149.853 421.429 149.832C421.308 149.811 421.184 149.837 421.082 149.905L416.037 153.442C415.939 153.513 415.872 153.618 415.849 153.737C415.826 153.856 415.848 153.979 415.913 154.081L417.129 155.962C417.164 156.014 417.209 156.059 417.261 156.093C417.313 156.128 417.372 156.152 417.433 156.164C417.495 156.176 417.558 156.176 417.62 156.163C417.681 156.151 417.739 156.126 417.791 156.091L422.913 152.506C423.011 152.433 423.077 152.324 423.098 152.204C423.118 152.083 423.091 151.959 423.023 151.857Z" fill="black"/>
<path opacity="0.1" d="M390.066 175.007L388.483 172.769C388.467 172.745 388.446 172.724 388.421 172.709C388.397 172.693 388.37 172.682 388.341 172.677C388.313 172.673 388.284 172.673 388.256 172.68C388.227 172.687 388.201 172.699 388.178 172.716L382.732 176.535C382.685 176.567 382.653 176.616 382.643 176.671C382.632 176.727 382.643 176.784 382.675 176.831L384.162 179.136C384.178 179.161 384.199 179.183 384.223 179.199C384.248 179.216 384.275 179.228 384.304 179.233C384.333 179.239 384.363 179.239 384.392 179.233C384.421 179.227 384.448 179.215 384.472 179.198L390.009 175.318C390.057 175.284 390.09 175.232 390.101 175.174C390.112 175.116 390.099 175.056 390.066 175.007Z" fill="black"/>
<path opacity="0.1" d="M407.39 157.886L405.931 155.747C405.898 155.701 405.849 155.668 405.792 155.658C405.736 155.647 405.678 155.659 405.631 155.69L393.537 163.862C393.49 163.894 393.457 163.943 393.445 164C393.433 164.056 393.444 164.114 393.475 164.163L394.968 166.454C394.984 166.479 395.004 166.5 395.029 166.517C395.053 166.533 395.081 166.545 395.11 166.551C395.139 166.557 395.168 166.557 395.197 166.551C395.226 166.545 395.254 166.533 395.278 166.516L407.333 158.191C407.357 158.175 407.377 158.154 407.393 158.13C407.409 158.106 407.42 158.079 407.425 158.05C407.43 158.022 407.43 157.993 407.424 157.965C407.418 157.936 407.407 157.91 407.39 157.886Z" fill="black"/>
</g>
<path d="M427.668 158.363L426.466 156.645C426.394 156.545 426.286 156.477 426.165 156.455C426.045 156.432 425.92 156.458 425.817 156.525L424.043 157.728C423.943 157.798 423.873 157.904 423.848 158.024C423.823 158.144 423.845 158.268 423.91 158.373L425.011 160.067C425.08 160.169 425.185 160.241 425.305 160.268C425.424 160.295 425.55 160.274 425.655 160.21L427.534 159.026C427.586 158.992 427.631 158.947 427.667 158.895C427.702 158.843 427.726 158.784 427.739 158.722C427.751 158.661 427.751 158.597 427.739 158.536C427.727 158.474 427.702 158.415 427.668 158.363Z" fill="#464A5F"/>
<path d="M424.454 160.578L423.252 158.864C423.18 158.766 423.073 158.699 422.954 158.676C422.834 158.654 422.71 158.679 422.608 158.745L420.829 159.943C420.729 160.013 420.659 160.118 420.634 160.238C420.609 160.358 420.631 160.483 420.696 160.587L421.797 162.282C421.866 162.384 421.971 162.456 422.091 162.483C422.211 162.509 422.336 162.489 422.441 162.425L424.32 161.246C424.373 161.211 424.419 161.166 424.454 161.114C424.49 161.061 424.515 161.002 424.527 160.94C424.539 160.878 424.539 160.814 424.527 160.751C424.514 160.689 424.489 160.63 424.454 160.578Z" fill="#464A5F"/>
<path d="M421.116 162.907L419.914 161.193C419.842 161.094 419.734 161.026 419.614 161.003C419.493 160.981 419.368 161.007 419.265 161.074L417.492 162.277C417.391 162.347 417.321 162.452 417.296 162.572C417.271 162.692 417.293 162.817 417.358 162.921L418.46 164.616C418.528 164.717 418.634 164.788 418.754 164.814C418.874 164.84 418.999 164.818 419.103 164.754L420.982 163.575C421.035 163.541 421.081 163.496 421.116 163.443C421.152 163.391 421.177 163.331 421.189 163.269C421.202 163.207 421.201 163.143 421.189 163.081C421.176 163.019 421.151 162.959 421.116 162.907Z" fill="#464A5F"/>
<path d="M417.711 165.26L416.509 163.542C416.437 163.444 416.331 163.376 416.211 163.354C416.091 163.332 415.968 163.356 415.865 163.423L414.087 164.625C414.034 164.661 413.989 164.706 413.955 164.759C413.92 164.812 413.897 164.871 413.885 164.934C413.873 164.996 413.874 165.06 413.888 165.121C413.901 165.183 413.926 165.242 413.963 165.294L415.064 166.988C415.132 167.09 415.237 167.162 415.357 167.189C415.477 167.216 415.603 167.195 415.708 167.131L417.582 165.948C417.637 165.913 417.685 165.866 417.722 165.812C417.759 165.758 417.784 165.697 417.796 165.632C417.808 165.568 417.807 165.501 417.792 165.437C417.777 165.373 417.75 165.313 417.711 165.26Z" fill="#464A5F"/>
<path d="M414.316 167.614L413.114 165.9C413.042 165.802 412.935 165.735 412.816 165.713C412.696 165.69 412.572 165.715 412.47 165.781L410.691 166.979C410.591 167.05 410.522 167.156 410.499 167.276C410.475 167.395 410.497 167.52 410.563 167.623L411.659 169.318C411.728 169.42 411.833 169.492 411.953 169.519C412.072 169.546 412.198 169.525 412.303 169.461L414.182 168.277C414.234 168.243 414.279 168.198 414.315 168.146C414.35 168.094 414.374 168.035 414.387 167.973C414.399 167.912 414.399 167.848 414.387 167.787C414.375 167.725 414.35 167.666 414.316 167.614Z" fill="#464A5F"/>
<path d="M411.068 170.182L409.575 168.053C409.559 168.029 409.539 168.009 409.515 167.993C409.492 167.977 409.465 167.967 409.437 167.961C409.409 167.956 409.38 167.956 409.352 167.962C409.325 167.968 409.298 167.979 409.275 167.996L407.091 169.471C407.067 169.486 407.046 169.506 407.03 169.53C407.014 169.553 407.002 169.58 406.997 169.608C406.991 169.636 406.991 169.665 406.996 169.693C407.002 169.721 407.013 169.748 407.029 169.771L408.397 171.876C408.429 171.925 408.478 171.959 408.534 171.971C408.59 171.984 408.649 171.974 408.698 171.943L411.006 170.511C411.034 170.495 411.058 170.474 411.076 170.448C411.095 170.422 411.107 170.392 411.113 170.361C411.119 170.33 411.118 170.297 411.11 170.266C411.102 170.235 411.088 170.207 411.068 170.182Z" fill="#464A5F"/>
<path d="M407.672 172.535L406.18 170.406C406.163 170.382 406.143 170.362 406.119 170.346C406.094 170.33 406.067 170.32 406.039 170.314C406.011 170.309 405.982 170.309 405.953 170.315C405.925 170.321 405.898 170.333 405.875 170.349L403.695 171.824C403.671 171.839 403.651 171.86 403.634 171.883C403.618 171.907 403.607 171.933 403.601 171.961C403.595 171.989 403.595 172.018 403.601 172.046C403.606 172.074 403.617 172.101 403.633 172.125L405.002 174.234C405.017 174.259 405.037 174.279 405.061 174.295C405.085 174.312 405.111 174.323 405.139 174.329C405.167 174.335 405.196 174.335 405.224 174.329C405.252 174.324 405.279 174.312 405.302 174.297L407.61 172.865C407.637 172.848 407.661 172.826 407.679 172.8C407.697 172.774 407.709 172.745 407.715 172.714C407.721 172.683 407.72 172.651 407.713 172.62C407.705 172.589 407.692 172.56 407.672 172.535Z" fill="#464A5F"/>
<path d="M404.663 174.621L403.17 172.487C403.137 172.441 403.087 172.41 403.031 172.4C402.975 172.39 402.917 172.403 402.87 172.435L400.686 173.886C400.638 173.919 400.605 173.969 400.593 174.026C400.582 174.083 400.593 174.142 400.624 174.191L401.993 176.296C402.025 176.344 402.074 176.377 402.13 176.39C402.185 176.402 402.244 176.393 402.293 176.363L404.601 174.931C404.626 174.915 404.647 174.895 404.664 174.87C404.681 174.846 404.692 174.818 404.698 174.789C404.704 174.76 404.704 174.73 404.698 174.702C404.692 174.673 404.68 174.645 404.663 174.621Z" fill="#464A5F"/>
<path d="M401.297 176.955L399.804 174.84C399.771 174.794 399.721 174.763 399.665 174.753C399.608 174.743 399.551 174.756 399.504 174.788L397.32 176.258C397.295 176.274 397.275 176.294 397.258 176.318C397.242 176.342 397.231 176.369 397.225 176.398C397.219 176.426 397.219 176.455 397.225 176.484C397.23 176.512 397.242 176.539 397.258 176.563L398.626 178.668C398.658 178.716 398.707 178.749 398.763 178.762C398.819 178.774 398.878 178.765 398.927 178.735L401.235 177.303C401.266 177.288 401.293 177.266 401.313 177.238C401.334 177.211 401.348 177.179 401.354 177.145C401.36 177.111 401.358 177.076 401.348 177.043C401.338 177.01 401.32 176.98 401.297 176.955Z" fill="#464A5F"/>
<path d="M398.035 179.213L396.542 177.084C396.526 177.06 396.506 177.04 396.482 177.024C396.458 177.009 396.432 176.998 396.404 176.993C396.376 176.987 396.347 176.988 396.319 176.993C396.291 176.999 396.265 177.011 396.242 177.027L394.058 178.502C394.034 178.517 394.013 178.537 393.997 178.561C393.981 178.585 393.969 178.611 393.963 178.639C393.958 178.667 393.958 178.696 393.963 178.724C393.969 178.752 393.98 178.779 393.996 178.803L395.364 180.908C395.379 180.932 395.399 180.953 395.422 180.97C395.446 180.986 395.472 180.998 395.5 181.005C395.528 181.011 395.557 181.011 395.586 181.006C395.614 181.001 395.641 180.99 395.665 180.974L397.973 179.542C398 179.527 398.024 179.505 398.043 179.479C398.061 179.453 398.074 179.423 398.08 179.392C398.086 179.361 398.085 179.329 398.077 179.298C398.069 179.267 398.055 179.238 398.035 179.213Z" fill="#464A5F"/>
<path d="M394.773 181.475L393.281 179.342C393.247 179.296 393.197 179.265 393.141 179.255C393.085 179.245 393.028 179.257 392.98 179.289L390.796 180.759C390.748 180.792 390.715 180.843 390.704 180.9C390.692 180.957 390.703 181.016 390.734 181.065L392.103 183.17C392.135 183.217 392.184 183.251 392.24 183.263C392.296 183.276 392.354 183.266 392.403 183.237L394.711 181.805C394.739 181.789 394.763 181.767 394.782 181.741C394.8 181.716 394.813 181.686 394.819 181.655C394.825 181.623 394.824 181.591 394.816 181.56C394.808 181.529 394.794 181.5 394.773 181.475Z" fill="#464A5F"/>
<path d="M391.511 183.733L390.019 181.604C390.003 181.581 389.982 181.56 389.959 181.544C389.935 181.529 389.908 181.518 389.88 181.513C389.852 181.507 389.824 181.508 389.796 181.513C389.768 181.519 389.742 181.531 389.718 181.547L387.534 183.022C387.51 183.037 387.489 183.057 387.473 183.081C387.457 183.105 387.446 183.131 387.44 183.159C387.434 183.187 387.434 183.216 387.44 183.244C387.445 183.272 387.456 183.299 387.472 183.323L388.841 185.428C388.856 185.452 388.876 185.473 388.899 185.49C388.922 185.507 388.949 185.518 388.977 185.525C389.005 185.531 389.034 185.531 389.062 185.526C389.09 185.521 389.117 185.51 389.141 185.494L391.449 184.062C391.477 184.047 391.501 184.025 391.519 183.999C391.538 183.973 391.551 183.943 391.557 183.912C391.562 183.881 391.561 183.849 391.554 183.818C391.546 183.787 391.531 183.758 391.511 183.733Z" fill="#464A5F"/>
<path d="M425.517 155.27L424.315 153.552C424.243 153.453 424.136 153.386 424.017 153.364C423.897 153.342 423.773 153.366 423.671 153.432L421.892 154.635C421.793 154.706 421.724 154.812 421.7 154.932C421.676 155.052 421.699 155.176 421.764 155.28L422.861 156.974C422.929 157.076 423.034 157.148 423.154 157.175C423.274 157.202 423.399 157.181 423.504 157.117L425.383 155.934C425.436 155.899 425.481 155.854 425.516 155.802C425.551 155.75 425.575 155.691 425.588 155.63C425.6 155.568 425.6 155.504 425.588 155.443C425.576 155.381 425.552 155.322 425.517 155.27Z" fill="#464A5F"/>
<path d="M420.819 148.464L419.618 146.75C419.546 146.652 419.439 146.584 419.32 146.562C419.2 146.54 419.076 146.564 418.974 146.631L417.195 147.829C417.095 147.899 417.026 148.005 417.002 148.125C416.978 148.245 417.001 148.37 417.066 148.473L418.168 150.168C418.236 150.269 418.34 150.34 418.459 150.366C418.578 150.393 418.702 150.373 418.807 150.311L420.686 149.132C420.739 149.097 420.785 149.052 420.82 149C420.856 148.947 420.88 148.888 420.893 148.826C420.905 148.763 420.905 148.699 420.893 148.637C420.88 148.575 420.855 148.516 420.819 148.464Z" fill="#464A5F"/>
<path d="M422.318 157.471L421.116 155.747C421.044 155.649 420.937 155.582 420.818 155.56C420.698 155.538 420.574 155.562 420.472 155.628L418.693 156.826C418.593 156.897 418.524 157.003 418.5 157.123C418.477 157.243 418.499 157.367 418.565 157.471L419.666 159.165C419.734 159.266 419.838 159.337 419.957 159.364C420.076 159.391 420.2 159.371 420.305 159.308L422.184 158.129C422.289 158.059 422.361 157.951 422.386 157.827C422.411 157.704 422.387 157.576 422.318 157.471Z" fill="#464A5F"/>
<path d="M418.96 159.795L417.777 158.081C417.705 157.983 417.599 157.916 417.479 157.894C417.359 157.872 417.236 157.896 417.133 157.962L415.355 159.16C415.253 159.231 415.184 159.338 415.16 159.459C415.136 159.58 415.159 159.706 415.226 159.809L416.323 161.504C416.392 161.605 416.497 161.676 416.617 161.702C416.737 161.728 416.862 161.707 416.966 161.642L418.845 160.463C418.897 160.427 418.941 160.381 418.974 160.328C419.008 160.275 419.031 160.215 419.042 160.153C419.052 160.091 419.051 160.027 419.036 159.966C419.022 159.904 418.996 159.846 418.96 159.795Z" fill="#464A5F"/>
<path d="M415.565 162.153L414.363 160.435C414.291 160.335 414.184 160.267 414.063 160.245C413.942 160.222 413.817 160.248 413.715 160.315L411.941 161.518C411.84 161.588 411.77 161.694 411.745 161.814C411.72 161.934 411.743 162.059 411.807 162.163L412.909 163.857C412.977 163.959 413.082 164.031 413.202 164.058C413.322 164.085 413.447 164.064 413.553 164L415.431 162.816C415.484 162.782 415.529 162.737 415.564 162.685C415.599 162.633 415.624 162.574 415.636 162.513C415.648 162.451 415.649 162.387 415.636 162.326C415.624 162.264 415.6 162.205 415.565 162.153Z" fill="#464A5F"/>
<path d="M417.696 150.788L416.495 149.065C416.423 148.966 416.316 148.899 416.197 148.877C416.077 148.855 415.953 148.879 415.851 148.946L414.072 150.144C413.972 150.214 413.903 150.32 413.879 150.44C413.855 150.56 413.878 150.685 413.943 150.788L415.045 152.482C415.113 152.584 415.217 152.655 415.336 152.681C415.455 152.708 415.579 152.688 415.684 152.626L417.563 151.447C417.667 151.377 417.74 151.268 417.765 151.145C417.79 151.021 417.765 150.893 417.696 150.788Z" fill="#464A5F"/>
<path d="M414.339 153.117L413.138 151.399C413.066 151.3 412.959 151.233 412.839 151.211C412.72 151.189 412.596 151.213 412.494 151.28L410.715 152.482C410.615 152.552 410.545 152.658 410.52 152.778C410.495 152.898 410.517 153.023 410.582 153.127L411.683 154.821C411.751 154.924 411.856 154.996 411.976 155.022C412.096 155.049 412.222 155.028 412.327 154.964L414.206 153.781C414.258 153.746 414.303 153.701 414.338 153.649C414.374 153.597 414.398 153.538 414.41 153.477C414.423 153.415 414.423 153.352 414.411 153.29C414.399 153.228 414.374 153.169 414.339 153.117Z" fill="#464A5F"/>
<path d="M410.944 155.471L409.742 153.757C409.67 153.657 409.563 153.589 409.442 153.567C409.321 153.545 409.196 153.57 409.094 153.638L407.32 154.836C407.219 154.905 407.149 155.011 407.124 155.131C407.099 155.251 407.122 155.376 407.186 155.48L408.288 157.179C408.356 157.282 408.461 157.354 408.581 157.38C408.701 157.407 408.826 157.386 408.931 157.323L410.806 156.139C410.859 156.104 410.905 156.06 410.941 156.007C410.977 155.955 411.002 155.896 411.015 155.834C411.028 155.772 411.028 155.707 411.016 155.645C411.004 155.583 410.979 155.523 410.944 155.471Z" fill="#464A5F"/>
<path d="M412.165 164.506L410.963 162.792C410.892 162.694 410.785 162.627 410.665 162.605C410.546 162.582 410.422 162.607 410.32 162.673L408.541 163.862C408.441 163.932 408.372 164.038 408.348 164.158C408.324 164.278 408.347 164.403 408.412 164.506L409.514 166.201C409.582 166.302 409.686 166.373 409.805 166.399C409.924 166.426 410.048 166.406 410.153 166.344L412.032 165.16C412.135 165.09 412.207 164.982 412.232 164.86C412.257 164.738 412.233 164.611 412.165 164.506Z" fill="#464A5F"/>
<path d="M408.769 166.86L407.567 165.146C407.496 165.048 407.389 164.98 407.269 164.958C407.149 164.936 407.026 164.96 406.924 165.027L405.145 166.249C405.044 166.318 404.974 166.424 404.949 166.544C404.925 166.664 404.947 166.789 405.011 166.893L406.113 168.587C406.181 168.69 406.286 168.762 406.406 168.788C406.526 168.815 406.652 168.794 406.757 168.731L408.635 167.552C408.692 167.517 408.741 167.471 408.778 167.416C408.816 167.362 408.842 167.3 408.855 167.235C408.867 167.17 408.866 167.103 408.851 167.038C408.837 166.974 408.809 166.913 408.769 166.86Z" fill="#464A5F"/>
<path d="M405.521 169.427L404.029 167.299C404.013 167.275 403.993 167.255 403.969 167.239C403.945 167.223 403.919 167.212 403.891 167.207C403.863 167.202 403.834 167.202 403.806 167.208C403.778 167.214 403.752 167.225 403.728 167.241L401.563 168.716C401.539 168.732 401.519 168.752 401.503 168.775C401.486 168.799 401.475 168.825 401.469 168.854C401.463 168.882 401.463 168.91 401.469 168.938C401.474 168.967 401.486 168.993 401.501 169.017L402.87 171.122C402.885 171.146 402.905 171.168 402.928 171.184C402.952 171.201 402.978 171.213 403.006 171.219C403.034 171.225 403.063 171.226 403.091 171.22C403.12 171.215 403.147 171.205 403.17 171.189L405.479 169.757C405.504 169.739 405.526 169.716 405.542 169.689C405.558 169.662 405.569 169.633 405.573 169.602C405.577 169.571 405.574 169.539 405.566 169.509C405.557 169.479 405.542 169.451 405.521 169.427Z" fill="#464A5F"/>
<path d="M402.518 171.499L401.025 169.366C400.991 169.319 400.94 169.288 400.883 169.278C400.826 169.268 400.768 169.281 400.72 169.313L398.536 170.783C398.489 170.817 398.457 170.867 398.445 170.924C398.434 170.981 398.444 171.039 398.474 171.089L399.847 173.194C399.879 173.242 399.928 173.276 399.984 173.289C400.04 173.301 400.099 173.291 400.148 173.261L402.451 171.829C402.48 171.814 402.505 171.793 402.524 171.767C402.544 171.742 402.557 171.712 402.564 171.68C402.57 171.648 402.569 171.616 402.561 171.584C402.553 171.553 402.539 171.524 402.518 171.499Z" fill="#464A5F"/>
<path d="M399.146 173.848L397.653 171.714C397.619 171.668 397.569 171.637 397.513 171.627C397.457 171.617 397.4 171.629 397.353 171.661L395.168 173.132C395.121 173.164 395.087 173.215 395.076 173.272C395.064 173.329 395.075 173.388 395.106 173.437L396.475 175.542C396.507 175.589 396.556 175.623 396.612 175.635C396.668 175.648 396.726 175.638 396.776 175.609L399.084 174.177C399.113 174.162 399.138 174.141 399.158 174.116C399.177 174.09 399.19 174.06 399.196 174.028C399.202 173.996 399.201 173.963 399.192 173.932C399.183 173.9 399.167 173.872 399.146 173.848Z" fill="#464A5F"/>
<path d="M395.889 176.105L394.41 173.976C394.395 173.953 394.374 173.932 394.35 173.917C394.327 173.901 394.3 173.89 394.272 173.885C394.244 173.879 394.215 173.88 394.188 173.886C394.16 173.891 394.133 173.903 394.11 173.919L391.926 175.394C391.878 175.426 391.845 175.475 391.834 175.532C391.822 175.588 391.833 175.646 391.864 175.695L393.233 177.8C393.264 177.848 393.313 177.882 393.369 177.895C393.425 177.907 393.484 177.897 393.533 177.866L395.841 176.434C395.868 176.418 395.892 176.396 395.909 176.369C395.927 176.343 395.938 176.313 395.943 176.281C395.948 176.25 395.945 176.217 395.936 176.187C395.926 176.157 395.91 176.129 395.889 176.105Z" fill="#464A5F"/>
<path d="M416.724 156.569L415.527 154.85C415.455 154.75 415.347 154.682 415.226 154.66C415.106 154.638 414.981 154.663 414.878 154.731L413.1 155.934C413 156.004 412.931 156.11 412.907 156.23C412.883 156.35 412.906 156.475 412.971 156.578L414.072 158.273C414.141 158.374 414.247 158.445 414.367 158.471C414.486 158.497 414.612 158.475 414.716 158.411L416.59 157.232C416.643 157.197 416.688 157.153 416.723 157.1C416.758 157.048 416.782 156.99 416.795 156.928C416.807 156.866 416.807 156.803 416.795 156.741C416.783 156.68 416.759 156.621 416.724 156.569Z" fill="#464A5F"/>
<path d="M413.328 158.921L412.127 157.208C412.055 157.109 411.949 157.04 411.829 157.017C411.71 156.994 411.586 157.018 411.483 157.084L409.704 158.287C409.604 158.357 409.535 158.463 409.511 158.583C409.487 158.703 409.51 158.827 409.575 158.931L410.677 160.625C410.745 160.726 410.849 160.798 410.968 160.824C411.087 160.851 411.211 160.831 411.316 160.769L413.195 159.585C413.247 159.55 413.292 159.505 413.327 159.453C413.362 159.401 413.387 159.343 413.399 159.281C413.412 159.219 413.412 159.156 413.4 159.094C413.387 159.032 413.363 158.974 413.328 158.921Z" fill="#464A5F"/>
<path d="M409.933 161.275L408.717 159.566C408.645 159.466 408.537 159.398 408.416 159.376C408.296 159.354 408.171 159.379 408.068 159.447L406.332 160.64C406.232 160.71 406.162 160.815 406.137 160.935C406.112 161.055 406.134 161.18 406.199 161.284L407.3 162.979C407.369 163.081 407.474 163.153 407.594 163.18C407.714 163.207 407.839 163.186 407.944 163.122L409.823 161.943C409.874 161.907 409.918 161.86 409.951 161.807C409.984 161.753 410.007 161.694 410.017 161.632C410.027 161.57 410.025 161.506 410.01 161.445C409.996 161.384 409.97 161.326 409.933 161.275Z" fill="#464A5F"/>
<path d="M406.532 163.628L405.331 161.914C405.259 161.816 405.152 161.749 405.032 161.727C404.913 161.705 404.789 161.729 404.687 161.795L402.908 162.993C402.808 163.064 402.739 163.17 402.715 163.29C402.691 163.41 402.714 163.534 402.779 163.638L403.881 165.332C403.949 165.433 404.053 165.504 404.172 165.531C404.291 165.557 404.415 165.538 404.52 165.475L406.399 164.296C406.452 164.262 406.497 164.217 406.533 164.164C406.569 164.112 406.593 164.052 406.606 163.99C406.618 163.928 406.618 163.864 406.605 163.802C406.593 163.74 406.568 163.681 406.532 163.628Z" fill="#464A5F"/>
<path d="M403.29 166.196L401.797 164.067C401.781 164.043 401.76 164.023 401.736 164.007C401.712 163.991 401.685 163.98 401.656 163.975C401.628 163.97 401.599 163.97 401.571 163.976C401.542 163.982 401.516 163.993 401.492 164.01L399.308 165.485C399.26 165.517 399.227 165.566 399.215 165.622C399.204 165.679 399.215 165.737 399.246 165.785L400.614 167.895C400.63 167.919 400.651 167.94 400.675 167.956C400.699 167.973 400.726 167.984 400.754 167.99C400.782 167.996 400.812 167.996 400.84 167.99C400.868 167.984 400.895 167.973 400.92 167.957L403.223 166.525C403.251 166.51 403.275 166.489 403.294 166.463C403.313 166.437 403.326 166.407 403.333 166.376C403.339 166.345 403.339 166.312 403.331 166.281C403.324 166.25 403.309 166.221 403.29 166.196Z" fill="#464A5F"/>
<path d="M400.281 168.282L398.788 166.153C398.772 166.129 398.752 166.109 398.728 166.093C398.704 166.078 398.678 166.067 398.65 166.061C398.622 166.056 398.593 166.056 398.565 166.062C398.537 166.068 398.511 166.08 398.488 166.096L396.318 167.566C396.27 167.599 396.237 167.649 396.225 167.706C396.214 167.763 396.225 167.822 396.256 167.871L397.625 169.976C397.657 170.024 397.706 170.057 397.761 170.07C397.817 170.082 397.876 170.073 397.925 170.043L400.233 168.611C400.26 168.594 400.282 168.572 400.299 168.545C400.317 168.519 400.328 168.489 400.332 168.458C400.337 168.426 400.335 168.394 400.326 168.364C400.317 168.334 400.301 168.306 400.281 168.282Z" fill="#464A5F"/>
<path d="M396.914 170.616L395.421 168.482C395.387 168.436 395.336 168.405 395.279 168.395C395.223 168.385 395.164 168.398 395.116 168.43L392.937 169.9C392.889 169.933 392.856 169.983 392.844 170.04C392.833 170.097 392.844 170.156 392.875 170.205L394.244 172.31C394.275 172.359 394.324 172.393 394.38 172.405C394.436 172.418 394.495 172.408 394.544 172.377L396.852 170.945C396.88 170.93 396.904 170.908 396.922 170.882C396.941 170.856 396.953 170.826 396.959 170.795C396.965 170.764 396.964 170.731 396.956 170.701C396.949 170.67 396.934 170.641 396.914 170.616Z" fill="#464A5F"/>
<path d="M393.653 172.874L392.16 170.745C392.144 170.721 392.123 170.701 392.099 170.685C392.075 170.669 392.048 170.658 392.02 170.653C391.991 170.648 391.962 170.648 391.934 170.654C391.906 170.66 391.879 170.672 391.855 170.688L389.676 172.163C389.652 172.178 389.631 172.198 389.615 172.222C389.599 172.246 389.587 172.272 389.582 172.3C389.576 172.328 389.576 172.357 389.581 172.385C389.587 172.413 389.598 172.44 389.614 172.464L390.982 174.573C390.998 174.597 391.018 174.618 391.041 174.634C391.065 174.651 391.092 174.662 391.12 174.668C391.148 174.673 391.176 174.674 391.204 174.668C391.232 174.662 391.259 174.651 391.283 174.635L393.591 173.203C393.618 173.187 393.641 173.165 393.659 173.139C393.677 173.113 393.69 173.084 393.696 173.053C393.702 173.022 393.701 172.99 393.693 172.959C393.686 172.928 393.672 172.899 393.653 172.874Z" fill="#464A5F"/>
<path d="M392.627 178.368L391.134 176.234C391.1 176.188 391.049 176.157 390.992 176.147C390.935 176.137 390.877 176.15 390.829 176.182L388.645 177.652C388.597 177.685 388.564 177.735 388.552 177.792C388.541 177.849 388.552 177.908 388.583 177.957L389.952 180.062C389.984 180.11 390.033 180.143 390.089 180.156C390.144 180.168 390.203 180.159 390.252 180.129L392.56 178.697C392.589 178.683 392.614 178.662 392.633 178.636C392.653 178.61 392.666 178.58 392.673 178.549C392.679 178.517 392.678 178.484 392.67 178.453C392.663 178.422 392.648 178.393 392.627 178.368Z" fill="#464A5F"/>
<path d="M389.366 180.626L387.873 178.497C387.857 178.473 387.836 178.452 387.812 178.437C387.788 178.421 387.761 178.41 387.732 178.405C387.704 178.399 387.675 178.4 387.647 178.406C387.619 178.412 387.592 178.423 387.568 178.439L385.384 179.914C385.336 179.946 385.303 179.996 385.292 180.052C385.28 180.108 385.291 180.167 385.322 180.215L386.691 182.32C386.706 182.345 386.726 182.366 386.75 182.383C386.774 182.399 386.801 182.411 386.829 182.417C386.858 182.424 386.887 182.424 386.915 182.419C386.944 182.414 386.971 182.403 386.996 182.387L389.299 180.955C389.328 180.94 389.353 180.919 389.372 180.893C389.392 180.868 389.405 180.838 389.412 180.806C389.418 180.775 389.417 180.742 389.409 180.711C389.401 180.679 389.387 180.65 389.366 180.626Z" fill="#464A5F"/>
<path d="M394.482 167.103L393.075 165.094C393.03 165.031 392.963 164.989 392.887 164.976C392.812 164.962 392.734 164.979 392.67 165.022L390.596 166.411C390.532 166.455 390.488 166.522 390.473 166.597C390.457 166.673 390.473 166.752 390.515 166.817L391.802 168.803C391.845 168.867 391.911 168.912 391.987 168.928C392.063 168.945 392.142 168.93 392.208 168.888L394.382 167.519C394.417 167.499 394.448 167.472 394.472 167.44C394.496 167.408 394.513 167.372 394.523 167.333C394.532 167.294 394.533 167.253 394.526 167.214C394.519 167.174 394.504 167.137 394.482 167.103Z" fill="#464A5F"/>
<path d="M391.22 169.361L389.814 167.356C389.792 167.324 389.765 167.297 389.732 167.276C389.7 167.255 389.664 167.241 389.627 167.234C389.589 167.226 389.55 167.227 389.513 167.235C389.475 167.243 389.44 167.258 389.408 167.28L387.348 168.673C387.285 168.716 387.241 168.782 387.226 168.857C387.21 168.932 387.225 169.01 387.267 169.074L388.555 171.06C388.598 171.125 388.664 171.17 388.739 171.187C388.815 171.204 388.894 171.191 388.96 171.151L391.139 169.781C391.172 169.759 391.201 169.73 391.223 169.697C391.245 169.664 391.26 169.627 391.268 169.588C391.275 169.549 391.275 169.509 391.267 169.47C391.259 169.431 391.243 169.394 391.22 169.361Z" fill="#464A5F"/>
<path d="M387.958 171.623L386.528 169.614C386.484 169.552 386.417 169.51 386.342 169.496C386.267 169.483 386.19 169.499 386.127 169.542L384.062 170.931C383.999 170.975 383.954 171.042 383.939 171.118C383.924 171.193 383.939 171.272 383.981 171.337L385.269 173.323C385.312 173.387 385.378 173.433 385.454 173.449C385.53 173.465 385.609 173.45 385.674 173.409L387.854 172.039C387.889 172.019 387.92 171.993 387.945 171.961C387.969 171.93 387.987 171.893 387.997 171.854C388.007 171.815 388.009 171.774 388.002 171.735C387.995 171.695 387.98 171.657 387.958 171.623Z" fill="#464A5F"/>
<path d="M384.745 173.948L383.252 171.814C383.218 171.768 383.167 171.737 383.11 171.727C383.053 171.717 382.995 171.73 382.947 171.762L380.763 173.232C380.716 173.266 380.683 173.316 380.673 173.373C380.662 173.43 380.674 173.489 380.706 173.538L382.074 175.643C382.106 175.691 382.155 175.725 382.211 175.738C382.267 175.75 382.326 175.74 382.375 175.709L384.683 174.277C384.71 174.262 384.734 174.24 384.753 174.214C384.771 174.188 384.784 174.158 384.79 174.127C384.796 174.096 384.795 174.063 384.787 174.033C384.779 174.002 384.765 173.973 384.745 173.948Z" fill="#464A5F"/>
<path d="M423.342 151.929L422.069 150.086C421.996 149.987 421.888 149.92 421.767 149.899C421.646 149.878 421.522 149.904 421.42 149.972L416.346 153.509C416.248 153.58 416.181 153.685 416.158 153.804C416.135 153.923 416.158 154.046 416.222 154.148L417.443 156.029C417.478 156.081 417.523 156.126 417.575 156.16C417.627 156.195 417.686 156.219 417.748 156.231C417.809 156.243 417.873 156.243 417.934 156.23C417.995 156.218 418.054 156.193 418.106 156.158L423.223 152.573C423.321 152.501 423.388 152.394 423.41 152.275C423.432 152.155 423.408 152.031 423.342 151.929Z" fill="#464A5F"/>
<path d="M390.381 175.065L388.798 172.826C388.781 172.802 388.761 172.781 388.736 172.766C388.712 172.75 388.685 172.739 388.656 172.735C388.628 172.73 388.599 172.731 388.57 172.737C388.542 172.744 388.516 172.756 388.492 172.773L383.047 176.592C383 176.625 382.968 176.675 382.957 176.731C382.946 176.787 382.958 176.845 382.989 176.893L384.482 179.193C384.498 179.218 384.519 179.24 384.543 179.256C384.567 179.273 384.595 179.285 384.624 179.291C384.653 179.296 384.683 179.296 384.711 179.29C384.74 179.284 384.768 179.272 384.792 179.256L390.328 175.375C390.376 175.34 390.408 175.289 390.418 175.23C390.428 175.172 390.415 175.113 390.381 175.065Z" fill="#464A5F"/>
<path d="M407.705 157.943L406.275 155.819C406.242 155.771 406.192 155.738 406.135 155.726C406.078 155.715 406.018 155.726 405.97 155.757L393.881 163.919C393.857 163.935 393.836 163.955 393.82 163.978C393.804 164.002 393.792 164.028 393.787 164.056C393.781 164.085 393.781 164.113 393.786 164.141C393.792 164.17 393.803 164.196 393.819 164.22L395.307 166.511C395.323 166.536 395.343 166.557 395.368 166.574C395.392 166.591 395.42 166.602 395.448 166.608C395.477 166.614 395.507 166.614 395.536 166.608C395.565 166.602 395.592 166.59 395.617 166.573L407.672 158.249C407.716 158.212 407.745 158.16 407.751 158.103C407.757 158.045 407.741 157.988 407.705 157.943Z" fill="#464A5F"/>
<path opacity="0.1" d="M407.763 150.65L401.335 141.299C401.157 141.039 400.884 140.86 400.575 140.801C400.266 140.742 399.946 140.808 399.685 140.984L381.979 152.883C381.848 152.972 381.736 153.085 381.65 153.216C381.563 153.348 381.503 153.495 381.474 153.65C381.444 153.805 381.445 153.964 381.477 154.118C381.509 154.272 381.571 154.419 381.659 154.549L388.211 164.167C388.299 164.298 388.413 164.41 388.544 164.497C388.676 164.583 388.823 164.643 388.978 164.672C389.133 164.702 389.292 164.7 389.446 164.667C389.6 164.635 389.746 164.572 389.876 164.483L407.458 152.306C407.587 152.217 407.697 152.104 407.782 151.973C407.867 151.842 407.926 151.695 407.954 151.541C407.982 151.387 407.98 151.229 407.947 151.076C407.915 150.923 407.852 150.778 407.763 150.65Z" fill="black"/>
<path d="M408.059 150.707L401.631 141.356C401.452 141.097 401.179 140.919 400.87 140.86C400.561 140.801 400.242 140.866 399.981 141.041L382.298 152.95C382.167 153.038 382.054 153.15 381.967 153.282C381.879 153.413 381.819 153.56 381.789 153.715C381.758 153.87 381.759 154.03 381.791 154.184C381.823 154.339 381.885 154.486 381.974 154.616L388.507 164.225C388.595 164.355 388.708 164.467 388.84 164.554C388.971 164.641 389.119 164.7 389.274 164.73C389.428 164.759 389.587 164.757 389.741 164.725C389.896 164.692 390.042 164.629 390.171 164.54L407.763 152.363C407.891 152.274 408.001 152.16 408.085 152.029C408.169 151.897 408.227 151.75 408.254 151.596C408.282 151.443 408.279 151.285 408.245 151.132C408.211 150.979 408.148 150.835 408.059 150.707Z" fill="#939498"/>
<path d="M447.92 165.819L434.281 161.265L390.538 191.68L404.076 196.096C404.442 196.215 404.829 196.248 405.209 196.191C405.589 196.135 405.95 195.991 406.265 195.771L448.044 166.692C448.125 166.644 448.191 166.573 448.231 166.488C448.272 166.403 448.287 166.308 448.274 166.214C448.261 166.121 448.22 166.033 448.157 165.963C448.094 165.892 448.011 165.842 447.92 165.819Z" fill="#6C63FF"/>
</g>
<defs>
<clipPath id="clip0">
<rect width="517" height="362.087" fill="white"/>
</clipPath>
</defs>
</svg>
